%TF.GenerationSoftware,KiCad,Pcbnew,10.0.3*%
%TF.CreationDate,2026-08-09T06:52:55-07:00*%
%TF.ProjectId,sbuck-5v3a,73627563-6b2d-4357-9633-612e6b696361,rev?*%
%TF.SameCoordinates,Original*%
%TF.FileFunction,Paste,Top*%
%TF.FilePolarity,Positive*%
%FSLAX46Y46*%
G04 Gerber Fmt 4.6, Leading zero omitted, Abs format (unit mm)*
G04 Created by KiCad (PCBNEW 10.0.3) date 2026-08-09 06:52:55*
%MOMM*%
%LPD*%
G01*
G04 APERTURE LIST*
G04 Aperture macros list*
%AMRoundRect*
0 Rectangle with rounded corners*
0 $1 Rounding radius*
0 $2 $3 $4 $5 $6 $7 $8 $9 X,Y pos of 4 corners*
0 Add a 4 corners polygon primitive as box body*
4,1,4,$2,$3,$4,$5,$6,$7,$8,$9,$2,$3,0*
0 Add four circle primitives for the rounded corners*
1,1,$1+$1,$2,$3*
1,1,$1+$1,$4,$5*
1,1,$1+$1,$6,$7*
1,1,$1+$1,$8,$9*
0 Add four rect primitives between the rounded corners*
20,1,$1+$1,$2,$3,$4,$5,0*
20,1,$1+$1,$4,$5,$6,$7,0*
20,1,$1+$1,$6,$7,$8,$9,0*
20,1,$1+$1,$8,$9,$2,$3,0*%
G04 Aperture macros list end*
%ADD10R,0.806000X0.864000*%
%ADD11R,1.635000X2.700000*%
%ADD12R,1.485000X1.728000*%
%ADD13R,0.900000X0.800000*%
%ADD14O,1.600000X0.600000*%
%ADD15R,2.613000X3.502000*%
%ADD16R,0.910000X1.220000*%
%ADD17O,1.800000X0.588000*%
%ADD18R,3.500000X3.500000*%
%ADD19R,3.500000X1.200000*%
%ADD20R,0.800000X0.900000*%
%ADD21R,1.410000X1.350000*%
%ADD22RoundRect,0.304000X-0.456000X0.586000X-0.456000X-0.586000X0.456000X-0.586000X0.456000X0.586000X0*%
%ADD23R,0.864000X0.806000*%
%ADD24R,1.701000X1.208000*%
%ADD25R,1.000000X1.400000*%
G04 APERTURE END LIST*
D10*
%TO.C,R5*%
X43970000Y-55025000D03*
X42470000Y-55025000D03*
%TD*%
D11*
%TO.C,C14*%
X55200000Y-59225000D03*
X58240000Y-59225000D03*
%TD*%
D12*
%TO.C,C7*%
X37310000Y-47825000D03*
X34130000Y-47825000D03*
%TD*%
D13*
%TO.C,C9*%
X39320000Y-48760000D03*
X39320000Y-47360000D03*
%TD*%
D14*
%TO.C,U1*%
X41320000Y-46725000D03*
X41320000Y-47995000D03*
X41320000Y-49265000D03*
X41320000Y-50535000D03*
X47320000Y-50535000D03*
X47320000Y-49265000D03*
X47320000Y-47995000D03*
X47320000Y-46725000D03*
D15*
X44320000Y-48625000D03*
%TD*%
D11*
%TO.C,C10*%
X65700000Y-46725000D03*
X68740000Y-46725000D03*
%TD*%
D16*
%TO.C,D2*%
X45260000Y-60825000D03*
X41980000Y-60825000D03*
%TD*%
D12*
%TO.C,C6*%
X37310000Y-44825000D03*
X34130000Y-44825000D03*
%TD*%
D11*
%TO.C,C12*%
X51700000Y-55025000D03*
X54740000Y-55025000D03*
%TD*%
D10*
%TO.C,R7*%
X47970000Y-57225000D03*
X49470000Y-57225000D03*
%TD*%
D11*
%TO.C,C13*%
X57700000Y-52575000D03*
X60740000Y-52575000D03*
%TD*%
D17*
%TO.C,Q1*%
X39820000Y-64625000D03*
X39820000Y-63355000D03*
X39820000Y-62095000D03*
X39820000Y-60825000D03*
X34620000Y-60825000D03*
X34620000Y-62095000D03*
X34620000Y-63355000D03*
X34620000Y-64625000D03*
%TD*%
D18*
%TO.C,L1*%
X50740000Y-45225000D03*
X61100000Y-45225000D03*
%TD*%
D19*
%TO.C,C4*%
X38890000Y-69225000D03*
X33550000Y-69225000D03*
%TD*%
D12*
%TO.C,C5*%
X37310000Y-41825000D03*
X34130000Y-41825000D03*
%TD*%
D20*
%TO.C,C2*%
X40920000Y-55025000D03*
X39520000Y-55025000D03*
%TD*%
D12*
%TO.C,C16*%
X44310000Y-40425000D03*
X41130000Y-40425000D03*
%TD*%
D10*
%TO.C,R6*%
X49970000Y-52425000D03*
X48470000Y-52425000D03*
%TD*%
%TO.C,R3*%
X43970000Y-57425000D03*
X45470000Y-57425000D03*
%TD*%
%TO.C,R1*%
X41970000Y-63725000D03*
X43470000Y-63725000D03*
%TD*%
D12*
%TO.C,C8*%
X37310000Y-50825000D03*
X34130000Y-50825000D03*
%TD*%
D21*
%TO.C,C15*%
X63720000Y-64225000D03*
X65720000Y-64225000D03*
%TD*%
D20*
%TO.C,C3*%
X46920000Y-55025000D03*
X45520000Y-55025000D03*
%TD*%
D22*
%TO.C,F1*%
X36220000Y-54765000D03*
X36220000Y-57685000D03*
%TD*%
D23*
%TO.C,R4*%
X39320000Y-51875000D03*
X39320000Y-50375000D03*
%TD*%
D24*
%TO.C,R9*%
X47420000Y-43905000D03*
X47420000Y-40945000D03*
%TD*%
D25*
%TO.C,D1*%
X62670000Y-69725000D03*
X64770000Y-69725000D03*
%TD*%
D10*
%TO.C,R2*%
X40970000Y-57425000D03*
X42470000Y-57425000D03*
%TD*%
%TO.C,R8*%
X58970000Y-69725000D03*
X60470000Y-69725000D03*
%TD*%
D11*
%TO.C,C11*%
X65700000Y-50225000D03*
X68740000Y-50225000D03*
%TD*%
D20*
%TO.C,C1*%
X41020000Y-43625000D03*
X42420000Y-43625000D03*
%TD*%
M02*
