%TF.GenerationSoftware,KiCad,Pcbnew,10.0.3*%
%TF.CreationDate,2026-08-09T06:52:55-07:00*%
%TF.ProjectId,sbuck-5v3a,73627563-6b2d-4357-9633-612e6b696361,rev?*%
%TF.SameCoordinates,Original*%
%TF.FileFunction,Legend,Top*%
%TF.FilePolarity,Positive*%
%FSLAX46Y46*%
G04 Gerber Fmt 4.6, Leading zero omitted, Abs format (unit mm)*
G04 Created by KiCad (PCBNEW 10.0.3) date 2026-08-09 06:52:55*
%MOMM*%
%LPD*%
G01*
G04 APERTURE LIST*
%ADD10C,0.150000*%
%ADD11C,0.060000*%
%ADD12C,0.250000*%
%ADD13C,0.200000*%
%ADD14C,0.130000*%
%ADD15C,0.000000*%
%ADD16C,0.300000*%
%ADD17C,0.120000*%
G04 APERTURE END LIST*
D10*
X37462858Y-59582533D02*
X38072382Y-59582533D01*
X37767620Y-59887295D02*
X37767620Y-59277771D01*
X38339048Y-59087295D02*
X38605715Y-59887295D01*
X38605715Y-59887295D02*
X38872381Y-59087295D01*
X39139048Y-59887295D02*
X39139048Y-59087295D01*
X39520000Y-59887295D02*
X39520000Y-59087295D01*
X39520000Y-59087295D02*
X39977143Y-59887295D01*
X39977143Y-59887295D02*
X39977143Y-59087295D01*
X44034285Y-45799200D02*
X44148571Y-45837295D01*
X44148571Y-45837295D02*
X44339047Y-45837295D01*
X44339047Y-45837295D02*
X44415238Y-45799200D01*
X44415238Y-45799200D02*
X44453333Y-45761104D01*
X44453333Y-45761104D02*
X44491428Y-45684914D01*
X44491428Y-45684914D02*
X44491428Y-45608723D01*
X44491428Y-45608723D02*
X44453333Y-45532533D01*
X44453333Y-45532533D02*
X44415238Y-45494438D01*
X44415238Y-45494438D02*
X44339047Y-45456342D01*
X44339047Y-45456342D02*
X44186666Y-45418247D01*
X44186666Y-45418247D02*
X44110476Y-45380152D01*
X44110476Y-45380152D02*
X44072381Y-45342057D01*
X44072381Y-45342057D02*
X44034285Y-45265866D01*
X44034285Y-45265866D02*
X44034285Y-45189676D01*
X44034285Y-45189676D02*
X44072381Y-45113485D01*
X44072381Y-45113485D02*
X44110476Y-45075390D01*
X44110476Y-45075390D02*
X44186666Y-45037295D01*
X44186666Y-45037295D02*
X44377143Y-45037295D01*
X44377143Y-45037295D02*
X44491428Y-45075390D01*
X44758095Y-45037295D02*
X44948571Y-45837295D01*
X44948571Y-45837295D02*
X45100952Y-45265866D01*
X45100952Y-45265866D02*
X45253333Y-45837295D01*
X45253333Y-45837295D02*
X45443810Y-45037295D01*
X47129524Y-61568247D02*
X47396190Y-61568247D01*
X47510476Y-61987295D02*
X47129524Y-61987295D01*
X47129524Y-61987295D02*
X47129524Y-61187295D01*
X47129524Y-61187295D02*
X47510476Y-61187295D01*
X47853334Y-61987295D02*
X47853334Y-61187295D01*
X47853334Y-61187295D02*
X48310477Y-61987295D01*
X48310477Y-61987295D02*
X48310477Y-61187295D01*
X50110476Y-64425390D02*
X50034286Y-64387295D01*
X50034286Y-64387295D02*
X49920000Y-64387295D01*
X49920000Y-64387295D02*
X49805714Y-64425390D01*
X49805714Y-64425390D02*
X49729524Y-64501580D01*
X49729524Y-64501580D02*
X49691429Y-64577771D01*
X49691429Y-64577771D02*
X49653333Y-64730152D01*
X49653333Y-64730152D02*
X49653333Y-64844438D01*
X49653333Y-64844438D02*
X49691429Y-64996819D01*
X49691429Y-64996819D02*
X49729524Y-65073009D01*
X49729524Y-65073009D02*
X49805714Y-65149200D01*
X49805714Y-65149200D02*
X49920000Y-65187295D01*
X49920000Y-65187295D02*
X49996191Y-65187295D01*
X49996191Y-65187295D02*
X50110476Y-65149200D01*
X50110476Y-65149200D02*
X50148572Y-65111104D01*
X50148572Y-65111104D02*
X50148572Y-64844438D01*
X50148572Y-64844438D02*
X49996191Y-64844438D01*
X50491429Y-65187295D02*
X50491429Y-64387295D01*
X50491429Y-64387295D02*
X50948572Y-65187295D01*
X50948572Y-65187295D02*
X50948572Y-64387295D01*
X51329524Y-65187295D02*
X51329524Y-64387295D01*
X51329524Y-64387295D02*
X51520000Y-64387295D01*
X51520000Y-64387295D02*
X51634286Y-64425390D01*
X51634286Y-64425390D02*
X51710476Y-64501580D01*
X51710476Y-64501580D02*
X51748571Y-64577771D01*
X51748571Y-64577771D02*
X51786667Y-64730152D01*
X51786667Y-64730152D02*
X51786667Y-64844438D01*
X51786667Y-64844438D02*
X51748571Y-64996819D01*
X51748571Y-64996819D02*
X51710476Y-65073009D01*
X51710476Y-65073009D02*
X51634286Y-65149200D01*
X51634286Y-65149200D02*
X51520000Y-65187295D01*
X51520000Y-65187295D02*
X51329524Y-65187295D01*
X51934285Y-57468247D02*
X51667619Y-57468247D01*
X51667619Y-57887295D02*
X51667619Y-57087295D01*
X51667619Y-57087295D02*
X52048571Y-57087295D01*
X52619999Y-57468247D02*
X52734285Y-57506342D01*
X52734285Y-57506342D02*
X52772380Y-57544438D01*
X52772380Y-57544438D02*
X52810476Y-57620628D01*
X52810476Y-57620628D02*
X52810476Y-57734914D01*
X52810476Y-57734914D02*
X52772380Y-57811104D01*
X52772380Y-57811104D02*
X52734285Y-57849200D01*
X52734285Y-57849200D02*
X52658095Y-57887295D01*
X52658095Y-57887295D02*
X52353333Y-57887295D01*
X52353333Y-57887295D02*
X52353333Y-57087295D01*
X52353333Y-57087295D02*
X52619999Y-57087295D01*
X52619999Y-57087295D02*
X52696190Y-57125390D01*
X52696190Y-57125390D02*
X52734285Y-57163485D01*
X52734285Y-57163485D02*
X52772380Y-57239676D01*
X52772380Y-57239676D02*
X52772380Y-57315866D01*
X52772380Y-57315866D02*
X52734285Y-57392057D01*
X52734285Y-57392057D02*
X52696190Y-57430152D01*
X52696190Y-57430152D02*
X52619999Y-57468247D01*
X52619999Y-57468247D02*
X52353333Y-57468247D01*
X54234285Y-64425390D02*
X54158095Y-64387295D01*
X54158095Y-64387295D02*
X54043809Y-64387295D01*
X54043809Y-64387295D02*
X53929523Y-64425390D01*
X53929523Y-64425390D02*
X53853333Y-64501580D01*
X53853333Y-64501580D02*
X53815238Y-64577771D01*
X53815238Y-64577771D02*
X53777142Y-64730152D01*
X53777142Y-64730152D02*
X53777142Y-64844438D01*
X53777142Y-64844438D02*
X53815238Y-64996819D01*
X53815238Y-64996819D02*
X53853333Y-65073009D01*
X53853333Y-65073009D02*
X53929523Y-65149200D01*
X53929523Y-65149200D02*
X54043809Y-65187295D01*
X54043809Y-65187295D02*
X54120000Y-65187295D01*
X54120000Y-65187295D02*
X54234285Y-65149200D01*
X54234285Y-65149200D02*
X54272381Y-65111104D01*
X54272381Y-65111104D02*
X54272381Y-64844438D01*
X54272381Y-64844438D02*
X54120000Y-64844438D01*
X54615238Y-65187295D02*
X54615238Y-64387295D01*
X54615238Y-64387295D02*
X55072381Y-65187295D01*
X55072381Y-65187295D02*
X55072381Y-64387295D01*
X55453333Y-65187295D02*
X55453333Y-64387295D01*
X55453333Y-64387295D02*
X55643809Y-64387295D01*
X55643809Y-64387295D02*
X55758095Y-64425390D01*
X55758095Y-64425390D02*
X55834285Y-64501580D01*
X55834285Y-64501580D02*
X55872380Y-64577771D01*
X55872380Y-64577771D02*
X55910476Y-64730152D01*
X55910476Y-64730152D02*
X55910476Y-64844438D01*
X55910476Y-64844438D02*
X55872380Y-64996819D01*
X55872380Y-64996819D02*
X55834285Y-65073009D01*
X55834285Y-65073009D02*
X55758095Y-65149200D01*
X55758095Y-65149200D02*
X55643809Y-65187295D01*
X55643809Y-65187295D02*
X55453333Y-65187295D01*
X56253333Y-64882533D02*
X56862857Y-64882533D01*
X57205713Y-65149200D02*
X57319999Y-65187295D01*
X57319999Y-65187295D02*
X57510475Y-65187295D01*
X57510475Y-65187295D02*
X57586666Y-65149200D01*
X57586666Y-65149200D02*
X57624761Y-65111104D01*
X57624761Y-65111104D02*
X57662856Y-65034914D01*
X57662856Y-65034914D02*
X57662856Y-64958723D01*
X57662856Y-64958723D02*
X57624761Y-64882533D01*
X57624761Y-64882533D02*
X57586666Y-64844438D01*
X57586666Y-64844438D02*
X57510475Y-64806342D01*
X57510475Y-64806342D02*
X57358094Y-64768247D01*
X57358094Y-64768247D02*
X57281904Y-64730152D01*
X57281904Y-64730152D02*
X57243809Y-64692057D01*
X57243809Y-64692057D02*
X57205713Y-64615866D01*
X57205713Y-64615866D02*
X57205713Y-64539676D01*
X57205713Y-64539676D02*
X57243809Y-64463485D01*
X57243809Y-64463485D02*
X57281904Y-64425390D01*
X57281904Y-64425390D02*
X57358094Y-64387295D01*
X57358094Y-64387295D02*
X57548571Y-64387295D01*
X57548571Y-64387295D02*
X57662856Y-64425390D01*
X59691429Y-64882533D02*
X60300953Y-64882533D01*
X59996191Y-65187295D02*
X59996191Y-64577771D01*
X61062857Y-64387295D02*
X60681905Y-64387295D01*
X60681905Y-64387295D02*
X60643809Y-64768247D01*
X60643809Y-64768247D02*
X60681905Y-64730152D01*
X60681905Y-64730152D02*
X60758095Y-64692057D01*
X60758095Y-64692057D02*
X60948571Y-64692057D01*
X60948571Y-64692057D02*
X61024762Y-64730152D01*
X61024762Y-64730152D02*
X61062857Y-64768247D01*
X61062857Y-64768247D02*
X61100952Y-64844438D01*
X61100952Y-64844438D02*
X61100952Y-65034914D01*
X61100952Y-65034914D02*
X61062857Y-65111104D01*
X61062857Y-65111104D02*
X61024762Y-65149200D01*
X61024762Y-65149200D02*
X60948571Y-65187295D01*
X60948571Y-65187295D02*
X60758095Y-65187295D01*
X60758095Y-65187295D02*
X60681905Y-65149200D01*
X60681905Y-65149200D02*
X60643809Y-65111104D01*
X61329524Y-64387295D02*
X61596191Y-65187295D01*
X61596191Y-65187295D02*
X61862857Y-64387295D01*
X40977143Y-45733557D02*
X40462857Y-45733557D01*
X40720000Y-45733557D02*
X40720000Y-44833557D01*
X40720000Y-44833557D02*
X40634286Y-44962128D01*
X40634286Y-44962128D02*
X40548571Y-45047842D01*
X40548571Y-45047842D02*
X40462857Y-45090700D01*
X36598570Y-74990700D02*
X36684284Y-75033557D01*
X36684284Y-75033557D02*
X36855713Y-75033557D01*
X36855713Y-75033557D02*
X36941427Y-74990700D01*
X36941427Y-74990700D02*
X36984284Y-74904985D01*
X36984284Y-74904985D02*
X36984284Y-74862128D01*
X36984284Y-74862128D02*
X36941427Y-74776414D01*
X36941427Y-74776414D02*
X36855713Y-74733557D01*
X36855713Y-74733557D02*
X36727142Y-74733557D01*
X36727142Y-74733557D02*
X36641427Y-74690700D01*
X36641427Y-74690700D02*
X36598570Y-74604985D01*
X36598570Y-74604985D02*
X36598570Y-74562128D01*
X36598570Y-74562128D02*
X36641427Y-74476414D01*
X36641427Y-74476414D02*
X36727142Y-74433557D01*
X36727142Y-74433557D02*
X36855713Y-74433557D01*
X36855713Y-74433557D02*
X36941427Y-74476414D01*
X37369998Y-75033557D02*
X37369998Y-74133557D01*
X37369998Y-74476414D02*
X37455713Y-74433557D01*
X37455713Y-74433557D02*
X37627141Y-74433557D01*
X37627141Y-74433557D02*
X37712855Y-74476414D01*
X37712855Y-74476414D02*
X37755713Y-74519271D01*
X37755713Y-74519271D02*
X37798570Y-74604985D01*
X37798570Y-74604985D02*
X37798570Y-74862128D01*
X37798570Y-74862128D02*
X37755713Y-74947842D01*
X37755713Y-74947842D02*
X37712855Y-74990700D01*
X37712855Y-74990700D02*
X37627141Y-75033557D01*
X37627141Y-75033557D02*
X37455713Y-75033557D01*
X37455713Y-75033557D02*
X37369998Y-74990700D01*
X38569999Y-74433557D02*
X38569999Y-75033557D01*
X38184284Y-74433557D02*
X38184284Y-74904985D01*
X38184284Y-74904985D02*
X38227141Y-74990700D01*
X38227141Y-74990700D02*
X38312856Y-75033557D01*
X38312856Y-75033557D02*
X38441427Y-75033557D01*
X38441427Y-75033557D02*
X38527141Y-74990700D01*
X38527141Y-74990700D02*
X38569999Y-74947842D01*
X39384285Y-74990700D02*
X39298570Y-75033557D01*
X39298570Y-75033557D02*
X39127142Y-75033557D01*
X39127142Y-75033557D02*
X39041427Y-74990700D01*
X39041427Y-74990700D02*
X38998570Y-74947842D01*
X38998570Y-74947842D02*
X38955713Y-74862128D01*
X38955713Y-74862128D02*
X38955713Y-74604985D01*
X38955713Y-74604985D02*
X38998570Y-74519271D01*
X38998570Y-74519271D02*
X39041427Y-74476414D01*
X39041427Y-74476414D02*
X39127142Y-74433557D01*
X39127142Y-74433557D02*
X39298570Y-74433557D01*
X39298570Y-74433557D02*
X39384285Y-74476414D01*
X39769999Y-75033557D02*
X39769999Y-74133557D01*
X39855714Y-74690700D02*
X40112856Y-75033557D01*
X40112856Y-74433557D02*
X39769999Y-74776414D01*
X40498570Y-74690700D02*
X41184285Y-74690700D01*
X42041428Y-74133557D02*
X41612856Y-74133557D01*
X41612856Y-74133557D02*
X41569999Y-74562128D01*
X41569999Y-74562128D02*
X41612856Y-74519271D01*
X41612856Y-74519271D02*
X41698571Y-74476414D01*
X41698571Y-74476414D02*
X41912856Y-74476414D01*
X41912856Y-74476414D02*
X41998571Y-74519271D01*
X41998571Y-74519271D02*
X42041428Y-74562128D01*
X42041428Y-74562128D02*
X42084285Y-74647842D01*
X42084285Y-74647842D02*
X42084285Y-74862128D01*
X42084285Y-74862128D02*
X42041428Y-74947842D01*
X42041428Y-74947842D02*
X41998571Y-74990700D01*
X41998571Y-74990700D02*
X41912856Y-75033557D01*
X41912856Y-75033557D02*
X41698571Y-75033557D01*
X41698571Y-75033557D02*
X41612856Y-74990700D01*
X41612856Y-74990700D02*
X41569999Y-74947842D01*
X42384285Y-74433557D02*
X42598571Y-75033557D01*
X42598571Y-75033557D02*
X42812856Y-74433557D01*
X43069999Y-74133557D02*
X43627142Y-74133557D01*
X43627142Y-74133557D02*
X43327142Y-74476414D01*
X43327142Y-74476414D02*
X43455713Y-74476414D01*
X43455713Y-74476414D02*
X43541428Y-74519271D01*
X43541428Y-74519271D02*
X43584285Y-74562128D01*
X43584285Y-74562128D02*
X43627142Y-74647842D01*
X43627142Y-74647842D02*
X43627142Y-74862128D01*
X43627142Y-74862128D02*
X43584285Y-74947842D01*
X43584285Y-74947842D02*
X43541428Y-74990700D01*
X43541428Y-74990700D02*
X43455713Y-75033557D01*
X43455713Y-75033557D02*
X43198570Y-75033557D01*
X43198570Y-75033557D02*
X43112856Y-74990700D01*
X43112856Y-74990700D02*
X43069999Y-74947842D01*
X44398571Y-75033557D02*
X44398571Y-74562128D01*
X44398571Y-74562128D02*
X44355713Y-74476414D01*
X44355713Y-74476414D02*
X44269999Y-74433557D01*
X44269999Y-74433557D02*
X44098571Y-74433557D01*
X44098571Y-74433557D02*
X44012856Y-74476414D01*
X44398571Y-74990700D02*
X44312856Y-75033557D01*
X44312856Y-75033557D02*
X44098571Y-75033557D01*
X44098571Y-75033557D02*
X44012856Y-74990700D01*
X44012856Y-74990700D02*
X43969999Y-74904985D01*
X43969999Y-74904985D02*
X43969999Y-74819271D01*
X43969999Y-74819271D02*
X44012856Y-74733557D01*
X44012856Y-74733557D02*
X44098571Y-74690700D01*
X44098571Y-74690700D02*
X44312856Y-74690700D01*
X44312856Y-74690700D02*
X44398571Y-74647842D01*
X46027142Y-75033557D02*
X45727142Y-74604985D01*
X45512856Y-75033557D02*
X45512856Y-74133557D01*
X45512856Y-74133557D02*
X45855713Y-74133557D01*
X45855713Y-74133557D02*
X45941428Y-74176414D01*
X45941428Y-74176414D02*
X45984285Y-74219271D01*
X45984285Y-74219271D02*
X46027142Y-74304985D01*
X46027142Y-74304985D02*
X46027142Y-74433557D01*
X46027142Y-74433557D02*
X45984285Y-74519271D01*
X45984285Y-74519271D02*
X45941428Y-74562128D01*
X45941428Y-74562128D02*
X45855713Y-74604985D01*
X45855713Y-74604985D02*
X45512856Y-74604985D01*
X46412856Y-74562128D02*
X46712856Y-74562128D01*
X46841428Y-75033557D02*
X46412856Y-75033557D01*
X46412856Y-75033557D02*
X46412856Y-74133557D01*
X46412856Y-74133557D02*
X46841428Y-74133557D01*
X47098571Y-74133557D02*
X47398571Y-75033557D01*
X47398571Y-75033557D02*
X47698571Y-74133557D01*
X48641428Y-74776414D02*
X49070000Y-74776414D01*
X48555714Y-75033557D02*
X48855714Y-74133557D01*
X48855714Y-74133557D02*
X49155714Y-75033557D01*
X50098571Y-74219271D02*
X50141428Y-74176414D01*
X50141428Y-74176414D02*
X50227143Y-74133557D01*
X50227143Y-74133557D02*
X50441428Y-74133557D01*
X50441428Y-74133557D02*
X50527143Y-74176414D01*
X50527143Y-74176414D02*
X50570000Y-74219271D01*
X50570000Y-74219271D02*
X50612857Y-74304985D01*
X50612857Y-74304985D02*
X50612857Y-74390700D01*
X50612857Y-74390700D02*
X50570000Y-74519271D01*
X50570000Y-74519271D02*
X50055714Y-75033557D01*
X50055714Y-75033557D02*
X50612857Y-75033557D01*
X51170000Y-74133557D02*
X51255714Y-74133557D01*
X51255714Y-74133557D02*
X51341428Y-74176414D01*
X51341428Y-74176414D02*
X51384286Y-74219271D01*
X51384286Y-74219271D02*
X51427143Y-74304985D01*
X51427143Y-74304985D02*
X51470000Y-74476414D01*
X51470000Y-74476414D02*
X51470000Y-74690700D01*
X51470000Y-74690700D02*
X51427143Y-74862128D01*
X51427143Y-74862128D02*
X51384286Y-74947842D01*
X51384286Y-74947842D02*
X51341428Y-74990700D01*
X51341428Y-74990700D02*
X51255714Y-75033557D01*
X51255714Y-75033557D02*
X51170000Y-75033557D01*
X51170000Y-75033557D02*
X51084286Y-74990700D01*
X51084286Y-74990700D02*
X51041428Y-74947842D01*
X51041428Y-74947842D02*
X50998571Y-74862128D01*
X50998571Y-74862128D02*
X50955714Y-74690700D01*
X50955714Y-74690700D02*
X50955714Y-74476414D01*
X50955714Y-74476414D02*
X50998571Y-74304985D01*
X50998571Y-74304985D02*
X51041428Y-74219271D01*
X51041428Y-74219271D02*
X51084286Y-74176414D01*
X51084286Y-74176414D02*
X51170000Y-74133557D01*
X51812857Y-74219271D02*
X51855714Y-74176414D01*
X51855714Y-74176414D02*
X51941429Y-74133557D01*
X51941429Y-74133557D02*
X52155714Y-74133557D01*
X52155714Y-74133557D02*
X52241429Y-74176414D01*
X52241429Y-74176414D02*
X52284286Y-74219271D01*
X52284286Y-74219271D02*
X52327143Y-74304985D01*
X52327143Y-74304985D02*
X52327143Y-74390700D01*
X52327143Y-74390700D02*
X52284286Y-74519271D01*
X52284286Y-74519271D02*
X51770000Y-75033557D01*
X51770000Y-75033557D02*
X52327143Y-75033557D01*
X53098572Y-74133557D02*
X52927143Y-74133557D01*
X52927143Y-74133557D02*
X52841429Y-74176414D01*
X52841429Y-74176414D02*
X52798572Y-74219271D01*
X52798572Y-74219271D02*
X52712857Y-74347842D01*
X52712857Y-74347842D02*
X52670000Y-74519271D01*
X52670000Y-74519271D02*
X52670000Y-74862128D01*
X52670000Y-74862128D02*
X52712857Y-74947842D01*
X52712857Y-74947842D02*
X52755714Y-74990700D01*
X52755714Y-74990700D02*
X52841429Y-75033557D01*
X52841429Y-75033557D02*
X53012857Y-75033557D01*
X53012857Y-75033557D02*
X53098572Y-74990700D01*
X53098572Y-74990700D02*
X53141429Y-74947842D01*
X53141429Y-74947842D02*
X53184286Y-74862128D01*
X53184286Y-74862128D02*
X53184286Y-74647842D01*
X53184286Y-74647842D02*
X53141429Y-74562128D01*
X53141429Y-74562128D02*
X53098572Y-74519271D01*
X53098572Y-74519271D02*
X53012857Y-74476414D01*
X53012857Y-74476414D02*
X52841429Y-74476414D01*
X52841429Y-74476414D02*
X52755714Y-74519271D01*
X52755714Y-74519271D02*
X52712857Y-74562128D01*
X52712857Y-74562128D02*
X52670000Y-74647842D01*
X53570000Y-74690700D02*
X54255715Y-74690700D01*
X54855715Y-74133557D02*
X54941429Y-74133557D01*
X54941429Y-74133557D02*
X55027143Y-74176414D01*
X55027143Y-74176414D02*
X55070001Y-74219271D01*
X55070001Y-74219271D02*
X55112858Y-74304985D01*
X55112858Y-74304985D02*
X55155715Y-74476414D01*
X55155715Y-74476414D02*
X55155715Y-74690700D01*
X55155715Y-74690700D02*
X55112858Y-74862128D01*
X55112858Y-74862128D02*
X55070001Y-74947842D01*
X55070001Y-74947842D02*
X55027143Y-74990700D01*
X55027143Y-74990700D02*
X54941429Y-75033557D01*
X54941429Y-75033557D02*
X54855715Y-75033557D01*
X54855715Y-75033557D02*
X54770001Y-74990700D01*
X54770001Y-74990700D02*
X54727143Y-74947842D01*
X54727143Y-74947842D02*
X54684286Y-74862128D01*
X54684286Y-74862128D02*
X54641429Y-74690700D01*
X54641429Y-74690700D02*
X54641429Y-74476414D01*
X54641429Y-74476414D02*
X54684286Y-74304985D01*
X54684286Y-74304985D02*
X54727143Y-74219271D01*
X54727143Y-74219271D02*
X54770001Y-74176414D01*
X54770001Y-74176414D02*
X54855715Y-74133557D01*
X55670001Y-74519271D02*
X55584286Y-74476414D01*
X55584286Y-74476414D02*
X55541429Y-74433557D01*
X55541429Y-74433557D02*
X55498572Y-74347842D01*
X55498572Y-74347842D02*
X55498572Y-74304985D01*
X55498572Y-74304985D02*
X55541429Y-74219271D01*
X55541429Y-74219271D02*
X55584286Y-74176414D01*
X55584286Y-74176414D02*
X55670001Y-74133557D01*
X55670001Y-74133557D02*
X55841429Y-74133557D01*
X55841429Y-74133557D02*
X55927144Y-74176414D01*
X55927144Y-74176414D02*
X55970001Y-74219271D01*
X55970001Y-74219271D02*
X56012858Y-74304985D01*
X56012858Y-74304985D02*
X56012858Y-74347842D01*
X56012858Y-74347842D02*
X55970001Y-74433557D01*
X55970001Y-74433557D02*
X55927144Y-74476414D01*
X55927144Y-74476414D02*
X55841429Y-74519271D01*
X55841429Y-74519271D02*
X55670001Y-74519271D01*
X55670001Y-74519271D02*
X55584286Y-74562128D01*
X55584286Y-74562128D02*
X55541429Y-74604985D01*
X55541429Y-74604985D02*
X55498572Y-74690700D01*
X55498572Y-74690700D02*
X55498572Y-74862128D01*
X55498572Y-74862128D02*
X55541429Y-74947842D01*
X55541429Y-74947842D02*
X55584286Y-74990700D01*
X55584286Y-74990700D02*
X55670001Y-75033557D01*
X55670001Y-75033557D02*
X55841429Y-75033557D01*
X55841429Y-75033557D02*
X55927144Y-74990700D01*
X55927144Y-74990700D02*
X55970001Y-74947842D01*
X55970001Y-74947842D02*
X56012858Y-74862128D01*
X56012858Y-74862128D02*
X56012858Y-74690700D01*
X56012858Y-74690700D02*
X55970001Y-74604985D01*
X55970001Y-74604985D02*
X55927144Y-74562128D01*
X55927144Y-74562128D02*
X55841429Y-74519271D01*
X56398572Y-74690700D02*
X57084287Y-74690700D01*
X57684287Y-74133557D02*
X57770001Y-74133557D01*
X57770001Y-74133557D02*
X57855715Y-74176414D01*
X57855715Y-74176414D02*
X57898573Y-74219271D01*
X57898573Y-74219271D02*
X57941430Y-74304985D01*
X57941430Y-74304985D02*
X57984287Y-74476414D01*
X57984287Y-74476414D02*
X57984287Y-74690700D01*
X57984287Y-74690700D02*
X57941430Y-74862128D01*
X57941430Y-74862128D02*
X57898573Y-74947842D01*
X57898573Y-74947842D02*
X57855715Y-74990700D01*
X57855715Y-74990700D02*
X57770001Y-75033557D01*
X57770001Y-75033557D02*
X57684287Y-75033557D01*
X57684287Y-75033557D02*
X57598573Y-74990700D01*
X57598573Y-74990700D02*
X57555715Y-74947842D01*
X57555715Y-74947842D02*
X57512858Y-74862128D01*
X57512858Y-74862128D02*
X57470001Y-74690700D01*
X57470001Y-74690700D02*
X57470001Y-74476414D01*
X57470001Y-74476414D02*
X57512858Y-74304985D01*
X57512858Y-74304985D02*
X57555715Y-74219271D01*
X57555715Y-74219271D02*
X57598573Y-74176414D01*
X57598573Y-74176414D02*
X57684287Y-74133557D01*
X58412858Y-75033557D02*
X58584287Y-75033557D01*
X58584287Y-75033557D02*
X58670001Y-74990700D01*
X58670001Y-74990700D02*
X58712858Y-74947842D01*
X58712858Y-74947842D02*
X58798573Y-74819271D01*
X58798573Y-74819271D02*
X58841430Y-74647842D01*
X58841430Y-74647842D02*
X58841430Y-74304985D01*
X58841430Y-74304985D02*
X58798573Y-74219271D01*
X58798573Y-74219271D02*
X58755716Y-74176414D01*
X58755716Y-74176414D02*
X58670001Y-74133557D01*
X58670001Y-74133557D02*
X58498573Y-74133557D01*
X58498573Y-74133557D02*
X58412858Y-74176414D01*
X58412858Y-74176414D02*
X58370001Y-74219271D01*
X58370001Y-74219271D02*
X58327144Y-74304985D01*
X58327144Y-74304985D02*
X58327144Y-74519271D01*
X58327144Y-74519271D02*
X58370001Y-74604985D01*
X58370001Y-74604985D02*
X58412858Y-74647842D01*
X58412858Y-74647842D02*
X58498573Y-74690700D01*
X58498573Y-74690700D02*
X58670001Y-74690700D01*
X58670001Y-74690700D02*
X58755716Y-74647842D01*
X58755716Y-74647842D02*
X58798573Y-74604985D01*
X58798573Y-74604985D02*
X58841430Y-74519271D01*
X24767619Y-63679819D02*
X25100952Y-64679819D01*
X25100952Y-64679819D02*
X25434285Y-63679819D01*
X25767619Y-64679819D02*
X25767619Y-63679819D01*
X26243809Y-64679819D02*
X26243809Y-63679819D01*
X26243809Y-63679819D02*
X26815237Y-64679819D01*
X26815237Y-64679819D02*
X26815237Y-63679819D01*
X27958095Y-63679819D02*
X28624761Y-63679819D01*
X28624761Y-63679819D02*
X28196190Y-64679819D01*
X29005714Y-64298866D02*
X29767619Y-64298866D01*
X30767618Y-64679819D02*
X30196190Y-64679819D01*
X30481904Y-64679819D02*
X30481904Y-63679819D01*
X30481904Y-63679819D02*
X30386666Y-63822676D01*
X30386666Y-63822676D02*
X30291428Y-63917914D01*
X30291428Y-63917914D02*
X30196190Y-63965533D01*
X31339047Y-64108390D02*
X31243809Y-64060771D01*
X31243809Y-64060771D02*
X31196190Y-64013152D01*
X31196190Y-64013152D02*
X31148571Y-63917914D01*
X31148571Y-63917914D02*
X31148571Y-63870295D01*
X31148571Y-63870295D02*
X31196190Y-63775057D01*
X31196190Y-63775057D02*
X31243809Y-63727438D01*
X31243809Y-63727438D02*
X31339047Y-63679819D01*
X31339047Y-63679819D02*
X31529523Y-63679819D01*
X31529523Y-63679819D02*
X31624761Y-63727438D01*
X31624761Y-63727438D02*
X31672380Y-63775057D01*
X31672380Y-63775057D02*
X31719999Y-63870295D01*
X31719999Y-63870295D02*
X31719999Y-63917914D01*
X31719999Y-63917914D02*
X31672380Y-64013152D01*
X31672380Y-64013152D02*
X31624761Y-64060771D01*
X31624761Y-64060771D02*
X31529523Y-64108390D01*
X31529523Y-64108390D02*
X31339047Y-64108390D01*
X31339047Y-64108390D02*
X31243809Y-64156009D01*
X31243809Y-64156009D02*
X31196190Y-64203628D01*
X31196190Y-64203628D02*
X31148571Y-64298866D01*
X31148571Y-64298866D02*
X31148571Y-64489342D01*
X31148571Y-64489342D02*
X31196190Y-64584580D01*
X31196190Y-64584580D02*
X31243809Y-64632200D01*
X31243809Y-64632200D02*
X31339047Y-64679819D01*
X31339047Y-64679819D02*
X31529523Y-64679819D01*
X31529523Y-64679819D02*
X31624761Y-64632200D01*
X31624761Y-64632200D02*
X31672380Y-64584580D01*
X31672380Y-64584580D02*
X31719999Y-64489342D01*
X31719999Y-64489342D02*
X31719999Y-64298866D01*
X31719999Y-64298866D02*
X31672380Y-64203628D01*
X31672380Y-64203628D02*
X31624761Y-64156009D01*
X31624761Y-64156009D02*
X31529523Y-64108390D01*
X32005714Y-63679819D02*
X32339047Y-64679819D01*
X32339047Y-64679819D02*
X32672380Y-63679819D01*
X45638095Y-59454819D02*
X45638095Y-58454819D01*
X46209523Y-59454819D02*
X45780952Y-58883390D01*
X46209523Y-58454819D02*
X45638095Y-59026247D01*
X64508095Y-72079819D02*
X64508095Y-71079819D01*
X65079523Y-72079819D02*
X64650952Y-71508390D01*
X65079523Y-71079819D02*
X64508095Y-71651247D01*
X62886666Y-66279819D02*
X63219999Y-67279819D01*
X63219999Y-67279819D02*
X63553332Y-66279819D01*
X64077142Y-66279819D02*
X64267618Y-66279819D01*
X64267618Y-66279819D02*
X64362856Y-66327438D01*
X64362856Y-66327438D02*
X64458094Y-66422676D01*
X64458094Y-66422676D02*
X64505713Y-66613152D01*
X64505713Y-66613152D02*
X64505713Y-66946485D01*
X64505713Y-66946485D02*
X64458094Y-67136961D01*
X64458094Y-67136961D02*
X64362856Y-67232200D01*
X64362856Y-67232200D02*
X64267618Y-67279819D01*
X64267618Y-67279819D02*
X64077142Y-67279819D01*
X64077142Y-67279819D02*
X63981904Y-67232200D01*
X63981904Y-67232200D02*
X63886666Y-67136961D01*
X63886666Y-67136961D02*
X63839047Y-66946485D01*
X63839047Y-66946485D02*
X63839047Y-66613152D01*
X63839047Y-66613152D02*
X63886666Y-66422676D01*
X63886666Y-66422676D02*
X63981904Y-66327438D01*
X63981904Y-66327438D02*
X64077142Y-66279819D01*
X64934285Y-66279819D02*
X64934285Y-67089342D01*
X64934285Y-67089342D02*
X64981904Y-67184580D01*
X64981904Y-67184580D02*
X65029523Y-67232200D01*
X65029523Y-67232200D02*
X65124761Y-67279819D01*
X65124761Y-67279819D02*
X65315237Y-67279819D01*
X65315237Y-67279819D02*
X65410475Y-67232200D01*
X65410475Y-67232200D02*
X65458094Y-67184580D01*
X65458094Y-67184580D02*
X65505713Y-67089342D01*
X65505713Y-67089342D02*
X65505713Y-66279819D01*
X65839047Y-66279819D02*
X66410475Y-66279819D01*
X66124761Y-67279819D02*
X66124761Y-66279819D01*
X67981904Y-66279819D02*
X67505714Y-66279819D01*
X67505714Y-66279819D02*
X67458095Y-66756009D01*
X67458095Y-66756009D02*
X67505714Y-66708390D01*
X67505714Y-66708390D02*
X67600952Y-66660771D01*
X67600952Y-66660771D02*
X67839047Y-66660771D01*
X67839047Y-66660771D02*
X67934285Y-66708390D01*
X67934285Y-66708390D02*
X67981904Y-66756009D01*
X67981904Y-66756009D02*
X68029523Y-66851247D01*
X68029523Y-66851247D02*
X68029523Y-67089342D01*
X68029523Y-67089342D02*
X67981904Y-67184580D01*
X67981904Y-67184580D02*
X67934285Y-67232200D01*
X67934285Y-67232200D02*
X67839047Y-67279819D01*
X67839047Y-67279819D02*
X67600952Y-67279819D01*
X67600952Y-67279819D02*
X67505714Y-67232200D01*
X67505714Y-67232200D02*
X67458095Y-67184580D01*
X68315238Y-66279819D02*
X68648571Y-67279819D01*
X68648571Y-67279819D02*
X68981904Y-66279819D01*
X69981905Y-66279819D02*
X70600952Y-66279819D01*
X70600952Y-66279819D02*
X70267619Y-66660771D01*
X70267619Y-66660771D02*
X70410476Y-66660771D01*
X70410476Y-66660771D02*
X70505714Y-66708390D01*
X70505714Y-66708390D02*
X70553333Y-66756009D01*
X70553333Y-66756009D02*
X70600952Y-66851247D01*
X70600952Y-66851247D02*
X70600952Y-67089342D01*
X70600952Y-67089342D02*
X70553333Y-67184580D01*
X70553333Y-67184580D02*
X70505714Y-67232200D01*
X70505714Y-67232200D02*
X70410476Y-67279819D01*
X70410476Y-67279819D02*
X70124762Y-67279819D01*
X70124762Y-67279819D02*
X70029524Y-67232200D01*
X70029524Y-67232200D02*
X69981905Y-67184580D01*
X70981905Y-66994104D02*
X71458095Y-66994104D01*
X70886667Y-67279819D02*
X71220000Y-66279819D01*
X71220000Y-66279819D02*
X71553333Y-67279819D01*
X33586667Y-54791533D02*
X34653334Y-54791533D01*
X34120000Y-55324866D02*
X34120000Y-54258200D01*
X33586667Y-59731533D02*
X34653334Y-59731533D01*
X41486667Y-69331533D02*
X42553334Y-69331533D01*
X42020000Y-69864866D02*
X42020000Y-68798200D01*
X60686667Y-54791533D02*
X61753334Y-54791533D01*
X60686667Y-59871533D02*
X61753334Y-59871533D01*
X61220000Y-60404866D02*
X61220000Y-59338200D01*
X43053333Y-53622819D02*
X42720000Y-53146628D01*
X42481905Y-53622819D02*
X42481905Y-52622819D01*
X42481905Y-52622819D02*
X42862857Y-52622819D01*
X42862857Y-52622819D02*
X42958095Y-52670438D01*
X42958095Y-52670438D02*
X43005714Y-52718057D01*
X43005714Y-52718057D02*
X43053333Y-52813295D01*
X43053333Y-52813295D02*
X43053333Y-52956152D01*
X43053333Y-52956152D02*
X43005714Y-53051390D01*
X43005714Y-53051390D02*
X42958095Y-53099009D01*
X42958095Y-53099009D02*
X42862857Y-53146628D01*
X42862857Y-53146628D02*
X42481905Y-53146628D01*
X43958095Y-52622819D02*
X43481905Y-52622819D01*
X43481905Y-52622819D02*
X43434286Y-53099009D01*
X43434286Y-53099009D02*
X43481905Y-53051390D01*
X43481905Y-53051390D02*
X43577143Y-53003771D01*
X43577143Y-53003771D02*
X43815238Y-53003771D01*
X43815238Y-53003771D02*
X43910476Y-53051390D01*
X43910476Y-53051390D02*
X43958095Y-53099009D01*
X43958095Y-53099009D02*
X44005714Y-53194247D01*
X44005714Y-53194247D02*
X44005714Y-53432342D01*
X44005714Y-53432342D02*
X43958095Y-53527580D01*
X43958095Y-53527580D02*
X43910476Y-53575200D01*
X43910476Y-53575200D02*
X43815238Y-53622819D01*
X43815238Y-53622819D02*
X43577143Y-53622819D01*
X43577143Y-53622819D02*
X43481905Y-53575200D01*
X43481905Y-53575200D02*
X43434286Y-53527580D01*
X60592080Y-57867857D02*
X60639700Y-57915476D01*
X60639700Y-57915476D02*
X60687319Y-58058333D01*
X60687319Y-58058333D02*
X60687319Y-58153571D01*
X60687319Y-58153571D02*
X60639700Y-58296428D01*
X60639700Y-58296428D02*
X60544461Y-58391666D01*
X60544461Y-58391666D02*
X60449223Y-58439285D01*
X60449223Y-58439285D02*
X60258747Y-58486904D01*
X60258747Y-58486904D02*
X60115890Y-58486904D01*
X60115890Y-58486904D02*
X59925414Y-58439285D01*
X59925414Y-58439285D02*
X59830176Y-58391666D01*
X59830176Y-58391666D02*
X59734938Y-58296428D01*
X59734938Y-58296428D02*
X59687319Y-58153571D01*
X59687319Y-58153571D02*
X59687319Y-58058333D01*
X59687319Y-58058333D02*
X59734938Y-57915476D01*
X59734938Y-57915476D02*
X59782557Y-57867857D01*
X60687319Y-56915476D02*
X60687319Y-57486904D01*
X60687319Y-57201190D02*
X59687319Y-57201190D01*
X59687319Y-57201190D02*
X59830176Y-57296428D01*
X59830176Y-57296428D02*
X59925414Y-57391666D01*
X59925414Y-57391666D02*
X59973033Y-57486904D01*
X60020652Y-56058333D02*
X60687319Y-56058333D01*
X59639700Y-56296428D02*
X60353985Y-56534523D01*
X60353985Y-56534523D02*
X60353985Y-55915476D01*
X25836666Y-49924819D02*
X25836666Y-50639104D01*
X25836666Y-50639104D02*
X25789047Y-50781961D01*
X25789047Y-50781961D02*
X25693809Y-50877200D01*
X25693809Y-50877200D02*
X25550952Y-50924819D01*
X25550952Y-50924819D02*
X25455714Y-50924819D01*
X26836666Y-50924819D02*
X26265238Y-50924819D01*
X26550952Y-50924819D02*
X26550952Y-49924819D01*
X26550952Y-49924819D02*
X26455714Y-50067676D01*
X26455714Y-50067676D02*
X26360476Y-50162914D01*
X26360476Y-50162914D02*
X26265238Y-50210533D01*
X32322080Y-47991666D02*
X32369700Y-48039285D01*
X32369700Y-48039285D02*
X32417319Y-48182142D01*
X32417319Y-48182142D02*
X32417319Y-48277380D01*
X32417319Y-48277380D02*
X32369700Y-48420237D01*
X32369700Y-48420237D02*
X32274461Y-48515475D01*
X32274461Y-48515475D02*
X32179223Y-48563094D01*
X32179223Y-48563094D02*
X31988747Y-48610713D01*
X31988747Y-48610713D02*
X31845890Y-48610713D01*
X31845890Y-48610713D02*
X31655414Y-48563094D01*
X31655414Y-48563094D02*
X31560176Y-48515475D01*
X31560176Y-48515475D02*
X31464938Y-48420237D01*
X31464938Y-48420237D02*
X31417319Y-48277380D01*
X31417319Y-48277380D02*
X31417319Y-48182142D01*
X31417319Y-48182142D02*
X31464938Y-48039285D01*
X31464938Y-48039285D02*
X31512557Y-47991666D01*
X31417319Y-47658332D02*
X31417319Y-46991666D01*
X31417319Y-46991666D02*
X32417319Y-47420237D01*
X25458095Y-70054819D02*
X25458095Y-69054819D01*
X25458095Y-69531009D02*
X26029523Y-69531009D01*
X26029523Y-70054819D02*
X26029523Y-69054819D01*
X26410476Y-69054819D02*
X27029523Y-69054819D01*
X27029523Y-69054819D02*
X26696190Y-69435771D01*
X26696190Y-69435771D02*
X26839047Y-69435771D01*
X26839047Y-69435771D02*
X26934285Y-69483390D01*
X26934285Y-69483390D02*
X26981904Y-69531009D01*
X26981904Y-69531009D02*
X27029523Y-69626247D01*
X27029523Y-69626247D02*
X27029523Y-69864342D01*
X27029523Y-69864342D02*
X26981904Y-69959580D01*
X26981904Y-69959580D02*
X26934285Y-70007200D01*
X26934285Y-70007200D02*
X26839047Y-70054819D01*
X26839047Y-70054819D02*
X26553333Y-70054819D01*
X26553333Y-70054819D02*
X26458095Y-70007200D01*
X26458095Y-70007200D02*
X26410476Y-69959580D01*
X36054580Y-48226666D02*
X36102200Y-48274285D01*
X36102200Y-48274285D02*
X36149819Y-48417142D01*
X36149819Y-48417142D02*
X36149819Y-48512380D01*
X36149819Y-48512380D02*
X36102200Y-48655237D01*
X36102200Y-48655237D02*
X36006961Y-48750475D01*
X36006961Y-48750475D02*
X35911723Y-48798094D01*
X35911723Y-48798094D02*
X35721247Y-48845713D01*
X35721247Y-48845713D02*
X35578390Y-48845713D01*
X35578390Y-48845713D02*
X35387914Y-48798094D01*
X35387914Y-48798094D02*
X35292676Y-48750475D01*
X35292676Y-48750475D02*
X35197438Y-48655237D01*
X35197438Y-48655237D02*
X35149819Y-48512380D01*
X35149819Y-48512380D02*
X35149819Y-48417142D01*
X35149819Y-48417142D02*
X35197438Y-48274285D01*
X35197438Y-48274285D02*
X35245057Y-48226666D01*
X36149819Y-47750475D02*
X36149819Y-47559999D01*
X36149819Y-47559999D02*
X36102200Y-47464761D01*
X36102200Y-47464761D02*
X36054580Y-47417142D01*
X36054580Y-47417142D02*
X35911723Y-47321904D01*
X35911723Y-47321904D02*
X35721247Y-47274285D01*
X35721247Y-47274285D02*
X35340295Y-47274285D01*
X35340295Y-47274285D02*
X35245057Y-47321904D01*
X35245057Y-47321904D02*
X35197438Y-47369523D01*
X35197438Y-47369523D02*
X35149819Y-47464761D01*
X35149819Y-47464761D02*
X35149819Y-47655237D01*
X35149819Y-47655237D02*
X35197438Y-47750475D01*
X35197438Y-47750475D02*
X35245057Y-47798094D01*
X35245057Y-47798094D02*
X35340295Y-47845713D01*
X35340295Y-47845713D02*
X35578390Y-47845713D01*
X35578390Y-47845713D02*
X35673628Y-47798094D01*
X35673628Y-47798094D02*
X35721247Y-47750475D01*
X35721247Y-47750475D02*
X35768866Y-47655237D01*
X35768866Y-47655237D02*
X35768866Y-47464761D01*
X35768866Y-47464761D02*
X35721247Y-47369523D01*
X35721247Y-47369523D02*
X35673628Y-47321904D01*
X35673628Y-47321904D02*
X35578390Y-47274285D01*
X48499819Y-49386904D02*
X49309342Y-49386904D01*
X49309342Y-49386904D02*
X49404580Y-49339285D01*
X49404580Y-49339285D02*
X49452200Y-49291666D01*
X49452200Y-49291666D02*
X49499819Y-49196428D01*
X49499819Y-49196428D02*
X49499819Y-49005952D01*
X49499819Y-49005952D02*
X49452200Y-48910714D01*
X49452200Y-48910714D02*
X49404580Y-48863095D01*
X49404580Y-48863095D02*
X49309342Y-48815476D01*
X49309342Y-48815476D02*
X48499819Y-48815476D01*
X49499819Y-47815476D02*
X49499819Y-48386904D01*
X49499819Y-48101190D02*
X48499819Y-48101190D01*
X48499819Y-48101190D02*
X48642676Y-48196428D01*
X48642676Y-48196428D02*
X48737914Y-48291666D01*
X48737914Y-48291666D02*
X48785533Y-48386904D01*
X25458095Y-45304819D02*
X25458095Y-44304819D01*
X25458095Y-44781009D02*
X26029523Y-44781009D01*
X26029523Y-45304819D02*
X26029523Y-44304819D01*
X27029523Y-45304819D02*
X26458095Y-45304819D01*
X26743809Y-45304819D02*
X26743809Y-44304819D01*
X26743809Y-44304819D02*
X26648571Y-44447676D01*
X26648571Y-44447676D02*
X26553333Y-44542914D01*
X26553333Y-44542914D02*
X26458095Y-44590533D01*
X71092080Y-47367857D02*
X71139700Y-47415476D01*
X71139700Y-47415476D02*
X71187319Y-47558333D01*
X71187319Y-47558333D02*
X71187319Y-47653571D01*
X71187319Y-47653571D02*
X71139700Y-47796428D01*
X71139700Y-47796428D02*
X71044461Y-47891666D01*
X71044461Y-47891666D02*
X70949223Y-47939285D01*
X70949223Y-47939285D02*
X70758747Y-47986904D01*
X70758747Y-47986904D02*
X70615890Y-47986904D01*
X70615890Y-47986904D02*
X70425414Y-47939285D01*
X70425414Y-47939285D02*
X70330176Y-47891666D01*
X70330176Y-47891666D02*
X70234938Y-47796428D01*
X70234938Y-47796428D02*
X70187319Y-47653571D01*
X70187319Y-47653571D02*
X70187319Y-47558333D01*
X70187319Y-47558333D02*
X70234938Y-47415476D01*
X70234938Y-47415476D02*
X70282557Y-47367857D01*
X71187319Y-46415476D02*
X71187319Y-46986904D01*
X71187319Y-46701190D02*
X70187319Y-46701190D01*
X70187319Y-46701190D02*
X70330176Y-46796428D01*
X70330176Y-46796428D02*
X70425414Y-46891666D01*
X70425414Y-46891666D02*
X70473033Y-46986904D01*
X70187319Y-45796428D02*
X70187319Y-45701190D01*
X70187319Y-45701190D02*
X70234938Y-45605952D01*
X70234938Y-45605952D02*
X70282557Y-45558333D01*
X70282557Y-45558333D02*
X70377795Y-45510714D01*
X70377795Y-45510714D02*
X70568271Y-45463095D01*
X70568271Y-45463095D02*
X70806366Y-45463095D01*
X70806366Y-45463095D02*
X70996842Y-45510714D01*
X70996842Y-45510714D02*
X71092080Y-45558333D01*
X71092080Y-45558333D02*
X71139700Y-45605952D01*
X71139700Y-45605952D02*
X71187319Y-45701190D01*
X71187319Y-45701190D02*
X71187319Y-45796428D01*
X71187319Y-45796428D02*
X71139700Y-45891666D01*
X71139700Y-45891666D02*
X71092080Y-45939285D01*
X71092080Y-45939285D02*
X70996842Y-45986904D01*
X70996842Y-45986904D02*
X70806366Y-46034523D01*
X70806366Y-46034523D02*
X70568271Y-46034523D01*
X70568271Y-46034523D02*
X70377795Y-45986904D01*
X70377795Y-45986904D02*
X70282557Y-45939285D01*
X70282557Y-45939285D02*
X70234938Y-45891666D01*
X70234938Y-45891666D02*
X70187319Y-45796428D01*
X44881905Y-63314819D02*
X44881905Y-62314819D01*
X44881905Y-62314819D02*
X45120000Y-62314819D01*
X45120000Y-62314819D02*
X45262857Y-62362438D01*
X45262857Y-62362438D02*
X45358095Y-62457676D01*
X45358095Y-62457676D02*
X45405714Y-62552914D01*
X45405714Y-62552914D02*
X45453333Y-62743390D01*
X45453333Y-62743390D02*
X45453333Y-62886247D01*
X45453333Y-62886247D02*
X45405714Y-63076723D01*
X45405714Y-63076723D02*
X45358095Y-63171961D01*
X45358095Y-63171961D02*
X45262857Y-63267200D01*
X45262857Y-63267200D02*
X45120000Y-63314819D01*
X45120000Y-63314819D02*
X44881905Y-63314819D01*
X45834286Y-62410057D02*
X45881905Y-62362438D01*
X45881905Y-62362438D02*
X45977143Y-62314819D01*
X45977143Y-62314819D02*
X46215238Y-62314819D01*
X46215238Y-62314819D02*
X46310476Y-62362438D01*
X46310476Y-62362438D02*
X46358095Y-62410057D01*
X46358095Y-62410057D02*
X46405714Y-62505295D01*
X46405714Y-62505295D02*
X46405714Y-62600533D01*
X46405714Y-62600533D02*
X46358095Y-62743390D01*
X46358095Y-62743390D02*
X45786667Y-63314819D01*
X45786667Y-63314819D02*
X46405714Y-63314819D01*
X52174819Y-63661904D02*
X52174819Y-63090476D01*
X53174819Y-63376190D02*
X52174819Y-63376190D01*
X53174819Y-62757142D02*
X52174819Y-62757142D01*
X52174819Y-62757142D02*
X52174819Y-62376190D01*
X52174819Y-62376190D02*
X52222438Y-62280952D01*
X52222438Y-62280952D02*
X52270057Y-62233333D01*
X52270057Y-62233333D02*
X52365295Y-62185714D01*
X52365295Y-62185714D02*
X52508152Y-62185714D01*
X52508152Y-62185714D02*
X52603390Y-62233333D01*
X52603390Y-62233333D02*
X52651009Y-62280952D01*
X52651009Y-62280952D02*
X52698628Y-62376190D01*
X52698628Y-62376190D02*
X52698628Y-62757142D01*
X52508152Y-61328571D02*
X53174819Y-61328571D01*
X52127200Y-61566666D02*
X52841485Y-61804761D01*
X52841485Y-61804761D02*
X52841485Y-61185714D01*
X68474819Y-64063333D02*
X69189104Y-64063333D01*
X69189104Y-64063333D02*
X69331961Y-64110952D01*
X69331961Y-64110952D02*
X69427200Y-64206190D01*
X69427200Y-64206190D02*
X69474819Y-64349047D01*
X69474819Y-64349047D02*
X69474819Y-64444285D01*
X68570057Y-63634761D02*
X68522438Y-63587142D01*
X68522438Y-63587142D02*
X68474819Y-63491904D01*
X68474819Y-63491904D02*
X68474819Y-63253809D01*
X68474819Y-63253809D02*
X68522438Y-63158571D01*
X68522438Y-63158571D02*
X68570057Y-63110952D01*
X68570057Y-63110952D02*
X68665295Y-63063333D01*
X68665295Y-63063333D02*
X68760533Y-63063333D01*
X68760533Y-63063333D02*
X68903390Y-63110952D01*
X68903390Y-63110952D02*
X69474819Y-63682380D01*
X69474819Y-63682380D02*
X69474819Y-63063333D01*
X52208095Y-65854819D02*
X52779523Y-65854819D01*
X52493809Y-66854819D02*
X52493809Y-65854819D01*
X53112857Y-66854819D02*
X53112857Y-65854819D01*
X53112857Y-65854819D02*
X53493809Y-65854819D01*
X53493809Y-65854819D02*
X53589047Y-65902438D01*
X53589047Y-65902438D02*
X53636666Y-65950057D01*
X53636666Y-65950057D02*
X53684285Y-66045295D01*
X53684285Y-66045295D02*
X53684285Y-66188152D01*
X53684285Y-66188152D02*
X53636666Y-66283390D01*
X53636666Y-66283390D02*
X53589047Y-66331009D01*
X53589047Y-66331009D02*
X53493809Y-66378628D01*
X53493809Y-66378628D02*
X53112857Y-66378628D01*
X54017619Y-65854819D02*
X54684285Y-65854819D01*
X54684285Y-65854819D02*
X54255714Y-66854819D01*
X32322080Y-44991666D02*
X32369700Y-45039285D01*
X32369700Y-45039285D02*
X32417319Y-45182142D01*
X32417319Y-45182142D02*
X32417319Y-45277380D01*
X32417319Y-45277380D02*
X32369700Y-45420237D01*
X32369700Y-45420237D02*
X32274461Y-45515475D01*
X32274461Y-45515475D02*
X32179223Y-45563094D01*
X32179223Y-45563094D02*
X31988747Y-45610713D01*
X31988747Y-45610713D02*
X31845890Y-45610713D01*
X31845890Y-45610713D02*
X31655414Y-45563094D01*
X31655414Y-45563094D02*
X31560176Y-45515475D01*
X31560176Y-45515475D02*
X31464938Y-45420237D01*
X31464938Y-45420237D02*
X31417319Y-45277380D01*
X31417319Y-45277380D02*
X31417319Y-45182142D01*
X31417319Y-45182142D02*
X31464938Y-45039285D01*
X31464938Y-45039285D02*
X31512557Y-44991666D01*
X31417319Y-44134523D02*
X31417319Y-44324999D01*
X31417319Y-44324999D02*
X31464938Y-44420237D01*
X31464938Y-44420237D02*
X31512557Y-44467856D01*
X31512557Y-44467856D02*
X31655414Y-44563094D01*
X31655414Y-44563094D02*
X31845890Y-44610713D01*
X31845890Y-44610713D02*
X32226842Y-44610713D01*
X32226842Y-44610713D02*
X32322080Y-44563094D01*
X32322080Y-44563094D02*
X32369700Y-44515475D01*
X32369700Y-44515475D02*
X32417319Y-44420237D01*
X32417319Y-44420237D02*
X32417319Y-44229761D01*
X32417319Y-44229761D02*
X32369700Y-44134523D01*
X32369700Y-44134523D02*
X32322080Y-44086904D01*
X32322080Y-44086904D02*
X32226842Y-44039285D01*
X32226842Y-44039285D02*
X31988747Y-44039285D01*
X31988747Y-44039285D02*
X31893509Y-44086904D01*
X31893509Y-44086904D02*
X31845890Y-44134523D01*
X31845890Y-44134523D02*
X31798271Y-44229761D01*
X31798271Y-44229761D02*
X31798271Y-44420237D01*
X31798271Y-44420237D02*
X31845890Y-44515475D01*
X31845890Y-44515475D02*
X31893509Y-44563094D01*
X31893509Y-44563094D02*
X31988747Y-44610713D01*
X52577142Y-52609580D02*
X52529523Y-52657200D01*
X52529523Y-52657200D02*
X52386666Y-52704819D01*
X52386666Y-52704819D02*
X52291428Y-52704819D01*
X52291428Y-52704819D02*
X52148571Y-52657200D01*
X52148571Y-52657200D02*
X52053333Y-52561961D01*
X52053333Y-52561961D02*
X52005714Y-52466723D01*
X52005714Y-52466723D02*
X51958095Y-52276247D01*
X51958095Y-52276247D02*
X51958095Y-52133390D01*
X51958095Y-52133390D02*
X52005714Y-51942914D01*
X52005714Y-51942914D02*
X52053333Y-51847676D01*
X52053333Y-51847676D02*
X52148571Y-51752438D01*
X52148571Y-51752438D02*
X52291428Y-51704819D01*
X52291428Y-51704819D02*
X52386666Y-51704819D01*
X52386666Y-51704819D02*
X52529523Y-51752438D01*
X52529523Y-51752438D02*
X52577142Y-51800057D01*
X53529523Y-52704819D02*
X52958095Y-52704819D01*
X53243809Y-52704819D02*
X53243809Y-51704819D01*
X53243809Y-51704819D02*
X53148571Y-51847676D01*
X53148571Y-51847676D02*
X53053333Y-51942914D01*
X53053333Y-51942914D02*
X52958095Y-51990533D01*
X53910476Y-51800057D02*
X53958095Y-51752438D01*
X53958095Y-51752438D02*
X54053333Y-51704819D01*
X54053333Y-51704819D02*
X54291428Y-51704819D01*
X54291428Y-51704819D02*
X54386666Y-51752438D01*
X54386666Y-51752438D02*
X54434285Y-51800057D01*
X54434285Y-51800057D02*
X54481904Y-51895295D01*
X54481904Y-51895295D02*
X54481904Y-51990533D01*
X54481904Y-51990533D02*
X54434285Y-52133390D01*
X54434285Y-52133390D02*
X53862857Y-52704819D01*
X53862857Y-52704819D02*
X54481904Y-52704819D01*
X53752819Y-55891666D02*
X53276628Y-56224999D01*
X53752819Y-56463094D02*
X52752819Y-56463094D01*
X52752819Y-56463094D02*
X52752819Y-56082142D01*
X52752819Y-56082142D02*
X52800438Y-55986904D01*
X52800438Y-55986904D02*
X52848057Y-55939285D01*
X52848057Y-55939285D02*
X52943295Y-55891666D01*
X52943295Y-55891666D02*
X53086152Y-55891666D01*
X53086152Y-55891666D02*
X53181390Y-55939285D01*
X53181390Y-55939285D02*
X53229009Y-55986904D01*
X53229009Y-55986904D02*
X53276628Y-56082142D01*
X53276628Y-56082142D02*
X53276628Y-56463094D01*
X52752819Y-55558332D02*
X52752819Y-54891666D01*
X52752819Y-54891666D02*
X53752819Y-55320237D01*
X57077142Y-55709580D02*
X57029523Y-55757200D01*
X57029523Y-55757200D02*
X56886666Y-55804819D01*
X56886666Y-55804819D02*
X56791428Y-55804819D01*
X56791428Y-55804819D02*
X56648571Y-55757200D01*
X56648571Y-55757200D02*
X56553333Y-55661961D01*
X56553333Y-55661961D02*
X56505714Y-55566723D01*
X56505714Y-55566723D02*
X56458095Y-55376247D01*
X56458095Y-55376247D02*
X56458095Y-55233390D01*
X56458095Y-55233390D02*
X56505714Y-55042914D01*
X56505714Y-55042914D02*
X56553333Y-54947676D01*
X56553333Y-54947676D02*
X56648571Y-54852438D01*
X56648571Y-54852438D02*
X56791428Y-54804819D01*
X56791428Y-54804819D02*
X56886666Y-54804819D01*
X56886666Y-54804819D02*
X57029523Y-54852438D01*
X57029523Y-54852438D02*
X57077142Y-54900057D01*
X58029523Y-55804819D02*
X57458095Y-55804819D01*
X57743809Y-55804819D02*
X57743809Y-54804819D01*
X57743809Y-54804819D02*
X57648571Y-54947676D01*
X57648571Y-54947676D02*
X57553333Y-55042914D01*
X57553333Y-55042914D02*
X57458095Y-55090533D01*
X58362857Y-54804819D02*
X58981904Y-54804819D01*
X58981904Y-54804819D02*
X58648571Y-55185771D01*
X58648571Y-55185771D02*
X58791428Y-55185771D01*
X58791428Y-55185771D02*
X58886666Y-55233390D01*
X58886666Y-55233390D02*
X58934285Y-55281009D01*
X58934285Y-55281009D02*
X58981904Y-55376247D01*
X58981904Y-55376247D02*
X58981904Y-55614342D01*
X58981904Y-55614342D02*
X58934285Y-55709580D01*
X58934285Y-55709580D02*
X58886666Y-55757200D01*
X58886666Y-55757200D02*
X58791428Y-55804819D01*
X58791428Y-55804819D02*
X58505714Y-55804819D01*
X58505714Y-55804819D02*
X58410476Y-55757200D01*
X58410476Y-55757200D02*
X58362857Y-55709580D01*
X49099819Y-61286904D02*
X49099819Y-60715476D01*
X50099819Y-61001190D02*
X49099819Y-61001190D01*
X50099819Y-60382142D02*
X49099819Y-60382142D01*
X49099819Y-60382142D02*
X49099819Y-60001190D01*
X49099819Y-60001190D02*
X49147438Y-59905952D01*
X49147438Y-59905952D02*
X49195057Y-59858333D01*
X49195057Y-59858333D02*
X49290295Y-59810714D01*
X49290295Y-59810714D02*
X49433152Y-59810714D01*
X49433152Y-59810714D02*
X49528390Y-59858333D01*
X49528390Y-59858333D02*
X49576009Y-59905952D01*
X49576009Y-59905952D02*
X49623628Y-60001190D01*
X49623628Y-60001190D02*
X49623628Y-60382142D01*
X49099819Y-58905952D02*
X49099819Y-59382142D01*
X49099819Y-59382142D02*
X49576009Y-59429761D01*
X49576009Y-59429761D02*
X49528390Y-59382142D01*
X49528390Y-59382142D02*
X49480771Y-59286904D01*
X49480771Y-59286904D02*
X49480771Y-59048809D01*
X49480771Y-59048809D02*
X49528390Y-58953571D01*
X49528390Y-58953571D02*
X49576009Y-58905952D01*
X49576009Y-58905952D02*
X49671247Y-58858333D01*
X49671247Y-58858333D02*
X49909342Y-58858333D01*
X49909342Y-58858333D02*
X50004580Y-58905952D01*
X50004580Y-58905952D02*
X50052200Y-58953571D01*
X50052200Y-58953571D02*
X50099819Y-59048809D01*
X50099819Y-59048809D02*
X50099819Y-59286904D01*
X50099819Y-59286904D02*
X50052200Y-59382142D01*
X50052200Y-59382142D02*
X50004580Y-59429761D01*
X41799761Y-65775057D02*
X41704523Y-65727438D01*
X41704523Y-65727438D02*
X41609285Y-65632200D01*
X41609285Y-65632200D02*
X41466428Y-65489342D01*
X41466428Y-65489342D02*
X41371190Y-65441723D01*
X41371190Y-65441723D02*
X41275952Y-65441723D01*
X41323571Y-65679819D02*
X41228333Y-65632200D01*
X41228333Y-65632200D02*
X41133095Y-65536961D01*
X41133095Y-65536961D02*
X41085476Y-65346485D01*
X41085476Y-65346485D02*
X41085476Y-65013152D01*
X41085476Y-65013152D02*
X41133095Y-64822676D01*
X41133095Y-64822676D02*
X41228333Y-64727438D01*
X41228333Y-64727438D02*
X41323571Y-64679819D01*
X41323571Y-64679819D02*
X41514047Y-64679819D01*
X41514047Y-64679819D02*
X41609285Y-64727438D01*
X41609285Y-64727438D02*
X41704523Y-64822676D01*
X41704523Y-64822676D02*
X41752142Y-65013152D01*
X41752142Y-65013152D02*
X41752142Y-65346485D01*
X41752142Y-65346485D02*
X41704523Y-65536961D01*
X41704523Y-65536961D02*
X41609285Y-65632200D01*
X41609285Y-65632200D02*
X41514047Y-65679819D01*
X41514047Y-65679819D02*
X41323571Y-65679819D01*
X42704523Y-65679819D02*
X42133095Y-65679819D01*
X42418809Y-65679819D02*
X42418809Y-64679819D01*
X42418809Y-64679819D02*
X42323571Y-64822676D01*
X42323571Y-64822676D02*
X42228333Y-64917914D01*
X42228333Y-64917914D02*
X42133095Y-64965533D01*
X37424819Y-56311904D02*
X37424819Y-55740476D01*
X38424819Y-56026190D02*
X37424819Y-56026190D01*
X38424819Y-55407142D02*
X37424819Y-55407142D01*
X37424819Y-55407142D02*
X37424819Y-55026190D01*
X37424819Y-55026190D02*
X37472438Y-54930952D01*
X37472438Y-54930952D02*
X37520057Y-54883333D01*
X37520057Y-54883333D02*
X37615295Y-54835714D01*
X37615295Y-54835714D02*
X37758152Y-54835714D01*
X37758152Y-54835714D02*
X37853390Y-54883333D01*
X37853390Y-54883333D02*
X37901009Y-54930952D01*
X37901009Y-54930952D02*
X37948628Y-55026190D01*
X37948628Y-55026190D02*
X37948628Y-55407142D01*
X38424819Y-53883333D02*
X38424819Y-54454761D01*
X38424819Y-54169047D02*
X37424819Y-54169047D01*
X37424819Y-54169047D02*
X37567676Y-54264285D01*
X37567676Y-54264285D02*
X37662914Y-54359523D01*
X37662914Y-54359523D02*
X37710533Y-54454761D01*
X64229819Y-43891666D02*
X64229819Y-44367856D01*
X64229819Y-44367856D02*
X63229819Y-44367856D01*
X64229819Y-43034523D02*
X64229819Y-43605951D01*
X64229819Y-43320237D02*
X63229819Y-43320237D01*
X63229819Y-43320237D02*
X63372676Y-43415475D01*
X63372676Y-43415475D02*
X63467914Y-43510713D01*
X63467914Y-43510713D02*
X63515533Y-43605951D01*
X31234580Y-69391666D02*
X31282200Y-69439285D01*
X31282200Y-69439285D02*
X31329819Y-69582142D01*
X31329819Y-69582142D02*
X31329819Y-69677380D01*
X31329819Y-69677380D02*
X31282200Y-69820237D01*
X31282200Y-69820237D02*
X31186961Y-69915475D01*
X31186961Y-69915475D02*
X31091723Y-69963094D01*
X31091723Y-69963094D02*
X30901247Y-70010713D01*
X30901247Y-70010713D02*
X30758390Y-70010713D01*
X30758390Y-70010713D02*
X30567914Y-69963094D01*
X30567914Y-69963094D02*
X30472676Y-69915475D01*
X30472676Y-69915475D02*
X30377438Y-69820237D01*
X30377438Y-69820237D02*
X30329819Y-69677380D01*
X30329819Y-69677380D02*
X30329819Y-69582142D01*
X30329819Y-69582142D02*
X30377438Y-69439285D01*
X30377438Y-69439285D02*
X30425057Y-69391666D01*
X30663152Y-68534523D02*
X31329819Y-68534523D01*
X30282200Y-68772618D02*
X30996485Y-69010713D01*
X30996485Y-69010713D02*
X30996485Y-68391666D01*
X32572080Y-39991666D02*
X32619700Y-40039285D01*
X32619700Y-40039285D02*
X32667319Y-40182142D01*
X32667319Y-40182142D02*
X32667319Y-40277380D01*
X32667319Y-40277380D02*
X32619700Y-40420237D01*
X32619700Y-40420237D02*
X32524461Y-40515475D01*
X32524461Y-40515475D02*
X32429223Y-40563094D01*
X32429223Y-40563094D02*
X32238747Y-40610713D01*
X32238747Y-40610713D02*
X32095890Y-40610713D01*
X32095890Y-40610713D02*
X31905414Y-40563094D01*
X31905414Y-40563094D02*
X31810176Y-40515475D01*
X31810176Y-40515475D02*
X31714938Y-40420237D01*
X31714938Y-40420237D02*
X31667319Y-40277380D01*
X31667319Y-40277380D02*
X31667319Y-40182142D01*
X31667319Y-40182142D02*
X31714938Y-40039285D01*
X31714938Y-40039285D02*
X31762557Y-39991666D01*
X31667319Y-39086904D02*
X31667319Y-39563094D01*
X31667319Y-39563094D02*
X32143509Y-39610713D01*
X32143509Y-39610713D02*
X32095890Y-39563094D01*
X32095890Y-39563094D02*
X32048271Y-39467856D01*
X32048271Y-39467856D02*
X32048271Y-39229761D01*
X32048271Y-39229761D02*
X32095890Y-39134523D01*
X32095890Y-39134523D02*
X32143509Y-39086904D01*
X32143509Y-39086904D02*
X32238747Y-39039285D01*
X32238747Y-39039285D02*
X32476842Y-39039285D01*
X32476842Y-39039285D02*
X32572080Y-39086904D01*
X32572080Y-39086904D02*
X32619700Y-39134523D01*
X32619700Y-39134523D02*
X32667319Y-39229761D01*
X32667319Y-39229761D02*
X32667319Y-39467856D01*
X32667319Y-39467856D02*
X32619700Y-39563094D01*
X32619700Y-39563094D02*
X32572080Y-39610713D01*
X45354580Y-52941666D02*
X45402200Y-52989285D01*
X45402200Y-52989285D02*
X45449819Y-53132142D01*
X45449819Y-53132142D02*
X45449819Y-53227380D01*
X45449819Y-53227380D02*
X45402200Y-53370237D01*
X45402200Y-53370237D02*
X45306961Y-53465475D01*
X45306961Y-53465475D02*
X45211723Y-53513094D01*
X45211723Y-53513094D02*
X45021247Y-53560713D01*
X45021247Y-53560713D02*
X44878390Y-53560713D01*
X44878390Y-53560713D02*
X44687914Y-53513094D01*
X44687914Y-53513094D02*
X44592676Y-53465475D01*
X44592676Y-53465475D02*
X44497438Y-53370237D01*
X44497438Y-53370237D02*
X44449819Y-53227380D01*
X44449819Y-53227380D02*
X44449819Y-53132142D01*
X44449819Y-53132142D02*
X44497438Y-52989285D01*
X44497438Y-52989285D02*
X44545057Y-52941666D01*
X44545057Y-52560713D02*
X44497438Y-52513094D01*
X44497438Y-52513094D02*
X44449819Y-52417856D01*
X44449819Y-52417856D02*
X44449819Y-52179761D01*
X44449819Y-52179761D02*
X44497438Y-52084523D01*
X44497438Y-52084523D02*
X44545057Y-52036904D01*
X44545057Y-52036904D02*
X44640295Y-51989285D01*
X44640295Y-51989285D02*
X44735533Y-51989285D01*
X44735533Y-51989285D02*
X44878390Y-52036904D01*
X44878390Y-52036904D02*
X45449819Y-52608332D01*
X45449819Y-52608332D02*
X45449819Y-51989285D01*
X38069642Y-38784580D02*
X38022023Y-38832200D01*
X38022023Y-38832200D02*
X37879166Y-38879819D01*
X37879166Y-38879819D02*
X37783928Y-38879819D01*
X37783928Y-38879819D02*
X37641071Y-38832200D01*
X37641071Y-38832200D02*
X37545833Y-38736961D01*
X37545833Y-38736961D02*
X37498214Y-38641723D01*
X37498214Y-38641723D02*
X37450595Y-38451247D01*
X37450595Y-38451247D02*
X37450595Y-38308390D01*
X37450595Y-38308390D02*
X37498214Y-38117914D01*
X37498214Y-38117914D02*
X37545833Y-38022676D01*
X37545833Y-38022676D02*
X37641071Y-37927438D01*
X37641071Y-37927438D02*
X37783928Y-37879819D01*
X37783928Y-37879819D02*
X37879166Y-37879819D01*
X37879166Y-37879819D02*
X38022023Y-37927438D01*
X38022023Y-37927438D02*
X38069642Y-37975057D01*
X39022023Y-38879819D02*
X38450595Y-38879819D01*
X38736309Y-38879819D02*
X38736309Y-37879819D01*
X38736309Y-37879819D02*
X38641071Y-38022676D01*
X38641071Y-38022676D02*
X38545833Y-38117914D01*
X38545833Y-38117914D02*
X38450595Y-38165533D01*
X39879166Y-37879819D02*
X39688690Y-37879819D01*
X39688690Y-37879819D02*
X39593452Y-37927438D01*
X39593452Y-37927438D02*
X39545833Y-37975057D01*
X39545833Y-37975057D02*
X39450595Y-38117914D01*
X39450595Y-38117914D02*
X39402976Y-38308390D01*
X39402976Y-38308390D02*
X39402976Y-38689342D01*
X39402976Y-38689342D02*
X39450595Y-38784580D01*
X39450595Y-38784580D02*
X39498214Y-38832200D01*
X39498214Y-38832200D02*
X39593452Y-38879819D01*
X39593452Y-38879819D02*
X39783928Y-38879819D01*
X39783928Y-38879819D02*
X39879166Y-38832200D01*
X39879166Y-38832200D02*
X39926785Y-38784580D01*
X39926785Y-38784580D02*
X39974404Y-38689342D01*
X39974404Y-38689342D02*
X39974404Y-38451247D01*
X39974404Y-38451247D02*
X39926785Y-38356009D01*
X39926785Y-38356009D02*
X39879166Y-38308390D01*
X39879166Y-38308390D02*
X39783928Y-38260771D01*
X39783928Y-38260771D02*
X39593452Y-38260771D01*
X39593452Y-38260771D02*
X39498214Y-38308390D01*
X39498214Y-38308390D02*
X39450595Y-38356009D01*
X39450595Y-38356009D02*
X39402976Y-38451247D01*
X47096819Y-52841666D02*
X46620628Y-53174999D01*
X47096819Y-53413094D02*
X46096819Y-53413094D01*
X46096819Y-53413094D02*
X46096819Y-53032142D01*
X46096819Y-53032142D02*
X46144438Y-52936904D01*
X46144438Y-52936904D02*
X46192057Y-52889285D01*
X46192057Y-52889285D02*
X46287295Y-52841666D01*
X46287295Y-52841666D02*
X46430152Y-52841666D01*
X46430152Y-52841666D02*
X46525390Y-52889285D01*
X46525390Y-52889285D02*
X46573009Y-52936904D01*
X46573009Y-52936904D02*
X46620628Y-53032142D01*
X46620628Y-53032142D02*
X46620628Y-53413094D01*
X46096819Y-51984523D02*
X46096819Y-52174999D01*
X46096819Y-52174999D02*
X46144438Y-52270237D01*
X46144438Y-52270237D02*
X46192057Y-52317856D01*
X46192057Y-52317856D02*
X46334914Y-52413094D01*
X46334914Y-52413094D02*
X46525390Y-52460713D01*
X46525390Y-52460713D02*
X46906342Y-52460713D01*
X46906342Y-52460713D02*
X47001580Y-52413094D01*
X47001580Y-52413094D02*
X47049200Y-52365475D01*
X47049200Y-52365475D02*
X47096819Y-52270237D01*
X47096819Y-52270237D02*
X47096819Y-52079761D01*
X47096819Y-52079761D02*
X47049200Y-51984523D01*
X47049200Y-51984523D02*
X47001580Y-51936904D01*
X47001580Y-51936904D02*
X46906342Y-51889285D01*
X46906342Y-51889285D02*
X46668247Y-51889285D01*
X46668247Y-51889285D02*
X46573009Y-51936904D01*
X46573009Y-51936904D02*
X46525390Y-51984523D01*
X46525390Y-51984523D02*
X46477771Y-52079761D01*
X46477771Y-52079761D02*
X46477771Y-52270237D01*
X46477771Y-52270237D02*
X46525390Y-52365475D01*
X46525390Y-52365475D02*
X46573009Y-52413094D01*
X46573009Y-52413094D02*
X46668247Y-52460713D01*
X43803333Y-59486819D02*
X43470000Y-59010628D01*
X43231905Y-59486819D02*
X43231905Y-58486819D01*
X43231905Y-58486819D02*
X43612857Y-58486819D01*
X43612857Y-58486819D02*
X43708095Y-58534438D01*
X43708095Y-58534438D02*
X43755714Y-58582057D01*
X43755714Y-58582057D02*
X43803333Y-58677295D01*
X43803333Y-58677295D02*
X43803333Y-58820152D01*
X43803333Y-58820152D02*
X43755714Y-58915390D01*
X43755714Y-58915390D02*
X43708095Y-58963009D01*
X43708095Y-58963009D02*
X43612857Y-59010628D01*
X43612857Y-59010628D02*
X43231905Y-59010628D01*
X44136667Y-58486819D02*
X44755714Y-58486819D01*
X44755714Y-58486819D02*
X44422381Y-58867771D01*
X44422381Y-58867771D02*
X44565238Y-58867771D01*
X44565238Y-58867771D02*
X44660476Y-58915390D01*
X44660476Y-58915390D02*
X44708095Y-58963009D01*
X44708095Y-58963009D02*
X44755714Y-59058247D01*
X44755714Y-59058247D02*
X44755714Y-59296342D01*
X44755714Y-59296342D02*
X44708095Y-59391580D01*
X44708095Y-59391580D02*
X44660476Y-59439200D01*
X44660476Y-59439200D02*
X44565238Y-59486819D01*
X44565238Y-59486819D02*
X44279524Y-59486819D01*
X44279524Y-59486819D02*
X44184286Y-59439200D01*
X44184286Y-59439200D02*
X44136667Y-59391580D01*
X45252819Y-65891666D02*
X44776628Y-66224999D01*
X45252819Y-66463094D02*
X44252819Y-66463094D01*
X44252819Y-66463094D02*
X44252819Y-66082142D01*
X44252819Y-66082142D02*
X44300438Y-65986904D01*
X44300438Y-65986904D02*
X44348057Y-65939285D01*
X44348057Y-65939285D02*
X44443295Y-65891666D01*
X44443295Y-65891666D02*
X44586152Y-65891666D01*
X44586152Y-65891666D02*
X44681390Y-65939285D01*
X44681390Y-65939285D02*
X44729009Y-65986904D01*
X44729009Y-65986904D02*
X44776628Y-66082142D01*
X44776628Y-66082142D02*
X44776628Y-66463094D01*
X45252819Y-64939285D02*
X45252819Y-65510713D01*
X45252819Y-65224999D02*
X44252819Y-65224999D01*
X44252819Y-65224999D02*
X44395676Y-65320237D01*
X44395676Y-65320237D02*
X44490914Y-65415475D01*
X44490914Y-65415475D02*
X44538533Y-65510713D01*
X30822080Y-50491666D02*
X30869700Y-50539285D01*
X30869700Y-50539285D02*
X30917319Y-50682142D01*
X30917319Y-50682142D02*
X30917319Y-50777380D01*
X30917319Y-50777380D02*
X30869700Y-50920237D01*
X30869700Y-50920237D02*
X30774461Y-51015475D01*
X30774461Y-51015475D02*
X30679223Y-51063094D01*
X30679223Y-51063094D02*
X30488747Y-51110713D01*
X30488747Y-51110713D02*
X30345890Y-51110713D01*
X30345890Y-51110713D02*
X30155414Y-51063094D01*
X30155414Y-51063094D02*
X30060176Y-51015475D01*
X30060176Y-51015475D02*
X29964938Y-50920237D01*
X29964938Y-50920237D02*
X29917319Y-50777380D01*
X29917319Y-50777380D02*
X29917319Y-50682142D01*
X29917319Y-50682142D02*
X29964938Y-50539285D01*
X29964938Y-50539285D02*
X30012557Y-50491666D01*
X30345890Y-49920237D02*
X30298271Y-50015475D01*
X30298271Y-50015475D02*
X30250652Y-50063094D01*
X30250652Y-50063094D02*
X30155414Y-50110713D01*
X30155414Y-50110713D02*
X30107795Y-50110713D01*
X30107795Y-50110713D02*
X30012557Y-50063094D01*
X30012557Y-50063094D02*
X29964938Y-50015475D01*
X29964938Y-50015475D02*
X29917319Y-49920237D01*
X29917319Y-49920237D02*
X29917319Y-49729761D01*
X29917319Y-49729761D02*
X29964938Y-49634523D01*
X29964938Y-49634523D02*
X30012557Y-49586904D01*
X30012557Y-49586904D02*
X30107795Y-49539285D01*
X30107795Y-49539285D02*
X30155414Y-49539285D01*
X30155414Y-49539285D02*
X30250652Y-49586904D01*
X30250652Y-49586904D02*
X30298271Y-49634523D01*
X30298271Y-49634523D02*
X30345890Y-49729761D01*
X30345890Y-49729761D02*
X30345890Y-49920237D01*
X30345890Y-49920237D02*
X30393509Y-50015475D01*
X30393509Y-50015475D02*
X30441128Y-50063094D01*
X30441128Y-50063094D02*
X30536366Y-50110713D01*
X30536366Y-50110713D02*
X30726842Y-50110713D01*
X30726842Y-50110713D02*
X30822080Y-50063094D01*
X30822080Y-50063094D02*
X30869700Y-50015475D01*
X30869700Y-50015475D02*
X30917319Y-49920237D01*
X30917319Y-49920237D02*
X30917319Y-49729761D01*
X30917319Y-49729761D02*
X30869700Y-49634523D01*
X30869700Y-49634523D02*
X30822080Y-49586904D01*
X30822080Y-49586904D02*
X30726842Y-49539285D01*
X30726842Y-49539285D02*
X30536366Y-49539285D01*
X30536366Y-49539285D02*
X30441128Y-49586904D01*
X30441128Y-49586904D02*
X30393509Y-49634523D01*
X30393509Y-49634523D02*
X30345890Y-49729761D01*
X42174819Y-42461904D02*
X42174819Y-41890476D01*
X43174819Y-42176190D02*
X42174819Y-42176190D01*
X43174819Y-41557142D02*
X42174819Y-41557142D01*
X42174819Y-41557142D02*
X42174819Y-41176190D01*
X42174819Y-41176190D02*
X42222438Y-41080952D01*
X42222438Y-41080952D02*
X42270057Y-41033333D01*
X42270057Y-41033333D02*
X42365295Y-40985714D01*
X42365295Y-40985714D02*
X42508152Y-40985714D01*
X42508152Y-40985714D02*
X42603390Y-41033333D01*
X42603390Y-41033333D02*
X42651009Y-41080952D01*
X42651009Y-41080952D02*
X42698628Y-41176190D01*
X42698628Y-41176190D02*
X42698628Y-41557142D01*
X42270057Y-40604761D02*
X42222438Y-40557142D01*
X42222438Y-40557142D02*
X42174819Y-40461904D01*
X42174819Y-40461904D02*
X42174819Y-40223809D01*
X42174819Y-40223809D02*
X42222438Y-40128571D01*
X42222438Y-40128571D02*
X42270057Y-40080952D01*
X42270057Y-40080952D02*
X42365295Y-40033333D01*
X42365295Y-40033333D02*
X42460533Y-40033333D01*
X42460533Y-40033333D02*
X42603390Y-40080952D01*
X42603390Y-40080952D02*
X43174819Y-40652380D01*
X43174819Y-40652380D02*
X43174819Y-40033333D01*
X67959580Y-64867857D02*
X68007200Y-64915476D01*
X68007200Y-64915476D02*
X68054819Y-65058333D01*
X68054819Y-65058333D02*
X68054819Y-65153571D01*
X68054819Y-65153571D02*
X68007200Y-65296428D01*
X68007200Y-65296428D02*
X67911961Y-65391666D01*
X67911961Y-65391666D02*
X67816723Y-65439285D01*
X67816723Y-65439285D02*
X67626247Y-65486904D01*
X67626247Y-65486904D02*
X67483390Y-65486904D01*
X67483390Y-65486904D02*
X67292914Y-65439285D01*
X67292914Y-65439285D02*
X67197676Y-65391666D01*
X67197676Y-65391666D02*
X67102438Y-65296428D01*
X67102438Y-65296428D02*
X67054819Y-65153571D01*
X67054819Y-65153571D02*
X67054819Y-65058333D01*
X67054819Y-65058333D02*
X67102438Y-64915476D01*
X67102438Y-64915476D02*
X67150057Y-64867857D01*
X68054819Y-63915476D02*
X68054819Y-64486904D01*
X68054819Y-64201190D02*
X67054819Y-64201190D01*
X67054819Y-64201190D02*
X67197676Y-64296428D01*
X67197676Y-64296428D02*
X67292914Y-64391666D01*
X67292914Y-64391666D02*
X67340533Y-64486904D01*
X67054819Y-63010714D02*
X67054819Y-63486904D01*
X67054819Y-63486904D02*
X67531009Y-63534523D01*
X67531009Y-63534523D02*
X67483390Y-63486904D01*
X67483390Y-63486904D02*
X67435771Y-63391666D01*
X67435771Y-63391666D02*
X67435771Y-63153571D01*
X67435771Y-63153571D02*
X67483390Y-63058333D01*
X67483390Y-63058333D02*
X67531009Y-63010714D01*
X67531009Y-63010714D02*
X67626247Y-62963095D01*
X67626247Y-62963095D02*
X67864342Y-62963095D01*
X67864342Y-62963095D02*
X67959580Y-63010714D01*
X67959580Y-63010714D02*
X68007200Y-63058333D01*
X68007200Y-63058333D02*
X68054819Y-63153571D01*
X68054819Y-63153571D02*
X68054819Y-63391666D01*
X68054819Y-63391666D02*
X68007200Y-63486904D01*
X68007200Y-63486904D02*
X67959580Y-63534523D01*
X49104580Y-55191666D02*
X49152200Y-55239285D01*
X49152200Y-55239285D02*
X49199819Y-55382142D01*
X49199819Y-55382142D02*
X49199819Y-55477380D01*
X49199819Y-55477380D02*
X49152200Y-55620237D01*
X49152200Y-55620237D02*
X49056961Y-55715475D01*
X49056961Y-55715475D02*
X48961723Y-55763094D01*
X48961723Y-55763094D02*
X48771247Y-55810713D01*
X48771247Y-55810713D02*
X48628390Y-55810713D01*
X48628390Y-55810713D02*
X48437914Y-55763094D01*
X48437914Y-55763094D02*
X48342676Y-55715475D01*
X48342676Y-55715475D02*
X48247438Y-55620237D01*
X48247438Y-55620237D02*
X48199819Y-55477380D01*
X48199819Y-55477380D02*
X48199819Y-55382142D01*
X48199819Y-55382142D02*
X48247438Y-55239285D01*
X48247438Y-55239285D02*
X48295057Y-55191666D01*
X48199819Y-54858332D02*
X48199819Y-54239285D01*
X48199819Y-54239285D02*
X48580771Y-54572618D01*
X48580771Y-54572618D02*
X48580771Y-54429761D01*
X48580771Y-54429761D02*
X48628390Y-54334523D01*
X48628390Y-54334523D02*
X48676009Y-54286904D01*
X48676009Y-54286904D02*
X48771247Y-54239285D01*
X48771247Y-54239285D02*
X49009342Y-54239285D01*
X49009342Y-54239285D02*
X49104580Y-54286904D01*
X49104580Y-54286904D02*
X49152200Y-54334523D01*
X49152200Y-54334523D02*
X49199819Y-54429761D01*
X49199819Y-54429761D02*
X49199819Y-54715475D01*
X49199819Y-54715475D02*
X49152200Y-54810713D01*
X49152200Y-54810713D02*
X49104580Y-54858332D01*
X35886666Y-52881009D02*
X35553333Y-52881009D01*
X35553333Y-53404819D02*
X35553333Y-52404819D01*
X35553333Y-52404819D02*
X36029523Y-52404819D01*
X36934285Y-53404819D02*
X36362857Y-53404819D01*
X36648571Y-53404819D02*
X36648571Y-52404819D01*
X36648571Y-52404819D02*
X36553333Y-52547676D01*
X36553333Y-52547676D02*
X36458095Y-52642914D01*
X36458095Y-52642914D02*
X36362857Y-52690533D01*
X41631819Y-52791666D02*
X41155628Y-53124999D01*
X41631819Y-53363094D02*
X40631819Y-53363094D01*
X40631819Y-53363094D02*
X40631819Y-52982142D01*
X40631819Y-52982142D02*
X40679438Y-52886904D01*
X40679438Y-52886904D02*
X40727057Y-52839285D01*
X40727057Y-52839285D02*
X40822295Y-52791666D01*
X40822295Y-52791666D02*
X40965152Y-52791666D01*
X40965152Y-52791666D02*
X41060390Y-52839285D01*
X41060390Y-52839285D02*
X41108009Y-52886904D01*
X41108009Y-52886904D02*
X41155628Y-52982142D01*
X41155628Y-52982142D02*
X41155628Y-53363094D01*
X40965152Y-51934523D02*
X41631819Y-51934523D01*
X40584200Y-52172618D02*
X41298485Y-52410713D01*
X41298485Y-52410713D02*
X41298485Y-51791666D01*
X47253333Y-39370819D02*
X46920000Y-38894628D01*
X46681905Y-39370819D02*
X46681905Y-38370819D01*
X46681905Y-38370819D02*
X47062857Y-38370819D01*
X47062857Y-38370819D02*
X47158095Y-38418438D01*
X47158095Y-38418438D02*
X47205714Y-38466057D01*
X47205714Y-38466057D02*
X47253333Y-38561295D01*
X47253333Y-38561295D02*
X47253333Y-38704152D01*
X47253333Y-38704152D02*
X47205714Y-38799390D01*
X47205714Y-38799390D02*
X47158095Y-38847009D01*
X47158095Y-38847009D02*
X47062857Y-38894628D01*
X47062857Y-38894628D02*
X46681905Y-38894628D01*
X47729524Y-39370819D02*
X47920000Y-39370819D01*
X47920000Y-39370819D02*
X48015238Y-39323200D01*
X48015238Y-39323200D02*
X48062857Y-39275580D01*
X48062857Y-39275580D02*
X48158095Y-39132723D01*
X48158095Y-39132723D02*
X48205714Y-38942247D01*
X48205714Y-38942247D02*
X48205714Y-38561295D01*
X48205714Y-38561295D02*
X48158095Y-38466057D01*
X48158095Y-38466057D02*
X48110476Y-38418438D01*
X48110476Y-38418438D02*
X48015238Y-38370819D01*
X48015238Y-38370819D02*
X47824762Y-38370819D01*
X47824762Y-38370819D02*
X47729524Y-38418438D01*
X47729524Y-38418438D02*
X47681905Y-38466057D01*
X47681905Y-38466057D02*
X47634286Y-38561295D01*
X47634286Y-38561295D02*
X47634286Y-38799390D01*
X47634286Y-38799390D02*
X47681905Y-38894628D01*
X47681905Y-38894628D02*
X47729524Y-38942247D01*
X47729524Y-38942247D02*
X47824762Y-38989866D01*
X47824762Y-38989866D02*
X48015238Y-38989866D01*
X48015238Y-38989866D02*
X48110476Y-38942247D01*
X48110476Y-38942247D02*
X48158095Y-38894628D01*
X48158095Y-38894628D02*
X48205714Y-38799390D01*
X65549819Y-41486904D02*
X64549819Y-41486904D01*
X65026009Y-41486904D02*
X65026009Y-40915476D01*
X65549819Y-40915476D02*
X64549819Y-40915476D01*
X64645057Y-40486904D02*
X64597438Y-40439285D01*
X64597438Y-40439285D02*
X64549819Y-40344047D01*
X64549819Y-40344047D02*
X64549819Y-40105952D01*
X64549819Y-40105952D02*
X64597438Y-40010714D01*
X64597438Y-40010714D02*
X64645057Y-39963095D01*
X64645057Y-39963095D02*
X64740295Y-39915476D01*
X64740295Y-39915476D02*
X64835533Y-39915476D01*
X64835533Y-39915476D02*
X64978390Y-39963095D01*
X64978390Y-39963095D02*
X65549819Y-40534523D01*
X65549819Y-40534523D02*
X65549819Y-39915476D01*
X67399819Y-70463094D02*
X66399819Y-70463094D01*
X66399819Y-70463094D02*
X66399819Y-70224999D01*
X66399819Y-70224999D02*
X66447438Y-70082142D01*
X66447438Y-70082142D02*
X66542676Y-69986904D01*
X66542676Y-69986904D02*
X66637914Y-69939285D01*
X66637914Y-69939285D02*
X66828390Y-69891666D01*
X66828390Y-69891666D02*
X66971247Y-69891666D01*
X66971247Y-69891666D02*
X67161723Y-69939285D01*
X67161723Y-69939285D02*
X67256961Y-69986904D01*
X67256961Y-69986904D02*
X67352200Y-70082142D01*
X67352200Y-70082142D02*
X67399819Y-70224999D01*
X67399819Y-70224999D02*
X67399819Y-70463094D01*
X67399819Y-68939285D02*
X67399819Y-69510713D01*
X67399819Y-69224999D02*
X66399819Y-69224999D01*
X66399819Y-69224999D02*
X66542676Y-69320237D01*
X66542676Y-69320237D02*
X66637914Y-69415475D01*
X66637914Y-69415475D02*
X66685533Y-69510713D01*
X58249819Y-63986904D02*
X58249819Y-63415476D01*
X59249819Y-63701190D02*
X58249819Y-63701190D01*
X59249819Y-63082142D02*
X58249819Y-63082142D01*
X58249819Y-63082142D02*
X58249819Y-62701190D01*
X58249819Y-62701190D02*
X58297438Y-62605952D01*
X58297438Y-62605952D02*
X58345057Y-62558333D01*
X58345057Y-62558333D02*
X58440295Y-62510714D01*
X58440295Y-62510714D02*
X58583152Y-62510714D01*
X58583152Y-62510714D02*
X58678390Y-62558333D01*
X58678390Y-62558333D02*
X58726009Y-62605952D01*
X58726009Y-62605952D02*
X58773628Y-62701190D01*
X58773628Y-62701190D02*
X58773628Y-63082142D01*
X58249819Y-62177380D02*
X58249819Y-61558333D01*
X58249819Y-61558333D02*
X58630771Y-61891666D01*
X58630771Y-61891666D02*
X58630771Y-61748809D01*
X58630771Y-61748809D02*
X58678390Y-61653571D01*
X58678390Y-61653571D02*
X58726009Y-61605952D01*
X58726009Y-61605952D02*
X58821247Y-61558333D01*
X58821247Y-61558333D02*
X59059342Y-61558333D01*
X59059342Y-61558333D02*
X59154580Y-61605952D01*
X59154580Y-61605952D02*
X59202200Y-61653571D01*
X59202200Y-61653571D02*
X59249819Y-61748809D01*
X59249819Y-61748809D02*
X59249819Y-62034523D01*
X59249819Y-62034523D02*
X59202200Y-62129761D01*
X59202200Y-62129761D02*
X59154580Y-62177380D01*
X47999819Y-65486904D02*
X47999819Y-64915476D01*
X48999819Y-65201190D02*
X47999819Y-65201190D01*
X48999819Y-64582142D02*
X47999819Y-64582142D01*
X47999819Y-64582142D02*
X47999819Y-64201190D01*
X47999819Y-64201190D02*
X48047438Y-64105952D01*
X48047438Y-64105952D02*
X48095057Y-64058333D01*
X48095057Y-64058333D02*
X48190295Y-64010714D01*
X48190295Y-64010714D02*
X48333152Y-64010714D01*
X48333152Y-64010714D02*
X48428390Y-64058333D01*
X48428390Y-64058333D02*
X48476009Y-64105952D01*
X48476009Y-64105952D02*
X48523628Y-64201190D01*
X48523628Y-64201190D02*
X48523628Y-64582142D01*
X47999819Y-63153571D02*
X47999819Y-63344047D01*
X47999819Y-63344047D02*
X48047438Y-63439285D01*
X48047438Y-63439285D02*
X48095057Y-63486904D01*
X48095057Y-63486904D02*
X48237914Y-63582142D01*
X48237914Y-63582142D02*
X48428390Y-63629761D01*
X48428390Y-63629761D02*
X48809342Y-63629761D01*
X48809342Y-63629761D02*
X48904580Y-63582142D01*
X48904580Y-63582142D02*
X48952200Y-63534523D01*
X48952200Y-63534523D02*
X48999819Y-63439285D01*
X48999819Y-63439285D02*
X48999819Y-63248809D01*
X48999819Y-63248809D02*
X48952200Y-63153571D01*
X48952200Y-63153571D02*
X48904580Y-63105952D01*
X48904580Y-63105952D02*
X48809342Y-63058333D01*
X48809342Y-63058333D02*
X48571247Y-63058333D01*
X48571247Y-63058333D02*
X48476009Y-63105952D01*
X48476009Y-63105952D02*
X48428390Y-63153571D01*
X48428390Y-63153571D02*
X48380771Y-63248809D01*
X48380771Y-63248809D02*
X48380771Y-63439285D01*
X48380771Y-63439285D02*
X48428390Y-63534523D01*
X48428390Y-63534523D02*
X48476009Y-63582142D01*
X48476009Y-63582142D02*
X48571247Y-63629761D01*
X41303333Y-59486819D02*
X40970000Y-59010628D01*
X40731905Y-59486819D02*
X40731905Y-58486819D01*
X40731905Y-58486819D02*
X41112857Y-58486819D01*
X41112857Y-58486819D02*
X41208095Y-58534438D01*
X41208095Y-58534438D02*
X41255714Y-58582057D01*
X41255714Y-58582057D02*
X41303333Y-58677295D01*
X41303333Y-58677295D02*
X41303333Y-58820152D01*
X41303333Y-58820152D02*
X41255714Y-58915390D01*
X41255714Y-58915390D02*
X41208095Y-58963009D01*
X41208095Y-58963009D02*
X41112857Y-59010628D01*
X41112857Y-59010628D02*
X40731905Y-59010628D01*
X41684286Y-58582057D02*
X41731905Y-58534438D01*
X41731905Y-58534438D02*
X41827143Y-58486819D01*
X41827143Y-58486819D02*
X42065238Y-58486819D01*
X42065238Y-58486819D02*
X42160476Y-58534438D01*
X42160476Y-58534438D02*
X42208095Y-58582057D01*
X42208095Y-58582057D02*
X42255714Y-58677295D01*
X42255714Y-58677295D02*
X42255714Y-58772533D01*
X42255714Y-58772533D02*
X42208095Y-58915390D01*
X42208095Y-58915390D02*
X41636667Y-59486819D01*
X41636667Y-59486819D02*
X42255714Y-59486819D01*
X58096819Y-71891666D02*
X57620628Y-72224999D01*
X58096819Y-72463094D02*
X57096819Y-72463094D01*
X57096819Y-72463094D02*
X57096819Y-72082142D01*
X57096819Y-72082142D02*
X57144438Y-71986904D01*
X57144438Y-71986904D02*
X57192057Y-71939285D01*
X57192057Y-71939285D02*
X57287295Y-71891666D01*
X57287295Y-71891666D02*
X57430152Y-71891666D01*
X57430152Y-71891666D02*
X57525390Y-71939285D01*
X57525390Y-71939285D02*
X57573009Y-71986904D01*
X57573009Y-71986904D02*
X57620628Y-72082142D01*
X57620628Y-72082142D02*
X57620628Y-72463094D01*
X57525390Y-71320237D02*
X57477771Y-71415475D01*
X57477771Y-71415475D02*
X57430152Y-71463094D01*
X57430152Y-71463094D02*
X57334914Y-71510713D01*
X57334914Y-71510713D02*
X57287295Y-71510713D01*
X57287295Y-71510713D02*
X57192057Y-71463094D01*
X57192057Y-71463094D02*
X57144438Y-71415475D01*
X57144438Y-71415475D02*
X57096819Y-71320237D01*
X57096819Y-71320237D02*
X57096819Y-71129761D01*
X57096819Y-71129761D02*
X57144438Y-71034523D01*
X57144438Y-71034523D02*
X57192057Y-70986904D01*
X57192057Y-70986904D02*
X57287295Y-70939285D01*
X57287295Y-70939285D02*
X57334914Y-70939285D01*
X57334914Y-70939285D02*
X57430152Y-70986904D01*
X57430152Y-70986904D02*
X57477771Y-71034523D01*
X57477771Y-71034523D02*
X57525390Y-71129761D01*
X57525390Y-71129761D02*
X57525390Y-71320237D01*
X57525390Y-71320237D02*
X57573009Y-71415475D01*
X57573009Y-71415475D02*
X57620628Y-71463094D01*
X57620628Y-71463094D02*
X57715866Y-71510713D01*
X57715866Y-71510713D02*
X57906342Y-71510713D01*
X57906342Y-71510713D02*
X58001580Y-71463094D01*
X58001580Y-71463094D02*
X58049200Y-71415475D01*
X58049200Y-71415475D02*
X58096819Y-71320237D01*
X58096819Y-71320237D02*
X58096819Y-71129761D01*
X58096819Y-71129761D02*
X58049200Y-71034523D01*
X58049200Y-71034523D02*
X58001580Y-70986904D01*
X58001580Y-70986904D02*
X57906342Y-70939285D01*
X57906342Y-70939285D02*
X57715866Y-70939285D01*
X57715866Y-70939285D02*
X57620628Y-70986904D01*
X57620628Y-70986904D02*
X57573009Y-71034523D01*
X57573009Y-71034523D02*
X57525390Y-71129761D01*
X64067080Y-50867857D02*
X64114700Y-50915476D01*
X64114700Y-50915476D02*
X64162319Y-51058333D01*
X64162319Y-51058333D02*
X64162319Y-51153571D01*
X64162319Y-51153571D02*
X64114700Y-51296428D01*
X64114700Y-51296428D02*
X64019461Y-51391666D01*
X64019461Y-51391666D02*
X63924223Y-51439285D01*
X63924223Y-51439285D02*
X63733747Y-51486904D01*
X63733747Y-51486904D02*
X63590890Y-51486904D01*
X63590890Y-51486904D02*
X63400414Y-51439285D01*
X63400414Y-51439285D02*
X63305176Y-51391666D01*
X63305176Y-51391666D02*
X63209938Y-51296428D01*
X63209938Y-51296428D02*
X63162319Y-51153571D01*
X63162319Y-51153571D02*
X63162319Y-51058333D01*
X63162319Y-51058333D02*
X63209938Y-50915476D01*
X63209938Y-50915476D02*
X63257557Y-50867857D01*
X64162319Y-49915476D02*
X64162319Y-50486904D01*
X64162319Y-50201190D02*
X63162319Y-50201190D01*
X63162319Y-50201190D02*
X63305176Y-50296428D01*
X63305176Y-50296428D02*
X63400414Y-50391666D01*
X63400414Y-50391666D02*
X63448033Y-50486904D01*
X64162319Y-48963095D02*
X64162319Y-49534523D01*
X64162319Y-49248809D02*
X63162319Y-49248809D01*
X63162319Y-49248809D02*
X63305176Y-49344047D01*
X63305176Y-49344047D02*
X63400414Y-49439285D01*
X63400414Y-49439285D02*
X63448033Y-49534523D01*
X39804580Y-45291666D02*
X39852200Y-45339285D01*
X39852200Y-45339285D02*
X39899819Y-45482142D01*
X39899819Y-45482142D02*
X39899819Y-45577380D01*
X39899819Y-45577380D02*
X39852200Y-45720237D01*
X39852200Y-45720237D02*
X39756961Y-45815475D01*
X39756961Y-45815475D02*
X39661723Y-45863094D01*
X39661723Y-45863094D02*
X39471247Y-45910713D01*
X39471247Y-45910713D02*
X39328390Y-45910713D01*
X39328390Y-45910713D02*
X39137914Y-45863094D01*
X39137914Y-45863094D02*
X39042676Y-45815475D01*
X39042676Y-45815475D02*
X38947438Y-45720237D01*
X38947438Y-45720237D02*
X38899819Y-45577380D01*
X38899819Y-45577380D02*
X38899819Y-45482142D01*
X38899819Y-45482142D02*
X38947438Y-45339285D01*
X38947438Y-45339285D02*
X38995057Y-45291666D01*
X39899819Y-44339285D02*
X39899819Y-44910713D01*
X39899819Y-44624999D02*
X38899819Y-44624999D01*
X38899819Y-44624999D02*
X39042676Y-44720237D01*
X39042676Y-44720237D02*
X39137914Y-44815475D01*
X39137914Y-44815475D02*
X39185533Y-44910713D01*
X68458095Y-70054819D02*
X68458095Y-69054819D01*
X68458095Y-69531009D02*
X69029523Y-69531009D01*
X69029523Y-70054819D02*
X69029523Y-69054819D01*
X69934285Y-69388152D02*
X69934285Y-70054819D01*
X69696190Y-69007200D02*
X69458095Y-69721485D01*
X69458095Y-69721485D02*
X70077142Y-69721485D01*
%TO.C,R5*%
X41830000Y-54365000D02*
X41830000Y-55685000D01*
X41830000Y-55685000D02*
X42790000Y-55685000D01*
X42790000Y-54365000D02*
X41830000Y-54365000D01*
X43650000Y-54365000D02*
X44610000Y-54365000D01*
X44610000Y-54365000D02*
X44610000Y-55685000D01*
X44610000Y-55685000D02*
X43650000Y-55685000D01*
D11*
X44050000Y-54625000D02*
G75*
G02*
X43990000Y-54625000I-30000J0D01*
G01*
X43990000Y-54625000D02*
G75*
G02*
X44050000Y-54625000I30000J0D01*
G01*
%TO.C,C14*%
D10*
X54160000Y-60655000D02*
X54160000Y-57795000D01*
X54310000Y-57645000D02*
X55940000Y-57645000D01*
X55940000Y-60805000D02*
X54310000Y-60805000D01*
X57500000Y-60805000D02*
X59130000Y-60805000D01*
X59130000Y-57645000D02*
X57500000Y-57645000D01*
X59280000Y-60655000D02*
X59280000Y-57795000D01*
X54160000Y-57795000D02*
G75*
G02*
X54310000Y-57645000I150000J0D01*
G01*
X54310000Y-60805000D02*
G75*
G02*
X54160000Y-60655000I0J150000D01*
G01*
X59130000Y-57645000D02*
G75*
G02*
X59280000Y-57795000I0J-150000D01*
G01*
X59280000Y-60655000D02*
G75*
G02*
X59130000Y-60805000I-150000J0D01*
G01*
D11*
X55150000Y-60475000D02*
G75*
G02*
X55090000Y-60475000I-30000J0D01*
G01*
X55090000Y-60475000D02*
G75*
G02*
X55150000Y-60475000I30000J0D01*
G01*
%TO.C,J1*%
D12*
X23120000Y-52125000D02*
X33220000Y-52125000D01*
X23120000Y-62325000D02*
X23120000Y-52125000D01*
X23160000Y-54145000D02*
X24350000Y-52945000D01*
X23160000Y-55135000D02*
X23160000Y-55135000D01*
X23160000Y-59045000D02*
X24380000Y-57825000D01*
X23260000Y-60285000D02*
X23160000Y-60285000D01*
X24220000Y-51525000D02*
X24480000Y-52125000D01*
X24350000Y-52945000D02*
X24380000Y-52945000D01*
X24380000Y-52235000D02*
X24380000Y-62215000D01*
X24380000Y-56355000D02*
X23160000Y-55135000D01*
X24380000Y-57825000D02*
X24380000Y-57695000D01*
X24380000Y-61415000D02*
X23260000Y-60285000D01*
X24910000Y-52125000D02*
X25220000Y-51525000D01*
X25220000Y-51525000D02*
X24220000Y-51525000D01*
X25720000Y-52265000D02*
X25720000Y-62215000D01*
X25750000Y-52235000D02*
X25720000Y-52265000D01*
X30760000Y-52235000D02*
X30760000Y-62215000D01*
X31420000Y-51525000D02*
X31680000Y-52125000D01*
X31950000Y-52235000D02*
X31950000Y-62215000D01*
X32110000Y-52125000D02*
X32420000Y-51525000D01*
X32420000Y-51525000D02*
X31420000Y-51525000D01*
X33220000Y-52125000D02*
X33220000Y-62325000D01*
X33220000Y-62325000D02*
X23120000Y-62325000D01*
D11*
X23150000Y-52145000D02*
G75*
G02*
X23090000Y-52145000I-30000J0D01*
G01*
X23090000Y-52145000D02*
G75*
G02*
X23150000Y-52145000I30000J0D01*
G01*
%TO.C,C7*%
D10*
X33160000Y-46885000D02*
X33160000Y-48765000D01*
X33310000Y-48915000D02*
X34790000Y-48915000D01*
X34790000Y-46735000D02*
X33310000Y-46735000D01*
X36650000Y-46735000D02*
X38130000Y-46735000D01*
X38130000Y-48915000D02*
X36650000Y-48915000D01*
X38280000Y-46885000D02*
X38280000Y-48765000D01*
X33160000Y-46885000D02*
G75*
G02*
X33310000Y-46735000I150000J0D01*
G01*
X33310000Y-48915000D02*
G75*
G02*
X33160000Y-48765000I0J150000D01*
G01*
X38130000Y-46735000D02*
G75*
G02*
X38280000Y-46885000I0J-150000D01*
G01*
X38280000Y-48765000D02*
G75*
G02*
X38130000Y-48915000I-150000J0D01*
G01*
%TO.C,C9*%
D13*
X38610000Y-47780000D02*
X38610000Y-46980000D01*
X38610000Y-48340000D02*
X38610000Y-49140000D01*
D12*
X38920000Y-46670000D02*
X39720000Y-46670000D01*
X39720000Y-49450000D02*
X38920000Y-49450000D01*
D13*
X40030000Y-47780000D02*
X40030000Y-46980000D01*
X40030000Y-48340000D02*
X40030000Y-49140000D01*
X38610000Y-46980000D02*
G75*
G02*
X38920000Y-46670000I310000J0D01*
G01*
X38920000Y-49450000D02*
G75*
G02*
X38610000Y-49140000I0J310000D01*
G01*
X39720000Y-46670000D02*
G75*
G02*
X40030000Y-46980000I0J-310000D01*
G01*
X40030000Y-49140000D02*
G75*
G02*
X39720000Y-49450000I-310000J0D01*
G01*
%TO.C,U1*%
D14*
X42320000Y-46125000D02*
X42320000Y-51125000D01*
X42320000Y-46125000D02*
X43940000Y-46125000D01*
X46320000Y-46125000D02*
X44770000Y-46125000D01*
X46320000Y-46125000D02*
X46320000Y-51125000D01*
X46320000Y-51125000D02*
X42320000Y-51125000D01*
X44780000Y-46125000D02*
G75*
G02*
X43940000Y-46125000I-420000J0D01*
G01*
D11*
X41370000Y-46115000D02*
G75*
G02*
X41310000Y-46115000I-30000J0D01*
G01*
X41310000Y-46115000D02*
G75*
G02*
X41370000Y-46115000I30000J0D01*
G01*
D12*
X43010000Y-46505000D02*
G75*
G02*
X42670000Y-46505000I-170000J0D01*
G01*
X42670000Y-46505000D02*
G75*
G02*
X43010000Y-46505000I170000J0D01*
G01*
%TO.C,C10*%
D10*
X64660000Y-48155000D02*
X64660000Y-45295000D01*
X64810000Y-45145000D02*
X66440000Y-45145000D01*
X66440000Y-48305000D02*
X64810000Y-48305000D01*
X68000000Y-48305000D02*
X69630000Y-48305000D01*
X69630000Y-45145000D02*
X68000000Y-45145000D01*
X69780000Y-48155000D02*
X69780000Y-45295000D01*
X64660000Y-45295000D02*
G75*
G02*
X64810000Y-45145000I150000J0D01*
G01*
X64810000Y-48305000D02*
G75*
G02*
X64660000Y-48155000I0J150000D01*
G01*
X69630000Y-45145000D02*
G75*
G02*
X69780000Y-45295000I0J-150000D01*
G01*
X69780000Y-48155000D02*
G75*
G02*
X69630000Y-48305000I-150000J0D01*
G01*
D11*
X65650000Y-47975000D02*
G75*
G02*
X65590000Y-47975000I-30000J0D01*
G01*
X65590000Y-47975000D02*
G75*
G02*
X65650000Y-47975000I30000J0D01*
G01*
%TO.C,D2*%
D10*
X42240000Y-59895000D02*
X42240000Y-59975000D01*
X42240000Y-61755000D02*
X42240000Y-61675000D01*
X44590000Y-61755000D02*
X44590000Y-59895000D01*
X45000000Y-59895000D02*
X42240000Y-59895000D01*
X45000000Y-61755000D02*
X42240000Y-61755000D01*
D11*
X45500000Y-60025000D02*
G75*
G02*
X45440000Y-60025000I-30000J0D01*
G01*
X45440000Y-60025000D02*
G75*
G02*
X45500000Y-60025000I30000J0D01*
G01*
D15*
G36*
X45224797Y-60192591D02*
G01*
X44919997Y-60192591D01*
X44919997Y-59822589D01*
X45224797Y-59822589D01*
X45224797Y-60192591D01*
G37*
G36*
X45224797Y-61827411D02*
G01*
X44919997Y-61827411D01*
X44919997Y-61457409D01*
X45224797Y-61457409D01*
X45224797Y-61827411D01*
G37*
%TO.C,J2*%
D12*
X62220000Y-52125000D02*
X72320000Y-52125000D01*
X62220000Y-62325000D02*
X62220000Y-52125000D01*
X63020000Y-62925000D02*
X64020000Y-62925000D01*
X63330000Y-62325000D02*
X63020000Y-62925000D01*
X63490000Y-62215000D02*
X63490000Y-52235000D01*
X64020000Y-62925000D02*
X63760000Y-62325000D01*
X64680000Y-62215000D02*
X64680000Y-52235000D01*
X69690000Y-62215000D02*
X69720000Y-62185000D01*
X69720000Y-62185000D02*
X69720000Y-52235000D01*
X70220000Y-62925000D02*
X71220000Y-62925000D01*
X70530000Y-62325000D02*
X70220000Y-62925000D01*
X71060000Y-53035000D02*
X72180000Y-54165000D01*
X71060000Y-56625000D02*
X71060000Y-56755000D01*
X71060000Y-58095000D02*
X72280000Y-59315000D01*
X71060000Y-62215000D02*
X71060000Y-52235000D01*
X71090000Y-61505000D02*
X71060000Y-61505000D01*
X71220000Y-62925000D02*
X70960000Y-62325000D01*
X72180000Y-54165000D02*
X72280000Y-54165000D01*
X72280000Y-55405000D02*
X71060000Y-56625000D01*
X72280000Y-59315000D02*
X72280000Y-59315000D01*
X72280000Y-60305000D02*
X71090000Y-61505000D01*
X72320000Y-52125000D02*
X72320000Y-62325000D01*
X72320000Y-62325000D02*
X62220000Y-62325000D01*
D11*
X72350000Y-62305000D02*
G75*
G02*
X72290000Y-62305000I-30000J0D01*
G01*
X72290000Y-62305000D02*
G75*
G02*
X72350000Y-62305000I30000J0D01*
G01*
%TO.C,C6*%
D10*
X33160000Y-43885000D02*
X33160000Y-45765000D01*
X33310000Y-45915000D02*
X34790000Y-45915000D01*
X34790000Y-43735000D02*
X33310000Y-43735000D01*
X36650000Y-43735000D02*
X38130000Y-43735000D01*
X38130000Y-45915000D02*
X36650000Y-45915000D01*
X38280000Y-43885000D02*
X38280000Y-45765000D01*
X33160000Y-43885000D02*
G75*
G02*
X33310000Y-43735000I150000J0D01*
G01*
X33310000Y-45915000D02*
G75*
G02*
X33160000Y-45765000I0J150000D01*
G01*
X38130000Y-43735000D02*
G75*
G02*
X38280000Y-43885000I0J-150000D01*
G01*
X38280000Y-45765000D02*
G75*
G02*
X38130000Y-45915000I-150000J0D01*
G01*
%TO.C,C12*%
X50660000Y-56455000D02*
X50660000Y-53595000D01*
X50810000Y-53445000D02*
X52440000Y-53445000D01*
X52440000Y-56605000D02*
X50810000Y-56605000D01*
X54000000Y-56605000D02*
X55630000Y-56605000D01*
X55630000Y-53445000D02*
X54000000Y-53445000D01*
X55780000Y-56455000D02*
X55780000Y-53595000D01*
X50660000Y-53595000D02*
G75*
G02*
X50810000Y-53445000I150000J0D01*
G01*
X50810000Y-56605000D02*
G75*
G02*
X50660000Y-56455000I0J150000D01*
G01*
X55630000Y-53445000D02*
G75*
G02*
X55780000Y-53595000I0J-150000D01*
G01*
X55780000Y-56455000D02*
G75*
G02*
X55630000Y-56605000I-150000J0D01*
G01*
D11*
X51650000Y-56275000D02*
G75*
G02*
X51590000Y-56275000I-30000J0D01*
G01*
X51590000Y-56275000D02*
G75*
G02*
X51650000Y-56275000I30000J0D01*
G01*
%TO.C,R7*%
D10*
X47330000Y-56565000D02*
X48290000Y-56565000D01*
X47330000Y-57885000D02*
X47330000Y-56565000D01*
X48290000Y-57885000D02*
X47330000Y-57885000D01*
X49150000Y-57885000D02*
X50110000Y-57885000D01*
X50110000Y-56565000D02*
X49150000Y-56565000D01*
X50110000Y-57885000D02*
X50110000Y-56565000D01*
D11*
X47950000Y-57625000D02*
G75*
G02*
X47890000Y-57625000I-30000J0D01*
G01*
X47890000Y-57625000D02*
G75*
G02*
X47950000Y-57625000I30000J0D01*
G01*
%TO.C,C13*%
D10*
X56660000Y-54005000D02*
X56660000Y-51145000D01*
X56810000Y-50995000D02*
X58440000Y-50995000D01*
X58440000Y-54155000D02*
X56810000Y-54155000D01*
X60000000Y-54155000D02*
X61630000Y-54155000D01*
X61630000Y-50995000D02*
X60000000Y-50995000D01*
X61780000Y-54005000D02*
X61780000Y-51145000D01*
X56660000Y-51145000D02*
G75*
G02*
X56810000Y-50995000I150000J0D01*
G01*
X56810000Y-54155000D02*
G75*
G02*
X56660000Y-54005000I0J150000D01*
G01*
X61630000Y-50995000D02*
G75*
G02*
X61780000Y-51145000I0J-150000D01*
G01*
X61780000Y-54005000D02*
G75*
G02*
X61630000Y-54155000I-150000J0D01*
G01*
D11*
X57650000Y-53825000D02*
G75*
G02*
X57590000Y-53825000I-30000J0D01*
G01*
X57590000Y-53825000D02*
G75*
G02*
X57650000Y-53825000I30000J0D01*
G01*
%TO.C,Q1*%
D10*
X35700000Y-60195000D02*
X35700000Y-60655000D01*
X35700000Y-60195000D02*
X38740000Y-60195000D01*
X35700000Y-60985000D02*
X35700000Y-61925000D01*
X35700000Y-62255000D02*
X35700000Y-63195000D01*
X35700000Y-63525000D02*
X35700000Y-64465000D01*
X35700000Y-64795000D02*
X35700000Y-65255000D01*
X35700000Y-65255000D02*
X35700000Y-60195000D01*
X36770000Y-65255000D02*
X35700000Y-65255000D01*
X37660000Y-65255000D02*
X38740000Y-65255000D01*
X38740000Y-60195000D02*
X38740000Y-60655000D01*
X38740000Y-60985000D02*
X38740000Y-61925000D01*
X38740000Y-62255000D02*
X38740000Y-63195000D01*
X38740000Y-63525000D02*
X38740000Y-64465000D01*
X38740000Y-64795000D02*
X38740000Y-65255000D01*
X38740000Y-65255000D02*
X38740000Y-60195000D01*
X36770000Y-65255000D02*
G75*
G02*
X37649998Y-65256306I440000J1D01*
G01*
D16*
X38390000Y-64625000D02*
G75*
G02*
X38090000Y-64625000I-150000J0D01*
G01*
X38090000Y-64625000D02*
G75*
G02*
X38390000Y-64625000I150000J0D01*
G01*
D11*
X40250000Y-65175000D02*
G75*
G02*
X40190000Y-65175000I-30000J0D01*
G01*
X40190000Y-65175000D02*
G75*
G02*
X40250000Y-65175000I30000J0D01*
G01*
%TO.C,L1*%
D10*
X50080000Y-40145000D02*
X50080000Y-43245000D01*
X50080000Y-47205000D02*
X50080000Y-50305000D01*
D12*
X50080000Y-50305000D02*
X61760000Y-50305000D01*
X61760000Y-40145000D02*
X50080000Y-40145000D01*
D10*
X61760000Y-43245000D02*
X61760000Y-40145000D01*
X61760000Y-50305000D02*
X61760000Y-47205000D01*
X50200000Y-50225000D02*
G75*
G02*
X50140000Y-50225000I-30000J0D01*
G01*
X50140000Y-50225000D02*
G75*
G02*
X50200000Y-50225000I30000J0D01*
G01*
%TO.C,C4*%
D12*
X32920000Y-65925000D02*
X32920000Y-68395000D01*
X32920000Y-70055000D02*
X32920000Y-70365000D01*
X32920000Y-70055000D02*
X32920000Y-72525000D01*
X32920000Y-72525000D02*
X38120000Y-72525000D01*
X38120000Y-72525000D02*
X38250000Y-72525000D01*
X38250000Y-65925000D02*
X32920000Y-65925000D01*
X38250000Y-72525000D02*
X39520000Y-71255000D01*
X39520000Y-67195000D02*
X38250000Y-65925000D01*
X39520000Y-68395000D02*
X39520000Y-67195000D01*
X39520000Y-71255000D02*
X39520000Y-70055000D01*
D11*
X39850000Y-65975000D02*
G75*
G02*
X39790000Y-65975000I-30000J0D01*
G01*
X39790000Y-65975000D02*
G75*
G02*
X39850000Y-65975000I30000J0D01*
G01*
D15*
G36*
X33909972Y-67805902D02*
G01*
X33117974Y-67805902D01*
X33117974Y-67607909D01*
X33909972Y-67607909D01*
X33909972Y-67805902D01*
G37*
G36*
X39024973Y-68366886D02*
G01*
X38826980Y-68366886D01*
X38826980Y-67046899D01*
X39024973Y-67046899D01*
X39024973Y-68366886D01*
G37*
G36*
X39321975Y-67805902D02*
G01*
X38529978Y-67805902D01*
X38529978Y-67607909D01*
X39321975Y-67607909D01*
X39321975Y-67805902D01*
G37*
%TO.C,C5*%
D10*
X33160000Y-40885000D02*
X33160000Y-42765000D01*
X33310000Y-42915000D02*
X34790000Y-42915000D01*
X34790000Y-40735000D02*
X33310000Y-40735000D01*
X36650000Y-40735000D02*
X38130000Y-40735000D01*
X38130000Y-42915000D02*
X36650000Y-42915000D01*
X38280000Y-40885000D02*
X38280000Y-42765000D01*
X33160000Y-40885000D02*
G75*
G02*
X33310000Y-40735000I150000J0D01*
G01*
X33310000Y-42915000D02*
G75*
G02*
X33160000Y-42765000I0J150000D01*
G01*
X38130000Y-40735000D02*
G75*
G02*
X38280000Y-40885000I0J-150000D01*
G01*
X38280000Y-42765000D02*
G75*
G02*
X38130000Y-42915000I-150000J0D01*
G01*
%TO.C,C2*%
D12*
X38830000Y-55425000D02*
X38830000Y-54625000D01*
D13*
X39940000Y-54315000D02*
X39140000Y-54315000D01*
X39940000Y-55735000D02*
X39140000Y-55735000D01*
X40500000Y-54315000D02*
X41300000Y-54315000D01*
X40500000Y-55735000D02*
X41300000Y-55735000D01*
D12*
X41610000Y-54625000D02*
X41610000Y-55425000D01*
D13*
X38830000Y-54625000D02*
G75*
G02*
X39140000Y-54315000I310000J0D01*
G01*
X39140000Y-55735000D02*
G75*
G02*
X38830000Y-55425000I0J310000D01*
G01*
X41300000Y-54315000D02*
G75*
G02*
X41610000Y-54625000I0J-310000D01*
G01*
X41610000Y-55425000D02*
G75*
G02*
X41300000Y-55735000I-310000J0D01*
G01*
%TO.C,C16*%
D10*
X40160000Y-39485000D02*
X40160000Y-41365000D01*
X40310000Y-41515000D02*
X41790000Y-41515000D01*
X41790000Y-39335000D02*
X40310000Y-39335000D01*
X43650000Y-39335000D02*
X45130000Y-39335000D01*
X45130000Y-41515000D02*
X43650000Y-41515000D01*
X45280000Y-39485000D02*
X45280000Y-41365000D01*
X40160000Y-39485000D02*
G75*
G02*
X40310000Y-39335000I150000J0D01*
G01*
X40310000Y-41515000D02*
G75*
G02*
X40160000Y-41365000I0J150000D01*
G01*
X45130000Y-39335000D02*
G75*
G02*
X45280000Y-39485000I0J-150000D01*
G01*
X45280000Y-41365000D02*
G75*
G02*
X45130000Y-41515000I-150000J0D01*
G01*
%TO.C,R6*%
X47830000Y-51765000D02*
X47830000Y-53085000D01*
X47830000Y-53085000D02*
X48790000Y-53085000D01*
X48790000Y-51765000D02*
X47830000Y-51765000D01*
X49650000Y-51765000D02*
X50610000Y-51765000D01*
X50610000Y-51765000D02*
X50610000Y-53085000D01*
X50610000Y-53085000D02*
X49650000Y-53085000D01*
D11*
X50050000Y-52025000D02*
G75*
G02*
X49990000Y-52025000I-30000J0D01*
G01*
X49990000Y-52025000D02*
G75*
G02*
X50050000Y-52025000I30000J0D01*
G01*
%TO.C,R3*%
D10*
X43330000Y-56765000D02*
X44290000Y-56765000D01*
X43330000Y-58085000D02*
X43330000Y-56765000D01*
X44290000Y-58085000D02*
X43330000Y-58085000D01*
X45150000Y-58085000D02*
X46110000Y-58085000D01*
X46110000Y-56765000D02*
X45150000Y-56765000D01*
X46110000Y-58085000D02*
X46110000Y-56765000D01*
D11*
X43950000Y-57825000D02*
G75*
G02*
X43890000Y-57825000I-30000J0D01*
G01*
X43890000Y-57825000D02*
G75*
G02*
X43950000Y-57825000I30000J0D01*
G01*
%TO.C,R1*%
D10*
X41330000Y-63065000D02*
X42290000Y-63065000D01*
X41330000Y-64385000D02*
X41330000Y-63065000D01*
X42290000Y-64385000D02*
X41330000Y-64385000D01*
X43150000Y-64385000D02*
X44110000Y-64385000D01*
X44110000Y-63065000D02*
X43150000Y-63065000D01*
X44110000Y-64385000D02*
X44110000Y-63065000D01*
D11*
X41950000Y-64125000D02*
G75*
G02*
X41890000Y-64125000I-30000J0D01*
G01*
X41890000Y-64125000D02*
G75*
G02*
X41950000Y-64125000I30000J0D01*
G01*
%TO.C,C8*%
D10*
X33160000Y-49885000D02*
X33160000Y-51765000D01*
X33310000Y-51915000D02*
X34790000Y-51915000D01*
X34790000Y-49735000D02*
X33310000Y-49735000D01*
X36650000Y-49735000D02*
X38130000Y-49735000D01*
X38130000Y-51915000D02*
X36650000Y-51915000D01*
X38280000Y-49885000D02*
X38280000Y-51765000D01*
X33160000Y-49885000D02*
G75*
G02*
X33310000Y-49735000I150000J0D01*
G01*
X33310000Y-51915000D02*
G75*
G02*
X33160000Y-51765000I0J150000D01*
G01*
X38130000Y-49735000D02*
G75*
G02*
X38280000Y-49885000I0J-150000D01*
G01*
X38280000Y-51765000D02*
G75*
G02*
X38130000Y-51915000I-150000J0D01*
G01*
%TO.C,C15*%
X62760000Y-64975000D02*
X62760000Y-63475000D01*
X62910000Y-63325000D02*
X64320000Y-63325000D01*
X64320000Y-65125000D02*
X62910000Y-65125000D01*
X65120000Y-65125000D02*
X66530000Y-65125000D01*
X66530000Y-63325000D02*
X65120000Y-63325000D01*
X66680000Y-64975000D02*
X66680000Y-63475000D01*
X62760000Y-63475000D02*
G75*
G02*
X62910000Y-63325000I150000J0D01*
G01*
X62910000Y-65125000D02*
G75*
G02*
X62760000Y-64975000I0J150000D01*
G01*
X66530000Y-63325000D02*
G75*
G02*
X66680000Y-63475000I0J-150000D01*
G01*
X66680000Y-64975000D02*
G75*
G02*
X66530000Y-65125000I-150000J0D01*
G01*
D11*
X63750000Y-64855000D02*
G75*
G02*
X63690000Y-64855000I-30000J0D01*
G01*
X63690000Y-64855000D02*
G75*
G02*
X63750000Y-64855000I30000J0D01*
G01*
%TO.C,C3*%
D12*
X44830000Y-55425000D02*
X44830000Y-54625000D01*
D13*
X45940000Y-54315000D02*
X45140000Y-54315000D01*
X45940000Y-55735000D02*
X45140000Y-55735000D01*
X46500000Y-54315000D02*
X47300000Y-54315000D01*
X46500000Y-55735000D02*
X47300000Y-55735000D01*
D12*
X47610000Y-54625000D02*
X47610000Y-55425000D01*
D13*
X44830000Y-54625000D02*
G75*
G02*
X45140000Y-54315000I310000J0D01*
G01*
X45140000Y-55735000D02*
G75*
G02*
X44830000Y-55425000I0J310000D01*
G01*
X47300000Y-54315000D02*
G75*
G02*
X47610000Y-54625000I0J-310000D01*
G01*
X47610000Y-55425000D02*
G75*
G02*
X47300000Y-55735000I-310000J0D01*
G01*
%TO.C,F1*%
D17*
X35310000Y-55622936D02*
X35310000Y-56827064D01*
X37130000Y-55622936D02*
X37130000Y-56827064D01*
%TO.C,R4*%
D10*
X38660000Y-49735000D02*
X38660000Y-50695000D01*
X38660000Y-52515000D02*
X38660000Y-51555000D01*
X39980000Y-49735000D02*
X38660000Y-49735000D01*
X39980000Y-50695000D02*
X39980000Y-49735000D01*
X39980000Y-51555000D02*
X39980000Y-52515000D01*
X39980000Y-52515000D02*
X38660000Y-52515000D01*
D11*
X39750000Y-51925000D02*
G75*
G02*
X39690000Y-51925000I-30000J0D01*
G01*
X39690000Y-51925000D02*
G75*
G02*
X39750000Y-51925000I30000J0D01*
G01*
%TO.C,R9*%
D10*
X46340000Y-40115000D02*
X46340000Y-41475000D01*
X46340000Y-44735000D02*
X46340000Y-43375000D01*
X48500000Y-40115000D02*
X46340000Y-40115000D01*
X48500000Y-41475000D02*
X48500000Y-40115000D01*
X48500000Y-43375000D02*
X48500000Y-44735000D01*
X48500000Y-44735000D02*
X46340000Y-44735000D01*
%TO.C,D1*%
D12*
X61730000Y-68705000D02*
X61730000Y-70735000D01*
X61730000Y-70735000D02*
X63280000Y-70735000D01*
X63280000Y-68705000D02*
X61730000Y-68705000D01*
X63520000Y-70225000D02*
X63520000Y-69225000D01*
X63520000Y-70225000D02*
X63920000Y-69825000D01*
X63920000Y-69625000D02*
X63520000Y-69225000D01*
X63920000Y-69825000D02*
X64020000Y-69725000D01*
X64020000Y-69725000D02*
X63920000Y-69625000D01*
X64060000Y-68685000D02*
X65540000Y-68685000D01*
X65540000Y-68685000D02*
X65940000Y-69085000D01*
X65560000Y-70735000D02*
X64040000Y-70735000D01*
X65940000Y-69085000D02*
X65940000Y-70355000D01*
X65940000Y-70355000D02*
X65560000Y-70735000D01*
D11*
X62750000Y-70355000D02*
G75*
G02*
X62690000Y-70355000I-30000J0D01*
G01*
X62690000Y-70355000D02*
G75*
G02*
X62750000Y-70355000I30000J0D01*
G01*
%TO.C,R2*%
D10*
X40330000Y-56765000D02*
X41290000Y-56765000D01*
X40330000Y-58085000D02*
X40330000Y-56765000D01*
X41290000Y-58085000D02*
X40330000Y-58085000D01*
X42150000Y-58085000D02*
X43110000Y-58085000D01*
X43110000Y-56765000D02*
X42150000Y-56765000D01*
X43110000Y-58085000D02*
X43110000Y-56765000D01*
D11*
X40950000Y-57825000D02*
G75*
G02*
X40890000Y-57825000I-30000J0D01*
G01*
X40890000Y-57825000D02*
G75*
G02*
X40950000Y-57825000I30000J0D01*
G01*
%TO.C,R8*%
D10*
X58330000Y-69065000D02*
X59290000Y-69065000D01*
X58330000Y-70385000D02*
X58330000Y-69065000D01*
X59290000Y-70385000D02*
X58330000Y-70385000D01*
X60150000Y-70385000D02*
X61110000Y-70385000D01*
X61110000Y-69065000D02*
X60150000Y-69065000D01*
X61110000Y-70385000D02*
X61110000Y-69065000D01*
D11*
X58950000Y-70125000D02*
G75*
G02*
X58890000Y-70125000I-30000J0D01*
G01*
X58890000Y-70125000D02*
G75*
G02*
X58950000Y-70125000I30000J0D01*
G01*
%TO.C,C11*%
D10*
X64660000Y-51655000D02*
X64660000Y-48795000D01*
X64810000Y-48645000D02*
X66440000Y-48645000D01*
X66440000Y-51805000D02*
X64810000Y-51805000D01*
X68000000Y-51805000D02*
X69630000Y-51805000D01*
X69630000Y-48645000D02*
X68000000Y-48645000D01*
X69780000Y-51655000D02*
X69780000Y-48795000D01*
X64660000Y-48795000D02*
G75*
G02*
X64810000Y-48645000I150000J0D01*
G01*
X64810000Y-51805000D02*
G75*
G02*
X64660000Y-51655000I0J150000D01*
G01*
X69630000Y-48645000D02*
G75*
G02*
X69780000Y-48795000I0J-150000D01*
G01*
X69780000Y-51655000D02*
G75*
G02*
X69630000Y-51805000I-150000J0D01*
G01*
D11*
X65650000Y-51475000D02*
G75*
G02*
X65590000Y-51475000I-30000J0D01*
G01*
X65590000Y-51475000D02*
G75*
G02*
X65650000Y-51475000I30000J0D01*
G01*
%TO.C,C1*%
D12*
X40330000Y-44025000D02*
X40330000Y-43225000D01*
D13*
X41440000Y-42915000D02*
X40640000Y-42915000D01*
X41440000Y-44335000D02*
X40640000Y-44335000D01*
X42000000Y-42915000D02*
X42800000Y-42915000D01*
X42000000Y-44335000D02*
X42800000Y-44335000D01*
D12*
X43110000Y-43225000D02*
X43110000Y-44025000D01*
D13*
X40330000Y-43225000D02*
G75*
G02*
X40640000Y-42915000I310000J0D01*
G01*
X40640000Y-44335000D02*
G75*
G02*
X40330000Y-44025000I0J310000D01*
G01*
X42800000Y-42915000D02*
G75*
G02*
X43110000Y-43225000I0J-310000D01*
G01*
X43110000Y-44025000D02*
G75*
G02*
X42800000Y-44335000I-310000J0D01*
G01*
%TD*%
M02*
