M48
; DRILL file KiCad 10.0.3 date 2026-08-09T06:52:55
; FORMAT={-:-/ absolute / metric / decimal}
; #@! TF.CreationDate,2026-08-09T06:52:55-07:00
; #@! TF.GenerationSoftware,Kicad,Pcbnew,10.0.3
; #@! TF.FileFunction,MixedPlating,1,4
FMAT,2
METRIC
; #@! TA.AperFunction,Plated,PTH,ViaDrill
T1C0.300
; #@! TA.AperFunction,Plated,PTH,ComponentDrill
T2C1.600
; #@! TA.AperFunction,NonPlated,NPTH,ComponentDrill
T3C3.200
%
G90
G05
T1
X30.72Y-45.225
X30.72Y-60.225
X30.72Y-75.225
X38.9Y-50.345
X40.972Y-53.093
X43.1Y-45.7
X43.42Y-47.275
X43.42Y-48.175
X43.42Y-49.075
X43.42Y-49.975
X43.448Y-63.002
X43.6Y-51.5
X44.1Y-45.7
X44.32Y-47.275
X44.32Y-48.175
X44.32Y-49.075
X44.32Y-49.975
X44.6Y-51.5
X45.1Y-45.7
X45.22Y-47.275
X45.22Y-48.175
X45.22Y-49.075
X45.22Y-49.975
X45.6Y-51.5
X45.72Y-75.225
X54.723Y-54.575
X54.723Y-55.475
X59.32Y-61.43
X60.72Y-75.225
T2
X28.22Y-54.685
X28.22Y-59.765
X67.22Y-54.685
X67.22Y-59.765
T3
X26.22Y-40.725
X26.22Y-73.725
X69.22Y-40.725
X69.22Y-73.725
M30
