%TF.GenerationSoftware,KiCad,Pcbnew,10.0.3*%
%TF.CreationDate,2026-08-09T06:52:55-07:00*%
%TF.ProjectId,sbuck-5v3a,73627563-6b2d-4357-9633-612e6b696361,rev?*%
%TF.SameCoordinates,Original*%
%TF.FileFunction,Copper,L4,Bot*%
%TF.FilePolarity,Positive*%
%FSLAX46Y46*%
G04 Gerber Fmt 4.6, Leading zero omitted, Abs format (unit mm)*
G04 Created by KiCad (PCBNEW 10.0.3) date 2026-08-09 06:52:55*
%MOMM*%
%LPD*%
G01*
G04 APERTURE LIST*
%TA.AperFunction,ComponentPad*%
%ADD10C,2.400000*%
%TD*%
%TA.AperFunction,ViaPad*%
%ADD11C,0.600000*%
%TD*%
G04 APERTURE END LIST*
D10*
%TO.P,J1,1*%
%TO.N,/VIN_RAW*%
X28220000Y-54685000D03*
%TO.P,J1,2*%
%TO.N,GND*%
X28220000Y-59765000D03*
%TD*%
%TO.P,J2,1*%
%TO.N,+5V*%
X67220000Y-59765000D03*
%TO.P,J2,2*%
%TO.N,GND*%
X67220000Y-54685000D03*
%TD*%
D11*
%TO.N,GND*%
X44600000Y-51500000D03*
X43420000Y-47275000D03*
X44320000Y-49975000D03*
X38900000Y-50345000D03*
X30720000Y-45225000D03*
X45220000Y-48175000D03*
X44320000Y-47275000D03*
X30720000Y-75225000D03*
X43420000Y-49975000D03*
X43420000Y-49075000D03*
X59320000Y-61430000D03*
X54723000Y-55475000D03*
X45220000Y-47275000D03*
X60720000Y-75225000D03*
X44100000Y-45700000D03*
X43448000Y-63002000D03*
X40972000Y-53093000D03*
X44320000Y-49075000D03*
X44320000Y-48175000D03*
X45100000Y-45700000D03*
X43100000Y-45700000D03*
X43420000Y-48175000D03*
X45220000Y-49975000D03*
X30720000Y-60225000D03*
X54723000Y-54575000D03*
X45600000Y-51500000D03*
X45720000Y-75225000D03*
X45220000Y-49075000D03*
X43600000Y-51500000D03*
%TD*%
%TA.AperFunction,Conductor*%
%TO.N,GND*%
G36*
X72163039Y-37744685D02*
G01*
X72208794Y-37797489D01*
X72220000Y-37849000D01*
X72220000Y-76601000D01*
X72200315Y-76668039D01*
X72147511Y-76713794D01*
X72096000Y-76725000D01*
X23344000Y-76725000D01*
X23276961Y-76705315D01*
X23231206Y-76652511D01*
X23220000Y-76601000D01*
X23220000Y-73603711D01*
X24369500Y-73603711D01*
X24369500Y-73846288D01*
X24401161Y-74086785D01*
X24463947Y-74321104D01*
X24556773Y-74545205D01*
X24556776Y-74545212D01*
X24678064Y-74755289D01*
X24678066Y-74755292D01*
X24678067Y-74755293D01*
X24825733Y-74947736D01*
X24825739Y-74947743D01*
X24997256Y-75119260D01*
X24997262Y-75119265D01*
X25189711Y-75266936D01*
X25399788Y-75388224D01*
X25623900Y-75481054D01*
X25858211Y-75543838D01*
X26038586Y-75567584D01*
X26098711Y-75575500D01*
X26098712Y-75575500D01*
X26341289Y-75575500D01*
X26389388Y-75569167D01*
X26581789Y-75543838D01*
X26816100Y-75481054D01*
X27040212Y-75388224D01*
X27250289Y-75266936D01*
X27442738Y-75119265D01*
X27614265Y-74947738D01*
X27761936Y-74755289D01*
X27883224Y-74545212D01*
X27976054Y-74321100D01*
X28038838Y-74086789D01*
X28070500Y-73846288D01*
X28070500Y-73603712D01*
X28070500Y-73603711D01*
X67369500Y-73603711D01*
X67369500Y-73846288D01*
X67401161Y-74086785D01*
X67463947Y-74321104D01*
X67556773Y-74545205D01*
X67556776Y-74545212D01*
X67678064Y-74755289D01*
X67678066Y-74755292D01*
X67678067Y-74755293D01*
X67825733Y-74947736D01*
X67825739Y-74947743D01*
X67997256Y-75119260D01*
X67997262Y-75119265D01*
X68189711Y-75266936D01*
X68399788Y-75388224D01*
X68623900Y-75481054D01*
X68858211Y-75543838D01*
X69038586Y-75567584D01*
X69098711Y-75575500D01*
X69098712Y-75575500D01*
X69341289Y-75575500D01*
X69389388Y-75569167D01*
X69581789Y-75543838D01*
X69816100Y-75481054D01*
X70040212Y-75388224D01*
X70250289Y-75266936D01*
X70442738Y-75119265D01*
X70614265Y-74947738D01*
X70761936Y-74755289D01*
X70883224Y-74545212D01*
X70976054Y-74321100D01*
X71038838Y-74086789D01*
X71070500Y-73846288D01*
X71070500Y-73603712D01*
X71038838Y-73363211D01*
X70976054Y-73128900D01*
X70883224Y-72904788D01*
X70761936Y-72694711D01*
X70614265Y-72502262D01*
X70614260Y-72502256D01*
X70442743Y-72330739D01*
X70442736Y-72330733D01*
X70250293Y-72183067D01*
X70250292Y-72183066D01*
X70250289Y-72183064D01*
X70040212Y-72061776D01*
X70040205Y-72061773D01*
X69816104Y-71968947D01*
X69581785Y-71906161D01*
X69341289Y-71874500D01*
X69341288Y-71874500D01*
X69098712Y-71874500D01*
X69098711Y-71874500D01*
X68858214Y-71906161D01*
X68623895Y-71968947D01*
X68399794Y-72061773D01*
X68399785Y-72061777D01*
X68189706Y-72183067D01*
X67997263Y-72330733D01*
X67997256Y-72330739D01*
X67825739Y-72502256D01*
X67825733Y-72502263D01*
X67678067Y-72694706D01*
X67556777Y-72904785D01*
X67556773Y-72904794D01*
X67463947Y-73128895D01*
X67401161Y-73363214D01*
X67369500Y-73603711D01*
X28070500Y-73603711D01*
X28038838Y-73363211D01*
X27976054Y-73128900D01*
X27883224Y-72904788D01*
X27761936Y-72694711D01*
X27614265Y-72502262D01*
X27614260Y-72502256D01*
X27442743Y-72330739D01*
X27442736Y-72330733D01*
X27250293Y-72183067D01*
X27250292Y-72183066D01*
X27250289Y-72183064D01*
X27040212Y-72061776D01*
X27040205Y-72061773D01*
X26816104Y-71968947D01*
X26581785Y-71906161D01*
X26341289Y-71874500D01*
X26341288Y-71874500D01*
X26098712Y-71874500D01*
X26098711Y-71874500D01*
X25858214Y-71906161D01*
X25623895Y-71968947D01*
X25399794Y-72061773D01*
X25399785Y-72061777D01*
X25189706Y-72183067D01*
X24997263Y-72330733D01*
X24997256Y-72330739D01*
X24825739Y-72502256D01*
X24825733Y-72502263D01*
X24678067Y-72694706D01*
X24556777Y-72904785D01*
X24556773Y-72904794D01*
X24463947Y-73128895D01*
X24401161Y-73363214D01*
X24369500Y-73603711D01*
X23220000Y-73603711D01*
X23220000Y-59653575D01*
X26520000Y-59653575D01*
X26520000Y-59876424D01*
X26549085Y-60097354D01*
X26549088Y-60097367D01*
X26606763Y-60312618D01*
X26692045Y-60518502D01*
X26692054Y-60518520D01*
X26803464Y-60711491D01*
X26803473Y-60711504D01*
X26854040Y-60777403D01*
X26854043Y-60777403D01*
X27504154Y-60127291D01*
X27511051Y-60143941D01*
X27598601Y-60274969D01*
X27710031Y-60386399D01*
X27841059Y-60473949D01*
X27857707Y-60480844D01*
X27207595Y-61130955D01*
X27207595Y-61130956D01*
X27273507Y-61181533D01*
X27466485Y-61292949D01*
X27466497Y-61292954D01*
X27672381Y-61378236D01*
X27887632Y-61435911D01*
X27887645Y-61435914D01*
X28108575Y-61465000D01*
X28331425Y-61465000D01*
X28552354Y-61435914D01*
X28552367Y-61435911D01*
X28767618Y-61378236D01*
X28973502Y-61292954D01*
X28973514Y-61292949D01*
X29166498Y-61181530D01*
X29232403Y-61130957D01*
X29232404Y-61130956D01*
X28582292Y-60480845D01*
X28598941Y-60473949D01*
X28729969Y-60386399D01*
X28841399Y-60274969D01*
X28928949Y-60143941D01*
X28935845Y-60127292D01*
X29585956Y-60777404D01*
X29585957Y-60777403D01*
X29636530Y-60711498D01*
X29747949Y-60518514D01*
X29747954Y-60518502D01*
X29833236Y-60312618D01*
X29890911Y-60097367D01*
X29890914Y-60097354D01*
X29920000Y-59876424D01*
X29920000Y-59662517D01*
X65917900Y-59662517D01*
X65917900Y-59867482D01*
X65938628Y-59998351D01*
X65949962Y-60069909D01*
X66013297Y-60264833D01*
X66075238Y-60386399D01*
X66106347Y-60447452D01*
X66226808Y-60613254D01*
X66226812Y-60613259D01*
X66371740Y-60758187D01*
X66371745Y-60758191D01*
X66398190Y-60777404D01*
X66537551Y-60878655D01*
X66720167Y-60971703D01*
X66915091Y-61035038D01*
X66991003Y-61047061D01*
X67117518Y-61067100D01*
X67117523Y-61067100D01*
X67322482Y-61067100D01*
X67434939Y-61049287D01*
X67524909Y-61035038D01*
X67719833Y-60971703D01*
X67902449Y-60878655D01*
X68068261Y-60758186D01*
X68213186Y-60613261D01*
X68333655Y-60447449D01*
X68426703Y-60264833D01*
X68490038Y-60069909D01*
X68504287Y-59979939D01*
X68522100Y-59867482D01*
X68522100Y-59662517D01*
X68490038Y-59460094D01*
X68490038Y-59460091D01*
X68426703Y-59265167D01*
X68333655Y-59082551D01*
X68314402Y-59056051D01*
X68213191Y-58916745D01*
X68213187Y-58916740D01*
X68068259Y-58771812D01*
X68068254Y-58771808D01*
X67902452Y-58651347D01*
X67902451Y-58651346D01*
X67902449Y-58651345D01*
X67719833Y-58558297D01*
X67524909Y-58494962D01*
X67524907Y-58494961D01*
X67524905Y-58494961D01*
X67322482Y-58462900D01*
X67322477Y-58462900D01*
X67117523Y-58462900D01*
X67117518Y-58462900D01*
X66915094Y-58494961D01*
X66720164Y-58558298D01*
X66537547Y-58651347D01*
X66371745Y-58771808D01*
X66371740Y-58771812D01*
X66226812Y-58916740D01*
X66226808Y-58916745D01*
X66106347Y-59082547D01*
X66013298Y-59265164D01*
X65949961Y-59460094D01*
X65917900Y-59662517D01*
X29920000Y-59662517D01*
X29920000Y-59653575D01*
X29890914Y-59432645D01*
X29890911Y-59432632D01*
X29833236Y-59217381D01*
X29747954Y-59011497D01*
X29747949Y-59011485D01*
X29636533Y-58818507D01*
X29585956Y-58752595D01*
X29585955Y-58752595D01*
X28935844Y-59402706D01*
X28928949Y-59386059D01*
X28841399Y-59255031D01*
X28729969Y-59143601D01*
X28598941Y-59056051D01*
X28582291Y-59049154D01*
X29232403Y-58399043D01*
X29232403Y-58399040D01*
X29166504Y-58348473D01*
X29166491Y-58348464D01*
X28973520Y-58237054D01*
X28973502Y-58237045D01*
X28767618Y-58151763D01*
X28552367Y-58094088D01*
X28552354Y-58094085D01*
X28331425Y-58065000D01*
X28108575Y-58065000D01*
X27887645Y-58094085D01*
X27887632Y-58094088D01*
X27672381Y-58151763D01*
X27466497Y-58237045D01*
X27466479Y-58237054D01*
X27273511Y-58348462D01*
X27207595Y-58399042D01*
X27857708Y-59049154D01*
X27841059Y-59056051D01*
X27710031Y-59143601D01*
X27598601Y-59255031D01*
X27511051Y-59386059D01*
X27504154Y-59402707D01*
X26854042Y-58752595D01*
X26803462Y-58818511D01*
X26692054Y-59011479D01*
X26692045Y-59011497D01*
X26606763Y-59217381D01*
X26549088Y-59432632D01*
X26549085Y-59432645D01*
X26520000Y-59653575D01*
X23220000Y-59653575D01*
X23220000Y-54582517D01*
X26917900Y-54582517D01*
X26917900Y-54787482D01*
X26938628Y-54918351D01*
X26949962Y-54989909D01*
X27013297Y-55184833D01*
X27075238Y-55306399D01*
X27106347Y-55367452D01*
X27226808Y-55533254D01*
X27226812Y-55533259D01*
X27371740Y-55678187D01*
X27371745Y-55678191D01*
X27398190Y-55697404D01*
X27537551Y-55798655D01*
X27720167Y-55891703D01*
X27915091Y-55955038D01*
X27991003Y-55967061D01*
X28117518Y-55987100D01*
X28117523Y-55987100D01*
X28322482Y-55987100D01*
X28434939Y-55969287D01*
X28524909Y-55955038D01*
X28719833Y-55891703D01*
X28902449Y-55798655D01*
X29068261Y-55678186D01*
X29213186Y-55533261D01*
X29333655Y-55367449D01*
X29426703Y-55184833D01*
X29490038Y-54989909D01*
X29504287Y-54899939D01*
X29522100Y-54787482D01*
X29522100Y-54582523D01*
X29522099Y-54582512D01*
X29520683Y-54573575D01*
X65520000Y-54573575D01*
X65520000Y-54796424D01*
X65549085Y-55017354D01*
X65549088Y-55017367D01*
X65606763Y-55232618D01*
X65692045Y-55438502D01*
X65692054Y-55438520D01*
X65803464Y-55631491D01*
X65803473Y-55631504D01*
X65854040Y-55697403D01*
X65854043Y-55697403D01*
X66504154Y-55047291D01*
X66511051Y-55063941D01*
X66598601Y-55194969D01*
X66710031Y-55306399D01*
X66841059Y-55393949D01*
X66857707Y-55400844D01*
X66207595Y-56050955D01*
X66207595Y-56050956D01*
X66273507Y-56101533D01*
X66466485Y-56212949D01*
X66466497Y-56212954D01*
X66672381Y-56298236D01*
X66887632Y-56355911D01*
X66887645Y-56355914D01*
X67108575Y-56385000D01*
X67331425Y-56385000D01*
X67552354Y-56355914D01*
X67552367Y-56355911D01*
X67767618Y-56298236D01*
X67973502Y-56212954D01*
X67973514Y-56212949D01*
X68166498Y-56101530D01*
X68232403Y-56050957D01*
X68232404Y-56050956D01*
X67582292Y-55400845D01*
X67598941Y-55393949D01*
X67729969Y-55306399D01*
X67841399Y-55194969D01*
X67928949Y-55063941D01*
X67935845Y-55047292D01*
X68585956Y-55697404D01*
X68585957Y-55697403D01*
X68636530Y-55631498D01*
X68747949Y-55438514D01*
X68747954Y-55438502D01*
X68833236Y-55232618D01*
X68890911Y-55017367D01*
X68890914Y-55017354D01*
X68920000Y-54796424D01*
X68920000Y-54573575D01*
X68890914Y-54352645D01*
X68890911Y-54352632D01*
X68833236Y-54137381D01*
X68747954Y-53931497D01*
X68747949Y-53931485D01*
X68636533Y-53738507D01*
X68585956Y-53672595D01*
X68585955Y-53672595D01*
X67935844Y-54322706D01*
X67928949Y-54306059D01*
X67841399Y-54175031D01*
X67729969Y-54063601D01*
X67598941Y-53976051D01*
X67582291Y-53969154D01*
X68232403Y-53319043D01*
X68232403Y-53319040D01*
X68166504Y-53268473D01*
X68166491Y-53268464D01*
X67973520Y-53157054D01*
X67973502Y-53157045D01*
X67767618Y-53071763D01*
X67552367Y-53014088D01*
X67552354Y-53014085D01*
X67331425Y-52985000D01*
X67108575Y-52985000D01*
X66887645Y-53014085D01*
X66887632Y-53014088D01*
X66672381Y-53071763D01*
X66466497Y-53157045D01*
X66466479Y-53157054D01*
X66273511Y-53268462D01*
X66207595Y-53319042D01*
X66857708Y-53969154D01*
X66841059Y-53976051D01*
X66710031Y-54063601D01*
X66598601Y-54175031D01*
X66511051Y-54306059D01*
X66504154Y-54322707D01*
X65854042Y-53672595D01*
X65803462Y-53738511D01*
X65692054Y-53931479D01*
X65692045Y-53931497D01*
X65606763Y-54137381D01*
X65549088Y-54352632D01*
X65549085Y-54352645D01*
X65520000Y-54573575D01*
X29520683Y-54573575D01*
X29490038Y-54380094D01*
X29490038Y-54380091D01*
X29426703Y-54185167D01*
X29333655Y-54002551D01*
X29314402Y-53976051D01*
X29213191Y-53836745D01*
X29213187Y-53836740D01*
X29068259Y-53691812D01*
X29068254Y-53691808D01*
X28902452Y-53571347D01*
X28902451Y-53571346D01*
X28902449Y-53571345D01*
X28719833Y-53478297D01*
X28524909Y-53414962D01*
X28524907Y-53414961D01*
X28524905Y-53414961D01*
X28322482Y-53382900D01*
X28322477Y-53382900D01*
X28117523Y-53382900D01*
X28117518Y-53382900D01*
X27915094Y-53414961D01*
X27720164Y-53478298D01*
X27537547Y-53571347D01*
X27371745Y-53691808D01*
X27371740Y-53691812D01*
X27226812Y-53836740D01*
X27226808Y-53836745D01*
X27106347Y-54002547D01*
X27013298Y-54185164D01*
X26949961Y-54380094D01*
X26917900Y-54582517D01*
X23220000Y-54582517D01*
X23220000Y-40603711D01*
X24369500Y-40603711D01*
X24369500Y-40846288D01*
X24401161Y-41086785D01*
X24463947Y-41321104D01*
X24556773Y-41545205D01*
X24556776Y-41545212D01*
X24678064Y-41755289D01*
X24678066Y-41755292D01*
X24678067Y-41755293D01*
X24825733Y-41947736D01*
X24825739Y-41947743D01*
X24997256Y-42119260D01*
X24997262Y-42119265D01*
X25189711Y-42266936D01*
X25399788Y-42388224D01*
X25623900Y-42481054D01*
X25858211Y-42543838D01*
X26038586Y-42567584D01*
X26098711Y-42575500D01*
X26098712Y-42575500D01*
X26341289Y-42575500D01*
X26389388Y-42569167D01*
X26581789Y-42543838D01*
X26816100Y-42481054D01*
X27040212Y-42388224D01*
X27250289Y-42266936D01*
X27442738Y-42119265D01*
X27614265Y-41947738D01*
X27761936Y-41755289D01*
X27883224Y-41545212D01*
X27976054Y-41321100D01*
X28038838Y-41086789D01*
X28070500Y-40846288D01*
X28070500Y-40603712D01*
X28070500Y-40603711D01*
X67369500Y-40603711D01*
X67369500Y-40846288D01*
X67401161Y-41086785D01*
X67463947Y-41321104D01*
X67556773Y-41545205D01*
X67556776Y-41545212D01*
X67678064Y-41755289D01*
X67678066Y-41755292D01*
X67678067Y-41755293D01*
X67825733Y-41947736D01*
X67825739Y-41947743D01*
X67997256Y-42119260D01*
X67997262Y-42119265D01*
X68189711Y-42266936D01*
X68399788Y-42388224D01*
X68623900Y-42481054D01*
X68858211Y-42543838D01*
X69038586Y-42567584D01*
X69098711Y-42575500D01*
X69098712Y-42575500D01*
X69341289Y-42575500D01*
X69389388Y-42569167D01*
X69581789Y-42543838D01*
X69816100Y-42481054D01*
X70040212Y-42388224D01*
X70250289Y-42266936D01*
X70442738Y-42119265D01*
X70614265Y-41947738D01*
X70761936Y-41755289D01*
X70883224Y-41545212D01*
X70976054Y-41321100D01*
X71038838Y-41086789D01*
X71070500Y-40846288D01*
X71070500Y-40603712D01*
X71038838Y-40363211D01*
X70976054Y-40128900D01*
X70883224Y-39904788D01*
X70761936Y-39694711D01*
X70614265Y-39502262D01*
X70614260Y-39502256D01*
X70442743Y-39330739D01*
X70442736Y-39330733D01*
X70250293Y-39183067D01*
X70250292Y-39183066D01*
X70250289Y-39183064D01*
X70040212Y-39061776D01*
X70040205Y-39061773D01*
X69816104Y-38968947D01*
X69581785Y-38906161D01*
X69341289Y-38874500D01*
X69341288Y-38874500D01*
X69098712Y-38874500D01*
X69098711Y-38874500D01*
X68858214Y-38906161D01*
X68623895Y-38968947D01*
X68399794Y-39061773D01*
X68399785Y-39061777D01*
X68189706Y-39183067D01*
X67997263Y-39330733D01*
X67997256Y-39330739D01*
X67825739Y-39502256D01*
X67825733Y-39502263D01*
X67678067Y-39694706D01*
X67556777Y-39904785D01*
X67556773Y-39904794D01*
X67463947Y-40128895D01*
X67401161Y-40363214D01*
X67369500Y-40603711D01*
X28070500Y-40603711D01*
X28038838Y-40363211D01*
X27976054Y-40128900D01*
X27883224Y-39904788D01*
X27761936Y-39694711D01*
X27614265Y-39502262D01*
X27614260Y-39502256D01*
X27442743Y-39330739D01*
X27442736Y-39330733D01*
X27250293Y-39183067D01*
X27250292Y-39183066D01*
X27250289Y-39183064D01*
X27040212Y-39061776D01*
X27040205Y-39061773D01*
X26816104Y-38968947D01*
X26581785Y-38906161D01*
X26341289Y-38874500D01*
X26341288Y-38874500D01*
X26098712Y-38874500D01*
X26098711Y-38874500D01*
X25858214Y-38906161D01*
X25623895Y-38968947D01*
X25399794Y-39061773D01*
X25399785Y-39061777D01*
X25189706Y-39183067D01*
X24997263Y-39330733D01*
X24997256Y-39330739D01*
X24825739Y-39502256D01*
X24825733Y-39502263D01*
X24678067Y-39694706D01*
X24556777Y-39904785D01*
X24556773Y-39904794D01*
X24463947Y-40128895D01*
X24401161Y-40363214D01*
X24369500Y-40603711D01*
X23220000Y-40603711D01*
X23220000Y-37849000D01*
X23239685Y-37781961D01*
X23292489Y-37736206D01*
X23344000Y-37725000D01*
X72096000Y-37725000D01*
X72163039Y-37744685D01*
G37*
%TD.AperFunction*%
%TD*%
M02*
