<?xml version="1.0" standalone="no"?>
 <!DOCTYPE svg PUBLIC "-//W3C//DTD SVG 1.1//EN" 
 "http://www.w3.org/Graphics/SVG/1.1/DTD/svg11.dtd"> 
<svg
  xmlns:svg="http://www.w3.org/2000/svg"
  xmlns="http://www.w3.org/2000/svg"
  xmlns:xlink="http://www.w3.org/1999/xlink"
  xmlns:inkscape="http://www.inkscape.org/namespaces/inkscape"
  version="1.1"
  width="25.755600mm" height="10.947400mm" viewBox="0.000000 0.000000 25.755600 10.947400">
<title>SVG Image created as CONN-TH_P5.08_KF128-5.08-2P.svg date 2026-07-28T08:23:56 </title>
  <desc>Image generated by PCBNEW </desc>
<g style="fill:#000000; fill-opacity:1.000000;stroke:#000000; stroke-opacity:1.000000;
stroke-linecap:round; stroke-linejoin:round;"
 transform="translate(0 0) scale(1 1)">
</g>
<g style="fill:#4D7FC4; fill-opacity:1.000000; stroke:none;">
<circle cx="10.346904" cy="5.525000" r="1.200000" /> 
<circle cx="15.426904" cy="5.525000" r="1.200000" /> 
</g>
<g style="fill:#02FFEE; fill-opacity:0.400000; stroke:none;">
<circle cx="10.346904" cy="5.525000" r="1.200000" /> 
<circle cx="15.426904" cy="5.525000" r="1.200000" /> 
</g>
<g style="fill:#F2EDA1; fill-opacity:1.000000; stroke:none;">
<circle cx="10.346904" cy="5.525000" r="1.200000" /> 
<circle cx="15.426904" cy="5.525000" r="1.200000" /> 
</g>
<g style="fill:#E8B2A7; fill-opacity:1.000000; stroke:none;">
<circle cx="10.346904" cy="5.525000" r="1.200000" /> 
<circle cx="15.426904" cy="5.525000" r="1.200000" /> 
</g>
<g style="fill:#28CCD9; fill-opacity:1.000000; stroke:none;">
<circle cx="10.346904" cy="5.525000" r="1.200000" /> 
<circle cx="15.426904" cy="5.525000" r="1.200000" /> 
</g>
<g style="fill:#A7A5C6; fill-opacity:1.000000; stroke:none;">
<circle cx="10.346904" cy="5.525000" r="1.200000" /> 
<circle cx="15.426904" cy="5.525000" r="1.200000" /> 
</g>
<g style="fill:#F76F8E; fill-opacity:1.000000; stroke:none;">
<circle cx="10.346904" cy="5.525000" r="1.200000" /> 
<circle cx="15.426904" cy="5.525000" r="1.200000" /> 
</g>
<g style="fill:#5BC3EB; fill-opacity:1.000000; stroke:none;">
<circle cx="10.346904" cy="5.525000" r="1.200000" /> 
<circle cx="15.426904" cy="5.525000" r="1.200000" /> 
</g>
<g style="fill:#ED7C33; fill-opacity:1.000000; stroke:none;">
<circle cx="10.346904" cy="5.525000" r="1.200000" /> 
<circle cx="15.426904" cy="5.525000" r="1.200000" /> 
</g>
<g style="fill:#F2EDA1; fill-opacity:1.000000; stroke:none;">
<circle cx="10.346904" cy="5.525000" r="1.200000" /> 
<circle cx="15.426904" cy="5.525000" r="1.200000" /> 
</g>
<g style="fill:#E8B2A7; fill-opacity:1.000000; stroke:none;">
<circle cx="10.346904" cy="5.525000" r="1.200000" /> 
<circle cx="15.426904" cy="5.525000" r="1.200000" /> 
</g>
<g style="fill:#28CCD9; fill-opacity:1.000000; stroke:none;">
<circle cx="10.346904" cy="5.525000" r="1.200000" /> 
<circle cx="15.426904" cy="5.525000" r="1.200000" /> 
</g>
<g style="fill:#A7A5C6; fill-opacity:1.000000; stroke:none;">
<circle cx="10.346904" cy="5.525000" r="1.200000" /> 
<circle cx="15.426904" cy="5.525000" r="1.200000" /> 
</g>
<g style="fill:#F76F8E; fill-opacity:1.000000; stroke:none;">
<circle cx="10.346904" cy="5.525000" r="1.200000" /> 
<circle cx="15.426904" cy="5.525000" r="1.200000" /> 
</g>
<g style="fill:#5BC3EB; fill-opacity:1.000000; stroke:none;">
<circle cx="10.346904" cy="5.525000" r="1.200000" /> 
<circle cx="15.426904" cy="5.525000" r="1.200000" /> 
</g>
<g style="fill:#ED7C33; fill-opacity:1.000000; stroke:none;">
<circle cx="10.346904" cy="5.525000" r="1.200000" /> 
<circle cx="15.426904" cy="5.525000" r="1.200000" /> 
</g>
<g style="fill:#F2EDA1; fill-opacity:1.000000; stroke:none;">
<circle cx="10.346904" cy="5.525000" r="1.200000" /> 
<circle cx="15.426904" cy="5.525000" r="1.200000" /> 
</g>
<g style="fill:#E8B2A7; fill-opacity:1.000000; stroke:none;">
<circle cx="10.346904" cy="5.525000" r="1.200000" /> 
<circle cx="15.426904" cy="5.525000" r="1.200000" /> 
</g>
<g style="fill:#28CCD9; fill-opacity:1.000000; stroke:none;">
<circle cx="10.346904" cy="5.525000" r="1.200000" /> 
<circle cx="15.426904" cy="5.525000" r="1.200000" /> 
</g>
<g style="fill:#A7A5C6; fill-opacity:1.000000; stroke:none;">
<circle cx="10.346904" cy="5.525000" r="1.200000" /> 
<circle cx="15.426904" cy="5.525000" r="1.200000" /> 
</g>
<g style="fill:#F76F8E; fill-opacity:1.000000; stroke:none;">
<circle cx="10.346904" cy="5.525000" r="1.200000" /> 
<circle cx="15.426904" cy="5.525000" r="1.200000" /> 
</g>
<g style="fill:#5BC3EB; fill-opacity:1.000000; stroke:none;">
<circle cx="10.346904" cy="5.525000" r="1.200000" /> 
<circle cx="15.426904" cy="5.525000" r="1.200000" /> 
</g>
<g style="fill:#ED7C33; fill-opacity:1.000000; stroke:none;">
<circle cx="10.346904" cy="5.525000" r="1.200000" /> 
<circle cx="15.426904" cy="5.525000" r="1.200000" /> 
</g>
<g style="fill:#8DCB81; fill-opacity:1.000000; stroke:none;">
<circle cx="10.346904" cy="5.525000" r="1.200000" /> 
<circle cx="15.426904" cy="5.525000" r="1.200000" /> 
</g>
<g style="fill:#F2EDA1; fill-opacity:1.000000; stroke:none;">
<circle cx="10.346904" cy="5.525000" r="1.200000" /> 
<circle cx="15.426904" cy="5.525000" r="1.200000" /> 
</g>
<g style="fill:#E8B2A7; fill-opacity:1.000000; stroke:none;">
<circle cx="10.346904" cy="5.525000" r="1.200000" /> 
<circle cx="15.426904" cy="5.525000" r="1.200000" /> 
</g>
<g style="fill:#28CCD9; fill-opacity:1.000000; stroke:none;">
<circle cx="10.346904" cy="5.525000" r="1.200000" /> 
<circle cx="15.426904" cy="5.525000" r="1.200000" /> 
</g>
<g style="fill:#A7A5C6; fill-opacity:1.000000; stroke:none;">
<circle cx="10.346904" cy="5.525000" r="1.200000" /> 
<circle cx="15.426904" cy="5.525000" r="1.200000" /> 
</g>
<g style="fill:#DB628B; fill-opacity:1.000000; stroke:none;">
<circle cx="10.346904" cy="5.525000" r="1.200000" /> 
<circle cx="15.426904" cy="5.525000" r="1.200000" /> 
</g>
<g style="fill:#4FCBCB; fill-opacity:1.000000; stroke:none;">
<circle cx="10.346904" cy="5.525000" r="1.200000" /> 
<circle cx="15.426904" cy="5.525000" r="1.200000" /> 
</g>
<g style="fill:#CE7D2C; fill-opacity:1.000000; stroke:none;">
<circle cx="10.346904" cy="5.525000" r="1.200000" /> 
<circle cx="15.426904" cy="5.525000" r="1.200000" /> 
</g>
<g style="fill:#7FC87F; fill-opacity:1.000000; stroke:none;">
<circle cx="10.346904" cy="5.525000" r="1.200000" /> 
<circle cx="15.426904" cy="5.525000" r="1.200000" /> 
</g>
<g style="fill:#C83434; fill-opacity:1.000000; stroke:none;">
<circle cx="10.346904" cy="5.525000" r="1.200000" /> 
<circle cx="15.426904" cy="5.525000" r="1.200000" /> 
</g>
<g style="fill:#D864FF; fill-opacity:0.400000; stroke:none;">
<circle cx="10.346904" cy="5.525000" r="1.200000" /> 
<circle cx="15.426904" cy="5.525000" r="1.200000" /> 
</g>
<g style="fill:none; 
stroke:#F2EDA1; stroke-width:0.150000; stroke-opacity:1; 
stroke-linecap:round; stroke-linejoin:round;">
<text x="12.886904" y="2.025000"
textLength="4.535715" font-size="1.333333" lengthAdjust="spacingAndGlyphs"
text-anchor="middle" opacity="0" stroke-opacity="0">REF**</text>
<g class="stroked-text"><desc>REF**</desc>
<path d="M11.553571 1.979820
L11.220238 1.503629
" />
<path d="M10.982143 1.979820
L10.982143 0.979820
" />
<path d="M10.982143 0.979820
L11.363095 0.979820
" />
<path d="M11.363095 0.979820
L11.458333 1.027439
" />
<path d="M11.458333 1.027439
L11.505952 1.075058
" />
<path d="M11.505952 1.075058
L11.553571 1.170296
" />
<path d="M11.553571 1.170296
L11.553571 1.313153
" />
<path d="M11.553571 1.313153
L11.505952 1.408391
" />
<path d="M11.505952 1.408391
L11.458333 1.456010
" />
<path d="M11.458333 1.456010
L11.363095 1.503629
" />
<path d="M11.363095 1.503629
L10.982143 1.503629
" />
<path d="M11.982143 1.456010
L12.315476 1.456010
" />
<path d="M12.458333 1.979820
L11.982143 1.979820
" />
<path d="M11.982143 1.979820
L11.982143 0.979820
" />
<path d="M11.982143 0.979820
L12.458333 0.979820
" />
<path d="M13.220237 1.456010
L12.886904 1.456010
" />
<path d="M12.886904 1.979820
L12.886904 0.979820
" />
<path d="M12.886904 0.979820
L13.363094 0.979820
" />
<path d="M13.886904 0.979820
L13.886904 1.217915
" />
<path d="M13.648809 1.122677
L13.886904 1.217915
" />
<path d="M13.886904 1.217915
L14.124999 1.122677
" />
<path d="M13.744047 1.408391
L13.886904 1.217915
" />
<path d="M13.886904 1.217915
L14.029761 1.408391
" />
<path d="M14.648809 0.979820
L14.648809 1.217915
" />
<path d="M14.410714 1.122677
L14.648809 1.217915
" />
<path d="M14.648809 1.217915
L14.886904 1.122677
" />
<path d="M14.505952 1.408391
L14.648809 1.217915
" />
<path d="M14.648809 1.217915
L14.791666 1.408391
" />
</g></g>
<g style="fill:none; 
stroke:#F2EDA1; stroke-width:0.250000; stroke-opacity:1; 
stroke-linecap:round; stroke-linejoin:round;">
<path d="M17.966904 9.415000
L18.566904 9.135000
" />
<path d="M17.966904 9.865000
L18.566904 10.135000
" />
<path d="M18.566904 2.935000
L17.966904 2.655000
" />
<path d="M18.566904 1.935000
L17.966904 2.215000
" />
<path d="M18.566904 9.135000
L18.566904 10.135000
" />
<path d="M18.566904 1.935000
L18.566904 2.935000
" />
<path d="M17.966904 0.125000
L17.966904 10.825000
" />
<path d="M7.806904 0.125000
L17.966904 0.125000
" />
<path d="M7.806904 10.825000
L7.806904 0.125000
" />
<path d="M17.966904 10.825000
L7.806904 10.825000
" />
</g>
<g style="fill:none; 
stroke:#F2EDA1; stroke-width:0.060000; stroke-opacity:1; 
stroke-linecap:round; stroke-linejoin:round;">
<circle cx="7.806904" cy="10.825000" r="0.030000" /> 
<path style="fill:#F2EDA1; fill-opacity:1.000000; stroke:none;fill-rule:evenodd;"
d="M 15.926903,10.524990
14.926905,10.524990
14.926905,8.524994
15.926903,8.524994
Z" /> 
<path style="fill:#F2EDA1; fill-opacity:1.000000; stroke:none;fill-rule:evenodd;"
d="M 16.426902,8.524994
14.426906,8.524994
15.426904,7.524996
Z" /> 
<path style="fill:#F2EDA1; fill-opacity:1.000000; stroke:none;fill-rule:evenodd;"
d="M 10.846903,10.524990
9.846905,10.524990
9.846905,8.524994
10.846903,8.524994
Z" /> 
<path style="fill:#F2EDA1; fill-opacity:1.000000; stroke:none;fill-rule:evenodd;"
d="M 11.346902,8.524994
9.346906,8.524994
10.346904,7.524996
Z" /> 
</g>
<g style="fill:none; 
stroke:#FF26E2; stroke-width:0.050000; stroke-opacity:1; 
stroke-linecap:round; stroke-linejoin:round;">
<path d="M7.806904 0.125000
L17.966904 0.125000
" />
<path d="M17.966904 0.125000
L17.966904 10.825000
" />
<path d="M17.966904 10.825000
L7.806904 10.825000
" />
<path d="M7.806904 10.825000
L7.806904 0.125000
" />
</g>
<g style="fill:none; 
stroke:#AFAFAF; stroke-width:0.150000; stroke-opacity:1; 
stroke-linecap:round; stroke-linejoin:round;">
<text x="12.886904" y="10.025000"
textLength="25.773809" font-size="1.333333" lengthAdjust="spacingAndGlyphs"
text-anchor="middle" opacity="0" stroke-opacity="0">CONN-TH_P5.08_KF128-5.08-2P</text>
<g class="stroked-text"><desc>CONN-TH_P5.08_KF128-5.08-2P</desc>
<path d="M0.934524 9.884580
L0.886905 9.932200
" />
<path d="M0.886905 9.932200
L0.744048 9.979819
" />
<path d="M0.744048 9.979819
L0.648810 9.979819
" />
<path d="M0.648810 9.979819
L0.505953 9.932200
" />
<path d="M0.505953 9.932200
L0.410715 9.836961
" />
<path d="M0.410715 9.836961
L0.363096 9.741723
" />
<path d="M0.363096 9.741723
L0.315477 9.551247
" />
<path d="M0.315477 9.551247
L0.315477 9.408390
" />
<path d="M0.315477 9.408390
L0.363096 9.217914
" />
<path d="M0.363096 9.217914
L0.410715 9.122676
" />
<path d="M0.410715 9.122676
L0.505953 9.027438
" />
<path d="M0.505953 9.027438
L0.648810 8.979819
" />
<path d="M0.648810 8.979819
L0.744048 8.979819
" />
<path d="M0.744048 8.979819
L0.886905 9.027438
" />
<path d="M0.886905 9.027438
L0.934524 9.075057
" />
<path d="M1.553572 8.979819
L1.744048 8.979819
" />
<path d="M1.744048 8.979819
L1.839286 9.027438
" />
<path d="M1.839286 9.027438
L1.934524 9.122676
" />
<path d="M1.934524 9.122676
L1.982143 9.313152
" />
<path d="M1.982143 9.313152
L1.982143 9.646485
" />
<path d="M1.982143 9.646485
L1.934524 9.836961
" />
<path d="M1.934524 9.836961
L1.839286 9.932200
" />
<path d="M1.839286 9.932200
L1.744048 9.979819
" />
<path d="M1.744048 9.979819
L1.553572 9.979819
" />
<path d="M1.553572 9.979819
L1.458334 9.932200
" />
<path d="M1.458334 9.932200
L1.363096 9.836961
" />
<path d="M1.363096 9.836961
L1.315477 9.646485
" />
<path d="M1.315477 9.646485
L1.315477 9.313152
" />
<path d="M1.315477 9.313152
L1.363096 9.122676
" />
<path d="M1.363096 9.122676
L1.458334 9.027438
" />
<path d="M1.458334 9.027438
L1.553572 8.979819
" />
<path d="M2.410715 9.979819
L2.410715 8.979819
" />
<path d="M2.410715 8.979819
L2.982143 9.979819
" />
<path d="M2.982143 9.979819
L2.982143 8.979819
" />
<path d="M3.458334 9.979819
L3.458334 8.979819
" />
<path d="M3.458334 8.979819
L4.029762 9.979819
" />
<path d="M4.029762 9.979819
L4.029762 8.979819
" />
<path d="M4.505953 9.598866
L5.267857 9.598866
" />
<path d="M5.601191 8.979819
L6.172619 8.979819
" />
<path d="M5.886905 9.979819
L5.886905 8.979819
" />
<path d="M6.505953 9.979819
L6.505953 8.979819
" />
<path d="M6.505953 9.456009
L7.077381 9.456009
" />
<path d="M7.077381 9.979819
L7.077381 8.979819
" />
<path d="M7.315476 10.075057
L8.077381 10.075057
" />
<path d="M8.315477 9.979819
L8.315477 8.979819
" />
<path d="M8.315477 8.979819
L8.696429 8.979819
" />
<path d="M8.696429 8.979819
L8.791667 9.027438
" />
<path d="M8.791667 9.027438
L8.839286 9.075057
" />
<path d="M8.839286 9.075057
L8.886905 9.170295
" />
<path d="M8.886905 9.170295
L8.886905 9.313152
" />
<path d="M8.886905 9.313152
L8.839286 9.408390
" />
<path d="M8.839286 9.408390
L8.791667 9.456009
" />
<path d="M8.791667 9.456009
L8.696429 9.503628
" />
<path d="M8.696429 9.503628
L8.315477 9.503628
" />
<path d="M9.791667 8.979819
L9.315477 8.979819
" />
<path d="M9.315477 8.979819
L9.267858 9.456009
" />
<path d="M9.267858 9.456009
L9.315477 9.408390
" />
<path d="M9.315477 9.408390
L9.410715 9.360771
" />
<path d="M9.410715 9.360771
L9.648810 9.360771
" />
<path d="M9.648810 9.360771
L9.744048 9.408390
" />
<path d="M9.744048 9.408390
L9.791667 9.456009
" />
<path d="M9.791667 9.456009
L9.839286 9.551247
" />
<path d="M9.839286 9.551247
L9.839286 9.789342
" />
<path d="M9.839286 9.789342
L9.791667 9.884580
" />
<path d="M9.791667 9.884580
L9.744048 9.932200
" />
<path d="M9.744048 9.932200
L9.648810 9.979819
" />
<path d="M9.648810 9.979819
L9.410715 9.979819
" />
<path d="M9.410715 9.979819
L9.315477 9.932200
" />
<path d="M9.315477 9.932200
L9.267858 9.884580
" />
<path d="M10.267858 9.884580
L10.315477 9.932200
" />
<path d="M10.315477 9.932200
L10.267858 9.979819
" />
<path d="M10.267858 9.979819
L10.220239 9.932200
" />
<path d="M10.220239 9.932200
L10.267858 9.884580
" />
<path d="M10.267858 9.884580
L10.267858 9.979819
" />
<path d="M10.934524 8.979819
L11.029762 8.979819
" />
<path d="M11.029762 8.979819
L11.125000 9.027438
" />
<path d="M11.125000 9.027438
L11.172619 9.075057
" />
<path d="M11.172619 9.075057
L11.220238 9.170295
" />
<path d="M11.220238 9.170295
L11.267857 9.360771
" />
<path d="M11.267857 9.360771
L11.267857 9.598866
" />
<path d="M11.267857 9.598866
L11.220238 9.789342
" />
<path d="M11.220238 9.789342
L11.172619 9.884580
" />
<path d="M11.172619 9.884580
L11.125000 9.932200
" />
<path d="M11.125000 9.932200
L11.029762 9.979819
" />
<path d="M11.029762 9.979819
L10.934524 9.979819
" />
<path d="M10.934524 9.979819
L10.839286 9.932200
" />
<path d="M10.839286 9.932200
L10.791667 9.884580
" />
<path d="M10.791667 9.884580
L10.744048 9.789342
" />
<path d="M10.744048 9.789342
L10.696429 9.598866
" />
<path d="M10.696429 9.598866
L10.696429 9.360771
" />
<path d="M10.696429 9.360771
L10.744048 9.170295
" />
<path d="M10.744048 9.170295
L10.791667 9.075057
" />
<path d="M10.791667 9.075057
L10.839286 9.027438
" />
<path d="M10.839286 9.027438
L10.934524 8.979819
" />
<path d="M11.839286 9.408390
L11.744048 9.360771
" />
<path d="M11.744048 9.360771
L11.696429 9.313152
" />
<path d="M11.696429 9.313152
L11.648810 9.217914
" />
<path d="M11.648810 9.217914
L11.648810 9.170295
" />
<path d="M11.648810 9.170295
L11.696429 9.075057
" />
<path d="M11.696429 9.075057
L11.744048 9.027438
" />
<path d="M11.744048 9.027438
L11.839286 8.979819
" />
<path d="M11.839286 8.979819
L12.029762 8.979819
" />
<path d="M12.029762 8.979819
L12.125000 9.027438
" />
<path d="M12.125000 9.027438
L12.172619 9.075057
" />
<path d="M12.172619 9.075057
L12.220238 9.170295
" />
<path d="M12.220238 9.170295
L12.220238 9.217914
" />
<path d="M12.220238 9.217914
L12.172619 9.313152
" />
<path d="M12.172619 9.313152
L12.125000 9.360771
" />
<path d="M12.125000 9.360771
L12.029762 9.408390
" />
<path d="M12.029762 9.408390
L11.839286 9.408390
" />
<path d="M11.839286 9.408390
L11.744048 9.456009
" />
<path d="M11.744048 9.456009
L11.696429 9.503628
" />
<path d="M11.696429 9.503628
L11.648810 9.598866
" />
<path d="M11.648810 9.598866
L11.648810 9.789342
" />
<path d="M11.648810 9.789342
L11.696429 9.884580
" />
<path d="M11.696429 9.884580
L11.744048 9.932200
" />
<path d="M11.744048 9.932200
L11.839286 9.979819
" />
<path d="M11.839286 9.979819
L12.029762 9.979819
" />
<path d="M12.029762 9.979819
L12.125000 9.932200
" />
<path d="M12.125000 9.932200
L12.172619 9.884580
" />
<path d="M12.172619 9.884580
L12.220238 9.789342
" />
<path d="M12.220238 9.789342
L12.220238 9.598866
" />
<path d="M12.220238 9.598866
L12.172619 9.503628
" />
<path d="M12.172619 9.503628
L12.125000 9.456009
" />
<path d="M12.125000 9.456009
L12.029762 9.408390
" />
<path d="M12.410714 10.075057
L13.172618 10.075057
" />
<path d="M13.410714 9.979819
L13.410714 8.979819
" />
<path d="M13.982142 9.979819
L13.553571 9.408390
" />
<path d="M13.982142 8.979819
L13.410714 9.551247
" />
<path d="M14.744047 9.456009
L14.410714 9.456009
" />
<path d="M14.410714 9.979819
L14.410714 8.979819
" />
<path d="M14.410714 8.979819
L14.886904 8.979819
" />
<path d="M15.791666 9.979819
L15.220238 9.979819
" />
<path d="M15.505952 9.979819
L15.505952 8.979819
" />
<path d="M15.505952 8.979819
L15.410714 9.122676
" />
<path d="M15.410714 9.122676
L15.315476 9.217914
" />
<path d="M15.315476 9.217914
L15.220238 9.265533
" />
<path d="M16.172619 9.075057
L16.220238 9.027438
" />
<path d="M16.220238 9.027438
L16.315476 8.979819
" />
<path d="M16.315476 8.979819
L16.553571 8.979819
" />
<path d="M16.553571 8.979819
L16.648809 9.027438
" />
<path d="M16.648809 9.027438
L16.696428 9.075057
" />
<path d="M16.696428 9.075057
L16.744047 9.170295
" />
<path d="M16.744047 9.170295
L16.744047 9.265533
" />
<path d="M16.744047 9.265533
L16.696428 9.408390
" />
<path d="M16.696428 9.408390
L16.125000 9.979819
" />
<path d="M16.125000 9.979819
L16.744047 9.979819
" />
<path d="M17.315476 9.408390
L17.220238 9.360771
" />
<path d="M17.220238 9.360771
L17.172619 9.313152
" />
<path d="M17.172619 9.313152
L17.125000 9.217914
" />
<path d="M17.125000 9.217914
L17.125000 9.170295
" />
<path d="M17.125000 9.170295
L17.172619 9.075057
" />
<path d="M17.172619 9.075057
L17.220238 9.027438
" />
<path d="M17.220238 9.027438
L17.315476 8.979819
" />
<path d="M17.315476 8.979819
L17.505952 8.979819
" />
<path d="M17.505952 8.979819
L17.601190 9.027438
" />
<path d="M17.601190 9.027438
L17.648809 9.075057
" />
<path d="M17.648809 9.075057
L17.696428 9.170295
" />
<path d="M17.696428 9.170295
L17.696428 9.217914
" />
<path d="M17.696428 9.217914
L17.648809 9.313152
" />
<path d="M17.648809 9.313152
L17.601190 9.360771
" />
<path d="M17.601190 9.360771
L17.505952 9.408390
" />
<path d="M17.505952 9.408390
L17.315476 9.408390
" />
<path d="M17.315476 9.408390
L17.220238 9.456009
" />
<path d="M17.220238 9.456009
L17.172619 9.503628
" />
<path d="M17.172619 9.503628
L17.125000 9.598866
" />
<path d="M17.125000 9.598866
L17.125000 9.789342
" />
<path d="M17.125000 9.789342
L17.172619 9.884580
" />
<path d="M17.172619 9.884580
L17.220238 9.932200
" />
<path d="M17.220238 9.932200
L17.315476 9.979819
" />
<path d="M17.315476 9.979819
L17.505952 9.979819
" />
<path d="M17.505952 9.979819
L17.601190 9.932200
" />
<path d="M17.601190 9.932200
L17.648809 9.884580
" />
<path d="M17.648809 9.884580
L17.696428 9.789342
" />
<path d="M17.696428 9.789342
L17.696428 9.598866
" />
<path d="M17.696428 9.598866
L17.648809 9.503628
" />
<path d="M17.648809 9.503628
L17.601190 9.456009
" />
<path d="M17.601190 9.456009
L17.505952 9.408390
" />
<path d="M18.125000 9.598866
L18.886905 9.598866
" />
<path d="M19.839285 8.979819
L19.363095 8.979819
" />
<path d="M19.363095 8.979819
L19.315476 9.456009
" />
<path d="M19.315476 9.456009
L19.363095 9.408390
" />
<path d="M19.363095 9.408390
L19.458333 9.360771
" />
<path d="M19.458333 9.360771
L19.696428 9.360771
" />
<path d="M19.696428 9.360771
L19.791666 9.408390
" />
<path d="M19.791666 9.408390
L19.839285 9.456009
" />
<path d="M19.839285 9.456009
L19.886904 9.551247
" />
<path d="M19.886904 9.551247
L19.886904 9.789342
" />
<path d="M19.886904 9.789342
L19.839285 9.884580
" />
<path d="M19.839285 9.884580
L19.791666 9.932200
" />
<path d="M19.791666 9.932200
L19.696428 9.979819
" />
<path d="M19.696428 9.979819
L19.458333 9.979819
" />
<path d="M19.458333 9.979819
L19.363095 9.932200
" />
<path d="M19.363095 9.932200
L19.315476 9.884580
" />
<path d="M20.315476 9.884580
L20.363095 9.932200
" />
<path d="M20.363095 9.932200
L20.315476 9.979819
" />
<path d="M20.315476 9.979819
L20.267857 9.932200
" />
<path d="M20.267857 9.932200
L20.315476 9.884580
" />
<path d="M20.315476 9.884580
L20.315476 9.979819
" />
<path d="M20.982142 8.979819
L21.077380 8.979819
" />
<path d="M21.077380 8.979819
L21.172618 9.027438
" />
<path d="M21.172618 9.027438
L21.220237 9.075057
" />
<path d="M21.220237 9.075057
L21.267856 9.170295
" />
<path d="M21.267856 9.170295
L21.315475 9.360771
" />
<path d="M21.315475 9.360771
L21.315475 9.598866
" />
<path d="M21.315475 9.598866
L21.267856 9.789342
" />
<path d="M21.267856 9.789342
L21.220237 9.884580
" />
<path d="M21.220237 9.884580
L21.172618 9.932200
" />
<path d="M21.172618 9.932200
L21.077380 9.979819
" />
<path d="M21.077380 9.979819
L20.982142 9.979819
" />
<path d="M20.982142 9.979819
L20.886904 9.932200
" />
<path d="M20.886904 9.932200
L20.839285 9.884580
" />
<path d="M20.839285 9.884580
L20.791666 9.789342
" />
<path d="M20.791666 9.789342
L20.744047 9.598866
" />
<path d="M20.744047 9.598866
L20.744047 9.360771
" />
<path d="M20.744047 9.360771
L20.791666 9.170295
" />
<path d="M20.791666 9.170295
L20.839285 9.075057
" />
<path d="M20.839285 9.075057
L20.886904 9.027438
" />
<path d="M20.886904 9.027438
L20.982142 8.979819
" />
<path d="M21.886904 9.408390
L21.791666 9.360771
" />
<path d="M21.791666 9.360771
L21.744047 9.313152
" />
<path d="M21.744047 9.313152
L21.696428 9.217914
" />
<path d="M21.696428 9.217914
L21.696428 9.170295
" />
<path d="M21.696428 9.170295
L21.744047 9.075057
" />
<path d="M21.744047 9.075057
L21.791666 9.027438
" />
<path d="M21.791666 9.027438
L21.886904 8.979819
" />
<path d="M21.886904 8.979819
L22.077380 8.979819
" />
<path d="M22.077380 8.979819
L22.172618 9.027438
" />
<path d="M22.172618 9.027438
L22.220237 9.075057
" />
<path d="M22.220237 9.075057
L22.267856 9.170295
" />
<path d="M22.267856 9.170295
L22.267856 9.217914
" />
<path d="M22.267856 9.217914
L22.220237 9.313152
" />
<path d="M22.220237 9.313152
L22.172618 9.360771
" />
<path d="M22.172618 9.360771
L22.077380 9.408390
" />
<path d="M22.077380 9.408390
L21.886904 9.408390
" />
<path d="M21.886904 9.408390
L21.791666 9.456009
" />
<path d="M21.791666 9.456009
L21.744047 9.503628
" />
<path d="M21.744047 9.503628
L21.696428 9.598866
" />
<path d="M21.696428 9.598866
L21.696428 9.789342
" />
<path d="M21.696428 9.789342
L21.744047 9.884580
" />
<path d="M21.744047 9.884580
L21.791666 9.932200
" />
<path d="M21.791666 9.932200
L21.886904 9.979819
" />
<path d="M21.886904 9.979819
L22.077380 9.979819
" />
<path d="M22.077380 9.979819
L22.172618 9.932200
" />
<path d="M22.172618 9.932200
L22.220237 9.884580
" />
<path d="M22.220237 9.884580
L22.267856 9.789342
" />
<path d="M22.267856 9.789342
L22.267856 9.598866
" />
<path d="M22.267856 9.598866
L22.220237 9.503628
" />
<path d="M22.220237 9.503628
L22.172618 9.456009
" />
<path d="M22.172618 9.456009
L22.077380 9.408390
" />
<path d="M22.696428 9.598866
L23.458333 9.598866
" />
<path d="M23.886904 9.075057
L23.934523 9.027438
" />
<path d="M23.934523 9.027438
L24.029761 8.979819
" />
<path d="M24.029761 8.979819
L24.267856 8.979819
" />
<path d="M24.267856 8.979819
L24.363094 9.027438
" />
<path d="M24.363094 9.027438
L24.410713 9.075057
" />
<path d="M24.410713 9.075057
L24.458332 9.170295
" />
<path d="M24.458332 9.170295
L24.458332 9.265533
" />
<path d="M24.458332 9.265533
L24.410713 9.408390
" />
<path d="M24.410713 9.408390
L23.839285 9.979819
" />
<path d="M23.839285 9.979819
L24.458332 9.979819
" />
<path d="M24.886904 9.979819
L24.886904 8.979819
" />
<path d="M24.886904 8.979819
L25.267856 8.979819
" />
<path d="M25.267856 8.979819
L25.363094 9.027438
" />
<path d="M25.363094 9.027438
L25.410713 9.075057
" />
<path d="M25.410713 9.075057
L25.458332 9.170295
" />
<path d="M25.458332 9.170295
L25.458332 9.313152
" />
<path d="M25.458332 9.313152
L25.410713 9.408390
" />
<path d="M25.410713 9.408390
L25.363094 9.456009
" />
<path d="M25.363094 9.456009
L25.267856 9.503628
" />
<path d="M25.267856 9.503628
L24.886904 9.503628
" />
</g><text x="12.886904" y="6.025000"
textLength="4.535715" font-size="1.333333" lengthAdjust="spacingAndGlyphs"
text-anchor="middle" opacity="0" stroke-opacity="0">REF**</text>
<g class="stroked-text"><desc>REF**</desc>
<path d="M11.553571 5.979819
L11.220238 5.503629
" />
<path d="M10.982143 5.979819
L10.982143 4.979820
" />
<path d="M10.982143 4.979820
L11.363095 4.979820
" />
<path d="M11.363095 4.979820
L11.458333 5.027439
" />
<path d="M11.458333 5.027439
L11.505952 5.075058
" />
<path d="M11.505952 5.075058
L11.553571 5.170296
" />
<path d="M11.553571 5.170296
L11.553571 5.313153
" />
<path d="M11.553571 5.313153
L11.505952 5.408391
" />
<path d="M11.505952 5.408391
L11.458333 5.456010
" />
<path d="M11.458333 5.456010
L11.363095 5.503629
" />
<path d="M11.363095 5.503629
L10.982143 5.503629
" />
<path d="M11.982143 5.456010
L12.315476 5.456010
" />
<path d="M12.458333 5.979819
L11.982143 5.979819
" />
<path d="M11.982143 5.979819
L11.982143 4.979820
" />
<path d="M11.982143 4.979820
L12.458333 4.979820
" />
<path d="M13.220237 5.456010
L12.886904 5.456010
" />
<path d="M12.886904 5.979819
L12.886904 4.979820
" />
<path d="M12.886904 4.979820
L13.363094 4.979820
" />
<path d="M13.886904 4.979820
L13.886904 5.217915
" />
<path d="M13.648809 5.122677
L13.886904 5.217915
" />
<path d="M13.886904 5.217915
L14.124999 5.122677
" />
<path d="M13.744047 5.408391
L13.886904 5.217915
" />
<path d="M13.886904 5.217915
L14.029761 5.408391
" />
<path d="M14.648809 4.979820
L14.648809 5.217915
" />
<path d="M14.410714 5.122677
L14.648809 5.217915
" />
<path d="M14.648809 5.217915
L14.886904 5.122677
" />
<path d="M14.505952 5.408391
L14.648809 5.217915
" />
<path d="M14.648809 5.217915
L14.791666 5.408391
" />
</g></g>
<g style="fill:#FFFFFF; fill-opacity:1.000000; stroke:none;">
<circle cx="10.346904" cy="5.525000" r="0.799998" /> 
</g>
<g style="fill:#FFFFFF; fill-opacity:1.000000; stroke:none;">
<circle cx="15.426904" cy="5.525000" r="0.799998" /> 
</g> 
</svg>
