%TF.GenerationSoftware,KiCad,Pcbnew,10.0.3*%
%TF.CreationDate,2026-08-09T00:00:18-07:00*%
%TF.ProjectId,rf-de-20m,72662d64-652d-4323-906d-2e6b69636164,rev?*%
%TF.SameCoordinates,Original*%
%TF.FileFunction,Paste,Top*%
%TF.FilePolarity,Positive*%
%FSLAX46Y46*%
G04 Gerber Fmt 4.6, Leading zero omitted, Abs format (unit mm)*
G04 Created by KiCad (PCBNEW 10.0.3) date 2026-08-09 00:00:18*
%MOMM*%
%LPD*%
G01*
G04 APERTURE LIST*
%ADD10R,1.485000X1.728000*%
%ADD11R,1.133000X1.377000*%
%ADD12R,1.728000X1.485000*%
%ADD13R,0.500000X0.540000*%
%ADD14R,1.900000X3.700000*%
%ADD15R,2.424000X3.620000*%
%ADD16R,1.283000X2.700000*%
%ADD17O,0.230000X0.230000*%
%ADD18R,0.230000X0.680000*%
%ADD19R,0.800000X0.900000*%
%ADD20R,4.200000X1.500000*%
%ADD21R,2.440000X2.440000*%
%ADD22C,2.050000*%
%ADD23O,0.574000X2.038000*%
%ADD24R,2.700000X2.010000*%
%ADD25C,0.200000*%
%ADD26R,0.566000X0.540000*%
%ADD27R,1.350000X1.410000*%
%ADD28R,0.900000X0.800000*%
%ADD29R,0.368000X0.324000*%
G04 APERTURE END LIST*
D10*
%TO.C,C306*%
X62045000Y-92335000D03*
X65225000Y-92335000D03*
%TD*%
%TO.C,C311*%
X112845000Y-89335000D03*
X116025000Y-89335000D03*
%TD*%
%TO.C,C315*%
X112845000Y-109335000D03*
X116025000Y-109335000D03*
%TD*%
%TO.C,C309*%
X62045000Y-101335000D03*
X65225000Y-101335000D03*
%TD*%
D11*
%TO.C,FB201*%
X29765000Y-57435000D03*
X31705000Y-57435000D03*
%TD*%
D10*
%TO.C,C308*%
X62045000Y-98335000D03*
X65225000Y-98335000D03*
%TD*%
D12*
%TO.C,C206*%
X44435000Y-65745000D03*
X44435000Y-68925000D03*
%TD*%
D11*
%TO.C,R104*%
X42250000Y-78250000D03*
X44250000Y-78250000D03*
%TD*%
D13*
%TO.C,C201*%
X30315000Y-61035000D03*
X31155000Y-61035000D03*
%TD*%
D10*
%TO.C,C317*%
X119845000Y-79335000D03*
X123025000Y-79335000D03*
%TD*%
D14*
%TO.C,L101*%
X40291900Y-82280700D03*
X43891900Y-82280700D03*
%TD*%
D15*
%TO.C,L201*%
X53765000Y-47335000D03*
X47505000Y-47335000D03*
%TD*%
D10*
%TO.C,C312*%
X112845000Y-94335000D03*
X116025000Y-94335000D03*
%TD*%
%TO.C,C307*%
X62045000Y-95335000D03*
X65225000Y-95335000D03*
%TD*%
%TO.C,C322*%
X119845000Y-94335000D03*
X123025000Y-94335000D03*
%TD*%
D16*
%TO.C,R201*%
X25745000Y-50535000D03*
X30525000Y-50535000D03*
%TD*%
D10*
%TO.C,C304*%
X62045000Y-86335000D03*
X65225000Y-86335000D03*
%TD*%
%TO.C,C314*%
X112845000Y-104335000D03*
X116025000Y-104335000D03*
%TD*%
D17*
%TO.C,Q202*%
X36935000Y-66210000D03*
X36935000Y-66660000D03*
D18*
X37535000Y-66435000D03*
X38135000Y-66435000D03*
X38735000Y-66435000D03*
D17*
X39335000Y-66660000D03*
X39335000Y-66210000D03*
%TD*%
D10*
%TO.C,C103*%
X17045000Y-43335000D03*
X20225000Y-43335000D03*
%TD*%
D19*
%TO.C,C111*%
X46300000Y-77000000D03*
X47700000Y-77000000D03*
%TD*%
%TO.C,C107*%
X50685700Y-91691000D03*
X52085700Y-91691000D03*
%TD*%
D20*
%TO.C,C102*%
X17435000Y-92335000D03*
X25835000Y-92335000D03*
%TD*%
D12*
%TO.C,C203*%
X41635000Y-62925000D03*
X41635000Y-59745000D03*
%TD*%
D10*
%TO.C,C108*%
X43943900Y-93418500D03*
X47123900Y-93418500D03*
%TD*%
%TO.C,C104*%
X17045000Y-47335000D03*
X20225000Y-47335000D03*
%TD*%
D11*
%TO.C,R203*%
X33135000Y-62910000D03*
X35135000Y-62910000D03*
%TD*%
D10*
%TO.C,C321*%
X62045000Y-107335000D03*
X65225000Y-107335000D03*
%TD*%
D19*
%TO.C,C211*%
X36935000Y-51335000D03*
X38335000Y-51335000D03*
%TD*%
%TO.C,C213*%
X30035000Y-59435000D03*
X31435000Y-59435000D03*
%TD*%
%TO.C,C208*%
X41935000Y-42335000D03*
X43335000Y-42335000D03*
%TD*%
D11*
%TO.C,R204*%
X33135000Y-65310000D03*
X35135000Y-65310000D03*
%TD*%
D10*
%TO.C,C305*%
X62045000Y-89335000D03*
X65225000Y-89335000D03*
%TD*%
D21*
%TO.C,J301*%
X119275000Y-98675000D03*
X124595000Y-98675000D03*
X119275000Y-103995000D03*
X124595000Y-103995000D03*
D22*
X121935000Y-101335000D03*
%TD*%
D23*
%TO.C,U101*%
X48350000Y-88020000D03*
X49620000Y-88020000D03*
X50880000Y-88020000D03*
X52150000Y-88020000D03*
X52150000Y-82480000D03*
X50880000Y-82480000D03*
X49620000Y-82480000D03*
X48350000Y-82480000D03*
D24*
X50250000Y-85250000D03*
%TD*%
D10*
%TO.C,C303*%
X62045000Y-83335000D03*
X65225000Y-83335000D03*
%TD*%
D25*
%TO.C,U201*%
X31135000Y-63710000D03*
X31135000Y-64110000D03*
X30735000Y-63710000D03*
X30735000Y-64110000D03*
X30335000Y-63710000D03*
X30335000Y-64110000D03*
%TD*%
D17*
%TO.C,Q201*%
X36935000Y-62010000D03*
X36935000Y-62460000D03*
D18*
X37535000Y-62235000D03*
X38135000Y-62235000D03*
X38735000Y-62235000D03*
D17*
X39335000Y-62460000D03*
X39335000Y-62010000D03*
%TD*%
D10*
%TO.C,C318*%
X119845000Y-84335000D03*
X123025000Y-84335000D03*
%TD*%
D20*
%TO.C,C101*%
X17435000Y-66335000D03*
X25835000Y-66335000D03*
%TD*%
D10*
%TO.C,C313*%
X112845000Y-99335000D03*
X116025000Y-99335000D03*
%TD*%
D19*
%TO.C,C109*%
X43404100Y-87486900D03*
X44804100Y-87486900D03*
%TD*%
D10*
%TO.C,C301*%
X62045000Y-77335000D03*
X65225000Y-77335000D03*
%TD*%
D26*
%TO.C,R101*%
X46763000Y-79955000D03*
X47623000Y-79955000D03*
%TD*%
D19*
%TO.C,C207*%
X36935000Y-42335000D03*
X38335000Y-42335000D03*
%TD*%
D10*
%TO.C,C310*%
X112845000Y-84335000D03*
X116025000Y-84335000D03*
%TD*%
D19*
%TO.C,C209*%
X36935000Y-46835000D03*
X38335000Y-46835000D03*
%TD*%
D27*
%TO.C,C106*%
X51692300Y-79908400D03*
X51692300Y-77908400D03*
%TD*%
D16*
%TO.C,R202*%
X25745000Y-54335000D03*
X30525000Y-54335000D03*
%TD*%
D28*
%TO.C,C105*%
X48950100Y-90265500D03*
X48950100Y-91665500D03*
%TD*%
D12*
%TO.C,C205*%
X41635000Y-65745000D03*
X41635000Y-68925000D03*
%TD*%
D19*
%TO.C,C212*%
X41935000Y-51335000D03*
X43335000Y-51335000D03*
%TD*%
D28*
%TO.C,C110*%
X44000000Y-75950000D03*
X44000000Y-74550000D03*
%TD*%
D19*
%TO.C,C210*%
X41935000Y-46835000D03*
X43335000Y-46835000D03*
%TD*%
D26*
%TO.C,R102*%
X51437400Y-76077400D03*
X52297400Y-76077400D03*
%TD*%
D10*
%TO.C,C319*%
X119845000Y-89335000D03*
X123025000Y-89335000D03*
%TD*%
%TO.C,C316*%
X112845000Y-114335000D03*
X116025000Y-114335000D03*
%TD*%
D29*
%TO.C,C202*%
X30465000Y-62335000D03*
X31005000Y-62335000D03*
%TD*%
D12*
%TO.C,C204*%
X44435000Y-62925000D03*
X44435000Y-59745000D03*
%TD*%
D11*
%TO.C,R103*%
X54661600Y-80709200D03*
X56661600Y-80709200D03*
%TD*%
D10*
%TO.C,C320*%
X62045000Y-104335000D03*
X65225000Y-104335000D03*
%TD*%
%TO.C,C302*%
X62045000Y-80335000D03*
X65225000Y-80335000D03*
%TD*%
D15*
%TO.C,L202*%
X47505000Y-55835000D03*
X53765000Y-55835000D03*
%TD*%
D10*
%TO.C,C323*%
X119845000Y-109335000D03*
X123025000Y-109335000D03*
%TD*%
D11*
%TO.C,R205*%
X33135000Y-60610000D03*
X35135000Y-60610000D03*
%TD*%
%TO.C,R206*%
X33135000Y-67610000D03*
X35135000Y-67610000D03*
%TD*%
D21*
%TO.C,J201*%
X27975000Y-41675000D03*
X33295000Y-41675000D03*
X27975000Y-46995000D03*
X33295000Y-46995000D03*
D22*
X30635000Y-44335000D03*
%TD*%
M02*
