%TF.GenerationSoftware,KiCad,Pcbnew,10.0.3*%
%TF.CreationDate,2026-08-09T00:00:18-07:00*%
%TF.ProjectId,rf-de-20m,72662d64-652d-4323-906d-2e6b69636164,rev?*%
%TF.SameCoordinates,Original*%
%TF.FileFunction,Copper,L4,Bot*%
%TF.FilePolarity,Positive*%
%FSLAX46Y46*%
G04 Gerber Fmt 4.6, Leading zero omitted, Abs format (unit mm)*
G04 Created by KiCad (PCBNEW 10.0.3) date 2026-08-09 00:00:18*
%MOMM*%
%LPD*%
G01*
G04 APERTURE LIST*
G04 Aperture macros list*
%AMFreePoly0*
4,1,299,-17.979100,13.658700,-16.792900,13.553400,-15.624600,13.345700,-14.483000,13.037800,-13.376600,12.632800,-12.313600,12.134600,-11.301900,11.547600,-10.348800,10.876800,-9.461100,10.128100,-8.645300,9.307800,-7.906900,8.422600,-7.251000,7.479700,-6.682100,6.486800,-6.203900,5.451900,-5.819400,4.383200,-5.530800,3.289000,-5.339500,2.178000,-5.246400,1.058700,-5.251400,-0.060100,-5.353800,-1.170100,
-5.552000,-2.262700,-5.843700,-3.329700,-6.226100,-4.363200,-6.695500,-5.355500,-7.247600,-6.299300,-7.877700,-7.187900,-8.580200,-8.014700,-9.349300,-8.774100,-10.178500,-9.460600,-11.061100,-10.069700,-11.989800,-10.597200,-12.957200,-11.039800,-13.955600,-11.394800,-14.977100,-11.660100,-16.013800,-11.834400,-17.057400,-11.917100,-18.100100,-11.908300,-19.133800,-11.808900,-20.150600,-11.620200,-21.143100,-11.344600,
-22.103600,-10.984700,-23.025300,-10.544100,-23.901200,-10.026800,-24.725100,-9.437300,-25.491200,-8.780900,-26.194000,-8.063000,-26.828600,-7.289700,-27.390800,-6.467400,-27.876900,-5.602800,-28.283900,-4.702800,-28.609200,-3.774700,-28.851000,-2.825900,-29.008300,-1.863600,-29.080600,-0.895600,-29.068000,0.070900,-28.971400,1.028300,-28.792200,1.969500,-28.532500,2.887300,-28.195100,3.774900,-27.783200,4.625800,
-27.300600,5.433800,-26.751700,6.193100,-26.141300,6.898300,-25.474600,7.544500,-24.757200,8.127100,-23.995000,8.642500,-23.194400,9.087100,-22.361900,9.458300,-21.504100,9.753900,-20.627800,9.972200,-19.739900,10.112400,-18.847400,10.174100,-17.957200,10.157600,-17.076000,10.063700,-16.210600,9.893800,-15.367400,9.650100,-14.552700,9.335000,-13.772500,8.951700,-13.032500,8.503800,-12.337900,7.995300,
-11.693600,7.430800,-11.104200,6.815100,-10.573600,6.153500,-10.105200,5.451500,-9.702200,4.714900,-9.366800,3.949700,-9.101100,3.162100,-8.906400,2.358300,-8.783400,1.544800,-8.732400,0.727800,-8.750400,-0.031700,-11.249600,0.031700,-11.231900,0.681200,-11.269300,1.279500,-11.359500,1.876400,-11.502600,2.467200,-11.698300,3.047200,-11.945600,3.611800,-12.243500,4.156200,-12.590300,4.676100,
-12.983900,5.166800,-13.421800,5.624300,-13.901300,6.044500,-14.419200,6.423600,-14.971900,6.758200,-15.555500,7.044900,-16.165900,7.281000,-16.798800,7.464000,-17.449300,7.591700,-18.112800,7.662400,-18.784100,7.674900,-19.458200,7.628300,-20.129800,7.522300,-20.793700,7.356900,-21.444600,7.132700,-22.077200,6.850600,-22.686500,6.512300,-23.267300,6.119600,-23.814800,5.674900,-24.324400,5.181100,
-24.791600,4.641400,-25.212300,4.059500,-25.582700,3.439400,-25.899300,2.785400,-26.158900,2.102300,-26.359000,1.395100,-26.497300,0.668900,-26.572000,-0.070900,-26.581800,-0.818500,-26.525800,-1.568400,-26.403900,-2.314700,-26.216000,-3.051600,-25.963100,-3.773200,-25.646300,-4.473900,-25.267500,-5.147800,-24.828700,-5.789600,-24.332800,-6.393800,-23.783100,-6.955400,-23.183200,-7.469500,-22.537100,-7.931700,
-21.849500,-8.337800,-21.125200,-8.684100,-20.369500,-8.967300,-19.587800,-9.184400,-18.785900,-9.333200,-17.969900,-9.411700,-17.146000,-9.418600,-16.320300,-9.353200,-15.499300,-9.215200,-14.689500,-9.004900,-13.897100,-8.723200,-13.128500,-8.371600,-12.389900,-7.952100,-11.687300,-7.467200,-11.026500,-6.920100,-10.412900,-6.314400,-9.852000,-5.654200,-9.348400,-4.944000,-8.906600,-4.188900,-8.530700,-3.394200,
-8.224100,-2.565800,-7.990000,-1.709600,-7.830800,-0.832100,-7.748600,0.060100,-7.744500,0.960400,-7.819500,1.861800,-7.973600,2.757400,-8.206500,3.640200,-8.517000,4.503300,-8.903500,5.339800,-9.363700,6.143000,-9.894700,6.906500,-10.493100,7.623900,-11.154800,8.289300,-11.875400,8.897100,-12.649800,9.442000,-13.472400,9.919400,-14.337500,10.324900,-15.238600,10.654700,-16.169200,10.905700,
-17.122400,11.075300,-18.090900,11.161300,-19.067500,11.162300,-20.044600,11.077800,-21.014900,10.907500,-21.970600,10.652000,-22.904300,10.312600,-23.808700,9.891200,-24.676500,9.390200,-25.500800,8.813000,-26.274700,8.163300,-26.991900,7.445500,-27.646400,6.664600,-28.232700,5.826000,-28.745600,4.935700,-29.180700,4.000300,-29.533800,3.026400,-29.801600,2.021300,-29.981400,0.992600,-30.071100,-0.052200,
-30.069200,-1.105100,-29.975000,-2.158000,-29.788400,-3.202800,-29.510300,-4.231500,-29.142000,-5.235900,-28.685600,-6.208100,-28.143900,-7.140500,-27.520400,-8.025500,-26.819400,-8.855900,-26.045500,-9.624900,-25.204100,-10.326100,-24.301300,-10.953700,-23.343500,-11.502100,-22.337600,-11.966600,-21.291000,-12.343000,-20.211500,-12.627700,-19.107000,-12.817700,-17.986000,-12.911000,-16.856800,-12.906000,-15.728200,-12.802100,
-14.608800,-12.599300,-13.507300,-12.298500,-12.432200,-11.901200,-11.392100,-11.409800,-10.395200,-10.827300,-9.449500,-10.157600,-8.562600,-9.405100,-7.741800,-8.575100,-6.993900,-7.673400,-6.325100,-6.706300,-5.741200,-5.680900,-5.247200,-4.604600,-4.847700,-3.485300,-4.546300,-2.331300,-4.346000,-1.151100,-4.245900,0.100800,-4.000000,0.080905,-4.000000,1.250000,-1.400000,1.250000,-1.400000,4.000000,
1.400000,4.000000,1.400000,-4.000000,-1.400000,-4.000000,-1.400000,-1.250000,-1.848036,-1.250000,-1.865300,-1.461200,-2.102100,-2.856600,-2.458700,-4.221900,-2.931600,-5.546900,-3.516700,-6.821800,-4.208700,-8.037000,-5.001700,-9.183700,-5.889000,-10.253500,-6.863400,-11.238900,-7.916800,-12.132600,-9.040700,-12.928600,-10.226200,-13.621300,-11.463800,-14.206000,-12.743700,-14.679000,-14.056000,-15.037400,
-15.390300,-15.279200,-16.736400,-15.403100,-18.084000,-15.409000,-19.422700,-15.297700,-20.742500,-15.070600,-22.033200,-14.730300,-23.285400,-14.280000,-24.489600,-13.723900,-25.637000,-13.067000,-26.719200,-12.314800,-27.728300,-11.473700,-28.657200,-10.550700,-29.499200,-9.553400,-30.248500,-8.489800,-30.899900,-7.368500,-31.449200,-6.198500,-31.892800,-4.989000,-32.227900,-3.749500,-32.452900,-2.489600,-32.566600,-1.219100,
-32.568900,0.052200,-32.460600,1.314700,-32.243200,2.558700,-31.919100,3.774900,-31.491500,4.954200,-30.964400,6.087800,-30.342400,7.167300,-29.630900,8.185000,-28.836100,9.133400,-27.964400,10.005800,-27.023200,10.796000,-26.020000,11.498600,-24.962900,12.108800,-23.860500,12.622500,-22.721400,13.036600,-21.554500,13.348500,-20.369100,13.556600,-19.174200,13.660100,-17.979100,13.658700,-17.979100,13.658700,
$1*%
%AMFreePoly1*
4,1,443,-18.245300,13.923800,-17.036000,13.817600,-15.844700,13.606900,-14.680500,13.294100,-13.552100,12.882300,-12.467700,12.375300,-11.435400,11.777700,-10.462800,11.094700,-9.556700,10.332000,-8.723700,9.496100,-7.969600,8.593900,-7.299600,7.632800,-6.718200,6.620500,-6.229300,5.565100,-5.835800,4.475100,-5.540100,3.358900,-5.343700,2.225300,-5.247500,1.083200,-5.251400,-0.058800,-5.354600,-1.191800,
-5.555700,-2.307400,-5.852300,-3.397000,-6.241500,-4.452500,-6.719600,-5.466200,-7.282400,-6.430600,-7.924700,-7.338700,-8.641200,-8.184000,-9.425800,-8.960500,-10.272000,-9.662800,-11.172800,-10.286000,-12.121000,-10.826000,-13.108800,-11.279400,-14.128600,-11.643300,-15.172100,-11.915700,-16.231200,-12.095100,-17.297800,-12.181000,-18.363500,-12.173400,-19.420300,-12.073100,-20.460100,-11.881500,-21.475100,-11.601000,
-22.457800,-11.234400,-23.400800,-10.785000,-24.297300,-10.257200,-25.140800,-9.655400,-25.925300,-8.985000,-26.645200,-8.251700,-27.295600,-7.461400,-27.872000,-6.620900,-28.370600,-5.736900,-28.788400,-4.816500,-29.122700,-3.867100,-29.371600,-2.896200,-29.534100,-1.911500,-29.609500,-0.920500,-29.598100,0.069000,-29.500600,1.049500,-29.318600,2.013600,-29.054100,2.954000,-28.709900,3.863800,-28.289300,4.736100,
-27.796200,5.564700,-27.235000,6.343600,-26.610700,7.067200,-25.928500,7.730500,-25.194100,8.328900,-24.413800,8.858500,-23.593800,9.315700,-22.740900,9.697700,-21.861800,10.002300,-20.963500,10.227800,-20.053100,10.373100,-19.137800,10.438100,-18.224400,10.422700,-17.320200,10.328000,-16.431800,10.155300,-15.566000,9.906800,-14.729200,9.584900,-13.927600,9.193000,-13.167000,8.734600,-12.452800,8.213900,
-11.790100,7.635500,-11.183500,7.004400,-10.637000,6.325800,-10.154500,5.605600,-9.738800,4.849700,-9.392600,4.064100,-9.117800,3.255200,-8.915900,2.429500,-8.787700,1.593500,-8.733400,0.753600,-8.752800,-0.083500,-8.844900,-0.911500,-9.008300,-1.724200,-9.241100,-2.515300,-9.540600,-3.279100,-9.904100,-4.010000,-10.327900,-4.702600,-10.808200,-5.352000,-11.340800,-5.953800,-11.921000,-6.503600,
-12.543800,-6.997900,-13.204000,-7.433400,-13.896000,-7.807500,-14.614300,-8.117700,-15.353000,-8.362500,-16.106200,-8.540700,-16.868000,-8.651600,-17.632300,-8.695100,-18.393300,-8.671500,-19.145100,-8.581900,-19.882000,-8.427500,-20.598500,-8.210400,-21.289300,-7.932900,-21.949300,-7.597800,-22.573800,-7.208400,-23.158500,-6.768200,-23.699100,-6.281300,-24.192100,-5.751900,-24.634100,-5.184700,-25.022400,-4.584400,
-25.354600,-3.956200,-25.628800,-3.305000,-25.843500,-2.636400,-25.997700,-1.955600,-26.091000,-1.268000,-26.123500,-0.579200,-26.095500,0.105700,-26.008100,0.781200,-25.862600,1.442400,-25.660900,2.084200,-25.405200,2.701900,-25.098200,3.291100,-24.742900,3.847500,-24.342700,4.367100,-23.901200,4.846500,-23.422400,5.282500,-22.910600,5.672100,-22.370000,6.013000,-21.805300,6.303100,-21.221100,6.540900,
-20.622400,6.725200,-20.013900,6.855200,-19.400400,6.930700,-18.787000,6.951800,-18.178200,6.919100,-17.578800,6.833500,-16.993400,6.696500,-16.426300,6.509800,-15.881700,6.275500,-15.363600,5.996300,-14.875500,5.674700,-14.420900,5.314100,-14.003000,4.917700,-13.624300,4.489200,-13.287400,4.032300,-12.994300,3.551100,-12.746500,3.049700,-12.545500,2.532300,-12.392100,2.003200,-12.286700,1.466800,
-12.229500,0.927300,-12.220300,0.389000,-12.253200,-0.089000,-14.746800,0.089000,-14.719400,0.456100,-14.724800,0.773500,-14.758700,1.093400,-14.821400,1.413200,-14.913400,1.730300,-15.034400,2.042000,-15.184400,2.345600,-15.362700,2.638400,-15.568700,2.917800,-15.801300,3.181100,-16.059300,3.425800,-16.341200,3.649500,-16.645200,3.849800,-16.969400,4.024500,-17.311600,4.171800,-17.669400,4.289600,
-18.040400,4.376500,-18.421800,4.430900,-18.810700,4.451900,-19.204200,4.438400,-19.599200,4.389800,-19.992500,4.305800,-20.381000,4.186300,-20.761400,4.031500,-21.130500,3.841900,-21.485000,3.618300,-21.822000,3.361900,-22.138200,3.074000,-22.430700,2.756400,-22.696900,2.410900,-22.933900,2.039800,-23.139300,1.645500,-23.311000,1.230800,-23.446900,0.798600,-23.545200,0.352000,-23.604500,-0.105700,
-23.623500,-0.571000,-23.601400,-1.040500,-23.537700,-1.510400,-23.432000,-1.977100,-23.284400,-2.436700,-23.095500,-2.885500,-22.865900,-3.319800,-22.596900,-3.735700,-22.289700,-4.129900,-21.946400,-4.498600,-21.568800,-4.838700,-21.159500,-5.146900,-20.721100,-5.420300,-20.256700,-5.656100,-19.769500,-5.851900,-19.262900,-6.005400,-18.740700,-6.114800,-18.206700,-6.178500,-17.665000,-6.195300,-17.119600,-6.164300,
-16.574800,-6.085000,-16.035000,-5.957300,-15.504400,-5.781500,-14.987300,-5.558200,-14.488100,-5.288400,-14.010900,-4.973700,-13.559800,-4.615600,-13.138600,-4.216600,-12.751300,-3.779000,-12.401300,-3.305700,-12.091800,-2.800000,-11.825900,-2.265400,-11.606300,-1.705600,-11.435400,-1.124600,-11.315100,-0.526800,-11.247200,0.083500,-11.232900,0.701600,-11.273000,1.322900,-11.368000,1.942400,-11.517800,2.555300,
-11.722100,3.156800,-11.980000,3.742000,-12.290100,4.306100,-12.650800,4.844400,-13.059900,5.352300,-13.514700,5.825600,-14.012400,6.260100,-14.549700,6.651800,-15.122800,6.997200,-15.727700,7.293000,-16.360200,7.536200,-17.015500,7.724400,-17.689000,7.855300,-18.375600,7.927300,-19.070000,7.939000,-19.767100,7.889600,-20.461300,7.778700,-21.147300,7.606500,-21.819600,7.373600,-22.472800,7.081100,
-23.101700,6.730500,-23.701000,6.323800,-24.265700,5.863600,-24.791000,5.352900,-25.272400,4.795000,-25.705700,4.193600,-26.086900,3.553100,-26.412500,2.877800,-26.679300,2.172700,-26.884600,1.442900,-27.026000,0.693800,-27.101900,-0.069000,-27.110800,-0.839800,-27.052000,-1.612600,-26.925200,-2.381500,-26.730600,-3.140500,-26.469000,-3.883600,-26.141600,-4.604800,-25.750500,-5.298300,-25.297700,-5.958500,
-24.786400,-6.579900,-24.219700,-7.157200,-23.601500,-7.685500,-22.936000,-8.160300,-22.228000,-8.577200,-21.482400,-8.932500,-20.704600,-9.222700,-19.900400,-9.445000,-19.075600,-9.596900,-18.236500,-9.676600,-17.389400,-9.682700,-16.540800,-9.614400,-15.697300,-9.471500,-14.865300,-9.254400,-14.051500,-8.964000,-13.262300,-8.601800,-12.504200,-8.170000,-11.783100,-7.671100,-11.105200,-7.108500,-10.475900,-6.485800,
-9.900800,-5.807300,-9.384600,-5.077700,-8.932100,-4.302100,-8.547200,-3.486100,-8.233600,-2.635700,-7.994300,-1.757000,-7.832000,-0.856600,-7.748600,0.058800,-7.745500,0.982200,-7.823300,1.906500,-7.982300,2.824700,-8.222000,3.729600,-8.541300,4.614100,-8.938400,5.471200,-9.410900,6.294000,-9.955900,7.075800,-10.569800,7.810300,-11.248600,8.491400,-11.987400,9.113400,-12.781200,9.670900,
-13.624400,10.159000,-14.510700,10.573400,-15.433900,10.910400,-16.387100,11.166500,-17.363100,11.339100,-18.354700,11.426200,-19.354400,11.426400,-20.354500,11.338900,-21.347300,11.163700,-22.325100,10.901400,-23.280300,10.553200,-24.205300,10.121200,-25.092600,9.607900,-25.935200,9.016700,-26.726300,8.351400,-27.459200,7.616600,-28.127900,6.817400,-28.726600,5.959400,-29.250300,5.048700,-29.694300,4.091900,
-30.054500,3.096000,-30.327400,2.068400,-30.510300,1.016700,-30.601000,-0.051200,-30.598200,-1.127200,-30.501100,-2.203000,-30.309600,-3.270400,-30.024600,-4.321100,-29.647500,-5.347000,-29.180500,-6.339800,-28.626500,-7.291700,-27.989000,-8.195000,-27.272400,-9.042600,-26.481500,-9.827300,-25.621900,-10.542600,-24.699600,-11.182700,-23.721300,-11.741900,-22.694100,-12.215300,-21.625500,-12.598700,-20.523400,-12.888400,
-19.396000,-13.081600,-18.251900,-13.175900,-17.099600,-13.170000,-15.948100,-13.063200,-14.806100,-12.855500,-13.682500,-12.547800,-12.586000,-12.141700,-11.525400,-11.639700,-10.508900,-11.044800,-9.544800,-10.361100,-8.640900,-9.593100,-7.804400,-8.746100,-7.042300,-7.826100,-6.361100,-6.839500,-5.766400,-5.793600,-5.263500,-4.696000,-4.856900,-3.554600,-4.550400,-2.378100,-4.347100,-1.175000,-4.246000,0.100000,
-4.000000,0.080256,-4.000000,1.250000,-1.400000,1.250000,-1.400000,4.000000,1.400000,4.000000,1.400000,-4.000000,-1.400000,-4.000000,-1.400000,-1.250000,-1.847263,-1.250000,-1.866200,-1.483500,-2.105900,-2.901800,-2.467500,-4.289700,-2.947300,-5.636800,-3.541100,-6.933000,-4.243700,-8.168800,-5.049100,-9.335000,-5.950500,-10.423300,-6.940400,-11.425700,-8.010800,-12.335100,-9.153000,-13.145200,
-10.358000,-13.850300,-11.616000,-14.445800,-12.917200,-14.927800,-14.251500,-15.293200,-15.608400,-15.540000,-16.977400,-15.667000,-18.348100,-15.674100,-19.709900,-15.561800,-21.052600,-15.331800,-22.365900,-14.986500,-23.640200,-14.529400,-24.865800,-13.964500,-26.033700,-13.297000,-27.135400,-12.532400,-28.163000,-11.677300,-29.108900,-10.738800,-29.966600,-9.724500,-30.730000,-8.642600,-31.394000,-7.501900,-31.954000,-6.311400,
-32.406500,-5.080600,-32.748700,-3.819100,-32.978700,-2.536600,-33.095500,-1.243200,-33.099000,0.051200,-32.989700,1.336800,-32.769400,2.603700,-32.440400,3.842500,-32.005900,5.043800,-31.470000,6.198800,-30.837500,7.298900,-30.113700,8.336200,-29.304800,9.303000,-28.417600,10.192400,-27.459400,10.998400,-26.437900,11.715100,-25.361400,12.337800,-24.238500,12.862300,-23.078100,13.285300,-21.889200,13.604300,
-20.681200,13.817500,-19.463400,13.924000,-18.245300,13.923800,-18.245300,13.923800,$1*%
G04 Aperture macros list end*
%TA.AperFunction,ComponentPad*%
%ADD10C,0.600000*%
%TD*%
%TA.AperFunction,SMDPad,CuDef*%
%ADD11FreePoly0,180.000000*%
%TD*%
%TA.AperFunction,SMDPad,CuDef*%
%ADD12R,2.800000X8.000000*%
%TD*%
%TA.AperFunction,SMDPad,CuDef*%
%ADD13R,10.000000X2.500000*%
%TD*%
%TA.AperFunction,SMDPad,CuDef*%
%ADD14FreePoly1,180.000000*%
%TD*%
%TA.AperFunction,ComponentPad*%
%ADD15C,2.400000*%
%TD*%
%TA.AperFunction,SMDPad,CuDef*%
%ADD16R,19.150000X10.700000*%
%TD*%
%TA.AperFunction,SMDPad,CuDef*%
%ADD17R,19.150000X31.800000*%
%TD*%
%TA.AperFunction,SMDPad,CuDef*%
%ADD18R,2.900000X7.950000*%
%TD*%
%TA.AperFunction,SMDPad,CuDef*%
%ADD19R,2.900000X31.800000*%
%TD*%
%TA.AperFunction,SMDPad,CuDef*%
%ADD20R,8.350000X60.000000*%
%TD*%
%TA.AperFunction,ComponentPad*%
%ADD21C,0.610000*%
%TD*%
%TA.AperFunction,ViaPad*%
%ADD22C,0.600000*%
%TD*%
%TA.AperFunction,ViaPad*%
%ADD23C,0.450000*%
%TD*%
G04 APERTURE END LIST*
D10*
%TO.P,L302,1*%
%TO.N,/tank/TANK_B*%
X74350000Y-105235000D03*
X74350000Y-104135000D03*
X74350000Y-103035000D03*
X74350000Y-101935000D03*
X74350000Y-100835000D03*
X74350000Y-99735000D03*
X74350000Y-98635000D03*
D11*
X73600000Y-101935000D03*
D10*
X72850000Y-105235000D03*
X72850000Y-104135000D03*
X72850000Y-103035000D03*
X72850000Y-101935000D03*
X72850000Y-100835000D03*
X72850000Y-99735000D03*
X72850000Y-98635000D03*
%TO.P,L302,2*%
%TO.N,/tank/RFOUT*%
X110420000Y-105235000D03*
X110420000Y-104135000D03*
X110420000Y-103035000D03*
X110420000Y-101935000D03*
X110420000Y-100835000D03*
X110420000Y-99735000D03*
X110420000Y-98635000D03*
D12*
X109670000Y-101935000D03*
D10*
X108920000Y-105235000D03*
X108920000Y-104135000D03*
X108920000Y-103035000D03*
X108920000Y-101935000D03*
X108920000Y-100835000D03*
X108920000Y-99735000D03*
X108920000Y-98635000D03*
X91500000Y-102535000D03*
X91500000Y-101335000D03*
X90483300Y-102535000D03*
X90483300Y-101335000D03*
X89466700Y-102535000D03*
X89466700Y-101335000D03*
X88450000Y-102535000D03*
X88450000Y-101335000D03*
X87433300Y-102535000D03*
X87433300Y-101335000D03*
D13*
X87100000Y-101935000D03*
D10*
X86416700Y-102535000D03*
X86416700Y-101335000D03*
X85400000Y-102535000D03*
X85400000Y-101335000D03*
%TD*%
%TO.P,L301,1*%
%TO.N,/SW*%
X61085000Y-60235000D03*
X61085000Y-59135000D03*
X61085000Y-58035000D03*
X61085000Y-56935000D03*
X61085000Y-55835000D03*
X61085000Y-54735000D03*
X61085000Y-53635000D03*
D14*
X60335000Y-56935000D03*
D10*
X59585000Y-60235000D03*
X59585000Y-59135000D03*
X59585000Y-58035000D03*
X59585000Y-56935000D03*
X59585000Y-55835000D03*
X59585000Y-54735000D03*
X59585000Y-53635000D03*
%TO.P,L301,2*%
%TO.N,/tank/TANK_A*%
X97685000Y-60235000D03*
X97685000Y-59135000D03*
X97685000Y-58035000D03*
X97685000Y-56935000D03*
X97685000Y-55835000D03*
X97685000Y-54735000D03*
X97685000Y-53635000D03*
D12*
X96935000Y-56935000D03*
D10*
X96185000Y-60235000D03*
X96185000Y-59135000D03*
X96185000Y-58035000D03*
X96185000Y-56935000D03*
X96185000Y-55835000D03*
X96185000Y-54735000D03*
X96185000Y-53635000D03*
X81735000Y-57535000D03*
X81735000Y-56335000D03*
X80718300Y-57535000D03*
X80718300Y-56335000D03*
X79701700Y-57535000D03*
X79701700Y-56335000D03*
X78685000Y-57535000D03*
X78685000Y-56335000D03*
X77668300Y-57535000D03*
X77668300Y-56335000D03*
D13*
X77335000Y-56935000D03*
D10*
X76651700Y-57535000D03*
X76651700Y-56335000D03*
X75635000Y-57535000D03*
X75635000Y-56335000D03*
%TD*%
D15*
%TO.P,J101,1*%
%TO.N,+40V*%
X10335000Y-76795000D03*
%TO.P,J101,2*%
%TO.N,GND*%
X10335000Y-81875000D03*
%TD*%
D16*
%TO.P,HS1,1*%
%TO.N,GND*%
X21809999Y-54684999D03*
D17*
X21809999Y-93434999D03*
D18*
X32834999Y-56059999D03*
D19*
X32834999Y-93434999D03*
D20*
X38459999Y-79334999D03*
%TD*%
D21*
%TO.P,U101,9*%
%TO.N,GND*%
X49400000Y-84600000D03*
X49400000Y-85900000D03*
X51100000Y-84600000D03*
X51100000Y-85900000D03*
%TD*%
D22*
%TO.N,GND*%
X36285000Y-64835000D03*
X111863000Y-63191000D03*
X39056000Y-84604000D03*
X120428000Y-58908000D03*
X27035000Y-92335000D03*
X116146000Y-71756000D03*
X116146000Y-67473000D03*
X20232500Y-47221000D03*
X40185000Y-61235000D03*
X34773000Y-80322000D03*
X30491000Y-93170000D03*
X124711000Y-50342000D03*
X36285000Y-64035000D03*
X124711000Y-101735000D03*
X41985000Y-68485000D03*
X30491000Y-88887000D03*
X34135000Y-61285000D03*
X36585000Y-59785000D03*
X47622000Y-67473000D03*
X34135000Y-63085000D03*
X26208000Y-88887000D03*
X124711000Y-76039000D03*
X34135000Y-60485000D03*
X38135000Y-59185000D03*
X107580000Y-58908000D03*
X116146000Y-84604000D03*
X116146000Y-54625000D03*
X39035000Y-69535000D03*
X34773000Y-88887000D03*
X41685000Y-60185000D03*
X124711000Y-67473000D03*
X116146000Y-58908000D03*
X26208000Y-41777000D03*
X24635000Y-66335000D03*
X103297000Y-67473000D03*
X103297000Y-63191000D03*
X26208000Y-84604000D03*
X124711000Y-97453000D03*
X47622000Y-84604000D03*
X111863000Y-54625000D03*
X107580000Y-84604000D03*
X40185000Y-59785000D03*
X34785000Y-66435000D03*
X116146000Y-50342000D03*
X38335000Y-42285000D03*
X26208000Y-46060000D03*
X116146000Y-63191000D03*
X30491000Y-50342000D03*
X43339000Y-88887000D03*
X41685000Y-59335000D03*
X116146000Y-88887000D03*
X124711000Y-84604000D03*
X39685000Y-68835000D03*
X39056000Y-93170000D03*
X42485000Y-60135000D03*
X34773000Y-93170000D03*
X47622000Y-76039000D03*
X103297000Y-41777000D03*
X103297000Y-46060000D03*
X107580000Y-50342000D03*
X35485000Y-64035000D03*
X32051100Y-62587100D03*
X38935000Y-67885000D03*
X120428000Y-71756000D03*
X120428000Y-41777000D03*
X103297000Y-76039000D03*
X30491000Y-41777000D03*
X107580000Y-54625000D03*
X42085000Y-69285000D03*
X103297000Y-80322000D03*
X107580000Y-63191000D03*
X25835000Y-66335000D03*
X38685000Y-59785000D03*
X24635000Y-92335000D03*
X43335000Y-42285000D03*
X116146000Y-110301000D03*
X39435000Y-59185000D03*
X107580000Y-80322000D03*
X120428000Y-63191000D03*
X34135000Y-67735000D03*
X38335000Y-51285000D03*
X43335000Y-51285000D03*
X116146000Y-46060000D03*
X40185000Y-67435000D03*
X26208000Y-80322000D03*
X37635000Y-60735000D03*
X47622000Y-93170000D03*
X34185000Y-69485000D03*
X103297000Y-71756000D03*
X40985000Y-59735000D03*
X111863000Y-67473000D03*
X120428000Y-67473000D03*
X30491000Y-84604000D03*
X34985000Y-69485000D03*
X38335000Y-46785000D03*
X99015000Y-41777000D03*
X38185000Y-68835000D03*
X34685000Y-64035000D03*
X30491000Y-46060000D03*
X36585000Y-61135000D03*
X36235000Y-68285000D03*
X31240300Y-60174300D03*
X35835000Y-59485000D03*
X35285000Y-68735000D03*
X124711000Y-71756000D03*
X34485000Y-68735000D03*
X124595000Y-103995000D03*
X40585000Y-60485000D03*
X124711000Y-54625000D03*
X41185000Y-68485000D03*
X111863000Y-41777000D03*
X30491000Y-76039000D03*
X37585000Y-67935000D03*
X120428000Y-97453000D03*
X36285000Y-63235000D03*
X120428000Y-54625000D03*
X37585000Y-59785000D03*
X27035000Y-66335000D03*
X37485000Y-69535000D03*
X116146000Y-114584000D03*
X36585000Y-67535000D03*
X36035000Y-69085000D03*
X124711000Y-93170000D03*
X41285000Y-69285000D03*
X124711000Y-58908000D03*
X43339000Y-84604000D03*
X103297000Y-50342000D03*
X33295000Y-46995000D03*
X107580000Y-76039000D03*
X111863000Y-50342000D03*
X116146000Y-93170000D03*
X39135000Y-60785000D03*
X34135000Y-65935000D03*
X120428000Y-46060000D03*
X124711000Y-46060000D03*
X30777100Y-63315000D03*
X25835000Y-92335000D03*
X26208000Y-76039000D03*
X34335000Y-59585000D03*
X34135000Y-62285000D03*
X39056000Y-76039000D03*
X30491000Y-80322000D03*
X36835000Y-68835000D03*
X107580000Y-46060000D03*
D23*
X30085000Y-64135000D03*
D22*
X116146000Y-41777000D03*
X107580000Y-41777000D03*
X107580000Y-88887000D03*
X107580000Y-67473000D03*
X124711000Y-80322000D03*
X43335000Y-46785000D03*
X30491000Y-54625000D03*
X34773000Y-76039000D03*
X51904000Y-93170000D03*
X39056000Y-88887000D03*
X34135000Y-64685000D03*
X107580000Y-71756000D03*
X40535000Y-68985000D03*
X34773000Y-58908000D03*
X111863000Y-46060000D03*
X111863000Y-71756000D03*
X26208000Y-58908000D03*
X34785000Y-61785000D03*
X20232500Y-43221000D03*
X124711000Y-110301000D03*
X34773000Y-84604000D03*
X120428000Y-50342000D03*
X34135000Y-66935000D03*
X124711000Y-88887000D03*
X103297000Y-84604000D03*
X111863000Y-58908000D03*
X124711000Y-63191000D03*
X116146000Y-97453000D03*
X26208000Y-63191000D03*
X40235000Y-68235000D03*
X51904000Y-84604000D03*
D23*
%TO.N,+5V*%
X25885000Y-69568000D03*
X30867000Y-74550000D03*
%TO.N,+5V_DRV*%
X29900000Y-62400000D03*
X29700000Y-61100000D03*
D22*
%TO.N,+40V*%
X55835000Y-49335000D03*
X50435000Y-51135000D03*
X52235000Y-50235000D03*
X56735000Y-46635000D03*
X51335000Y-46635000D03*
X51335000Y-71535000D03*
X51335000Y-51135000D03*
X52235000Y-71535000D03*
X55835000Y-71535000D03*
X49535000Y-70635000D03*
X52235000Y-51135000D03*
X53135000Y-50235000D03*
X54935000Y-71535000D03*
X50435000Y-52035000D03*
X51335000Y-47535000D03*
X53135000Y-70635000D03*
X50435000Y-49335000D03*
X50435000Y-48435000D03*
X52235000Y-70635000D03*
X54035000Y-71535000D03*
X49535000Y-69735000D03*
X52235000Y-52035000D03*
X54935000Y-50235000D03*
X55835000Y-47535000D03*
X56735000Y-49335000D03*
X51335000Y-49335000D03*
X55835000Y-48435000D03*
X53135000Y-51135000D03*
X56735000Y-47535000D03*
X54035000Y-70635000D03*
X50435000Y-70635000D03*
X55835000Y-70635000D03*
X54935000Y-70635000D03*
X55835000Y-50235000D03*
X51335000Y-48435000D03*
X55835000Y-46635000D03*
X51335000Y-50235000D03*
X50435000Y-50235000D03*
X56735000Y-48435000D03*
X50435000Y-46635000D03*
X54035000Y-50235000D03*
X51335000Y-52035000D03*
X50435000Y-47535000D03*
X53135000Y-71535000D03*
X50435000Y-71535000D03*
X51335000Y-70635000D03*
D23*
%TO.N,/stage/DRIVE*%
X29850000Y-63200000D03*
X32200000Y-60800000D03*
%TO.N,/hk/BST*%
X52900000Y-83770000D03*
X52900000Y-90600000D03*
%TD*%
%TA.AperFunction,Conductor*%
%TO.N,GND*%
G36*
X62212004Y-69340023D02*
G01*
X62234199Y-69346540D01*
X62245178Y-69352748D01*
X62254107Y-69354305D01*
X62283218Y-69374261D01*
X62285380Y-69376250D01*
X62299797Y-69392013D01*
X62311674Y-69407489D01*
X62664700Y-69867500D01*
X63363400Y-70685600D01*
X64104000Y-71466000D01*
X64884400Y-72206600D01*
X65702500Y-72905300D01*
X66556000Y-73560300D01*
X66556018Y-73560313D01*
X66556024Y-73560318D01*
X67432197Y-74162482D01*
X67442685Y-74169690D01*
X67442700Y-74169700D01*
X68360000Y-74731800D01*
X69305500Y-75245200D01*
X70276600Y-75708400D01*
X71270500Y-76120100D01*
X71270507Y-76120102D01*
X71270518Y-76120107D01*
X71843482Y-76322977D01*
X72284677Y-76479192D01*
X72284700Y-76479200D01*
X73316300Y-76784800D01*
X73316314Y-76784803D01*
X73316323Y-76784806D01*
X73913323Y-76928106D01*
X74361925Y-77035786D01*
X74362339Y-77035887D01*
X74362382Y-77035895D01*
X74362400Y-77035900D01*
X74362406Y-77035901D01*
X74362414Y-77035903D01*
X74362463Y-77035912D01*
X74362779Y-77035976D01*
X74363396Y-77036085D01*
X74725232Y-77103157D01*
X75420300Y-77232000D01*
X75420311Y-77232001D01*
X75420314Y-77232002D01*
X75422170Y-77232246D01*
X75422395Y-77232284D01*
X75422767Y-77232325D01*
X75665460Y-77264271D01*
X76486900Y-77372400D01*
X76486899Y-77372400D01*
X76540488Y-77376616D01*
X77559500Y-77456800D01*
X77559533Y-77456800D01*
X77559536Y-77456801D01*
X77561286Y-77456846D01*
X77561288Y-77456847D01*
X78634970Y-77485000D01*
X78635015Y-77485000D01*
X78635030Y-77485000D01*
X79708868Y-77456843D01*
X79711303Y-77456779D01*
X79711312Y-77456779D01*
X79726026Y-77456393D01*
X79730866Y-77455197D01*
X80783100Y-77372400D01*
X81847231Y-77232325D01*
X81849685Y-77232002D01*
X81849685Y-77232001D01*
X81849700Y-77232000D01*
X82710885Y-77072364D01*
X82907585Y-77035903D01*
X82907589Y-77035902D01*
X82907600Y-77035900D01*
X82907636Y-77035891D01*
X82907685Y-77035881D01*
X82908021Y-77035798D01*
X83655711Y-76856327D01*
X83953676Y-76784806D01*
X83953679Y-76784804D01*
X83953683Y-76784803D01*
X83953700Y-76784800D01*
X83953711Y-76784796D01*
X83954122Y-76784698D01*
X83954123Y-76784698D01*
X83954140Y-76784694D01*
X83955055Y-76784474D01*
X83957292Y-76783735D01*
X84985300Y-76479200D01*
X85999500Y-76120100D01*
X86993400Y-75708400D01*
X87964500Y-75245200D01*
X88910000Y-74731800D01*
X89827300Y-74169700D01*
X90714000Y-73560300D01*
X91567500Y-72905300D01*
X92385600Y-72206600D01*
X93166000Y-71466000D01*
X93906600Y-70685600D01*
X94605300Y-69867500D01*
X94965880Y-69397645D01*
X94991126Y-69372996D01*
X95009815Y-69359351D01*
X95061651Y-69337343D01*
X95064547Y-69336838D01*
X95074966Y-69335938D01*
X95075566Y-69335723D01*
X95076082Y-69335841D01*
X95085822Y-69335000D01*
X100511000Y-69335000D01*
X100578039Y-69354685D01*
X100623794Y-69407489D01*
X100635000Y-69459000D01*
X100635000Y-83564580D01*
X100615315Y-83631619D01*
X100562511Y-83677374D01*
X100493353Y-83687318D01*
X100457615Y-83676500D01*
X100136532Y-83523345D01*
X99886696Y-83404175D01*
X99886684Y-83404169D01*
X99885686Y-83403692D01*
X99885045Y-83403427D01*
X99885043Y-83403425D01*
X98908571Y-82998986D01*
X98908568Y-82998985D01*
X98904340Y-82997233D01*
X98903413Y-82996915D01*
X97903380Y-82642793D01*
X96885094Y-82341198D01*
X96723180Y-82302327D01*
X96584250Y-82268974D01*
X96584248Y-82268973D01*
X96131035Y-82160169D01*
X95852500Y-82093300D01*
X95852482Y-82093296D01*
X95852471Y-82093294D01*
X95852394Y-82093277D01*
X95851941Y-82093195D01*
X94808355Y-81899708D01*
X94808245Y-81899691D01*
X93755445Y-81761105D01*
X93755423Y-81761102D01*
X93755419Y-81761102D01*
X93755374Y-81761097D01*
X93755373Y-81761096D01*
X93755356Y-81761095D01*
X92696610Y-81677800D01*
X91811934Y-81654633D01*
X91635000Y-81650000D01*
X91634999Y-81650000D01*
X90575001Y-81677758D01*
X90574209Y-81677768D01*
X90573376Y-81677800D01*
X89514642Y-81761095D01*
X89514553Y-81761105D01*
X88461753Y-81899691D01*
X88461643Y-81899708D01*
X87417558Y-82093288D01*
X87417506Y-82093298D01*
X86943899Y-82206999D01*
X86384904Y-82341198D01*
X85366610Y-82642796D01*
X84365488Y-82997304D01*
X83384327Y-83403686D01*
X83383947Y-83403860D01*
X83383286Y-83404183D01*
X82920606Y-83624879D01*
X82425772Y-83860913D01*
X82425765Y-83860916D01*
X82425747Y-83860925D01*
X81492516Y-84367689D01*
X81492424Y-84367743D01*
X81492047Y-84367977D01*
X80587006Y-84922595D01*
X79711808Y-85524094D01*
X78869192Y-86170606D01*
X78061680Y-86860316D01*
X77610236Y-87288673D01*
X77610235Y-87288675D01*
X77581436Y-87309078D01*
X77557489Y-87321351D01*
X77500933Y-87335000D01*
X55759000Y-87335000D01*
X55691961Y-87315315D01*
X55646206Y-87262511D01*
X55635000Y-87211000D01*
X55635000Y-72964500D01*
X55654685Y-72897461D01*
X55707489Y-72851706D01*
X55759000Y-72840500D01*
X57810990Y-72840500D01*
X57811000Y-72840500D01*
X57918456Y-72828947D01*
X57969967Y-72817741D01*
X58004197Y-72806347D01*
X58072497Y-72783616D01*
X58072501Y-72783613D01*
X58072504Y-72783613D01*
X58193543Y-72705825D01*
X58246347Y-72660070D01*
X58340567Y-72551336D01*
X58400338Y-72420459D01*
X58420023Y-72353420D01*
X58420024Y-72353416D01*
X58440500Y-72211000D01*
X58440500Y-69459000D01*
X58460185Y-69391961D01*
X58512989Y-69346206D01*
X58564500Y-69335000D01*
X62177069Y-69335000D01*
X62212004Y-69340023D01*
G37*
%TD.AperFunction*%
%TD*%
%TA.AperFunction,Conductor*%
%TO.N,GND*%
G36*
X126277538Y-39655184D02*
G01*
X126323293Y-39707988D01*
X126334499Y-39759499D01*
X126334499Y-118910499D01*
X126314814Y-118977538D01*
X126262010Y-119023293D01*
X126210499Y-119034499D01*
X102955618Y-119034499D01*
X102888579Y-119014814D01*
X102842824Y-118962010D01*
X102832880Y-118892852D01*
X102861905Y-118829296D01*
X102885384Y-118808307D01*
X103558200Y-118345900D01*
X104400800Y-117699400D01*
X105208300Y-117009700D01*
X105978700Y-116278700D01*
X106040366Y-116213710D01*
X121784499Y-116213710D01*
X121784499Y-116456287D01*
X121816160Y-116696784D01*
X121878946Y-116931103D01*
X121971772Y-117155204D01*
X121971775Y-117155211D01*
X122093063Y-117365288D01*
X122093065Y-117365291D01*
X122093066Y-117365292D01*
X122240732Y-117557735D01*
X122240738Y-117557742D01*
X122412255Y-117729259D01*
X122412261Y-117729264D01*
X122604710Y-117876935D01*
X122814787Y-117998223D01*
X123038899Y-118091053D01*
X123273210Y-118153837D01*
X123453585Y-118177583D01*
X123513710Y-118185499D01*
X123513711Y-118185499D01*
X123756288Y-118185499D01*
X123804387Y-118179166D01*
X123996788Y-118153837D01*
X124231099Y-118091053D01*
X124455211Y-117998223D01*
X124665288Y-117876935D01*
X124857737Y-117729264D01*
X125029264Y-117557737D01*
X125176935Y-117365288D01*
X125298223Y-117155211D01*
X125391053Y-116931099D01*
X125453837Y-116696788D01*
X125485499Y-116456287D01*
X125485499Y-116213711D01*
X125453837Y-115973210D01*
X125391053Y-115738899D01*
X125298223Y-115514787D01*
X125176935Y-115304710D01*
X125029264Y-115112261D01*
X125029259Y-115112255D01*
X124857742Y-114940738D01*
X124857735Y-114940732D01*
X124665292Y-114793066D01*
X124665291Y-114793065D01*
X124665288Y-114793063D01*
X124455211Y-114671775D01*
X124455204Y-114671772D01*
X124231103Y-114578946D01*
X123996784Y-114516160D01*
X123756288Y-114484499D01*
X123756287Y-114484499D01*
X123513711Y-114484499D01*
X123513710Y-114484499D01*
X123273213Y-114516160D01*
X123038894Y-114578946D01*
X122814793Y-114671772D01*
X122814784Y-114671776D01*
X122604705Y-114793066D01*
X122412262Y-114940732D01*
X122412255Y-114940738D01*
X122240738Y-115112255D01*
X122240732Y-115112262D01*
X122093066Y-115304705D01*
X121971776Y-115514784D01*
X121971772Y-115514793D01*
X121878946Y-115738894D01*
X121816160Y-115973213D01*
X121784499Y-116213710D01*
X106040366Y-116213710D01*
X106709700Y-115508300D01*
X107399400Y-114700800D01*
X108045900Y-113858200D01*
X108647400Y-112983000D01*
X109202300Y-112077500D01*
X109492614Y-111542869D01*
X109709086Y-111144227D01*
X109709090Y-111144216D01*
X109709100Y-111144200D01*
X110166300Y-110185700D01*
X110572700Y-109204500D01*
X110927200Y-108203400D01*
X111228800Y-107185100D01*
X111332938Y-106751318D01*
X111367727Y-106690729D01*
X111412560Y-106663224D01*
X111419522Y-106660789D01*
X111572262Y-106564816D01*
X111699816Y-106437262D01*
X111795789Y-106284522D01*
X111855368Y-106114255D01*
X111870500Y-105979954D01*
X111870500Y-103277291D01*
X111870882Y-103267566D01*
X111892199Y-102996609D01*
X111892200Y-102996600D01*
X111920000Y-101935000D01*
X111892200Y-100873400D01*
X111870882Y-100602432D01*
X111870500Y-100592707D01*
X111870500Y-97890043D01*
X111870499Y-97890039D01*
X111855369Y-97755750D01*
X111855368Y-97755745D01*
X111795788Y-97585476D01*
X111699815Y-97432737D01*
X111572262Y-97305184D01*
X111419518Y-97209208D01*
X111412553Y-97206771D01*
X111355778Y-97166048D01*
X111332938Y-97118679D01*
X111228800Y-96684900D01*
X110927200Y-95666600D01*
X110572700Y-94665500D01*
X110423534Y-94305360D01*
X110166310Y-93684322D01*
X110166303Y-93684308D01*
X110166300Y-93684300D01*
X109709100Y-92725800D01*
X109709094Y-92725790D01*
X109709086Y-92725772D01*
X109202304Y-91792508D01*
X109202300Y-91792500D01*
X108647400Y-90887000D01*
X108045900Y-90011800D01*
X107399400Y-89169200D01*
X106709700Y-88361700D01*
X106709691Y-88361690D01*
X105978700Y-87591299D01*
X105208309Y-86860308D01*
X105208300Y-86860300D01*
X104400800Y-86170600D01*
X103558200Y-85524100D01*
X102683000Y-84922600D01*
X101777500Y-84367700D01*
X101777491Y-84367695D01*
X100844227Y-83860913D01*
X100844200Y-83860900D01*
X100635000Y-83761112D01*
X100635000Y-69335000D01*
X98635000Y-69335000D01*
X98635000Y-61760437D01*
X98654685Y-61693398D01*
X98693024Y-61655446D01*
X98837262Y-61564816D01*
X98964816Y-61437262D01*
X99060789Y-61284522D01*
X99120368Y-61114255D01*
X99135500Y-60979954D01*
X99135500Y-58286063D01*
X99135882Y-58276336D01*
X99156799Y-58010508D01*
X99156800Y-58010500D01*
X99185000Y-56935000D01*
X99156800Y-55859500D01*
X99135882Y-55593662D01*
X99135500Y-55583935D01*
X99135500Y-52890043D01*
X99135499Y-52890039D01*
X99120369Y-52755750D01*
X99120368Y-52755745D01*
X99060788Y-52585476D01*
X98964815Y-52432737D01*
X98837260Y-52305182D01*
X98693027Y-52214554D01*
X98646737Y-52162220D01*
X98635000Y-52109561D01*
X98635000Y-42213710D01*
X121784499Y-42213710D01*
X121784499Y-42456287D01*
X121816160Y-42696784D01*
X121878946Y-42931103D01*
X121971772Y-43155204D01*
X121971775Y-43155211D01*
X122093063Y-43365288D01*
X122093065Y-43365291D01*
X122093066Y-43365292D01*
X122240732Y-43557735D01*
X122240738Y-43557742D01*
X122412255Y-43729259D01*
X122412261Y-43729264D01*
X122604710Y-43876935D01*
X122814787Y-43998223D01*
X123038899Y-44091053D01*
X123273210Y-44153837D01*
X123453585Y-44177583D01*
X123513710Y-44185499D01*
X123513711Y-44185499D01*
X123756288Y-44185499D01*
X123804387Y-44179166D01*
X123996788Y-44153837D01*
X124231099Y-44091053D01*
X124455211Y-43998223D01*
X124665288Y-43876935D01*
X124857737Y-43729264D01*
X125029264Y-43557737D01*
X125176935Y-43365288D01*
X125298223Y-43155211D01*
X125391053Y-42931099D01*
X125453837Y-42696788D01*
X125485499Y-42456287D01*
X125485499Y-42213711D01*
X125453837Y-41973210D01*
X125391053Y-41738899D01*
X125298223Y-41514787D01*
X125176935Y-41304710D01*
X125029264Y-41112261D01*
X125029259Y-41112255D01*
X124857742Y-40940738D01*
X124857735Y-40940732D01*
X124665292Y-40793066D01*
X124665291Y-40793065D01*
X124665288Y-40793063D01*
X124455211Y-40671775D01*
X124455204Y-40671772D01*
X124231103Y-40578946D01*
X123996784Y-40516160D01*
X123756288Y-40484499D01*
X123756287Y-40484499D01*
X123513711Y-40484499D01*
X123513710Y-40484499D01*
X123273213Y-40516160D01*
X123038894Y-40578946D01*
X122814793Y-40671772D01*
X122814784Y-40671776D01*
X122604705Y-40793066D01*
X122412262Y-40940732D01*
X122412255Y-40940738D01*
X122240738Y-41112255D01*
X122240732Y-41112262D01*
X122093066Y-41304705D01*
X121971776Y-41514784D01*
X121971772Y-41514793D01*
X121878946Y-41738894D01*
X121816160Y-41973213D01*
X121784499Y-42213710D01*
X98635000Y-42213710D01*
X98635000Y-39759499D01*
X98654685Y-39692460D01*
X98707489Y-39646705D01*
X98759000Y-39635499D01*
X126210499Y-39635499D01*
X126277538Y-39655184D01*
G37*
%TD.AperFunction*%
%TD*%
%TA.AperFunction,Conductor*%
%TO.N,GND*%
G36*
X57528106Y-39640522D02*
G01*
X57543104Y-39644926D01*
X57558094Y-39654556D01*
X57575175Y-39659566D01*
X57601855Y-39682671D01*
X57603042Y-39684040D01*
X57630518Y-39738901D01*
X57632163Y-39746459D01*
X57635000Y-39772830D01*
X57635000Y-44705500D01*
X57615315Y-44772539D01*
X57562511Y-44818294D01*
X57511000Y-44829500D01*
X49259000Y-44829500D01*
X49258991Y-44829500D01*
X49258990Y-44829501D01*
X49151549Y-44841052D01*
X49151537Y-44841054D01*
X49100027Y-44852260D01*
X48997502Y-44886383D01*
X48997496Y-44886386D01*
X48876462Y-44964171D01*
X48876451Y-44964179D01*
X48823659Y-45009923D01*
X48729433Y-45118664D01*
X48729430Y-45118668D01*
X48669664Y-45249534D01*
X48669662Y-45249541D01*
X48649977Y-45316580D01*
X48649976Y-45316584D01*
X48629500Y-45459000D01*
X48629500Y-72211000D01*
X48629501Y-72211009D01*
X48641052Y-72318450D01*
X48641054Y-72318462D01*
X48652260Y-72369972D01*
X48686383Y-72472497D01*
X48686386Y-72472503D01*
X48764171Y-72593537D01*
X48764179Y-72593548D01*
X48809923Y-72646340D01*
X48809926Y-72646343D01*
X48809930Y-72646347D01*
X48918664Y-72740567D01*
X49049541Y-72800338D01*
X49116580Y-72820023D01*
X49116584Y-72820024D01*
X49259000Y-72840500D01*
X55635000Y-72840500D01*
X55635000Y-87335000D01*
X57635000Y-87335000D01*
X57635000Y-118892669D01*
X57634999Y-118892675D01*
X57635000Y-118892678D01*
X57629975Y-118927613D01*
X57625570Y-118942611D01*
X57587827Y-119001354D01*
X57587792Y-119001384D01*
X57587791Y-119001386D01*
X57587789Y-119001386D01*
X57586458Y-119002541D01*
X57531597Y-119030017D01*
X57524039Y-119031662D01*
X57497668Y-119034499D01*
X7077329Y-119034499D01*
X7077324Y-119034498D01*
X7077322Y-119034499D01*
X7042388Y-119029474D01*
X7027389Y-119025069D01*
X6968643Y-118987326D01*
X6968614Y-118987292D01*
X6968613Y-118987292D01*
X6968612Y-118987290D01*
X6967456Y-118985957D01*
X6939976Y-118931082D01*
X6938331Y-118923520D01*
X6935499Y-118897167D01*
X6935499Y-116213709D01*
X7784499Y-116213709D01*
X7784499Y-116456287D01*
X7816159Y-116696780D01*
X7878946Y-116931103D01*
X7971771Y-117155202D01*
X7971772Y-117155206D01*
X7971779Y-117155219D01*
X8093059Y-117365282D01*
X8093061Y-117365285D01*
X8093280Y-117365614D01*
X8094283Y-117366878D01*
X8240725Y-117557727D01*
X8240729Y-117557732D01*
X8240732Y-117557735D01*
X8240738Y-117557742D01*
X8240746Y-117557750D01*
X8412241Y-117729246D01*
X8412255Y-117729259D01*
X8412261Y-117729264D01*
X8604710Y-117876935D01*
X8814787Y-117998223D01*
X9038899Y-118091053D01*
X9273210Y-118153837D01*
X9453585Y-118177583D01*
X9513709Y-118185499D01*
X9513710Y-118185499D01*
X9513711Y-118185499D01*
X9756282Y-118185499D01*
X9756288Y-118185499D01*
X9804387Y-118179166D01*
X9996788Y-118153837D01*
X10231099Y-118091053D01*
X10455211Y-117998223D01*
X10665288Y-117876935D01*
X10857737Y-117729264D01*
X11029264Y-117557737D01*
X11176935Y-117365288D01*
X11298223Y-117155211D01*
X11391053Y-116931099D01*
X11453837Y-116696788D01*
X11485499Y-116456287D01*
X11485499Y-116213711D01*
X11453837Y-115973210D01*
X11391053Y-115738899D01*
X11298223Y-115514787D01*
X11176935Y-115304710D01*
X11029264Y-115112261D01*
X11029259Y-115112255D01*
X11029258Y-115112254D01*
X11029246Y-115112241D01*
X10857750Y-114940746D01*
X10857742Y-114940738D01*
X10857735Y-114940732D01*
X10857732Y-114940729D01*
X10857727Y-114940725D01*
X10666878Y-114794283D01*
X10665614Y-114793280D01*
X10665285Y-114793061D01*
X10665282Y-114793059D01*
X10455219Y-114671779D01*
X10455206Y-114671772D01*
X10455202Y-114671771D01*
X10231103Y-114578946D01*
X9996780Y-114516159D01*
X9756289Y-114484499D01*
X9756288Y-114484499D01*
X9756287Y-114484499D01*
X9513711Y-114484499D01*
X9513710Y-114484499D01*
X9513709Y-114484499D01*
X9273216Y-114516159D01*
X9038893Y-114578946D01*
X8814789Y-114671773D01*
X8814781Y-114671777D01*
X8604705Y-114793066D01*
X8604696Y-114793072D01*
X8412269Y-114940725D01*
X8412254Y-114940739D01*
X8412246Y-114940746D01*
X8240746Y-115112246D01*
X8240739Y-115112254D01*
X8240725Y-115112269D01*
X8093072Y-115304696D01*
X8093066Y-115304705D01*
X7971777Y-115514781D01*
X7971773Y-115514789D01*
X7878946Y-115738893D01*
X7816159Y-115973216D01*
X7784499Y-116213709D01*
X6935499Y-116213709D01*
X6935499Y-90553856D01*
X52549500Y-90553856D01*
X52549500Y-90646143D01*
X52555191Y-90667385D01*
X52573384Y-90735282D01*
X52573386Y-90735288D01*
X52573387Y-90735290D01*
X52573388Y-90735293D01*
X52619526Y-90815205D01*
X52619529Y-90815209D01*
X52619531Y-90815212D01*
X52684788Y-90880469D01*
X52684791Y-90880470D01*
X52684794Y-90880473D01*
X52691020Y-90884067D01*
X52691684Y-90884730D01*
X52693036Y-90885566D01*
X52695651Y-90886741D01*
X52764706Y-90926611D01*
X52764707Y-90926611D01*
X52764712Y-90926614D01*
X52853856Y-90950500D01*
X52853858Y-90950500D01*
X52946142Y-90950500D01*
X52946144Y-90950500D01*
X53035288Y-90926614D01*
X53115212Y-90880469D01*
X53180469Y-90815212D01*
X53226614Y-90735288D01*
X53250500Y-90646144D01*
X53250500Y-90553856D01*
X53226614Y-90464712D01*
X53226612Y-90464709D01*
X53221382Y-90455650D01*
X53180473Y-90384794D01*
X53180472Y-90384793D01*
X53180470Y-90384789D01*
X53116378Y-90320697D01*
X53115212Y-90319531D01*
X53115209Y-90319529D01*
X53115205Y-90319526D01*
X53049190Y-90281411D01*
X53048835Y-90281204D01*
X53048460Y-90280806D01*
X53042895Y-90276536D01*
X53036999Y-90274094D01*
X53033596Y-90272624D01*
X53033126Y-90272412D01*
X53031234Y-90271706D01*
X53027684Y-90270235D01*
X53019520Y-90269161D01*
X52946144Y-90249500D01*
X52946143Y-90249500D01*
X52853856Y-90249500D01*
X52771466Y-90271575D01*
X52771451Y-90271580D01*
X52764712Y-90273386D01*
X52764711Y-90273386D01*
X52764709Y-90273387D01*
X52764706Y-90273388D01*
X52761906Y-90275004D01*
X52761902Y-90275006D01*
X52684804Y-90319519D01*
X52684786Y-90319531D01*
X52619531Y-90384786D01*
X52619519Y-90384804D01*
X52573389Y-90464704D01*
X52573388Y-90464705D01*
X52573384Y-90464716D01*
X52549500Y-90553856D01*
X6935499Y-90553856D01*
X6935499Y-86619672D01*
X49033878Y-86619672D01*
X49161128Y-86672381D01*
X49165189Y-86674063D01*
X49165195Y-86674065D01*
X49202474Y-86681480D01*
X49320708Y-86705000D01*
X49479288Y-86705000D01*
X49479289Y-86705000D01*
X49510224Y-86698846D01*
X49634804Y-86674065D01*
X49634806Y-86674064D01*
X49634810Y-86674062D01*
X49636303Y-86673551D01*
X49638857Y-86672385D01*
X49766119Y-86619672D01*
X50733878Y-86619672D01*
X50861128Y-86672381D01*
X50865189Y-86674063D01*
X50865195Y-86674065D01*
X50902474Y-86681480D01*
X51020708Y-86705000D01*
X51179288Y-86705000D01*
X51179289Y-86705000D01*
X51210224Y-86698846D01*
X51334804Y-86674065D01*
X51334806Y-86674064D01*
X51334810Y-86674062D01*
X51336303Y-86673551D01*
X51338857Y-86672385D01*
X51466119Y-86619672D01*
X51466118Y-86619671D01*
X51466119Y-86619671D01*
X51132348Y-86285901D01*
X51100001Y-86253554D01*
X51100000Y-86253554D01*
X51067653Y-86285901D01*
X50733878Y-86619672D01*
X49766119Y-86619672D01*
X49766118Y-86619671D01*
X49766119Y-86619671D01*
X49432348Y-86285901D01*
X49400001Y-86253554D01*
X49400000Y-86253554D01*
X49367653Y-86285901D01*
X49033878Y-86619672D01*
X6935499Y-86619672D01*
X6935499Y-85952839D01*
X48589737Y-85952839D01*
X48625931Y-86134792D01*
X48625932Y-86134798D01*
X48625939Y-86134819D01*
X48680326Y-86266119D01*
X49046446Y-85900000D01*
X49046446Y-85899999D01*
X49016610Y-85870163D01*
X49250000Y-85870163D01*
X49250000Y-85929837D01*
X49272836Y-85984968D01*
X49315032Y-86027164D01*
X49370163Y-86050000D01*
X49429837Y-86050000D01*
X49484968Y-86027164D01*
X49527164Y-85984968D01*
X49550000Y-85929837D01*
X49550000Y-85899999D01*
X49753554Y-85899999D01*
X49753554Y-85900001D01*
X49785901Y-85932348D01*
X50119671Y-86266119D01*
X50119671Y-86266118D01*
X50119672Y-86266119D01*
X50128616Y-86244524D01*
X50146619Y-86214181D01*
X50153721Y-86205368D01*
X50211109Y-86165521D01*
X50280934Y-86163025D01*
X50341024Y-86198675D01*
X50341033Y-86198685D01*
X50346260Y-86204300D01*
X50370060Y-86241336D01*
X50380325Y-86266119D01*
X50380325Y-86266118D01*
X50380326Y-86266119D01*
X50746446Y-85900000D01*
X50746446Y-85899999D01*
X50716610Y-85870163D01*
X50950000Y-85870163D01*
X50950000Y-85929837D01*
X50972836Y-85984968D01*
X51015032Y-86027164D01*
X51070163Y-86050000D01*
X51129837Y-86050000D01*
X51184968Y-86027164D01*
X51227164Y-85984968D01*
X51250000Y-85929837D01*
X51250000Y-85899999D01*
X51453554Y-85899999D01*
X51453554Y-85900001D01*
X51485901Y-85932348D01*
X51819671Y-86266119D01*
X51819671Y-86266118D01*
X51819672Y-86266119D01*
X51872385Y-86138857D01*
X51873551Y-86136303D01*
X51874064Y-86134805D01*
X51874065Y-86134804D01*
X51905000Y-85979288D01*
X51905000Y-85820711D01*
X51905000Y-85820708D01*
X51874067Y-85665206D01*
X51874066Y-85665200D01*
X51874065Y-85665199D01*
X51874065Y-85665195D01*
X51874063Y-85665189D01*
X51819672Y-85533879D01*
X51819671Y-85533879D01*
X51819671Y-85533878D01*
X51485901Y-85867650D01*
X51485901Y-85867651D01*
X51453554Y-85899999D01*
X51250000Y-85899999D01*
X51250000Y-85870163D01*
X51227164Y-85815032D01*
X51184968Y-85772836D01*
X51129837Y-85750000D01*
X51070163Y-85750000D01*
X51015032Y-85772836D01*
X51015030Y-85772837D01*
X50972837Y-85815030D01*
X50972835Y-85815033D01*
X50962098Y-85840954D01*
X50962098Y-85840955D01*
X50950000Y-85870163D01*
X50716610Y-85870163D01*
X50380326Y-85533879D01*
X50380324Y-85533879D01*
X50371383Y-85555463D01*
X50371383Y-85555466D01*
X50353374Y-85585820D01*
X50346279Y-85594625D01*
X50288888Y-85634475D01*
X50219063Y-85636971D01*
X50158973Y-85601321D01*
X50158972Y-85601320D01*
X50153744Y-85595705D01*
X50129938Y-85558664D01*
X50119672Y-85533879D01*
X50119671Y-85533879D01*
X49785901Y-85867650D01*
X49785901Y-85867651D01*
X49753554Y-85899999D01*
X49550000Y-85899999D01*
X49550000Y-85870163D01*
X49527164Y-85815032D01*
X49484968Y-85772836D01*
X49429837Y-85750000D01*
X49370163Y-85750000D01*
X49315032Y-85772836D01*
X49315030Y-85772837D01*
X49272837Y-85815030D01*
X49272835Y-85815033D01*
X49262098Y-85840954D01*
X49262098Y-85840955D01*
X49250000Y-85870163D01*
X49016610Y-85870163D01*
X49014098Y-85867651D01*
X49014098Y-85867650D01*
X48680326Y-85533878D01*
X48625941Y-85665175D01*
X48625935Y-85665190D01*
X48625932Y-85665201D01*
X48595000Y-85820707D01*
X48595000Y-85934919D01*
X48589737Y-85952839D01*
X6935499Y-85952839D01*
X6935499Y-85249999D01*
X49103554Y-85249999D01*
X49103554Y-85250000D01*
X49400000Y-85546446D01*
X49696446Y-85250000D01*
X49696445Y-85249999D01*
X50803554Y-85249999D01*
X50803554Y-85250000D01*
X51100000Y-85546446D01*
X51396446Y-85250000D01*
X51100000Y-84953554D01*
X51067653Y-84985901D01*
X51067652Y-84985901D01*
X50803554Y-85249999D01*
X49696445Y-85249999D01*
X49400000Y-84953554D01*
X49367653Y-84985901D01*
X49367652Y-84985901D01*
X49103554Y-85249999D01*
X6935499Y-85249999D01*
X6935499Y-84652839D01*
X48589737Y-84652839D01*
X48625931Y-84834792D01*
X48625932Y-84834798D01*
X48625939Y-84834819D01*
X48680326Y-84966119D01*
X49046446Y-84600000D01*
X49046446Y-84599999D01*
X49016610Y-84570163D01*
X49250000Y-84570163D01*
X49250000Y-84629837D01*
X49272836Y-84684968D01*
X49315032Y-84727164D01*
X49370163Y-84750000D01*
X49429837Y-84750000D01*
X49484968Y-84727164D01*
X49527164Y-84684968D01*
X49550000Y-84629837D01*
X49550000Y-84599999D01*
X49753554Y-84599999D01*
X49753554Y-84600001D01*
X49785901Y-84632348D01*
X50119671Y-84966119D01*
X50119671Y-84966118D01*
X50119672Y-84966119D01*
X50128616Y-84944524D01*
X50146619Y-84914181D01*
X50153721Y-84905368D01*
X50211109Y-84865521D01*
X50280934Y-84863025D01*
X50341024Y-84898675D01*
X50341033Y-84898685D01*
X50346260Y-84904300D01*
X50370060Y-84941336D01*
X50380325Y-84966119D01*
X50380326Y-84966119D01*
X50746446Y-84600000D01*
X50746446Y-84599999D01*
X50745806Y-84599359D01*
X50923955Y-84599359D01*
X50937365Y-84609398D01*
X50952658Y-84636254D01*
X50972836Y-84684968D01*
X51015032Y-84727164D01*
X51070163Y-84750000D01*
X51129837Y-84750000D01*
X51184968Y-84727164D01*
X51227164Y-84684968D01*
X51250000Y-84629837D01*
X51250000Y-84599999D01*
X51453554Y-84599999D01*
X51453554Y-84600001D01*
X51485901Y-84632348D01*
X51819671Y-84966119D01*
X51819671Y-84966118D01*
X51819672Y-84966119D01*
X51872385Y-84838857D01*
X51873551Y-84836303D01*
X51874064Y-84834805D01*
X51874065Y-84834804D01*
X51905000Y-84679288D01*
X51905000Y-84520711D01*
X51905000Y-84520708D01*
X51874067Y-84365206D01*
X51874066Y-84365200D01*
X51874065Y-84365199D01*
X51874065Y-84365195D01*
X51874063Y-84365189D01*
X51819672Y-84233879D01*
X51819671Y-84233879D01*
X51819671Y-84233878D01*
X51485901Y-84567650D01*
X51485901Y-84567651D01*
X51453554Y-84599999D01*
X51250000Y-84599999D01*
X51250000Y-84570163D01*
X51227164Y-84515032D01*
X51184968Y-84472836D01*
X51184966Y-84472835D01*
X51159045Y-84462098D01*
X51159044Y-84462098D01*
X51129837Y-84450000D01*
X51070163Y-84450000D01*
X51015032Y-84472836D01*
X51015030Y-84472837D01*
X50972837Y-84515030D01*
X50972835Y-84515033D01*
X50952658Y-84563744D01*
X50923955Y-84599359D01*
X50745806Y-84599359D01*
X50380326Y-84233879D01*
X50380324Y-84233879D01*
X50371383Y-84255463D01*
X50371383Y-84255466D01*
X50353374Y-84285820D01*
X50346279Y-84294625D01*
X50288888Y-84334475D01*
X50219063Y-84336971D01*
X50158973Y-84301321D01*
X50158972Y-84301320D01*
X50153744Y-84295705D01*
X50129938Y-84258664D01*
X50119672Y-84233879D01*
X50119671Y-84233879D01*
X49785901Y-84567650D01*
X49785901Y-84567651D01*
X49753554Y-84599999D01*
X49550000Y-84599999D01*
X49550000Y-84570163D01*
X49527164Y-84515032D01*
X49484968Y-84472836D01*
X49484966Y-84472835D01*
X49459045Y-84462098D01*
X49459044Y-84462098D01*
X49429837Y-84450000D01*
X49370163Y-84450000D01*
X49315032Y-84472836D01*
X49315030Y-84472837D01*
X49272837Y-84515030D01*
X49272835Y-84515033D01*
X49262098Y-84540954D01*
X49262098Y-84540955D01*
X49250000Y-84570163D01*
X49016610Y-84570163D01*
X49014098Y-84567651D01*
X49014098Y-84567650D01*
X48680326Y-84233878D01*
X48625941Y-84365175D01*
X48625935Y-84365190D01*
X48625932Y-84365201D01*
X48595000Y-84520707D01*
X48595000Y-84634919D01*
X48589737Y-84652839D01*
X6935499Y-84652839D01*
X6935499Y-83880326D01*
X49033878Y-83880326D01*
X49367652Y-84214098D01*
X49400000Y-84246446D01*
X49400001Y-84246446D01*
X49766119Y-83880326D01*
X50733878Y-83880326D01*
X51067652Y-84214098D01*
X51100000Y-84246446D01*
X51100001Y-84246446D01*
X51466119Y-83880326D01*
X51345321Y-83830290D01*
X51345319Y-83830289D01*
X51334824Y-83825941D01*
X51334810Y-83825936D01*
X51334799Y-83825932D01*
X51334791Y-83825930D01*
X51179292Y-83795000D01*
X51179288Y-83795000D01*
X51020712Y-83795000D01*
X51020708Y-83795000D01*
X50865201Y-83825932D01*
X50865190Y-83825935D01*
X50865175Y-83825941D01*
X50733878Y-83880326D01*
X49766119Y-83880326D01*
X49634819Y-83825939D01*
X49634799Y-83825932D01*
X49634791Y-83825930D01*
X49479292Y-83795000D01*
X49479288Y-83795000D01*
X49320712Y-83795000D01*
X49320708Y-83795000D01*
X49165201Y-83825932D01*
X49165190Y-83825935D01*
X49165175Y-83825941D01*
X49033878Y-83880326D01*
X6935499Y-83880326D01*
X6935499Y-83723856D01*
X52549500Y-83723856D01*
X52549500Y-83730887D01*
X52549500Y-83816145D01*
X52566697Y-83880326D01*
X52573380Y-83905267D01*
X52573385Y-83905284D01*
X52573387Y-83905290D01*
X52573388Y-83905293D01*
X52619526Y-83985205D01*
X52619529Y-83985209D01*
X52619531Y-83985212D01*
X52684788Y-84050469D01*
X52684791Y-84050470D01*
X52684794Y-84050473D01*
X52691020Y-84054067D01*
X52691684Y-84054730D01*
X52693036Y-84055566D01*
X52695651Y-84056741D01*
X52764706Y-84096611D01*
X52764707Y-84096611D01*
X52764712Y-84096614D01*
X52853856Y-84120500D01*
X52853858Y-84120500D01*
X52946142Y-84120500D01*
X52946144Y-84120500D01*
X53035288Y-84096614D01*
X53115212Y-84050469D01*
X53180469Y-83985212D01*
X53226614Y-83905288D01*
X53250500Y-83816144D01*
X53250500Y-83723856D01*
X53226614Y-83634712D01*
X53192139Y-83575000D01*
X53180473Y-83554794D01*
X53180472Y-83554793D01*
X53180471Y-83554791D01*
X53180469Y-83554789D01*
X53180469Y-83554788D01*
X53115212Y-83489531D01*
X53115209Y-83489529D01*
X53115205Y-83489526D01*
X53049190Y-83451411D01*
X53048835Y-83451204D01*
X53048460Y-83450806D01*
X53042895Y-83446536D01*
X53036999Y-83444094D01*
X53033596Y-83442624D01*
X53033126Y-83442412D01*
X53031234Y-83441706D01*
X53027684Y-83440235D01*
X53019520Y-83439161D01*
X52946144Y-83419500D01*
X52946143Y-83419500D01*
X52853856Y-83419500D01*
X52771466Y-83441575D01*
X52771451Y-83441580D01*
X52764712Y-83443386D01*
X52764711Y-83443386D01*
X52764709Y-83443387D01*
X52764706Y-83443388D01*
X52761906Y-83445004D01*
X52761902Y-83445006D01*
X52684804Y-83489519D01*
X52684786Y-83489531D01*
X52619531Y-83554786D01*
X52619519Y-83554804D01*
X52573362Y-83634750D01*
X52573188Y-83635449D01*
X52549500Y-83723856D01*
X6935499Y-83723856D01*
X6935499Y-81763574D01*
X8635000Y-81763574D01*
X8635000Y-81986424D01*
X8664083Y-82207344D01*
X8664086Y-82207357D01*
X8664091Y-82207382D01*
X8721761Y-82422611D01*
X8721763Y-82422618D01*
X8752325Y-82496399D01*
X8807047Y-82628508D01*
X8807058Y-82628527D01*
X8918466Y-82821494D01*
X8918478Y-82821511D01*
X8969039Y-82887402D01*
X8969040Y-82887403D01*
X8969043Y-82887403D01*
X9509781Y-82346663D01*
X9571102Y-82313180D01*
X9640793Y-82318164D01*
X9696727Y-82360035D01*
X9700563Y-82365456D01*
X9713602Y-82384971D01*
X9825027Y-82496396D01*
X9825032Y-82496400D01*
X9844539Y-82509434D01*
X9889345Y-82563045D01*
X9898054Y-82632370D01*
X9867900Y-82695398D01*
X9863331Y-82700218D01*
X9322595Y-83240954D01*
X9322595Y-83240957D01*
X9388505Y-83291532D01*
X9388507Y-83291533D01*
X9581485Y-83402949D01*
X9581497Y-83402954D01*
X9787381Y-83488236D01*
X9933557Y-83527403D01*
X10002616Y-83545907D01*
X10002620Y-83545907D01*
X10002632Y-83545911D01*
X10002645Y-83545914D01*
X10223575Y-83575000D01*
X10446418Y-83575000D01*
X10446425Y-83575000D01*
X10667354Y-83545914D01*
X10667367Y-83545911D01*
X10882618Y-83488236D01*
X11088502Y-83402954D01*
X11088514Y-83402949D01*
X11281498Y-83291530D01*
X11347403Y-83240957D01*
X11347404Y-83240956D01*
X11347403Y-83240955D01*
X11347404Y-83240955D01*
X10806667Y-82700219D01*
X10773182Y-82638896D01*
X10778166Y-82569205D01*
X10820037Y-82513271D01*
X10825447Y-82509442D01*
X10844969Y-82496399D01*
X10956399Y-82384969D01*
X10969435Y-82365459D01*
X11023045Y-82320653D01*
X11092370Y-82311944D01*
X11155398Y-82342097D01*
X11160219Y-82346667D01*
X11700955Y-82887404D01*
X11700955Y-82887403D01*
X11700956Y-82887404D01*
X11700957Y-82887403D01*
X11751530Y-82821498D01*
X11862949Y-82628514D01*
X11862954Y-82628502D01*
X11948236Y-82422618D01*
X12005911Y-82207367D01*
X12005914Y-82207354D01*
X12035000Y-81986424D01*
X12035000Y-81763575D01*
X12005914Y-81542645D01*
X12005911Y-81542632D01*
X11948236Y-81327381D01*
X11862954Y-81121497D01*
X11862949Y-81121485D01*
X11751533Y-80928507D01*
X11751532Y-80928505D01*
X11700957Y-80862595D01*
X11700956Y-80862595D01*
X11700955Y-80862595D01*
X11700954Y-80862595D01*
X11160218Y-81403331D01*
X11098895Y-81436816D01*
X11029203Y-81431832D01*
X10973270Y-81389960D01*
X10969434Y-81384539D01*
X10956400Y-81365032D01*
X10956396Y-81365027D01*
X10844971Y-81253602D01*
X10825456Y-81240563D01*
X10780650Y-81186951D01*
X10771943Y-81117626D01*
X10802097Y-81054598D01*
X10806643Y-81049801D01*
X11347403Y-80509043D01*
X11347403Y-80509040D01*
X11281504Y-80458473D01*
X11281491Y-80458464D01*
X11088520Y-80347054D01*
X11088508Y-80347047D01*
X10995216Y-80308403D01*
X10882618Y-80261763D01*
X10882611Y-80261761D01*
X10667382Y-80204091D01*
X10667367Y-80204088D01*
X10667354Y-80204085D01*
X10667350Y-80204084D01*
X10667344Y-80204083D01*
X10446426Y-80175000D01*
X10446425Y-80175000D01*
X10223575Y-80175000D01*
X10223574Y-80175000D01*
X10002654Y-80204083D01*
X10002641Y-80204086D01*
X10002616Y-80204091D01*
X9787387Y-80261761D01*
X9787383Y-80261762D01*
X9787381Y-80261763D01*
X9787379Y-80261764D01*
X9581490Y-80347047D01*
X9581471Y-80347058D01*
X9388508Y-80458463D01*
X9322595Y-80509040D01*
X9322595Y-80509043D01*
X9863333Y-81049779D01*
X9896818Y-81111102D01*
X9891834Y-81180793D01*
X9849963Y-81236727D01*
X9844546Y-81240560D01*
X9825032Y-81253599D01*
X9825027Y-81253603D01*
X9713603Y-81365027D01*
X9713600Y-81365031D01*
X9700563Y-81384543D01*
X9646950Y-81429348D01*
X9577625Y-81438055D01*
X9514598Y-81407900D01*
X9509780Y-81403333D01*
X8969043Y-80862595D01*
X8969040Y-80862595D01*
X8918463Y-80928508D01*
X8807058Y-81121471D01*
X8807047Y-81121490D01*
X8721764Y-81327379D01*
X8721761Y-81327387D01*
X8664091Y-81542616D01*
X8664086Y-81542641D01*
X8664083Y-81542654D01*
X8635000Y-81763574D01*
X6935499Y-81763574D01*
X6935499Y-76683541D01*
X8634500Y-76683541D01*
X8634500Y-76906457D01*
X8634503Y-76906482D01*
X8648761Y-77014787D01*
X8663594Y-77127452D01*
X8663595Y-77127457D01*
X8663596Y-77127463D01*
X8663597Y-77127465D01*
X8664897Y-77132316D01*
X8664903Y-77132342D01*
X8721289Y-77342779D01*
X8721297Y-77342799D01*
X8806595Y-77548726D01*
X8916206Y-77738579D01*
X8918048Y-77741769D01*
X8918058Y-77741782D01*
X9053751Y-77918622D01*
X9053757Y-77918629D01*
X9211370Y-78076242D01*
X9211376Y-78076247D01*
X9388226Y-78211948D01*
X9581274Y-78323405D01*
X9787219Y-78408710D01*
X10002537Y-78466404D01*
X10223543Y-78495500D01*
X10223550Y-78495500D01*
X10446450Y-78495500D01*
X10446457Y-78495500D01*
X10667463Y-78466404D01*
X10882781Y-78408710D01*
X11088726Y-78323405D01*
X11281774Y-78211948D01*
X11458624Y-78076247D01*
X11616247Y-77918624D01*
X11751948Y-77741774D01*
X11863405Y-77548726D01*
X11948710Y-77342781D01*
X12006404Y-77127463D01*
X12035500Y-76906457D01*
X12035500Y-76683543D01*
X12006404Y-76462537D01*
X11948710Y-76247219D01*
X11948709Y-76247217D01*
X11948708Y-76247213D01*
X11947028Y-76243157D01*
X11947027Y-76243155D01*
X11946252Y-76241285D01*
X11875856Y-76071332D01*
X11875840Y-76071294D01*
X11865086Y-76045333D01*
X11864382Y-76043447D01*
X11863414Y-76041297D01*
X11863406Y-76041277D01*
X11863405Y-76041274D01*
X11856149Y-76028706D01*
X31434499Y-76028706D01*
X31434499Y-76028712D01*
X31434499Y-76241286D01*
X31467753Y-76451242D01*
X31471426Y-76462547D01*
X31513869Y-76593173D01*
X31533444Y-76653417D01*
X31626531Y-76836110D01*
X31629950Y-76842819D01*
X31754889Y-77014785D01*
X31754891Y-77014787D01*
X31905215Y-77165111D01*
X32077168Y-77290041D01*
X32077176Y-77290046D01*
X32077178Y-77290047D01*
X32077180Y-77290048D01*
X32077181Y-77290049D01*
X32077199Y-77290059D01*
X32077441Y-77290181D01*
X32266587Y-77386556D01*
X32468756Y-77452245D01*
X32678712Y-77485499D01*
X32678713Y-77485499D01*
X32891285Y-77485499D01*
X32891286Y-77485499D01*
X33101242Y-77452245D01*
X33303411Y-77386556D01*
X33492815Y-77290050D01*
X33514788Y-77274085D01*
X33664785Y-77165108D01*
X33664785Y-77165107D01*
X33664843Y-77165065D01*
X33665604Y-77164289D01*
X33815103Y-77014791D01*
X33815105Y-77014787D01*
X33815108Y-77014785D01*
X33940047Y-76842819D01*
X33940046Y-76842819D01*
X33940050Y-76842815D01*
X33940052Y-76842809D01*
X33960444Y-76814743D01*
X33968729Y-76786528D01*
X34036556Y-76653411D01*
X34102245Y-76451242D01*
X34135499Y-76241286D01*
X34135499Y-76028712D01*
X34102245Y-75818756D01*
X34036556Y-75616587D01*
X33940050Y-75427183D01*
X33940048Y-75427180D01*
X33940047Y-75427178D01*
X33939701Y-75426702D01*
X33939699Y-75426698D01*
X33815111Y-75255215D01*
X33664787Y-75104891D01*
X33664785Y-75104889D01*
X33492819Y-74979950D01*
X33479166Y-74972993D01*
X33325244Y-74894566D01*
X33325239Y-74894564D01*
X33303413Y-74883443D01*
X33303412Y-74883442D01*
X33303411Y-74883442D01*
X33206549Y-74851969D01*
X33110073Y-74820622D01*
X33105551Y-74818769D01*
X33096361Y-74816599D01*
X33091598Y-74816225D01*
X32939956Y-74792207D01*
X32920488Y-74789123D01*
X32891289Y-74784499D01*
X32891286Y-74784499D01*
X32678712Y-74784499D01*
X32678708Y-74784499D01*
X32630645Y-74792111D01*
X32630606Y-74792117D01*
X32630041Y-74792207D01*
X32468759Y-74817752D01*
X32468756Y-74817753D01*
X32459522Y-74820753D01*
X32459518Y-74820754D01*
X32346045Y-74857624D01*
X32287608Y-74876612D01*
X32280244Y-74879004D01*
X32266582Y-74883443D01*
X32077181Y-74979948D01*
X31905209Y-75104891D01*
X31754891Y-75255209D01*
X31754889Y-75255212D01*
X31665648Y-75378044D01*
X31629948Y-75427181D01*
X31533444Y-75616579D01*
X31467751Y-75818758D01*
X31463085Y-75848225D01*
X31463085Y-75848226D01*
X31434499Y-76028706D01*
X11856149Y-76028706D01*
X11751948Y-75848226D01*
X11616247Y-75671376D01*
X11616242Y-75671370D01*
X11458629Y-75513757D01*
X11458622Y-75513751D01*
X11458612Y-75513743D01*
X11458603Y-75513736D01*
X11283754Y-75379571D01*
X11283751Y-75379569D01*
X11281505Y-75377845D01*
X11280486Y-75377233D01*
X11278589Y-75376212D01*
X11088726Y-75266595D01*
X11088722Y-75266593D01*
X10886829Y-75182966D01*
X10882787Y-75181291D01*
X10668476Y-75123867D01*
X10668472Y-75123866D01*
X10667463Y-75123596D01*
X10667457Y-75123595D01*
X10667452Y-75123594D01*
X10448259Y-75094737D01*
X10448255Y-75094735D01*
X10446654Y-75094500D01*
X10446463Y-75094500D01*
X10446457Y-75094500D01*
X10223543Y-75094500D01*
X10223537Y-75094500D01*
X10223535Y-75094500D01*
X10218039Y-75095176D01*
X10217316Y-75095316D01*
X10216796Y-75095387D01*
X10002547Y-75123594D01*
X10002540Y-75123595D01*
X10002537Y-75123596D01*
X9991495Y-75126554D01*
X9991492Y-75126555D01*
X9787222Y-75181288D01*
X9787199Y-75181297D01*
X9581272Y-75266595D01*
X9388237Y-75378044D01*
X9388212Y-75378061D01*
X9388210Y-75378062D01*
X9211395Y-75513736D01*
X9211379Y-75513749D01*
X9211369Y-75513758D01*
X9211361Y-75513765D01*
X9053765Y-75671361D01*
X9053758Y-75671369D01*
X9053749Y-75671379D01*
X9053736Y-75671395D01*
X8918062Y-75848210D01*
X8918061Y-75848212D01*
X8918044Y-75848237D01*
X8806595Y-76041272D01*
X8721297Y-76247199D01*
X8721288Y-76247222D01*
X8666624Y-76451238D01*
X8666623Y-76451240D01*
X8663601Y-76462517D01*
X8663594Y-76462545D01*
X8663592Y-76462556D01*
X8634503Y-76683516D01*
X8634500Y-76683541D01*
X6935499Y-76683541D01*
X6935499Y-74503856D01*
X30516500Y-74503856D01*
X30516500Y-74596143D01*
X30522191Y-74617385D01*
X30540384Y-74685282D01*
X30540386Y-74685288D01*
X30540387Y-74685290D01*
X30540388Y-74685293D01*
X30586526Y-74765205D01*
X30586529Y-74765209D01*
X30586531Y-74765212D01*
X30651788Y-74830469D01*
X30651791Y-74830470D01*
X30651794Y-74830473D01*
X30658020Y-74834067D01*
X30658684Y-74834730D01*
X30660036Y-74835566D01*
X30662651Y-74836741D01*
X30731706Y-74876611D01*
X30731707Y-74876611D01*
X30731712Y-74876614D01*
X30820856Y-74900500D01*
X30820858Y-74900500D01*
X30913142Y-74900500D01*
X30913144Y-74900500D01*
X31002288Y-74876614D01*
X31082212Y-74830469D01*
X31147469Y-74765212D01*
X31193614Y-74685288D01*
X31217500Y-74596144D01*
X31217500Y-74503856D01*
X31193614Y-74414712D01*
X31193612Y-74414709D01*
X31188382Y-74405650D01*
X31147473Y-74334794D01*
X31147472Y-74334793D01*
X31147470Y-74334789D01*
X31083378Y-74270697D01*
X31082212Y-74269531D01*
X31082209Y-74269529D01*
X31082205Y-74269526D01*
X31016190Y-74231411D01*
X31015835Y-74231204D01*
X31015460Y-74230806D01*
X31009895Y-74226536D01*
X31003999Y-74224094D01*
X31000596Y-74222624D01*
X31000126Y-74222412D01*
X30998234Y-74221706D01*
X30994684Y-74220235D01*
X30986520Y-74219161D01*
X30913144Y-74199500D01*
X30913143Y-74199500D01*
X30820856Y-74199500D01*
X30738466Y-74221575D01*
X30738451Y-74221580D01*
X30731712Y-74223386D01*
X30731711Y-74223386D01*
X30731709Y-74223387D01*
X30731706Y-74223388D01*
X30728906Y-74225004D01*
X30728902Y-74225006D01*
X30651804Y-74269519D01*
X30651786Y-74269531D01*
X30586531Y-74334786D01*
X30586519Y-74334804D01*
X30540389Y-74414704D01*
X30540388Y-74414705D01*
X30540384Y-74414716D01*
X30516500Y-74503856D01*
X6935499Y-74503856D01*
X6935499Y-69521856D01*
X25534500Y-69521856D01*
X25534500Y-69528887D01*
X25534500Y-69614148D01*
X25545754Y-69656150D01*
X25545755Y-69656150D01*
X25545756Y-69656153D01*
X25558386Y-69703288D01*
X25558389Y-69703296D01*
X25601151Y-69777360D01*
X25604526Y-69783205D01*
X25604529Y-69783209D01*
X25604531Y-69783212D01*
X25669788Y-69848469D01*
X25669791Y-69848470D01*
X25669794Y-69848473D01*
X25676020Y-69852067D01*
X25676684Y-69852730D01*
X25678036Y-69853566D01*
X25680651Y-69854741D01*
X25749706Y-69894611D01*
X25749707Y-69894611D01*
X25749712Y-69894614D01*
X25838856Y-69918500D01*
X25838858Y-69918500D01*
X25931142Y-69918500D01*
X25931144Y-69918500D01*
X26020288Y-69894614D01*
X26100212Y-69848469D01*
X26165469Y-69783212D01*
X26211614Y-69703288D01*
X26235500Y-69614144D01*
X26235500Y-69521856D01*
X26211614Y-69432712D01*
X26167224Y-69355827D01*
X26165473Y-69352794D01*
X26165471Y-69352792D01*
X26165470Y-69352790D01*
X26165469Y-69352789D01*
X26165469Y-69352788D01*
X26100212Y-69287531D01*
X26100209Y-69287529D01*
X26100205Y-69287526D01*
X26034190Y-69249411D01*
X26033835Y-69249204D01*
X26033460Y-69248806D01*
X26027895Y-69244536D01*
X26021999Y-69242094D01*
X26018596Y-69240624D01*
X26018126Y-69240412D01*
X26016234Y-69239706D01*
X26012684Y-69238235D01*
X26004520Y-69237161D01*
X25931144Y-69217500D01*
X25931143Y-69217500D01*
X25838856Y-69217500D01*
X25756466Y-69239575D01*
X25756451Y-69239580D01*
X25749712Y-69241386D01*
X25749711Y-69241386D01*
X25749709Y-69241387D01*
X25749706Y-69241388D01*
X25746906Y-69243004D01*
X25746902Y-69243006D01*
X25669804Y-69287519D01*
X25669786Y-69287531D01*
X25604531Y-69352786D01*
X25604519Y-69352804D01*
X25558362Y-69432750D01*
X25558188Y-69433449D01*
X25534500Y-69521856D01*
X6935499Y-69521856D01*
X6935499Y-63153856D01*
X29499500Y-63153856D01*
X29499500Y-63246143D01*
X29505191Y-63267385D01*
X29523384Y-63335282D01*
X29523386Y-63335288D01*
X29523387Y-63335290D01*
X29523388Y-63335293D01*
X29569526Y-63415205D01*
X29569529Y-63415209D01*
X29569531Y-63415212D01*
X29634788Y-63480469D01*
X29634791Y-63480470D01*
X29634794Y-63480473D01*
X29641020Y-63484067D01*
X29641684Y-63484730D01*
X29643036Y-63485566D01*
X29645651Y-63486741D01*
X29714706Y-63526611D01*
X29714707Y-63526611D01*
X29714712Y-63526614D01*
X29803856Y-63550500D01*
X29803858Y-63550500D01*
X29896142Y-63550500D01*
X29896144Y-63550500D01*
X29985288Y-63526614D01*
X30065212Y-63480469D01*
X30130469Y-63415212D01*
X30176614Y-63335288D01*
X30200500Y-63246144D01*
X30200500Y-63153856D01*
X30176614Y-63064712D01*
X30176612Y-63064709D01*
X30171382Y-63055650D01*
X30130473Y-62984794D01*
X30130470Y-62984791D01*
X30130469Y-62984788D01*
X30130466Y-62984785D01*
X30094040Y-62948358D01*
X30091513Y-62945757D01*
X30060264Y-62912624D01*
X30060330Y-62912540D01*
X30047091Y-62898657D01*
X30046832Y-62898382D01*
X30031145Y-62867541D01*
X30015283Y-62836775D01*
X30015316Y-62836421D01*
X30015156Y-62836105D01*
X30018583Y-62802173D01*
X30021914Y-62767238D01*
X30022519Y-62765727D01*
X30056439Y-62718085D01*
X30060239Y-62714792D01*
X30079427Y-62701129D01*
X30115212Y-62680469D01*
X30180469Y-62615212D01*
X30226614Y-62535288D01*
X30250500Y-62446144D01*
X30250500Y-62353856D01*
X30226614Y-62264712D01*
X30226612Y-62264709D01*
X30221382Y-62255650D01*
X30180473Y-62184794D01*
X30180472Y-62184793D01*
X30180470Y-62184789D01*
X30116378Y-62120697D01*
X30115212Y-62119531D01*
X30115209Y-62119529D01*
X30115205Y-62119526D01*
X30049190Y-62081411D01*
X30048835Y-62081204D01*
X30048460Y-62080806D01*
X30042895Y-62076536D01*
X30036999Y-62074094D01*
X30033596Y-62072624D01*
X30033126Y-62072412D01*
X30031234Y-62071706D01*
X30027684Y-62070235D01*
X30019520Y-62069161D01*
X29946144Y-62049500D01*
X29946143Y-62049500D01*
X29853856Y-62049500D01*
X29771466Y-62071575D01*
X29771451Y-62071580D01*
X29764712Y-62073386D01*
X29764711Y-62073386D01*
X29764709Y-62073387D01*
X29764706Y-62073388D01*
X29761906Y-62075004D01*
X29761902Y-62075006D01*
X29684804Y-62119519D01*
X29684786Y-62119531D01*
X29619531Y-62184786D01*
X29619519Y-62184804D01*
X29573389Y-62264704D01*
X29573388Y-62264705D01*
X29573384Y-62264716D01*
X29549500Y-62353856D01*
X29549500Y-62446143D01*
X29555191Y-62467385D01*
X29573384Y-62535282D01*
X29573388Y-62535293D01*
X29573389Y-62535294D01*
X29616840Y-62610554D01*
X29616841Y-62610555D01*
X29619526Y-62615205D01*
X29619529Y-62615209D01*
X29619531Y-62615212D01*
X29656980Y-62652661D01*
X29658021Y-62653753D01*
X29658612Y-62654900D01*
X29702688Y-62701112D01*
X29734714Y-62763210D01*
X29728083Y-62832764D01*
X29728073Y-62832787D01*
X29727470Y-62834293D01*
X29693575Y-62881899D01*
X29689783Y-62885186D01*
X29670565Y-62898874D01*
X29634794Y-62919526D01*
X29634784Y-62919533D01*
X29569529Y-62984789D01*
X29569519Y-62984804D01*
X29523389Y-63064704D01*
X29523388Y-63064705D01*
X29523384Y-63064716D01*
X29499500Y-63153856D01*
X6935499Y-63153856D01*
X6935499Y-61053856D01*
X29349500Y-61053856D01*
X29349500Y-61146143D01*
X29355191Y-61167385D01*
X29373384Y-61235282D01*
X29373386Y-61235288D01*
X29373387Y-61235290D01*
X29373388Y-61235293D01*
X29419526Y-61315205D01*
X29419529Y-61315209D01*
X29419531Y-61315212D01*
X29484788Y-61380469D01*
X29484791Y-61380470D01*
X29484794Y-61380473D01*
X29491020Y-61384067D01*
X29491684Y-61384730D01*
X29493036Y-61385566D01*
X29495651Y-61386741D01*
X29564706Y-61426611D01*
X29564707Y-61426611D01*
X29564712Y-61426614D01*
X29653856Y-61450500D01*
X29653858Y-61450500D01*
X29746142Y-61450500D01*
X29746144Y-61450500D01*
X29835288Y-61426614D01*
X29915212Y-61380469D01*
X29980469Y-61315212D01*
X30026614Y-61235288D01*
X30050500Y-61146144D01*
X30050500Y-61053856D01*
X30026614Y-60964712D01*
X30009627Y-60935290D01*
X30009626Y-60935288D01*
X29980473Y-60884794D01*
X29980471Y-60884790D01*
X29930959Y-60835278D01*
X29915212Y-60819531D01*
X29915209Y-60819529D01*
X29915205Y-60819526D01*
X29911424Y-60817343D01*
X29911421Y-60817340D01*
X29850860Y-60782375D01*
X29850838Y-60782363D01*
X29835293Y-60773388D01*
X29835290Y-60773387D01*
X29835289Y-60773386D01*
X29835288Y-60773386D01*
X29833304Y-60772854D01*
X29831026Y-60771619D01*
X29827684Y-60770235D01*
X29819520Y-60769161D01*
X29762408Y-60753858D01*
X29762401Y-60753856D01*
X31849500Y-60753856D01*
X31849500Y-60846148D01*
X31859854Y-60884791D01*
X31859855Y-60884791D01*
X31859856Y-60884794D01*
X31873386Y-60935288D01*
X31873389Y-60935296D01*
X31916151Y-61009360D01*
X31919526Y-61015205D01*
X31919529Y-61015209D01*
X31919531Y-61015212D01*
X31984788Y-61080469D01*
X31984791Y-61080470D01*
X31984794Y-61080473D01*
X31991020Y-61084067D01*
X31991684Y-61084730D01*
X31993036Y-61085566D01*
X31995651Y-61086741D01*
X32064706Y-61126611D01*
X32064707Y-61126611D01*
X32064712Y-61126614D01*
X32153856Y-61150500D01*
X32153858Y-61150500D01*
X32246142Y-61150500D01*
X32246144Y-61150500D01*
X32335288Y-61126614D01*
X32415212Y-61080469D01*
X32480469Y-61015212D01*
X32526614Y-60935288D01*
X32550500Y-60846144D01*
X32550500Y-60753856D01*
X32526614Y-60664712D01*
X32526612Y-60664709D01*
X32521382Y-60655650D01*
X32480473Y-60584794D01*
X32480472Y-60584793D01*
X32480470Y-60584789D01*
X32416378Y-60520697D01*
X32415212Y-60519531D01*
X32415209Y-60519529D01*
X32415205Y-60519526D01*
X32349190Y-60481411D01*
X32348835Y-60481204D01*
X32348460Y-60480806D01*
X32342895Y-60476536D01*
X32336999Y-60474094D01*
X32333596Y-60472624D01*
X32333126Y-60472412D01*
X32331234Y-60471706D01*
X32327684Y-60470235D01*
X32319520Y-60469161D01*
X32246144Y-60449500D01*
X32246143Y-60449500D01*
X32153856Y-60449500D01*
X32071466Y-60471575D01*
X32071451Y-60471580D01*
X32064712Y-60473386D01*
X32064711Y-60473386D01*
X32064709Y-60473387D01*
X32064706Y-60473388D01*
X32061906Y-60475004D01*
X32061902Y-60475006D01*
X31984804Y-60519519D01*
X31984786Y-60519531D01*
X31919531Y-60584786D01*
X31919519Y-60584804D01*
X31875006Y-60661902D01*
X31875004Y-60661906D01*
X31873388Y-60664706D01*
X31873387Y-60664709D01*
X31873386Y-60664711D01*
X31873386Y-60664712D01*
X31871580Y-60671451D01*
X31871575Y-60671466D01*
X31849500Y-60753856D01*
X29762401Y-60753856D01*
X29746144Y-60749500D01*
X29746143Y-60749500D01*
X29653856Y-60749500D01*
X29571466Y-60771575D01*
X29571451Y-60771580D01*
X29564712Y-60773386D01*
X29564711Y-60773386D01*
X29564709Y-60773387D01*
X29564706Y-60773388D01*
X29561906Y-60775004D01*
X29561902Y-60775006D01*
X29484804Y-60819519D01*
X29484786Y-60819531D01*
X29419531Y-60884786D01*
X29419524Y-60884797D01*
X29373333Y-60964799D01*
X29372901Y-60966516D01*
X29360389Y-61013211D01*
X29360374Y-61013272D01*
X29359855Y-61015212D01*
X29349500Y-61053856D01*
X6935499Y-61053856D01*
X6935499Y-50578706D01*
X31534499Y-50578706D01*
X31534499Y-50791290D01*
X31558749Y-50944396D01*
X31567752Y-51001238D01*
X31619173Y-51159498D01*
X31633441Y-51203409D01*
X31633442Y-51203411D01*
X31715644Y-51364743D01*
X31729950Y-51392819D01*
X31854889Y-51564785D01*
X31854891Y-51564787D01*
X32005215Y-51715111D01*
X32177168Y-51840041D01*
X32177199Y-51840059D01*
X32177441Y-51840181D01*
X32366587Y-51936556D01*
X32568756Y-52002245D01*
X32778712Y-52035499D01*
X32778713Y-52035499D01*
X32991285Y-52035499D01*
X32991286Y-52035499D01*
X33201242Y-52002245D01*
X33403411Y-51936556D01*
X33592815Y-51840050D01*
X33707419Y-51756786D01*
X33764785Y-51715108D01*
X33764786Y-51715106D01*
X33764847Y-51715062D01*
X33765608Y-51714285D01*
X33915103Y-51564791D01*
X33915105Y-51564787D01*
X33915108Y-51564785D01*
X34040047Y-51392819D01*
X34040046Y-51392819D01*
X34040050Y-51392815D01*
X34040052Y-51392809D01*
X34060444Y-51364743D01*
X34068729Y-51336528D01*
X34136556Y-51203411D01*
X34202245Y-51001242D01*
X34235499Y-50791286D01*
X34235499Y-50578712D01*
X34202245Y-50368756D01*
X34136556Y-50166587D01*
X34040050Y-49977183D01*
X34040048Y-49977180D01*
X34040047Y-49977178D01*
X34039701Y-49976702D01*
X34039699Y-49976698D01*
X33915111Y-49805215D01*
X33764787Y-49654891D01*
X33764785Y-49654889D01*
X33592819Y-49529950D01*
X33579166Y-49522993D01*
X33425244Y-49444566D01*
X33425239Y-49444564D01*
X33403413Y-49433443D01*
X33403412Y-49433442D01*
X33403411Y-49433442D01*
X33306549Y-49401969D01*
X33210073Y-49370622D01*
X33205551Y-49368769D01*
X33196361Y-49366599D01*
X33191598Y-49366225D01*
X33039956Y-49342207D01*
X33020488Y-49339123D01*
X32991289Y-49334499D01*
X32991286Y-49334499D01*
X32778712Y-49334499D01*
X32778708Y-49334499D01*
X32739775Y-49340665D01*
X32730041Y-49342207D01*
X32692653Y-49348128D01*
X32568762Y-49367751D01*
X32366581Y-49433444D01*
X32177181Y-49529948D01*
X32005209Y-49654891D01*
X31854891Y-49805209D01*
X31729948Y-49977181D01*
X31633444Y-50166579D01*
X31567751Y-50368758D01*
X31534499Y-50578706D01*
X6935499Y-50578706D01*
X6935499Y-42213709D01*
X7784499Y-42213709D01*
X7784499Y-42456287D01*
X7816159Y-42696780D01*
X7878946Y-42931103D01*
X7971771Y-43155202D01*
X7971772Y-43155206D01*
X7971779Y-43155219D01*
X8093059Y-43365282D01*
X8093061Y-43365285D01*
X8093280Y-43365614D01*
X8094283Y-43366878D01*
X8240725Y-43557727D01*
X8240729Y-43557732D01*
X8240732Y-43557735D01*
X8240738Y-43557742D01*
X8240746Y-43557750D01*
X8412241Y-43729246D01*
X8412255Y-43729259D01*
X8412261Y-43729264D01*
X8604710Y-43876935D01*
X8814787Y-43998223D01*
X9038899Y-44091053D01*
X9273210Y-44153837D01*
X9453585Y-44177583D01*
X9513709Y-44185499D01*
X9513710Y-44185499D01*
X9513711Y-44185499D01*
X9756282Y-44185499D01*
X9756288Y-44185499D01*
X9804387Y-44179166D01*
X9996788Y-44153837D01*
X10231099Y-44091053D01*
X10455211Y-43998223D01*
X10665288Y-43876935D01*
X10857737Y-43729264D01*
X11029264Y-43557737D01*
X11176935Y-43365288D01*
X11298223Y-43155211D01*
X11391053Y-42931099D01*
X11453837Y-42696788D01*
X11485499Y-42456287D01*
X11485499Y-42213711D01*
X11453837Y-41973210D01*
X11391053Y-41738899D01*
X11298223Y-41514787D01*
X11176935Y-41304710D01*
X11029264Y-41112261D01*
X11029259Y-41112255D01*
X11029258Y-41112254D01*
X11029246Y-41112241D01*
X10857750Y-40940746D01*
X10857742Y-40940738D01*
X10857735Y-40940732D01*
X10857732Y-40940729D01*
X10857727Y-40940725D01*
X10666878Y-40794283D01*
X10665614Y-40793280D01*
X10665285Y-40793061D01*
X10665282Y-40793059D01*
X10455219Y-40671779D01*
X10455206Y-40671772D01*
X10455202Y-40671771D01*
X10231103Y-40578946D01*
X9996780Y-40516159D01*
X9756289Y-40484499D01*
X9756288Y-40484499D01*
X9756287Y-40484499D01*
X9513711Y-40484499D01*
X9513710Y-40484499D01*
X9513709Y-40484499D01*
X9273216Y-40516159D01*
X9038893Y-40578946D01*
X8814789Y-40671773D01*
X8814781Y-40671777D01*
X8604705Y-40793066D01*
X8604696Y-40793072D01*
X8412269Y-40940725D01*
X8412254Y-40940739D01*
X8412246Y-40940746D01*
X8240746Y-41112246D01*
X8240739Y-41112254D01*
X8240725Y-41112269D01*
X8093072Y-41304696D01*
X8093066Y-41304705D01*
X7971777Y-41514781D01*
X7971773Y-41514789D01*
X7878946Y-41738893D01*
X7816159Y-41973216D01*
X7784499Y-42213709D01*
X6935499Y-42213709D01*
X6935499Y-39777328D01*
X6940522Y-39742392D01*
X6944926Y-39727394D01*
X6982671Y-39668643D01*
X6982699Y-39668618D01*
X6982698Y-39668618D01*
X6984040Y-39667455D01*
X7038919Y-39639976D01*
X7046478Y-39638332D01*
X7072831Y-39635499D01*
X57493170Y-39635499D01*
X57528106Y-39640522D01*
G37*
%TD.AperFunction*%
%TD*%
%TA.AperFunction,Conductor*%
%TO.N,+40V*%
G36*
X57878039Y-45354685D02*
G01*
X57923794Y-45407489D01*
X57935000Y-45459000D01*
X57935000Y-72211000D01*
X57915315Y-72278039D01*
X57862511Y-72323794D01*
X57811000Y-72335000D01*
X49259000Y-72335000D01*
X49191961Y-72315315D01*
X49146206Y-72262511D01*
X49135000Y-72211000D01*
X49135000Y-45459000D01*
X49154685Y-45391961D01*
X49207489Y-45346206D01*
X49259000Y-45335000D01*
X57811000Y-45335000D01*
X57878039Y-45354685D01*
G37*
%TD.AperFunction*%
%TD*%
M02*
