M48
; DRILL file KiCad 10.0.3 date 2026-08-09T00:00:19
; FORMAT={-:-/ absolute / metric / decimal}
; #@! TF.CreationDate,2026-08-09T00:00:19-07:00
; #@! TF.GenerationSoftware,Kicad,Pcbnew,10.0.3
; #@! TF.FileFunction,MixedPlating,1,4
FMAT,2
METRIC
; #@! TA.AperFunction,Plated,PTH,ViaDrill
T1C0.200
; #@! TA.AperFunction,Plated,PTH,ViaDrill
T2C0.300
; #@! TA.AperFunction,Plated,PTH,ComponentDrill
T3C0.300
; #@! TA.AperFunction,Plated,PTH,ComponentDrill
T4C1.600
; #@! TA.AperFunction,NonPlated,NPTH,ComponentDrill
T5C2.200
; #@! TA.AperFunction,NonPlated,NPTH,ComponentDrill
T6C3.200
%
G90
G05
T1
X25.885Y-69.568
X29.7Y-61.1
X29.85Y-63.2
X29.9Y-62.4
X30.085Y-64.135
X30.867Y-74.55
X32.2Y-60.8
X52.9Y-83.77
X52.9Y-90.6
T2
X20.232Y-43.221
X20.232Y-47.221
X24.635Y-66.335
X24.635Y-92.335
X25.835Y-66.335
X25.835Y-92.335
X26.208Y-41.777
X26.208Y-46.06
X26.208Y-58.908
X26.208Y-63.191
X26.208Y-76.039
X26.208Y-80.322
X26.208Y-84.604
X26.208Y-88.887
X27.035Y-66.335
X27.035Y-92.335
X30.491Y-41.777
X30.491Y-46.06
X30.491Y-50.342
X30.491Y-54.625
X30.491Y-76.039
X30.491Y-80.322
X30.491Y-84.604
X30.491Y-88.887
X30.491Y-93.17
X30.777Y-63.315
X31.24Y-60.174
X32.051Y-62.587
X33.295Y-46.995
X34.135Y-60.485
X34.135Y-61.285
X34.135Y-62.285
X34.135Y-63.085
X34.135Y-64.685
X34.135Y-65.935
X34.135Y-66.935
X34.135Y-67.735
X34.185Y-69.485
X34.335Y-59.585
X34.485Y-68.735
X34.685Y-64.035
X34.773Y-58.908
X34.773Y-76.039
X34.773Y-80.322
X34.773Y-84.604
X34.773Y-88.887
X34.773Y-93.17
X34.785Y-61.785
X34.785Y-66.435
X34.985Y-69.485
X35.285Y-68.735
X35.485Y-64.035
X35.835Y-59.485
X36.035Y-69.085
X36.235Y-68.285
X36.285Y-63.235
X36.285Y-64.035
X36.285Y-64.835
X36.585Y-59.785
X36.585Y-61.135
X36.585Y-67.535
X36.835Y-68.835
X37.485Y-69.535
X37.585Y-59.785
X37.585Y-67.935
X37.635Y-60.735
X38.135Y-59.185
X38.185Y-68.835
X38.335Y-42.285
X38.335Y-46.785
X38.335Y-51.285
X38.685Y-59.785
X38.935Y-67.885
X39.035Y-69.535
X39.056Y-76.039
X39.056Y-84.604
X39.056Y-88.887
X39.056Y-93.17
X39.135Y-60.785
X39.435Y-59.185
X39.685Y-68.835
X40.185Y-59.785
X40.185Y-61.235
X40.185Y-67.435
X40.235Y-68.235
X40.535Y-68.985
X40.585Y-60.485
X40.985Y-59.735
X41.185Y-68.485
X41.285Y-69.285
X41.685Y-59.335
X41.685Y-60.185
X41.985Y-68.485
X42.085Y-69.285
X42.485Y-60.135
X43.335Y-42.285
X43.335Y-46.785
X43.335Y-51.285
X43.339Y-84.604
X43.339Y-88.887
X47.622Y-67.473
X47.622Y-76.039
X47.622Y-84.604
X47.622Y-93.17
X49.535Y-69.735
X49.535Y-70.635
X50.435Y-46.635
X50.435Y-47.535
X50.435Y-48.435
X50.435Y-49.335
X50.435Y-50.235
X50.435Y-51.135
X50.435Y-52.035
X50.435Y-70.635
X50.435Y-71.535
X51.335Y-46.635
X51.335Y-47.535
X51.335Y-48.435
X51.335Y-49.335
X51.335Y-50.235
X51.335Y-51.135
X51.335Y-52.035
X51.335Y-70.635
X51.335Y-71.535
X51.904Y-84.604
X51.904Y-93.17
X52.235Y-50.235
X52.235Y-51.135
X52.235Y-52.035
X52.235Y-70.635
X52.235Y-71.535
X53.135Y-50.235
X53.135Y-51.135
X53.135Y-70.635
X53.135Y-71.535
X54.035Y-50.235
X54.035Y-70.635
X54.035Y-71.535
X54.935Y-50.235
X54.935Y-70.635
X54.935Y-71.535
X55.835Y-46.635
X55.835Y-47.535
X55.835Y-48.435
X55.835Y-49.335
X55.835Y-50.235
X55.835Y-70.635
X55.835Y-71.535
X56.735Y-46.635
X56.735Y-47.535
X56.735Y-48.435
X56.735Y-49.335
X99.015Y-41.777
X103.297Y-41.777
X103.297Y-46.06
X103.297Y-50.342
X103.297Y-63.191
X103.297Y-67.473
X103.297Y-71.756
X103.297Y-76.039
X103.297Y-80.322
X103.297Y-84.604
X107.58Y-41.777
X107.58Y-46.06
X107.58Y-50.342
X107.58Y-54.625
X107.58Y-58.908
X107.58Y-63.191
X107.58Y-67.473
X107.58Y-71.756
X107.58Y-76.039
X107.58Y-80.322
X107.58Y-84.604
X107.58Y-88.887
X111.863Y-41.777
X111.863Y-46.06
X111.863Y-50.342
X111.863Y-54.625
X111.863Y-58.908
X111.863Y-63.191
X111.863Y-67.473
X111.863Y-71.756
X116.146Y-41.777
X116.146Y-46.06
X116.146Y-50.342
X116.146Y-54.625
X116.146Y-58.908
X116.146Y-63.191
X116.146Y-67.473
X116.146Y-71.756
X116.146Y-84.604
X116.146Y-88.887
X116.146Y-93.17
X116.146Y-97.453
X116.146Y-110.301
X116.146Y-114.584
X120.428Y-41.777
X120.428Y-46.06
X120.428Y-50.342
X120.428Y-54.625
X120.428Y-58.908
X120.428Y-63.191
X120.428Y-67.473
X120.428Y-71.756
X120.428Y-97.453
X124.595Y-103.995
X124.711Y-46.06
X124.711Y-50.342
X124.711Y-54.625
X124.711Y-58.908
X124.711Y-63.191
X124.711Y-67.473
X124.711Y-71.756
X124.711Y-76.039
X124.711Y-80.322
X124.711Y-84.604
X124.711Y-88.887
X124.711Y-93.17
X124.711Y-97.453
X124.711Y-101.735
X124.711Y-110.301
T3
X49.4Y-84.6
X49.4Y-85.9
X51.1Y-84.6
X51.1Y-85.9
X59.585Y-53.635
X59.585Y-54.735
X59.585Y-55.835
X59.585Y-56.935
X59.585Y-58.035
X59.585Y-59.135
X59.585Y-60.235
X61.085Y-53.635
X61.085Y-54.735
X61.085Y-55.835
X61.085Y-56.935
X61.085Y-58.035
X61.085Y-59.135
X61.085Y-60.235
X72.85Y-98.635
X72.85Y-99.735
X72.85Y-100.835
X72.85Y-101.935
X72.85Y-103.035
X72.85Y-104.135
X72.85Y-105.235
X74.35Y-98.635
X74.35Y-99.735
X74.35Y-100.835
X74.35Y-101.935
X74.35Y-103.035
X74.35Y-104.135
X74.35Y-105.235
X75.635Y-56.335
X75.635Y-57.535
X76.652Y-56.335
X76.652Y-57.535
X77.668Y-56.335
X77.668Y-57.535
X78.685Y-56.335
X78.685Y-57.535
X79.702Y-56.335
X79.702Y-57.535
X80.718Y-56.335
X80.718Y-57.535
X81.735Y-56.335
X81.735Y-57.535
X85.4Y-101.335
X85.4Y-102.535
X86.417Y-101.335
X86.417Y-102.535
X87.433Y-101.335
X87.433Y-102.535
X88.45Y-101.335
X88.45Y-102.535
X89.467Y-101.335
X89.467Y-102.535
X90.483Y-101.335
X90.483Y-102.535
X91.5Y-101.335
X91.5Y-102.535
X96.185Y-53.635
X96.185Y-54.735
X96.185Y-55.835
X96.185Y-56.935
X96.185Y-58.035
X96.185Y-59.135
X96.185Y-60.235
X97.685Y-53.635
X97.685Y-54.735
X97.685Y-55.835
X97.685Y-56.935
X97.685Y-58.035
X97.685Y-59.135
X97.685Y-60.235
X108.92Y-98.635
X108.92Y-99.735
X108.92Y-100.835
X108.92Y-101.935
X108.92Y-103.035
X108.92Y-104.135
X108.92Y-105.235
X110.42Y-98.635
X110.42Y-99.735
X110.42Y-100.835
X110.42Y-101.935
X110.42Y-103.035
X110.42Y-104.135
X110.42Y-105.235
T4
X10.335Y-76.795
X10.335Y-81.875
T5
X32.785Y-76.135
X32.885Y-50.685
T6
X9.635Y-42.335
X9.635Y-116.335
X123.635Y-42.335
X123.635Y-116.335
M30
