%TF.GenerationSoftware,KiCad,Pcbnew,10.0.3*%
%TF.CreationDate,2026-08-09T00:00:18-07:00*%
%TF.ProjectId,rf-de-20m,72662d64-652d-4323-906d-2e6b69636164,rev?*%
%TF.SameCoordinates,Original*%
%TF.FileFunction,Copper,L2,Inr*%
%TF.FilePolarity,Positive*%
%FSLAX46Y46*%
G04 Gerber Fmt 4.6, Leading zero omitted, Abs format (unit mm)*
G04 Created by KiCad (PCBNEW 10.0.3) date 2026-08-09 00:00:18*
%MOMM*%
%LPD*%
G01*
G04 APERTURE LIST*
%TA.AperFunction,ComponentPad*%
%ADD10C,0.600000*%
%TD*%
%TA.AperFunction,Conductor*%
%ADD11R,28.970000X5.000000*%
%TD*%
%TA.AperFunction,Conductor*%
%ADD12R,26.000000X5.000000*%
%TD*%
%TA.AperFunction,ComponentPad*%
%ADD13C,2.400000*%
%TD*%
%TA.AperFunction,ComponentPad*%
%ADD14C,0.610000*%
%TD*%
%TA.AperFunction,ViaPad*%
%ADD15C,0.600000*%
%TD*%
%TA.AperFunction,ViaPad*%
%ADD16C,0.450000*%
%TD*%
G04 APERTURE END LIST*
D10*
%TO.N,/tank/TANK_B*%
%TO.C,L302*%
X74350000Y-105235000D03*
X74350000Y-104135000D03*
X74350000Y-103035000D03*
X74350000Y-101935000D03*
X74350000Y-100835000D03*
X74350000Y-99735000D03*
X74350000Y-98635000D03*
X72850000Y-105235000D03*
X72850000Y-104135000D03*
X72850000Y-103035000D03*
X72850000Y-101935000D03*
X72850000Y-100835000D03*
X72850000Y-99735000D03*
X72850000Y-98635000D03*
%TO.N,/tank/RFOUT*%
X110420000Y-105235000D03*
X110420000Y-104135000D03*
X110420000Y-103035000D03*
X110420000Y-101935000D03*
X110420000Y-100835000D03*
X110420000Y-99735000D03*
X110420000Y-98635000D03*
X108920000Y-105235000D03*
X108920000Y-104135000D03*
X108920000Y-103035000D03*
X108920000Y-101935000D03*
X108920000Y-100835000D03*
X108920000Y-99735000D03*
X108920000Y-98635000D03*
D11*
X96585000Y-101935000D03*
D10*
X91500000Y-102535000D03*
X91500000Y-101335000D03*
X90483300Y-102535000D03*
X90483300Y-101335000D03*
X89466700Y-102535000D03*
X89466700Y-101335000D03*
X88450000Y-102535000D03*
X88450000Y-101335000D03*
X87433300Y-102535000D03*
X87433300Y-101335000D03*
X86416700Y-102535000D03*
X86416700Y-101335000D03*
X85400000Y-102535000D03*
X85400000Y-101335000D03*
%TD*%
%TO.N,/SW*%
%TO.C,L301*%
X61085000Y-60235000D03*
X61085000Y-59135000D03*
X61085000Y-58035000D03*
X61085000Y-56935000D03*
X61085000Y-55835000D03*
X61085000Y-54735000D03*
X61085000Y-53635000D03*
X59585000Y-60235000D03*
X59585000Y-59135000D03*
X59585000Y-58035000D03*
X59585000Y-56935000D03*
X59585000Y-55835000D03*
X59585000Y-54735000D03*
X59585000Y-53635000D03*
%TO.N,/tank/TANK_A*%
X97685000Y-60235000D03*
X97685000Y-59135000D03*
X97685000Y-58035000D03*
X97685000Y-56935000D03*
X97685000Y-55835000D03*
X97685000Y-54735000D03*
X97685000Y-53635000D03*
X96185000Y-60235000D03*
X96185000Y-59135000D03*
X96185000Y-58035000D03*
X96185000Y-56935000D03*
X96185000Y-55835000D03*
X96185000Y-54735000D03*
X96185000Y-53635000D03*
D12*
X85335000Y-56935000D03*
D10*
X81735000Y-57535000D03*
X81735000Y-56335000D03*
X80718300Y-57535000D03*
X80718300Y-56335000D03*
X79701700Y-57535000D03*
X79701700Y-56335000D03*
X78685000Y-57535000D03*
X78685000Y-56335000D03*
X77668300Y-57535000D03*
X77668300Y-56335000D03*
X76651700Y-57535000D03*
X76651700Y-56335000D03*
X75635000Y-57535000D03*
X75635000Y-56335000D03*
%TD*%
D13*
%TO.N,+40V*%
%TO.C,J101*%
X10335000Y-76795000D03*
%TO.N,GND*%
X10335000Y-81875000D03*
%TD*%
D14*
%TO.N,GND*%
%TO.C,U101*%
X49400000Y-84600000D03*
X49400000Y-85900000D03*
X51100000Y-84600000D03*
X51100000Y-85900000D03*
%TD*%
D15*
%TO.N,GND*%
X36285000Y-64835000D03*
X111863000Y-63191000D03*
X39056000Y-84604000D03*
X120428000Y-58908000D03*
X27035000Y-92335000D03*
X116146000Y-71756000D03*
X116146000Y-67473000D03*
X20232500Y-47221000D03*
X40185000Y-61235000D03*
X34773000Y-80322000D03*
X30491000Y-93170000D03*
X124711000Y-50342000D03*
X36285000Y-64035000D03*
X124711000Y-101735000D03*
X41985000Y-68485000D03*
X30491000Y-88887000D03*
X34135000Y-61285000D03*
X36585000Y-59785000D03*
X47622000Y-67473000D03*
X34135000Y-63085000D03*
X26208000Y-88887000D03*
X124711000Y-76039000D03*
X34135000Y-60485000D03*
X38135000Y-59185000D03*
X107580000Y-58908000D03*
X116146000Y-84604000D03*
X116146000Y-54625000D03*
X39035000Y-69535000D03*
X34773000Y-88887000D03*
X41685000Y-60185000D03*
X124711000Y-67473000D03*
X116146000Y-58908000D03*
X26208000Y-41777000D03*
X24635000Y-66335000D03*
X103297000Y-67473000D03*
X103297000Y-63191000D03*
X26208000Y-84604000D03*
X124711000Y-97453000D03*
X47622000Y-84604000D03*
X111863000Y-54625000D03*
X107580000Y-84604000D03*
X40185000Y-59785000D03*
X34785000Y-66435000D03*
X116146000Y-50342000D03*
X38335000Y-42285000D03*
X26208000Y-46060000D03*
X116146000Y-63191000D03*
X30491000Y-50342000D03*
X43339000Y-88887000D03*
X41685000Y-59335000D03*
X116146000Y-88887000D03*
X124711000Y-84604000D03*
X39685000Y-68835000D03*
X39056000Y-93170000D03*
X42485000Y-60135000D03*
X34773000Y-93170000D03*
X47622000Y-76039000D03*
X103297000Y-41777000D03*
X103297000Y-46060000D03*
X107580000Y-50342000D03*
X35485000Y-64035000D03*
X32051100Y-62587100D03*
X38935000Y-67885000D03*
X120428000Y-71756000D03*
X120428000Y-41777000D03*
X103297000Y-76039000D03*
X30491000Y-41777000D03*
X107580000Y-54625000D03*
X42085000Y-69285000D03*
X103297000Y-80322000D03*
X107580000Y-63191000D03*
X25835000Y-66335000D03*
X38685000Y-59785000D03*
X24635000Y-92335000D03*
X43335000Y-42285000D03*
X116146000Y-110301000D03*
X39435000Y-59185000D03*
X107580000Y-80322000D03*
X120428000Y-63191000D03*
X34135000Y-67735000D03*
X38335000Y-51285000D03*
X43335000Y-51285000D03*
X116146000Y-46060000D03*
X40185000Y-67435000D03*
X26208000Y-80322000D03*
X37635000Y-60735000D03*
X47622000Y-93170000D03*
X34185000Y-69485000D03*
X103297000Y-71756000D03*
X40985000Y-59735000D03*
X111863000Y-67473000D03*
X120428000Y-67473000D03*
X30491000Y-84604000D03*
X34985000Y-69485000D03*
X38335000Y-46785000D03*
X99015000Y-41777000D03*
X38185000Y-68835000D03*
X34685000Y-64035000D03*
X30491000Y-46060000D03*
X36585000Y-61135000D03*
X36235000Y-68285000D03*
X31240300Y-60174300D03*
X35835000Y-59485000D03*
X35285000Y-68735000D03*
X124711000Y-71756000D03*
X34485000Y-68735000D03*
X124595000Y-103995000D03*
X40585000Y-60485000D03*
X124711000Y-54625000D03*
X41185000Y-68485000D03*
X111863000Y-41777000D03*
X30491000Y-76039000D03*
X37585000Y-67935000D03*
X120428000Y-97453000D03*
X36285000Y-63235000D03*
X120428000Y-54625000D03*
X37585000Y-59785000D03*
X27035000Y-66335000D03*
X37485000Y-69535000D03*
X116146000Y-114584000D03*
X36585000Y-67535000D03*
X36035000Y-69085000D03*
X124711000Y-93170000D03*
X41285000Y-69285000D03*
X124711000Y-58908000D03*
X43339000Y-84604000D03*
X103297000Y-50342000D03*
X33295000Y-46995000D03*
X107580000Y-76039000D03*
X111863000Y-50342000D03*
X116146000Y-93170000D03*
X39135000Y-60785000D03*
X34135000Y-65935000D03*
X120428000Y-46060000D03*
X124711000Y-46060000D03*
X30777100Y-63315000D03*
X25835000Y-92335000D03*
X26208000Y-76039000D03*
X34335000Y-59585000D03*
X34135000Y-62285000D03*
X39056000Y-76039000D03*
X30491000Y-80322000D03*
X36835000Y-68835000D03*
X107580000Y-46060000D03*
D16*
X30085000Y-64135000D03*
D15*
X116146000Y-41777000D03*
X107580000Y-41777000D03*
X107580000Y-88887000D03*
X107580000Y-67473000D03*
X124711000Y-80322000D03*
X43335000Y-46785000D03*
X30491000Y-54625000D03*
X34773000Y-76039000D03*
X51904000Y-93170000D03*
X39056000Y-88887000D03*
X34135000Y-64685000D03*
X107580000Y-71756000D03*
X40535000Y-68985000D03*
X34773000Y-58908000D03*
X111863000Y-46060000D03*
X111863000Y-71756000D03*
X26208000Y-58908000D03*
X34785000Y-61785000D03*
X20232500Y-43221000D03*
X124711000Y-110301000D03*
X34773000Y-84604000D03*
X120428000Y-50342000D03*
X34135000Y-66935000D03*
X124711000Y-88887000D03*
X103297000Y-84604000D03*
X111863000Y-58908000D03*
X124711000Y-63191000D03*
X116146000Y-97453000D03*
X26208000Y-63191000D03*
X40235000Y-68235000D03*
X51904000Y-84604000D03*
D16*
%TO.N,+5V*%
X25885000Y-69568000D03*
X30867000Y-74550000D03*
%TO.N,+5V_DRV*%
X29900000Y-62400000D03*
X29700000Y-61100000D03*
D15*
%TO.N,+40V*%
X55835000Y-49335000D03*
X50435000Y-51135000D03*
X52235000Y-50235000D03*
X56735000Y-46635000D03*
X51335000Y-46635000D03*
X51335000Y-71535000D03*
X51335000Y-51135000D03*
X52235000Y-71535000D03*
X55835000Y-71535000D03*
X49535000Y-70635000D03*
X52235000Y-51135000D03*
X53135000Y-50235000D03*
X54935000Y-71535000D03*
X50435000Y-52035000D03*
X51335000Y-47535000D03*
X53135000Y-70635000D03*
X50435000Y-49335000D03*
X50435000Y-48435000D03*
X52235000Y-70635000D03*
X54035000Y-71535000D03*
X49535000Y-69735000D03*
X52235000Y-52035000D03*
X54935000Y-50235000D03*
X55835000Y-47535000D03*
X56735000Y-49335000D03*
X51335000Y-49335000D03*
X55835000Y-48435000D03*
X53135000Y-51135000D03*
X56735000Y-47535000D03*
X54035000Y-70635000D03*
X50435000Y-70635000D03*
X55835000Y-70635000D03*
X54935000Y-70635000D03*
X55835000Y-50235000D03*
X51335000Y-48435000D03*
X55835000Y-46635000D03*
X51335000Y-50235000D03*
X50435000Y-50235000D03*
X56735000Y-48435000D03*
X50435000Y-46635000D03*
X54035000Y-50235000D03*
X51335000Y-52035000D03*
X50435000Y-47535000D03*
X53135000Y-71535000D03*
X50435000Y-71535000D03*
X51335000Y-70635000D03*
D16*
%TO.N,/stage/DRIVE*%
X29850000Y-63200000D03*
X32200000Y-60800000D03*
%TO.N,/hk/BST*%
X52900000Y-83770000D03*
X52900000Y-90600000D03*
%TD*%
%TA.AperFunction,Conductor*%
%TO.N,GND*%
G36*
X126277538Y-39655184D02*
G01*
X126323293Y-39707988D01*
X126334499Y-39759499D01*
X126334499Y-118910499D01*
X126314814Y-118977538D01*
X126262010Y-119023293D01*
X126210499Y-119034499D01*
X102955619Y-119034499D01*
X102888580Y-119014814D01*
X102842825Y-118962010D01*
X102832881Y-118892852D01*
X102861906Y-118829296D01*
X102885385Y-118808307D01*
X103042784Y-118700130D01*
X103558200Y-118345900D01*
X104400800Y-117699400D01*
X105208300Y-117009700D01*
X105978700Y-116278700D01*
X106040366Y-116213710D01*
X121784499Y-116213710D01*
X121784499Y-116456287D01*
X121816160Y-116696784D01*
X121878946Y-116931103D01*
X121971772Y-117155204D01*
X121971775Y-117155211D01*
X122093063Y-117365288D01*
X122093065Y-117365291D01*
X122093066Y-117365292D01*
X122240732Y-117557735D01*
X122240738Y-117557742D01*
X122412255Y-117729259D01*
X122412261Y-117729264D01*
X122604710Y-117876935D01*
X122814787Y-117998223D01*
X123038899Y-118091053D01*
X123273210Y-118153837D01*
X123453585Y-118177583D01*
X123513710Y-118185499D01*
X123513711Y-118185499D01*
X123756288Y-118185499D01*
X123804387Y-118179166D01*
X123996788Y-118153837D01*
X124231099Y-118091053D01*
X124455211Y-117998223D01*
X124665288Y-117876935D01*
X124857737Y-117729264D01*
X125029264Y-117557737D01*
X125176935Y-117365288D01*
X125298223Y-117155211D01*
X125391053Y-116931099D01*
X125453837Y-116696788D01*
X125485499Y-116456287D01*
X125485499Y-116213711D01*
X125453837Y-115973210D01*
X125391053Y-115738899D01*
X125298223Y-115514787D01*
X125176935Y-115304710D01*
X125029264Y-115112261D01*
X125029259Y-115112255D01*
X124857742Y-114940738D01*
X124857735Y-114940732D01*
X124665292Y-114793066D01*
X124665291Y-114793065D01*
X124665288Y-114793063D01*
X124455211Y-114671775D01*
X124455204Y-114671772D01*
X124231103Y-114578946D01*
X123996784Y-114516160D01*
X123756288Y-114484499D01*
X123756287Y-114484499D01*
X123513711Y-114484499D01*
X123513710Y-114484499D01*
X123273213Y-114516160D01*
X123038894Y-114578946D01*
X122814793Y-114671772D01*
X122814784Y-114671776D01*
X122604705Y-114793066D01*
X122412262Y-114940732D01*
X122412255Y-114940738D01*
X122240738Y-115112255D01*
X122240732Y-115112262D01*
X122093066Y-115304705D01*
X121971776Y-115514784D01*
X121971772Y-115514793D01*
X121878946Y-115738894D01*
X121816160Y-115973213D01*
X121784499Y-116213710D01*
X106040366Y-116213710D01*
X106709700Y-115508300D01*
X107399400Y-114700800D01*
X108045900Y-113858200D01*
X108647400Y-112983000D01*
X109202300Y-112077500D01*
X109492614Y-111542869D01*
X109709086Y-111144227D01*
X109709090Y-111144216D01*
X109709100Y-111144200D01*
X110166300Y-110185700D01*
X110572700Y-109204500D01*
X110927200Y-108203400D01*
X111228800Y-107185100D01*
X111476700Y-106152500D01*
X111670300Y-105108300D01*
X111687424Y-104978208D01*
X111705369Y-104928424D01*
X111795788Y-104784524D01*
X111855368Y-104614254D01*
X111855369Y-104614249D01*
X111870499Y-104479960D01*
X111870500Y-104479956D01*
X111870500Y-103277291D01*
X111870882Y-103267566D01*
X111892199Y-102996609D01*
X111892200Y-102996600D01*
X111920000Y-101935000D01*
X111892200Y-100873400D01*
X111870882Y-100602432D01*
X111870500Y-100592707D01*
X111870500Y-99390043D01*
X111870499Y-99390039D01*
X111855369Y-99255750D01*
X111855368Y-99255745D01*
X111795788Y-99085475D01*
X111705369Y-98941576D01*
X111687424Y-98891791D01*
X111670300Y-98761700D01*
X111476700Y-97717500D01*
X111228800Y-96684900D01*
X110927200Y-95666600D01*
X110572700Y-94665500D01*
X110423534Y-94305360D01*
X110166310Y-93684322D01*
X110166303Y-93684308D01*
X110166300Y-93684300D01*
X109709100Y-92725800D01*
X109709094Y-92725790D01*
X109709086Y-92725772D01*
X109202304Y-91792508D01*
X109202300Y-91792500D01*
X108647400Y-90887000D01*
X108045900Y-90011800D01*
X107399400Y-89169200D01*
X106709700Y-88361700D01*
X106709691Y-88361690D01*
X105978700Y-87591299D01*
X105208309Y-86860308D01*
X105208300Y-86860300D01*
X104400800Y-86170600D01*
X103558200Y-85524100D01*
X102688765Y-84926562D01*
X102644666Y-84872369D01*
X102635000Y-84824371D01*
X102635000Y-42213710D01*
X121784499Y-42213710D01*
X121784499Y-42456287D01*
X121816160Y-42696784D01*
X121878946Y-42931103D01*
X121971772Y-43155204D01*
X121971775Y-43155211D01*
X122093063Y-43365288D01*
X122093065Y-43365291D01*
X122093066Y-43365292D01*
X122240732Y-43557735D01*
X122240738Y-43557742D01*
X122412255Y-43729259D01*
X122412261Y-43729264D01*
X122604710Y-43876935D01*
X122814787Y-43998223D01*
X123038899Y-44091053D01*
X123273210Y-44153837D01*
X123453585Y-44177583D01*
X123513710Y-44185499D01*
X123513711Y-44185499D01*
X123756288Y-44185499D01*
X123804387Y-44179166D01*
X123996788Y-44153837D01*
X124231099Y-44091053D01*
X124455211Y-43998223D01*
X124665288Y-43876935D01*
X124857737Y-43729264D01*
X125029264Y-43557737D01*
X125176935Y-43365288D01*
X125298223Y-43155211D01*
X125391053Y-42931099D01*
X125453837Y-42696788D01*
X125485499Y-42456287D01*
X125485499Y-42213711D01*
X125453837Y-41973210D01*
X125391053Y-41738899D01*
X125298223Y-41514787D01*
X125176935Y-41304710D01*
X125029264Y-41112261D01*
X125029259Y-41112255D01*
X124857742Y-40940738D01*
X124857735Y-40940732D01*
X124665292Y-40793066D01*
X124665291Y-40793065D01*
X124665288Y-40793063D01*
X124455211Y-40671775D01*
X124455204Y-40671772D01*
X124231103Y-40578946D01*
X123996784Y-40516160D01*
X123756288Y-40484499D01*
X123756287Y-40484499D01*
X123513711Y-40484499D01*
X123513710Y-40484499D01*
X123273213Y-40516160D01*
X123038894Y-40578946D01*
X122814793Y-40671772D01*
X122814784Y-40671776D01*
X122604705Y-40793066D01*
X122412262Y-40940732D01*
X122412255Y-40940738D01*
X122240738Y-41112255D01*
X122240732Y-41112262D01*
X122093066Y-41304705D01*
X121971776Y-41514784D01*
X121971772Y-41514793D01*
X121878946Y-41738894D01*
X121816160Y-41973213D01*
X121784499Y-42213710D01*
X102635000Y-42213710D01*
X102635000Y-39759499D01*
X102654685Y-39692460D01*
X102707489Y-39646705D01*
X102759000Y-39635499D01*
X126210499Y-39635499D01*
X126277538Y-39655184D01*
G37*
%TD.AperFunction*%
%TD*%
%TA.AperFunction,Conductor*%
%TO.N,GND*%
G36*
X57578039Y-39655184D02*
G01*
X57623794Y-39707988D01*
X57635000Y-39759499D01*
X57635000Y-46132309D01*
X57615315Y-46199348D01*
X57562511Y-46245103D01*
X57493353Y-46255047D01*
X57429797Y-46226022D01*
X57407898Y-46201200D01*
X57356789Y-46124711D01*
X57356786Y-46124707D01*
X57245292Y-46013213D01*
X57245288Y-46013210D01*
X57114185Y-45925609D01*
X57114172Y-45925602D01*
X56968501Y-45865264D01*
X56968489Y-45865261D01*
X56813845Y-45834500D01*
X56813842Y-45834500D01*
X56656158Y-45834500D01*
X56656155Y-45834500D01*
X56501510Y-45865261D01*
X56501498Y-45865264D01*
X56355822Y-45925604D01*
X56355820Y-45925605D01*
X56353885Y-45926899D01*
X56352717Y-45927264D01*
X56350451Y-45928476D01*
X56350221Y-45928045D01*
X56287206Y-45947773D01*
X56219827Y-45929285D01*
X56216115Y-45926899D01*
X56214179Y-45925605D01*
X56214177Y-45925604D01*
X56068501Y-45865264D01*
X56068489Y-45865261D01*
X55913845Y-45834500D01*
X55913842Y-45834500D01*
X55756158Y-45834500D01*
X55756155Y-45834500D01*
X55601510Y-45865261D01*
X55601498Y-45865264D01*
X55455827Y-45925602D01*
X55455814Y-45925609D01*
X55324711Y-46013210D01*
X55324707Y-46013213D01*
X55213213Y-46124707D01*
X55213210Y-46124711D01*
X55125609Y-46255814D01*
X55125602Y-46255827D01*
X55065264Y-46401498D01*
X55065261Y-46401510D01*
X55034500Y-46556153D01*
X55034500Y-46713846D01*
X55065261Y-46868489D01*
X55065264Y-46868501D01*
X55125604Y-47014177D01*
X55125605Y-47014179D01*
X55126899Y-47016115D01*
X55127264Y-47017282D01*
X55128476Y-47019549D01*
X55128045Y-47019778D01*
X55147773Y-47082794D01*
X55129285Y-47150173D01*
X55126899Y-47153885D01*
X55125605Y-47155820D01*
X55125604Y-47155822D01*
X55065264Y-47301498D01*
X55065261Y-47301510D01*
X55034500Y-47456153D01*
X55034500Y-47613846D01*
X55065261Y-47768489D01*
X55065264Y-47768501D01*
X55125604Y-47914177D01*
X55125605Y-47914179D01*
X55126899Y-47916115D01*
X55127264Y-47917282D01*
X55128476Y-47919549D01*
X55128045Y-47919778D01*
X55147773Y-47982794D01*
X55129285Y-48050173D01*
X55126899Y-48053885D01*
X55125605Y-48055820D01*
X55125604Y-48055822D01*
X55065264Y-48201498D01*
X55065261Y-48201510D01*
X55034500Y-48356153D01*
X55034500Y-48513846D01*
X55065261Y-48668489D01*
X55065264Y-48668501D01*
X55125604Y-48814177D01*
X55125605Y-48814179D01*
X55126899Y-48816115D01*
X55127264Y-48817282D01*
X55128476Y-48819549D01*
X55128045Y-48819778D01*
X55147773Y-48882794D01*
X55129285Y-48950173D01*
X55126899Y-48953885D01*
X55125605Y-48955820D01*
X55125604Y-48955822D01*
X55065264Y-49101498D01*
X55065261Y-49101510D01*
X55034500Y-49256153D01*
X55034500Y-49310500D01*
X55014815Y-49377539D01*
X54962011Y-49423294D01*
X54910500Y-49434500D01*
X54856155Y-49434500D01*
X54701510Y-49465261D01*
X54701498Y-49465264D01*
X54555822Y-49525604D01*
X54555820Y-49525605D01*
X54553885Y-49526899D01*
X54552717Y-49527264D01*
X54550451Y-49528476D01*
X54550221Y-49528045D01*
X54487206Y-49547773D01*
X54419827Y-49529285D01*
X54416115Y-49526899D01*
X54414179Y-49525605D01*
X54414177Y-49525604D01*
X54268501Y-49465264D01*
X54268489Y-49465261D01*
X54113845Y-49434500D01*
X54113842Y-49434500D01*
X53956158Y-49434500D01*
X53956155Y-49434500D01*
X53801510Y-49465261D01*
X53801498Y-49465264D01*
X53655822Y-49525604D01*
X53655820Y-49525605D01*
X53653885Y-49526899D01*
X53652717Y-49527264D01*
X53650451Y-49528476D01*
X53650221Y-49528045D01*
X53587206Y-49547773D01*
X53519827Y-49529285D01*
X53516115Y-49526899D01*
X53514179Y-49525605D01*
X53514177Y-49525604D01*
X53368501Y-49465264D01*
X53368489Y-49465261D01*
X53213845Y-49434500D01*
X53213842Y-49434500D01*
X53056158Y-49434500D01*
X53056155Y-49434500D01*
X52901510Y-49465261D01*
X52901498Y-49465264D01*
X52755822Y-49525604D01*
X52755820Y-49525605D01*
X52753885Y-49526899D01*
X52752717Y-49527264D01*
X52750451Y-49528476D01*
X52750221Y-49528045D01*
X52687206Y-49547773D01*
X52619827Y-49529285D01*
X52616115Y-49526899D01*
X52614179Y-49525605D01*
X52614177Y-49525604D01*
X52468501Y-49465264D01*
X52468489Y-49465261D01*
X52313845Y-49434500D01*
X52313842Y-49434500D01*
X52259500Y-49434500D01*
X52192461Y-49414815D01*
X52146706Y-49362011D01*
X52135500Y-49310500D01*
X52135500Y-49256155D01*
X52135499Y-49256153D01*
X52104738Y-49101510D01*
X52104737Y-49101503D01*
X52104735Y-49101498D01*
X52044397Y-48955827D01*
X52044394Y-48955822D01*
X52044394Y-48955821D01*
X52043103Y-48953889D01*
X52042737Y-48952723D01*
X52041525Y-48950454D01*
X52041955Y-48950223D01*
X52022226Y-48887214D01*
X52040710Y-48819834D01*
X52043100Y-48816115D01*
X52044394Y-48814179D01*
X52104737Y-48668497D01*
X52135500Y-48513842D01*
X52135500Y-48356158D01*
X52135500Y-48356155D01*
X52135499Y-48356153D01*
X52104738Y-48201510D01*
X52104737Y-48201503D01*
X52104735Y-48201498D01*
X52044397Y-48055827D01*
X52044394Y-48055822D01*
X52044394Y-48055821D01*
X52043103Y-48053889D01*
X52042737Y-48052723D01*
X52041525Y-48050454D01*
X52041955Y-48050223D01*
X52022226Y-47987214D01*
X52040710Y-47919834D01*
X52043100Y-47916115D01*
X52044394Y-47914179D01*
X52104737Y-47768497D01*
X52135500Y-47613842D01*
X52135500Y-47456158D01*
X52135500Y-47456155D01*
X52135499Y-47456153D01*
X52104738Y-47301510D01*
X52104737Y-47301503D01*
X52104735Y-47301498D01*
X52044397Y-47155827D01*
X52044394Y-47155822D01*
X52044394Y-47155821D01*
X52043103Y-47153889D01*
X52042737Y-47152723D01*
X52041525Y-47150454D01*
X52041955Y-47150223D01*
X52022226Y-47087214D01*
X52040710Y-47019834D01*
X52043100Y-47016115D01*
X52044394Y-47014179D01*
X52104737Y-46868497D01*
X52135500Y-46713842D01*
X52135500Y-46556158D01*
X52135500Y-46556155D01*
X52135499Y-46556153D01*
X52104738Y-46401510D01*
X52104737Y-46401503D01*
X52104735Y-46401498D01*
X52044397Y-46255827D01*
X52044390Y-46255814D01*
X51956789Y-46124711D01*
X51956786Y-46124707D01*
X51845292Y-46013213D01*
X51845288Y-46013210D01*
X51714185Y-45925609D01*
X51714172Y-45925602D01*
X51568501Y-45865264D01*
X51568489Y-45865261D01*
X51413845Y-45834500D01*
X51413842Y-45834500D01*
X51256158Y-45834500D01*
X51256155Y-45834500D01*
X51101510Y-45865261D01*
X51101498Y-45865264D01*
X50955822Y-45925604D01*
X50955820Y-45925605D01*
X50953885Y-45926899D01*
X50952717Y-45927264D01*
X50950451Y-45928476D01*
X50950221Y-45928045D01*
X50887206Y-45947773D01*
X50819827Y-45929285D01*
X50816115Y-45926899D01*
X50814179Y-45925605D01*
X50814177Y-45925604D01*
X50668501Y-45865264D01*
X50668489Y-45865261D01*
X50513845Y-45834500D01*
X50513842Y-45834500D01*
X50356158Y-45834500D01*
X50356155Y-45834500D01*
X50201510Y-45865261D01*
X50201498Y-45865264D01*
X50055827Y-45925602D01*
X50055814Y-45925609D01*
X49924711Y-46013210D01*
X49924707Y-46013213D01*
X49813213Y-46124707D01*
X49813210Y-46124711D01*
X49725609Y-46255814D01*
X49725602Y-46255827D01*
X49665264Y-46401498D01*
X49665261Y-46401510D01*
X49634500Y-46556153D01*
X49634500Y-46713846D01*
X49665261Y-46868489D01*
X49665264Y-46868501D01*
X49725604Y-47014177D01*
X49725605Y-47014179D01*
X49726899Y-47016115D01*
X49727264Y-47017282D01*
X49728476Y-47019549D01*
X49728045Y-47019778D01*
X49747773Y-47082794D01*
X49729285Y-47150173D01*
X49726899Y-47153885D01*
X49725605Y-47155820D01*
X49725604Y-47155822D01*
X49665264Y-47301498D01*
X49665261Y-47301510D01*
X49634500Y-47456153D01*
X49634500Y-47613846D01*
X49665261Y-47768489D01*
X49665264Y-47768501D01*
X49725604Y-47914177D01*
X49725605Y-47914179D01*
X49726899Y-47916115D01*
X49727264Y-47917282D01*
X49728476Y-47919549D01*
X49728045Y-47919778D01*
X49747773Y-47982794D01*
X49729285Y-48050173D01*
X49726899Y-48053885D01*
X49725605Y-48055820D01*
X49725604Y-48055822D01*
X49665264Y-48201498D01*
X49665261Y-48201510D01*
X49634500Y-48356153D01*
X49634500Y-48513846D01*
X49665261Y-48668489D01*
X49665264Y-48668501D01*
X49725604Y-48814177D01*
X49725605Y-48814179D01*
X49726899Y-48816115D01*
X49727264Y-48817282D01*
X49728476Y-48819549D01*
X49728045Y-48819778D01*
X49747773Y-48882794D01*
X49729285Y-48950173D01*
X49726899Y-48953885D01*
X49725605Y-48955820D01*
X49725604Y-48955822D01*
X49665264Y-49101498D01*
X49665261Y-49101510D01*
X49634500Y-49256153D01*
X49634500Y-49413846D01*
X49665261Y-49568489D01*
X49665264Y-49568501D01*
X49725604Y-49714177D01*
X49725605Y-49714179D01*
X49726899Y-49716115D01*
X49727264Y-49717282D01*
X49728476Y-49719549D01*
X49728045Y-49719778D01*
X49747773Y-49782794D01*
X49729285Y-49850173D01*
X49726899Y-49853885D01*
X49725605Y-49855820D01*
X49725604Y-49855822D01*
X49665264Y-50001498D01*
X49665261Y-50001510D01*
X49634500Y-50156153D01*
X49634500Y-50313846D01*
X49665261Y-50468489D01*
X49665264Y-50468501D01*
X49725604Y-50614177D01*
X49725605Y-50614179D01*
X49726899Y-50616115D01*
X49727264Y-50617282D01*
X49728476Y-50619549D01*
X49728045Y-50619778D01*
X49747773Y-50682794D01*
X49729285Y-50750173D01*
X49726899Y-50753885D01*
X49725605Y-50755820D01*
X49725604Y-50755822D01*
X49665264Y-50901498D01*
X49665261Y-50901510D01*
X49634500Y-51056153D01*
X49634500Y-51213846D01*
X49665261Y-51368489D01*
X49665264Y-51368501D01*
X49725604Y-51514177D01*
X49725605Y-51514179D01*
X49726899Y-51516115D01*
X49727264Y-51517282D01*
X49728476Y-51519549D01*
X49728045Y-51519778D01*
X49747773Y-51582794D01*
X49729285Y-51650173D01*
X49726899Y-51653885D01*
X49725605Y-51655820D01*
X49725604Y-51655822D01*
X49665264Y-51801498D01*
X49665261Y-51801510D01*
X49634500Y-51956153D01*
X49634500Y-52113846D01*
X49665261Y-52268489D01*
X49665264Y-52268501D01*
X49725602Y-52414172D01*
X49725609Y-52414185D01*
X49813210Y-52545288D01*
X49813213Y-52545292D01*
X49924707Y-52656786D01*
X49924711Y-52656789D01*
X50055814Y-52744390D01*
X50055827Y-52744397D01*
X50201498Y-52804735D01*
X50201503Y-52804737D01*
X50356153Y-52835499D01*
X50356156Y-52835500D01*
X50356158Y-52835500D01*
X50513844Y-52835500D01*
X50513845Y-52835499D01*
X50668497Y-52804737D01*
X50814179Y-52744394D01*
X50816110Y-52743103D01*
X50817276Y-52742737D01*
X50819546Y-52741525D01*
X50819776Y-52741955D01*
X50882786Y-52722226D01*
X50950166Y-52740710D01*
X50953850Y-52743077D01*
X50955821Y-52744394D01*
X50955824Y-52744395D01*
X50955827Y-52744397D01*
X51101498Y-52804735D01*
X51101503Y-52804737D01*
X51256153Y-52835499D01*
X51256156Y-52835500D01*
X51256158Y-52835500D01*
X51413844Y-52835500D01*
X51413845Y-52835499D01*
X51568497Y-52804737D01*
X51714179Y-52744394D01*
X51716110Y-52743103D01*
X51717276Y-52742737D01*
X51719546Y-52741525D01*
X51719776Y-52741955D01*
X51782786Y-52722226D01*
X51850166Y-52740710D01*
X51853850Y-52743077D01*
X51855821Y-52744394D01*
X51855824Y-52744395D01*
X51855827Y-52744397D01*
X52001498Y-52804735D01*
X52001503Y-52804737D01*
X52156153Y-52835499D01*
X52156156Y-52835500D01*
X52156158Y-52835500D01*
X52313844Y-52835500D01*
X52313845Y-52835499D01*
X52468497Y-52804737D01*
X52614179Y-52744394D01*
X52745289Y-52656789D01*
X52856789Y-52545289D01*
X52944394Y-52414179D01*
X53004737Y-52268497D01*
X53035500Y-52113842D01*
X53035500Y-52059500D01*
X53055185Y-51992461D01*
X53107989Y-51946706D01*
X53159500Y-51935500D01*
X53213844Y-51935500D01*
X53213845Y-51935499D01*
X53368497Y-51904737D01*
X53514179Y-51844394D01*
X53645289Y-51756789D01*
X53756789Y-51645289D01*
X53844394Y-51514179D01*
X53904737Y-51368497D01*
X53935500Y-51213842D01*
X53935500Y-51159500D01*
X53955185Y-51092461D01*
X54007989Y-51046706D01*
X54059500Y-51035500D01*
X54113844Y-51035500D01*
X54113845Y-51035499D01*
X54268497Y-51004737D01*
X54414179Y-50944394D01*
X54416110Y-50943103D01*
X54417276Y-50942737D01*
X54419546Y-50941525D01*
X54419776Y-50941955D01*
X54482786Y-50922226D01*
X54550166Y-50940710D01*
X54553850Y-50943077D01*
X54555821Y-50944394D01*
X54555824Y-50944395D01*
X54555827Y-50944397D01*
X54693065Y-51001242D01*
X54701503Y-51004737D01*
X54830368Y-51030370D01*
X54856153Y-51035499D01*
X54856156Y-51035500D01*
X54856158Y-51035500D01*
X55013844Y-51035500D01*
X55013845Y-51035499D01*
X55168497Y-51004737D01*
X55314179Y-50944394D01*
X55316110Y-50943103D01*
X55317276Y-50942737D01*
X55319546Y-50941525D01*
X55319776Y-50941955D01*
X55382786Y-50922226D01*
X55450166Y-50940710D01*
X55453850Y-50943077D01*
X55455821Y-50944394D01*
X55455824Y-50944395D01*
X55455827Y-50944397D01*
X55593065Y-51001242D01*
X55601503Y-51004737D01*
X55730368Y-51030370D01*
X55756153Y-51035499D01*
X55756156Y-51035500D01*
X55756158Y-51035500D01*
X55913844Y-51035500D01*
X55913845Y-51035499D01*
X56068497Y-51004737D01*
X56214179Y-50944394D01*
X56345289Y-50856789D01*
X56456789Y-50745289D01*
X56544394Y-50614179D01*
X56604737Y-50468497D01*
X56635500Y-50313842D01*
X56635500Y-50259500D01*
X56655185Y-50192461D01*
X56707989Y-50146706D01*
X56759500Y-50135500D01*
X56813844Y-50135500D01*
X56813845Y-50135499D01*
X56968497Y-50104737D01*
X57114179Y-50044394D01*
X57245289Y-49956789D01*
X57356789Y-49845289D01*
X57398547Y-49782794D01*
X57407898Y-49768800D01*
X57461510Y-49723994D01*
X57530835Y-49715287D01*
X57593862Y-49745441D01*
X57630582Y-49804884D01*
X57635000Y-49837690D01*
X57635000Y-118910499D01*
X57615315Y-118977538D01*
X57562511Y-119023293D01*
X57511000Y-119034499D01*
X7059499Y-119034499D01*
X6992460Y-119014814D01*
X6946705Y-118962010D01*
X6935499Y-118910499D01*
X6935499Y-116213710D01*
X7784499Y-116213710D01*
X7784499Y-116456287D01*
X7816160Y-116696784D01*
X7878946Y-116931103D01*
X7971772Y-117155204D01*
X7971775Y-117155211D01*
X8093063Y-117365288D01*
X8093065Y-117365291D01*
X8093066Y-117365292D01*
X8240732Y-117557735D01*
X8240738Y-117557742D01*
X8412255Y-117729259D01*
X8412261Y-117729264D01*
X8604710Y-117876935D01*
X8814787Y-117998223D01*
X9038899Y-118091053D01*
X9273210Y-118153837D01*
X9453585Y-118177583D01*
X9513710Y-118185499D01*
X9513711Y-118185499D01*
X9756288Y-118185499D01*
X9804387Y-118179166D01*
X9996788Y-118153837D01*
X10231099Y-118091053D01*
X10455211Y-117998223D01*
X10665288Y-117876935D01*
X10857737Y-117729264D01*
X11029264Y-117557737D01*
X11176935Y-117365288D01*
X11298223Y-117155211D01*
X11391053Y-116931099D01*
X11453837Y-116696788D01*
X11485499Y-116456287D01*
X11485499Y-116213711D01*
X11453837Y-115973210D01*
X11391053Y-115738899D01*
X11298223Y-115514787D01*
X11176935Y-115304710D01*
X11029264Y-115112261D01*
X11029259Y-115112255D01*
X10857742Y-114940738D01*
X10857735Y-114940732D01*
X10665292Y-114793066D01*
X10665291Y-114793065D01*
X10665288Y-114793063D01*
X10455211Y-114671775D01*
X10455204Y-114671772D01*
X10231103Y-114578946D01*
X9996784Y-114516160D01*
X9756288Y-114484499D01*
X9756287Y-114484499D01*
X9513711Y-114484499D01*
X9513710Y-114484499D01*
X9273213Y-114516160D01*
X9038894Y-114578946D01*
X8814793Y-114671772D01*
X8814784Y-114671776D01*
X8604705Y-114793066D01*
X8412262Y-114940732D01*
X8412255Y-114940738D01*
X8240738Y-115112255D01*
X8240732Y-115112262D01*
X8093066Y-115304705D01*
X7971776Y-115514784D01*
X7971772Y-115514793D01*
X7878946Y-115738894D01*
X7816160Y-115973213D01*
X7784499Y-116213710D01*
X6935499Y-116213710D01*
X6935499Y-90553856D01*
X52549500Y-90553856D01*
X52549500Y-90646143D01*
X52573387Y-90735290D01*
X52573388Y-90735293D01*
X52619526Y-90815205D01*
X52619529Y-90815209D01*
X52619531Y-90815212D01*
X52684788Y-90880469D01*
X52684791Y-90880470D01*
X52684794Y-90880473D01*
X52764706Y-90926611D01*
X52764707Y-90926611D01*
X52764712Y-90926614D01*
X52853856Y-90950500D01*
X52853858Y-90950500D01*
X52946142Y-90950500D01*
X52946144Y-90950500D01*
X53035288Y-90926614D01*
X53115212Y-90880469D01*
X53180469Y-90815212D01*
X53226614Y-90735288D01*
X53250500Y-90646144D01*
X53250500Y-90553856D01*
X53226614Y-90464712D01*
X53226611Y-90464706D01*
X53180473Y-90384794D01*
X53180470Y-90384791D01*
X53180469Y-90384788D01*
X53115212Y-90319531D01*
X53115209Y-90319529D01*
X53115205Y-90319526D01*
X53035293Y-90273388D01*
X53035290Y-90273387D01*
X53035289Y-90273386D01*
X53035288Y-90273386D01*
X52946144Y-90249500D01*
X52853856Y-90249500D01*
X52764712Y-90273386D01*
X52764711Y-90273386D01*
X52764709Y-90273387D01*
X52764706Y-90273388D01*
X52684794Y-90319526D01*
X52684785Y-90319533D01*
X52619533Y-90384785D01*
X52619526Y-90384794D01*
X52573388Y-90464706D01*
X52573387Y-90464709D01*
X52549500Y-90553856D01*
X6935499Y-90553856D01*
X6935499Y-86619672D01*
X49033879Y-86619672D01*
X49165189Y-86674063D01*
X49165195Y-86674065D01*
X49320711Y-86705000D01*
X49479288Y-86705000D01*
X49634804Y-86674065D01*
X49634806Y-86674064D01*
X49766119Y-86619672D01*
X50733879Y-86619672D01*
X50865189Y-86674063D01*
X50865195Y-86674065D01*
X51020711Y-86705000D01*
X51179288Y-86705000D01*
X51334804Y-86674065D01*
X51334806Y-86674064D01*
X51466119Y-86619672D01*
X51100001Y-86253554D01*
X51100000Y-86253554D01*
X50733879Y-86619672D01*
X49766119Y-86619672D01*
X49400001Y-86253554D01*
X49400000Y-86253554D01*
X49033879Y-86619672D01*
X6935499Y-86619672D01*
X6935499Y-85979288D01*
X48594999Y-85979288D01*
X48625934Y-86134804D01*
X48625936Y-86134810D01*
X48680326Y-86266119D01*
X49046446Y-85900000D01*
X49046446Y-85899999D01*
X49016610Y-85870163D01*
X49250000Y-85870163D01*
X49250000Y-85929837D01*
X49272836Y-85984968D01*
X49315032Y-86027164D01*
X49370163Y-86050000D01*
X49429837Y-86050000D01*
X49484968Y-86027164D01*
X49527164Y-85984968D01*
X49550000Y-85929837D01*
X49550000Y-85899999D01*
X49753554Y-85899999D01*
X49753554Y-85900001D01*
X50119672Y-86266119D01*
X50135438Y-86228057D01*
X50179279Y-86173654D01*
X50245573Y-86151589D01*
X50313273Y-86168868D01*
X50360883Y-86220006D01*
X50364560Y-86228057D01*
X50380326Y-86266119D01*
X50746446Y-85900000D01*
X50746446Y-85899999D01*
X50716610Y-85870163D01*
X50950000Y-85870163D01*
X50950000Y-85929837D01*
X50972836Y-85984968D01*
X51015032Y-86027164D01*
X51070163Y-86050000D01*
X51129837Y-86050000D01*
X51184968Y-86027164D01*
X51227164Y-85984968D01*
X51250000Y-85929837D01*
X51250000Y-85899999D01*
X51453554Y-85899999D01*
X51453554Y-85900001D01*
X51819672Y-86266119D01*
X51874064Y-86134806D01*
X51874065Y-86134804D01*
X51905000Y-85979288D01*
X51905000Y-85820711D01*
X51874065Y-85665195D01*
X51874063Y-85665189D01*
X51819672Y-85533879D01*
X51453554Y-85899999D01*
X51250000Y-85899999D01*
X51250000Y-85870163D01*
X51227164Y-85815032D01*
X51184968Y-85772836D01*
X51129837Y-85750000D01*
X51070163Y-85750000D01*
X51015032Y-85772836D01*
X50972836Y-85815032D01*
X50950000Y-85870163D01*
X50716610Y-85870163D01*
X50380326Y-85533879D01*
X50380325Y-85533879D01*
X50364560Y-85571941D01*
X50320718Y-85626345D01*
X50254424Y-85648409D01*
X50186725Y-85631129D01*
X50139115Y-85579992D01*
X50135438Y-85571940D01*
X50119672Y-85533879D01*
X49753554Y-85899999D01*
X49550000Y-85899999D01*
X49550000Y-85870163D01*
X49527164Y-85815032D01*
X49484968Y-85772836D01*
X49429837Y-85750000D01*
X49370163Y-85750000D01*
X49315032Y-85772836D01*
X49272836Y-85815032D01*
X49250000Y-85870163D01*
X49016610Y-85870163D01*
X48680326Y-85533879D01*
X48625937Y-85665185D01*
X48625934Y-85665195D01*
X48595000Y-85820711D01*
X48595000Y-85979288D01*
X48594999Y-85979288D01*
X6935499Y-85979288D01*
X6935499Y-85250000D01*
X49103554Y-85250000D01*
X49400000Y-85546446D01*
X49696446Y-85250000D01*
X50803554Y-85250000D01*
X51100000Y-85546446D01*
X51396446Y-85250000D01*
X51100000Y-84953554D01*
X50803554Y-85250000D01*
X49696446Y-85250000D01*
X49400000Y-84953554D01*
X49103554Y-85250000D01*
X6935499Y-85250000D01*
X6935499Y-84679288D01*
X48594999Y-84679288D01*
X48625934Y-84834804D01*
X48625936Y-84834810D01*
X48680326Y-84966119D01*
X49046446Y-84600000D01*
X49046446Y-84599999D01*
X49016610Y-84570163D01*
X49250000Y-84570163D01*
X49250000Y-84629837D01*
X49272836Y-84684968D01*
X49315032Y-84727164D01*
X49370163Y-84750000D01*
X49429837Y-84750000D01*
X49484968Y-84727164D01*
X49527164Y-84684968D01*
X49550000Y-84629837D01*
X49550000Y-84599999D01*
X49753554Y-84599999D01*
X49753554Y-84600001D01*
X50119672Y-84966119D01*
X50135438Y-84928057D01*
X50179279Y-84873654D01*
X50245573Y-84851589D01*
X50313273Y-84868868D01*
X50360883Y-84920006D01*
X50364560Y-84928057D01*
X50380326Y-84966119D01*
X50746446Y-84600000D01*
X50746446Y-84599999D01*
X50716610Y-84570163D01*
X50950000Y-84570163D01*
X50950000Y-84629837D01*
X50972836Y-84684968D01*
X51015032Y-84727164D01*
X51070163Y-84750000D01*
X51129837Y-84750000D01*
X51184968Y-84727164D01*
X51227164Y-84684968D01*
X51250000Y-84629837D01*
X51250000Y-84599999D01*
X51453554Y-84599999D01*
X51453554Y-84600001D01*
X51819672Y-84966119D01*
X51874064Y-84834806D01*
X51874065Y-84834804D01*
X51905000Y-84679288D01*
X51905000Y-84520711D01*
X51874065Y-84365195D01*
X51874063Y-84365189D01*
X51819672Y-84233879D01*
X51453554Y-84599999D01*
X51250000Y-84599999D01*
X51250000Y-84570163D01*
X51227164Y-84515032D01*
X51184968Y-84472836D01*
X51129837Y-84450000D01*
X51070163Y-84450000D01*
X51015032Y-84472836D01*
X50972836Y-84515032D01*
X50950000Y-84570163D01*
X50716610Y-84570163D01*
X50380326Y-84233879D01*
X50380325Y-84233879D01*
X50364560Y-84271941D01*
X50320718Y-84326345D01*
X50254424Y-84348409D01*
X50186725Y-84331129D01*
X50139115Y-84279992D01*
X50135438Y-84271940D01*
X50119672Y-84233879D01*
X49753554Y-84599999D01*
X49550000Y-84599999D01*
X49550000Y-84570163D01*
X49527164Y-84515032D01*
X49484968Y-84472836D01*
X49429837Y-84450000D01*
X49370163Y-84450000D01*
X49315032Y-84472836D01*
X49272836Y-84515032D01*
X49250000Y-84570163D01*
X49016610Y-84570163D01*
X48680326Y-84233879D01*
X48625937Y-84365185D01*
X48625934Y-84365195D01*
X48595000Y-84520711D01*
X48595000Y-84679288D01*
X48594999Y-84679288D01*
X6935499Y-84679288D01*
X6935499Y-83880326D01*
X49033879Y-83880326D01*
X49400000Y-84246446D01*
X49400001Y-84246446D01*
X49766119Y-83880326D01*
X50733879Y-83880326D01*
X51100000Y-84246446D01*
X51100001Y-84246446D01*
X51466119Y-83880326D01*
X51345321Y-83830290D01*
X51334810Y-83825936D01*
X51334804Y-83825934D01*
X51179288Y-83795000D01*
X51020712Y-83795000D01*
X50865195Y-83825934D01*
X50865185Y-83825937D01*
X50733879Y-83880326D01*
X49766119Y-83880326D01*
X49634810Y-83825936D01*
X49634804Y-83825934D01*
X49479288Y-83795000D01*
X49320712Y-83795000D01*
X49165195Y-83825934D01*
X49165185Y-83825937D01*
X49033879Y-83880326D01*
X6935499Y-83880326D01*
X6935499Y-83723856D01*
X52549500Y-83723856D01*
X52549500Y-83816144D01*
X52566697Y-83880326D01*
X52573387Y-83905290D01*
X52573388Y-83905293D01*
X52619526Y-83985205D01*
X52619529Y-83985209D01*
X52619531Y-83985212D01*
X52684788Y-84050469D01*
X52684791Y-84050470D01*
X52684794Y-84050473D01*
X52764706Y-84096611D01*
X52764707Y-84096611D01*
X52764712Y-84096614D01*
X52853856Y-84120500D01*
X52853858Y-84120500D01*
X52946142Y-84120500D01*
X52946144Y-84120500D01*
X53035288Y-84096614D01*
X53115212Y-84050469D01*
X53180469Y-83985212D01*
X53226614Y-83905288D01*
X53250500Y-83816144D01*
X53250500Y-83723856D01*
X53226614Y-83634712D01*
X53192139Y-83575000D01*
X53180473Y-83554794D01*
X53180470Y-83554791D01*
X53180469Y-83554788D01*
X53115212Y-83489531D01*
X53115209Y-83489529D01*
X53115205Y-83489526D01*
X53035293Y-83443388D01*
X53035290Y-83443387D01*
X53035289Y-83443386D01*
X53035288Y-83443386D01*
X52946144Y-83419500D01*
X52853856Y-83419500D01*
X52764712Y-83443386D01*
X52764711Y-83443386D01*
X52764709Y-83443387D01*
X52764706Y-83443388D01*
X52684794Y-83489526D01*
X52684785Y-83489533D01*
X52619533Y-83554785D01*
X52619526Y-83554794D01*
X52573388Y-83634706D01*
X52573387Y-83634709D01*
X52573386Y-83634711D01*
X52573386Y-83634712D01*
X52549500Y-83723856D01*
X6935499Y-83723856D01*
X6935499Y-81763575D01*
X8635000Y-81763575D01*
X8635000Y-81986424D01*
X8664085Y-82207354D01*
X8664088Y-82207367D01*
X8721763Y-82422618D01*
X8807045Y-82628502D01*
X8807054Y-82628520D01*
X8918464Y-82821491D01*
X8918473Y-82821504D01*
X8969040Y-82887403D01*
X8969043Y-82887403D01*
X9619154Y-82237291D01*
X9626051Y-82253941D01*
X9713601Y-82384969D01*
X9825031Y-82496399D01*
X9956059Y-82583949D01*
X9972707Y-82590844D01*
X9322595Y-83240955D01*
X9322595Y-83240956D01*
X9388507Y-83291533D01*
X9581485Y-83402949D01*
X9581497Y-83402954D01*
X9787381Y-83488236D01*
X10002632Y-83545911D01*
X10002645Y-83545914D01*
X10223575Y-83575000D01*
X10446425Y-83575000D01*
X10667354Y-83545914D01*
X10667367Y-83545911D01*
X10882618Y-83488236D01*
X11088502Y-83402954D01*
X11088514Y-83402949D01*
X11281498Y-83291530D01*
X11347403Y-83240957D01*
X11347404Y-83240956D01*
X10697292Y-82590845D01*
X10713941Y-82583949D01*
X10844969Y-82496399D01*
X10956399Y-82384969D01*
X11043949Y-82253941D01*
X11050845Y-82237292D01*
X11700956Y-82887404D01*
X11700957Y-82887403D01*
X11751530Y-82821498D01*
X11862949Y-82628514D01*
X11862954Y-82628502D01*
X11948236Y-82422618D01*
X12005911Y-82207367D01*
X12005914Y-82207354D01*
X12035000Y-81986424D01*
X12035000Y-81763575D01*
X12005914Y-81542645D01*
X12005911Y-81542632D01*
X11948236Y-81327381D01*
X11862954Y-81121497D01*
X11862949Y-81121485D01*
X11751533Y-80928507D01*
X11700956Y-80862595D01*
X11700955Y-80862595D01*
X11050844Y-81512706D01*
X11043949Y-81496059D01*
X10956399Y-81365031D01*
X10844969Y-81253601D01*
X10713941Y-81166051D01*
X10697291Y-81159154D01*
X11347403Y-80509043D01*
X11347403Y-80509040D01*
X11281504Y-80458473D01*
X11281491Y-80458464D01*
X11088520Y-80347054D01*
X11088502Y-80347045D01*
X10882618Y-80261763D01*
X10667367Y-80204088D01*
X10667354Y-80204085D01*
X10446425Y-80175000D01*
X10223575Y-80175000D01*
X10002645Y-80204085D01*
X10002632Y-80204088D01*
X9787381Y-80261763D01*
X9581497Y-80347045D01*
X9581479Y-80347054D01*
X9388511Y-80458462D01*
X9322595Y-80509042D01*
X9972708Y-81159154D01*
X9956059Y-81166051D01*
X9825031Y-81253601D01*
X9713601Y-81365031D01*
X9626051Y-81496059D01*
X9619154Y-81512707D01*
X8969042Y-80862595D01*
X8918462Y-80928511D01*
X8807054Y-81121479D01*
X8807045Y-81121497D01*
X8721763Y-81327381D01*
X8664088Y-81542632D01*
X8664085Y-81542645D01*
X8635000Y-81763575D01*
X6935499Y-81763575D01*
X6935499Y-76683549D01*
X8634500Y-76683549D01*
X8634500Y-76906450D01*
X8634501Y-76906466D01*
X8663594Y-77127452D01*
X8663595Y-77127457D01*
X8663596Y-77127463D01*
X8663597Y-77127465D01*
X8721290Y-77342780D01*
X8721293Y-77342790D01*
X8806593Y-77548722D01*
X8806595Y-77548726D01*
X8918052Y-77741774D01*
X8918057Y-77741780D01*
X8918058Y-77741782D01*
X9053751Y-77918622D01*
X9053757Y-77918629D01*
X9211370Y-78076242D01*
X9211376Y-78076247D01*
X9388226Y-78211948D01*
X9581274Y-78323405D01*
X9787219Y-78408710D01*
X10002537Y-78466404D01*
X10223543Y-78495500D01*
X10223550Y-78495500D01*
X10446450Y-78495500D01*
X10446457Y-78495500D01*
X10667463Y-78466404D01*
X10882781Y-78408710D01*
X11088726Y-78323405D01*
X11281774Y-78211948D01*
X11458624Y-78076247D01*
X11616247Y-77918624D01*
X11751948Y-77741774D01*
X11863405Y-77548726D01*
X11948710Y-77342781D01*
X12006404Y-77127463D01*
X12035500Y-76906457D01*
X12035500Y-76683543D01*
X12006404Y-76462537D01*
X11948710Y-76247219D01*
X11948705Y-76247209D01*
X11948704Y-76247203D01*
X11875856Y-76071332D01*
X11875840Y-76071294D01*
X11863406Y-76041277D01*
X11863405Y-76041274D01*
X11856152Y-76028712D01*
X31434499Y-76028712D01*
X31434499Y-76241286D01*
X31467753Y-76451242D01*
X31471426Y-76462547D01*
X31533443Y-76653413D01*
X31629950Y-76842819D01*
X31754889Y-77014785D01*
X31905212Y-77165108D01*
X32077178Y-77290047D01*
X32077180Y-77290048D01*
X32077183Y-77290050D01*
X32266587Y-77386556D01*
X32468756Y-77452245D01*
X32678712Y-77485499D01*
X32678713Y-77485499D01*
X32891285Y-77485499D01*
X32891286Y-77485499D01*
X33101242Y-77452245D01*
X33303411Y-77386556D01*
X33492815Y-77290050D01*
X33514788Y-77274085D01*
X33664785Y-77165108D01*
X33664787Y-77165105D01*
X33664791Y-77165103D01*
X33815103Y-77014791D01*
X33815105Y-77014787D01*
X33815108Y-77014785D01*
X33940047Y-76842819D01*
X33940046Y-76842819D01*
X33940050Y-76842815D01*
X34036556Y-76653411D01*
X34102245Y-76451242D01*
X34135499Y-76241286D01*
X34135499Y-76028712D01*
X34102245Y-75818756D01*
X34036556Y-75616587D01*
X33940050Y-75427183D01*
X33940048Y-75427180D01*
X33940047Y-75427178D01*
X33815108Y-75255212D01*
X33664785Y-75104889D01*
X33492819Y-74979950D01*
X33303413Y-74883443D01*
X33303412Y-74883442D01*
X33303411Y-74883442D01*
X33101242Y-74817753D01*
X33101240Y-74817752D01*
X33101239Y-74817752D01*
X32939956Y-74792207D01*
X32891286Y-74784499D01*
X32678712Y-74784499D01*
X32630041Y-74792207D01*
X32468759Y-74817752D01*
X32468756Y-74817753D01*
X32287608Y-74876612D01*
X32266584Y-74883443D01*
X32077178Y-74979950D01*
X31905212Y-75104889D01*
X31754889Y-75255212D01*
X31629950Y-75427178D01*
X31533443Y-75616584D01*
X31467752Y-75818759D01*
X31463085Y-75848226D01*
X31434499Y-76028712D01*
X11856152Y-76028712D01*
X11751948Y-75848226D01*
X11616247Y-75671376D01*
X11616242Y-75671370D01*
X11458629Y-75513757D01*
X11458622Y-75513751D01*
X11281782Y-75378058D01*
X11281780Y-75378057D01*
X11281774Y-75378052D01*
X11088726Y-75266595D01*
X11088722Y-75266593D01*
X10882790Y-75181293D01*
X10882783Y-75181291D01*
X10882781Y-75181290D01*
X10667463Y-75123596D01*
X10667457Y-75123595D01*
X10667452Y-75123594D01*
X10446466Y-75094501D01*
X10446463Y-75094500D01*
X10446457Y-75094500D01*
X10223543Y-75094500D01*
X10223537Y-75094500D01*
X10223533Y-75094501D01*
X10002547Y-75123594D01*
X10002540Y-75123595D01*
X10002537Y-75123596D01*
X9787219Y-75181290D01*
X9787209Y-75181293D01*
X9581277Y-75266593D01*
X9581273Y-75266595D01*
X9388226Y-75378052D01*
X9388217Y-75378058D01*
X9211377Y-75513751D01*
X9211370Y-75513757D01*
X9053757Y-75671370D01*
X9053751Y-75671377D01*
X8918058Y-75848217D01*
X8918052Y-75848226D01*
X8806595Y-76041273D01*
X8806593Y-76041277D01*
X8721293Y-76247209D01*
X8721290Y-76247219D01*
X8666623Y-76451242D01*
X8663597Y-76462534D01*
X8663594Y-76462547D01*
X8634501Y-76683533D01*
X8634500Y-76683549D01*
X6935499Y-76683549D01*
X6935499Y-74503856D01*
X30516500Y-74503856D01*
X30516500Y-74596143D01*
X30540387Y-74685290D01*
X30540388Y-74685293D01*
X30586526Y-74765205D01*
X30586529Y-74765209D01*
X30586531Y-74765212D01*
X30651788Y-74830469D01*
X30651791Y-74830470D01*
X30651794Y-74830473D01*
X30731706Y-74876611D01*
X30731707Y-74876611D01*
X30731712Y-74876614D01*
X30820856Y-74900500D01*
X30820858Y-74900500D01*
X30913142Y-74900500D01*
X30913144Y-74900500D01*
X31002288Y-74876614D01*
X31082212Y-74830469D01*
X31147469Y-74765212D01*
X31193614Y-74685288D01*
X31217500Y-74596144D01*
X31217500Y-74503856D01*
X31193614Y-74414712D01*
X31193611Y-74414706D01*
X31147473Y-74334794D01*
X31147470Y-74334791D01*
X31147469Y-74334788D01*
X31082212Y-74269531D01*
X31082209Y-74269529D01*
X31082205Y-74269526D01*
X31002293Y-74223388D01*
X31002290Y-74223387D01*
X31002289Y-74223386D01*
X31002288Y-74223386D01*
X30913144Y-74199500D01*
X30820856Y-74199500D01*
X30731712Y-74223386D01*
X30731711Y-74223386D01*
X30731709Y-74223387D01*
X30731706Y-74223388D01*
X30651794Y-74269526D01*
X30651785Y-74269533D01*
X30586533Y-74334785D01*
X30586526Y-74334794D01*
X30540388Y-74414706D01*
X30540387Y-74414709D01*
X30516500Y-74503856D01*
X6935499Y-74503856D01*
X6935499Y-69521856D01*
X25534500Y-69521856D01*
X25534500Y-69614144D01*
X25545756Y-69656153D01*
X25558387Y-69703290D01*
X25558388Y-69703293D01*
X25604526Y-69783205D01*
X25604529Y-69783209D01*
X25604531Y-69783212D01*
X25669788Y-69848469D01*
X25669791Y-69848470D01*
X25669794Y-69848473D01*
X25749706Y-69894611D01*
X25749707Y-69894611D01*
X25749712Y-69894614D01*
X25838856Y-69918500D01*
X25838858Y-69918500D01*
X25931142Y-69918500D01*
X25931144Y-69918500D01*
X26020288Y-69894614D01*
X26100212Y-69848469D01*
X26165469Y-69783212D01*
X26211614Y-69703288D01*
X26224244Y-69656153D01*
X48734500Y-69656153D01*
X48734500Y-69813846D01*
X48765261Y-69968489D01*
X48765264Y-69968501D01*
X48825604Y-70114177D01*
X48825605Y-70114179D01*
X48826899Y-70116115D01*
X48827264Y-70117282D01*
X48828476Y-70119549D01*
X48828045Y-70119778D01*
X48847773Y-70182794D01*
X48829285Y-70250173D01*
X48826899Y-70253885D01*
X48825605Y-70255820D01*
X48825604Y-70255822D01*
X48765264Y-70401498D01*
X48765261Y-70401510D01*
X48734500Y-70556153D01*
X48734500Y-70713846D01*
X48765261Y-70868489D01*
X48765264Y-70868501D01*
X48825602Y-71014172D01*
X48825609Y-71014185D01*
X48913210Y-71145288D01*
X48913213Y-71145292D01*
X49024707Y-71256786D01*
X49024711Y-71256789D01*
X49155814Y-71344390D01*
X49155827Y-71344397D01*
X49301498Y-71404735D01*
X49301503Y-71404737D01*
X49430368Y-71430370D01*
X49456153Y-71435499D01*
X49456156Y-71435500D01*
X49510500Y-71435500D01*
X49577539Y-71455185D01*
X49623294Y-71507989D01*
X49634500Y-71559500D01*
X49634500Y-71613846D01*
X49665261Y-71768489D01*
X49665264Y-71768501D01*
X49725602Y-71914172D01*
X49725609Y-71914185D01*
X49813210Y-72045288D01*
X49813213Y-72045292D01*
X49924707Y-72156786D01*
X49924711Y-72156789D01*
X50055814Y-72244390D01*
X50055827Y-72244397D01*
X50201498Y-72304735D01*
X50201503Y-72304737D01*
X50356153Y-72335499D01*
X50356156Y-72335500D01*
X50356158Y-72335500D01*
X50513844Y-72335500D01*
X50513845Y-72335499D01*
X50668497Y-72304737D01*
X50814179Y-72244394D01*
X50816110Y-72243103D01*
X50817276Y-72242737D01*
X50819546Y-72241525D01*
X50819776Y-72241955D01*
X50882786Y-72222226D01*
X50950166Y-72240710D01*
X50953850Y-72243077D01*
X50955821Y-72244394D01*
X50955824Y-72244395D01*
X50955827Y-72244397D01*
X51101498Y-72304735D01*
X51101503Y-72304737D01*
X51256153Y-72335499D01*
X51256156Y-72335500D01*
X51256158Y-72335500D01*
X51413844Y-72335500D01*
X51413845Y-72335499D01*
X51568497Y-72304737D01*
X51714179Y-72244394D01*
X51716110Y-72243103D01*
X51717276Y-72242737D01*
X51719546Y-72241525D01*
X51719776Y-72241955D01*
X51782786Y-72222226D01*
X51850166Y-72240710D01*
X51853850Y-72243077D01*
X51855821Y-72244394D01*
X51855824Y-72244395D01*
X51855827Y-72244397D01*
X52001498Y-72304735D01*
X52001503Y-72304737D01*
X52156153Y-72335499D01*
X52156156Y-72335500D01*
X52156158Y-72335500D01*
X52313844Y-72335500D01*
X52313845Y-72335499D01*
X52468497Y-72304737D01*
X52614179Y-72244394D01*
X52616110Y-72243103D01*
X52617276Y-72242737D01*
X52619546Y-72241525D01*
X52619776Y-72241955D01*
X52682786Y-72222226D01*
X52750166Y-72240710D01*
X52753850Y-72243077D01*
X52755821Y-72244394D01*
X52755824Y-72244395D01*
X52755827Y-72244397D01*
X52901498Y-72304735D01*
X52901503Y-72304737D01*
X53056153Y-72335499D01*
X53056156Y-72335500D01*
X53056158Y-72335500D01*
X53213844Y-72335500D01*
X53213845Y-72335499D01*
X53368497Y-72304737D01*
X53514179Y-72244394D01*
X53516110Y-72243103D01*
X53517276Y-72242737D01*
X53519546Y-72241525D01*
X53519776Y-72241955D01*
X53582786Y-72222226D01*
X53650166Y-72240710D01*
X53653850Y-72243077D01*
X53655821Y-72244394D01*
X53655824Y-72244395D01*
X53655827Y-72244397D01*
X53801498Y-72304735D01*
X53801503Y-72304737D01*
X53956153Y-72335499D01*
X53956156Y-72335500D01*
X53956158Y-72335500D01*
X54113844Y-72335500D01*
X54113845Y-72335499D01*
X54268497Y-72304737D01*
X54414179Y-72244394D01*
X54416110Y-72243103D01*
X54417276Y-72242737D01*
X54419546Y-72241525D01*
X54419776Y-72241955D01*
X54482786Y-72222226D01*
X54550166Y-72240710D01*
X54553850Y-72243077D01*
X54555821Y-72244394D01*
X54555824Y-72244395D01*
X54555827Y-72244397D01*
X54701498Y-72304735D01*
X54701503Y-72304737D01*
X54856153Y-72335499D01*
X54856156Y-72335500D01*
X54856158Y-72335500D01*
X55013844Y-72335500D01*
X55013845Y-72335499D01*
X55168497Y-72304737D01*
X55314179Y-72244394D01*
X55316110Y-72243103D01*
X55317276Y-72242737D01*
X55319546Y-72241525D01*
X55319776Y-72241955D01*
X55382786Y-72222226D01*
X55450166Y-72240710D01*
X55453850Y-72243077D01*
X55455821Y-72244394D01*
X55455824Y-72244395D01*
X55455827Y-72244397D01*
X55601498Y-72304735D01*
X55601503Y-72304737D01*
X55756153Y-72335499D01*
X55756156Y-72335500D01*
X55756158Y-72335500D01*
X55913844Y-72335500D01*
X55913845Y-72335499D01*
X56068497Y-72304737D01*
X56214179Y-72244394D01*
X56345289Y-72156789D01*
X56456789Y-72045289D01*
X56544394Y-71914179D01*
X56604737Y-71768497D01*
X56635500Y-71613842D01*
X56635500Y-71456158D01*
X56635500Y-71456155D01*
X56635499Y-71456153D01*
X56613269Y-71344397D01*
X56604737Y-71301503D01*
X56586215Y-71256786D01*
X56544397Y-71155827D01*
X56544395Y-71155824D01*
X56544394Y-71155821D01*
X56543103Y-71153889D01*
X56542737Y-71152723D01*
X56541525Y-71150454D01*
X56541955Y-71150223D01*
X56522226Y-71087214D01*
X56540710Y-71019834D01*
X56543077Y-71016149D01*
X56544394Y-71014179D01*
X56604737Y-70868497D01*
X56635500Y-70713842D01*
X56635500Y-70556158D01*
X56635500Y-70556155D01*
X56635499Y-70556153D01*
X56604738Y-70401510D01*
X56604737Y-70401503D01*
X56604735Y-70401498D01*
X56544397Y-70255827D01*
X56544390Y-70255814D01*
X56456789Y-70124711D01*
X56456786Y-70124707D01*
X56345292Y-70013213D01*
X56345288Y-70013210D01*
X56214185Y-69925609D01*
X56214172Y-69925602D01*
X56068501Y-69865264D01*
X56068489Y-69865261D01*
X55913845Y-69834500D01*
X55913842Y-69834500D01*
X55756158Y-69834500D01*
X55756155Y-69834500D01*
X55601510Y-69865261D01*
X55601498Y-69865264D01*
X55455822Y-69925604D01*
X55455820Y-69925605D01*
X55453885Y-69926899D01*
X55452717Y-69927264D01*
X55450451Y-69928476D01*
X55450221Y-69928045D01*
X55387206Y-69947773D01*
X55319827Y-69929285D01*
X55316115Y-69926899D01*
X55314179Y-69925605D01*
X55314177Y-69925604D01*
X55168501Y-69865264D01*
X55168489Y-69865261D01*
X55013845Y-69834500D01*
X55013842Y-69834500D01*
X54856158Y-69834500D01*
X54856155Y-69834500D01*
X54701510Y-69865261D01*
X54701498Y-69865264D01*
X54555822Y-69925604D01*
X54555820Y-69925605D01*
X54553885Y-69926899D01*
X54552717Y-69927264D01*
X54550451Y-69928476D01*
X54550221Y-69928045D01*
X54487206Y-69947773D01*
X54419827Y-69929285D01*
X54416115Y-69926899D01*
X54414179Y-69925605D01*
X54414177Y-69925604D01*
X54268501Y-69865264D01*
X54268489Y-69865261D01*
X54113845Y-69834500D01*
X54113842Y-69834500D01*
X53956158Y-69834500D01*
X53956155Y-69834500D01*
X53801510Y-69865261D01*
X53801498Y-69865264D01*
X53655822Y-69925604D01*
X53655820Y-69925605D01*
X53653885Y-69926899D01*
X53652717Y-69927264D01*
X53650451Y-69928476D01*
X53650221Y-69928045D01*
X53587206Y-69947773D01*
X53519827Y-69929285D01*
X53516115Y-69926899D01*
X53514179Y-69925605D01*
X53514177Y-69925604D01*
X53368501Y-69865264D01*
X53368489Y-69865261D01*
X53213845Y-69834500D01*
X53213842Y-69834500D01*
X53056158Y-69834500D01*
X53056155Y-69834500D01*
X52901510Y-69865261D01*
X52901498Y-69865264D01*
X52755822Y-69925604D01*
X52755820Y-69925605D01*
X52753885Y-69926899D01*
X52752717Y-69927264D01*
X52750451Y-69928476D01*
X52750221Y-69928045D01*
X52687206Y-69947773D01*
X52619827Y-69929285D01*
X52616115Y-69926899D01*
X52614179Y-69925605D01*
X52614177Y-69925604D01*
X52468501Y-69865264D01*
X52468489Y-69865261D01*
X52313845Y-69834500D01*
X52313842Y-69834500D01*
X52156158Y-69834500D01*
X52156155Y-69834500D01*
X52001510Y-69865261D01*
X52001498Y-69865264D01*
X51855822Y-69925604D01*
X51855820Y-69925605D01*
X51853885Y-69926899D01*
X51852717Y-69927264D01*
X51850451Y-69928476D01*
X51850221Y-69928045D01*
X51787206Y-69947773D01*
X51719827Y-69929285D01*
X51716115Y-69926899D01*
X51714179Y-69925605D01*
X51714177Y-69925604D01*
X51568501Y-69865264D01*
X51568489Y-69865261D01*
X51413845Y-69834500D01*
X51413842Y-69834500D01*
X51256158Y-69834500D01*
X51256155Y-69834500D01*
X51101510Y-69865261D01*
X51101498Y-69865264D01*
X50955822Y-69925604D01*
X50955820Y-69925605D01*
X50953885Y-69926899D01*
X50952717Y-69927264D01*
X50950451Y-69928476D01*
X50950221Y-69928045D01*
X50887206Y-69947773D01*
X50819827Y-69929285D01*
X50816115Y-69926899D01*
X50814179Y-69925605D01*
X50814177Y-69925604D01*
X50668501Y-69865264D01*
X50668489Y-69865261D01*
X50513845Y-69834500D01*
X50513842Y-69834500D01*
X50459500Y-69834500D01*
X50392461Y-69814815D01*
X50346706Y-69762011D01*
X50335500Y-69710500D01*
X50335500Y-69656155D01*
X50335499Y-69656153D01*
X50304738Y-69501510D01*
X50304737Y-69501503D01*
X50276241Y-69432706D01*
X50244397Y-69355827D01*
X50244390Y-69355814D01*
X50156789Y-69224711D01*
X50156786Y-69224707D01*
X50045292Y-69113213D01*
X50045288Y-69113210D01*
X49914185Y-69025609D01*
X49914172Y-69025602D01*
X49768501Y-68965264D01*
X49768489Y-68965261D01*
X49613845Y-68934500D01*
X49613842Y-68934500D01*
X49456158Y-68934500D01*
X49456155Y-68934500D01*
X49301510Y-68965261D01*
X49301498Y-68965264D01*
X49155827Y-69025602D01*
X49155814Y-69025609D01*
X49024711Y-69113210D01*
X49024707Y-69113213D01*
X48913213Y-69224707D01*
X48913210Y-69224711D01*
X48825609Y-69355814D01*
X48825602Y-69355827D01*
X48765264Y-69501498D01*
X48765261Y-69501510D01*
X48734500Y-69656153D01*
X26224244Y-69656153D01*
X26235500Y-69614144D01*
X26235500Y-69521856D01*
X26211614Y-69432712D01*
X26167224Y-69355827D01*
X26165473Y-69352794D01*
X26165470Y-69352791D01*
X26165469Y-69352788D01*
X26100212Y-69287531D01*
X26100209Y-69287529D01*
X26100205Y-69287526D01*
X26020293Y-69241388D01*
X26020290Y-69241387D01*
X26020289Y-69241386D01*
X26020288Y-69241386D01*
X25931144Y-69217500D01*
X25838856Y-69217500D01*
X25749712Y-69241386D01*
X25749711Y-69241386D01*
X25749709Y-69241387D01*
X25749706Y-69241388D01*
X25669794Y-69287526D01*
X25669785Y-69287533D01*
X25604533Y-69352785D01*
X25604526Y-69352794D01*
X25558388Y-69432706D01*
X25558387Y-69432709D01*
X25558386Y-69432711D01*
X25558386Y-69432712D01*
X25534500Y-69521856D01*
X6935499Y-69521856D01*
X6935499Y-63153856D01*
X29499500Y-63153856D01*
X29499500Y-63246143D01*
X29523387Y-63335290D01*
X29523388Y-63335293D01*
X29569526Y-63415205D01*
X29569529Y-63415209D01*
X29569531Y-63415212D01*
X29634788Y-63480469D01*
X29634791Y-63480470D01*
X29634794Y-63480473D01*
X29714706Y-63526611D01*
X29714707Y-63526611D01*
X29714712Y-63526614D01*
X29803856Y-63550500D01*
X29803858Y-63550500D01*
X29896142Y-63550500D01*
X29896144Y-63550500D01*
X29985288Y-63526614D01*
X30065212Y-63480469D01*
X30130469Y-63415212D01*
X30176614Y-63335288D01*
X30200500Y-63246144D01*
X30200500Y-63153856D01*
X30176614Y-63064712D01*
X30176611Y-63064706D01*
X30130473Y-62984794D01*
X30130470Y-62984791D01*
X30130469Y-62984788D01*
X30065212Y-62919531D01*
X30065209Y-62919529D01*
X30058763Y-62914583D01*
X30060330Y-62912540D01*
X30020965Y-62871259D01*
X30007739Y-62802653D01*
X30033704Y-62737787D01*
X30069178Y-62707047D01*
X30115212Y-62680469D01*
X30180469Y-62615212D01*
X30226614Y-62535288D01*
X30250500Y-62446144D01*
X30250500Y-62353856D01*
X30226614Y-62264712D01*
X30226611Y-62264706D01*
X30180473Y-62184794D01*
X30180470Y-62184791D01*
X30180469Y-62184788D01*
X30115212Y-62119531D01*
X30115209Y-62119529D01*
X30115205Y-62119526D01*
X30035293Y-62073388D01*
X30035290Y-62073387D01*
X30035289Y-62073386D01*
X30035288Y-62073386D01*
X29946144Y-62049500D01*
X29853856Y-62049500D01*
X29764712Y-62073386D01*
X29764711Y-62073386D01*
X29764709Y-62073387D01*
X29764706Y-62073388D01*
X29684794Y-62119526D01*
X29684785Y-62119533D01*
X29619533Y-62184785D01*
X29619526Y-62184794D01*
X29573388Y-62264706D01*
X29573387Y-62264709D01*
X29549500Y-62353856D01*
X29549500Y-62446143D01*
X29573387Y-62535290D01*
X29573388Y-62535293D01*
X29619526Y-62615205D01*
X29619529Y-62615209D01*
X29619531Y-62615212D01*
X29684788Y-62680469D01*
X29684791Y-62680471D01*
X29691237Y-62685417D01*
X29689668Y-62687461D01*
X29729028Y-62728728D01*
X29742261Y-62797333D01*
X29716303Y-62862202D01*
X29680824Y-62892951D01*
X29634788Y-62919531D01*
X29634785Y-62919533D01*
X29569533Y-62984785D01*
X29569526Y-62984794D01*
X29523388Y-63064706D01*
X29523387Y-63064709D01*
X29499500Y-63153856D01*
X6935499Y-63153856D01*
X6935499Y-61053856D01*
X29349500Y-61053856D01*
X29349500Y-61146143D01*
X29373387Y-61235290D01*
X29373388Y-61235293D01*
X29419526Y-61315205D01*
X29419529Y-61315209D01*
X29419531Y-61315212D01*
X29484788Y-61380469D01*
X29484791Y-61380470D01*
X29484794Y-61380473D01*
X29564706Y-61426611D01*
X29564707Y-61426611D01*
X29564712Y-61426614D01*
X29653856Y-61450500D01*
X29653858Y-61450500D01*
X29746142Y-61450500D01*
X29746144Y-61450500D01*
X29835288Y-61426614D01*
X29915212Y-61380469D01*
X29980469Y-61315212D01*
X30026614Y-61235288D01*
X30050500Y-61146144D01*
X30050500Y-61053856D01*
X30026614Y-60964712D01*
X30009626Y-60935288D01*
X29980473Y-60884794D01*
X29980470Y-60884791D01*
X29980469Y-60884788D01*
X29915212Y-60819531D01*
X29915209Y-60819529D01*
X29915205Y-60819526D01*
X29835293Y-60773388D01*
X29835290Y-60773387D01*
X29835289Y-60773386D01*
X29835288Y-60773386D01*
X29762401Y-60753856D01*
X31849500Y-60753856D01*
X31849500Y-60846144D01*
X31859856Y-60884794D01*
X31873387Y-60935290D01*
X31873388Y-60935293D01*
X31919526Y-61015205D01*
X31919529Y-61015209D01*
X31919531Y-61015212D01*
X31984788Y-61080469D01*
X31984791Y-61080470D01*
X31984794Y-61080473D01*
X32064706Y-61126611D01*
X32064707Y-61126611D01*
X32064712Y-61126614D01*
X32153856Y-61150500D01*
X32153858Y-61150500D01*
X32246142Y-61150500D01*
X32246144Y-61150500D01*
X32335288Y-61126614D01*
X32415212Y-61080469D01*
X32480469Y-61015212D01*
X32526614Y-60935288D01*
X32550500Y-60846144D01*
X32550500Y-60753856D01*
X32526614Y-60664712D01*
X32526611Y-60664706D01*
X32480473Y-60584794D01*
X32480470Y-60584791D01*
X32480469Y-60584788D01*
X32415212Y-60519531D01*
X32415209Y-60519529D01*
X32415205Y-60519526D01*
X32335293Y-60473388D01*
X32335290Y-60473387D01*
X32335289Y-60473386D01*
X32335288Y-60473386D01*
X32246144Y-60449500D01*
X32153856Y-60449500D01*
X32064712Y-60473386D01*
X32064711Y-60473386D01*
X32064709Y-60473387D01*
X32064706Y-60473388D01*
X31984794Y-60519526D01*
X31984785Y-60519533D01*
X31919533Y-60584785D01*
X31919526Y-60584794D01*
X31873388Y-60664706D01*
X31873387Y-60664709D01*
X31873386Y-60664711D01*
X31873386Y-60664712D01*
X31849500Y-60753856D01*
X29762401Y-60753856D01*
X29746144Y-60749500D01*
X29653856Y-60749500D01*
X29564712Y-60773386D01*
X29564711Y-60773386D01*
X29564709Y-60773387D01*
X29564706Y-60773388D01*
X29484794Y-60819526D01*
X29484785Y-60819533D01*
X29419533Y-60884785D01*
X29419526Y-60884794D01*
X29373388Y-60964706D01*
X29373387Y-60964709D01*
X29373386Y-60964711D01*
X29373386Y-60964712D01*
X29359855Y-61015212D01*
X29349500Y-61053856D01*
X6935499Y-61053856D01*
X6935499Y-50578712D01*
X31534499Y-50578712D01*
X31534499Y-50791285D01*
X31558749Y-50944397D01*
X31567753Y-51001242D01*
X31619174Y-51159500D01*
X31633443Y-51203413D01*
X31729950Y-51392819D01*
X31854889Y-51564785D01*
X32005212Y-51715108D01*
X32177178Y-51840047D01*
X32177180Y-51840048D01*
X32177183Y-51840050D01*
X32366587Y-51936556D01*
X32568756Y-52002245D01*
X32778712Y-52035499D01*
X32778713Y-52035499D01*
X32991285Y-52035499D01*
X32991286Y-52035499D01*
X33201242Y-52002245D01*
X33403411Y-51936556D01*
X33592815Y-51840050D01*
X33707419Y-51756786D01*
X33764785Y-51715108D01*
X33764787Y-51715105D01*
X33764791Y-51715103D01*
X33915103Y-51564791D01*
X33915105Y-51564787D01*
X33915108Y-51564785D01*
X34040047Y-51392819D01*
X34040046Y-51392819D01*
X34040050Y-51392815D01*
X34136556Y-51203411D01*
X34202245Y-51001242D01*
X34235499Y-50791286D01*
X34235499Y-50578712D01*
X34202245Y-50368756D01*
X34136556Y-50166587D01*
X34040050Y-49977183D01*
X34040048Y-49977180D01*
X34040047Y-49977178D01*
X33915108Y-49805212D01*
X33764785Y-49654889D01*
X33592819Y-49529950D01*
X33403413Y-49433443D01*
X33403412Y-49433442D01*
X33403411Y-49433442D01*
X33201242Y-49367753D01*
X33201240Y-49367752D01*
X33201239Y-49367752D01*
X33039956Y-49342207D01*
X32991286Y-49334499D01*
X32778712Y-49334499D01*
X32730041Y-49342207D01*
X32568759Y-49367752D01*
X32366584Y-49433443D01*
X32177178Y-49529950D01*
X32005212Y-49654889D01*
X31854889Y-49805212D01*
X31729950Y-49977178D01*
X31633443Y-50166584D01*
X31567752Y-50368759D01*
X31534499Y-50578712D01*
X6935499Y-50578712D01*
X6935499Y-42213710D01*
X7784499Y-42213710D01*
X7784499Y-42456287D01*
X7816160Y-42696784D01*
X7878946Y-42931103D01*
X7971772Y-43155204D01*
X7971775Y-43155211D01*
X8093063Y-43365288D01*
X8093065Y-43365291D01*
X8093066Y-43365292D01*
X8240732Y-43557735D01*
X8240738Y-43557742D01*
X8412255Y-43729259D01*
X8412261Y-43729264D01*
X8604710Y-43876935D01*
X8814787Y-43998223D01*
X9038899Y-44091053D01*
X9273210Y-44153837D01*
X9453585Y-44177583D01*
X9513710Y-44185499D01*
X9513711Y-44185499D01*
X9756288Y-44185499D01*
X9804387Y-44179166D01*
X9996788Y-44153837D01*
X10231099Y-44091053D01*
X10455211Y-43998223D01*
X10665288Y-43876935D01*
X10857737Y-43729264D01*
X11029264Y-43557737D01*
X11176935Y-43365288D01*
X11298223Y-43155211D01*
X11391053Y-42931099D01*
X11453837Y-42696788D01*
X11485499Y-42456287D01*
X11485499Y-42213711D01*
X11453837Y-41973210D01*
X11391053Y-41738899D01*
X11298223Y-41514787D01*
X11176935Y-41304710D01*
X11029264Y-41112261D01*
X11029259Y-41112255D01*
X10857742Y-40940738D01*
X10857735Y-40940732D01*
X10665292Y-40793066D01*
X10665291Y-40793065D01*
X10665288Y-40793063D01*
X10455211Y-40671775D01*
X10455204Y-40671772D01*
X10231103Y-40578946D01*
X9996784Y-40516160D01*
X9756288Y-40484499D01*
X9756287Y-40484499D01*
X9513711Y-40484499D01*
X9513710Y-40484499D01*
X9273213Y-40516160D01*
X9038894Y-40578946D01*
X8814793Y-40671772D01*
X8814784Y-40671776D01*
X8604705Y-40793066D01*
X8412262Y-40940732D01*
X8412255Y-40940738D01*
X8240738Y-41112255D01*
X8240732Y-41112262D01*
X8093066Y-41304705D01*
X7971776Y-41514784D01*
X7971772Y-41514793D01*
X7878946Y-41738894D01*
X7816160Y-41973213D01*
X7784499Y-42213710D01*
X6935499Y-42213710D01*
X6935499Y-39759499D01*
X6955184Y-39692460D01*
X7007988Y-39646705D01*
X7059499Y-39635499D01*
X57511000Y-39635499D01*
X57578039Y-39655184D01*
G37*
%TD.AperFunction*%
%TD*%
M02*
