%TF.GenerationSoftware,KiCad,Pcbnew,10.0.3*%
%TF.CreationDate,2026-07-28T11:55:55-07:00*%
%TF.ProjectId,pd-trigger,70642d74-7269-4676-9765-722e6b696361,rev?*%
%TF.SameCoordinates,Original*%
%TF.FileFunction,Soldermask,Top*%
%TF.FilePolarity,Negative*%
%FSLAX46Y46*%
G04 Gerber Fmt 4.6, Leading zero omitted, Abs format (unit mm)*
G04 Created by KiCad (PCBNEW 10.0.3) date 2026-07-28 11:55:55*
%MOMM*%
%LPD*%
G01*
G04 APERTURE LIST*
%ADD10C,0.650000*%
%ADD11O,2.100000X1.000000*%
%ADD12O,1.800000X1.000000*%
%ADD13R,1.150000X0.600000*%
%ADD14R,1.150000X0.300000*%
%ADD15R,0.800000X0.900000*%
%ADD16R,0.806000X0.864000*%
%ADD17R,0.800000X0.800000*%
%ADD18R,1.000000X0.650000*%
%ADD19R,1.208000X1.701000*%
%ADD20R,1.133000X1.377000*%
%ADD21R,1.100000X1.800000*%
%ADD22R,1.190000X1.728000*%
%ADD23R,1.485000X1.728000*%
%ADD24R,0.600000X1.500000*%
%ADD25R,3.300000X2.100000*%
%ADD26C,2.400000*%
%ADD27R,1.800000X1.800000*%
%ADD28C,1.800000*%
%ADD29R,0.400000X0.450000*%
%ADD30R,1.600000X1.000000*%
%ADD31R,0.350000X0.900000*%
G04 APERTURE END LIST*
D10*
%TO.C,J1*%
X16550000Y-39620000D03*
X16550000Y-45400000D03*
D11*
X17050000Y-38190000D03*
D12*
X12870000Y-38190000D03*
X12870000Y-46830000D03*
D11*
X17050000Y-46830000D03*
D13*
X17630000Y-39310000D03*
X17630000Y-40110000D03*
D14*
X17630000Y-41260000D03*
X17630000Y-42260000D03*
X17630000Y-42760000D03*
X17630000Y-43760000D03*
D13*
X17630000Y-45710000D03*
X17630000Y-44910000D03*
D14*
X17630000Y-44260000D03*
X17630000Y-43260000D03*
X17630000Y-41760000D03*
X17630000Y-40760000D03*
%TD*%
D15*
%TO.C,C2*%
X22900000Y-47200000D03*
X24300000Y-47200000D03*
%TD*%
D16*
%TO.C,R7*%
X26250000Y-54700000D03*
X27750000Y-54700000D03*
%TD*%
%TO.C,R5*%
X32450000Y-30000000D03*
X33950000Y-30000000D03*
%TD*%
D17*
%TO.C,D5*%
X37750000Y-55600000D03*
X39250000Y-55600000D03*
%TD*%
%TO.C,D3*%
X47700000Y-55600000D03*
X49300000Y-55600000D03*
%TD*%
D16*
%TO.C,R1*%
X27850000Y-39200000D03*
X29350000Y-39200000D03*
%TD*%
D18*
%TO.C,D2*%
X23000000Y-55350000D03*
X23000000Y-53450000D03*
X21000000Y-54400000D03*
%TD*%
D16*
%TO.C,R9*%
X34250000Y-54700000D03*
X32750000Y-54700000D03*
%TD*%
D19*
%TO.C,R2A*%
X46520000Y-29000000D03*
X49480000Y-29000000D03*
%TD*%
D17*
%TO.C,D6*%
X42700000Y-55600000D03*
X44300000Y-55600000D03*
%TD*%
D20*
%TO.C,R13*%
X42500000Y-51500000D03*
X44500000Y-51500000D03*
%TD*%
D19*
%TO.C,R10*%
X47020000Y-51500000D03*
X49980000Y-51500000D03*
%TD*%
D21*
%TO.C,SW1*%
X37020000Y-37750000D03*
X39560000Y-37750000D03*
X42100000Y-37750000D03*
X42100000Y-29150000D03*
X39560000Y-29150000D03*
X37020000Y-29150000D03*
%TD*%
D16*
%TO.C,R8*%
X32750000Y-50300000D03*
X34250000Y-50300000D03*
%TD*%
D15*
%TO.C,C5*%
X27600000Y-31200000D03*
X29000000Y-31200000D03*
%TD*%
D22*
%TO.C,F1*%
X13050000Y-35000000D03*
X15950000Y-35000000D03*
%TD*%
D16*
%TO.C,R4*%
X32450000Y-33000000D03*
X33950000Y-33000000D03*
%TD*%
D23*
%TO.C,C1B*%
X20410000Y-51000000D03*
X23590000Y-51000000D03*
%TD*%
D24*
%TO.C,U1*%
X25200000Y-31800000D03*
X24200000Y-31800000D03*
X23200000Y-31800000D03*
X22200000Y-31800000D03*
X21200000Y-31800000D03*
X21200000Y-37800000D03*
X22200000Y-37800000D03*
X23200000Y-37800000D03*
X24200000Y-37800000D03*
X25200000Y-37800000D03*
D25*
X23200000Y-34800000D03*
%TD*%
D26*
%TO.C,J2*%
X52200000Y-43500000D03*
X52200000Y-38420000D03*
%TD*%
D27*
%TO.C,J3*%
X18130000Y-29150000D03*
D28*
X20670000Y-29150000D03*
%TD*%
D19*
%TO.C,R2B*%
X46520000Y-33400000D03*
X49480000Y-33400000D03*
%TD*%
D23*
%TO.C,C1A*%
X26510000Y-47200000D03*
X29690000Y-47200000D03*
%TD*%
D16*
%TO.C,R14*%
X32250000Y-39100000D03*
X33750000Y-39100000D03*
%TD*%
%TO.C,R6*%
X26250000Y-50300000D03*
X27750000Y-50300000D03*
%TD*%
%TO.C,R3*%
X32450000Y-36000000D03*
X33950000Y-36000000D03*
%TD*%
D29*
%TO.C,D1*%
X19750000Y-48180000D03*
X20400000Y-48180000D03*
X21050000Y-48180000D03*
X21050000Y-46220000D03*
X20400000Y-46220000D03*
X19750000Y-46220000D03*
D30*
X20400000Y-47200000D03*
%TD*%
D31*
%TO.C,Q1*%
X31150000Y-51700000D03*
X30500000Y-51700000D03*
X29850000Y-51700000D03*
X29850000Y-53300000D03*
X30500000Y-53300000D03*
X31150000Y-53300000D03*
%TD*%
D16*
%TO.C,R12*%
X37750000Y-51500000D03*
X39250000Y-51500000D03*
%TD*%
M02*
