%TF.GenerationSoftware,KiCad,Pcbnew,10.0.3*%
%TF.CreationDate,2026-07-28T11:55:55-07:00*%
%TF.ProjectId,pd-trigger,70642d74-7269-4676-9765-722e6b696361,rev?*%
%TF.SameCoordinates,Original*%
%TF.FileFunction,Copper,L1,Top*%
%TF.FilePolarity,Positive*%
%FSLAX46Y46*%
G04 Gerber Fmt 4.6, Leading zero omitted, Abs format (unit mm)*
G04 Created by KiCad (PCBNEW 10.0.3) date 2026-07-28 11:55:55*
%MOMM*%
%LPD*%
G01*
G04 APERTURE LIST*
%TA.AperFunction,ComponentPad*%
%ADD10O,2.100000X1.000000*%
%TD*%
%TA.AperFunction,ComponentPad*%
%ADD11O,1.800000X1.000000*%
%TD*%
%TA.AperFunction,SMDPad,CuDef*%
%ADD12R,1.150000X0.600000*%
%TD*%
%TA.AperFunction,SMDPad,CuDef*%
%ADD13R,1.150000X0.300000*%
%TD*%
%TA.AperFunction,SMDPad,CuDef*%
%ADD14R,0.800000X0.900000*%
%TD*%
%TA.AperFunction,SMDPad,CuDef*%
%ADD15R,0.806000X0.864000*%
%TD*%
%TA.AperFunction,SMDPad,CuDef*%
%ADD16R,0.800000X0.800000*%
%TD*%
%TA.AperFunction,SMDPad,CuDef*%
%ADD17R,1.000000X0.650000*%
%TD*%
%TA.AperFunction,SMDPad,CuDef*%
%ADD18R,1.208000X1.701000*%
%TD*%
%TA.AperFunction,SMDPad,CuDef*%
%ADD19R,1.133000X1.377000*%
%TD*%
%TA.AperFunction,SMDPad,CuDef*%
%ADD20R,1.100000X1.800000*%
%TD*%
%TA.AperFunction,SMDPad,CuDef*%
%ADD21R,1.190000X1.728000*%
%TD*%
%TA.AperFunction,SMDPad,CuDef*%
%ADD22R,1.485000X1.728000*%
%TD*%
%TA.AperFunction,SMDPad,CuDef*%
%ADD23R,0.600000X1.500000*%
%TD*%
%TA.AperFunction,SMDPad,CuDef*%
%ADD24R,3.300000X2.100000*%
%TD*%
%TA.AperFunction,ComponentPad*%
%ADD25C,2.400000*%
%TD*%
%TA.AperFunction,ComponentPad*%
%ADD26R,1.800000X1.800000*%
%TD*%
%TA.AperFunction,ComponentPad*%
%ADD27C,1.800000*%
%TD*%
%TA.AperFunction,SMDPad,CuDef*%
%ADD28R,0.400000X0.450000*%
%TD*%
%TA.AperFunction,SMDPad,CuDef*%
%ADD29R,1.600000X1.000000*%
%TD*%
%TA.AperFunction,SMDPad,CuDef*%
%ADD30R,0.350000X0.900000*%
%TD*%
%TA.AperFunction,ViaPad*%
%ADD31C,0.600000*%
%TD*%
%TA.AperFunction,Conductor*%
%ADD32C,0.200000*%
%TD*%
%TA.AperFunction,Conductor*%
%ADD33C,0.300000*%
%TD*%
%TA.AperFunction,Conductor*%
%ADD34C,2.000000*%
%TD*%
%TA.AperFunction,Conductor*%
%ADD35C,1.750000*%
%TD*%
%TA.AperFunction,Conductor*%
%ADD36C,3.000000*%
%TD*%
G04 APERTURE END LIST*
D10*
%TO.P,J1,1*%
%TO.N,GND*%
X17050000Y-38190000D03*
D11*
%TO.P,J1,2*%
X12870000Y-38190000D03*
%TO.P,J1,3*%
X12870000Y-46830000D03*
D10*
%TO.P,J1,4*%
X17050000Y-46830000D03*
D12*
%TO.P,J1,A1-B12*%
X17630000Y-39310000D03*
%TO.P,J1,A4-B9*%
%TO.N,VBUS*%
X17630000Y-40110000D03*
D13*
%TO.P,J1,A5*%
%TO.N,/CC1*%
X17630000Y-41260000D03*
%TO.P,J1,A6*%
%TO.N,unconnected-(J1-Dp1-PadA6)*%
X17630000Y-42260000D03*
%TO.P,J1,A7*%
%TO.N,unconnected-(J1-Dn1-PadA7)*%
X17630000Y-42760000D03*
%TO.P,J1,A8*%
%TO.N,unconnected-(J1-SBU1-PadA8)*%
X17630000Y-43760000D03*
D12*
%TO.P,J1,B1-A12*%
%TO.N,GND*%
X17630000Y-45710000D03*
%TO.P,J1,B4-A9*%
%TO.N,VBUS*%
X17630000Y-44910000D03*
D13*
%TO.P,J1,B5*%
%TO.N,/CC2*%
X17630000Y-44260000D03*
%TO.P,J1,B6*%
%TO.N,unconnected-(J1-Dp2-PadB6)*%
X17630000Y-43260000D03*
%TO.P,J1,B7*%
%TO.N,unconnected-(J1-Dn2-PadB7)*%
X17630000Y-41760000D03*
%TO.P,J1,B8*%
%TO.N,unconnected-(J1-SBU2-PadB8)*%
X17630000Y-40760000D03*
%TD*%
D14*
%TO.P,C2,1*%
%TO.N,VBUS*%
X22900000Y-47200000D03*
%TO.P,C2,2*%
%TO.N,GND*%
X24300000Y-47200000D03*
%TD*%
D15*
%TO.P,R7,1*%
%TO.N,/HV_B*%
X26250000Y-54700000D03*
%TO.P,R7,2*%
%TO.N,GND*%
X27750000Y-54700000D03*
%TD*%
%TO.P,R5,1*%
%TO.N,/VDD*%
X32450000Y-30000000D03*
%TO.P,R5,2*%
%TO.N,/CFG3*%
X33950000Y-30000000D03*
%TD*%
D16*
%TO.P,D5,1*%
%TO.N,/FB_K*%
X37750000Y-55600000D03*
%TO.P,D5,2*%
%TO.N,/D5_A*%
X39250000Y-55600000D03*
%TD*%
%TO.P,D3,1*%
%TO.N,GND*%
X47700000Y-55600000D03*
%TO.P,D3,2*%
%TO.N,/D3_A*%
X49300000Y-55600000D03*
%TD*%
D15*
%TO.P,R1,1*%
%TO.N,/VIND*%
X27850000Y-39200000D03*
%TO.P,R1,2*%
%TO.N,/VSENSE*%
X29350000Y-39200000D03*
%TD*%
D17*
%TO.P,D2,1*%
%TO.N,/ZBIAS*%
X23000000Y-55350000D03*
%TO.P,D2,2*%
%TO.N,unconnected-(D2-Pad2)*%
X23000000Y-53450000D03*
%TO.P,D2,3*%
%TO.N,/VIND*%
X21000000Y-54400000D03*
%TD*%
D15*
%TO.P,R9,1*%
%TO.N,/HV_OK*%
X34250000Y-54700000D03*
%TO.P,R9,2*%
%TO.N,/FB_B*%
X32750000Y-54700000D03*
%TD*%
D18*
%TO.P,R2A,1*%
%TO.N,/VIND*%
X46520000Y-29000000D03*
%TO.P,R2A,2*%
%TO.N,/R2_MID*%
X49480000Y-29000000D03*
%TD*%
D16*
%TO.P,D6,1*%
%TO.N,/HV_OK*%
X42700000Y-55600000D03*
%TO.P,D6,2*%
%TO.N,/D6_A*%
X44300000Y-55600000D03*
%TD*%
D19*
%TO.P,R13,1*%
%TO.N,/VIND*%
X42500000Y-51500000D03*
%TO.P,R13,2*%
%TO.N,/D6_A*%
X44500000Y-51500000D03*
%TD*%
D18*
%TO.P,R10,1*%
%TO.N,/VIND*%
X47020000Y-51500000D03*
%TO.P,R10,2*%
%TO.N,/D3_A*%
X49980000Y-51500000D03*
%TD*%
D20*
%TO.P,SW1,1*%
%TO.N,/CFG1*%
X37020000Y-37750000D03*
%TO.P,SW1,2*%
%TO.N,/CFG2*%
X39560000Y-37750000D03*
%TO.P,SW1,3*%
%TO.N,/CFG3*%
X42100000Y-37750000D03*
%TO.P,SW1,4*%
%TO.N,GND*%
X42100000Y-29150000D03*
%TO.P,SW1,5*%
X39560000Y-29150000D03*
%TO.P,SW1,6*%
X37020000Y-29150000D03*
%TD*%
D15*
%TO.P,R8,1*%
%TO.N,/VIND*%
X32750000Y-50300000D03*
%TO.P,R8,2*%
%TO.N,/HV_OK*%
X34250000Y-50300000D03*
%TD*%
D14*
%TO.P,C5,1*%
%TO.N,/VDD*%
X27600000Y-31200000D03*
%TO.P,C5,2*%
%TO.N,GND*%
X29000000Y-31200000D03*
%TD*%
D21*
%TO.P,F1,1*%
%TO.N,VBUS*%
X13050000Y-35000000D03*
%TO.P,F1,2*%
%TO.N,/VAUX*%
X15950000Y-35000000D03*
%TD*%
D15*
%TO.P,R4,1*%
%TO.N,/VDD*%
X32450000Y-33000000D03*
%TO.P,R4,2*%
%TO.N,/CFG2*%
X33950000Y-33000000D03*
%TD*%
D22*
%TO.P,C1B,1*%
%TO.N,VBUS*%
X20410000Y-51000000D03*
%TO.P,C1B,2*%
%TO.N,GND*%
X23590000Y-51000000D03*
%TD*%
D23*
%TO.P,U1,1*%
%TO.N,/VDD*%
X25200000Y-31800000D03*
%TO.P,U1,2*%
%TO.N,/CFG2*%
X24200000Y-31800000D03*
%TO.P,U1,3*%
%TO.N,/CFG3*%
X23200000Y-31800000D03*
%TO.P,U1,4*%
%TO.N,/BC12_DIS*%
X22200000Y-31800000D03*
%TO.P,U1,5*%
X21200000Y-31800000D03*
%TO.P,U1,6*%
%TO.N,/CC2*%
X21200000Y-37800000D03*
%TO.P,U1,7*%
%TO.N,/CC1*%
X22200000Y-37800000D03*
%TO.P,U1,8*%
%TO.N,/VSENSE*%
X23200000Y-37800000D03*
%TO.P,U1,9*%
%TO.N,/CFG1*%
X24200000Y-37800000D03*
%TO.P,U1,10*%
%TO.N,unconnected-(U1-PG-Pad10)*%
X25200000Y-37800000D03*
D24*
%TO.P,U1,11*%
%TO.N,GND*%
X23200000Y-34800000D03*
%TD*%
D25*
%TO.P,J2,1*%
%TO.N,VBUS*%
X52200000Y-43500000D03*
%TO.P,J2,2*%
%TO.N,GND*%
X52200000Y-38420000D03*
%TD*%
D26*
%TO.P,J3,1*%
%TO.N,/VAUX*%
X18130000Y-29150000D03*
D27*
%TO.P,J3,2*%
%TO.N,GND*%
X20670000Y-29150000D03*
%TD*%
D18*
%TO.P,R2B,1*%
%TO.N,/R2_MID*%
X46520000Y-33400000D03*
%TO.P,R2B,2*%
%TO.N,/VDD*%
X49480000Y-33400000D03*
%TD*%
D22*
%TO.P,C1A,1*%
%TO.N,VBUS*%
X26510000Y-47200000D03*
%TO.P,C1A,2*%
%TO.N,GND*%
X29690000Y-47200000D03*
%TD*%
D15*
%TO.P,R14,1*%
%TO.N,VBUS*%
X32250000Y-39100000D03*
%TO.P,R14,2*%
%TO.N,/VIND*%
X33750000Y-39100000D03*
%TD*%
%TO.P,R6,1*%
%TO.N,/ZBIAS*%
X26250000Y-50300000D03*
%TO.P,R6,2*%
%TO.N,/HV_B*%
X27750000Y-50300000D03*
%TD*%
%TO.P,R3,1*%
%TO.N,/VDD*%
X32450000Y-36000000D03*
%TO.P,R3,2*%
%TO.N,/CFG1*%
X33950000Y-36000000D03*
%TD*%
D28*
%TO.P,D1,1*%
%TO.N,GND*%
X19750000Y-48180000D03*
%TO.P,D1,2*%
X20400000Y-48180000D03*
%TO.P,D1,3*%
X21050000Y-48180000D03*
%TO.P,D1,4*%
%TO.N,VBUS*%
X21050000Y-46220000D03*
%TO.P,D1,5*%
X20400000Y-46220000D03*
%TO.P,D1,6*%
X19750000Y-46220000D03*
D29*
%TO.P,D1,7*%
%TO.N,GND*%
X20400000Y-47200000D03*
%TD*%
D30*
%TO.P,Q1,1*%
%TO.N,GND*%
X31150000Y-51700000D03*
%TO.P,Q1,2*%
%TO.N,/HV_B*%
X30500000Y-51700000D03*
%TO.P,Q1,3*%
%TO.N,/FB_K*%
X29850000Y-51700000D03*
%TO.P,Q1,4*%
%TO.N,GND*%
X29850000Y-53300000D03*
%TO.P,Q1,5*%
%TO.N,/FB_B*%
X30500000Y-53300000D03*
%TO.P,Q1,6*%
%TO.N,/HV_OK*%
X31150000Y-53300000D03*
%TD*%
D15*
%TO.P,R12,1*%
%TO.N,/VIND*%
X37750000Y-51500000D03*
%TO.P,R12,2*%
%TO.N,/D5_A*%
X39250000Y-51500000D03*
%TD*%
D31*
%TO.N,GND*%
X13200000Y-45800000D03*
X14400000Y-37100000D03*
X15600000Y-39200000D03*
X15600000Y-45800000D03*
X24300000Y-48130100D03*
X17830000Y-39200000D03*
X43107900Y-28337700D03*
X21050000Y-49400000D03*
X24240000Y-51000000D03*
X14800000Y-45800000D03*
X28488000Y-47736500D03*
X24400000Y-34800000D03*
X18878000Y-45814000D03*
X16800000Y-37100000D03*
X14700000Y-46830000D03*
X15200000Y-37100000D03*
X17600000Y-37100000D03*
X38531500Y-28837500D03*
X29000000Y-32107500D03*
X15500000Y-46830000D03*
X31150000Y-50768300D03*
X29850000Y-54214500D03*
X36689000Y-28590000D03*
X22000000Y-34800000D03*
X21050000Y-47200000D03*
X14000000Y-45800000D03*
X47700000Y-56475400D03*
X20400000Y-48830000D03*
X17750000Y-45800000D03*
X18878000Y-48536700D03*
X23200000Y-34800000D03*
X16000000Y-37100000D03*
X14800000Y-39200000D03*
X27750000Y-53813400D03*
X22000000Y-50746200D03*
X19750000Y-49400000D03*
%TO.N,/CC1*%
X21938600Y-39080700D03*
X16578300Y-41982800D03*
%TO.N,/CC2*%
X22254100Y-40110300D03*
X16079400Y-44353700D03*
%TO.N,/VIND*%
X45600000Y-30800000D03*
X50338000Y-31000000D03*
%TO.N,/VAUX*%
X15957800Y-33518200D03*
X16850000Y-33518200D03*
%TD*%
%TO.N,GND*%
D32*
X43107900Y-28337700D02*
X42766100Y-27995900D01*
X18774000Y-45710000D02*
X17630000Y-45710000D01*
X47700000Y-56475400D02*
X47700000Y-55600000D01*
X17050000Y-38190000D02*
X18354100Y-38190000D01*
X20400000Y-48180000D02*
X20400000Y-47200000D01*
D33*
X19750000Y-48180000D02*
X19750000Y-49400000D01*
D32*
X18354100Y-38190000D02*
X18354100Y-38585900D01*
X19750000Y-48180000D02*
X20400000Y-48180000D01*
D33*
X20400000Y-48180000D02*
X20400000Y-48830000D01*
D32*
X27750000Y-54700000D02*
X27750000Y-53813400D01*
X22000000Y-50746200D02*
X22339600Y-50746200D01*
X39560000Y-29150000D02*
X39560000Y-27995900D01*
X31150000Y-50768300D02*
X31150000Y-51700000D01*
X24300000Y-47200000D02*
X24300000Y-48130100D01*
X18878000Y-48536700D02*
X18939200Y-48536700D01*
X29000000Y-32107500D02*
X29000000Y-31200000D01*
X18878000Y-45814000D02*
X18774000Y-45710000D01*
X18939200Y-48536700D02*
X19295900Y-48180000D01*
X38531500Y-28837500D02*
X38531500Y-27995900D01*
X28488000Y-47736500D02*
X28693400Y-47531100D01*
X29690000Y-47200000D02*
X28693400Y-47200000D01*
X20400000Y-48180000D02*
X21050000Y-48180000D01*
X23590000Y-51000000D02*
X22593400Y-51000000D01*
X18354100Y-38585900D02*
X17630000Y-39310000D01*
X42766100Y-27995900D02*
X42100000Y-27995900D01*
X38531500Y-27995900D02*
X37020000Y-27995900D01*
X19750000Y-48180000D02*
X19295900Y-48180000D01*
X37020000Y-29150000D02*
X37020000Y-27995900D01*
D33*
X21050000Y-48180000D02*
X21050000Y-49400000D01*
D32*
X42100000Y-29150000D02*
X42100000Y-27995900D01*
X29850000Y-53300000D02*
X29850000Y-54214500D01*
X39560000Y-27995900D02*
X38531500Y-27995900D01*
X22339600Y-50746200D02*
X22593400Y-51000000D01*
X28693400Y-47531100D02*
X28693400Y-47200000D01*
%TO.N,VBUS*%
D34*
X26500000Y-44500000D02*
X26500000Y-47000000D01*
D35*
X19550000Y-31600000D02*
X13050000Y-31600000D01*
X13050000Y-31600000D02*
X13050000Y-35000000D01*
X19550000Y-40000000D02*
X19550000Y-31600000D01*
X22550000Y-44500000D02*
X22550000Y-47200000D01*
D36*
X20000000Y-43500000D02*
X52200000Y-43500000D01*
D35*
X32250000Y-42500000D02*
X32250000Y-39300000D01*
%TO.N,/CC1*%
D32*
X16800900Y-41260000D02*
X16800900Y-41760200D01*
X17630000Y-41260000D02*
X16800900Y-41260000D01*
X22200000Y-38819300D02*
X22200000Y-37800000D01*
X16800900Y-41760200D02*
X16578300Y-41982800D01*
X21938600Y-39080700D02*
X22200000Y-38819300D01*
%TO.N,/CC2*%
X16173100Y-44260000D02*
X17630000Y-44260000D01*
X22184700Y-40110300D02*
X22254100Y-40110300D01*
X16079400Y-44353700D02*
X16173100Y-44260000D01*
X21200000Y-39125600D02*
X22184700Y-40110300D01*
X21200000Y-37800000D02*
X21200000Y-39125600D01*
%TO.N,/HV_B*%
X29103000Y-51160900D02*
X26250000Y-54013900D01*
X27750000Y-50300000D02*
X28407100Y-50300000D01*
X29103000Y-50995900D02*
X29103000Y-51160900D01*
X29103000Y-50995900D02*
X28407100Y-50300000D01*
X30500000Y-50995900D02*
X29103000Y-50995900D01*
X30500000Y-51700000D02*
X30500000Y-50995900D01*
X26250000Y-54700000D02*
X26250000Y-54013900D01*
%TO.N,/VDD*%
X45810700Y-34504600D02*
X47517300Y-34504600D01*
X37825300Y-37849500D02*
X38899600Y-38923800D01*
X35316700Y-29313900D02*
X37816400Y-31813600D01*
X25200000Y-30795900D02*
X26541800Y-30795900D01*
X37816400Y-31813600D02*
X43119700Y-31813600D01*
X34436900Y-35250000D02*
X35782800Y-36595900D01*
X25200000Y-31800000D02*
X25200000Y-30795900D01*
X47517300Y-34504600D02*
X48621900Y-33400000D01*
X26541800Y-30795900D02*
X26945900Y-31200000D01*
X32450000Y-30000000D02*
X33136100Y-29313900D01*
X38899600Y-38923800D02*
X42816500Y-38923800D01*
X42816500Y-38923800D02*
X45810700Y-35929600D01*
X32450000Y-33000000D02*
X31792900Y-33000000D01*
X49480000Y-33400000D02*
X48621900Y-33400000D01*
X37675300Y-36595900D02*
X37825300Y-36745900D01*
X31792900Y-33000000D02*
X31792900Y-35250000D01*
X37825300Y-36745900D02*
X37825300Y-37849500D01*
X45810700Y-35929600D02*
X45810700Y-34504600D01*
X27600000Y-31200000D02*
X26945900Y-31200000D01*
X43119700Y-31813600D02*
X45810700Y-34504600D01*
X25200000Y-31800000D02*
X25200000Y-32804100D01*
X31792900Y-35250000D02*
X34436900Y-35250000D01*
X32450000Y-36000000D02*
X31792900Y-36000000D01*
X33136100Y-29313900D02*
X35316700Y-29313900D01*
X31792900Y-35250000D02*
X31792900Y-36000000D01*
X35782800Y-36595900D02*
X37675300Y-36595900D01*
X25395900Y-33000000D02*
X25200000Y-32804100D01*
X31792900Y-33000000D02*
X25395900Y-33000000D01*
%TO.N,/CFG3*%
X34860300Y-32167700D02*
X33292900Y-30600300D01*
X33292900Y-30000000D02*
X33292900Y-30600300D01*
X33207100Y-30686100D02*
X30246200Y-30686100D01*
X30246200Y-30686100D02*
X29623000Y-30062900D01*
X23933000Y-30062900D02*
X23200000Y-30795900D01*
X23200000Y-31800000D02*
X23200000Y-30795900D01*
X33292900Y-30600300D02*
X33207100Y-30686100D01*
X37671800Y-32167700D02*
X34860300Y-32167700D01*
X33950000Y-30000000D02*
X33292900Y-30000000D01*
X42100000Y-36595900D02*
X37671800Y-32167700D01*
X42100000Y-37750000D02*
X42100000Y-36595900D01*
X29623000Y-30062900D02*
X23933000Y-30062900D01*
%TO.N,/FB_K*%
X29850000Y-51700000D02*
X29850000Y-52404100D01*
X33900000Y-52404100D02*
X37095900Y-55600000D01*
X37750000Y-55600000D02*
X37095900Y-55600000D01*
X29850000Y-52404100D02*
X33900000Y-52404100D01*
%TO.N,/D5_A*%
X39250000Y-55600000D02*
X39250000Y-51500000D01*
%TO.N,/D3_A*%
X49300000Y-53284600D02*
X49300000Y-55600000D01*
X49980000Y-52604600D02*
X49300000Y-53284600D01*
X49980000Y-51500000D02*
X49980000Y-52604600D01*
%TO.N,/VIND*%
X47693700Y-49968200D02*
X46161900Y-51500000D01*
X21000000Y-54400000D02*
X21000000Y-53820900D01*
X50338200Y-39100000D02*
X50382800Y-39100000D01*
X24383300Y-52226200D02*
X25592900Y-51016600D01*
X47020000Y-51500000D02*
X46161900Y-51500000D01*
X25592900Y-49762700D02*
X25745600Y-49610000D01*
X50382800Y-39100000D02*
X54024800Y-42742000D01*
X33407100Y-50710700D02*
X33407100Y-50300000D01*
X45600000Y-30800000D02*
X46000000Y-29500000D01*
X45338200Y-39454100D02*
X45692300Y-39100000D01*
X37676000Y-39454100D02*
X45338200Y-39454100D01*
X43320600Y-50987100D02*
X43320600Y-51500000D01*
X33750000Y-39100000D02*
X33750000Y-38413900D01*
X29132100Y-37917900D02*
X27850000Y-39200000D01*
X33254000Y-37917900D02*
X29132100Y-37917900D01*
X45219300Y-50557400D02*
X43750300Y-50557400D01*
X22594700Y-52226200D02*
X24383300Y-52226200D01*
X33750000Y-38413900D02*
X33254000Y-37917900D01*
X41943500Y-49610000D02*
X43320600Y-50987100D01*
X32092900Y-49610000D02*
X32092900Y-50300000D01*
X43750300Y-50557400D02*
X43320600Y-50987100D01*
X32750000Y-50300000D02*
X32092900Y-50300000D01*
X37468500Y-39246600D02*
X37676000Y-39454100D01*
X32750000Y-50300000D02*
X33407100Y-50300000D01*
X25592900Y-51016600D02*
X25592900Y-49762700D01*
X34196400Y-51500000D02*
X33407100Y-50710700D01*
X37750000Y-51500000D02*
X34196400Y-51500000D01*
X45692300Y-39100000D02*
X50338200Y-39100000D01*
X33750000Y-39100000D02*
X37468500Y-39100000D01*
X48315500Y-49968200D02*
X47693700Y-49968200D01*
X54024800Y-42742000D02*
X54024800Y-44258900D01*
X32092900Y-49610000D02*
X41943500Y-49610000D01*
X46161900Y-51500000D02*
X45219300Y-50557400D01*
X54024800Y-44258900D02*
X48315500Y-49968200D01*
X37468500Y-39100000D02*
X37468500Y-39246600D01*
X42500000Y-51500000D02*
X43320600Y-51500000D01*
X25745600Y-49610000D02*
X32092900Y-49610000D01*
X21000000Y-53820900D02*
X22594700Y-52226200D01*
X50338000Y-39100000D02*
X50338000Y-31000000D01*
%TO.N,/VSENSE*%
X23200000Y-37800000D02*
X23200000Y-38804100D01*
X24282000Y-39886100D02*
X28417500Y-39886100D01*
X23200000Y-38804100D02*
X24282000Y-39886100D01*
X28692900Y-39610700D02*
X28692900Y-39200000D01*
X28417500Y-39886100D02*
X28692900Y-39610700D01*
X29350000Y-39200000D02*
X28692900Y-39200000D01*
%TO.N,/ZBIAS*%
X26250000Y-50300000D02*
X26250000Y-51520900D01*
X26250000Y-51520900D02*
X23000000Y-54770900D01*
X23000000Y-55350000D02*
X23000000Y-54770900D01*
%TO.N,/HV_OK*%
X34250000Y-54700000D02*
X34907100Y-54700000D01*
X36461200Y-56254100D02*
X34907100Y-54700000D01*
X34250000Y-50300000D02*
X37829700Y-50300000D01*
X41391800Y-56254100D02*
X38407100Y-56254100D01*
X38407100Y-56254100D02*
X36461200Y-56254100D01*
X33592900Y-54292100D02*
X33304900Y-54004100D01*
X42045900Y-55600000D02*
X41391800Y-56254100D01*
X33304900Y-54004100D02*
X31150000Y-54004100D01*
X34250000Y-54700000D02*
X33592900Y-54700000D01*
X33592900Y-54700000D02*
X33592900Y-54292100D01*
X37829700Y-50300000D02*
X38407100Y-50877400D01*
X42700000Y-55600000D02*
X42045900Y-55600000D01*
X38407100Y-50877400D02*
X38407100Y-56254100D01*
X31150000Y-53300000D02*
X31150000Y-54004100D01*
%TO.N,/FB_B*%
X30500000Y-53300000D02*
X30500000Y-54004100D01*
X31195900Y-54700000D02*
X32750000Y-54700000D01*
X30500000Y-54004100D02*
X31195900Y-54700000D01*
%TO.N,/R2_MID*%
X46520000Y-31101900D02*
X48621900Y-29000000D01*
X46520000Y-33400000D02*
X46520000Y-31101900D01*
X49480000Y-29000000D02*
X48621900Y-29000000D01*
%TO.N,/D6_A*%
X44500000Y-54745900D02*
X44300000Y-54945900D01*
X44300000Y-55600000D02*
X44300000Y-54945900D01*
X44500000Y-51500000D02*
X44500000Y-54745900D01*
%TO.N,/CFG1*%
X34632200Y-37750000D02*
X33292900Y-36410700D01*
X33950000Y-36000000D02*
X33292900Y-36000000D01*
X26350100Y-38804100D02*
X28468100Y-36686100D01*
X24200000Y-37800000D02*
X24200000Y-38804100D01*
X33292900Y-36410700D02*
X33292900Y-36000000D01*
X24200000Y-38804100D02*
X26350100Y-38804100D01*
X37020000Y-37750000D02*
X34632200Y-37750000D01*
X28468100Y-36686100D02*
X33017500Y-36686100D01*
X33017500Y-36686100D02*
X33292900Y-36410700D01*
%TO.N,/CFG2*%
X29476400Y-30417000D02*
X24578900Y-30417000D01*
X24200000Y-31800000D02*
X24200000Y-30795900D01*
X33292900Y-32589300D02*
X32432900Y-31729300D01*
X30788700Y-31729300D02*
X29476400Y-30417000D01*
X38007200Y-35043100D02*
X34735700Y-35043100D01*
X33950000Y-33000000D02*
X33292900Y-33000000D01*
X24578900Y-30417000D02*
X24200000Y-30795900D01*
X33292900Y-33000000D02*
X33292900Y-32589300D01*
X33292900Y-33600300D02*
X33292900Y-33000000D01*
X39560000Y-36595900D02*
X38007200Y-35043100D01*
X34735700Y-35043100D02*
X33292900Y-33600300D01*
X32432900Y-31729300D02*
X30788700Y-31729300D01*
X39560000Y-37750000D02*
X39560000Y-36595900D01*
%TO.N,/VAUX*%
D33*
X15950000Y-33526000D02*
X15950000Y-35000000D01*
X15950000Y-33526000D02*
X16850000Y-33518200D01*
X15957800Y-33518200D02*
X15950000Y-33526000D01*
%TO.N,/BC12_DIS*%
D32*
X22200000Y-31800000D02*
X22200000Y-32804100D01*
X21200000Y-32804100D02*
X22200000Y-32804100D01*
X21200000Y-31800000D02*
X21200000Y-32804100D01*
%TD*%
%TA.AperFunction,Conductor*%
%TO.N,VBUS*%
G36*
X21382486Y-39705021D02*
G01*
X21407730Y-39712434D01*
X21460476Y-39743730D01*
X21752274Y-40035528D01*
X21773423Y-40063779D01*
X21786031Y-40086868D01*
X21801200Y-40146297D01*
X21801200Y-40169924D01*
X21832064Y-40285114D01*
X21859770Y-40333100D01*
X21891690Y-40388387D01*
X21976013Y-40472710D01*
X22065448Y-40524346D01*
X22077951Y-40531565D01*
X22079287Y-40532336D01*
X22194475Y-40563200D01*
X22194477Y-40563200D01*
X22313723Y-40563200D01*
X22313725Y-40563200D01*
X22418939Y-40535008D01*
X22437767Y-40531495D01*
X22460069Y-40529097D01*
X22528828Y-40541500D01*
X22579961Y-40589100D01*
X22582635Y-40593607D01*
X22600000Y-40656890D01*
X22600000Y-50376914D01*
X22594975Y-50411855D01*
X22591064Y-50425172D01*
X22581429Y-50440162D01*
X22576410Y-50457262D01*
X22562930Y-50468943D01*
X22553287Y-50483948D01*
X22537074Y-50491352D01*
X22523610Y-50503021D01*
X22489746Y-50512967D01*
X22486194Y-50513478D01*
X22417035Y-50503541D01*
X22393110Y-50489163D01*
X22370320Y-50471696D01*
X22370319Y-50471696D01*
X22358270Y-50462461D01*
X22346021Y-50451724D01*
X22278089Y-50383792D01*
X22278087Y-50383790D01*
X22278084Y-50383788D01*
X22278080Y-50383785D01*
X22226454Y-50353978D01*
X22226450Y-50353977D01*
X22174814Y-50324164D01*
X22174811Y-50324163D01*
X22117219Y-50308732D01*
X22117219Y-50308731D01*
X22059626Y-50293300D01*
X22059625Y-50293300D01*
X21940375Y-50293300D01*
X21940373Y-50293300D01*
X21825186Y-50324163D01*
X21825183Y-50324164D01*
X21721923Y-50383783D01*
X21721909Y-50383792D01*
X21721904Y-50383796D01*
X21637596Y-50468104D01*
X21637592Y-50468109D01*
X21637583Y-50468123D01*
X21577964Y-50571383D01*
X21577963Y-50571386D01*
X21547100Y-50686573D01*
X21547100Y-50686575D01*
X21547100Y-50805824D01*
X21577964Y-50921014D01*
X21607777Y-50972650D01*
X21607778Y-50972654D01*
X21637585Y-51024280D01*
X21637588Y-51024284D01*
X21637590Y-51024287D01*
X21721913Y-51108610D01*
X21825187Y-51168236D01*
X21940375Y-51199100D01*
X21940377Y-51199100D01*
X22059623Y-51199100D01*
X22059625Y-51199100D01*
X22174813Y-51168236D01*
X22222264Y-51140838D01*
X22255021Y-51127725D01*
X22270216Y-51124039D01*
X22340000Y-51127362D01*
X22348379Y-51130263D01*
X22395506Y-51159762D01*
X22450143Y-51214399D01*
X22496619Y-51233649D01*
X22506991Y-51237945D01*
X22537336Y-51255950D01*
X22549505Y-51265758D01*
X22559675Y-51280405D01*
X22561390Y-51281787D01*
X22562084Y-51283874D01*
X22589352Y-51323145D01*
X22593656Y-51336079D01*
X22600000Y-51375230D01*
X22600000Y-51849582D01*
X22599999Y-51849588D01*
X22600000Y-51849591D01*
X22594975Y-51884526D01*
X22590570Y-51899524D01*
X22552804Y-51958287D01*
X22552792Y-51958297D01*
X22552791Y-51958299D01*
X22552789Y-51958299D01*
X22544204Y-51965740D01*
X22487189Y-51993650D01*
X22480529Y-51994975D01*
X22467246Y-51997617D01*
X22443054Y-52000000D01*
X17341830Y-52000000D01*
X17341825Y-51999999D01*
X17341823Y-52000000D01*
X17306889Y-51994975D01*
X17291890Y-51990570D01*
X17233144Y-51952827D01*
X17233115Y-51952793D01*
X17233114Y-51952793D01*
X17233113Y-51952791D01*
X17231957Y-51951458D01*
X17204477Y-51896583D01*
X17202832Y-51889021D01*
X17200000Y-51862668D01*
X17200000Y-48477073D01*
X18425100Y-48477073D01*
X18425100Y-48477075D01*
X18425100Y-48596324D01*
X18455964Y-48711514D01*
X18485777Y-48763150D01*
X18485778Y-48763154D01*
X18515585Y-48814780D01*
X18515588Y-48814784D01*
X18515590Y-48814787D01*
X18599913Y-48899110D01*
X18703187Y-48958736D01*
X18818375Y-48989600D01*
X18818377Y-48989600D01*
X18937623Y-48989600D01*
X18937625Y-48989600D01*
X19052813Y-48958736D01*
X19156087Y-48899110D01*
X19222818Y-48832378D01*
X19249558Y-48812070D01*
X19250250Y-48811679D01*
X19254855Y-48809165D01*
X19255131Y-48808925D01*
X19260527Y-48805881D01*
X19289124Y-48799242D01*
X19316964Y-48789959D01*
X19322759Y-48791434D01*
X19328587Y-48790082D01*
X19356228Y-48799956D01*
X19384673Y-48807199D01*
X19388751Y-48811575D01*
X19394384Y-48813587D01*
X19412297Y-48836835D01*
X19424300Y-48849713D01*
X19426506Y-48848296D01*
X19427411Y-48849704D01*
X19428845Y-48854589D01*
X19432313Y-48858309D01*
X19432325Y-48858332D01*
X19433059Y-48859797D01*
X19430844Y-48860906D01*
X19437029Y-48868933D01*
X19438659Y-48888004D01*
X19447100Y-48916742D01*
X19447100Y-48993211D01*
X19447099Y-48993213D01*
X19447100Y-48993214D01*
X19442076Y-49028148D01*
X19434664Y-49053389D01*
X19403369Y-49106133D01*
X19387592Y-49121909D01*
X19387583Y-49121923D01*
X19327964Y-49225183D01*
X19327963Y-49225186D01*
X19297100Y-49340373D01*
X19297100Y-49340375D01*
X19297100Y-49459624D01*
X19327964Y-49574814D01*
X19357777Y-49626450D01*
X19357778Y-49626454D01*
X19387585Y-49678080D01*
X19387588Y-49678084D01*
X19387590Y-49678087D01*
X19471913Y-49762410D01*
X19575187Y-49822036D01*
X19690375Y-49852900D01*
X19690377Y-49852900D01*
X19809623Y-49852900D01*
X19809625Y-49852900D01*
X19924813Y-49822036D01*
X20028087Y-49762410D01*
X20112410Y-49678087D01*
X20172036Y-49574813D01*
X20202900Y-49459625D01*
X20202900Y-49424019D01*
X20204769Y-49402570D01*
X20206406Y-49393249D01*
X20207805Y-49390419D01*
X20207922Y-49389088D01*
X20209205Y-49384718D01*
X20210176Y-49385003D01*
X20214279Y-49368930D01*
X20213587Y-49368672D01*
X20214648Y-49365826D01*
X20215291Y-49364966D01*
X20215749Y-49363173D01*
X20216987Y-49360463D01*
X20218234Y-49361032D01*
X20230368Y-49344817D01*
X20237390Y-49330625D01*
X20243915Y-49326711D01*
X20256501Y-49309893D01*
X20258206Y-49308616D01*
X20306857Y-49289675D01*
X20306209Y-49286695D01*
X20310350Y-49285794D01*
X20310354Y-49285794D01*
X20310641Y-49285731D01*
X20319408Y-49284789D01*
X20320203Y-49284480D01*
X20320223Y-49284478D01*
X20320245Y-49284699D01*
X20336989Y-49282900D01*
X20457674Y-49282900D01*
X20491842Y-49287700D01*
X20492160Y-49287791D01*
X20499128Y-49289837D01*
X20499498Y-49289894D01*
X20503407Y-49291015D01*
X20529951Y-49307833D01*
X20557424Y-49323041D01*
X20559471Y-49326537D01*
X20562427Y-49328410D01*
X20569563Y-49343773D01*
X20588417Y-49375973D01*
X20592278Y-49389411D01*
X20597100Y-49423653D01*
X20597100Y-49459624D01*
X20627964Y-49574814D01*
X20657777Y-49626450D01*
X20657778Y-49626454D01*
X20687585Y-49678080D01*
X20687588Y-49678084D01*
X20687590Y-49678087D01*
X20771913Y-49762410D01*
X20875187Y-49822036D01*
X20990375Y-49852900D01*
X20990377Y-49852900D01*
X21109623Y-49852900D01*
X21109625Y-49852900D01*
X21224813Y-49822036D01*
X21328087Y-49762410D01*
X21412410Y-49678087D01*
X21472036Y-49574813D01*
X21502900Y-49459625D01*
X21502900Y-49340375D01*
X21472036Y-49225187D01*
X21412410Y-49121913D01*
X21401821Y-49111324D01*
X21380674Y-49083073D01*
X21368067Y-49059984D01*
X21352900Y-49000559D01*
X21352900Y-48581653D01*
X21357923Y-48546718D01*
X21367262Y-48514912D01*
X21383137Y-48480955D01*
X21394028Y-48464658D01*
X21402900Y-48420057D01*
X21402899Y-47939944D01*
X21394028Y-47895342D01*
X21393855Y-47894471D01*
X21391152Y-47889962D01*
X21391133Y-47889926D01*
X21387244Y-47885188D01*
X21373140Y-47864080D01*
X21360221Y-47838950D01*
X21358966Y-47835623D01*
X21356590Y-47828035D01*
X21355140Y-47825479D01*
X21351825Y-47816690D01*
X21351607Y-47813796D01*
X21345451Y-47792818D01*
X21345438Y-47792738D01*
X21346215Y-47748658D01*
X21352900Y-47715057D01*
X21352899Y-47603988D01*
X21353335Y-47601278D01*
X21352968Y-47599854D01*
X21356942Y-47578851D01*
X21359153Y-47565106D01*
X21359573Y-47563833D01*
X21363666Y-47552289D01*
X21365918Y-47544617D01*
X21366563Y-47542666D01*
X21374459Y-47531235D01*
X21396632Y-47493864D01*
X21412410Y-47478087D01*
X21472036Y-47374813D01*
X21502900Y-47259625D01*
X21502900Y-47140375D01*
X21472036Y-47025187D01*
X21412410Y-46921913D01*
X21401820Y-46911323D01*
X21380673Y-46883072D01*
X21368066Y-46859983D01*
X21352899Y-46800558D01*
X21352899Y-46684945D01*
X21352898Y-46684940D01*
X21352872Y-46684809D01*
X21346408Y-46652307D01*
X21345808Y-46646214D01*
X21345799Y-46646185D01*
X21344607Y-46641426D01*
X21344026Y-46640339D01*
X21344026Y-46640338D01*
X21344023Y-46640334D01*
X21341152Y-46634962D01*
X21341151Y-46634961D01*
X21341151Y-46634960D01*
X21341134Y-46634928D01*
X21337246Y-46630191D01*
X21310234Y-46589766D01*
X21272261Y-46564393D01*
X21272255Y-46564389D01*
X21259659Y-46555973D01*
X21259658Y-46555972D01*
X21259657Y-46555971D01*
X21259656Y-46555971D01*
X21259654Y-46555970D01*
X21257570Y-46555555D01*
X21255596Y-46554368D01*
X21247684Y-46553589D01*
X21215059Y-46547100D01*
X21215058Y-46547100D01*
X19584946Y-46547100D01*
X19584945Y-46547100D01*
X19570077Y-46550057D01*
X19540339Y-46555972D01*
X19540337Y-46555973D01*
X19489765Y-46589765D01*
X19455970Y-46640343D01*
X19447126Y-46684809D01*
X19447100Y-46684940D01*
X19447100Y-47715055D01*
X19448660Y-47722897D01*
X19451801Y-47738689D01*
X19453908Y-47771138D01*
X19453812Y-47772569D01*
X19452544Y-47786737D01*
X19452426Y-47793333D01*
X19452225Y-47796351D01*
X19441172Y-47826417D01*
X19431605Y-47856979D01*
X19431329Y-47857390D01*
X19431205Y-47857574D01*
X19428698Y-47860353D01*
X19428119Y-47861930D01*
X19425471Y-47863931D01*
X19407894Y-47883423D01*
X19391798Y-47896875D01*
X19337573Y-47923121D01*
X19330993Y-47924492D01*
X19305700Y-47927099D01*
X19245591Y-47927099D01*
X19212558Y-47940783D01*
X19212553Y-47940785D01*
X19212545Y-47940787D01*
X19212546Y-47940788D01*
X19183617Y-47952771D01*
X19183615Y-47952772D01*
X19152646Y-47965599D01*
X19152644Y-47965600D01*
X19077214Y-48041030D01*
X19049689Y-48061634D01*
X19048960Y-48062180D01*
X19032443Y-48071199D01*
X18970074Y-48086332D01*
X18959667Y-48086085D01*
X18945783Y-48084091D01*
X18945682Y-48084861D01*
X18937627Y-48083800D01*
X18937626Y-48083800D01*
X18937625Y-48083800D01*
X18937624Y-48083800D01*
X18818373Y-48083800D01*
X18703186Y-48114663D01*
X18703183Y-48114664D01*
X18599923Y-48174283D01*
X18599909Y-48174292D01*
X18599904Y-48174296D01*
X18515596Y-48258604D01*
X18515592Y-48258609D01*
X18515583Y-48258623D01*
X18455964Y-48361883D01*
X18455963Y-48361886D01*
X18425100Y-48477073D01*
X17200000Y-48477073D01*
X17200000Y-47881900D01*
X17219685Y-47814861D01*
X17272489Y-47769106D01*
X17324000Y-47757900D01*
X18250994Y-47757900D01*
X18251000Y-47757900D01*
X18275699Y-47755956D01*
X18306292Y-47751111D01*
X18374405Y-47722899D01*
X18423905Y-47686935D01*
X18436749Y-47676533D01*
X18481265Y-47607984D01*
X18500172Y-47549793D01*
X18505481Y-47516275D01*
X18507900Y-47501004D01*
X18507900Y-46338061D01*
X18527585Y-46271022D01*
X18580389Y-46225267D01*
X18649547Y-46215323D01*
X18693902Y-46230675D01*
X18703187Y-46236036D01*
X18818375Y-46266900D01*
X18818377Y-46266900D01*
X18937623Y-46266900D01*
X18937625Y-46266900D01*
X19052813Y-46236036D01*
X19156087Y-46176410D01*
X19240410Y-46092087D01*
X19300036Y-45988813D01*
X19330900Y-45873625D01*
X19330900Y-45754375D01*
X19300036Y-45639187D01*
X19240410Y-45535913D01*
X19156087Y-45451590D01*
X19156084Y-45451588D01*
X19156080Y-45451585D01*
X19104454Y-45421778D01*
X19104450Y-45421777D01*
X19052814Y-45391964D01*
X19052811Y-45391963D01*
X18995219Y-45376532D01*
X18995219Y-45376531D01*
X18937626Y-45361100D01*
X18937625Y-45361100D01*
X18818375Y-45361100D01*
X18818373Y-45361100D01*
X18703185Y-45391963D01*
X18661844Y-45415833D01*
X18593944Y-45432306D01*
X18527917Y-45409454D01*
X18494650Y-45368841D01*
X18492889Y-45369953D01*
X18444556Y-45293355D01*
X18444554Y-45293353D01*
X18399632Y-45251830D01*
X18399628Y-45251826D01*
X18394574Y-45247624D01*
X18386917Y-45241256D01*
X18386915Y-45241255D01*
X18386914Y-45241254D01*
X18311001Y-45210970D01*
X18250232Y-45203779D01*
X18221667Y-45204903D01*
X18216795Y-45204999D01*
X17324000Y-45204999D01*
X17256961Y-45185314D01*
X17211206Y-45132510D01*
X17200000Y-45080999D01*
X17200000Y-44704728D01*
X17205023Y-44669792D01*
X17209427Y-44654794D01*
X17247202Y-44596016D01*
X17247206Y-44596013D01*
X17248576Y-44594826D01*
X17303415Y-44567377D01*
X17310972Y-44565733D01*
X17337331Y-44562899D01*
X18220055Y-44562899D01*
X18220056Y-44562899D01*
X18264658Y-44554028D01*
X18315234Y-44520234D01*
X18349028Y-44469658D01*
X18357900Y-44425057D01*
X18357899Y-44094944D01*
X18354853Y-44079631D01*
X18353183Y-44068703D01*
X18346839Y-44009704D01*
X18348512Y-43972251D01*
X18350028Y-43964628D01*
X18357900Y-43925057D01*
X18357899Y-43594944D01*
X18354853Y-43579631D01*
X18353183Y-43568703D01*
X18346839Y-43509704D01*
X18348512Y-43472251D01*
X18350028Y-43464628D01*
X18357900Y-43425057D01*
X18357899Y-43094944D01*
X18354853Y-43079631D01*
X18353183Y-43068703D01*
X18346839Y-43009704D01*
X18348512Y-42972251D01*
X18350028Y-42964628D01*
X18357900Y-42925057D01*
X18357899Y-42594944D01*
X18354853Y-42579631D01*
X18353183Y-42568703D01*
X18346839Y-42509704D01*
X18348512Y-42472251D01*
X18350028Y-42464628D01*
X18357900Y-42425057D01*
X18357899Y-42094944D01*
X18354853Y-42079631D01*
X18353183Y-42068703D01*
X18346839Y-42009704D01*
X18348512Y-41972251D01*
X18350028Y-41964628D01*
X18357900Y-41925057D01*
X18357899Y-41594944D01*
X18354853Y-41579631D01*
X18353183Y-41568703D01*
X18346839Y-41509704D01*
X18348512Y-41472251D01*
X18350028Y-41464628D01*
X18357900Y-41425057D01*
X18357899Y-41094944D01*
X18354853Y-41079631D01*
X18353183Y-41068703D01*
X18346839Y-41009704D01*
X18348512Y-40972251D01*
X18350028Y-40964628D01*
X18357900Y-40925057D01*
X18357899Y-40594944D01*
X18352961Y-40570119D01*
X18351408Y-40562307D01*
X18351408Y-40562306D01*
X18349028Y-40550340D01*
X18342246Y-40540191D01*
X18342245Y-40540190D01*
X18334833Y-40529097D01*
X18315234Y-40499766D01*
X18315233Y-40499765D01*
X18277266Y-40474396D01*
X18277258Y-40474391D01*
X18274742Y-40472710D01*
X18264658Y-40465972D01*
X18264657Y-40465971D01*
X18264656Y-40465971D01*
X18264654Y-40465970D01*
X18262568Y-40465555D01*
X18260595Y-40464368D01*
X18252684Y-40463589D01*
X18220059Y-40457100D01*
X18220058Y-40457100D01*
X17341830Y-40457100D01*
X17341825Y-40457099D01*
X17341823Y-40457100D01*
X17306889Y-40452075D01*
X17291890Y-40447670D01*
X17233144Y-40409927D01*
X17233115Y-40409893D01*
X17233114Y-40409893D01*
X17233113Y-40409891D01*
X17231957Y-40408558D01*
X17204477Y-40353683D01*
X17202832Y-40346121D01*
X17200000Y-40319768D01*
X17200000Y-39904728D01*
X17205023Y-39869792D01*
X17209427Y-39854794D01*
X17210106Y-39853737D01*
X17247172Y-39796043D01*
X17247200Y-39796018D01*
X17247199Y-39796018D01*
X17248541Y-39794855D01*
X17303420Y-39767376D01*
X17310979Y-39765732D01*
X17337332Y-39762899D01*
X18220055Y-39762899D01*
X18220056Y-39762899D01*
X18264658Y-39754028D01*
X18281396Y-39742844D01*
X18299422Y-39730799D01*
X18331251Y-39715571D01*
X18362893Y-39705663D01*
X18399943Y-39700000D01*
X21347554Y-39700000D01*
X21382486Y-39705021D01*
G37*
%TD.AperFunction*%
%TD*%
%TA.AperFunction,Conductor*%
%TO.N,GND*%
G36*
X18409191Y-36118907D02*
G01*
X18445155Y-36168407D01*
X18450000Y-36199000D01*
X18450000Y-39401000D01*
X18431093Y-39459191D01*
X18381593Y-39495155D01*
X18351000Y-39500000D01*
X17189613Y-39500000D01*
X17131422Y-39481093D01*
X17095458Y-39431593D01*
X17093992Y-39426644D01*
X17086281Y-39397865D01*
X17086279Y-39397862D01*
X17086279Y-39397860D01*
X17010518Y-39266639D01*
X17010516Y-39266637D01*
X17010515Y-39266635D01*
X16903365Y-39159485D01*
X16903362Y-39159483D01*
X16903360Y-39159481D01*
X16772138Y-39083720D01*
X16772140Y-39083720D01*
X16715347Y-39068503D01*
X16625766Y-39044500D01*
X16474234Y-39044500D01*
X16384652Y-39068503D01*
X16327860Y-39083720D01*
X16196639Y-39159481D01*
X16089481Y-39266639D01*
X16013720Y-39397860D01*
X16013719Y-39397865D01*
X16006012Y-39426624D01*
X15972690Y-39477937D01*
X15915569Y-39499864D01*
X15910387Y-39500000D01*
X11999000Y-39500000D01*
X11940809Y-39481093D01*
X11904845Y-39431593D01*
X11900000Y-39401000D01*
X11900000Y-36199000D01*
X11918907Y-36140809D01*
X11968407Y-36104845D01*
X11999000Y-36100000D01*
X18351000Y-36100000D01*
X18409191Y-36118907D01*
G37*
%TD.AperFunction*%
%TD*%
%TA.AperFunction,Conductor*%
%TO.N,GND*%
G36*
X15933691Y-45318907D02*
G01*
X15969655Y-45368407D01*
X15974500Y-45399000D01*
X15974500Y-45475766D01*
X16009086Y-45604847D01*
X16013720Y-45622139D01*
X16089481Y-45753360D01*
X16089483Y-45753362D01*
X16089485Y-45753365D01*
X16196635Y-45860515D01*
X16196637Y-45860516D01*
X16196639Y-45860518D01*
X16327861Y-45936279D01*
X16327859Y-45936279D01*
X16327863Y-45936280D01*
X16327865Y-45936281D01*
X16474234Y-45975500D01*
X16474236Y-45975500D01*
X16625764Y-45975500D01*
X16625766Y-45975500D01*
X16772135Y-45936281D01*
X16772137Y-45936279D01*
X16772139Y-45936279D01*
X16903360Y-45860518D01*
X16903360Y-45860517D01*
X16903365Y-45860515D01*
X17010515Y-45753365D01*
X17086281Y-45622135D01*
X17125500Y-45475766D01*
X17125500Y-45461899D01*
X17144407Y-45403708D01*
X17193907Y-45367744D01*
X17224500Y-45362899D01*
X18220052Y-45362899D01*
X18220056Y-45362899D01*
X18220060Y-45362898D01*
X18220062Y-45362898D01*
X18224820Y-45361951D01*
X18231684Y-45360586D01*
X18292445Y-45367776D01*
X18337376Y-45409307D01*
X18350000Y-45457683D01*
X18350000Y-47501000D01*
X18331093Y-47559191D01*
X18281593Y-47595155D01*
X18251000Y-47600000D01*
X11999000Y-47600000D01*
X11940809Y-47581093D01*
X11904845Y-47531593D01*
X11900000Y-47501000D01*
X11900000Y-45399000D01*
X11918907Y-45340809D01*
X11968407Y-45304845D01*
X11999000Y-45300000D01*
X15875500Y-45300000D01*
X15933691Y-45318907D01*
G37*
%TD.AperFunction*%
%TD*%
M02*
