<?xml version="1.0" standalone="no"?>
 <!DOCTYPE svg PUBLIC "-//W3C//DTD SVG 1.1//EN" 
 "http://www.w3.org/Graphics/SVG/1.1/DTD/svg11.dtd"> 
<svg
  xmlns:svg="http://www.w3.org/2000/svg"
  xmlns="http://www.w3.org/2000/svg"
  xmlns:xlink="http://www.w3.org/1999/xlink"
  xmlns:inkscape="http://www.inkscape.org/namespaces/inkscape"
  version="1.1"
  width="30.048200mm" height="15.240000mm" viewBox="0.000000 0.000000 30.048200 15.240000">
<title>SVG Image created as CONN-SMD_S10B-PH-SM4-TB-LF-SN.svg date 2026-07-28T22:32:45 </title>
  <desc>Image generated by PCBNEW </desc>
<g style="fill:#000000; fill-opacity:1.000000;stroke:#000000; stroke-opacity:1.000000;
stroke-linecap:round; stroke-linejoin:round;"
 transform="translate(0 0) scale(1 1)">
<path style="fill:#C83434; fill-opacity:1.000000; stroke:none;fill-rule:evenodd;"
d="M 23.529761,12.143250
23.529761,8.643250
24.529761,8.643250
24.529761,12.143250
Z" /> 
<path style="fill:#C83434; fill-opacity:1.000000; stroke:none;fill-rule:evenodd;"
d="M 21.529761,12.143250
21.529761,8.643250
22.529761,8.643250
22.529761,12.143250
Z" /> 
<path style="fill:#C83434; fill-opacity:1.000000; stroke:none;fill-rule:evenodd;"
d="M 19.529761,12.143250
19.529761,8.643250
20.529761,8.643250
20.529761,12.143250
Z" /> 
<path style="fill:#C83434; fill-opacity:1.000000; stroke:none;fill-rule:evenodd;"
d="M 17.529761,12.143250
17.529761,8.643250
18.529761,8.643250
18.529761,12.143250
Z" /> 
<path style="fill:#C83434; fill-opacity:1.000000; stroke:none;fill-rule:evenodd;"
d="M 15.529761,12.143250
15.529761,8.643250
16.529761,8.643250
16.529761,12.143250
Z" /> 
<path style="fill:#C83434; fill-opacity:1.000000; stroke:none;fill-rule:evenodd;"
d="M 13.529761,12.143250
13.529761,8.643250
14.529761,8.643250
14.529761,12.143250
Z" /> 
<path style="fill:#C83434; fill-opacity:1.000000; stroke:none;fill-rule:evenodd;"
d="M 11.529761,12.143250
11.529761,8.643250
12.529761,8.643250
12.529761,12.143250
Z" /> 
<path style="fill:#C83434; fill-opacity:1.000000; stroke:none;fill-rule:evenodd;"
d="M 9.529761,12.143250
9.529761,8.643250
10.529761,8.643250
10.529761,12.143250
Z" /> 
<path style="fill:#C83434; fill-opacity:1.000000; stroke:none;fill-rule:evenodd;"
d="M 7.529761,12.143250
7.529761,8.643250
8.529761,8.643250
8.529761,12.143250
Z" /> 
<path style="fill:#C83434; fill-opacity:1.000000; stroke:none;fill-rule:evenodd;"
d="M 5.529761,12.143250
5.529761,8.643250
6.529761,8.643250
6.529761,12.143250
Z" /> 
<path style="fill:#C83434; fill-opacity:1.000000; stroke:none;fill-rule:evenodd;"
d="M 2.879761,6.553250
2.879761,3.153250
4.379761,3.153250
4.379761,6.553250
Z" /> 
<path style="fill:#C83434; fill-opacity:1.000000; stroke:none;fill-rule:evenodd;"
d="M 25.679761,6.553250
25.679761,3.153250
27.179761,3.153250
27.179761,6.553250
Z" /> 
<path style="fill:#D864FF; fill-opacity:0.400000; stroke:none;fill-rule:evenodd;"
d="M 23.529761,12.143250
23.529761,8.643250
24.529761,8.643250
24.529761,12.143250
Z" /> 
<path style="fill:#D864FF; fill-opacity:0.400000; stroke:none;fill-rule:evenodd;"
d="M 21.529761,12.143250
21.529761,8.643250
22.529761,8.643250
22.529761,12.143250
Z" /> 
<path style="fill:#D864FF; fill-opacity:0.400000; stroke:none;fill-rule:evenodd;"
d="M 19.529761,12.143250
19.529761,8.643250
20.529761,8.643250
20.529761,12.143250
Z" /> 
<path style="fill:#D864FF; fill-opacity:0.400000; stroke:none;fill-rule:evenodd;"
d="M 17.529761,12.143250
17.529761,8.643250
18.529761,8.643250
18.529761,12.143250
Z" /> 
<path style="fill:#D864FF; fill-opacity:0.400000; stroke:none;fill-rule:evenodd;"
d="M 15.529761,12.143250
15.529761,8.643250
16.529761,8.643250
16.529761,12.143250
Z" /> 
<path style="fill:#D864FF; fill-opacity:0.400000; stroke:none;fill-rule:evenodd;"
d="M 13.529761,12.143250
13.529761,8.643250
14.529761,8.643250
14.529761,12.143250
Z" /> 
<path style="fill:#D864FF; fill-opacity:0.400000; stroke:none;fill-rule:evenodd;"
d="M 11.529761,12.143250
11.529761,8.643250
12.529761,8.643250
12.529761,12.143250
Z" /> 
<path style="fill:#D864FF; fill-opacity:0.400000; stroke:none;fill-rule:evenodd;"
d="M 9.529761,12.143250
9.529761,8.643250
10.529761,8.643250
10.529761,12.143250
Z" /> 
<path style="fill:#D864FF; fill-opacity:0.400000; stroke:none;fill-rule:evenodd;"
d="M 7.529761,12.143250
7.529761,8.643250
8.529761,8.643250
8.529761,12.143250
Z" /> 
<path style="fill:#D864FF; fill-opacity:0.400000; stroke:none;fill-rule:evenodd;"
d="M 5.529761,12.143250
5.529761,8.643250
6.529761,8.643250
6.529761,12.143250
Z" /> 
<path style="fill:#D864FF; fill-opacity:0.400000; stroke:none;fill-rule:evenodd;"
d="M 2.879761,6.553250
2.879761,3.153250
4.379761,3.153250
4.379761,6.553250
Z" /> 
<path style="fill:#D864FF; fill-opacity:0.400000; stroke:none;fill-rule:evenodd;"
d="M 25.679761,6.553250
25.679761,3.153250
27.179761,3.153250
27.179761,6.553250
Z" /> 
<path style="fill:#B4A09A; fill-opacity:0.900000; stroke:none;fill-rule:evenodd;"
d="M 23.529761,12.143250
23.529761,8.643250
24.529761,8.643250
24.529761,12.143250
Z" /> 
<path style="fill:#B4A09A; fill-opacity:0.900000; stroke:none;fill-rule:evenodd;"
d="M 21.529761,12.143250
21.529761,8.643250
22.529761,8.643250
22.529761,12.143250
Z" /> 
<path style="fill:#B4A09A; fill-opacity:0.900000; stroke:none;fill-rule:evenodd;"
d="M 19.529761,12.143250
19.529761,8.643250
20.529761,8.643250
20.529761,12.143250
Z" /> 
<path style="fill:#B4A09A; fill-opacity:0.900000; stroke:none;fill-rule:evenodd;"
d="M 17.529761,12.143250
17.529761,8.643250
18.529761,8.643250
18.529761,12.143250
Z" /> 
<path style="fill:#B4A09A; fill-opacity:0.900000; stroke:none;fill-rule:evenodd;"
d="M 15.529761,12.143250
15.529761,8.643250
16.529761,8.643250
16.529761,12.143250
Z" /> 
<path style="fill:#B4A09A; fill-opacity:0.900000; stroke:none;fill-rule:evenodd;"
d="M 13.529761,12.143250
13.529761,8.643250
14.529761,8.643250
14.529761,12.143250
Z" /> 
<path style="fill:#B4A09A; fill-opacity:0.900000; stroke:none;fill-rule:evenodd;"
d="M 11.529761,12.143250
11.529761,8.643250
12.529761,8.643250
12.529761,12.143250
Z" /> 
<path style="fill:#B4A09A; fill-opacity:0.900000; stroke:none;fill-rule:evenodd;"
d="M 9.529761,12.143250
9.529761,8.643250
10.529761,8.643250
10.529761,12.143250
Z" /> 
<path style="fill:#B4A09A; fill-opacity:0.900000; stroke:none;fill-rule:evenodd;"
d="M 7.529761,12.143250
7.529761,8.643250
8.529761,8.643250
8.529761,12.143250
Z" /> 
<path style="fill:#B4A09A; fill-opacity:0.900000; stroke:none;fill-rule:evenodd;"
d="M 5.529761,12.143250
5.529761,8.643250
6.529761,8.643250
6.529761,12.143250
Z" /> 
<path style="fill:#B4A09A; fill-opacity:0.900000; stroke:none;fill-rule:evenodd;"
d="M 2.879761,6.553250
2.879761,3.153250
4.379761,3.153250
4.379761,6.553250
Z" /> 
<path style="fill:#B4A09A; fill-opacity:0.900000; stroke:none;fill-rule:evenodd;"
d="M 25.679761,6.553250
25.679761,3.153250
27.179761,3.153250
27.179761,6.553250
Z" /> 
</g>
<g style="fill:none; 
stroke:#F2EDA1; stroke-width:0.150000; stroke-opacity:1; 
stroke-linecap:round; stroke-linejoin:round;">
<text x="15.029761" y="1.348250"
textLength="4.535715" font-size="1.333333" lengthAdjust="spacingAndGlyphs"
text-anchor="middle" opacity="0" stroke-opacity="0">REF**</text>
<g class="stroked-text"><desc>REF**</desc>
<path d="M13.696428 1.303070
L13.363095 0.826879
" />
<path d="M13.125000 1.303070
L13.125000 0.303070
" />
<path d="M13.125000 0.303070
L13.505952 0.303070
" />
<path d="M13.505952 0.303070
L13.601190 0.350689
" />
<path d="M13.601190 0.350689
L13.648809 0.398308
" />
<path d="M13.648809 0.398308
L13.696428 0.493546
" />
<path d="M13.696428 0.493546
L13.696428 0.636403
" />
<path d="M13.696428 0.636403
L13.648809 0.731641
" />
<path d="M13.648809 0.731641
L13.601190 0.779260
" />
<path d="M13.601190 0.779260
L13.505952 0.826879
" />
<path d="M13.505952 0.826879
L13.125000 0.826879
" />
<path d="M14.125000 0.779260
L14.458333 0.779260
" />
<path d="M14.601190 1.303070
L14.125000 1.303070
" />
<path d="M14.125000 1.303070
L14.125000 0.303070
" />
<path d="M14.125000 0.303070
L14.601190 0.303070
" />
<path d="M15.363094 0.779260
L15.029761 0.779260
" />
<path d="M15.029761 1.303070
L15.029761 0.303070
" />
<path d="M15.029761 0.303070
L15.505951 0.303070
" />
<path d="M16.029761 0.303070
L16.029761 0.541165
" />
<path d="M15.791666 0.445927
L16.029761 0.541165
" />
<path d="M16.029761 0.541165
L16.267856 0.445927
" />
<path d="M15.886904 0.731641
L16.029761 0.541165
" />
<path d="M16.029761 0.541165
L16.172618 0.731641
" />
<path d="M16.791666 0.303070
L16.791666 0.541165
" />
<path d="M16.553571 0.445927
L16.791666 0.541165
" />
<path d="M16.791666 0.541165
L17.029761 0.445927
" />
<path d="M16.648809 0.731641
L16.791666 0.541165
" />
<path d="M16.791666 0.541165
L16.934523 0.731641
" />
</g></g>
<g style="fill:none; 
stroke:#F2EDA1; stroke-width:0.250000; stroke-opacity:1; 
stroke-linecap:round; stroke-linejoin:round;">
<path d="M24.759761 9.123250
L25.629761 9.123250
" />
<path d="M25.629761 9.123250
L25.629761 10.723250
" />
<path d="M25.629761 10.723250
L25.629761 10.923250
" />
<path d="M25.629761 10.923250
L27.029761 10.923250
" />
<path d="M27.029761 10.923250
L27.029761 6.823250
" />
<path d="M22.759761 9.123250
L23.299761 9.123250
" />
<path d="M20.759761 9.123250
L21.299761 9.123250
" />
<path d="M18.759761 9.123250
L19.299761 9.123250
" />
<path d="M16.759761 9.123250
L17.299761 9.123250
" />
<path d="M14.759761 9.123250
L15.299761 9.123250
" />
<path d="M12.759761 9.123250
L13.299761 9.123250
" />
<path d="M10.759761 9.123250
L11.299761 9.123250
" />
<path d="M8.759761 9.123250
L9.299761 9.123250
" />
<path d="M6.759761 9.123250
L7.299761 9.123250
" />
<path d="M2.829761 6.823250
L2.829761 10.923250
" />
<path d="M2.829761 10.923250
L4.329761 10.923250
" />
<path d="M4.329761 10.923250
L4.329761 9.123250
" />
<path d="M4.329761 9.123250
L5.299761 9.123250
" />
<path d="M4.629761 2.823250
L25.329761 2.823250
" />
</g>
<g style="fill:none; 
stroke:#F2EDA1; stroke-width:0.060000; stroke-opacity:1; 
stroke-linecap:round; stroke-linejoin:round;">
<circle cx="26.979761" cy="11.753250" r="0.030000" /> 
</g>
<g style="fill:none; 
stroke:#F2EDA1; stroke-width:0.250000; stroke-opacity:1; 
stroke-linecap:round; stroke-linejoin:round;">
<circle cx="25.129761" cy="11.323250" r="0.320000" /> 
</g>
<g style="fill:none; 
stroke:#FF26E2; stroke-width:0.050000; stroke-opacity:1; 
stroke-linecap:round; stroke-linejoin:round;">
<path d="M3.079761 3.153250
L26.979761 3.153250
" />
<path d="M26.979761 3.153250
L26.979761 10.753250
" />
<path d="M26.979761 10.753250
L25.629761 10.743250
" />
<path d="M25.629761 10.743250
L25.629761 9.123250
" />
<path d="M25.629761 9.123250
L4.429761 9.123250
" />
<path d="M4.429761 9.123250
L4.429761 10.743250
" />
<path d="M4.429761 10.743250
L3.079761 10.753250
" />
<path d="M3.079761 10.753250
L3.079761 3.153250
" />
</g>
<g style="fill:none; 
stroke:#AFAFAF; stroke-width:0.150000; stroke-opacity:1; 
stroke-linecap:round; stroke-linejoin:round;">
<text x="15.029761" y="14.898250"
textLength="30.059523" font-size="1.333333" lengthAdjust="spacingAndGlyphs"
text-anchor="middle" opacity="0" stroke-opacity="0">CONN-SMD_S10B-PH-SM4-TB-LF-SN</text>
<g class="stroked-text"><desc>CONN-SMD_S10B-PH-SM4-TB-LF-SN</desc>
<path d="M0.934524 14.757830
L0.886905 14.805450
" />
<path d="M0.886905 14.805450
L0.744048 14.853069
" />
<path d="M0.744048 14.853069
L0.648810 14.853069
" />
<path d="M0.648810 14.853069
L0.505953 14.805450
" />
<path d="M0.505953 14.805450
L0.410715 14.710211
" />
<path d="M0.410715 14.710211
L0.363096 14.614973
" />
<path d="M0.363096 14.614973
L0.315477 14.424497
" />
<path d="M0.315477 14.424497
L0.315477 14.281640
" />
<path d="M0.315477 14.281640
L0.363096 14.091164
" />
<path d="M0.363096 14.091164
L0.410715 13.995926
" />
<path d="M0.410715 13.995926
L0.505953 13.900688
" />
<path d="M0.505953 13.900688
L0.648810 13.853069
" />
<path d="M0.648810 13.853069
L0.744048 13.853069
" />
<path d="M0.744048 13.853069
L0.886905 13.900688
" />
<path d="M0.886905 13.900688
L0.934524 13.948307
" />
<path d="M1.553572 13.853069
L1.744048 13.853069
" />
<path d="M1.744048 13.853069
L1.839286 13.900688
" />
<path d="M1.839286 13.900688
L1.934524 13.995926
" />
<path d="M1.934524 13.995926
L1.982143 14.186402
" />
<path d="M1.982143 14.186402
L1.982143 14.519735
" />
<path d="M1.982143 14.519735
L1.934524 14.710211
" />
<path d="M1.934524 14.710211
L1.839286 14.805450
" />
<path d="M1.839286 14.805450
L1.744048 14.853069
" />
<path d="M1.744048 14.853069
L1.553572 14.853069
" />
<path d="M1.553572 14.853069
L1.458334 14.805450
" />
<path d="M1.458334 14.805450
L1.363096 14.710211
" />
<path d="M1.363096 14.710211
L1.315477 14.519735
" />
<path d="M1.315477 14.519735
L1.315477 14.186402
" />
<path d="M1.315477 14.186402
L1.363096 13.995926
" />
<path d="M1.363096 13.995926
L1.458334 13.900688
" />
<path d="M1.458334 13.900688
L1.553572 13.853069
" />
<path d="M2.410715 14.853069
L2.410715 13.853069
" />
<path d="M2.410715 13.853069
L2.982143 14.853069
" />
<path d="M2.982143 14.853069
L2.982143 13.853069
" />
<path d="M3.458334 14.853069
L3.458334 13.853069
" />
<path d="M3.458334 13.853069
L4.029762 14.853069
" />
<path d="M4.029762 14.853069
L4.029762 13.853069
" />
<path d="M4.505953 14.472116
L5.267857 14.472116
" />
<path d="M5.696429 14.805450
L5.839286 14.853069
" />
<path d="M5.839286 14.853069
L6.077381 14.853069
" />
<path d="M6.077381 14.853069
L6.172619 14.805450
" />
<path d="M6.172619 14.805450
L6.220238 14.757830
" />
<path d="M6.220238 14.757830
L6.267857 14.662592
" />
<path d="M6.267857 14.662592
L6.267857 14.567354
" />
<path d="M6.267857 14.567354
L6.220238 14.472116
" />
<path d="M6.220238 14.472116
L6.172619 14.424497
" />
<path d="M6.172619 14.424497
L6.077381 14.376878
" />
<path d="M6.077381 14.376878
L5.886905 14.329259
" />
<path d="M5.886905 14.329259
L5.791667 14.281640
" />
<path d="M5.791667 14.281640
L5.744048 14.234021
" />
<path d="M5.744048 14.234021
L5.696429 14.138783
" />
<path d="M5.696429 14.138783
L5.696429 14.043545
" />
<path d="M5.696429 14.043545
L5.744048 13.948307
" />
<path d="M5.744048 13.948307
L5.791667 13.900688
" />
<path d="M5.791667 13.900688
L5.886905 13.853069
" />
<path d="M5.886905 13.853069
L6.125000 13.853069
" />
<path d="M6.125000 13.853069
L6.267857 13.900688
" />
<path d="M6.696429 14.853069
L6.696429 13.853069
" />
<path d="M6.696429 13.853069
L7.029762 14.567354
" />
<path d="M7.029762 14.567354
L7.363095 13.853069
" />
<path d="M7.363095 13.853069
L7.363095 14.853069
" />
<path d="M7.839286 14.853069
L7.839286 13.853069
" />
<path d="M7.839286 13.853069
L8.077381 13.853069
" />
<path d="M8.077381 13.853069
L8.220238 13.900688
" />
<path d="M8.220238 13.900688
L8.315476 13.995926
" />
<path d="M8.315476 13.995926
L8.363095 14.091164
" />
<path d="M8.363095 14.091164
L8.410714 14.281640
" />
<path d="M8.410714 14.281640
L8.410714 14.424497
" />
<path d="M8.410714 14.424497
L8.363095 14.614973
" />
<path d="M8.363095 14.614973
L8.315476 14.710211
" />
<path d="M8.315476 14.710211
L8.220238 14.805450
" />
<path d="M8.220238 14.805450
L8.077381 14.853069
" />
<path d="M8.077381 14.853069
L7.839286 14.853069
" />
<path d="M8.601190 14.948307
L9.363095 14.948307
" />
<path d="M9.553572 14.805450
L9.696429 14.853069
" />
<path d="M9.696429 14.853069
L9.934524 14.853069
" />
<path d="M9.934524 14.853069
L10.029762 14.805450
" />
<path d="M10.029762 14.805450
L10.077381 14.757830
" />
<path d="M10.077381 14.757830
L10.125000 14.662592
" />
<path d="M10.125000 14.662592
L10.125000 14.567354
" />
<path d="M10.125000 14.567354
L10.077381 14.472116
" />
<path d="M10.077381 14.472116
L10.029762 14.424497
" />
<path d="M10.029762 14.424497
L9.934524 14.376878
" />
<path d="M9.934524 14.376878
L9.744048 14.329259
" />
<path d="M9.744048 14.329259
L9.648810 14.281640
" />
<path d="M9.648810 14.281640
L9.601191 14.234021
" />
<path d="M9.601191 14.234021
L9.553572 14.138783
" />
<path d="M9.553572 14.138783
L9.553572 14.043545
" />
<path d="M9.553572 14.043545
L9.601191 13.948307
" />
<path d="M9.601191 13.948307
L9.648810 13.900688
" />
<path d="M9.648810 13.900688
L9.744048 13.853069
" />
<path d="M9.744048 13.853069
L9.982143 13.853069
" />
<path d="M9.982143 13.853069
L10.125000 13.900688
" />
<path d="M11.077381 14.853069
L10.505953 14.853069
" />
<path d="M10.791667 14.853069
L10.791667 13.853069
" />
<path d="M10.791667 13.853069
L10.696429 13.995926
" />
<path d="M10.696429 13.995926
L10.601191 14.091164
" />
<path d="M10.601191 14.091164
L10.505953 14.138783
" />
<path d="M11.696429 13.853069
L11.791667 13.853069
" />
<path d="M11.791667 13.853069
L11.886905 13.900688
" />
<path d="M11.886905 13.900688
L11.934524 13.948307
" />
<path d="M11.934524 13.948307
L11.982143 14.043545
" />
<path d="M11.982143 14.043545
L12.029762 14.234021
" />
<path d="M12.029762 14.234021
L12.029762 14.472116
" />
<path d="M12.029762 14.472116
L11.982143 14.662592
" />
<path d="M11.982143 14.662592
L11.934524 14.757830
" />
<path d="M11.934524 14.757830
L11.886905 14.805450
" />
<path d="M11.886905 14.805450
L11.791667 14.853069
" />
<path d="M11.791667 14.853069
L11.696429 14.853069
" />
<path d="M11.696429 14.853069
L11.601191 14.805450
" />
<path d="M11.601191 14.805450
L11.553572 14.757830
" />
<path d="M11.553572 14.757830
L11.505953 14.662592
" />
<path d="M11.505953 14.662592
L11.458334 14.472116
" />
<path d="M11.458334 14.472116
L11.458334 14.234021
" />
<path d="M11.458334 14.234021
L11.505953 14.043545
" />
<path d="M11.505953 14.043545
L11.553572 13.948307
" />
<path d="M11.553572 13.948307
L11.601191 13.900688
" />
<path d="M11.601191 13.900688
L11.696429 13.853069
" />
<path d="M12.791667 14.329259
L12.934524 14.376878
" />
<path d="M12.934524 14.376878
L12.982143 14.424497
" />
<path d="M12.982143 14.424497
L13.029762 14.519735
" />
<path d="M13.029762 14.519735
L13.029762 14.662592
" />
<path d="M13.029762 14.662592
L12.982143 14.757830
" />
<path d="M12.982143 14.757830
L12.934524 14.805450
" />
<path d="M12.934524 14.805450
L12.839286 14.853069
" />
<path d="M12.839286 14.853069
L12.458334 14.853069
" />
<path d="M12.458334 14.853069
L12.458334 13.853069
" />
<path d="M12.458334 13.853069
L12.791667 13.853069
" />
<path d="M12.791667 13.853069
L12.886905 13.900688
" />
<path d="M12.886905 13.900688
L12.934524 13.948307
" />
<path d="M12.934524 13.948307
L12.982143 14.043545
" />
<path d="M12.982143 14.043545
L12.982143 14.138783
" />
<path d="M12.982143 14.138783
L12.934524 14.234021
" />
<path d="M12.934524 14.234021
L12.886905 14.281640
" />
<path d="M12.886905 14.281640
L12.791667 14.329259
" />
<path d="M12.791667 14.329259
L12.458334 14.329259
" />
<path d="M13.458334 14.472116
L14.220238 14.472116
" />
<path d="M14.696429 14.853069
L14.696429 13.853069
" />
<path d="M14.696429 13.853069
L15.077380 13.853069
" />
<path d="M15.077380 13.853069
L15.172618 13.900688
" />
<path d="M15.172618 13.900688
L15.220237 13.948307
" />
<path d="M15.220237 13.948307
L15.267856 14.043545
" />
<path d="M15.267856 14.043545
L15.267856 14.186402
" />
<path d="M15.267856 14.186402
L15.220237 14.281640
" />
<path d="M15.220237 14.281640
L15.172618 14.329259
" />
<path d="M15.172618 14.329259
L15.077380 14.376878
" />
<path d="M15.077380 14.376878
L14.696429 14.376878
" />
<path d="M15.696428 14.853069
L15.696428 13.853069
" />
<path d="M15.696428 14.329259
L16.267856 14.329259
" />
<path d="M16.267856 14.853069
L16.267856 13.853069
" />
<path d="M16.744047 14.472116
L17.505952 14.472116
" />
<path d="M17.934523 14.805450
L18.077380 14.853069
" />
<path d="M18.077380 14.853069
L18.315475 14.853069
" />
<path d="M18.315475 14.853069
L18.410713 14.805450
" />
<path d="M18.410713 14.805450
L18.458332 14.757830
" />
<path d="M18.458332 14.757830
L18.505951 14.662592
" />
<path d="M18.505951 14.662592
L18.505951 14.567354
" />
<path d="M18.505951 14.567354
L18.458332 14.472116
" />
<path d="M18.458332 14.472116
L18.410713 14.424497
" />
<path d="M18.410713 14.424497
L18.315475 14.376878
" />
<path d="M18.315475 14.376878
L18.124999 14.329259
" />
<path d="M18.124999 14.329259
L18.029761 14.281640
" />
<path d="M18.029761 14.281640
L17.982142 14.234021
" />
<path d="M17.982142 14.234021
L17.934523 14.138783
" />
<path d="M17.934523 14.138783
L17.934523 14.043545
" />
<path d="M17.934523 14.043545
L17.982142 13.948307
" />
<path d="M17.982142 13.948307
L18.029761 13.900688
" />
<path d="M18.029761 13.900688
L18.124999 13.853069
" />
<path d="M18.124999 13.853069
L18.363094 13.853069
" />
<path d="M18.363094 13.853069
L18.505951 13.900688
" />
<path d="M18.934523 14.853069
L18.934523 13.853069
" />
<path d="M18.934523 13.853069
L19.267856 14.567354
" />
<path d="M19.267856 14.567354
L19.601189 13.853069
" />
<path d="M19.601189 13.853069
L19.601189 14.853069
" />
<path d="M20.505951 14.186402
L20.505951 14.853069
" />
<path d="M20.267856 13.805450
L20.029761 14.519735
" />
<path d="M20.029761 14.519735
L20.648808 14.519735
" />
<path d="M21.029761 14.472116
L21.791666 14.472116
" />
<path d="M22.124999 13.853069
L22.696427 13.853069
" />
<path d="M22.410713 14.853069
L22.410713 13.853069
" />
<path d="M23.363094 14.329259
L23.505951 14.376878
" />
<path d="M23.505951 14.376878
L23.553570 14.424497
" />
<path d="M23.553570 14.424497
L23.601189 14.519735
" />
<path d="M23.601189 14.519735
L23.601189 14.662592
" />
<path d="M23.601189 14.662592
L23.553570 14.757830
" />
<path d="M23.553570 14.757830
L23.505951 14.805450
" />
<path d="M23.505951 14.805450
L23.410713 14.853069
" />
<path d="M23.410713 14.853069
L23.029761 14.853069
" />
<path d="M23.029761 14.853069
L23.029761 13.853069
" />
<path d="M23.029761 13.853069
L23.363094 13.853069
" />
<path d="M23.363094 13.853069
L23.458332 13.900688
" />
<path d="M23.458332 13.900688
L23.505951 13.948307
" />
<path d="M23.505951 13.948307
L23.553570 14.043545
" />
<path d="M23.553570 14.043545
L23.553570 14.138783
" />
<path d="M23.553570 14.138783
L23.505951 14.234021
" />
<path d="M23.505951 14.234021
L23.458332 14.281640
" />
<path d="M23.458332 14.281640
L23.363094 14.329259
" />
<path d="M23.363094 14.329259
L23.029761 14.329259
" />
<path d="M24.029761 14.472116
L24.791666 14.472116
" />
<path d="M25.744046 14.853069
L25.267856 14.853069
" />
<path d="M25.267856 14.853069
L25.267856 13.853069
" />
<path d="M26.410713 14.329259
L26.077380 14.329259
" />
<path d="M26.077380 14.853069
L26.077380 13.853069
" />
<path d="M26.077380 13.853069
L26.553570 13.853069
" />
<path d="M26.934523 14.472116
L27.696428 14.472116
" />
<path d="M28.124999 14.805450
L28.267856 14.853069
" />
<path d="M28.267856 14.853069
L28.505951 14.853069
" />
<path d="M28.505951 14.853069
L28.601189 14.805450
" />
<path d="M28.601189 14.805450
L28.648808 14.757830
" />
<path d="M28.648808 14.757830
L28.696427 14.662592
" />
<path d="M28.696427 14.662592
L28.696427 14.567354
" />
<path d="M28.696427 14.567354
L28.648808 14.472116
" />
<path d="M28.648808 14.472116
L28.601189 14.424497
" />
<path d="M28.601189 14.424497
L28.505951 14.376878
" />
<path d="M28.505951 14.376878
L28.315475 14.329259
" />
<path d="M28.315475 14.329259
L28.220237 14.281640
" />
<path d="M28.220237 14.281640
L28.172618 14.234021
" />
<path d="M28.172618 14.234021
L28.124999 14.138783
" />
<path d="M28.124999 14.138783
L28.124999 14.043545
" />
<path d="M28.124999 14.043545
L28.172618 13.948307
" />
<path d="M28.172618 13.948307
L28.220237 13.900688
" />
<path d="M28.220237 13.900688
L28.315475 13.853069
" />
<path d="M28.315475 13.853069
L28.553570 13.853069
" />
<path d="M28.553570 13.853069
L28.696427 13.900688
" />
<path d="M29.124999 14.853069
L29.124999 13.853069
" />
<path d="M29.124999 13.853069
L29.696427 14.853069
" />
<path d="M29.696427 14.853069
L29.696427 13.853069
" />
</g><text x="15.029761" y="8.123250"
textLength="4.535715" font-size="1.333333" lengthAdjust="spacingAndGlyphs"
text-anchor="middle" opacity="0" stroke-opacity="0">REF**</text>
<g class="stroked-text"><desc>REF**</desc>
<path d="M13.696428 8.078069
L13.363095 7.601879
" />
<path d="M13.125000 8.078069
L13.125000 7.078070
" />
<path d="M13.125000 7.078070
L13.505952 7.078070
" />
<path d="M13.505952 7.078070
L13.601190 7.125689
" />
<path d="M13.601190 7.125689
L13.648809 7.173308
" />
<path d="M13.648809 7.173308
L13.696428 7.268546
" />
<path d="M13.696428 7.268546
L13.696428 7.411403
" />
<path d="M13.696428 7.411403
L13.648809 7.506641
" />
<path d="M13.648809 7.506641
L13.601190 7.554260
" />
<path d="M13.601190 7.554260
L13.505952 7.601879
" />
<path d="M13.505952 7.601879
L13.125000 7.601879
" />
<path d="M14.125000 7.554260
L14.458333 7.554260
" />
<path d="M14.601190 8.078069
L14.125000 8.078069
" />
<path d="M14.125000 8.078069
L14.125000 7.078070
" />
<path d="M14.125000 7.078070
L14.601190 7.078070
" />
<path d="M15.363094 7.554260
L15.029761 7.554260
" />
<path d="M15.029761 8.078069
L15.029761 7.078070
" />
<path d="M15.029761 7.078070
L15.505951 7.078070
" />
<path d="M16.029761 7.078070
L16.029761 7.316165
" />
<path d="M15.791666 7.220927
L16.029761 7.316165
" />
<path d="M16.029761 7.316165
L16.267856 7.220927
" />
<path d="M15.886904 7.506641
L16.029761 7.316165
" />
<path d="M16.029761 7.316165
L16.172618 7.506641
" />
<path d="M16.791666 7.078070
L16.791666 7.316165
" />
<path d="M16.553571 7.220927
L16.791666 7.316165
" />
<path d="M16.791666 7.316165
L17.029761 7.220927
" />
<path d="M16.648809 7.506641
L16.791666 7.316165
" />
<path d="M16.791666 7.316165
L16.934523 7.506641
" />
</g></g>
<g style="fill:none; 
stroke:#5994DC; stroke-width:0.500000; stroke-opacity:1; 
stroke-linecap:round; stroke-linejoin:round;">
<circle cx="24.329761" cy="10.223250" r="0.250000" /> 
</g> 
</svg>
