%TF.GenerationSoftware,KiCad,Pcbnew,10.0.3*%
%TF.CreationDate,2026-08-17T20:48:21-07:00*%
%TF.ProjectId,bb-mcu,62622d6d-6375-42e6-9b69-6361645f7063,rev?*%
%TF.SameCoordinates,Original*%
%TF.FileFunction,Copper,L2,Bot*%
%TF.FilePolarity,Positive*%
%FSLAX46Y46*%
G04 Gerber Fmt 4.6, Leading zero omitted, Abs format (unit mm)*
G04 Created by KiCad (PCBNEW 10.0.3) date 2026-08-17 20:48:21*
%MOMM*%
%LPD*%
G01*
G04 APERTURE LIST*
%TA.AperFunction,ComponentPad*%
%ADD10R,1.700000X1.700000*%
%TD*%
%TA.AperFunction,ComponentPad*%
%ADD11C,1.700000*%
%TD*%
%TA.AperFunction,ComponentPad*%
%ADD12C,2.300000*%
%TD*%
%TA.AperFunction,ViaPad*%
%ADD13C,0.600000*%
%TD*%
%TA.AperFunction,Conductor*%
%ADD14C,0.200000*%
%TD*%
G04 APERTURE END LIST*
D10*
%TO.P,J2,1*%
%TO.N,GND*%
X30280000Y-10760000D03*
D11*
%TO.P,J2,2*%
%TO.N,/SWCLK*%
X27740000Y-10760000D03*
%TO.P,J2,3*%
%TO.N,+3V3*%
X25200000Y-10760000D03*
%TO.P,J2,4*%
%TO.N,/SWDIO*%
X22660000Y-10760000D03*
%TO.P,J2,5*%
%TO.N,/NRST*%
X20120000Y-10760000D03*
%TD*%
D12*
%TO.P,J1,1*%
%TO.N,+3V3*%
X37800000Y-19360000D03*
%TO.P,J1,2*%
%TO.N,GND*%
X37800000Y-24440000D03*
%TD*%
D10*
%TO.P,J3,1*%
%TO.N,/IO1*%
X10800000Y-19320000D03*
D11*
%TO.P,J3,2*%
%TO.N,/IO2*%
X10800000Y-21860000D03*
%TO.P,J3,3*%
%TO.N,/IO3*%
X10800000Y-24400000D03*
%TO.P,J3,4*%
%TO.N,/IO4*%
X10800000Y-26940000D03*
%TO.P,J3,5*%
%TO.N,GND*%
X10800000Y-29480000D03*
%TD*%
D13*
%TO.N,GND*%
X16750000Y-16050000D03*
X31850000Y-19955000D03*
X16913000Y-13468700D03*
X28643000Y-19056000D03*
X16750000Y-17800000D03*
X29550000Y-17050000D03*
X29550000Y-18800000D03*
X13550000Y-17800000D03*
%TD*%
%TO.N,GND*%
D14*
X29550000Y-17050000D02*
X29550000Y-18800000D01*
%TD*%
%TA.AperFunction,Conductor*%
%TO.N,GND*%
G36*
X10287470Y-29692297D02*
G01*
X10359881Y-29817715D01*
X10462285Y-29920119D01*
X10587703Y-29992530D01*
X10629755Y-30003797D01*
X10038282Y-30595269D01*
X10039935Y-30616271D01*
X10025571Y-30684648D01*
X9976520Y-30734405D01*
X9916317Y-30750000D01*
X9654000Y-30750000D01*
X9586961Y-30730315D01*
X9541206Y-30677511D01*
X9530000Y-30626000D01*
X9530000Y-30363681D01*
X9549685Y-30296642D01*
X9602489Y-30250887D01*
X9663731Y-30240063D01*
X9684729Y-30241715D01*
X10276201Y-29650243D01*
X10287470Y-29692297D01*
G37*
%TD.AperFunction*%
%TA.AperFunction,Conductor*%
G36*
X28942388Y-9508685D02*
G01*
X28988143Y-9561489D01*
X28998087Y-9630647D01*
X28988591Y-9659170D01*
X28989746Y-9659601D01*
X28936403Y-9802620D01*
X28936401Y-9802627D01*
X28930000Y-9862155D01*
X28930000Y-10473038D01*
X28910315Y-10540077D01*
X28857511Y-10585832D01*
X28788353Y-10595776D01*
X28724797Y-10566751D01*
X28687023Y-10507973D01*
X28684383Y-10497229D01*
X28679937Y-10474881D01*
X28679936Y-10474874D01*
X28615736Y-10319881D01*
X28606253Y-10296986D01*
X28606246Y-10296973D01*
X28499274Y-10136880D01*
X28499271Y-10136876D01*
X28363123Y-10000728D01*
X28363119Y-10000725D01*
X28203026Y-9893753D01*
X28203013Y-9893746D01*
X28025132Y-9820066D01*
X28025128Y-9820064D01*
X28025126Y-9820064D01*
X28025122Y-9820063D01*
X28025118Y-9820062D01*
X27836279Y-9782500D01*
X27836275Y-9782500D01*
X27643725Y-9782500D01*
X27643720Y-9782500D01*
X27454881Y-9820062D01*
X27454867Y-9820066D01*
X27276986Y-9893746D01*
X27276973Y-9893753D01*
X27116880Y-10000725D01*
X27116876Y-10000728D01*
X26980728Y-10136876D01*
X26980725Y-10136880D01*
X26873753Y-10296973D01*
X26873746Y-10296986D01*
X26800066Y-10474867D01*
X26800062Y-10474881D01*
X26762500Y-10663720D01*
X26762500Y-10856279D01*
X26800062Y-11045118D01*
X26800066Y-11045132D01*
X26873746Y-11223013D01*
X26873753Y-11223026D01*
X26980725Y-11383119D01*
X26980728Y-11383123D01*
X27116876Y-11519271D01*
X27116880Y-11519274D01*
X27276973Y-11626246D01*
X27276986Y-11626253D01*
X27425806Y-11687896D01*
X27454874Y-11699936D01*
X27643720Y-11737499D01*
X27643724Y-11737500D01*
X27643725Y-11737500D01*
X27836276Y-11737500D01*
X27836277Y-11737499D01*
X28025126Y-11699936D01*
X28203020Y-11626250D01*
X28363120Y-11519274D01*
X28499274Y-11383120D01*
X28606250Y-11223020D01*
X28679936Y-11045126D01*
X28684382Y-11022769D01*
X28716767Y-10960859D01*
X28777483Y-10926285D01*
X28847252Y-10930024D01*
X28903924Y-10970890D01*
X28929506Y-11035908D01*
X28930000Y-11046961D01*
X28930000Y-11657844D01*
X28936401Y-11717372D01*
X28936403Y-11717379D01*
X28986645Y-11852086D01*
X28986649Y-11852093D01*
X29072809Y-11967187D01*
X29072812Y-11967190D01*
X29187906Y-12053350D01*
X29187913Y-12053354D01*
X29322620Y-12103596D01*
X29322627Y-12103598D01*
X29382155Y-12109999D01*
X29382172Y-12110000D01*
X30030000Y-12110000D01*
X30030000Y-11250761D01*
X30067703Y-11272530D01*
X30207590Y-11310012D01*
X30352410Y-11310012D01*
X30492297Y-11272530D01*
X30530000Y-11250761D01*
X30530000Y-12110000D01*
X31177828Y-12110000D01*
X31177844Y-12109999D01*
X31237372Y-12103598D01*
X31237379Y-12103596D01*
X31372086Y-12053354D01*
X31372093Y-12053350D01*
X31487187Y-11967190D01*
X31487190Y-11967187D01*
X31573350Y-11852093D01*
X31573354Y-11852086D01*
X31623596Y-11717379D01*
X31623598Y-11717372D01*
X31629999Y-11657844D01*
X31630000Y-11657827D01*
X31630000Y-11010000D01*
X30770762Y-11010000D01*
X30792530Y-10972297D01*
X30830012Y-10832410D01*
X30830012Y-10687590D01*
X30792530Y-10547703D01*
X30770762Y-10510000D01*
X31630000Y-10510000D01*
X31630000Y-9862172D01*
X31629999Y-9862155D01*
X31623598Y-9802627D01*
X31623596Y-9802620D01*
X31570254Y-9659601D01*
X31572822Y-9658642D01*
X31560966Y-9604170D01*
X31585374Y-9538702D01*
X31641303Y-9496824D01*
X31684651Y-9489000D01*
X43176000Y-9489000D01*
X43243039Y-9508685D01*
X43288794Y-9561489D01*
X43300000Y-9613000D01*
X43300000Y-30626000D01*
X43280315Y-30693039D01*
X43227511Y-30738794D01*
X43176000Y-30750000D01*
X11683682Y-30750000D01*
X11616643Y-30730315D01*
X11570888Y-30677511D01*
X11560064Y-30616271D01*
X11561716Y-30595269D01*
X10970244Y-30003797D01*
X11012297Y-29992530D01*
X11137715Y-29920119D01*
X11240119Y-29817715D01*
X11312530Y-29692297D01*
X11323797Y-29650244D01*
X11915270Y-30241717D01*
X11915270Y-30241716D01*
X11954622Y-30187554D01*
X12051095Y-29998217D01*
X12116757Y-29796130D01*
X12116757Y-29796127D01*
X12150000Y-29586246D01*
X12150000Y-29373753D01*
X12116757Y-29163872D01*
X12116757Y-29163869D01*
X12051095Y-28961782D01*
X11954624Y-28772449D01*
X11915270Y-28718282D01*
X11915269Y-28718282D01*
X11323797Y-29309754D01*
X11312530Y-29267703D01*
X11240119Y-29142285D01*
X11137715Y-29039881D01*
X11012297Y-28967470D01*
X10970244Y-28956202D01*
X11561716Y-28364728D01*
X11507550Y-28325375D01*
X11318217Y-28228904D01*
X11116129Y-28163242D01*
X10991779Y-28143547D01*
X10928644Y-28113618D01*
X10891713Y-28054306D01*
X10892711Y-27984444D01*
X10931321Y-27926211D01*
X10986983Y-27899457D01*
X11085126Y-27879936D01*
X11263020Y-27806250D01*
X11423120Y-27699274D01*
X11559274Y-27563120D01*
X11666250Y-27403020D01*
X11739936Y-27225126D01*
X11777500Y-27036275D01*
X11777500Y-26843725D01*
X11739936Y-26654874D01*
X11727896Y-26625806D01*
X11666253Y-26476986D01*
X11666246Y-26476973D01*
X11559274Y-26316880D01*
X11559271Y-26316876D01*
X11423123Y-26180728D01*
X11423119Y-26180725D01*
X11269015Y-26077755D01*
X11269013Y-26077753D01*
X11263031Y-26073756D01*
X11263013Y-26073746D01*
X11085132Y-26000066D01*
X11085128Y-26000064D01*
X11085126Y-26000064D01*
X11085122Y-26000063D01*
X11085118Y-26000062D01*
X10977783Y-25978712D01*
X15349500Y-25978712D01*
X15349500Y-26221288D01*
X15381162Y-26461789D01*
X15385234Y-26476986D01*
X15443947Y-26696104D01*
X15505094Y-26843725D01*
X15536776Y-26920212D01*
X15658064Y-27130289D01*
X15658066Y-27130292D01*
X15658067Y-27130293D01*
X15805733Y-27322736D01*
X15805739Y-27322743D01*
X15977256Y-27494260D01*
X15977262Y-27494265D01*
X16169711Y-27641936D01*
X16379788Y-27763224D01*
X16603900Y-27856054D01*
X16838211Y-27918838D01*
X17018586Y-27942584D01*
X17078711Y-27950500D01*
X17078712Y-27950500D01*
X17321289Y-27950500D01*
X17369388Y-27944167D01*
X17561789Y-27918838D01*
X17796100Y-27856054D01*
X18020212Y-27763224D01*
X18230289Y-27641936D01*
X18422738Y-27494265D01*
X18594265Y-27322738D01*
X18741936Y-27130289D01*
X18863224Y-26920212D01*
X18956054Y-26696100D01*
X19018838Y-26461789D01*
X19050500Y-26221288D01*
X19050500Y-25978712D01*
X27699500Y-25978712D01*
X27699500Y-26221288D01*
X27731162Y-26461789D01*
X27735234Y-26476986D01*
X27793947Y-26696104D01*
X27855094Y-26843725D01*
X27886776Y-26920212D01*
X28008064Y-27130289D01*
X28008066Y-27130292D01*
X28008067Y-27130293D01*
X28155733Y-27322736D01*
X28155739Y-27322743D01*
X28327256Y-27494260D01*
X28327262Y-27494265D01*
X28519711Y-27641936D01*
X28729788Y-27763224D01*
X28953900Y-27856054D01*
X29188211Y-27918838D01*
X29368586Y-27942584D01*
X29428711Y-27950500D01*
X29428712Y-27950500D01*
X29671289Y-27950500D01*
X29719388Y-27944167D01*
X29911789Y-27918838D01*
X30146100Y-27856054D01*
X30370212Y-27763224D01*
X30580289Y-27641936D01*
X30772738Y-27494265D01*
X30944265Y-27322738D01*
X31091936Y-27130289D01*
X31213224Y-26920212D01*
X31306054Y-26696100D01*
X31368838Y-26461789D01*
X31400500Y-26221288D01*
X31400500Y-25978712D01*
X31368838Y-25738211D01*
X31306054Y-25503900D01*
X31213224Y-25279788D01*
X31091936Y-25069711D01*
X30944265Y-24877262D01*
X30944260Y-24877256D01*
X30772743Y-24705739D01*
X30772736Y-24705733D01*
X30580293Y-24558067D01*
X30580292Y-24558066D01*
X30580289Y-24558064D01*
X30375796Y-24440000D01*
X30370214Y-24436777D01*
X30370205Y-24436772D01*
X30329304Y-24419831D01*
X30146104Y-24343947D01*
X30019943Y-24310142D01*
X36150000Y-24310142D01*
X36150000Y-24569857D01*
X36190629Y-24826377D01*
X36270883Y-25073377D01*
X36388796Y-25304791D01*
X36469951Y-25416492D01*
X36469952Y-25416493D01*
X37122421Y-24764024D01*
X37135359Y-24795258D01*
X37217437Y-24918097D01*
X37321903Y-25022563D01*
X37444742Y-25104641D01*
X37475974Y-25117578D01*
X36823505Y-25770046D01*
X36823506Y-25770048D01*
X36935208Y-25851203D01*
X37166622Y-25969116D01*
X37413622Y-26049370D01*
X37670143Y-26090000D01*
X37929857Y-26090000D01*
X38186377Y-26049370D01*
X38433377Y-25969116D01*
X38664788Y-25851205D01*
X38776492Y-25770046D01*
X38776493Y-25770046D01*
X38124024Y-25117578D01*
X38155258Y-25104641D01*
X38278097Y-25022563D01*
X38382563Y-24918097D01*
X38464641Y-24795258D01*
X38477578Y-24764025D01*
X39130046Y-25416493D01*
X39130046Y-25416492D01*
X39211205Y-25304788D01*
X39329116Y-25073377D01*
X39409370Y-24826377D01*
X39450000Y-24569857D01*
X39450000Y-24310142D01*
X39409370Y-24053622D01*
X39329116Y-23806622D01*
X39211203Y-23575208D01*
X39130048Y-23463506D01*
X39130046Y-23463505D01*
X38477577Y-24115974D01*
X38464641Y-24084742D01*
X38382563Y-23961903D01*
X38278097Y-23857437D01*
X38155258Y-23775359D01*
X38124024Y-23762421D01*
X38776493Y-23109952D01*
X38776492Y-23109951D01*
X38664791Y-23028796D01*
X38433377Y-22910883D01*
X38186377Y-22830629D01*
X37929857Y-22790000D01*
X37670143Y-22790000D01*
X37413622Y-22830629D01*
X37166622Y-22910883D01*
X36935215Y-23028792D01*
X36823506Y-23109952D01*
X37475975Y-23762421D01*
X37444742Y-23775359D01*
X37321903Y-23857437D01*
X37217437Y-23961903D01*
X37135359Y-24084742D01*
X37122421Y-24115975D01*
X36469952Y-23463506D01*
X36388792Y-23575215D01*
X36270883Y-23806622D01*
X36190629Y-24053622D01*
X36150000Y-24310142D01*
X30019943Y-24310142D01*
X29911789Y-24281162D01*
X29911788Y-24281161D01*
X29911785Y-24281161D01*
X29671289Y-24249500D01*
X29671288Y-24249500D01*
X29428712Y-24249500D01*
X29428711Y-24249500D01*
X29188214Y-24281161D01*
X28953895Y-24343947D01*
X28729794Y-24436773D01*
X28729785Y-24436777D01*
X28519706Y-24558067D01*
X28327263Y-24705733D01*
X28327256Y-24705739D01*
X28155739Y-24877256D01*
X28155733Y-24877263D01*
X28008067Y-25069706D01*
X28008064Y-25069710D01*
X28008064Y-25069711D01*
X27991817Y-25097851D01*
X27886777Y-25279785D01*
X27886773Y-25279794D01*
X27793947Y-25503895D01*
X27731161Y-25738214D01*
X27716286Y-25851205D01*
X27699500Y-25978712D01*
X19050500Y-25978712D01*
X19018838Y-25738211D01*
X18956054Y-25503900D01*
X18863224Y-25279788D01*
X18741936Y-25069711D01*
X18594265Y-24877262D01*
X18594260Y-24877256D01*
X18422743Y-24705739D01*
X18422736Y-24705733D01*
X18230293Y-24558067D01*
X18230292Y-24558066D01*
X18230289Y-24558064D01*
X18025796Y-24440000D01*
X18020214Y-24436777D01*
X18020205Y-24436773D01*
X17796104Y-24343947D01*
X17669943Y-24310142D01*
X17561789Y-24281162D01*
X17561788Y-24281161D01*
X17561785Y-24281161D01*
X17321289Y-24249500D01*
X17321288Y-24249500D01*
X17078712Y-24249500D01*
X17078711Y-24249500D01*
X16838214Y-24281161D01*
X16603895Y-24343947D01*
X16379794Y-24436773D01*
X16379785Y-24436777D01*
X16169706Y-24558067D01*
X15977263Y-24705733D01*
X15977256Y-24705739D01*
X15805739Y-24877256D01*
X15805733Y-24877263D01*
X15658067Y-25069706D01*
X15658064Y-25069710D01*
X15658064Y-25069711D01*
X15641817Y-25097851D01*
X15536777Y-25279785D01*
X15536773Y-25279794D01*
X15443947Y-25503895D01*
X15381161Y-25738214D01*
X15366286Y-25851205D01*
X15349500Y-25978712D01*
X10977783Y-25978712D01*
X10896279Y-25962500D01*
X10896275Y-25962500D01*
X10703725Y-25962500D01*
X10703720Y-25962500D01*
X10514881Y-26000062D01*
X10514867Y-26000066D01*
X10336986Y-26073746D01*
X10336973Y-26073753D01*
X10176880Y-26180725D01*
X10176876Y-26180728D01*
X10040728Y-26316876D01*
X10040725Y-26316880D01*
X9933753Y-26476973D01*
X9933746Y-26476986D01*
X9860066Y-26654867D01*
X9860062Y-26654881D01*
X9822500Y-26843720D01*
X9822500Y-27036279D01*
X9860062Y-27225118D01*
X9860066Y-27225132D01*
X9933746Y-27403013D01*
X9933753Y-27403026D01*
X10040725Y-27563119D01*
X10040728Y-27563123D01*
X10176876Y-27699271D01*
X10176880Y-27699274D01*
X10336973Y-27806246D01*
X10336986Y-27806253D01*
X10485806Y-27867896D01*
X10514874Y-27879936D01*
X10566424Y-27890189D01*
X10613013Y-27899457D01*
X10674924Y-27931841D01*
X10709498Y-27992557D01*
X10705759Y-28062327D01*
X10664893Y-28118999D01*
X10608220Y-28143547D01*
X10483872Y-28163242D01*
X10483869Y-28163242D01*
X10281782Y-28228904D01*
X10092439Y-28325380D01*
X10038282Y-28364727D01*
X10038282Y-28364728D01*
X10629756Y-28956202D01*
X10587703Y-28967470D01*
X10462285Y-29039881D01*
X10359881Y-29142285D01*
X10287470Y-29267703D01*
X10276202Y-29309756D01*
X9684728Y-28718282D01*
X9663729Y-28719935D01*
X9595352Y-28705571D01*
X9545595Y-28656520D01*
X9530000Y-28596317D01*
X9530000Y-24303720D01*
X9822500Y-24303720D01*
X9822500Y-24496279D01*
X9860062Y-24685118D01*
X9860066Y-24685132D01*
X9933746Y-24863013D01*
X9933753Y-24863026D01*
X10040725Y-25023119D01*
X10040728Y-25023123D01*
X10176876Y-25159271D01*
X10176880Y-25159274D01*
X10336973Y-25266246D01*
X10336986Y-25266253D01*
X10430019Y-25304788D01*
X10514874Y-25339936D01*
X10703720Y-25377499D01*
X10703724Y-25377500D01*
X10703725Y-25377500D01*
X10896276Y-25377500D01*
X10896277Y-25377499D01*
X11085126Y-25339936D01*
X11263020Y-25266250D01*
X11423120Y-25159274D01*
X11559274Y-25023120D01*
X11666250Y-24863020D01*
X11739936Y-24685126D01*
X11777500Y-24496275D01*
X11777500Y-24303725D01*
X11739936Y-24114874D01*
X11714565Y-24053622D01*
X11666253Y-23936986D01*
X11666246Y-23936973D01*
X11559274Y-23776880D01*
X11559271Y-23776876D01*
X11423123Y-23640728D01*
X11423119Y-23640725D01*
X11263026Y-23533753D01*
X11263013Y-23533746D01*
X11085132Y-23460066D01*
X11085128Y-23460064D01*
X11085126Y-23460064D01*
X11085122Y-23460063D01*
X11085118Y-23460062D01*
X10896279Y-23422500D01*
X10896275Y-23422500D01*
X10703725Y-23422500D01*
X10703720Y-23422500D01*
X10514881Y-23460062D01*
X10514867Y-23460066D01*
X10336986Y-23533746D01*
X10336973Y-23533753D01*
X10176880Y-23640725D01*
X10176876Y-23640728D01*
X10040728Y-23776876D01*
X10040725Y-23776880D01*
X9933753Y-23936973D01*
X9933746Y-23936986D01*
X9860066Y-24114867D01*
X9860062Y-24114881D01*
X9822500Y-24303720D01*
X9530000Y-24303720D01*
X9530000Y-21763720D01*
X9822500Y-21763720D01*
X9822500Y-21956279D01*
X9860062Y-22145118D01*
X9860066Y-22145132D01*
X9933746Y-22323013D01*
X9933753Y-22323026D01*
X10040725Y-22483119D01*
X10040728Y-22483123D01*
X10176876Y-22619271D01*
X10176880Y-22619274D01*
X10336973Y-22726246D01*
X10336986Y-22726253D01*
X10485806Y-22787896D01*
X10514874Y-22799936D01*
X10703720Y-22837499D01*
X10703724Y-22837500D01*
X10703725Y-22837500D01*
X10896276Y-22837500D01*
X10896277Y-22837499D01*
X11085126Y-22799936D01*
X11263020Y-22726250D01*
X11423120Y-22619274D01*
X11559274Y-22483120D01*
X11666250Y-22323020D01*
X11739936Y-22145126D01*
X11777500Y-21956275D01*
X11777500Y-21763725D01*
X11739936Y-21574874D01*
X11727896Y-21545806D01*
X11666253Y-21396986D01*
X11666246Y-21396973D01*
X11559274Y-21236880D01*
X11559271Y-21236876D01*
X11423123Y-21100728D01*
X11423119Y-21100725D01*
X11263026Y-20993753D01*
X11263013Y-20993746D01*
X11085132Y-20920066D01*
X11085128Y-20920064D01*
X11085126Y-20920064D01*
X11085122Y-20920063D01*
X11085118Y-20920062D01*
X10896279Y-20882500D01*
X10896275Y-20882500D01*
X10703725Y-20882500D01*
X10703720Y-20882500D01*
X10514881Y-20920062D01*
X10514867Y-20920066D01*
X10336986Y-20993746D01*
X10336973Y-20993753D01*
X10176880Y-21100725D01*
X10176876Y-21100728D01*
X10040728Y-21236876D01*
X10040725Y-21236880D01*
X9933753Y-21396973D01*
X9933746Y-21396986D01*
X9860066Y-21574867D01*
X9860062Y-21574881D01*
X9822500Y-21763720D01*
X9530000Y-21763720D01*
X9530000Y-18457441D01*
X9822500Y-18457441D01*
X9822500Y-20182558D01*
X9829898Y-20219749D01*
X9858077Y-20261922D01*
X9900250Y-20290101D01*
X9900252Y-20290102D01*
X9928205Y-20295662D01*
X9937441Y-20297500D01*
X9937442Y-20297500D01*
X11662559Y-20297500D01*
X11669957Y-20296028D01*
X11699748Y-20290102D01*
X11741922Y-20261922D01*
X11770102Y-20219748D01*
X11777500Y-20182558D01*
X11777500Y-19259459D01*
X36522500Y-19259459D01*
X36522500Y-19460540D01*
X36553956Y-19659145D01*
X36553956Y-19659146D01*
X36616093Y-19850387D01*
X36616095Y-19850390D01*
X36707384Y-20029556D01*
X36825578Y-20192235D01*
X36967765Y-20334422D01*
X37130444Y-20452616D01*
X37309610Y-20543905D01*
X37309612Y-20543906D01*
X37376577Y-20565663D01*
X37500851Y-20606043D01*
X37699459Y-20637500D01*
X37699460Y-20637500D01*
X37900540Y-20637500D01*
X37900541Y-20637500D01*
X38099149Y-20606043D01*
X38290390Y-20543905D01*
X38469556Y-20452616D01*
X38632235Y-20334422D01*
X38774422Y-20192235D01*
X38892616Y-20029556D01*
X38983905Y-19850390D01*
X39046043Y-19659149D01*
X39077500Y-19460541D01*
X39077500Y-19259459D01*
X39046043Y-19060851D01*
X38983905Y-18869610D01*
X38892616Y-18690444D01*
X38774422Y-18527765D01*
X38632235Y-18385578D01*
X38469556Y-18267384D01*
X38290387Y-18176093D01*
X38099146Y-18113956D01*
X37946581Y-18089792D01*
X37900541Y-18082500D01*
X37699459Y-18082500D01*
X37653418Y-18089792D01*
X37500854Y-18113956D01*
X37500853Y-18113956D01*
X37309612Y-18176093D01*
X37130443Y-18267384D01*
X37037628Y-18334818D01*
X36967765Y-18385578D01*
X36967763Y-18385580D01*
X36967762Y-18385580D01*
X36825580Y-18527762D01*
X36825580Y-18527763D01*
X36825578Y-18527765D01*
X36774818Y-18597628D01*
X36707384Y-18690443D01*
X36616093Y-18869612D01*
X36553956Y-19060853D01*
X36553956Y-19060854D01*
X36522500Y-19259459D01*
X11777500Y-19259459D01*
X11777500Y-18457442D01*
X11770102Y-18420252D01*
X11746935Y-18385580D01*
X11741922Y-18378077D01*
X11699749Y-18349898D01*
X11662559Y-18342500D01*
X11662558Y-18342500D01*
X9937442Y-18342500D01*
X9937441Y-18342500D01*
X9900250Y-18349898D01*
X9858077Y-18378077D01*
X9829898Y-18420250D01*
X9822500Y-18457441D01*
X9530000Y-18457441D01*
X9530000Y-12818711D01*
X11129500Y-12818711D01*
X11129500Y-13061288D01*
X11161161Y-13301785D01*
X11223947Y-13536104D01*
X11316773Y-13760205D01*
X11316776Y-13760212D01*
X11438064Y-13970289D01*
X11438066Y-13970292D01*
X11438067Y-13970293D01*
X11585733Y-14162736D01*
X11585739Y-14162743D01*
X11757256Y-14334260D01*
X11757262Y-14334265D01*
X11949711Y-14481936D01*
X12159788Y-14603224D01*
X12383900Y-14696054D01*
X12618211Y-14758838D01*
X12798586Y-14782584D01*
X12858711Y-14790500D01*
X12858712Y-14790500D01*
X13101289Y-14790500D01*
X13149388Y-14784167D01*
X13341789Y-14758838D01*
X13576100Y-14696054D01*
X13800212Y-14603224D01*
X14010289Y-14481936D01*
X14202738Y-14334265D01*
X14374265Y-14162738D01*
X14521936Y-13970289D01*
X14643224Y-13760212D01*
X14736054Y-13536100D01*
X14798838Y-13301789D01*
X14830500Y-13061288D01*
X14830500Y-12818712D01*
X14830500Y-12818711D01*
X37999500Y-12818711D01*
X37999500Y-13061288D01*
X38031161Y-13301785D01*
X38093947Y-13536104D01*
X38186773Y-13760205D01*
X38186776Y-13760212D01*
X38308064Y-13970289D01*
X38308066Y-13970292D01*
X38308067Y-13970293D01*
X38455733Y-14162736D01*
X38455739Y-14162743D01*
X38627256Y-14334260D01*
X38627262Y-14334265D01*
X38819711Y-14481936D01*
X39029788Y-14603224D01*
X39253900Y-14696054D01*
X39488211Y-14758838D01*
X39668586Y-14782584D01*
X39728711Y-14790500D01*
X39728712Y-14790500D01*
X39971289Y-14790500D01*
X40019388Y-14784167D01*
X40211789Y-14758838D01*
X40446100Y-14696054D01*
X40670212Y-14603224D01*
X40880289Y-14481936D01*
X41072738Y-14334265D01*
X41244265Y-14162738D01*
X41391936Y-13970289D01*
X41513224Y-13760212D01*
X41606054Y-13536100D01*
X41668838Y-13301789D01*
X41700500Y-13061288D01*
X41700500Y-12818712D01*
X41668838Y-12578211D01*
X41606054Y-12343900D01*
X41513224Y-12119788D01*
X41391936Y-11909711D01*
X41259794Y-11737500D01*
X41244266Y-11717263D01*
X41244260Y-11717256D01*
X41072743Y-11545739D01*
X41072736Y-11545733D01*
X40880293Y-11398067D01*
X40880292Y-11398066D01*
X40880289Y-11398064D01*
X40670212Y-11276776D01*
X40670205Y-11276773D01*
X40446104Y-11183947D01*
X40211785Y-11121161D01*
X39971289Y-11089500D01*
X39971288Y-11089500D01*
X39728712Y-11089500D01*
X39728711Y-11089500D01*
X39488214Y-11121161D01*
X39253895Y-11183947D01*
X39029794Y-11276773D01*
X39029785Y-11276777D01*
X38819706Y-11398067D01*
X38627263Y-11545733D01*
X38627256Y-11545739D01*
X38455739Y-11717256D01*
X38455733Y-11717263D01*
X38308067Y-11909706D01*
X38186777Y-12119785D01*
X38186773Y-12119794D01*
X38093947Y-12343895D01*
X38031161Y-12578214D01*
X37999500Y-12818711D01*
X14830500Y-12818711D01*
X14798838Y-12578211D01*
X14736054Y-12343900D01*
X14643224Y-12119788D01*
X14521936Y-11909711D01*
X14389794Y-11737500D01*
X14374266Y-11717263D01*
X14374260Y-11717256D01*
X14202743Y-11545739D01*
X14202736Y-11545733D01*
X14010293Y-11398067D01*
X14010292Y-11398066D01*
X14010289Y-11398064D01*
X13800212Y-11276776D01*
X13800205Y-11276773D01*
X13576104Y-11183947D01*
X13341785Y-11121161D01*
X13101289Y-11089500D01*
X13101288Y-11089500D01*
X12858712Y-11089500D01*
X12858711Y-11089500D01*
X12618214Y-11121161D01*
X12383895Y-11183947D01*
X12159794Y-11276773D01*
X12159785Y-11276777D01*
X11949706Y-11398067D01*
X11757263Y-11545733D01*
X11757256Y-11545739D01*
X11585739Y-11717256D01*
X11585733Y-11717263D01*
X11438067Y-11909706D01*
X11316777Y-12119785D01*
X11316773Y-12119794D01*
X11223947Y-12343895D01*
X11161161Y-12578214D01*
X11129500Y-12818711D01*
X9530000Y-12818711D01*
X9530000Y-10663720D01*
X19142500Y-10663720D01*
X19142500Y-10856279D01*
X19180062Y-11045118D01*
X19180066Y-11045132D01*
X19253746Y-11223013D01*
X19253753Y-11223026D01*
X19360725Y-11383119D01*
X19360728Y-11383123D01*
X19496876Y-11519271D01*
X19496880Y-11519274D01*
X19656973Y-11626246D01*
X19656986Y-11626253D01*
X19805806Y-11687896D01*
X19834874Y-11699936D01*
X20023720Y-11737499D01*
X20023724Y-11737500D01*
X20023725Y-11737500D01*
X20216276Y-11737500D01*
X20216277Y-11737499D01*
X20405126Y-11699936D01*
X20583020Y-11626250D01*
X20743120Y-11519274D01*
X20879274Y-11383120D01*
X20986250Y-11223020D01*
X21059936Y-11045126D01*
X21097500Y-10856275D01*
X21097500Y-10663725D01*
X21097499Y-10663720D01*
X21682500Y-10663720D01*
X21682500Y-10856279D01*
X21720062Y-11045118D01*
X21720066Y-11045132D01*
X21793746Y-11223013D01*
X21793753Y-11223026D01*
X21900725Y-11383119D01*
X21900728Y-11383123D01*
X22036876Y-11519271D01*
X22036880Y-11519274D01*
X22196973Y-11626246D01*
X22196986Y-11626253D01*
X22345806Y-11687896D01*
X22374874Y-11699936D01*
X22563720Y-11737499D01*
X22563724Y-11737500D01*
X22563725Y-11737500D01*
X22756276Y-11737500D01*
X22756277Y-11737499D01*
X22945126Y-11699936D01*
X23123020Y-11626250D01*
X23283120Y-11519274D01*
X23419274Y-11383120D01*
X23526250Y-11223020D01*
X23599936Y-11045126D01*
X23637500Y-10856275D01*
X23637500Y-10663725D01*
X23637499Y-10663720D01*
X24222500Y-10663720D01*
X24222500Y-10856279D01*
X24260062Y-11045118D01*
X24260066Y-11045132D01*
X24333746Y-11223013D01*
X24333753Y-11223026D01*
X24440725Y-11383119D01*
X24440728Y-11383123D01*
X24576876Y-11519271D01*
X24576880Y-11519274D01*
X24736973Y-11626246D01*
X24736986Y-11626253D01*
X24885806Y-11687896D01*
X24914874Y-11699936D01*
X25103720Y-11737499D01*
X25103724Y-11737500D01*
X25103725Y-11737500D01*
X25296276Y-11737500D01*
X25296277Y-11737499D01*
X25485126Y-11699936D01*
X25663020Y-11626250D01*
X25823120Y-11519274D01*
X25959274Y-11383120D01*
X26066250Y-11223020D01*
X26139936Y-11045126D01*
X26177500Y-10856275D01*
X26177500Y-10663725D01*
X26139936Y-10474874D01*
X26075736Y-10319881D01*
X26066253Y-10296986D01*
X26066246Y-10296973D01*
X25959274Y-10136880D01*
X25959271Y-10136876D01*
X25823123Y-10000728D01*
X25823119Y-10000725D01*
X25663026Y-9893753D01*
X25663013Y-9893746D01*
X25485132Y-9820066D01*
X25485128Y-9820064D01*
X25485126Y-9820064D01*
X25485122Y-9820063D01*
X25485118Y-9820062D01*
X25296279Y-9782500D01*
X25296275Y-9782500D01*
X25103725Y-9782500D01*
X25103720Y-9782500D01*
X24914881Y-9820062D01*
X24914867Y-9820066D01*
X24736986Y-9893746D01*
X24736973Y-9893753D01*
X24576880Y-10000725D01*
X24576876Y-10000728D01*
X24440728Y-10136876D01*
X24440725Y-10136880D01*
X24333753Y-10296973D01*
X24333746Y-10296986D01*
X24260066Y-10474867D01*
X24260062Y-10474881D01*
X24222500Y-10663720D01*
X23637499Y-10663720D01*
X23599936Y-10474874D01*
X23535736Y-10319881D01*
X23526253Y-10296986D01*
X23526246Y-10296973D01*
X23419274Y-10136880D01*
X23419271Y-10136876D01*
X23283123Y-10000728D01*
X23283119Y-10000725D01*
X23123026Y-9893753D01*
X23123013Y-9893746D01*
X22945132Y-9820066D01*
X22945128Y-9820064D01*
X22945126Y-9820064D01*
X22945122Y-9820063D01*
X22945118Y-9820062D01*
X22756279Y-9782500D01*
X22756275Y-9782500D01*
X22563725Y-9782500D01*
X22563720Y-9782500D01*
X22374881Y-9820062D01*
X22374867Y-9820066D01*
X22196986Y-9893746D01*
X22196973Y-9893753D01*
X22036880Y-10000725D01*
X22036876Y-10000728D01*
X21900728Y-10136876D01*
X21900725Y-10136880D01*
X21793753Y-10296973D01*
X21793746Y-10296986D01*
X21720066Y-10474867D01*
X21720062Y-10474881D01*
X21682500Y-10663720D01*
X21097499Y-10663720D01*
X21059936Y-10474874D01*
X20995736Y-10319881D01*
X20986253Y-10296986D01*
X20986246Y-10296973D01*
X20879274Y-10136880D01*
X20879271Y-10136876D01*
X20743123Y-10000728D01*
X20743119Y-10000725D01*
X20583026Y-9893753D01*
X20583013Y-9893746D01*
X20405132Y-9820066D01*
X20405128Y-9820064D01*
X20405126Y-9820064D01*
X20405122Y-9820063D01*
X20405118Y-9820062D01*
X20216279Y-9782500D01*
X20216275Y-9782500D01*
X20023725Y-9782500D01*
X20023720Y-9782500D01*
X19834881Y-9820062D01*
X19834867Y-9820066D01*
X19656986Y-9893746D01*
X19656973Y-9893753D01*
X19496880Y-10000725D01*
X19496876Y-10000728D01*
X19360728Y-10136876D01*
X19360725Y-10136880D01*
X19253753Y-10296973D01*
X19253746Y-10296986D01*
X19180066Y-10474867D01*
X19180062Y-10474881D01*
X19142500Y-10663720D01*
X9530000Y-10663720D01*
X9530000Y-9613000D01*
X9549685Y-9545961D01*
X9602489Y-9500206D01*
X9654000Y-9489000D01*
X28875349Y-9489000D01*
X28942388Y-9508685D01*
G37*
%TD.AperFunction*%
%TD*%
M02*
