M48
; DRILL file KiCad 10.0.3 date 2026-08-17T20:48:22
; FORMAT={-:-/ absolute / metric / decimal}
; #@! TF.CreationDate,2026-08-17T20:48:22-07:00
; #@! TF.GenerationSoftware,Kicad,Pcbnew,10.0.3
; #@! TF.FileFunction,MixedPlating,1,2
FMAT,2
METRIC
; #@! TA.AperFunction,Plated,PTH,ViaDrill
T1C0.300
; #@! TA.AperFunction,Plated,PTH,ComponentDrill
T2C1.100
; #@! TA.AperFunction,Plated,PTH,ComponentDrill
T3C1.500
; #@! TA.AperFunction,NonPlated,NPTH,ComponentDrill
T4C3.200
%
G90
G05
T1
X13.55Y-17.8
X16.75Y-16.05
X16.75Y-17.8
X16.913Y-13.469
X28.643Y-19.056
X29.55Y-17.05
X29.55Y-18.8
X31.85Y-19.955
T2
X10.8Y-19.32
X10.8Y-21.86
X10.8Y-24.4
X10.8Y-26.94
X10.8Y-29.48
X20.12Y-10.76
X22.66Y-10.76
X25.2Y-10.76
X27.74Y-10.76
X30.28Y-10.76
T3
X37.8Y-19.36
X37.8Y-24.44
T4
X12.98Y-12.94
X17.2Y-26.1
X29.55Y-26.1
X39.85Y-12.94
M30
