%TF.GenerationSoftware,KiCad,Pcbnew,10.0.3*%
%TF.CreationDate,2026-08-17T20:48:21-07:00*%
%TF.ProjectId,bb-mcu,62622d6d-6375-42e6-9b69-6361645f7063,rev?*%
%TF.SameCoordinates,Original*%
%TF.FileFunction,Copper,L1,Top*%
%TF.FilePolarity,Positive*%
%FSLAX46Y46*%
G04 Gerber Fmt 4.6, Leading zero omitted, Abs format (unit mm)*
G04 Created by KiCad (PCBNEW 10.0.3) date 2026-08-17 20:48:21*
%MOMM*%
%LPD*%
G01*
G04 APERTURE LIST*
%TA.AperFunction,ComponentPad*%
%ADD10R,1.700000X1.700000*%
%TD*%
%TA.AperFunction,ComponentPad*%
%ADD11C,1.700000*%
%TD*%
%TA.AperFunction,ComponentPad*%
%ADD12C,2.300000*%
%TD*%
%TA.AperFunction,SMDPad,CuDef*%
%ADD13R,0.800000X0.900000*%
%TD*%
%TA.AperFunction,SMDPad,CuDef*%
%ADD14R,0.900000X0.800000*%
%TD*%
%TA.AperFunction,SMDPad,CuDef*%
%ADD15R,1.494000X0.350000*%
%TD*%
%TA.AperFunction,SMDPad,CuDef*%
%ADD16R,0.806000X0.864000*%
%TD*%
%TA.AperFunction,ViaPad*%
%ADD17C,0.600000*%
%TD*%
%TA.AperFunction,Conductor*%
%ADD18C,0.200000*%
%TD*%
%TA.AperFunction,Conductor*%
%ADD19C,0.300000*%
%TD*%
G04 APERTURE END LIST*
D10*
%TO.P,J2,1*%
%TO.N,GND*%
X30280000Y-10760000D03*
D11*
%TO.P,J2,2*%
%TO.N,/SWCLK*%
X27740000Y-10760000D03*
%TO.P,J2,3*%
%TO.N,+3V3*%
X25200000Y-10760000D03*
%TO.P,J2,4*%
%TO.N,/SWDIO*%
X22660000Y-10760000D03*
%TO.P,J2,5*%
%TO.N,/NRST*%
X20120000Y-10760000D03*
%TD*%
D12*
%TO.P,J1,1*%
%TO.N,+3V3*%
X37800000Y-19360000D03*
%TO.P,J1,2*%
%TO.N,GND*%
X37800000Y-24440000D03*
%TD*%
D13*
%TO.P,C5,1*%
%TO.N,/NRST*%
X18800000Y-16050000D03*
%TO.P,C5,2*%
%TO.N,GND*%
X17400000Y-16050000D03*
%TD*%
D14*
%TO.P,C1,1*%
%TO.N,+3V3*%
X29550000Y-17905000D03*
%TO.P,C1,2*%
%TO.N,GND*%
X29550000Y-19305000D03*
%TD*%
D15*
%TO.P,U1,1*%
%TO.N,/BOOT0*%
X21500000Y-15670000D03*
%TO.P,U1,2*%
%TO.N,unconnected-(U1-PF0-OSC_IN(PF0)-Pad2)*%
X21500000Y-16330000D03*
%TO.P,U1,3*%
%TO.N,unconnected-(U1-PF1-OSC_OUT(PF1)-Pad3)*%
X21500000Y-16970000D03*
%TO.P,U1,4*%
%TO.N,/NRST*%
X21500000Y-17630000D03*
%TO.P,U1,5*%
%TO.N,+3V3*%
X21500000Y-18270000D03*
%TO.P,U1,6*%
%TO.N,/IO1*%
X21500000Y-18920000D03*
%TO.P,U1,7*%
%TO.N,/IO2*%
X21500000Y-19570000D03*
%TO.P,U1,8*%
%TO.N,/IO3*%
X21500000Y-20220000D03*
%TO.P,U1,9*%
%TO.N,/IO4*%
X21500000Y-20870000D03*
%TO.P,U1,10*%
%TO.N,unconnected-(U1-PA4-Pad10)*%
X21500000Y-21520000D03*
%TO.P,U1,11*%
%TO.N,unconnected-(U1-PA5-Pad11)*%
X27500000Y-21530000D03*
%TO.P,U1,12*%
%TO.N,unconnected-(U1-PA6-Pad12)*%
X27500000Y-20880000D03*
%TO.P,U1,13*%
%TO.N,unconnected-(U1-PA7-Pad13)*%
X27500000Y-20230000D03*
%TO.P,U1,14*%
%TO.N,unconnected-(U1-PB1-Pad14)*%
X27500000Y-19580000D03*
%TO.P,U1,15*%
%TO.N,GND*%
X27500000Y-18930000D03*
%TO.P,U1,16*%
%TO.N,+3V3*%
X27500000Y-18280000D03*
%TO.P,U1,17*%
%TO.N,unconnected-(U1-PA9-Pad17)*%
X27500000Y-17630000D03*
%TO.P,U1,18*%
%TO.N,unconnected-(U1-PA10-Pad18)*%
X27500000Y-16970000D03*
%TO.P,U1,19*%
%TO.N,/SWDIO*%
X27500000Y-16330000D03*
%TO.P,U1,20*%
%TO.N,/SWCLK*%
X27500000Y-15670000D03*
%TD*%
D13*
%TO.P,C3,1*%
%TO.N,+3V3*%
X18800000Y-17800000D03*
%TO.P,C3,2*%
%TO.N,GND*%
X17400000Y-17800000D03*
%TD*%
D14*
%TO.P,C2,1*%
%TO.N,+3V3*%
X31850000Y-17905000D03*
%TO.P,C2,2*%
%TO.N,GND*%
X31850000Y-19305000D03*
%TD*%
D10*
%TO.P,J3,1*%
%TO.N,/IO1*%
X10800000Y-19320000D03*
D11*
%TO.P,J3,2*%
%TO.N,/IO2*%
X10800000Y-21860000D03*
%TO.P,J3,3*%
%TO.N,/IO3*%
X10800000Y-24400000D03*
%TO.P,J3,4*%
%TO.N,/IO4*%
X10800000Y-26940000D03*
%TO.P,J3,5*%
%TO.N,GND*%
X10800000Y-29480000D03*
%TD*%
D13*
%TO.P,C4,1*%
%TO.N,+3V3*%
X15600000Y-17800000D03*
%TO.P,C4,2*%
%TO.N,GND*%
X14200000Y-17800000D03*
%TD*%
D16*
%TO.P,R1,1*%
%TO.N,/BOOT0*%
X18850000Y-14350000D03*
%TO.P,R1,2*%
%TO.N,GND*%
X17350000Y-14350000D03*
%TD*%
D17*
%TO.N,GND*%
X16750000Y-16050000D03*
X31850000Y-19955000D03*
X16913000Y-13468700D03*
X28643000Y-19056000D03*
X16750000Y-17800000D03*
X29550000Y-17050000D03*
X29550000Y-18800000D03*
X13550000Y-17800000D03*
%TD*%
%TO.N,GND*%
D18*
X16913000Y-13468700D02*
X17133600Y-13689300D01*
X17133600Y-13689300D02*
X17350000Y-13689300D01*
X15550000Y-16600000D02*
X14900000Y-17250000D01*
X14900000Y-17800000D02*
X14200000Y-17800000D01*
D19*
X31850000Y-19305000D02*
X31850000Y-19955000D01*
X17400000Y-16050000D02*
X16750000Y-16050000D01*
X17400000Y-17800000D02*
X16750000Y-17800000D01*
D18*
X29550000Y-18800000D02*
X29550000Y-19300000D01*
X14900000Y-18350000D02*
X15050000Y-18500000D01*
X15200000Y-18550000D02*
X16650000Y-18550000D01*
X17400000Y-16050000D02*
X16850000Y-16600000D01*
X16650000Y-18550000D02*
X17400000Y-17800000D01*
D19*
X14200000Y-17800000D02*
X13550000Y-17800000D01*
D18*
X30300000Y-10750000D02*
X29550000Y-11500000D01*
X29550000Y-18800000D02*
X29550000Y-18905000D01*
X14900000Y-17250000D02*
X14900000Y-18350000D01*
X16900000Y-13450000D02*
X17400000Y-13950000D01*
X17400000Y-13950000D02*
X17400000Y-16050000D01*
X16850000Y-16600000D02*
X15550000Y-16600000D01*
X15050000Y-18500000D02*
X15150000Y-18500000D01*
X29550000Y-18950000D02*
X27500000Y-18950000D01*
X15150000Y-18500000D02*
X15200000Y-18550000D01*
X29550000Y-19300000D02*
X31850000Y-19300000D01*
X17350000Y-14350000D02*
X17350000Y-13689300D01*
D19*
X27500000Y-18930000D02*
X28643000Y-19056000D01*
D18*
X29550000Y-11500000D02*
X29550000Y-17050000D01*
%TO.N,/SWCLK*%
X27500000Y-11000000D02*
X27500000Y-15650000D01*
%TO.N,+3V3*%
D19*
X29550000Y-17900000D02*
X29300000Y-18150000D01*
X27350000Y-18150000D02*
X26650000Y-18150000D01*
X31850000Y-17900000D02*
X29550000Y-17900000D01*
X33300000Y-19350000D02*
X31850000Y-17900000D01*
X25200000Y-16700000D02*
X23650000Y-18250000D01*
X17950000Y-17050000D02*
X17850000Y-17050000D01*
X18800000Y-17800000D02*
X18700000Y-17800000D01*
X17850000Y-17050000D02*
X17800000Y-17000000D01*
X17800000Y-17000000D02*
X16400000Y-17000000D01*
X27650000Y-18150000D02*
X27500000Y-18300000D01*
X21500000Y-18250000D02*
X19250000Y-18250000D01*
X27500000Y-18300000D02*
X27350000Y-18150000D01*
X29300000Y-18150000D02*
X27650000Y-18150000D01*
X16400000Y-17000000D02*
X15600000Y-17800000D01*
X37800000Y-19350000D02*
X33300000Y-19350000D01*
X23650000Y-18250000D02*
X21500000Y-18250000D01*
X19250000Y-18250000D02*
X18800000Y-17800000D01*
D18*
X26650000Y-18150000D02*
X25200000Y-16700000D01*
D19*
X18700000Y-17800000D02*
X17950000Y-17050000D01*
X25200000Y-16700000D02*
X25200000Y-10750000D01*
%TO.N,/SWDIO*%
D18*
X26600000Y-15250000D02*
X26500000Y-15350000D01*
X26900000Y-16350000D02*
X27500000Y-16350000D01*
X25800000Y-9800000D02*
X26600000Y-10600000D01*
X26500000Y-15950000D02*
X26900000Y-16350000D01*
X25750000Y-9800000D02*
X25800000Y-9800000D01*
X25700000Y-9750000D02*
X25750000Y-9800000D01*
X25500000Y-9650000D02*
X25550000Y-9700000D01*
X23650000Y-10750000D02*
X24750000Y-9650000D01*
X25550000Y-9700000D02*
X25600000Y-9700000D01*
X25650000Y-9750000D02*
X25700000Y-9750000D01*
X25600000Y-9700000D02*
X25650000Y-9750000D01*
X22650000Y-10750000D02*
X23650000Y-10750000D01*
X24750000Y-9650000D02*
X25500000Y-9650000D01*
X26500000Y-15350000D02*
X26500000Y-15950000D01*
X26600000Y-10600000D02*
X26600000Y-15250000D01*
%TO.N,/NRST*%
X18800000Y-16050000D02*
X20350000Y-17600000D01*
X18150000Y-13850000D02*
X18150000Y-15400000D01*
X18800000Y-13200000D02*
X18150000Y-13850000D01*
X18150000Y-15400000D02*
X18800000Y-16050000D01*
X20350000Y-17600000D02*
X21150000Y-17600000D01*
X21200000Y-17650000D02*
X21500000Y-17650000D01*
X21150000Y-17600000D02*
X21200000Y-17650000D01*
X20100000Y-10750000D02*
X18800000Y-12050000D01*
X18800000Y-12050000D02*
X18800000Y-13200000D01*
%TO.N,/BOOT0*%
X19481700Y-14627400D02*
X20524300Y-15670000D01*
X21500000Y-15670000D02*
X20524300Y-15670000D01*
X18850000Y-14350000D02*
X19481700Y-14350000D01*
X19481700Y-14350000D02*
X19481700Y-14627400D01*
%TO.N,/IO1*%
X12278700Y-18920000D02*
X21500000Y-18920000D01*
X11878700Y-19320000D02*
X12278700Y-18920000D01*
X10800000Y-19320000D02*
X11878700Y-19320000D01*
%TO.N,/IO2*%
X13090000Y-19570000D02*
X21500000Y-19570000D01*
X10800000Y-21860000D02*
X13090000Y-19570000D01*
%TO.N,/IO3*%
X14980000Y-20220000D02*
X21500000Y-20220000D01*
X10800000Y-24400000D02*
X14980000Y-20220000D01*
%TO.N,/IO4*%
X10800000Y-26940000D02*
X16870000Y-20870000D01*
X16870000Y-20870000D02*
X21500000Y-20870000D01*
%TD*%
M02*
