<svg xmlns="http://www.w3.org/2000/svg" width="172" height="166" viewBox="0 0 172 166">
<rect width="100%" height="100%" fill="white"/>
<text x="10.0" y="16" font-family="monospace" font-size="12" fill="black">SOT-23-6_L2.9-W1.6-P0.95-LS2.8-BR: 6 pads (datasheet 6), pitch/size from datasheet 0.95mm</text>
<text x="10.0" y="32" font-family="monospace" font-size="11" fill="#080">all pads within tolerance</text>
<polygon points="118.0,56.0 162.0,56.0 162.0,80.0 118.0,80.0" fill="#cfe0f8" stroke="#20509a" stroke-width="1"/>
<text x="140.0" y="68.0" font-family="monospace" font-size="10" fill="black" text-anchor="middle" dominant-baseline="central">3</text>
<text x="140.0" y="79.0" font-family="monospace" font-size="7" fill="#555" text-anchor="middle">1.1x0.6</text>
<polygon points="118.0,94.0 162.0,94.0 162.0,118.0 118.0,118.0" fill="#cfe0f8" stroke="#20509a" stroke-width="1"/>
<text x="140.0" y="106.0" font-family="monospace" font-size="10" fill="black" text-anchor="middle" dominant-baseline="central">2</text>
<text x="140.0" y="117.0" font-family="monospace" font-size="7" fill="#555" text-anchor="middle">1.1x0.6</text>
<polygon points="118.0,132.0 162.0,132.0 162.0,156.0 118.0,156.0" fill="#cfe0f8" stroke="#20509a" stroke-width="1"/>
<text x="140.0" y="144.0" font-family="monospace" font-size="10" fill="black" text-anchor="middle" dominant-baseline="central">1</text>
<text x="140.0" y="155.0" font-family="monospace" font-size="7" fill="#555" text-anchor="middle">1.1x0.6</text>
<polygon points="10.0,132.0 54.0,132.0 54.0,156.0 10.0,156.0" fill="#cfe0f8" stroke="#20509a" stroke-width="1"/>
<text x="32.0" y="144.0" font-family="monospace" font-size="10" fill="black" text-anchor="middle" dominant-baseline="central">6</text>
<text x="32.0" y="155.0" font-family="monospace" font-size="7" fill="#555" text-anchor="middle">1.1x0.6</text>
<polygon points="10.0,94.0 54.0,94.0 54.0,118.0 10.0,118.0" fill="#cfe0f8" stroke="#20509a" stroke-width="1"/>
<text x="32.0" y="106.0" font-family="monospace" font-size="10" fill="black" text-anchor="middle" dominant-baseline="central">5</text>
<text x="32.0" y="117.0" font-family="monospace" font-size="7" fill="#555" text-anchor="middle">1.1x0.6</text>
<polygon points="10.0,56.0 54.0,56.0 54.0,80.0 10.0,80.0" fill="#cfe0f8" stroke="#20509a" stroke-width="1"/>
<text x="32.0" y="68.0" font-family="monospace" font-size="10" fill="black" text-anchor="middle" dominant-baseline="central">4</text>
<text x="32.0" y="79.0" font-family="monospace" font-size="7" fill="#555" text-anchor="middle">1.1x0.6</text>
</svg>