#VRML V2.0 utf8
# 3D model generated by easyeda2kicad.py (https://github.com/uPesy/easyeda2kicad.py)

Shape{
    appearance Appearance {
        material  Material 	{
            diffuseColor 0.25098039215686274 0.25098039215686274 0.25098039215686274
            specularColor 0.12549019607843137 0.12549019607843137 0.12549019607843137
            ambientIntensity 0.251
            transparency 0.0
            shininess 0.5
        }
    }
    geometry IndexedFaceSet {
        ccw TRUE
        solid FALSE
        coord DEF co Coordinate {
            point [
                -0.626 -0.124 0.9843, -1.374 -0.124 0.9843, -0.1137 -0.4902 0.9843, -1.8863 -0.4902 0.9843, -1.1137 -0.4902 0.9843, -1.0 -0.2933 0.9843, -0.8863 -0.4902 0.9843, -1.626 -0.124 0.9843, -2.0 -0.2933 0.9843, -2.0 0.2972 0.9843, -1.626 0.128 0.9843, -1.992 0.311 0.9843, -0.374 -0.124 0.9843, 0.0 -0.2933 0.9843, -0.374 0.128 0.9843, -1.374 0.128 0.9843, -1.0 0.2972 0.9843, -1.008 0.311 0.9843, -1.1137 0.4941 0.9843, -1.8863 0.4941 0.9843, -0.008 0.311 0.9843, -0.1137 0.4941 0.9843, -0.992 0.311 0.9843, -0.8863 0.4941 0.9843, 3.0 0.2972 0.9843, 2.992 0.311 0.9843, 2.626 0.128 0.9843, 2.374 0.128 0.9843, 2.008 0.311 0.9843, 2.374 -0.124 0.9843, 2.0 0.2972 0.9843, 0.1137 -0.4902 0.9843, 0.8863 -0.4902 0.9843, 1.0 -0.2933 0.9843, 1.1137 -0.4902 0.9843, 1.8863 -0.4902 0.9843, 0.626 -0.124 0.9843, 0.374 -0.124 0.9843, 0.374 0.128 0.9843, 0.008 0.311 0.9843, 0.0 0.2972 0.9843, 3.0 -0.2933 0.9843, 2.626 -0.124 0.9843, 2.8863 -0.4902 0.9843, 1.626 -0.124 0.9843, 1.626 0.128 0.9843, -0.626 0.128 0.9843, 1.374 0.128 0.9843, 1.008 0.311 0.9843, 1.374 -0.124 0.9843, 1.0 0.2972 0.9843, 2.1137 -0.4902 0.9843, 2.0 -0.2933 0.9843, 0.626 0.128 0.9843, 0.992 0.311 0.9843, 0.8863 0.4941 0.9843, 0.1137 0.4941 0.9843, 1.992 0.311 0.9843, 1.8863 0.4941 0.9843, 1.1137 0.4941 0.9843, 2.8863 0.4941 0.9843, 2.1137 0.4941 0.9843, -1.626 -0.124 0.1969, -2.0 -0.2933 0.1969, -1.626 0.128 0.1969, -2.0 0.2323 0.1969, -1.374 0.128 0.1969, -1.374 -0.124 0.1969, -1.0227 -0.3327 0.1969, -1.9773 -0.3327 0.1969, -1.0 -0.2933 0.1969, -0.626 0.128 0.1969, -0.9773 -0.3327 0.1969, -0.626 -0.124 0.1969, -0.0227 -0.3327 0.1969, -0.374 -0.124 0.1969, 0.0 -0.2933 0.1969, -0.374 0.128 0.1969, 0.0 0.2323 0.1969, 1.626 0.128 0.1969, 1.374 0.128 0.1969, 2.374 0.128 0.1969, 2.374 -0.124 0.1969, 2.0 -0.2933 0.1969, 3.0 0.2323 0.1969, 2.626 0.128 0.1969, 3.0 -0.2933 0.1969, 2.626 -0.124 0.1969, 2.9773 -0.3327 0.1969, 2.0227 -0.3327 0.1969, 0.626 0.128 0.1969, 1.0 -0.2933 0.1969, 0.626 -0.124 0.1969, 0.9773 -0.3327 0.1969, 0.374 -0.124 0.1969, 0.0227 -0.3327 0.1969, 0.374 0.128 0.1969, 1.374 -0.124 0.1969, 0.0227 0.3366 0.1969, 0.9773 0.3366 0.1969, 0.0 0.2972 0.1969, 1.0 0.2972 0.1969, 1.0227 0.3366 0.1969, 1.9773 0.3366 0.1969, 2.0 0.2972 0.1969, 2.0227 0.3366 0.1969, 2.9773 0.3366 0.1969, 3.0 0.2972 0.1969, 1.626 -0.124 0.1969, 1.9773 -0.3327 0.1969, 1.0227 -0.3327 0.1969, -0.9773 0.3366 0.1969, -0.0227 0.3366 0.1969, -1.0 0.2972 0.1969, -1.9773 0.3366 0.1969, -1.0227 0.3366 0.1969, -2.0 0.2972 0.1969, -1.8863 0.4941 0.0, -1.1137 0.4941 0.0, -1.9773 0.3366 0.0, -1.0227 0.3366 0.0, -1.8863 -0.4902 0.0, -1.1137 -0.4902 0.0, -1.9773 -0.3327 0.0, -1.0227 -0.3327 0.0
            ]
        }
        coordIndex [
            0,1,2,-1,3,4,5,-1,6,2,5,-1,5,2,1,-1,5,1,3,-1,3,1,7,-1,3,7,8,-1,8,7,9,-1,9,7,10,-1,9,10,11,-1,0,2,12,-1,12,2,13,-1,12,13,14,-1,15,16,10,-1,10,16,17,-1,10,17,11,-1,11,17,18,-1,11,18,19,-1,20,21,22,-1,22,21,23,-1,24,25,26,-1,27,28,29,-1,29,28,30,-1,26,25,27,-1,31,32,33,-1,34,35,33,-1,33,35,36,-1,33,36,31,-1,31,36,37,-1,31,37,13,-1,38,39,40,-1,24,26,41,-1,41,26,42,-1,41,42,43,-1,43,42,29,-1,43,29,44,-1,44,29,30,-1,44,30,45,-1,15,1,16,-1,16,1,0,-1,16,0,22,-1,22,0,46,-1,22,46,20,-1,20,46,14,-1,20,14,40,-1,40,14,13,-1,40,13,38,-1,38,13,37,-1,47,48,49,-1,49,48,50,-1,51,43,52,-1,52,43,44,-1,52,44,35,-1,35,44,49,-1,35,49,36,-1,36,49,50,-1,36,50,53,-1,53,50,38,-1,38,50,54,-1,38,54,39,-1,39,54,55,-1,39,55,56,-1,45,30,47,-1,47,30,57,-1,47,57,48,-1,48,57,58,-1,48,58,59,-1,27,25,28,-1,28,25,60,-1,28,60,61,-1,62,63,64,-1,64,63,65,-1,64,65,66,-1,67,68,62,-1,62,68,69,-1,62,69,63,-1,70,71,72,-1,72,71,73,-1,72,73,74,-1,74,73,75,-1,74,75,76,-1,76,75,77,-1,76,77,78,-1,78,77,71,-1,79,80,78,-1,81,82,83,-1,81,84,85,-1,85,84,86,-1,85,86,87,-1,87,86,88,-1,87,88,82,-1,82,88,89,-1,82,89,83,-1,90,91,92,-1,92,91,93,-1,92,93,94,-1,93,95,94,-1,94,95,76,-1,94,76,96,-1,96,76,78,-1,96,78,90,-1,90,78,80,-1,90,80,91,-1,91,80,97,-1,98,99,100,-1,100,99,101,-1,101,102,103,-1,104,105,106,-1,106,107,104,-1,104,107,84,-1,104,84,78,-1,78,84,81,-1,78,81,79,-1,79,81,83,-1,79,83,108,-1,108,83,109,-1,108,109,97,-1,97,109,110,-1,97,110,91,-1,111,112,113,-1,113,112,100,-1,113,100,78,-1,78,100,101,-1,78,101,104,-1,104,101,103,-1,114,115,116,-1,116,115,113,-1,116,113,65,-1,65,113,78,-1,65,78,66,-1,66,78,71,-1,66,71,67,-1,67,71,70,-1,67,70,68,-1,117,118,119,-1,119,118,120,-1,121,122,3,-1,3,122,4,-1,63,8,65,-1,65,8,9,-1,65,9,116,-1,19,18,117,-1,117,18,118,-1,123,124,121,-1,121,124,122,-1,119,120,114,-1,114,120,115,-1,69,68,123,-1,123,68,124,-1,123,121,69,-1,69,121,3,-1,69,3,63,-1,63,3,8,-1,122,124,68,-1,70,5,68,-1,68,5,4,-1,68,4,122,-1,19,117,114,-1,114,117,119,-1,19,114,11,-1,11,114,116,-1,11,116,9,-1,115,120,118,-1,16,113,17,-1,17,113,115,-1,17,115,18,-1,18,115,118,-1,
        ]
    }
}
Shape{
    appearance Appearance {
        material  Material 	{
            diffuseColor 1.0 1.0 0.0
            specularColor 0.5019607843137255 0.5019607843137255 0.0
            ambientIntensity 0.886
            transparency 0.0
            shininess 0.5
        }
    }
    geometry IndexedFaceSet {
        ccw TRUE
        solid FALSE
        coord DEF co Coordinate {
            point [
                -1.5732 0.0752 -1.1811, -1.4268 0.0752 -1.1811, -1.5732 -0.0713 -1.1811, -1.4268 -0.0713 -1.1811, -1.626 0.128 -0.9842, -1.626 0.128 0.1969, -1.374 0.128 -0.9842, -1.374 0.128 0.1969, -1.374 -0.124 -0.9842, -1.374 -0.124 0.1969, -1.626 -0.124 -0.9842, -1.626 -0.124 0.1969, -1.374 -0.124 3.189, -1.374 -0.124 0.9843, -1.374 0.128 3.189, -1.374 0.128 0.9843, -1.626 0.128 3.189, -1.626 0.128 0.9843, -1.626 -0.124 3.189, -1.626 -0.124 0.9843, -1.4268 0.0752 3.3858, -1.5732 0.0752 3.3858, -1.4268 -0.0713 3.3858, -1.5732 -0.0713 3.3858
            ]
        }
        coordIndex [
            0,1,2,-1,2,1,3,-1,4,5,6,-1,6,5,7,-1,8,9,10,-1,10,9,11,-1,10,11,4,-1,4,11,5,-1,6,7,8,-1,8,7,9,-1,12,13,14,-1,14,13,15,-1,16,17,18,-1,18,17,19,-1,18,19,12,-1,12,19,13,-1,14,15,16,-1,16,15,17,-1,20,21,22,-1,22,21,23,-1,
        ]
    }
}
Shape{
    appearance Appearance {
        material  Material 	{
            diffuseColor 0.25098039215686274 0.25098039215686274 0.25098039215686274
            specularColor 0.12549019607843137 0.12549019607843137 0.12549019607843137
            ambientIntensity 0.251
            transparency 0.0
            shininess 0.5
        }
    }
    geometry IndexedFaceSet {
        ccw TRUE
        solid FALSE
        coord DEF co Coordinate {
            point [
                -0.8863 0.4941 0.0, -0.1137 0.4941 0.0, -0.9773 0.3366 0.0, -0.0227 0.3366 0.0, -0.8863 -0.4902 0.0, -0.1137 -0.4902 0.0, -0.8863 -0.4902 0.9843, -0.1137 -0.4902 0.9843, -0.8863 0.4941 0.9843, -0.1137 0.4941 0.9843, -0.9773 -0.3327 0.0, -0.0227 -0.3327 0.0, -0.9773 0.3366 0.1969, -0.0227 0.3366 0.1969, -0.9773 -0.3327 0.1969, -0.0227 -0.3327 0.1969, -1.0 -0.2933 0.1969, -1.0 -0.2933 0.9843, 0.0 -0.2933 0.1969, 0.0 -0.2933 0.9843, -0.992 0.311 0.9843, -1.0 0.2972 0.1969, -1.0 0.2972 0.9843, 0.0 0.2972 0.9843, 0.0 0.2972 0.1969, -0.008 0.311 0.9843, 0.1137 0.4941 0.0, 0.8863 0.4941 0.0, 0.0227 0.3366 0.0, 0.9773 0.3366 0.0, 0.1137 -0.4902 0.0, 0.8863 -0.4902 0.0, 0.1137 -0.4902 0.9843, 0.8863 -0.4902 0.9843, 0.1137 0.4941 0.9843, 0.8863 0.4941 0.9843, 0.0227 -0.3327 0.0, 0.9773 -0.3327 0.0, 0.0227 0.3366 0.1969, 0.9773 0.3366 0.1969, 0.0227 -0.3327 0.1969, 0.9773 -0.3327 0.1969, 1.0 -0.2933 0.1969, 1.0 -0.2933 0.9843, 0.008 0.311 0.9843, 1.0 0.2972 0.9843, 1.0 0.2972 0.1969, 0.992 0.311 0.9843, 1.1137 0.4941 0.0, 1.8863 0.4941 0.0, 1.0227 0.3366 0.0, 1.9773 0.3366 0.0, 1.1137 -0.4902 0.0, 1.8863 -0.4902 0.0, 1.1137 -0.4902 0.9843, 1.8863 -0.4902 0.9843, 1.1137 0.4941 0.9843, 1.8863 0.4941 0.9843, 1.0227 -0.3327 0.0, 1.9773 -0.3327 0.0, 1.0227 0.3366 0.1969, 1.9773 0.3366 0.1969, 1.0227 -0.3327 0.1969, 1.9773 -0.3327 0.1969, 2.0 -0.2933 0.1969, 2.0 -0.2933 0.9843, 1.008 0.311 0.9843, 2.0 0.2972 0.9843, 2.0 0.2972 0.1969, 1.992 0.311 0.9843, 2.1137 0.4941 0.0, 2.8863 0.4941 0.0, 2.0227 0.3366 0.0, 2.9773 0.3366 0.0, 3.0 0.2972 0.1969, 3.0 0.2972 0.9843, 3.0 0.2323 0.1969, 3.0 -0.2933 0.9843, 3.0 -0.2933 0.1969, 2.1137 -0.4902 0.0, 2.8863 -0.4902 0.0, 2.1137 -0.4902 0.9843, 2.8863 -0.4902 0.9843, 2.1137 0.4941 0.9843, 2.8863 0.4941 0.9843, 2.0227 -0.3327 0.0, 2.9773 -0.3327 0.0, 2.0227 0.3366 0.1969, 2.9773 0.3366 0.1969, 2.0227 -0.3327 0.1969, 2.9773 -0.3327 0.1969, 2.008 0.311 0.9843, 2.992 0.311 0.9843
            ]
        }
        coordIndex [
            0,1,2,-1,2,1,3,-1,4,5,6,-1,6,5,7,-1,8,9,0,-1,0,9,1,-1,10,11,4,-1,4,11,5,-1,2,3,12,-1,12,3,13,-1,14,15,10,-1,10,15,11,-1,10,4,14,-1,14,4,6,-1,14,6,16,-1,16,6,17,-1,5,11,15,-1,18,19,15,-1,15,19,7,-1,15,7,5,-1,8,0,12,-1,12,0,2,-1,8,12,20,-1,20,12,21,-1,20,21,22,-1,13,3,1,-1,23,24,25,-1,25,24,13,-1,25,13,9,-1,9,13,1,-1,26,27,28,-1,28,27,29,-1,30,31,32,-1,32,31,33,-1,34,35,26,-1,26,35,27,-1,36,37,30,-1,30,37,31,-1,28,29,38,-1,38,29,39,-1,40,41,36,-1,36,41,37,-1,36,30,40,-1,40,30,32,-1,40,32,18,-1,18,32,19,-1,31,37,41,-1,42,43,41,-1,41,43,33,-1,41,33,31,-1,34,26,38,-1,38,26,28,-1,34,38,44,-1,44,38,24,-1,44,24,23,-1,39,29,27,-1,45,46,47,-1,47,46,39,-1,47,39,35,-1,35,39,27,-1,48,49,50,-1,50,49,51,-1,52,53,54,-1,54,53,55,-1,56,57,48,-1,48,57,49,-1,58,59,52,-1,52,59,53,-1,50,51,60,-1,60,51,61,-1,62,63,58,-1,58,63,59,-1,58,52,62,-1,62,52,54,-1,62,54,42,-1,42,54,43,-1,53,59,63,-1,64,65,63,-1,63,65,55,-1,63,55,53,-1,56,48,60,-1,60,48,50,-1,56,60,66,-1,66,60,46,-1,66,46,45,-1,61,51,49,-1,67,68,69,-1,69,68,61,-1,69,61,57,-1,57,61,49,-1,70,71,72,-1,72,71,73,-1,74,75,76,-1,76,75,77,-1,76,77,78,-1,79,80,81,-1,81,80,82,-1,83,84,70,-1,70,84,71,-1,85,86,79,-1,79,86,80,-1,72,73,87,-1,87,73,88,-1,89,90,85,-1,85,90,86,-1,85,79,89,-1,89,79,81,-1,89,81,64,-1,64,81,65,-1,80,86,90,-1,78,77,90,-1,90,77,82,-1,90,82,80,-1,83,70,87,-1,87,70,72,-1,83,87,91,-1,91,87,68,-1,91,68,67,-1,88,73,71,-1,75,74,92,-1,92,74,88,-1,92,88,84,-1,84,88,71,-1,
        ]
    }
}
Shape{
    appearance Appearance {
        material  Material 	{
            diffuseColor 1.0 1.0 0.0
            specularColor 0.5019607843137255 0.5019607843137255 0.0
            ambientIntensity 0.886
            transparency 0.0
            shininess 0.5
        }
    }
    geometry IndexedFaceSet {
        ccw TRUE
        solid FALSE
        coord DEF co Coordinate {
            point [
                -0.5732 0.0752 -1.1811, -0.4268 0.0752 -1.1811, -0.5732 -0.0713 -1.1811, -0.4268 -0.0713 -1.1811, -0.626 0.128 -0.9842, -0.626 0.128 0.1969, -0.374 0.128 -0.9842, -0.374 0.128 0.1969, -0.374 -0.124 -0.9842, -0.374 -0.124 0.1969, -0.626 -0.124 -0.9842, -0.626 -0.124 0.1969, -0.374 -0.124 3.189, -0.374 -0.124 0.9843, -0.374 0.128 3.189, -0.374 0.128 0.9843, -0.626 0.128 3.189, -0.626 0.128 0.9843, -0.626 -0.124 3.189, -0.626 -0.124 0.9843, -0.4268 0.0752 3.3858, -0.5732 0.0752 3.3858, -0.4268 -0.0713 3.3858, -0.5732 -0.0713 3.3858, 0.4268 0.0752 -1.1811, 0.5732 0.0752 -1.1811, 0.4268 -0.0713 -1.1811, 0.5732 -0.0713 -1.1811, 0.374 0.128 -0.9842, 0.374 0.128 0.1969, 0.626 0.128 -0.9842, 0.626 0.128 0.1969, 0.626 -0.124 -0.9842, 0.626 -0.124 0.1969, 0.374 -0.124 -0.9842, 0.374 -0.124 0.1969, 0.626 -0.124 3.189, 0.626 -0.124 0.9843, 0.626 0.128 3.189, 0.626 0.128 0.9843, 0.374 0.128 3.189, 0.374 0.128 0.9843, 0.374 -0.124 3.189, 0.374 -0.124 0.9843, 0.5732 0.0752 3.3858, 0.4268 0.0752 3.3858, 0.5732 -0.0713 3.3858, 0.4268 -0.0713 3.3858, 1.4268 0.0752 -1.1811, 1.5732 0.0752 -1.1811, 1.4268 -0.0713 -1.1811, 1.5732 -0.0713 -1.1811, 1.374 0.128 -0.9842, 1.374 0.128 0.1969, 1.626 0.128 -0.9842, 1.626 0.128 0.1969, 1.626 -0.124 -0.9842, 1.626 -0.124 0.1969, 1.374 -0.124 -0.9842, 1.374 -0.124 0.1969, 1.626 -0.124 3.189, 1.626 -0.124 0.9843, 1.626 0.128 3.189, 1.626 0.128 0.9843, 1.374 0.128 3.189, 1.374 0.128 0.9843, 1.374 -0.124 3.189, 1.374 -0.124 0.9843, 1.5732 0.0752 3.3858, 1.4268 0.0752 3.3858, 1.5732 -0.0713 3.3858, 1.4268 -0.0713 3.3858, 2.4268 0.0752 -1.1811, 2.5732 0.0752 -1.1811, 2.4268 -0.0713 -1.1811, 2.5732 -0.0713 -1.1811, 2.374 0.128 -0.9842, 2.374 0.128 0.1969, 2.626 0.128 -0.9842, 2.626 0.128 0.1969, 2.626 -0.124 -0.9842, 2.626 -0.124 0.1969, 2.374 -0.124 -0.9842, 2.374 -0.124 0.1969, 2.626 -0.124 3.189, 2.626 -0.124 0.9843, 2.626 0.128 3.189, 2.626 0.128 0.9843, 2.374 0.128 3.189, 2.374 0.128 0.9843, 2.374 -0.124 3.189, 2.374 -0.124 0.9843, 2.5732 0.0752 3.3858, 2.4268 0.0752 3.3858, 2.5732 -0.0713 3.3858, 2.4268 -0.0713 3.3858, -1.626 -0.124 3.189, -1.5732 -0.0713 3.3858, -1.626 0.128 3.189, -1.5732 0.0752 3.3858, -1.374 -0.124 3.189, -1.4268 -0.0713 3.3858, -1.4268 0.0752 3.3858, -1.374 0.128 3.189, -1.374 -0.124 -0.9842, -1.4268 -0.0713 -1.1811, -1.374 0.128 -0.9842, -1.4268 0.0752 -1.1811, -1.626 -0.124 -0.9842, -1.5732 -0.0713 -1.1811, -1.5732 0.0752 -1.1811, -1.626 0.128 -0.9842
            ]
        }
        coordIndex [
            0,1,2,-1,2,1,3,-1,4,5,6,-1,6,5,7,-1,8,9,10,-1,10,9,11,-1,10,11,4,-1,4,11,5,-1,6,7,8,-1,8,7,9,-1,12,13,14,-1,14,13,15,-1,16,17,18,-1,18,17,19,-1,18,19,12,-1,12,19,13,-1,14,15,16,-1,16,15,17,-1,20,21,22,-1,22,21,23,-1,24,25,26,-1,26,25,27,-1,28,29,30,-1,30,29,31,-1,32,33,34,-1,34,33,35,-1,34,35,28,-1,28,35,29,-1,30,31,32,-1,32,31,33,-1,36,37,38,-1,38,37,39,-1,40,41,42,-1,42,41,43,-1,42,43,36,-1,36,43,37,-1,38,39,40,-1,40,39,41,-1,44,45,46,-1,46,45,47,-1,48,49,50,-1,50,49,51,-1,52,53,54,-1,54,53,55,-1,56,57,58,-1,58,57,59,-1,58,59,52,-1,52,59,53,-1,54,55,56,-1,56,55,57,-1,60,61,62,-1,62,61,63,-1,64,65,66,-1,66,65,67,-1,66,67,60,-1,60,67,61,-1,62,63,64,-1,64,63,65,-1,68,69,70,-1,70,69,71,-1,72,73,74,-1,74,73,75,-1,76,77,78,-1,78,77,79,-1,80,81,82,-1,82,81,83,-1,82,83,76,-1,76,83,77,-1,78,79,80,-1,80,79,81,-1,84,85,86,-1,86,85,87,-1,88,89,90,-1,90,89,91,-1,90,91,84,-1,84,91,85,-1,86,87,88,-1,88,87,89,-1,92,93,94,-1,94,93,95,-1,96,97,98,-1,98,97,99,-1,100,101,96,-1,96,101,97,-1,102,103,99,-1,99,103,98,-1,103,102,100,-1,100,102,101,-1,104,105,106,-1,106,105,107,-1,108,109,104,-1,104,109,105,-1,110,111,107,-1,107,111,106,-1,111,110,108,-1,108,110,109,-1,18,23,16,-1,16,23,21,-1,12,22,18,-1,18,22,23,-1,20,14,21,-1,21,14,16,-1,14,20,12,-1,12,20,22,-1,8,3,6,-1,6,3,1,-1,10,2,8,-1,8,2,3,-1,0,4,1,-1,1,4,6,-1,4,0,10,-1,10,0,2,-1,42,47,40,-1,40,47,45,-1,36,46,42,-1,42,46,47,-1,44,38,45,-1,45,38,40,-1,38,44,36,-1,36,44,46,-1,32,27,30,-1,30,27,25,-1,34,26,32,-1,32,26,27,-1,24,28,25,-1,25,28,30,-1,28,24,34,-1,34,24,26,-1,66,71,64,-1,64,71,69,-1,60,70,66,-1,66,70,71,-1,68,62,69,-1,69,62,64,-1,62,68,60,-1,60,68,70,-1,56,51,54,-1,54,51,49,-1,58,50,56,-1,56,50,51,-1,48,52,49,-1,49,52,54,-1,52,48,58,-1,58,48,50,-1,90,95,88,-1,88,95,93,-1,84,94,90,-1,90,94,95,-1,92,86,93,-1,93,86,88,-1,86,92,84,-1,84,92,94,-1,80,75,78,-1,78,75,73,-1,82,74,80,-1,80,74,75,-1,72,76,73,-1,73,76,78,-1,76,72,82,-1,82,72,74,-1,
        ]
    }
}
Shape{
    appearance Appearance {
        material  Material 	{
            diffuseColor 0.25098039215686274 0.25098039215686274 0.25098039215686274
            specularColor 0.12549019607843137 0.12549019607843137 0.12549019607843137
            ambientIntensity 0.251
            transparency 0.0
            shininess 0.5
        }
    }
    geometry IndexedFaceSet {
        ccw TRUE
        solid FALSE
        coord DEF co Coordinate {
            point [
                -2.5161 -0.4902 0.4117, -2.5161 -0.4902 0.3853, -2.4518 -0.4902 0.3853, -2.5161 -0.4902 0.5176, -2.5161 -0.4902 0.498, -2.4518 -0.4902 0.498, -2.4263 -0.4902 0.5848, -2.4213 -0.4902 0.5854, -2.4478 -0.4902 0.5854, -2.4092 -0.4902 0.518, -2.4134 -0.4902 0.5176, -2.3914 -0.4902 0.5176, -2.3789 -0.4902 0.5772, -2.3789 -0.4902 0.5558, -2.3609 -0.4902 0.5558, -2.2305 -0.4902 0.5181, -2.2373 -0.4902 0.5364, -2.2617 -0.4902 0.5364, -2.3755 -0.4902 0.4119, -2.3769 -0.4902 0.4117, -2.3609 -0.4902 0.4117, -2.3897 -0.4902 0.412, -2.3914 -0.4902 0.4126, -2.3914 -0.4902 0.4117, -2.2953 -0.4902 0.4423, -2.2953 -0.4902 0.4199, -2.2828 -0.4902 0.4199, -2.5739 -0.4902 0.5328, -2.561 -0.4902 0.5219, -2.5161 -0.4902 0.5854, -2.6267 -0.4902 0.5854, -2.616 -0.4902 0.5781, -2.6002 -0.4902 0.5598, -2.5903 -0.4902 0.5406, -2.588 -0.4902 0.5398, -2.6599 -0.4902 0.6005, -2.6362 -0.4902 0.5918, -2.5161 -0.4902 0.9843, -2.7256 -0.4902 0.5916, -2.7037 -0.4902 0.5999, -2.8662 -0.4902 0.9843, -2.6805 -0.4902 0.6027, -2.8662 -0.4902 0.5854, -2.7879 -0.4902 0.562, -2.7692 -0.4902 0.5643, -2.8662 -0.4902 0.5176, -2.8393 -0.4902 0.5176, -2.8352 -0.4902 0.5269, -2.8237 -0.4902 0.5416, -2.7355 -0.4902 0.5854, -2.7374 -0.4902 0.5842, -2.7486 -0.4902 0.5747, -2.7637 -0.4902 0.564, -2.7583 -0.4902 0.5634, -2.8205 -0.4902 0.5446, -2.8055 -0.4902 0.5552, -2.7882 -0.4902 0.413, -2.7942 -0.4902 0.4148, -2.8662 -0.4902 0.4117, -2.8113 -0.4902 0.4231, -2.8261 -0.4902 0.4358, -2.8369 -0.4902 0.4512, -2.8437 -0.4902 0.4689, -2.8662 -0.4902 0.498, -2.846 -0.4902 0.4875, -2.8459 -0.4902 0.492, -2.8448 -0.4902 0.498, -2.8427 -0.4902 0.5098, -2.7671 -0.4902 0.3871, -2.7763 -0.4902 0.3941, -2.8662 -0.4902 0.3853, -2.7834 -0.4902 0.4028, -2.7876 -0.4902 0.4117, -2.7431 -0.4902 0.3807, -2.8662 -0.4902 0.0, -2.7316 -0.4902 0.3821, -2.5161 -0.4902 0.0, -2.7235 -0.4902 0.3853, -2.7449 -0.4902 0.3808, -2.7561 -0.4902 0.3825, -2.7627 -0.4902 0.3853, -2.6987 -0.4902 0.4117, -2.6987 -0.4902 0.4115, -2.7043 -0.4902 0.4009, -2.7116 -0.4902 0.3928, -2.721 -0.4902 0.3862, -2.5455 -0.4902 0.494, -2.5434 -0.4902 0.4785, -2.6381 -0.4902 0.4397, -2.6348 -0.4902 0.441, -2.6292 -0.4902 0.468, -2.5609 -0.4902 0.4334, -2.5738 -0.4902 0.4225, -2.7075 -0.4902 0.46, -2.6439 -0.4902 0.4932, -2.7158 -0.4902 0.4675, -2.7259 -0.4902 0.4729, -2.641 -0.4902 0.4376, -2.5515 -0.4902 0.4465, -2.573 -0.4902 0.4822, -2.5753 -0.4902 0.4913, -2.5789 -0.4902 0.498, -2.815 -0.4902 0.498, -2.5455 -0.4902 0.4615, -2.6311 -0.4902 0.4415, -2.6307 -0.4902 0.4414, -2.6293 -0.4902 0.4411, -2.8122 -0.4902 0.4695, -2.8065 -0.4902 0.4599, -2.7825 -0.4902 0.455, -2.798 -0.4902 0.4511, -2.7877 -0.4902 0.4448, -2.7649 -0.4902 0.4707, -2.7746 -0.4902 0.4639, -2.8162 -0.4902 0.4884, -2.8156 -0.4902 0.4811, -2.7544 -0.4902 0.4747, -2.7431 -0.4902 0.4761, -2.7373 -0.4902 0.4757, -2.6458 -0.4902 0.4267, -2.6457 -0.4902 0.4286, -2.6957 -0.4902 0.4329, -2.6448 -0.4902 0.4322, -2.6429 -0.4902 0.4355, -2.5824 -0.4902 0.4529, -2.5772 -0.4902 0.4603, -2.5739 -0.4902 0.4687, -2.5728 -0.4902 0.478, -2.6348 -0.4902 0.4125, -2.6379 -0.4902 0.4137, -2.641 -0.4902 0.4159, -2.6421 -0.4902 0.417, -2.6441 -0.4902 0.42, -2.6454 -0.4902 0.4232, -2.6959 -0.4902 0.4232, -2.6957 -0.4902 0.4282, -2.5883 -0.4902 0.4154, -2.6041 -0.4902 0.412, -2.6321 -0.4902 0.412, -2.6283 -0.4902 0.441, -2.6069 -0.4902 0.441, -2.5984 -0.4902 0.4426, -2.59 -0.4902 0.4465, -2.583 -0.4902 0.4522, -2.6136 -0.4902 0.515, -2.8107 -0.4902 0.5105, -2.8147 -0.4902 0.4999, -2.6098 -0.4902 0.515, -2.5797 -0.4902 0.4995, -2.5851 -0.4902 0.5055, -2.5925 -0.4902 0.5107, -2.6008 -0.4902 0.5139, -2.6238 -0.4902 0.5435, -2.6345 -0.4902 0.5563, -2.7436 -0.4902 0.5287, -2.6357 -0.4902 0.5573, -2.649 -0.4902 0.5666, -2.7363 -0.4902 0.5438, -2.8058 -0.4902 0.5176, -2.7469 -0.4902 0.5306, -2.6142 -0.4902 0.5176, -2.6165 -0.4902 0.5282, -2.7575 -0.4902 0.5345, -2.7687 -0.4902 0.5359, -2.7737 -0.4902 0.5356, -2.7257 -0.4902 0.5565, -2.6639 -0.4902 0.5723, -2.713 -0.4902 0.5657, -2.68 -0.4902 0.5743, -2.6975 -0.4902 0.572, -2.7854 -0.4902 0.5328, -2.796 -0.4902 0.5272, -2.8041 -0.4902 0.5199, -2.5579 -0.4902 0.5176, -2.5513 -0.4902 0.5084, -2.5472 -0.4902 0.498, -2.2681 -0.4902 0.4199, -2.2681 -0.4902 0.4123, -2.2617 -0.4902 0.4117, -2.2828 -0.4902 0.4117, -2.2617 -0.4902 0.498, -2.2696 -0.4902 0.479, -2.2696 -0.4902 0.4713, -2.2715 -0.4902 0.45, -2.2715 -0.4902 0.4423, -2.2828 -0.4902 0.4423, -2.2828 -0.4902 0.4713, -2.2828 -0.4902 0.45, -2.2953 -0.4902 0.4713, -2.2953 -0.4902 0.45, -2.2828 -0.4902 0.4123, -2.3039 -0.4902 0.4123, -2.3084 -0.4902 0.4117, -2.3039 -0.4902 0.479, -2.4415 -0.4902 0.4349, -2.4402 -0.4902 0.4485, -2.4432 -0.4902 0.4325, -2.4443 -0.4902 0.4295, -2.3952 -0.4902 0.4226, -2.4065 -0.4902 0.4429, -2.3952 -0.4902 0.4139, -2.4065 -0.4902 0.4123, -2.4191 -0.4902 0.4148, -2.422 -0.4902 0.4128, -2.4149 -0.4902 0.4123, -2.4252 -0.4902 0.4117, -2.4478 -0.4902 0.3853, -2.4346 -0.4902 0.4117, -2.4478 -0.4902 0.4117, -2.4347 -0.4902 0.4117, -2.4379 -0.4902 0.4129, -2.4126 -0.4902 0.458, -2.4103 -0.4902 0.4559, -2.3938 -0.4902 0.4527, -2.4322 -0.4902 0.46, -2.4478 -0.4902 0.498, -2.4384 -0.4902 0.4576, -2.4402 -0.4902 0.4566, -2.439 -0.4902 0.4371, -2.4355 -0.4902 0.439, -2.4348 -0.4902 0.4519, -2.429 -0.4902 0.4406, -2.4217 -0.4902 0.4539, -2.4246 -0.4902 0.4542, -2.4296 -0.4902 0.4537, -2.4407 -0.4902 0.4149, -2.4417 -0.4902 0.4158, -2.4434 -0.4902 0.4184, -2.3948 -0.4902 0.4501, -2.4149 -0.4902 0.4196, -2.4151 -0.4902 0.4196, -2.4164 -0.4902 0.4176, -2.4444 -0.4902 0.4212, -2.4448 -0.4902 0.425, -2.3923 -0.4902 0.4207, -2.3914 -0.4902 0.4204, -2.3914 -0.4902 0.438, -2.4073 -0.4902 0.4495, -2.3948 -0.4902 0.4438, -2.4086 -0.4902 0.4533, -2.3952 -0.4902 0.4471, -2.4238 -0.4902 0.461, -2.419 -0.4902 0.4606, -2.4154 -0.4902 0.4596, -2.4149 -0.4902 0.4426, -2.4152 -0.4902 0.4463, -2.4161 -0.4902 0.4492, -2.417 -0.4902 0.451, -2.3914 -0.4902 0.4381, -2.3928 -0.4902 0.4395, -2.3939 -0.4902 0.4413, -2.4183 -0.4902 0.4523, -2.4198 -0.4902 0.4533, -2.3874 -0.4902 0.4117, -2.3914 -0.4902 0.3853, -2.3823 -0.4902 0.4111, -2.3609 -0.4902 0.3853, -2.3653 -0.4902 0.4589, -2.3653 -0.4902 0.4508, -2.3634 -0.4902 0.4219, -2.3645 -0.4902 0.4192, -2.366 -0.4902 0.417, -2.3923 -0.4902 0.455, -2.3914 -0.4902 0.4558, -2.3914 -0.4902 0.498, -2.3898 -0.4902 0.4572, -2.3875 -0.4902 0.4586, -2.3829 -0.4902 0.4603, -2.3766 -0.4902 0.461, -2.3609 -0.4902 0.498, -2.3712 -0.4902 0.4606, -2.3658 -0.4902 0.4331, -2.3643 -0.4902 0.4308, -2.3634 -0.4902 0.4283, -2.363 -0.4902 0.4252, -2.3684 -0.4902 0.4149, -2.3709 -0.4902 0.4134, -2.3774 -0.4902 0.4542, -2.3799 -0.4902 0.454, -2.3866 -0.4902 0.4478, -2.3821 -0.4902 0.4535, -2.384 -0.4902 0.4525, -2.3865 -0.4902 0.4467, -2.3862 -0.4902 0.4454, -2.3855 -0.4902 0.4443, -2.3847 -0.4902 0.4434, -2.3818 -0.4902 0.4415, -2.3717 -0.4902 0.4535, -2.3766 -0.4902 0.4393, -2.3669 -0.4902 0.4517, -2.3734 -0.4902 0.438, -2.3678 -0.4902 0.4349, -2.3853 -0.4902 0.4513, -2.386 -0.4902 0.4503, -2.3864 -0.4902 0.4491, -2.387 -0.4902 0.4187, -2.3825 -0.4902 0.4332, -2.3875 -0.4902 0.4355, -2.3815 -0.4902 0.418, -2.3811 -0.4902 0.418, -2.377 -0.4902 0.4309, -2.3768 -0.4902 0.4184, -2.3716 -0.4902 0.4244, -2.3717 -0.4902 0.4255, -2.3747 -0.4902 0.4192, -2.3739 -0.4902 0.4197, -2.3729 -0.4902 0.4206, -2.3722 -0.4902 0.4216, -2.3718 -0.4902 0.4228, -2.3721 -0.4902 0.4268, -2.3727 -0.4902 0.4279, -2.3738 -0.4902 0.429, -2.2209 -0.4902 0.5181, -2.2617 -0.4902 0.5176, -2.1137 -0.4902 0.5176, -2.1137 -0.4902 0.5854, -2.2464 -0.4902 0.5848, -2.2617 -0.4902 0.5854, -2.2715 -0.4902 0.5181, -2.281 -0.4902 0.5181, -2.2828 -0.4902 0.5176, -2.265 -0.4902 0.5364, -2.2828 -0.4902 0.5854, -2.2617 -0.4902 0.5686, -2.2556 -0.4902 0.5848, -2.3084 -0.4902 0.5854, -2.3453 -0.4902 0.5854, -2.32 -0.4902 0.5848, -2.339 -0.4902 0.5848, -2.339 -0.4902 0.5181, -2.3453 -0.4902 0.5176, -2.3207 -0.4902 0.5181, -2.3084 -0.4902 0.5176, -2.3094 -0.4902 0.5195, -2.2924 -0.4902 0.5737, -2.2882 -0.4902 0.5678, -2.2947 -0.4902 0.576, -2.2868 -0.4902 0.5393, -2.2904 -0.4902 0.5325, -2.3098 -0.4902 0.5837, -2.3084 -0.4902 0.5832, -2.3017 -0.4902 0.5808, -2.2947 -0.4902 0.5275, -2.3018 -0.4902 0.5224, -2.3084 -0.4902 0.5199, -2.2858 -0.4902 0.5615, -2.2847 -0.4902 0.5523, -2.285 -0.4902 0.5469, -2.3609 -0.4902 0.5854, -2.3531 -0.4902 0.5848, -2.3609 -0.4902 0.5848, -2.3531 -0.4902 0.5772, -2.3516 -0.4902 0.5257, -2.3516 -0.4902 0.5181, -2.3609 -0.4902 0.5176, -2.3789 -0.4902 0.5257, -2.3609 -0.4902 0.5257, -2.3789 -0.4902 0.5482, -2.3609 -0.4902 0.5482, -2.355 -0.4902 0.5482, -2.355 -0.4902 0.5558, -2.3609 -0.4902 0.5772, -2.3875 -0.4902 0.5848, -2.3914 -0.4902 0.5854, -2.3875 -0.4902 0.5181, -2.4009 -0.4902 0.5832, -2.4068 -0.4902 0.5851, -2.41 -0.4902 0.5854, -2.3609 -0.4902 0.5181, -2.4009 -0.4902 0.5742, -2.402 -0.4902 0.5203, -2.4352 -0.4902 0.5317, -2.4336 -0.4902 0.5301, -2.4181 -0.4902 0.5247, -2.414 -0.4902 0.5249, -2.4385 -0.4902 0.5362, -2.4066 -0.4902 0.5265, -2.4009 -0.4902 0.5291, -2.4009 -0.4902 0.5209, -2.4292 -0.4902 0.5271, -2.4244 -0.4902 0.5254, -2.4166 -0.4902 0.5782, -2.4193 -0.4902 0.5781, -2.4348 -0.4902 0.5708, -2.4251 -0.4902 0.5769, -2.4303 -0.4902 0.5745, -2.4353 -0.4902 0.5702, -2.4385 -0.4902 0.5656, -2.4016 -0.4902 0.5746, -2.4407 -0.4902 0.5598, -2.4418 -0.4902 0.5507, -2.4417 -0.4902 0.5483, -2.4406 -0.4902 0.5416, -2.4084 -0.4902 0.5772, -2.4167 -0.4902 0.586, -2.4478 -0.4902 0.9843, -2.3914 -0.4902 0.9843, -2.4153 -0.4902 0.586, -2.4332 -0.4902 0.5821, -2.4454 -0.4902 0.5708, -2.4412 -0.4902 0.5761, -2.4397 -0.4902 0.5776, -2.4478 -0.4902 0.5351, -2.4495 -0.4902 0.5394, -2.4518 -0.4902 0.5176, -2.4508 -0.4902 0.5502, -2.4506 -0.4902 0.5552, -2.4518 -0.4902 0.5854, -2.4488 -0.4902 0.5636, -2.4478 -0.4902 0.5657, -2.4374 -0.4902 0.522, -2.4422 -0.4902 0.5261, -2.4478 -0.4902 0.5176, -2.4428 -0.4902 0.5268, -2.4468 -0.4902 0.5325, -2.4193 -0.4902 0.517, -2.4241 -0.4902 0.5173, -2.4254 -0.4902 0.5176, -2.4312 -0.4902 0.5189, -2.4254 -0.4902 0.4116, -2.4297 -0.4902 0.4111, -2.3216 -0.4902 0.4599, -2.3129 -0.4902 0.4599, -2.3084 -0.4902 0.498, -2.2828 -0.4902 0.479, -2.2828 -0.4902 0.498, -2.332 -0.4902 0.4117, -2.3369 -0.4902 0.4241, -2.3359 -0.4902 0.4202, -2.3356 -0.4902 0.4202, -2.3453 -0.4902 0.498, -2.3453 -0.4902 0.4483, -2.3346 -0.4902 0.424, -2.3353 -0.4902 0.4218, -2.3453 -0.4902 0.4259, -2.3587 -0.4902 0.4599, -2.3493 -0.4902 0.4599, -2.3403 -0.4902 0.4117, -2.34 -0.4902 0.4124, -2.3453 -0.4902 0.4007, -2.3453 -0.4902 0.4007, -2.3453 -0.4902 0.4117, -2.3437 -0.4902 0.4037, -2.357 -0.4902 0.3979, -2.357 -0.4902 0.3905, -2.3553 -0.4902 0.3974, -2.3522 -0.4902 0.397, -2.3502 -0.4902 0.3972, -2.3453 -0.4902 0.3913, -2.3482 -0.4902 0.3902, -2.3453 -0.4902 0.3853, -2.3516 -0.4902 0.3898, -2.3534 -0.4902 0.3899, -2.3484 -0.4902 0.3979, -2.3469 -0.4902 0.399, -2.3346 -0.4902 0.4051, -2.3384 -0.4902 0.3977, -2.3084 -0.4902 0.3853, -2.3414 -0.4902 0.394, -2.342 -0.4902 0.3935, -2.3449 -0.4902 0.3915, -2.8863 -0.4902 0.0, -2.8863 -0.4902 0.3853, -2.8863 -0.4902 0.4117, -2.8863 -0.4902 0.498, -2.8863 -0.4902 0.5176, -2.8863 -0.4902 0.5854, -2.8863 -0.4902 0.9843, -2.4535 -0.4902 0.5257, -2.4535 -0.4902 0.5181, -2.4887 -0.4902 0.5181, -2.4801 -0.4902 0.5848, -2.4801 -0.4902 0.5257, -2.4887 -0.4902 0.5848, -2.4518 -0.4902 0.4117, -2.4528 -0.4902 0.4123, -2.4887 -0.4902 0.4123, -2.4528 -0.4902 0.4199, -2.4544 -0.4902 0.4713, -2.4801 -0.4902 0.4423, -2.4801 -0.4902 0.4199, -2.4563 -0.4902 0.4423, -2.4563 -0.4902 0.45, -2.4801 -0.4902 0.45, -2.4801 -0.4902 0.4713, -2.4887 -0.4902 0.479, -2.4544 -0.4902 0.479, -2.4518 -0.4902 0.9843, -2.3609 -0.4902 0.9843, -2.3453 -0.4902 0.9843, -2.3084 -0.4902 0.9843, -2.2828 -0.4902 0.9843, -2.2617 -0.4902 0.9843, -2.1137 -0.4902 0.9843, -2.1137 -0.4902 0.498, -2.2554 -0.4902 0.4123, -2.2554 -0.4902 0.479, -2.1137 -0.4902 0.4117, -2.2371 -0.4902 0.4123, -2.1628 -0.4902 0.479, -2.1374 -0.4902 0.4123, -2.1469 -0.4902 0.4123, -2.2015 -0.4902 0.4411, -2.2033 -0.4902 0.4334, -2.1974 -0.4902 0.4123, -2.2068 -0.4902 0.4267, -2.172 -0.4902 0.479, -2.2011 -0.4902 0.4465, -2.2022 -0.4902 0.4556, -2.2112 -0.4902 0.4216, -2.2182 -0.4902 0.4166, -2.2258 -0.4902 0.4136, -2.2112 -0.4902 0.4702, -2.2088 -0.4902 0.4678, -2.2047 -0.4902 0.462, -2.1879 -0.4902 0.4123, -2.1815 -0.4902 0.4305, -2.1537 -0.4902 0.4305, -2.2364 -0.4902 0.479, -2.2262 -0.4902 0.4779, -2.2182 -0.4902 0.4749, -2.2828 -0.4902 0.3853, -2.2617 -0.4902 0.3853, -2.1137 -0.4902 0.3853, -2.4518 -0.4902 0.0, -2.4478 -0.4902 0.0, -2.3914 -0.4902 0.0, -2.3609 -0.4902 0.0, -2.3453 -0.4902 0.0, -2.3084 -0.4902 0.0, -2.2828 -0.4902 0.0, -2.2617 -0.4902 0.0, -2.1137 -0.4902 0.0, -2.374 -0.124 0.9843, -2.626 -0.124 0.9843, -3.0 -0.2933 0.9843, -2.626 0.128 0.9843, -3.0 0.2972 0.9843, -2.374 0.128 0.9843, -2.1137 0.4941 0.9843, -2.8863 0.4941 0.9843, -2.0 -0.2933 0.9843, -2.0 0.2972 0.9843, -2.0227 0.3366 0.1969, -2.374 0.128 0.1969, -2.9773 0.3366 0.1969, -2.626 0.128 0.1969, -2.0 0.2972 0.1969, -2.0 -0.2933 0.1969, -2.374 -0.124 0.1969, -2.0227 -0.3327 0.1969, -2.626 -0.124 0.1969, -2.9773 -0.3327 0.1969, -3.0 -0.2933 0.1969, -3.0 0.2972 0.1969, -2.8863 0.4941 0.0, -2.1137 0.4941 0.0, -2.9773 0.3366 0.0, -2.0227 0.3366 0.0, -2.9773 -0.3327 0.0, -2.0227 -0.3327 0.0
            ]
        }
        coordIndex [
            0,1,2,-1,3,4,5,-1,6,7,8,-1,9,10,11,-1,12,13,14,-1,15,16,17,-1,18,19,20,-1,21,22,23,-1,24,25,26,-1,27,28,29,-1,29,28,3,-1,30,31,29,-1,29,31,32,-1,32,33,29,-1,29,33,34,-1,29,34,27,-1,35,36,37,-1,38,39,40,-1,40,39,37,-1,37,39,41,-1,37,41,35,-1,42,43,44,-1,45,46,42,-1,42,46,47,-1,42,47,48,-1,38,40,49,-1,49,40,42,-1,49,42,50,-1,50,42,44,-1,50,44,51,-1,51,44,52,-1,51,52,53,-1,48,54,42,-1,42,54,55,-1,42,55,43,-1,56,57,58,-1,58,57,59,-1,58,59,60,-1,60,61,58,-1,58,61,62,-1,58,62,63,-1,63,62,64,-1,64,65,63,-1,63,65,66,-1,63,66,45,-1,45,66,67,-1,45,67,46,-1,68,69,70,-1,70,69,71,-1,70,71,58,-1,58,71,72,-1,58,72,56,-1,73,74,75,-1,75,74,76,-1,75,76,77,-1,73,78,74,-1,74,78,79,-1,74,79,70,-1,70,79,80,-1,70,80,68,-1,0,81,1,-1,1,81,82,-1,1,82,83,-1,83,84,1,-1,1,84,85,-1,1,85,77,-1,86,87,4,-1,88,89,90,-1,91,92,0,-1,93,94,95,-1,95,94,96,-1,88,90,97,-1,91,0,98,-1,99,100,94,-1,94,100,101,-1,94,101,102,-1,4,87,0,-1,0,87,103,-1,0,103,98,-1,89,104,90,-1,90,104,105,-1,90,105,106,-1,107,108,109,-1,109,108,110,-1,109,110,111,-1,112,102,113,-1,113,102,114,-1,113,114,109,-1,109,114,115,-1,109,115,107,-1,112,116,102,-1,102,116,117,-1,102,117,94,-1,94,117,118,-1,94,118,96,-1,119,120,121,-1,121,120,122,-1,121,122,90,-1,90,122,123,-1,90,123,97,-1,124,125,90,-1,90,125,126,-1,90,126,94,-1,94,126,127,-1,94,127,99,-1,128,129,81,-1,81,129,130,-1,81,130,131,-1,131,132,81,-1,81,132,133,-1,81,133,134,-1,134,133,119,-1,134,119,135,-1,135,119,121,-1,92,136,0,-1,0,136,137,-1,0,137,81,-1,81,137,138,-1,81,138,128,-1,106,139,90,-1,90,139,140,-1,90,140,141,-1,141,142,90,-1,90,142,143,-1,90,143,124,-1,144,145,146,-1,146,102,144,-1,144,102,101,-1,144,101,147,-1,147,101,148,-1,148,149,147,-1,147,149,150,-1,147,150,151,-1,152,153,154,-1,153,155,154,-1,154,155,156,-1,154,156,157,-1,158,154,159,-1,145,144,158,-1,158,144,160,-1,158,160,154,-1,154,160,161,-1,154,161,152,-1,159,162,158,-1,158,162,163,-1,158,163,164,-1,157,156,165,-1,165,156,166,-1,165,166,167,-1,167,166,168,-1,167,168,169,-1,170,171,164,-1,164,171,172,-1,164,172,158,-1,28,173,3,-1,3,173,174,-1,3,174,4,-1,4,174,175,-1,4,175,86,-1,176,177,178,-1,178,177,179,-1,180,181,182,-1,183,184,176,-1,176,184,26,-1,26,184,185,-1,26,185,24,-1,182,186,187,-1,187,186,188,-1,187,188,189,-1,177,190,179,-1,179,190,191,-1,179,191,192,-1,192,191,193,-1,194,195,196,-1,196,195,197,-1,198,199,200,-1,200,199,201,-1,200,201,22,-1,202,203,204,-1,204,203,205,-1,204,205,201,-1,206,207,208,-1,208,207,209,-1,208,209,210,-1,211,212,213,-1,214,215,216,-1,216,215,217,-1,194,218,195,-1,195,218,219,-1,195,219,220,-1,220,219,221,-1,222,223,221,-1,221,223,224,-1,221,224,220,-1,210,225,208,-1,208,225,226,-1,208,226,227,-1,213,212,228,-1,229,230,204,-1,204,230,231,-1,204,231,202,-1,227,232,208,-1,208,232,233,-1,208,233,215,-1,215,233,197,-1,215,197,217,-1,217,197,195,-1,234,235,236,-1,237,199,238,-1,212,239,228,-1,228,239,237,-1,228,237,240,-1,240,237,238,-1,214,241,215,-1,215,241,242,-1,215,242,243,-1,244,245,221,-1,221,245,246,-1,221,246,247,-1,234,236,198,-1,236,248,198,-1,198,248,249,-1,198,249,199,-1,199,249,250,-1,199,250,238,-1,247,251,221,-1,221,251,252,-1,221,252,222,-1,21,23,253,-1,253,23,254,-1,253,254,255,-1,255,254,19,-1,19,254,256,-1,19,256,20,-1,257,258,20,-1,259,260,20,-1,20,260,261,-1,262,263,264,-1,264,263,265,-1,264,265,266,-1,266,267,264,-1,264,267,268,-1,264,268,269,-1,269,268,270,-1,269,270,257,-1,271,272,258,-1,258,272,273,-1,258,273,20,-1,20,273,274,-1,20,274,259,-1,261,275,20,-1,20,275,276,-1,20,276,18,-1,277,278,279,-1,279,278,280,-1,279,280,281,-1,279,282,277,-1,277,282,283,-1,277,283,284,-1,284,285,277,-1,277,285,286,-1,277,286,287,-1,287,286,288,-1,287,288,289,-1,289,288,290,-1,289,290,258,-1,258,290,291,-1,258,291,271,-1,292,293,281,-1,281,293,294,-1,281,294,279,-1,295,296,235,-1,235,296,297,-1,235,297,236,-1,295,298,296,-1,296,298,299,-1,296,299,300,-1,300,299,301,-1,300,302,303,-1,301,304,300,-1,300,304,305,-1,300,305,306,-1,306,307,300,-1,300,307,308,-1,300,308,302,-1,303,309,300,-1,300,309,310,-1,300,310,311,-1,312,15,313,-1,314,315,316,-1,316,315,317,-1,318,319,320,-1,15,17,313,-1,313,17,321,-1,313,321,318,-1,320,319,322,-1,322,319,323,-1,322,323,317,-1,317,323,324,-1,317,324,316,-1,325,326,327,-1,327,326,328,-1,328,326,329,-1,329,326,330,-1,329,330,331,-1,331,330,332,-1,331,332,333,-1,334,335,322,-1,334,322,336,-1,320,337,338,-1,327,339,325,-1,325,339,340,-1,325,340,322,-1,322,340,341,-1,322,341,336,-1,338,342,320,-1,320,342,343,-1,320,343,332,-1,332,343,344,-1,332,344,333,-1,335,345,322,-1,322,345,346,-1,322,346,320,-1,320,346,347,-1,320,347,337,-1,326,348,349,-1,349,348,350,-1,349,351,326,-1,326,351,352,-1,326,352,330,-1,330,352,353,-1,330,353,354,-1,355,356,357,-1,357,356,358,-1,358,356,359,-1,359,356,352,-1,359,352,360,-1,360,352,351,-1,360,351,14,-1,14,351,361,-1,14,361,12,-1,350,348,362,-1,362,348,363,-1,362,363,364,-1,365,363,366,-1,366,363,367,-1,353,368,354,-1,354,368,364,-1,354,364,11,-1,11,364,363,-1,11,363,369,-1,369,363,365,-1,9,11,370,-1,371,372,369,-1,369,373,374,-1,371,369,375,-1,374,376,369,-1,369,376,377,-1,369,377,11,-1,11,377,378,-1,11,378,370,-1,372,379,369,-1,369,379,380,-1,369,380,373,-1,381,382,383,-1,383,382,384,-1,383,384,385,-1,386,387,388,-1,388,387,389,-1,389,390,388,-1,388,390,391,-1,388,391,369,-1,369,391,392,-1,369,392,375,-1,386,388,383,-1,383,388,393,-1,383,393,381,-1,7,394,395,-1,395,394,396,-1,396,394,397,-1,396,397,367,-1,6,8,398,-1,399,400,8,-1,8,400,401,-1,8,401,398,-1,402,403,404,-1,405,406,407,-1,407,406,408,-1,407,408,8,-1,8,408,409,-1,8,409,399,-1,410,411,412,-1,412,411,413,-1,412,413,414,-1,415,416,215,-1,215,416,417,-1,215,417,412,-1,412,417,418,-1,412,418,410,-1,211,213,243,-1,243,213,262,-1,243,262,215,-1,215,262,264,-1,215,264,415,-1,22,201,23,-1,23,201,205,-1,23,205,254,-1,254,205,419,-1,254,419,206,-1,206,419,420,-1,206,420,207,-1,421,422,423,-1,181,180,424,-1,424,180,425,-1,424,425,193,-1,193,425,423,-1,193,423,192,-1,192,423,422,-1,192,422,426,-1,427,428,429,-1,423,430,421,-1,421,430,431,-1,421,431,432,-1,432,431,427,-1,432,427,433,-1,433,427,429,-1,434,435,20,-1,257,20,269,-1,269,20,435,-1,269,435,430,-1,430,435,436,-1,430,436,431,-1,437,438,434,-1,439,440,441,-1,441,440,442,-1,441,442,437,-1,437,434,441,-1,441,434,20,-1,441,20,443,-1,443,20,256,-1,443,256,444,-1,443,445,441,-1,441,445,446,-1,441,446,447,-1,448,449,450,-1,450,449,451,-1,450,451,256,-1,256,451,452,-1,256,452,444,-1,447,453,441,-1,441,453,454,-1,441,454,439,-1,455,456,457,-1,455,457,426,-1,456,458,457,-1,457,458,459,-1,457,459,450,-1,450,459,460,-1,450,460,448,-1,461,74,462,-1,462,74,70,-1,462,70,463,-1,463,70,58,-1,463,58,464,-1,464,58,63,-1,464,63,465,-1,465,63,45,-1,465,45,466,-1,466,45,42,-1,466,42,467,-1,467,42,40,-1,468,469,404,-1,404,469,470,-1,471,407,29,-1,403,405,404,-1,404,405,407,-1,404,407,468,-1,468,407,471,-1,468,471,472,-1,5,404,3,-1,3,404,470,-1,3,470,29,-1,29,470,473,-1,29,473,471,-1,474,475,476,-1,475,474,477,-1,477,474,5,-1,477,5,478,-1,479,480,481,-1,481,480,477,-1,481,477,482,-1,482,477,478,-1,482,478,483,-1,483,478,484,-1,2,474,0,-1,0,474,476,-1,0,476,4,-1,4,476,485,-1,4,485,5,-1,5,485,486,-1,5,486,478,-1,7,395,8,-1,8,395,487,-1,8,487,407,-1,407,487,37,-1,407,37,29,-1,29,37,36,-1,29,36,30,-1,2,206,474,-1,474,206,208,-1,474,208,5,-1,5,208,215,-1,5,215,404,-1,404,215,412,-1,404,412,402,-1,402,412,414,-1,180,320,425,-1,425,320,332,-1,425,332,423,-1,423,332,330,-1,423,330,430,-1,430,330,354,-1,430,354,269,-1,269,354,11,-1,269,11,264,-1,264,11,10,-1,264,10,415,-1,367,363,396,-1,396,363,348,-1,396,348,488,-1,488,348,326,-1,488,326,489,-1,489,326,325,-1,489,325,490,-1,490,325,322,-1,490,322,491,-1,491,322,317,-1,491,317,492,-1,492,317,315,-1,492,315,493,-1,316,312,314,-1,314,312,313,-1,314,313,494,-1,495,496,180,-1,178,497,498,-1,498,495,178,-1,178,495,180,-1,178,180,176,-1,176,180,182,-1,176,182,183,-1,183,182,187,-1,494,499,497,-1,497,499,500,-1,497,500,501,-1,502,503,504,-1,504,503,505,-1,318,320,313,-1,313,320,180,-1,313,180,494,-1,494,180,506,-1,494,506,499,-1,502,504,507,-1,507,504,506,-1,507,506,508,-1,505,509,504,-1,504,509,510,-1,504,510,511,-1,512,513,506,-1,506,513,514,-1,506,514,508,-1,511,498,504,-1,504,498,497,-1,504,497,515,-1,515,497,501,-1,515,501,516,-1,516,501,517,-1,496,518,180,-1,180,518,519,-1,180,519,506,-1,506,519,520,-1,506,520,512,-1,426,457,192,-1,192,457,521,-1,192,521,179,-1,179,521,522,-1,179,522,178,-1,178,522,523,-1,178,523,497,-1,77,76,1,-1,1,76,524,-1,1,524,2,-1,2,524,525,-1,2,525,206,-1,206,525,526,-1,206,526,254,-1,254,526,527,-1,254,527,256,-1,256,527,528,-1,256,528,450,-1,450,528,529,-1,450,529,457,-1,457,529,530,-1,457,530,521,-1,521,530,531,-1,521,531,522,-1,522,531,532,-1,522,532,523,-1,533,534,467,-1,467,534,535,-1,535,534,536,-1,535,536,537,-1,538,539,536,-1,536,539,540,-1,536,540,537,-1,467,493,533,-1,533,493,541,-1,533,541,538,-1,538,541,542,-1,538,542,539,-1,543,544,545,-1,545,544,546,-1,543,547,544,-1,544,547,548,-1,544,548,549,-1,549,548,550,-1,549,550,551,-1,550,552,551,-1,551,552,553,-1,551,553,546,-1,546,553,554,-1,546,554,545,-1,555,556,557,-1,557,556,558,-1,548,547,541,-1,541,547,542,-1,535,537,553,-1,553,537,554,-1,540,539,555,-1,555,539,556,-1,559,560,461,-1,461,560,532,-1,557,558,545,-1,545,558,543,-1,552,550,559,-1,559,550,560,-1,559,461,552,-1,552,461,467,-1,552,467,553,-1,553,467,535,-1,532,560,550,-1,548,541,550,-1,550,541,493,-1,550,493,532,-1,555,557,545,-1,554,537,545,-1,545,537,540,-1,545,540,555,-1,558,556,543,-1,543,556,539,-1,543,539,547,-1,547,539,542,-1,
        ]
    }
}
Shape{
    appearance Appearance {
        material  Material 	{
            diffuseColor 1.0 1.0 0.0
            specularColor 0.5019607843137255 0.5019607843137255 0.0
            ambientIntensity 0.886
            transparency 0.0
            shininess 0.5
        }
    }
    geometry IndexedFaceSet {
        ccw TRUE
        solid FALSE
        coord DEF co Coordinate {
            point [
                -2.5732 0.0752 -1.1811, -2.4268 0.0752 -1.1811, -2.5732 -0.0713 -1.1811, -2.4268 -0.0713 -1.1811, -2.626 0.128 -0.9842, -2.626 0.128 0.1969, -2.374 0.128 -0.9842, -2.374 0.128 0.1969, -2.374 -0.124 -0.9842, -2.374 -0.124 0.1969, -2.626 -0.124 -0.9842, -2.626 -0.124 0.1969, -2.374 -0.124 3.189, -2.374 -0.124 0.9843, -2.374 0.128 3.189, -2.374 0.128 0.9843, -2.626 0.128 3.189, -2.626 0.128 0.9843, -2.626 -0.124 3.189, -2.626 -0.124 0.9843, -2.4268 0.0752 3.3858, -2.5732 0.0752 3.3858, -2.4268 -0.0713 3.3858, -2.5732 -0.0713 3.3858
            ]
        }
        coordIndex [
            0,1,2,-1,2,1,3,-1,4,5,6,-1,6,5,7,-1,8,9,10,-1,10,9,11,-1,10,11,4,-1,4,11,5,-1,6,7,8,-1,8,7,9,-1,12,13,14,-1,14,13,15,-1,16,17,18,-1,18,17,19,-1,18,19,12,-1,12,19,13,-1,14,15,16,-1,16,15,17,-1,20,21,22,-1,22,21,23,-1,18,23,16,-1,16,23,21,-1,12,22,18,-1,18,22,23,-1,20,14,21,-1,21,14,16,-1,14,20,12,-1,12,20,22,-1,8,3,6,-1,6,3,1,-1,10,2,8,-1,8,2,3,-1,0,4,1,-1,1,4,6,-1,4,0,10,-1,10,0,2,-1,
        ]
    }
}
Shape{
    appearance Appearance {
        material  Material 	{
            diffuseColor 1.0 1.0 1.0
            specularColor 0.5019607843137255 0.5019607843137255 0.5019607843137255
            ambientIntensity 1.0
            transparency 0.0
            shininess 0.5
        }
    }
    geometry IndexedFaceSet {
        ccw TRUE
        solid FALSE
        coord DEF co Coordinate {
            point [
                -2.4535 -0.4941 0.5257, -2.4535 -0.4941 0.5181, -2.4535 -0.4902 0.5257, -2.4535 -0.4902 0.5181, -2.4801 -0.4941 0.5257, -2.4801 -0.4902 0.5257, -2.4801 -0.4941 0.5848, -2.4801 -0.4902 0.5848, -2.4887 -0.4941 0.5848, -2.4887 -0.4902 0.5848, -2.4887 -0.4941 0.5181, -2.4887 -0.4902 0.5181, -2.4193 -0.4941 0.517, -2.4193 -0.4902 0.517, -2.4092 -0.4941 0.518, -2.4134 -0.4902 0.5176, -2.4092 -0.4902 0.518, -2.402 -0.4902 0.5203, -2.402 -0.4941 0.5203, -2.4009 -0.4902 0.5209, -2.4009 -0.4941 0.5209, -2.4009 -0.4941 0.5291, -2.4009 -0.4902 0.5291, -2.4066 -0.4902 0.5265, -2.4066 -0.4941 0.5265, -2.414 -0.4902 0.5249, -2.414 -0.4941 0.5249, -2.4181 -0.4902 0.5247, -2.4181 -0.4941 0.5247, -2.4244 -0.4902 0.5254, -2.4244 -0.4941 0.5254, -2.4292 -0.4902 0.5271, -2.4292 -0.4941 0.5271, -2.4336 -0.4902 0.5301, -2.4336 -0.4941 0.5301, -2.4352 -0.4902 0.5317, -2.4352 -0.4941 0.5317, -2.4385 -0.4902 0.5362, -2.4385 -0.4941 0.5362, -2.4406 -0.4902 0.5416, -2.4406 -0.4941 0.5416, -2.4417 -0.4902 0.5483, -2.4417 -0.4941 0.5483, -2.4418 -0.4902 0.5507, -2.4418 -0.4941 0.5507, -2.4407 -0.4902 0.5598, -2.4407 -0.4941 0.5598, -2.4385 -0.4902 0.5656, -2.4385 -0.4941 0.5656, -2.4353 -0.4902 0.5702, -2.4353 -0.4941 0.5702, -2.4348 -0.4902 0.5708, -2.4348 -0.4941 0.5708, -2.4303 -0.4902 0.5745, -2.4303 -0.4941 0.5745, -2.4251 -0.4902 0.5769, -2.4251 -0.4941 0.5769, -2.4193 -0.4902 0.5781, -2.4193 -0.4941 0.5781, -2.4166 -0.4902 0.5782, -2.4166 -0.4941 0.5782, -2.4084 -0.4902 0.5772, -2.4084 -0.4941 0.5772, -2.4016 -0.4902 0.5746, -2.4016 -0.4941 0.5746, -2.4009 -0.4902 0.5742, -2.4009 -0.4941 0.5742, -2.4009 -0.4941 0.5832, -2.4009 -0.4902 0.5832, -2.4167 -0.4902 0.586, -2.4167 -0.4941 0.586, -2.4153 -0.4941 0.586, -2.4068 -0.4902 0.5851, -2.4068 -0.4941 0.5851, -2.41 -0.4902 0.5854, -2.4153 -0.4902 0.586, -2.4213 -0.4902 0.5854, -2.4263 -0.4941 0.5848, -2.4263 -0.4902 0.5848, -2.4332 -0.4902 0.5821, -2.4332 -0.4941 0.5821, -2.4397 -0.4902 0.5776, -2.4397 -0.4941 0.5776, -2.4412 -0.4902 0.5761, -2.4412 -0.4941 0.5761, -2.4454 -0.4902 0.5708, -2.4478 -0.4902 0.5657, -2.4488 -0.4941 0.5636, -2.4454 -0.4941 0.5708, -2.4488 -0.4902 0.5636, -2.4506 -0.4902 0.5552, -2.4506 -0.4941 0.5552, -2.4508 -0.4902 0.5502, -2.4508 -0.4941 0.5502, -2.4495 -0.4902 0.5394, -2.4478 -0.4902 0.5351, -2.4468 -0.4941 0.5325, -2.4495 -0.4941 0.5394, -2.4468 -0.4902 0.5325, -2.4428 -0.4902 0.5268, -2.4428 -0.4941 0.5268, -2.4422 -0.4902 0.5261, -2.4422 -0.4941 0.5261, -2.4241 -0.4941 0.5173, -2.4374 -0.4902 0.522, -2.4374 -0.4941 0.522, -2.4312 -0.4902 0.5189, -2.4312 -0.4941 0.5189, -2.4254 -0.4902 0.5176, -2.4241 -0.4902 0.5173, -2.3516 -0.4941 0.5257, -2.3516 -0.4941 0.5181, -2.3516 -0.4902 0.5257, -2.3516 -0.4902 0.5181, -2.3789 -0.4902 0.5257, -2.3789 -0.4941 0.5257, -2.3609 -0.4902 0.5257, -2.3789 -0.4941 0.5482, -2.3789 -0.4902 0.5482, -2.355 -0.4941 0.5482, -2.3609 -0.4902 0.5482, -2.355 -0.4902 0.5482, -2.355 -0.4941 0.5558, -2.355 -0.4902 0.5558, -2.3789 -0.4902 0.5558, -2.3789 -0.4941 0.5558, -2.3609 -0.4902 0.5558, -2.3789 -0.4941 0.5772, -2.3789 -0.4902 0.5772, -2.3531 -0.4941 0.5772, -2.3609 -0.4902 0.5772, -2.3531 -0.4902 0.5772, -2.3531 -0.4941 0.5848, -2.3531 -0.4902 0.5848, -2.3875 -0.4902 0.5848, -2.3875 -0.4941 0.5848, -2.3609 -0.4902 0.5848, -2.3875 -0.4941 0.5181, -2.3875 -0.4902 0.5181, -2.3609 -0.4902 0.5181, -2.2975 -0.4941 0.5369, -2.3009 -0.4941 0.5327, -2.2947 -0.4941 0.5275, -2.3017 -0.4941 0.5319, -2.3018 -0.4941 0.5224, -2.306 -0.4941 0.5289, -2.3094 -0.4941 0.5195, -2.3116 -0.4941 0.5268, -2.3207 -0.4941 0.5181, -2.3207 -0.4941 0.5257, -2.339 -0.4941 0.5181, -2.3304 -0.4941 0.5257, -2.339 -0.4941 0.5848, -2.3304 -0.4941 0.5772, -2.32 -0.4941 0.5848, -2.3203 -0.4941 0.5772, -2.3098 -0.4941 0.5837, -2.3116 -0.4941 0.5762, -2.3017 -0.4941 0.5808, -2.3058 -0.4941 0.5741, -2.2947 -0.4941 0.576, -2.3011 -0.4941 0.5709, -2.2924 -0.4941 0.5737, -2.2986 -0.4941 0.5684, -2.2882 -0.4941 0.5678, -2.2962 -0.4941 0.5645, -2.2858 -0.4941 0.5615, -2.2945 -0.4941 0.5593, -2.2847 -0.4941 0.5523, -2.2937 -0.4941 0.5521, -2.285 -0.4941 0.5469, -2.2939 -0.4941 0.5481, -2.2868 -0.4941 0.5393, -2.2952 -0.4941 0.5419, -2.2904 -0.4941 0.5325, -2.3207 -0.4902 0.5181, -2.339 -0.4902 0.5181, -2.2947 -0.4902 0.5275, -2.3094 -0.4902 0.5195, -2.3084 -0.4902 0.5199, -2.3018 -0.4902 0.5224, -2.2904 -0.4902 0.5325, -2.2868 -0.4902 0.5393, -2.285 -0.4902 0.5469, -2.2847 -0.4902 0.5523, -2.2858 -0.4902 0.5615, -2.2882 -0.4902 0.5678, -2.2924 -0.4902 0.5737, -2.2947 -0.4902 0.576, -2.32 -0.4902 0.5848, -2.3017 -0.4902 0.5808, -2.3084 -0.4902 0.5832, -2.3098 -0.4902 0.5837, -2.339 -0.4902 0.5848, -2.3203 -0.4902 0.5772, -2.3304 -0.4902 0.5772, -2.3304 -0.4902 0.5257, -2.3207 -0.4902 0.5257, -2.3009 -0.4902 0.5327, -2.3017 -0.4902 0.5319, -2.306 -0.4902 0.5289, -2.3116 -0.4902 0.5268, -2.2937 -0.4902 0.5521, -2.2939 -0.4902 0.5481, -2.2952 -0.4902 0.5419, -2.2975 -0.4902 0.5369, -2.3011 -0.4902 0.5709, -2.2986 -0.4902 0.5684, -2.2962 -0.4902 0.5645, -2.2945 -0.4902 0.5593, -2.3116 -0.4902 0.5762, -2.3058 -0.4902 0.5741
            ]
        }
        coordIndex [
            0,1,2,-1,2,1,3,-1,4,0,5,-1,5,0,2,-1,6,4,7,-1,7,4,5,-1,8,6,9,-1,9,6,7,-1,10,8,11,-1,11,8,9,-1,1,10,3,-1,3,10,11,-1,6,8,4,-1,4,8,10,-1,4,10,0,-1,0,10,1,-1,12,13,14,-1,14,13,15,-1,15,16,14,-1,14,16,17,-1,14,17,18,-1,18,17,19,-1,18,19,20,-1,21,20,22,-1,22,20,19,-1,21,22,23,-1,21,23,24,-1,24,23,25,-1,24,25,26,-1,26,25,27,-1,26,27,28,-1,28,27,29,-1,28,29,30,-1,30,29,31,-1,30,31,32,-1,32,31,33,-1,32,33,34,-1,34,33,35,-1,34,35,36,-1,36,35,37,-1,36,37,38,-1,38,37,39,-1,38,39,40,-1,40,39,41,-1,40,41,42,-1,42,41,43,-1,42,43,44,-1,44,43,45,-1,44,45,46,-1,46,45,47,-1,46,47,48,-1,48,47,49,-1,48,49,50,-1,50,49,51,-1,50,51,52,-1,52,51,53,-1,52,53,54,-1,54,53,55,-1,54,55,56,-1,56,55,57,-1,56,57,58,-1,58,57,59,-1,58,59,60,-1,60,59,61,-1,60,61,62,-1,62,61,63,-1,62,63,64,-1,64,63,65,-1,64,65,66,-1,67,66,68,-1,68,66,65,-1,69,70,71,-1,67,68,72,-1,67,72,73,-1,73,72,74,-1,73,74,71,-1,71,74,75,-1,71,75,69,-1,70,69,76,-1,70,76,77,-1,76,78,77,-1,77,78,79,-1,77,79,80,-1,80,79,81,-1,80,81,82,-1,82,81,83,-1,82,83,84,-1,84,83,85,-1,86,87,85,-1,85,87,88,-1,85,88,84,-1,86,89,87,-1,87,89,90,-1,87,90,91,-1,91,90,92,-1,91,92,93,-1,93,92,94,-1,95,96,94,-1,94,96,97,-1,94,97,93,-1,95,98,96,-1,96,98,99,-1,96,99,100,-1,100,99,101,-1,100,101,102,-1,13,12,103,-1,102,101,104,-1,102,104,105,-1,105,104,106,-1,105,106,107,-1,107,106,108,-1,107,108,103,-1,103,108,109,-1,103,109,13,-1,64,66,67,-1,46,48,88,-1,64,67,62,-1,88,48,84,-1,70,60,71,-1,71,60,62,-1,71,62,73,-1,73,62,67,-1,48,50,84,-1,84,50,52,-1,84,52,82,-1,82,52,54,-1,82,54,80,-1,80,54,77,-1,77,54,56,-1,77,56,70,-1,70,56,58,-1,70,58,60,-1,93,44,91,-1,91,44,46,-1,91,46,87,-1,87,46,88,-1,20,21,18,-1,18,21,24,-1,18,24,14,-1,14,24,26,-1,14,26,12,-1,12,26,28,-1,12,28,103,-1,103,28,30,-1,103,30,107,-1,107,30,32,-1,107,32,105,-1,105,32,34,-1,105,34,102,-1,102,34,36,-1,102,36,100,-1,100,36,38,-1,100,38,96,-1,96,38,97,-1,97,38,40,-1,97,40,93,-1,93,40,42,-1,93,42,44,-1,110,111,112,-1,112,111,113,-1,114,115,116,-1,116,115,110,-1,116,110,112,-1,117,115,118,-1,118,115,114,-1,117,118,119,-1,119,118,120,-1,119,120,121,-1,122,119,123,-1,123,119,121,-1,124,125,126,-1,126,125,122,-1,126,122,123,-1,127,125,128,-1,128,125,124,-1,127,128,129,-1,129,128,130,-1,129,130,131,-1,132,129,133,-1,133,129,131,-1,134,135,136,-1,136,135,132,-1,136,132,133,-1,137,135,138,-1,138,135,134,-1,137,138,111,-1,111,138,139,-1,111,139,113,-1,137,111,110,-1,110,115,137,-1,137,115,117,-1,137,117,135,-1,129,132,127,-1,127,132,135,-1,127,135,125,-1,125,135,117,-1,125,117,122,-1,122,117,119,-1,140,141,142,-1,142,141,143,-1,142,143,144,-1,144,143,145,-1,144,145,146,-1,146,145,147,-1,146,147,148,-1,148,147,149,-1,148,149,150,-1,150,149,151,-1,150,151,152,-1,152,151,153,-1,152,153,154,-1,154,153,155,-1,154,155,156,-1,156,155,157,-1,156,157,158,-1,158,157,159,-1,158,159,160,-1,160,159,161,-1,160,161,162,-1,162,161,163,-1,162,163,164,-1,164,163,165,-1,164,165,166,-1,166,165,167,-1,166,167,168,-1,168,167,169,-1,168,169,170,-1,170,169,171,-1,170,171,172,-1,172,171,173,-1,172,173,174,-1,174,173,140,-1,174,140,142,-1,148,150,175,-1,175,150,176,-1,177,142,144,-1,148,175,178,-1,148,178,146,-1,146,178,179,-1,146,179,144,-1,144,179,180,-1,144,180,177,-1,142,177,181,-1,142,181,174,-1,174,181,182,-1,174,182,172,-1,172,182,183,-1,172,183,170,-1,170,183,184,-1,170,184,168,-1,168,184,185,-1,168,185,166,-1,166,185,186,-1,166,186,164,-1,164,186,187,-1,164,187,162,-1,162,187,188,-1,162,188,160,-1,189,154,156,-1,160,188,190,-1,160,190,158,-1,158,190,191,-1,158,191,156,-1,156,191,192,-1,156,192,189,-1,152,154,193,-1,193,154,189,-1,150,152,176,-1,176,152,193,-1,155,153,194,-1,194,153,195,-1,153,151,195,-1,195,151,196,-1,151,149,196,-1,196,149,197,-1,141,198,199,-1,141,199,143,-1,143,199,200,-1,143,200,145,-1,145,200,201,-1,145,201,147,-1,147,201,197,-1,147,197,149,-1,169,202,203,-1,169,203,171,-1,171,203,204,-1,171,204,173,-1,173,204,205,-1,173,205,140,-1,140,205,198,-1,140,198,141,-1,161,206,207,-1,161,207,163,-1,163,207,208,-1,163,208,165,-1,165,208,209,-1,165,209,167,-1,167,209,202,-1,167,202,169,-1,155,194,210,-1,155,210,157,-1,157,210,211,-1,157,211,159,-1,159,211,206,-1,159,206,161,-1,
        ]
    }
}
Shape{
    appearance Appearance {
        material  Material 	{
            diffuseColor 0.25098039215686274 0.25098039215686274 0.25098039215686274
            specularColor 0.12549019607843137 0.12549019607843137 0.12549019607843137
            ambientIntensity 0.251
            transparency 0.0
            shininess 0.5
        }
    }
    geometry IndexedFaceSet {
        ccw TRUE
        solid FALSE
        coord DEF co Coordinate {
            point [
                -2.3304 -0.4902 0.5772, -2.3304 -0.4902 0.5257, -2.3203 -0.4902 0.5772, -2.3207 -0.4902 0.5257, -2.3017 -0.4902 0.5319, -2.3009 -0.4902 0.5327, -2.3116 -0.4902 0.5268, -2.306 -0.4902 0.5289, -2.2939 -0.4902 0.5481, -2.2937 -0.4902 0.5521, -2.2975 -0.4902 0.5369, -2.2952 -0.4902 0.5419, -2.2945 -0.4902 0.5593, -2.2962 -0.4902 0.5645, -2.2986 -0.4902 0.5684, -2.3011 -0.4902 0.5709, -2.3058 -0.4902 0.5741, -2.3116 -0.4902 0.5762
            ]
        }
        coordIndex [
            0,1,2,-1,2,1,3,-1,2,4,5,-1,3,6,2,-1,2,6,7,-1,2,7,4,-1,8,9,2,-1,5,10,2,-1,2,10,11,-1,2,11,8,-1,9,12,2,-1,2,12,13,-1,2,13,14,-1,14,15,2,-1,2,15,16,-1,2,16,17,-1,
        ]
    }
}
Shape{
    appearance Appearance {
        material  Material 	{
            diffuseColor 1.0 1.0 1.0
            specularColor 0.5019607843137255 0.5019607843137255 0.5019607843137255
            ambientIntensity 1.0
            transparency 0.0
            shininess 0.5
        }
    }
    geometry IndexedFaceSet {
        ccw TRUE
        solid FALSE
        coord DEF co Coordinate {
            point [
                -2.2623 -0.4941 0.5439, -2.265 -0.4941 0.5364, -2.2399 -0.4941 0.5439, -2.2373 -0.4941 0.5364, -2.2523 -0.4941 0.5716, -2.2556 -0.4941 0.5848, -2.281 -0.4941 0.5181, -2.2715 -0.4941 0.5181, -2.2518 -0.4941 0.5736, -2.2513 -0.4941 0.5763, -2.2464 -0.4941 0.5848, -2.251 -0.4941 0.5763, -2.2505 -0.4941 0.5735, -2.25 -0.4941 0.5716, -2.2209 -0.4941 0.5181, -2.2305 -0.4941 0.5181, -2.2464 -0.4902 0.5848, -2.2209 -0.4902 0.5181, -2.2556 -0.4902 0.5848, -2.281 -0.4902 0.5181, -2.2617 -0.4902 0.5686, -2.2715 -0.4902 0.5181, -2.265 -0.4902 0.5364, -2.2373 -0.4902 0.5364, -2.2617 -0.4902 0.5364, -2.2305 -0.4902 0.5181, -2.2623 -0.4902 0.5439, -2.2399 -0.4902 0.5439, -2.25 -0.4902 0.5716, -2.251 -0.4902 0.5763, -2.2505 -0.4902 0.5735, -2.2513 -0.4902 0.5763, -2.2523 -0.4902 0.5716, -2.2518 -0.4902 0.5736
            ]
        }
        coordIndex [
            0,1,2,-1,2,1,3,-1,4,5,0,-1,0,5,6,-1,0,6,1,-1,1,6,7,-1,4,8,5,-1,5,8,9,-1,5,9,10,-1,10,9,11,-1,10,11,12,-1,12,13,10,-1,10,13,2,-1,10,2,14,-1,14,2,3,-1,14,3,15,-1,10,14,16,-1,16,14,17,-1,5,10,18,-1,18,10,16,-1,19,6,20,-1,20,6,5,-1,20,5,18,-1,7,6,21,-1,21,6,19,-1,1,7,22,-1,22,7,21,-1,23,3,24,-1,24,3,1,-1,24,1,22,-1,15,3,25,-1,25,3,23,-1,14,15,17,-1,17,15,25,-1,0,2,26,-1,26,2,27,-1,2,13,27,-1,27,13,28,-1,11,29,30,-1,11,30,12,-1,12,30,28,-1,12,28,13,-1,11,9,29,-1,29,9,31,-1,4,32,33,-1,4,33,8,-1,8,33,31,-1,8,31,9,-1,4,0,32,-1,32,0,26,-1,
        ]
    }
}
Shape{
    appearance Appearance {
        material  Material 	{
            diffuseColor 0.25098039215686274 0.25098039215686274 0.25098039215686274
            specularColor 0.12549019607843137 0.12549019607843137 0.12549019607843137
            ambientIntensity 0.251
            transparency 0.0
            shininess 0.5
        }
    }
    geometry IndexedFaceSet {
        ccw TRUE
        solid FALSE
        coord DEF co Coordinate {
            point [
                -2.251 -0.4902 0.5763, -2.2513 -0.4902 0.5763, -2.2505 -0.4902 0.5735, -2.2518 -0.4902 0.5736, -2.25 -0.4902 0.5716, -2.2523 -0.4902 0.5716, -2.2399 -0.4902 0.5439, -2.2623 -0.4902 0.5439
            ]
        }
        coordIndex [
            0,1,2,-1,2,1,3,-1,2,3,4,-1,4,3,5,-1,4,5,6,-1,6,5,7,-1,
        ]
    }
}
Shape{
    appearance Appearance {
        material  Material 	{
            diffuseColor 1.0 1.0 1.0
            specularColor 0.5019607843137255 0.5019607843137255 0.5019607843137255
            ambientIntensity 1.0
            transparency 0.0
            shininess 0.5
        }
    }
    geometry IndexedFaceSet {
        ccw TRUE
        solid FALSE
        coord DEF co Coordinate {
            point [
                -2.4528 -0.4941 0.4199, -2.4528 -0.4941 0.4123, -2.4528 -0.4902 0.4199, -2.4528 -0.4902 0.4123, -2.4801 -0.4941 0.4199, -2.4801 -0.4902 0.4199, -2.4801 -0.4941 0.4423, -2.4801 -0.4902 0.4423, -2.4563 -0.4941 0.4423, -2.4563 -0.4902 0.4423, -2.4563 -0.4941 0.45, -2.4563 -0.4902 0.45, -2.4801 -0.4941 0.45, -2.4801 -0.4902 0.45, -2.4801 -0.4941 0.4713, -2.4801 -0.4902 0.4713, -2.4544 -0.4941 0.4713, -2.4544 -0.4902 0.4713, -2.4544 -0.4941 0.479, -2.4544 -0.4902 0.479, -2.4887 -0.4941 0.479, -2.4887 -0.4902 0.479, -2.4887 -0.4941 0.4123, -2.4887 -0.4902 0.4123, -2.4151 -0.4941 0.4196, -2.4149 -0.4941 0.4196, -2.4155 -0.4941 0.4273, -2.4149 -0.4941 0.4311, -2.4065 -0.4941 0.4429, -2.4149 -0.4941 0.4316, -2.4149 -0.4941 0.4362, -2.4149 -0.4941 0.4123, -2.4065 -0.4941 0.4123, -2.4331 -0.4941 0.4326, -2.4311 -0.4941 0.4335, -2.4355 -0.4941 0.439, -2.4167 -0.4941 0.4243, -2.4185 -0.4941 0.4219, -2.4164 -0.4941 0.4176, -2.4195 -0.4941 0.4209, -2.4191 -0.4941 0.4148, -2.4219 -0.4941 0.4193, -2.422 -0.4941 0.4128, -2.4244 -0.4941 0.4184, -2.4254 -0.4941 0.4116, -2.4276 -0.4941 0.418, -2.4297 -0.4941 0.4111, -2.4304 -0.4941 0.4183, -2.4347 -0.4941 0.4117, -2.4323 -0.4941 0.419, -2.4379 -0.4941 0.4129, -2.4339 -0.4941 0.4201, -2.4407 -0.4941 0.4149, -2.4347 -0.4941 0.4209, -2.429 -0.4941 0.4406, -2.4261 -0.4941 0.4347, -2.4149 -0.4941 0.4426, -2.4341 -0.4941 0.4317, -2.439 -0.4941 0.4371, -2.4351 -0.4941 0.4305, -2.4415 -0.4941 0.4349, -2.4359 -0.4941 0.429, -2.4432 -0.4941 0.4325, -2.4363 -0.4941 0.427, -2.4443 -0.4941 0.4295, -2.4364 -0.4941 0.4257, -2.4448 -0.4941 0.425, -2.4362 -0.4941 0.4238, -2.4444 -0.4941 0.4212, -2.4356 -0.4941 0.4223, -2.4434 -0.4941 0.4184, -2.4417 -0.4941 0.4158, -2.4402 -0.4941 0.4566, -2.4402 -0.4941 0.4485, -2.4384 -0.4941 0.4576, -2.4348 -0.4941 0.4519, -2.4322 -0.4941 0.46, -2.4296 -0.4941 0.4537, -2.4238 -0.4941 0.461, -2.4246 -0.4941 0.4542, -2.419 -0.4941 0.4606, -2.4217 -0.4941 0.4539, -2.4154 -0.4941 0.4596, -2.4198 -0.4941 0.4533, -2.4126 -0.4941 0.458, -2.4183 -0.4941 0.4523, -2.4103 -0.4941 0.4559, -2.417 -0.4941 0.451, -2.4086 -0.4941 0.4533, -2.4161 -0.4941 0.4492, -2.4073 -0.4941 0.4495, -2.4152 -0.4941 0.4463, -2.4238 -0.4902 0.461, -2.4322 -0.4902 0.46, -2.4384 -0.4902 0.4576, -2.4402 -0.4902 0.4566, -2.4402 -0.4902 0.4485, -2.4348 -0.4902 0.4519, -2.4296 -0.4902 0.4537, -2.4246 -0.4902 0.4542, -2.4217 -0.4902 0.4539, -2.4198 -0.4902 0.4533, -2.4183 -0.4902 0.4523, -2.417 -0.4902 0.451, -2.4161 -0.4902 0.4492, -2.4152 -0.4902 0.4463, -2.4149 -0.4902 0.4426, -2.429 -0.4902 0.4406, -2.4355 -0.4902 0.439, -2.439 -0.4902 0.4371, -2.4415 -0.4902 0.4349, -2.4432 -0.4902 0.4325, -2.4443 -0.4902 0.4295, -2.4448 -0.4902 0.425, -2.4444 -0.4902 0.4212, -2.4434 -0.4902 0.4184, -2.4417 -0.4902 0.4158, -2.4407 -0.4902 0.4149, -2.4297 -0.4902 0.4111, -2.4346 -0.4902 0.4117, -2.4347 -0.4902 0.4117, -2.4379 -0.4902 0.4129, -2.4254 -0.4902 0.4116, -2.4252 -0.4902 0.4117, -2.422 -0.4902 0.4128, -2.4191 -0.4902 0.4148, -2.4164 -0.4902 0.4176, -2.4151 -0.4902 0.4196, -2.4149 -0.4902 0.4196, -2.4149 -0.4902 0.4123, -2.4065 -0.4902 0.4123, -2.4065 -0.4902 0.4429, -2.4073 -0.4902 0.4495, -2.4086 -0.4902 0.4533, -2.4103 -0.4902 0.4559, -2.4126 -0.4902 0.458, -2.4154 -0.4902 0.4596, -2.419 -0.4902 0.4606, -2.4341 -0.4902 0.4317, -2.4331 -0.4902 0.4326, -2.4311 -0.4902 0.4335, -2.4261 -0.4902 0.4347, -2.4364 -0.4902 0.4257, -2.4363 -0.4902 0.427, -2.4359 -0.4902 0.429, -2.4351 -0.4902 0.4305, -2.4339 -0.4902 0.4201, -2.4347 -0.4902 0.4209, -2.4356 -0.4902 0.4223, -2.4362 -0.4902 0.4238, -2.4276 -0.4902 0.418, -2.4304 -0.4902 0.4183, -2.4323 -0.4902 0.419, -2.4185 -0.4902 0.4219, -2.4195 -0.4902 0.4209, -2.4219 -0.4902 0.4193, -2.4244 -0.4902 0.4184, -2.4149 -0.4902 0.4316, -2.4149 -0.4902 0.4311, -2.4155 -0.4902 0.4273, -2.4167 -0.4902 0.4243, -2.4149 -0.4902 0.4362
            ]
        }
        coordIndex [
            0,1,2,-1,2,1,3,-1,4,0,5,-1,5,0,2,-1,6,4,7,-1,7,4,5,-1,8,6,9,-1,9,6,7,-1,10,8,11,-1,11,8,9,-1,12,10,13,-1,13,10,11,-1,14,12,15,-1,15,12,13,-1,16,14,17,-1,17,14,15,-1,18,16,19,-1,19,16,17,-1,20,18,21,-1,21,18,19,-1,22,20,23,-1,23,20,21,-1,1,22,3,-1,3,22,23,-1,22,1,0,-1,0,4,22,-1,22,4,6,-1,22,6,20,-1,16,18,14,-1,14,18,20,-1,14,20,12,-1,12,20,6,-1,12,6,10,-1,10,6,8,-1,24,25,26,-1,27,28,29,-1,29,28,30,-1,31,32,25,-1,25,32,28,-1,25,28,26,-1,26,28,27,-1,33,34,35,-1,26,36,24,-1,24,36,37,-1,24,37,38,-1,38,37,39,-1,38,39,40,-1,40,39,41,-1,40,41,42,-1,42,41,43,-1,42,43,44,-1,44,43,45,-1,44,45,46,-1,46,45,47,-1,46,47,48,-1,48,47,49,-1,48,49,50,-1,50,49,51,-1,50,51,52,-1,52,51,53,-1,35,34,54,-1,54,34,55,-1,54,55,56,-1,33,35,57,-1,57,35,58,-1,57,58,59,-1,59,58,60,-1,59,60,61,-1,61,60,62,-1,61,62,63,-1,63,62,64,-1,63,64,65,-1,65,64,66,-1,65,66,67,-1,67,66,68,-1,67,68,69,-1,69,68,70,-1,69,70,53,-1,53,70,71,-1,53,71,52,-1,72,73,74,-1,74,73,75,-1,74,75,76,-1,76,75,77,-1,76,77,78,-1,78,77,79,-1,78,79,80,-1,80,79,81,-1,80,81,82,-1,82,81,83,-1,82,83,84,-1,84,83,85,-1,84,85,86,-1,86,85,87,-1,86,87,88,-1,88,87,89,-1,88,89,90,-1,90,89,91,-1,90,91,28,-1,28,91,56,-1,28,56,30,-1,30,56,55,-1,78,92,93,-1,78,93,76,-1,76,93,94,-1,76,94,74,-1,74,94,95,-1,74,95,72,-1,73,72,96,-1,96,72,95,-1,73,96,97,-1,73,97,75,-1,75,97,98,-1,75,98,77,-1,77,98,99,-1,77,99,79,-1,79,99,100,-1,79,100,81,-1,81,100,101,-1,81,101,83,-1,83,101,102,-1,83,102,85,-1,85,102,103,-1,85,103,87,-1,87,103,104,-1,87,104,89,-1,89,104,105,-1,89,105,91,-1,91,105,106,-1,91,106,56,-1,54,56,107,-1,107,56,106,-1,54,107,108,-1,54,108,35,-1,35,108,109,-1,35,109,58,-1,58,109,110,-1,58,110,60,-1,60,110,111,-1,60,111,62,-1,62,111,112,-1,62,112,64,-1,64,112,113,-1,64,113,66,-1,66,113,114,-1,66,114,68,-1,68,114,115,-1,68,115,70,-1,70,115,116,-1,70,116,71,-1,71,116,117,-1,71,117,52,-1,118,46,119,-1,119,46,48,-1,119,48,120,-1,120,48,50,-1,120,50,121,-1,121,50,52,-1,121,52,117,-1,46,118,122,-1,46,122,44,-1,44,122,123,-1,44,123,42,-1,123,124,42,-1,42,124,125,-1,42,125,40,-1,40,125,126,-1,40,126,38,-1,38,126,127,-1,38,127,24,-1,25,24,128,-1,128,24,127,-1,31,25,129,-1,129,25,128,-1,32,31,130,-1,130,31,129,-1,28,32,131,-1,131,32,130,-1,28,131,132,-1,28,132,90,-1,90,132,133,-1,90,133,88,-1,88,133,134,-1,88,134,86,-1,86,134,135,-1,86,135,84,-1,84,135,136,-1,84,136,82,-1,82,136,137,-1,82,137,80,-1,80,137,92,-1,80,92,78,-1,57,138,139,-1,57,139,33,-1,33,139,140,-1,33,140,34,-1,34,140,141,-1,34,141,55,-1,65,142,143,-1,65,143,63,-1,63,143,144,-1,63,144,61,-1,61,144,145,-1,61,145,59,-1,59,145,138,-1,59,138,57,-1,51,146,147,-1,51,147,53,-1,53,147,148,-1,53,148,69,-1,69,148,149,-1,69,149,67,-1,67,149,142,-1,67,142,65,-1,45,150,151,-1,45,151,47,-1,47,151,152,-1,47,152,49,-1,49,152,146,-1,49,146,51,-1,37,153,154,-1,37,154,39,-1,39,154,155,-1,39,155,41,-1,41,155,156,-1,41,156,43,-1,43,156,150,-1,43,150,45,-1,29,157,158,-1,29,158,27,-1,27,158,159,-1,27,159,26,-1,26,159,160,-1,26,160,36,-1,36,160,153,-1,36,153,37,-1,29,30,157,-1,157,30,161,-1,30,55,161,-1,161,55,141,-1,
        ]
    }
}
Shape{
    appearance Appearance {
        material  Material 	{
            diffuseColor 0.25098039215686274 0.25098039215686274 0.25098039215686274
            specularColor 0.12549019607843137 0.12549019607843137 0.12549019607843137
            ambientIntensity 0.251
            transparency 0.0
            shininess 0.5
        }
    }
    geometry IndexedFaceSet {
        ccw TRUE
        solid FALSE
        coord DEF co Coordinate {
            point [
                -2.4149 -0.4902 0.4311, -2.4149 -0.4902 0.4316, -2.4341 -0.4902 0.4317, -2.4149 -0.4902 0.4362, -2.4261 -0.4902 0.4347, -2.4311 -0.4902 0.4335, -2.4331 -0.4902 0.4326, -2.4155 -0.4902 0.4273, -2.4351 -0.4902 0.4305, -2.4167 -0.4902 0.4243, -2.4347 -0.4902 0.4209, -2.4339 -0.4902 0.4201, -2.4195 -0.4902 0.4209, -2.4356 -0.4902 0.4223, -2.4219 -0.4902 0.4193, -2.4244 -0.4902 0.4184, -2.4276 -0.4902 0.418, -2.4359 -0.4902 0.429, -2.4363 -0.4902 0.427, -2.4185 -0.4902 0.4219, -2.4364 -0.4902 0.4257, -2.4362 -0.4902 0.4238, -2.4323 -0.4902 0.419, -2.4304 -0.4902 0.4183
            ]
        }
        coordIndex [
            0,1,2,-1,1,3,4,-1,4,5,1,-1,1,5,6,-1,1,6,2,-1,0,2,7,-1,7,2,8,-1,7,8,9,-1,10,11,12,-1,10,12,13,-1,14,12,15,-1,15,12,16,-1,8,17,9,-1,9,17,18,-1,9,18,19,-1,19,18,20,-1,19,20,12,-1,12,20,21,-1,12,21,13,-1,11,22,12,-1,12,22,23,-1,12,23,16,-1,
        ]
    }
}
Shape{
    appearance Appearance {
        material  Material 	{
            diffuseColor 1.0 1.0 1.0
            specularColor 0.5019607843137255 0.5019607843137255 0.5019607843137255
            ambientIntensity 1.0
            transparency 0.0
            shininess 0.5
        }
    }
    geometry IndexedFaceSet {
        ccw TRUE
        solid FALSE
        coord DEF co Coordinate {
            point [
                -2.3952 -0.4902 0.4226, -2.3952 -0.4941 0.4226, -2.3923 -0.4941 0.4207, -2.3815 -0.4941 0.418, -2.3815 -0.4902 0.418, -2.387 -0.4902 0.4187, -2.387 -0.4941 0.4187, -2.3914 -0.4902 0.4204, -2.3923 -0.4902 0.4207, -2.3952 -0.4941 0.4139, -2.3952 -0.4902 0.4139, -2.3914 -0.4902 0.4126, -2.3897 -0.4941 0.412, -2.3823 -0.4902 0.4111, -2.3823 -0.4941 0.4111, -2.3874 -0.4902 0.4117, -2.3897 -0.4902 0.412, -2.3769 -0.4902 0.4117, -2.3755 -0.4941 0.4119, -2.3755 -0.4902 0.4119, -2.3709 -0.4902 0.4134, -2.3709 -0.4941 0.4134, -2.3684 -0.4902 0.4149, -2.3684 -0.4941 0.4149, -2.366 -0.4902 0.417, -2.366 -0.4941 0.417, -2.3645 -0.4902 0.4192, -2.3645 -0.4941 0.4192, -2.3634 -0.4902 0.4219, -2.3634 -0.4941 0.4219, -2.363 -0.4902 0.4252, -2.363 -0.4941 0.4252, -2.3634 -0.4902 0.4283, -2.3634 -0.4941 0.4283, -2.3643 -0.4902 0.4308, -2.3643 -0.4941 0.4308, -2.3658 -0.4902 0.4331, -2.3658 -0.4941 0.4331, -2.3678 -0.4902 0.4349, -2.3678 -0.4941 0.4349, -2.3734 -0.4902 0.438, -2.3734 -0.4941 0.438, -2.3766 -0.4902 0.4393, -2.3766 -0.4941 0.4393, -2.3818 -0.4902 0.4415, -2.3818 -0.4941 0.4415, -2.3847 -0.4902 0.4434, -2.3847 -0.4941 0.4434, -2.3855 -0.4902 0.4443, -2.3855 -0.4941 0.4443, -2.3862 -0.4902 0.4454, -2.3862 -0.4941 0.4454, -2.3865 -0.4902 0.4467, -2.3865 -0.4941 0.4467, -2.3866 -0.4902 0.4478, -2.3866 -0.4941 0.4478, -2.3864 -0.4902 0.4491, -2.3864 -0.4941 0.4491, -2.386 -0.4902 0.4503, -2.386 -0.4941 0.4503, -2.3853 -0.4902 0.4513, -2.3853 -0.4941 0.4513, -2.384 -0.4902 0.4525, -2.384 -0.4941 0.4525, -2.3821 -0.4902 0.4535, -2.3821 -0.4941 0.4535, -2.3799 -0.4902 0.454, -2.3799 -0.4941 0.454, -2.3774 -0.4902 0.4542, -2.3774 -0.4941 0.4542, -2.3717 -0.4902 0.4535, -2.3717 -0.4941 0.4535, -2.3669 -0.4902 0.4517, -2.3669 -0.4941 0.4517, -2.3653 -0.4902 0.4508, -2.3653 -0.4941 0.4508, -2.3653 -0.4941 0.4589, -2.3653 -0.4902 0.4589, -2.3712 -0.4902 0.4606, -2.3712 -0.4941 0.4606, -2.3766 -0.4902 0.461, -2.3766 -0.4941 0.461, -2.3829 -0.4902 0.4603, -2.3829 -0.4941 0.4603, -2.3875 -0.4902 0.4586, -2.3875 -0.4941 0.4586, -2.3898 -0.4902 0.4572, -2.3898 -0.4941 0.4572, -2.3914 -0.4902 0.4558, -2.3923 -0.4941 0.455, -2.3923 -0.4902 0.455, -2.3938 -0.4902 0.4527, -2.3938 -0.4941 0.4527, -2.3948 -0.4902 0.4501, -2.3948 -0.4941 0.4501, -2.3952 -0.4902 0.4471, -2.3952 -0.4941 0.4471, -2.3948 -0.4902 0.4438, -2.3948 -0.4941 0.4438, -2.3939 -0.4902 0.4413, -2.3939 -0.4941 0.4413, -2.3928 -0.4902 0.4395, -2.3928 -0.4941 0.4395, -2.3825 -0.4902 0.4332, -2.3825 -0.4941 0.4332, -2.3875 -0.4941 0.4355, -2.3914 -0.4902 0.4381, -2.3914 -0.4941 0.4381, -2.3914 -0.4902 0.438, -2.3875 -0.4902 0.4355, -2.377 -0.4902 0.4309, -2.377 -0.4941 0.4309, -2.3738 -0.4902 0.429, -2.3738 -0.4941 0.429, -2.3727 -0.4902 0.4279, -2.3727 -0.4941 0.4279, -2.3721 -0.4902 0.4268, -2.3721 -0.4941 0.4268, -2.3717 -0.4902 0.4255, -2.3717 -0.4941 0.4255, -2.3716 -0.4902 0.4244, -2.3716 -0.4941 0.4244, -2.3718 -0.4902 0.4228, -2.3718 -0.4941 0.4228, -2.3722 -0.4902 0.4216, -2.3722 -0.4941 0.4216, -2.3729 -0.4902 0.4206, -2.3729 -0.4941 0.4206, -2.3739 -0.4902 0.4197, -2.3739 -0.4941 0.4197, -2.3747 -0.4902 0.4192, -2.3747 -0.4941 0.4192, -2.3768 -0.4902 0.4184, -2.3768 -0.4941 0.4184, -2.3811 -0.4902 0.418, -2.3811 -0.4941 0.418, -2.3216 -0.4941 0.4599, -2.3129 -0.4941 0.4599, -2.3216 -0.4902 0.4599, -2.3129 -0.4902 0.4599, -2.3346 -0.4941 0.424, -2.3346 -0.4902 0.424, -2.3353 -0.4902 0.4218, -2.3353 -0.4941 0.4218, -2.3356 -0.4902 0.4202, -2.3356 -0.4941 0.4202, -2.3359 -0.4941 0.4202, -2.3359 -0.4902 0.4202, -2.3369 -0.4941 0.4241, -2.3369 -0.4902 0.4241, -2.3493 -0.4902 0.4599, -2.3493 -0.4941 0.4599, -2.3453 -0.4902 0.4483, -2.3587 -0.4941 0.4599, -2.3587 -0.4902 0.4599, -2.34 -0.4902 0.4124, -2.34 -0.4941 0.4124, -2.3453 -0.4902 0.4259, -2.3437 -0.4902 0.4037, -2.3437 -0.4941 0.4037, -2.3403 -0.4902 0.4117, -2.3453 -0.4902 0.4007, -2.3453 -0.4902 0.4007, -2.3469 -0.4941 0.399, -2.3453 -0.4941 0.4007, -2.3469 -0.4902 0.399, -2.3484 -0.4902 0.3979, -2.3484 -0.4941 0.3979, -2.3502 -0.4902 0.3972, -2.3502 -0.4941 0.3972, -2.3522 -0.4902 0.397, -2.3522 -0.4941 0.397, -2.3553 -0.4902 0.3974, -2.3553 -0.4941 0.3974, -2.357 -0.4902 0.3979, -2.357 -0.4941 0.3979, -2.357 -0.4941 0.3905, -2.357 -0.4902 0.3905, -2.3534 -0.4902 0.3899, -2.3534 -0.4941 0.3899, -2.3516 -0.4902 0.3898, -2.3516 -0.4941 0.3898, -2.3482 -0.4902 0.3902, -2.3482 -0.4941 0.3902, -2.3453 -0.4902 0.3913, -2.3449 -0.4941 0.3915, -2.3449 -0.4902 0.3915, -2.342 -0.4902 0.3935, -2.342 -0.4941 0.3935, -2.3414 -0.4902 0.394, -2.3414 -0.4941 0.394, -2.3384 -0.4902 0.3977, -2.3384 -0.4941 0.3977, -2.3346 -0.4902 0.4051, -2.3346 -0.4941 0.4051, -2.332 -0.4902 0.4117, -2.2681 -0.4941 0.4199, -2.2681 -0.4941 0.4123, -2.2681 -0.4902 0.4199, -2.2681 -0.4902 0.4123, -2.2953 -0.4902 0.4199, -2.2953 -0.4941 0.4199, -2.2828 -0.4902 0.4199, -2.2953 -0.4941 0.4423, -2.2953 -0.4902 0.4423, -2.2715 -0.4941 0.4423, -2.2828 -0.4902 0.4423, -2.2715 -0.4902 0.4423, -2.2715 -0.4941 0.45, -2.2715 -0.4902 0.45, -2.2953 -0.4902 0.45, -2.2953 -0.4941 0.45, -2.2828 -0.4902 0.45, -2.2953 -0.4941 0.4713, -2.2953 -0.4902 0.4713, -2.2696 -0.4902 0.4713, -2.2696 -0.4941 0.4713, -2.2828 -0.4902 0.4713, -2.2696 -0.4941 0.479, -2.2696 -0.4902 0.479, -2.3039 -0.4902 0.479, -2.3039 -0.4941 0.479, -2.2828 -0.4902 0.479, -2.3039 -0.4941 0.4123, -2.3039 -0.4902 0.4123, -2.2828 -0.4902 0.4123, -2.2139 -0.4941 0.4311, -2.2173 -0.4941 0.4268, -2.2112 -0.4941 0.4216, -2.2181 -0.4941 0.4261, -2.2182 -0.4941 0.4166, -2.2225 -0.4941 0.4231, -2.2258 -0.4941 0.4136, -2.228 -0.4941 0.421, -2.2371 -0.4941 0.4123, -2.2371 -0.4941 0.4199, -2.2554 -0.4941 0.4123, -2.2468 -0.4941 0.4199, -2.2554 -0.4941 0.479, -2.2468 -0.4941 0.4713, -2.2364 -0.4941 0.479, -2.2368 -0.4941 0.4713, -2.2262 -0.4941 0.4779, -2.228 -0.4941 0.4703, -2.2182 -0.4941 0.4749, -2.2223 -0.4941 0.4682, -2.2112 -0.4941 0.4702, -2.2175 -0.4941 0.465, -2.2088 -0.4941 0.4678, -2.2151 -0.4941 0.4625, -2.2047 -0.4941 0.462, -2.2126 -0.4941 0.4586, -2.2022 -0.4941 0.4556, -2.2109 -0.4941 0.4534, -2.2011 -0.4941 0.4465, -2.2102 -0.4941 0.4462, -2.2015 -0.4941 0.4411, -2.2104 -0.4941 0.4422, -2.2033 -0.4941 0.4334, -2.2116 -0.4941 0.4361, -2.2068 -0.4941 0.4267, -2.2371 -0.4902 0.4123, -2.2554 -0.4902 0.4123, -2.2258 -0.4902 0.4136, -2.2182 -0.4902 0.4166, -2.2112 -0.4902 0.4216, -2.2068 -0.4902 0.4267, -2.2033 -0.4902 0.4334, -2.2015 -0.4902 0.4411, -2.2011 -0.4902 0.4465, -2.2022 -0.4902 0.4556, -2.2047 -0.4902 0.462, -2.2088 -0.4902 0.4678, -2.2112 -0.4902 0.4702, -2.2182 -0.4902 0.4749, -2.2262 -0.4902 0.4779, -2.2364 -0.4902 0.479, -2.2554 -0.4902 0.479, -2.2368 -0.4902 0.4713, -2.2468 -0.4902 0.4713, -2.2468 -0.4902 0.4199, -2.2371 -0.4902 0.4199, -2.2173 -0.4902 0.4268, -2.2181 -0.4902 0.4261, -2.2225 -0.4902 0.4231, -2.228 -0.4902 0.421, -2.2102 -0.4902 0.4462, -2.2104 -0.4902 0.4422, -2.2116 -0.4902 0.4361, -2.2139 -0.4902 0.4311, -2.2175 -0.4902 0.465, -2.2151 -0.4902 0.4625, -2.2126 -0.4902 0.4586, -2.2109 -0.4902 0.4534, -2.228 -0.4902 0.4703, -2.2223 -0.4902 0.4682
            ]
        }
        coordIndex [
            0,1,2,-1,3,4,5,-1,3,5,6,-1,6,5,7,-1,6,7,2,-1,2,7,8,-1,2,8,0,-1,9,1,10,-1,10,1,0,-1,10,11,9,-1,9,11,12,-1,13,14,15,-1,15,14,12,-1,15,12,16,-1,16,12,11,-1,13,17,14,-1,14,17,18,-1,17,19,18,-1,18,19,20,-1,18,20,21,-1,21,20,22,-1,21,22,23,-1,23,22,24,-1,23,24,25,-1,25,24,26,-1,25,26,27,-1,27,26,28,-1,27,28,29,-1,29,28,30,-1,29,30,31,-1,31,30,32,-1,31,32,33,-1,33,32,34,-1,33,34,35,-1,35,34,36,-1,35,36,37,-1,37,36,38,-1,37,38,39,-1,39,38,40,-1,39,40,41,-1,41,40,42,-1,41,42,43,-1,43,42,44,-1,43,44,45,-1,45,44,46,-1,45,46,47,-1,47,46,48,-1,47,48,49,-1,49,48,50,-1,49,50,51,-1,51,50,52,-1,51,52,53,-1,53,52,54,-1,53,54,55,-1,55,54,56,-1,55,56,57,-1,57,56,58,-1,57,58,59,-1,59,58,60,-1,59,60,61,-1,61,60,62,-1,61,62,63,-1,63,62,64,-1,63,64,65,-1,65,64,66,-1,65,66,67,-1,67,66,68,-1,67,68,69,-1,69,68,70,-1,69,70,71,-1,71,70,72,-1,71,72,73,-1,73,72,74,-1,73,74,75,-1,76,75,77,-1,77,75,74,-1,76,77,78,-1,76,78,79,-1,79,78,80,-1,79,80,81,-1,81,80,82,-1,81,82,83,-1,83,82,84,-1,83,84,85,-1,85,84,86,-1,85,86,87,-1,86,88,87,-1,87,88,89,-1,88,90,89,-1,89,90,91,-1,89,91,92,-1,92,91,93,-1,92,93,94,-1,94,93,95,-1,94,95,96,-1,96,95,97,-1,96,97,98,-1,98,97,99,-1,98,99,100,-1,100,99,101,-1,100,101,102,-1,103,104,105,-1,102,101,106,-1,102,106,107,-1,107,106,108,-1,107,108,105,-1,105,108,109,-1,105,109,103,-1,104,103,110,-1,104,110,111,-1,111,110,112,-1,111,112,113,-1,113,112,114,-1,113,114,115,-1,115,114,116,-1,115,116,117,-1,117,116,118,-1,117,118,119,-1,119,118,120,-1,119,120,121,-1,121,120,122,-1,121,122,123,-1,123,122,124,-1,123,124,125,-1,125,124,126,-1,125,126,127,-1,127,126,128,-1,127,128,129,-1,129,128,130,-1,129,130,131,-1,131,130,132,-1,131,132,133,-1,133,132,134,-1,133,134,135,-1,135,134,4,-1,135,4,3,-1,61,63,85,-1,85,63,83,-1,111,43,104,-1,104,43,45,-1,21,23,127,-1,127,23,25,-1,127,25,125,-1,125,25,27,-1,125,27,123,-1,123,27,29,-1,123,29,121,-1,121,29,31,-1,121,31,119,-1,119,31,33,-1,119,33,117,-1,117,33,35,-1,117,35,115,-1,115,35,37,-1,115,37,113,-1,113,37,39,-1,113,39,111,-1,111,39,41,-1,111,41,43,-1,14,3,12,-1,12,3,6,-1,12,6,9,-1,9,6,2,-1,9,2,1,-1,63,65,83,-1,83,65,67,-1,83,67,81,-1,81,67,69,-1,81,69,79,-1,79,69,71,-1,79,71,76,-1,76,71,73,-1,76,73,75,-1,127,129,21,-1,21,129,131,-1,21,131,18,-1,18,131,133,-1,18,133,14,-1,14,133,135,-1,14,135,3,-1,85,87,61,-1,61,87,89,-1,61,89,59,-1,59,89,92,-1,59,92,57,-1,57,92,94,-1,57,94,55,-1,55,94,96,-1,55,96,53,-1,53,96,98,-1,53,98,51,-1,51,98,100,-1,51,100,49,-1,49,100,102,-1,49,102,47,-1,47,102,107,-1,47,107,45,-1,45,107,105,-1,45,105,104,-1,136,137,138,-1,138,137,139,-1,140,136,141,-1,141,136,138,-1,140,141,142,-1,140,142,143,-1,143,142,144,-1,143,144,145,-1,146,145,147,-1,147,145,144,-1,148,146,149,-1,149,146,147,-1,150,151,152,-1,152,151,148,-1,152,148,149,-1,153,151,154,-1,154,151,150,-1,155,156,157,-1,157,156,153,-1,157,153,154,-1,158,159,160,-1,160,159,156,-1,160,156,155,-1,159,158,161,-1,162,163,161,-1,161,163,164,-1,161,164,159,-1,162,165,163,-1,163,165,166,-1,163,166,167,-1,167,166,168,-1,167,168,169,-1,169,168,170,-1,169,170,171,-1,171,170,172,-1,171,172,173,-1,173,172,174,-1,173,174,175,-1,176,175,177,-1,177,175,174,-1,176,177,178,-1,176,178,179,-1,179,178,180,-1,179,180,181,-1,181,180,182,-1,181,182,183,-1,183,182,184,-1,183,184,185,-1,184,186,185,-1,185,186,187,-1,185,187,188,-1,188,187,189,-1,188,189,190,-1,190,189,191,-1,190,191,192,-1,192,191,193,-1,192,193,194,-1,139,137,195,-1,195,137,194,-1,195,194,193,-1,143,145,194,-1,137,136,194,-1,194,136,140,-1,194,140,143,-1,151,153,148,-1,148,153,156,-1,148,156,146,-1,192,164,190,-1,190,164,163,-1,175,176,173,-1,173,176,179,-1,173,179,171,-1,171,179,181,-1,171,181,169,-1,169,181,183,-1,169,183,167,-1,167,183,185,-1,167,185,163,-1,163,185,188,-1,163,188,190,-1,145,146,194,-1,194,146,156,-1,194,156,192,-1,192,156,159,-1,192,159,164,-1,196,197,198,-1,198,197,199,-1,200,201,202,-1,202,201,196,-1,202,196,198,-1,203,201,204,-1,204,201,200,-1,203,204,205,-1,205,204,206,-1,205,206,207,-1,208,205,209,-1,209,205,207,-1,210,211,212,-1,212,211,208,-1,212,208,209,-1,213,211,214,-1,214,211,210,-1,215,216,217,-1,217,216,213,-1,217,213,214,-1,218,216,219,-1,219,216,215,-1,220,221,222,-1,222,221,218,-1,222,218,219,-1,223,221,224,-1,224,221,220,-1,199,197,225,-1,225,197,223,-1,225,223,224,-1,223,197,196,-1,196,201,223,-1,223,201,203,-1,223,203,221,-1,216,218,213,-1,213,218,221,-1,213,221,211,-1,211,221,203,-1,211,203,208,-1,208,203,205,-1,226,227,228,-1,228,227,229,-1,228,229,230,-1,230,229,231,-1,230,231,232,-1,232,231,233,-1,232,233,234,-1,234,233,235,-1,234,235,236,-1,236,235,237,-1,236,237,238,-1,238,237,239,-1,238,239,240,-1,240,239,241,-1,240,241,242,-1,242,241,243,-1,242,243,244,-1,244,243,245,-1,244,245,246,-1,246,245,247,-1,246,247,248,-1,248,247,249,-1,248,249,250,-1,250,249,251,-1,250,251,252,-1,252,251,253,-1,252,253,254,-1,254,253,255,-1,254,255,256,-1,256,255,257,-1,256,257,258,-1,258,257,259,-1,258,259,260,-1,260,259,226,-1,260,226,228,-1,234,236,261,-1,261,236,262,-1,234,261,263,-1,234,263,232,-1,232,263,264,-1,232,264,230,-1,230,264,265,-1,230,265,228,-1,228,265,266,-1,228,266,260,-1,260,266,267,-1,260,267,258,-1,258,267,268,-1,258,268,256,-1,256,268,269,-1,256,269,254,-1,254,269,270,-1,254,270,252,-1,252,270,271,-1,252,271,250,-1,250,271,272,-1,250,272,248,-1,248,272,273,-1,248,273,246,-1,246,273,274,-1,246,274,244,-1,244,274,275,-1,244,275,242,-1,242,275,276,-1,242,276,240,-1,238,240,277,-1,277,240,276,-1,236,238,262,-1,262,238,277,-1,241,239,278,-1,278,239,279,-1,239,237,279,-1,279,237,280,-1,237,235,280,-1,280,235,281,-1,227,282,283,-1,227,283,229,-1,229,283,284,-1,229,284,231,-1,231,284,285,-1,231,285,233,-1,233,285,281,-1,233,281,235,-1,255,286,287,-1,255,287,257,-1,257,287,288,-1,257,288,259,-1,259,288,289,-1,259,289,226,-1,226,289,282,-1,226,282,227,-1,247,290,291,-1,247,291,249,-1,249,291,292,-1,249,292,251,-1,251,292,293,-1,251,293,253,-1,253,293,286,-1,253,286,255,-1,241,278,294,-1,241,294,243,-1,243,294,295,-1,243,295,245,-1,245,295,290,-1,245,290,247,-1,
        ]
    }
}
Shape{
    appearance Appearance {
        material  Material 	{
            diffuseColor 0.25098039215686274 0.25098039215686274 0.25098039215686274
            specularColor 0.12549019607843137 0.12549019607843137 0.12549019607843137
            ambientIntensity 0.251
            transparency 0.0
            shininess 0.5
        }
    }
    geometry IndexedFaceSet {
        ccw TRUE
        solid FALSE
        coord DEF co Coordinate {
            point [
                -2.2468 -0.4902 0.4713, -2.2468 -0.4902 0.4199, -2.2368 -0.4902 0.4713, -2.2371 -0.4902 0.4199, -2.2181 -0.4902 0.4261, -2.2173 -0.4902 0.4268, -2.228 -0.4902 0.421, -2.2225 -0.4902 0.4231, -2.2104 -0.4902 0.4422, -2.2102 -0.4902 0.4462, -2.2139 -0.4902 0.4311, -2.2116 -0.4902 0.4361, -2.2109 -0.4902 0.4534, -2.2126 -0.4902 0.4586, -2.2151 -0.4902 0.4625, -2.2175 -0.4902 0.465, -2.2223 -0.4902 0.4682, -2.228 -0.4902 0.4703
            ]
        }
        coordIndex [
            0,1,2,-1,2,1,3,-1,2,4,5,-1,3,6,2,-1,2,6,7,-1,2,7,4,-1,8,9,2,-1,5,10,2,-1,2,10,11,-1,2,11,8,-1,9,12,2,-1,2,12,13,-1,2,13,14,-1,14,15,2,-1,2,15,16,-1,2,16,17,-1,
        ]
    }
}
Shape{
    appearance Appearance {
        material  Material 	{
            diffuseColor 1.0 1.0 1.0
            specularColor 0.5019607843137255 0.5019607843137255 0.5019607843137255
            ambientIntensity 1.0
            transparency 0.0
            shininess 0.5
        }
    }
    geometry IndexedFaceSet {
        ccw TRUE
        solid FALSE
        coord DEF co Coordinate {
            point [
                -2.1788 -0.4941 0.4381, -2.1815 -0.4941 0.4305, -2.1564 -0.4941 0.4381, -2.1537 -0.4941 0.4305, -2.1688 -0.4941 0.4658, -2.172 -0.4941 0.479, -2.1974 -0.4941 0.4123, -2.1879 -0.4941 0.4123, -2.1682 -0.4941 0.4678, -2.1677 -0.4941 0.4705, -2.1628 -0.4941 0.479, -2.1675 -0.4941 0.4705, -2.1669 -0.4941 0.4676, -2.1664 -0.4941 0.4658, -2.1374 -0.4941 0.4123, -2.1469 -0.4941 0.4123, -2.1628 -0.4902 0.479, -2.1374 -0.4902 0.4123, -2.172 -0.4902 0.479, -2.1974 -0.4902 0.4123, -2.1879 -0.4902 0.4123, -2.1815 -0.4902 0.4305, -2.1537 -0.4902 0.4305, -2.1469 -0.4902 0.4123, -2.1788 -0.4902 0.4381, -2.1564 -0.4902 0.4381, -2.1664 -0.4902 0.4658, -2.1675 -0.4902 0.4705, -2.1669 -0.4902 0.4676, -2.1677 -0.4902 0.4705, -2.1688 -0.4902 0.4658, -2.1682 -0.4902 0.4678
            ]
        }
        coordIndex [
            0,1,2,-1,2,1,3,-1,4,5,0,-1,0,5,6,-1,0,6,1,-1,1,6,7,-1,4,8,5,-1,5,8,9,-1,5,9,10,-1,10,9,11,-1,10,11,12,-1,12,13,10,-1,10,13,2,-1,10,2,14,-1,14,2,3,-1,14,3,15,-1,10,14,16,-1,16,14,17,-1,5,10,18,-1,18,10,16,-1,6,5,19,-1,19,5,18,-1,7,6,20,-1,20,6,19,-1,1,7,21,-1,21,7,20,-1,3,1,22,-1,22,1,21,-1,15,3,23,-1,23,3,22,-1,14,15,17,-1,17,15,23,-1,0,2,24,-1,24,2,25,-1,2,13,25,-1,25,13,26,-1,11,27,28,-1,11,28,12,-1,12,28,26,-1,12,26,13,-1,11,9,27,-1,27,9,29,-1,4,30,31,-1,4,31,8,-1,8,31,29,-1,8,29,9,-1,4,0,30,-1,30,0,24,-1,
        ]
    }
}
Shape{
    appearance Appearance {
        material  Material 	{
            diffuseColor 0.25098039215686274 0.25098039215686274 0.25098039215686274
            specularColor 0.12549019607843137 0.12549019607843137 0.12549019607843137
            ambientIntensity 0.251
            transparency 0.0
            shininess 0.5
        }
    }
    geometry IndexedFaceSet {
        ccw TRUE
        solid FALSE
        coord DEF co Coordinate {
            point [
                -2.1675 -0.4902 0.4705, -2.1677 -0.4902 0.4705, -2.1669 -0.4902 0.4676, -2.1682 -0.4902 0.4678, -2.1664 -0.4902 0.4658, -2.1688 -0.4902 0.4658, -2.1564 -0.4902 0.4381, -2.1788 -0.4902 0.4381
            ]
        }
        coordIndex [
            0,1,2,-1,2,1,3,-1,2,3,4,-1,4,3,5,-1,4,5,6,-1,6,5,7,-1,
        ]
    }
}
Shape{
    appearance Appearance {
        material  Material 	{
            diffuseColor 1.0 1.0 1.0
            specularColor 0.5019607843137255 0.5019607843137255 0.5019607843137255
            ambientIntensity 1.0
            transparency 0.0
            shininess 0.5
        }
    }
    geometry IndexedFaceSet {
        ccw TRUE
        solid FALSE
        coord DEF co Coordinate {
            point [
                -2.796 -0.4941 0.5272, -2.7854 -0.4941 0.5328, -2.7879 -0.4941 0.562, -2.7043 -0.4941 0.4009, -2.6987 -0.4941 0.4115, -2.6959 -0.4941 0.4232, -2.7583 -0.4941 0.5634, -2.7436 -0.4941 0.5287, -2.7363 -0.4941 0.5438, -2.7611 -0.4941 0.4219, -2.762 -0.4941 0.4263, -2.7877 -0.4941 0.4448, -2.7882 -0.4941 0.413, -2.7942 -0.4941 0.4148, -2.798 -0.4941 0.4511, -2.7692 -0.4941 0.5643, -2.6292 -0.4941 0.468, -2.6439 -0.4941 0.4932, -2.6957 -0.4941 0.4329, -2.7075 -0.4941 0.46, -2.6957 -0.4941 0.4282, -2.721 -0.4941 0.3862, -2.7116 -0.4941 0.3928, -2.7593 -0.4941 0.4179, -2.7763 -0.4941 0.3941, -2.7834 -0.4941 0.4028, -2.6136 -0.4941 0.515, -2.6098 -0.4941 0.515, -2.5903 -0.4941 0.5406, -2.6008 -0.4941 0.5139, -2.588 -0.4941 0.5398, -2.5925 -0.4941 0.5107, -2.5739 -0.4941 0.5328, -2.561 -0.4941 0.5219, -2.7486 -0.4941 0.5747, -2.7257 -0.4941 0.5565, -2.7374 -0.4941 0.5842, -2.713 -0.4941 0.5657, -2.7256 -0.4941 0.5916, -2.7737 -0.4941 0.5356, -2.7687 -0.4941 0.5359, -2.7637 -0.4941 0.564, -2.7575 -0.4941 0.5345, -2.7469 -0.4941 0.5306, -2.7285 -0.4941 0.4169, -2.7311 -0.4941 0.414, -2.7347 -0.4941 0.4114, -2.7316 -0.4941 0.3821, -2.7388 -0.4941 0.4098, -2.7431 -0.4941 0.3807, -2.7436 -0.4941 0.4092, -2.7449 -0.4941 0.3808, -2.7444 -0.4941 0.4092, -2.7561 -0.4941 0.3825, -2.7486 -0.4941 0.4099, -2.7671 -0.4941 0.3871, -2.7529 -0.4941 0.4117, -2.7566 -0.4941 0.4145, -2.7263 -0.4941 0.4343, -2.7252 -0.4941 0.4299, -2.7252 -0.4941 0.4256, -2.7263 -0.4941 0.421, -2.5609 -0.4941 0.4334, -2.583 -0.4941 0.4522, -2.5738 -0.4941 0.4225, -2.59 -0.4941 0.4465, -2.5883 -0.4941 0.4154, -2.5984 -0.4941 0.4426, -2.6041 -0.4941 0.412, -2.6069 -0.4941 0.441, -2.6321 -0.4941 0.412, -2.6283 -0.4941 0.441, -2.6348 -0.4941 0.4125, -2.7618 -0.4941 0.431, -2.7604 -0.4941 0.4354, -2.7825 -0.4941 0.455, -2.7579 -0.4941 0.4393, -2.7746 -0.4941 0.4639, -2.7561 -0.4941 0.4413, -2.7649 -0.4941 0.4707, -2.7524 -0.4941 0.444, -2.7544 -0.4941 0.4747, -2.7482 -0.4941 0.4456, -2.7431 -0.4941 0.4761, -2.7436 -0.4941 0.4462, -2.7373 -0.4941 0.4757, -2.7396 -0.4941 0.4458, -2.7259 -0.4941 0.4729, -2.7352 -0.4941 0.4442, -2.7158 -0.4941 0.4675, -2.7314 -0.4941 0.4416, -2.7283 -0.4941 0.4382, -2.5851 -0.4941 0.5055, -2.5797 -0.4941 0.4995, -2.5513 -0.4941 0.5084, -2.5753 -0.4941 0.4913, -2.5455 -0.4941 0.494, -2.573 -0.4941 0.4822, -2.5434 -0.4941 0.4785, -2.5728 -0.4941 0.478, -2.5455 -0.4941 0.4615, -2.5739 -0.4941 0.4687, -2.5515 -0.4941 0.4465, -2.5772 -0.4941 0.4603, -2.5824 -0.4941 0.4529, -2.616 -0.4941 0.5781, -2.6345 -0.4941 0.5563, -2.6002 -0.4941 0.5598, -2.6238 -0.4941 0.5435, -2.6165 -0.4941 0.5282, -2.8147 -0.4941 0.4999, -2.8459 -0.4941 0.492, -2.8162 -0.4941 0.4884, -2.846 -0.4941 0.4875, -2.8156 -0.4941 0.4811, -2.8437 -0.4941 0.4689, -2.8122 -0.4941 0.4695, -2.8369 -0.4941 0.4512, -2.8065 -0.4941 0.4599, -2.8261 -0.4941 0.4358, -2.8113 -0.4941 0.4231, -2.7037 -0.4941 0.5999, -2.6975 -0.4941 0.572, -2.6805 -0.4941 0.6027, -2.68 -0.4941 0.5743, -2.6599 -0.4941 0.6005, -2.6639 -0.4941 0.5723, -2.6362 -0.4941 0.5918, -2.649 -0.4941 0.5666, -2.6357 -0.4941 0.5573, -2.8055 -0.4941 0.5552, -2.8205 -0.4941 0.5446, -2.8041 -0.4941 0.5199, -2.8237 -0.4941 0.5416, -2.8107 -0.4941 0.5105, -2.8352 -0.4941 0.5269, -2.8427 -0.4941 0.5098, -2.6307 -0.4941 0.4414, -2.6421 -0.4941 0.417, -2.641 -0.4941 0.4159, -2.6293 -0.4941 0.4411, -2.6379 -0.4941 0.4137, -2.6458 -0.4941 0.4267, -2.6454 -0.4941 0.4232, -2.6441 -0.4941 0.42, -2.6348 -0.4941 0.441, -2.6381 -0.4941 0.4397, -2.6457 -0.4941 0.4286, -2.641 -0.4941 0.4376, -2.6429 -0.4941 0.4355, -2.6448 -0.4941 0.4322, -2.6311 -0.4941 0.4415, -2.5579 -0.4902 0.5176, -2.5513 -0.4902 0.5084, -2.5472 -0.4902 0.498, -2.5455 -0.4902 0.494, -2.5434 -0.4902 0.4785, -2.561 -0.4902 0.5219, -2.5739 -0.4902 0.5328, -2.588 -0.4902 0.5398, -2.5903 -0.4902 0.5406, -2.6002 -0.4902 0.5598, -2.616 -0.4902 0.5781, -2.6267 -0.4902 0.5854, -2.6362 -0.4902 0.5918, -2.6599 -0.4902 0.6005, -2.6805 -0.4902 0.6027, -2.7374 -0.4902 0.5842, -2.7355 -0.4902 0.5854, -2.7256 -0.4902 0.5916, -2.7037 -0.4902 0.5999, -2.7486 -0.4902 0.5747, -2.7583 -0.4902 0.5634, -2.7637 -0.4902 0.564, -2.7692 -0.4902 0.5643, -2.7879 -0.4902 0.562, -2.8055 -0.4902 0.5552, -2.8205 -0.4902 0.5446, -2.8237 -0.4902 0.5416, -2.8352 -0.4902 0.5269, -2.8393 -0.4902 0.5176, -2.8427 -0.4902 0.5098, -2.8448 -0.4902 0.498, -2.8459 -0.4902 0.492, -2.846 -0.4902 0.4875, -2.8437 -0.4902 0.4689, -2.8369 -0.4902 0.4512, -2.8261 -0.4902 0.4358, -2.8113 -0.4902 0.4231, -2.7942 -0.4902 0.4148, -2.7882 -0.4902 0.413, -2.7876 -0.4902 0.4117, -2.7834 -0.4902 0.4028, -2.7763 -0.4902 0.3941, -2.7671 -0.4902 0.3871, -2.7627 -0.4902 0.3853, -2.7561 -0.4902 0.3825, -2.7449 -0.4902 0.3808, -2.7431 -0.4902 0.3807, -2.6957 -0.4902 0.4282, -2.7316 -0.4902 0.3821, -2.7235 -0.4902 0.3853, -2.721 -0.4902 0.3862, -2.7116 -0.4902 0.3928, -2.7043 -0.4902 0.4009, -2.6987 -0.4902 0.4115, -2.6987 -0.4902 0.4117, -2.6959 -0.4902 0.4232, -2.6957 -0.4902 0.4329, -2.6292 -0.4902 0.468, -2.6439 -0.4902 0.4932, -2.7075 -0.4902 0.46, -2.7158 -0.4902 0.4675, -2.7259 -0.4902 0.4729, -2.7373 -0.4902 0.4757, -2.7431 -0.4902 0.4761, -2.7544 -0.4902 0.4747, -2.7649 -0.4902 0.4707, -2.7746 -0.4902 0.4639, -2.7825 -0.4902 0.455, -2.7877 -0.4902 0.4448, -2.798 -0.4902 0.4511, -2.8065 -0.4902 0.4599, -2.8122 -0.4902 0.4695, -2.8156 -0.4902 0.4811, -2.8162 -0.4902 0.4884, -2.815 -0.4902 0.498, -2.8147 -0.4902 0.4999, -2.8107 -0.4902 0.5105, -2.8058 -0.4902 0.5176, -2.8041 -0.4902 0.5199, -2.796 -0.4902 0.5272, -2.7854 -0.4902 0.5328, -2.7737 -0.4902 0.5356, -2.7687 -0.4902 0.5359, -2.7575 -0.4902 0.5345, -2.7469 -0.4902 0.5306, -2.7436 -0.4902 0.5287, -2.7363 -0.4902 0.5438, -2.7257 -0.4902 0.5565, -2.713 -0.4902 0.5657, -2.6975 -0.4902 0.572, -2.68 -0.4902 0.5743, -2.6639 -0.4902 0.5723, -2.649 -0.4902 0.5666, -2.6357 -0.4902 0.5573, -2.6345 -0.4902 0.5563, -2.6238 -0.4902 0.5435, -2.6165 -0.4902 0.5282, -2.6142 -0.4902 0.5176, -2.6136 -0.4902 0.515, -2.6098 -0.4902 0.515, -2.6008 -0.4902 0.5139, -2.5925 -0.4902 0.5107, -2.5851 -0.4902 0.5055, -2.5797 -0.4902 0.4995, -2.5789 -0.4902 0.498, -2.5753 -0.4902 0.4913, -2.573 -0.4902 0.4822, -2.5728 -0.4902 0.478, -2.5739 -0.4902 0.4687, -2.5772 -0.4902 0.4603, -2.5824 -0.4902 0.4529, -2.583 -0.4902 0.4522, -2.59 -0.4902 0.4465, -2.5984 -0.4902 0.4426, -2.6069 -0.4902 0.441, -2.6283 -0.4902 0.441, -2.6293 -0.4902 0.4411, -2.6307 -0.4902 0.4414, -2.6311 -0.4902 0.4415, -2.6348 -0.4902 0.441, -2.6381 -0.4902 0.4397, -2.641 -0.4902 0.4376, -2.6429 -0.4902 0.4355, -2.6448 -0.4902 0.4322, -2.6457 -0.4902 0.4286, -2.6458 -0.4902 0.4267, -2.6454 -0.4902 0.4232, -2.6441 -0.4902 0.42, -2.6421 -0.4902 0.417, -2.641 -0.4902 0.4159, -2.6379 -0.4902 0.4137, -2.6348 -0.4902 0.4125, -2.6321 -0.4902 0.412, -2.6041 -0.4902 0.412, -2.5883 -0.4902 0.4154, -2.5738 -0.4902 0.4225, -2.5609 -0.4902 0.4334, -2.5515 -0.4902 0.4465, -2.5455 -0.4902 0.4615, -2.7436 -0.4902 0.4462, -2.7396 -0.4902 0.4458, -2.7352 -0.4902 0.4442, -2.7314 -0.4902 0.4416, -2.7283 -0.4902 0.4382, -2.7263 -0.4902 0.4343, -2.7252 -0.4902 0.4299, -2.7252 -0.4902 0.4256, -2.7263 -0.4902 0.421, -2.7285 -0.4902 0.4169, -2.7311 -0.4902 0.414, -2.7347 -0.4902 0.4114, -2.7388 -0.4902 0.4098, -2.7436 -0.4902 0.4092, -2.7444 -0.4902 0.4092, -2.7486 -0.4902 0.4099, -2.7529 -0.4902 0.4117, -2.7566 -0.4902 0.4145, -2.7593 -0.4902 0.4179, -2.7611 -0.4902 0.4219, -2.762 -0.4902 0.4263, -2.7618 -0.4902 0.431, -2.7604 -0.4902 0.4354, -2.7579 -0.4902 0.4393, -2.7561 -0.4902 0.4413, -2.7524 -0.4902 0.444, -2.7482 -0.4902 0.4456
            ]
        }
        coordIndex [
            0,1,2,-1,3,4,5,-1,6,7,8,-1,9,10,11,-1,12,11,13,-1,13,11,14,-1,2,1,15,-1,16,17,18,-1,18,17,19,-1,18,19,20,-1,20,19,21,-1,20,21,5,-1,5,21,22,-1,5,22,3,-1,23,9,24,-1,24,9,11,-1,24,11,25,-1,25,11,12,-1,26,27,28,-1,28,27,29,-1,28,29,30,-1,30,29,31,-1,30,31,32,-1,32,31,33,-1,6,8,34,-1,34,8,35,-1,34,35,36,-1,36,35,37,-1,36,37,38,-1,1,39,15,-1,15,39,40,-1,15,40,41,-1,41,40,42,-1,41,42,6,-1,6,42,43,-1,6,43,7,-1,44,45,21,-1,21,45,46,-1,21,46,47,-1,47,46,48,-1,47,48,49,-1,49,48,50,-1,49,50,51,-1,51,50,52,-1,51,52,53,-1,53,52,54,-1,53,54,55,-1,55,54,56,-1,55,56,24,-1,24,56,57,-1,24,57,23,-1,58,59,19,-1,19,59,60,-1,19,60,21,-1,21,60,61,-1,21,61,44,-1,62,63,64,-1,64,63,65,-1,64,65,66,-1,66,65,67,-1,66,67,68,-1,68,67,69,-1,68,69,70,-1,70,69,71,-1,70,71,72,-1,10,73,11,-1,11,73,74,-1,11,74,75,-1,75,74,76,-1,75,76,77,-1,77,76,78,-1,77,78,79,-1,79,78,80,-1,79,80,81,-1,81,80,82,-1,81,82,83,-1,83,82,84,-1,83,84,85,-1,85,84,86,-1,85,86,87,-1,87,86,88,-1,87,88,89,-1,89,88,90,-1,89,90,19,-1,19,90,91,-1,19,91,58,-1,31,92,33,-1,33,92,93,-1,33,93,94,-1,94,93,95,-1,94,95,96,-1,96,95,97,-1,96,97,98,-1,98,97,99,-1,98,99,100,-1,100,99,101,-1,100,101,102,-1,102,101,103,-1,102,103,62,-1,62,103,104,-1,62,104,63,-1,105,106,107,-1,107,106,108,-1,107,108,28,-1,28,108,109,-1,28,109,26,-1,110,111,112,-1,112,111,113,-1,112,113,114,-1,114,113,115,-1,114,115,116,-1,116,115,117,-1,116,117,118,-1,118,117,119,-1,118,119,14,-1,14,119,120,-1,14,120,13,-1,38,37,121,-1,121,37,122,-1,121,122,123,-1,123,122,124,-1,123,124,125,-1,125,124,126,-1,125,126,127,-1,127,126,128,-1,127,128,105,-1,105,128,129,-1,105,129,106,-1,2,130,0,-1,0,130,131,-1,0,131,132,-1,132,131,133,-1,132,133,134,-1,134,133,135,-1,134,135,110,-1,110,135,136,-1,110,136,111,-1,137,138,139,-1,71,140,72,-1,72,140,137,-1,72,137,141,-1,141,137,139,-1,142,143,137,-1,137,143,144,-1,137,144,138,-1,145,146,147,-1,146,148,147,-1,147,148,149,-1,147,149,150,-1,142,137,147,-1,147,137,151,-1,147,151,145,-1,152,33,153,-1,153,33,94,-1,153,94,154,-1,154,94,96,-1,154,96,155,-1,155,96,98,-1,155,98,156,-1,152,157,33,-1,33,157,158,-1,33,158,32,-1,32,158,159,-1,32,159,30,-1,30,159,160,-1,30,160,28,-1,28,160,161,-1,28,161,107,-1,107,161,162,-1,107,162,105,-1,105,162,127,-1,127,162,163,-1,163,164,127,-1,127,164,165,-1,127,165,125,-1,125,165,166,-1,125,166,123,-1,167,36,168,-1,168,36,38,-1,168,38,169,-1,169,38,121,-1,169,121,170,-1,170,121,123,-1,170,123,166,-1,36,167,171,-1,36,171,34,-1,34,171,172,-1,34,172,6,-1,6,172,173,-1,6,173,41,-1,41,173,174,-1,41,174,15,-1,15,174,175,-1,15,175,2,-1,2,175,176,-1,2,176,130,-1,130,176,177,-1,130,177,131,-1,131,177,178,-1,131,178,133,-1,136,135,179,-1,179,135,133,-1,179,133,178,-1,179,180,136,-1,136,180,181,-1,136,181,111,-1,111,181,182,-1,182,183,111,-1,111,183,184,-1,111,184,113,-1,113,184,185,-1,113,185,115,-1,115,185,186,-1,115,186,117,-1,117,186,187,-1,117,187,119,-1,119,187,188,-1,119,188,120,-1,120,188,189,-1,120,189,13,-1,13,189,190,-1,13,190,12,-1,12,190,191,-1,12,191,25,-1,191,192,25,-1,25,192,193,-1,25,193,24,-1,24,193,194,-1,24,194,55,-1,55,194,195,-1,55,195,53,-1,195,196,53,-1,53,196,197,-1,53,197,51,-1,51,197,198,-1,51,198,49,-1,199,20,5,-1,49,198,200,-1,201,21,200,-1,200,21,47,-1,200,47,49,-1,201,202,21,-1,21,202,203,-1,21,203,22,-1,22,203,204,-1,22,204,3,-1,3,204,205,-1,3,205,4,-1,4,205,206,-1,4,206,5,-1,5,206,207,-1,5,207,199,-1,18,20,208,-1,208,20,199,-1,16,18,209,-1,209,18,208,-1,17,16,210,-1,210,16,209,-1,19,17,211,-1,211,17,210,-1,19,211,212,-1,19,212,89,-1,89,212,213,-1,89,213,87,-1,87,213,214,-1,87,214,85,-1,85,214,215,-1,85,215,83,-1,83,215,216,-1,83,216,81,-1,81,216,217,-1,81,217,79,-1,79,217,218,-1,79,218,77,-1,77,218,219,-1,77,219,75,-1,75,219,220,-1,75,220,11,-1,11,220,221,-1,11,221,14,-1,14,221,222,-1,14,222,118,-1,118,222,223,-1,118,223,116,-1,116,223,224,-1,116,224,114,-1,114,224,225,-1,114,225,112,-1,112,225,226,-1,112,226,110,-1,110,226,227,-1,110,227,228,-1,229,132,228,-1,228,132,134,-1,228,134,110,-1,229,230,132,-1,132,230,231,-1,132,231,0,-1,0,231,232,-1,0,232,1,-1,1,232,233,-1,1,233,39,-1,39,233,234,-1,39,234,40,-1,40,234,235,-1,40,235,42,-1,42,235,236,-1,42,236,43,-1,43,236,237,-1,43,237,7,-1,7,237,238,-1,7,238,8,-1,8,238,239,-1,8,239,35,-1,35,239,240,-1,35,240,37,-1,37,240,241,-1,37,241,122,-1,122,241,242,-1,122,242,124,-1,124,242,243,-1,124,243,126,-1,126,243,244,-1,126,244,128,-1,128,244,245,-1,128,245,129,-1,129,245,246,-1,129,246,106,-1,106,246,247,-1,106,247,108,-1,108,247,248,-1,108,248,109,-1,109,248,26,-1,26,248,249,-1,26,249,250,-1,27,26,251,-1,251,26,250,-1,27,251,252,-1,27,252,29,-1,29,252,253,-1,29,253,31,-1,31,253,254,-1,31,254,92,-1,92,254,255,-1,92,255,93,-1,93,255,256,-1,93,256,95,-1,256,257,95,-1,95,257,258,-1,95,258,97,-1,97,258,259,-1,97,259,99,-1,99,259,260,-1,99,260,101,-1,101,260,261,-1,101,261,103,-1,103,261,262,-1,103,262,104,-1,104,262,263,-1,104,263,63,-1,63,263,264,-1,63,264,65,-1,65,264,265,-1,65,265,67,-1,67,265,266,-1,67,266,69,-1,71,69,267,-1,267,69,266,-1,71,267,268,-1,71,268,140,-1,140,268,269,-1,140,269,137,-1,137,269,270,-1,137,270,151,-1,151,270,271,-1,151,271,145,-1,145,271,272,-1,145,272,146,-1,146,272,273,-1,146,273,148,-1,148,273,274,-1,148,274,149,-1,149,274,275,-1,149,275,150,-1,150,275,276,-1,150,276,147,-1,147,276,277,-1,147,277,142,-1,142,277,278,-1,142,278,143,-1,143,278,279,-1,143,279,144,-1,144,279,280,-1,144,280,138,-1,138,280,281,-1,138,281,139,-1,139,281,282,-1,139,282,141,-1,141,282,283,-1,141,283,72,-1,72,283,284,-1,72,284,70,-1,68,70,285,-1,285,70,284,-1,68,285,286,-1,68,286,66,-1,66,286,287,-1,66,287,64,-1,64,287,288,-1,64,288,62,-1,62,288,289,-1,62,289,102,-1,102,289,290,-1,102,290,100,-1,100,290,156,-1,100,156,98,-1,84,291,292,-1,84,292,86,-1,86,292,293,-1,86,293,88,-1,88,293,294,-1,88,294,90,-1,90,294,295,-1,90,295,91,-1,91,295,296,-1,91,296,58,-1,58,296,297,-1,58,297,59,-1,59,297,298,-1,59,298,60,-1,60,298,299,-1,60,299,61,-1,61,299,300,-1,61,300,44,-1,44,300,301,-1,44,301,45,-1,45,301,302,-1,45,302,46,-1,46,302,303,-1,46,303,48,-1,48,303,304,-1,48,304,50,-1,50,304,305,-1,50,305,52,-1,52,305,306,-1,52,306,54,-1,54,306,307,-1,54,307,56,-1,56,307,308,-1,56,308,57,-1,57,308,309,-1,57,309,23,-1,23,309,310,-1,23,310,9,-1,9,310,311,-1,9,311,10,-1,10,311,312,-1,10,312,73,-1,73,312,313,-1,73,313,74,-1,74,313,314,-1,74,314,76,-1,76,314,315,-1,76,315,78,-1,78,315,316,-1,78,316,80,-1,80,316,317,-1,80,317,82,-1,82,317,291,-1,82,291,84,-1,
        ]
    }
}
Shape{
    appearance Appearance {
        material  Material 	{
            diffuseColor 0.25098039215686274 0.25098039215686274 0.25098039215686274
            specularColor 0.12549019607843137 0.12549019607843137 0.12549019607843137
            ambientIntensity 0.251
            transparency 0.0
            shininess 0.5
        }
    }
    geometry IndexedFaceSet {
        ccw TRUE
        solid FALSE
        coord DEF co Coordinate {
            point [
                -2.7444 -0.4902 0.4092, -2.7561 -0.4902 0.4413, -2.7579 -0.4902 0.4393, -2.7388 -0.4902 0.4098, -2.7347 -0.4902 0.4114, -2.7396 -0.4902 0.4458, -2.7436 -0.4902 0.4462, -2.7482 -0.4902 0.4456, -2.7524 -0.4902 0.444, -2.7611 -0.4902 0.4219, -2.7593 -0.4902 0.4179, -2.7566 -0.4902 0.4145, -2.7436 -0.4902 0.4092, -2.7604 -0.4902 0.4354, -2.7618 -0.4902 0.431, -2.762 -0.4902 0.4263, -2.7529 -0.4902 0.4117, -2.7486 -0.4902 0.4099, -2.7311 -0.4902 0.414, -2.7285 -0.4902 0.4169, -2.7263 -0.4902 0.421, -2.7252 -0.4902 0.4256, -2.7252 -0.4902 0.4299, -2.7263 -0.4902 0.4343, -2.7283 -0.4902 0.4382, -2.7314 -0.4902 0.4416, -2.7352 -0.4902 0.4442
            ]
        }
        coordIndex [
            0,1,2,-1,3,4,5,-1,6,7,0,-1,0,7,8,-1,0,8,1,-1,9,10,2,-1,2,10,11,-1,6,0,5,-1,5,0,12,-1,5,12,3,-1,13,14,2,-1,2,14,15,-1,2,15,9,-1,11,16,2,-1,2,16,17,-1,2,17,0,-1,4,18,5,-1,5,18,19,-1,5,19,20,-1,20,21,5,-1,5,21,22,-1,5,22,23,-1,23,24,5,-1,5,24,25,-1,5,25,26,-1,
        ]
    }
}