#VRML V2.0 utf8
# 3D model generated by easyeda2kicad.py (https://github.com/uPesy/easyeda2kicad.py)

Shape{
    appearance Appearance {
        material  Material 	{
            diffuseColor 0.20784313725490197 0.20784313725490197 0.20784313725490197
            specularColor 0.01568627450980392 0.01568627450980392 0.01568627450980392
            ambientIntensity 0.298
            transparency 0.0
            shininess 0.5
        }
    }
    geometry IndexedFaceSet {
        ccw TRUE
        solid FALSE
        coord DEF co Coordinate {
            point [
                -0.7126 -0.575 0.9055, -0.6156 -0.575 0.9055, -0.6156 0.575 0.9055, -0.7246 0.563 0.9055, -0.7126 0.575 0.9055, -0.7153 0.5747 0.9055, -0.7201 0.5724 0.9055, -0.722 0.5705 0.9055, -0.7234 0.5682 0.9055, -0.7246 -0.563 0.9055, -0.7178 0.5738 0.9055, -0.7243 0.5657 0.9055, -0.7243 -0.5657 0.9055, -0.7234 -0.5682 0.9055, -0.722 -0.5705 0.9055, -0.7201 -0.5724 0.9055, -0.7178 -0.5738 0.9055, -0.7153 -0.5747 0.9055, -0.5251 0.575 0.9055, -0.5251 -0.575 0.9055, 0.7126 0.575 0.9055, 0.7126 -0.575 0.9055, 0.7153 -0.5747 0.9055, 0.7178 -0.5738 0.9055, 0.7201 -0.5724 0.9055, 0.7234 -0.5682 0.9055, 0.7243 -0.5657 0.9055, 0.7246 -0.563 0.9055, 0.7246 0.563 0.9055, 0.722 -0.5705 0.9055, 0.7201 0.5724 0.9055, 0.7178 0.5738 0.9055, 0.722 0.5705 0.9055, 0.7234 0.5682 0.9055, 0.7243 0.5657 0.9055, 0.7153 0.5747 0.9055, 0.0674 0.0347 0.0394, 0.0752 0.0338 0.0394, 0.0504 -0.0245 0.0394, -0.0086 -0.0364 0.0394, 0.0336 -0.0364 0.0394, 0.2756 -0.6472 0.0394, 0.2756 0.0428 0.0394, 0.1546 -0.0364 0.0394, 0.0581 0.0426 0.0394, 0.049 0.0402 0.0394, 0.0336 0.0423 0.0394, -0.0067 0.0423 0.0394, -0.0163 0.0428 0.0394, -0.0067 0.0337 0.0394, -0.0086 -0.0278 0.0394, -0.0163 -0.6472 0.0394, 0.0578 0.0334 0.0394, 0.049 -0.0237 0.0394, 0.049 0.0296 0.0394, 0.023 -0.0009 0.0394, 0.023 -0.0278 0.0394, -0.0048 -0.0009 0.0394, -0.0048 0.0078 0.0394, 0.023 0.0078 0.0394, 0.023 0.0337 0.0394, 0.049 -0.0323 0.0394, 0.0574 -0.0358 0.0394, 0.1034 0.0216 0.0394, 0.0988 0.029 0.0394, 0.144 0.0423 0.0394, 0.0917 0.0358 0.0394, 0.0842 0.0401 0.0394, 0.088 -0.0337 0.0394, 0.1143 -0.0364 0.0394, 0.0803 -0.0364 0.0394, 0.0706 -0.0374 0.0394, 0.0943 -0.0297 0.0394, 0.1002 -0.0235 0.0394, 0.1143 -0.0278 0.0394, 0.1044 -0.016 0.0394, 0.144 -0.0278 0.0394, 0.0754 0.0427 0.0394, 0.0734 0.0428 0.0394, 0.1546 0.0423 0.0394, 0.0811 0.0317 0.0394, 0.0865 0.028 0.0394, 0.0913 0.0228 0.0394, 0.097 0.0021 0.0394, 0.0962 -0.0064 0.0394, 0.094 -0.0132 0.0394, 0.0765 -0.0279 0.0394, 0.0692 -0.0287 0.0394, 0.0823 -0.0258 0.0394, 0.0871 -0.0225 0.0394, 0.0908 -0.0186 0.0394, 0.0587 -0.0276 0.0394, 0.0685 -0.0373 0.0394, 0.0945 0.0167 0.0394, 0.0966 0.0083 0.0394, 0.1068 -0.0076 0.0394, 0.1075 0.0015 0.0394, 0.1064 0.0127 0.0394, 0.2756 0.6472 0.0394, -0.0163 0.6472 0.0394, 0.0675 0.0433 0.0394, 0.0605 0.0428 0.0394, -0.1527 -0.0364 0.0394, -0.1447 -0.0143 0.0394, -0.1122 -0.0143 0.0394, -0.0835 -0.0148 0.0394, -0.0789 -0.0219 0.0394, -0.0931 -0.0364 0.0394, -0.0725 -0.0281 0.0394, -0.0642 -0.0328 0.0394, -0.2756 -0.6472 0.0394, -0.1047 -0.0364 0.0394, -0.0552 -0.0356 0.0394, -0.0454 -0.0364 0.0394, -0.024 -0.0364 0.0394, -0.024 0.0423 0.0394, -0.0462 0.0423 0.0394, -0.0576 0.0411 0.0394, -0.0668 0.0379 0.0394, -0.1229 0.0423 0.0394, -0.0754 0.0321 0.0394, -0.1642 -0.0364 0.0394, -0.2756 0.0428 0.0394, -0.1335 0.0423 0.0394, -0.0755 0.0321 0.0394, -0.081 0.0259 0.0394, -0.0847 0.0191 0.0394, -0.0868 0.0114 0.0394, -0.0874 0.004 0.0394, -0.0863 -0.0066 0.0394, -0.2756 0.6472 0.0394, 0.8307 0.3996 0.5177, 0.8504 0.3996 0.5177, 0.8307 0.563 0.5177, 0.8504 0.6614 0.5177, 0.8277 0.5893 0.5177, 0.819 0.6142 0.5177, -0.8504 0.6614 0.5177, -0.8504 0.3996 0.5177, -0.8307 0.563 0.5177, -0.8307 0.3996 0.5177, -0.811 0.7008 0.5177, -0.7638 0.6694 0.5177, -0.7389 0.6781 0.5177, -0.7862 0.6553 0.5177, -0.8212 0.6994 0.5177, -0.8307 0.6955 0.5177, -0.8277 0.5893 0.5177, -0.819 0.6142 0.5177, -0.8491 0.6716 0.5177, -0.8049 0.6366 0.5177, -0.8451 0.6811 0.5177, -0.8389 0.6893 0.5177, -0.7126 0.6811 0.5177, 0.7126 0.6811 0.5177, 0.811 0.7008 0.5177, 0.7389 0.6781 0.5177, 0.7638 0.6694 0.5177, 0.8212 0.6994 0.5177, 0.7862 0.6553 0.5177, 0.8307 0.6955 0.5177, 0.8389 0.6893 0.5177, 0.8049 0.6366 0.5177, 0.8491 0.6716 0.5177, 0.8451 0.6811 0.5177, 0.8504 -0.3996 0.5177, 0.8504 -0.6614 0.5177, 0.8504 -0.3996 0.4276, 0.8504 -0.6614 0.4272, 0.8504 0.3996 0.4276, 0.8504 0.6614 0.4272, 0.8307 0.3996 0.5181, 0.8031 0.563 0.8336, 0.8307 -0.3996 0.5181, 0.8031 -0.563 0.8336, 0.8307 -0.3996 0.5177, 0.8307 -0.563 0.5177, 0.7862 -0.6553 0.5177, 0.7638 -0.6694 0.5177, 0.811 -0.7008 0.5177, -0.8307 -0.3996 0.5177, -0.8504 -0.3996 0.5177, -0.8307 -0.563 0.5177, -0.8504 -0.6614 0.5177, -0.8277 -0.5893 0.5177, -0.819 -0.6142 0.5177, -0.8389 -0.6893 0.5177, -0.8307 -0.6955 0.5177, -0.7862 -0.6553 0.5177, -0.8212 -0.6994 0.5177, -0.7638 -0.6694 0.5177, -0.811 -0.7008 0.5177, -0.7389 -0.6781 0.5177, -0.8049 -0.6366 0.5177, -0.8491 -0.6716 0.5177, -0.8451 -0.6811 0.5177, 0.8198 -0.6998 0.5177, 0.8281 -0.6969 0.5177, 0.8356 -0.6922 0.5177, 0.8277 -0.5893 0.5177, 0.819 -0.6142 0.5177, 0.8494 -0.6702 0.5177, 0.8049 -0.6366 0.5177, 0.8465 -0.6785 0.5177, 0.8418 -0.686 0.5177, 0.7389 -0.6781 0.5177, 0.7126 -0.6811 0.5177, -0.7126 -0.6811 0.5177, -0.8504 0.3996 0.4276, -0.8504 0.6614 0.4272, -0.8504 -0.3996 0.4276, -0.8504 -0.6614 0.4272, -0.8307 -0.3996 0.5181, -0.8031 -0.563 0.8336, -0.8307 0.3996 0.5181, -0.8031 0.563 0.8336, 0.7126 0.6604 0.19, 0.7126 0.6811 0.4272, 0.7389 0.6781 0.4272, 0.7343 0.6579 0.19, 0.7638 0.6694 0.4272, 0.7548 0.6507 0.19, 0.7862 0.6553 0.4272, 0.7733 0.6391 0.19, 0.8049 0.6366 0.4272, 0.7887 0.6237 0.19, 0.819 0.6142 0.4272, 0.8003 0.6052 0.19, 0.8277 0.5893 0.4272, 0.8075 0.5847 0.19, 0.8307 0.563 0.4272, 0.81 0.563 0.19, 0.81 -0.563 0.19, 0.8307 -0.563 0.4272, 0.8277 -0.5893 0.4272, 0.8075 -0.5847 0.19, 0.819 -0.6142 0.4272, 0.8003 -0.6052 0.19, 0.8049 -0.6366 0.4272, 0.7887 -0.6237 0.19, 0.7862 -0.6553 0.4272, 0.7733 -0.6391 0.19, 0.7638 -0.6694 0.4272, 0.7548 -0.6507 0.19, 0.7389 -0.6781 0.4272, 0.7343 -0.6579 0.19, 0.7126 -0.6811 0.4272, 0.7126 -0.6604 0.19, 0.2756 -0.6604 0.19, -0.7126 -0.6811 0.4272, -0.7126 -0.6604 0.19, -0.2756 -0.6604 0.19, -0.2756 0.6604 0.19, -0.7126 0.6604 0.19, -0.7126 0.6811 0.4272, 0.2756 0.6604 0.19, -0.8307 -0.563 0.4272, -0.8307 0.563 0.4272, -0.8277 0.5893 0.4272, -0.819 0.6142 0.4272, 0.811 0.7008 0.4272, 0.8212 0.6994 0.4272, 0.8307 0.6955 0.4272, 0.8494 -0.6702 0.4272, 0.8465 -0.6785 0.4272, 0.8418 -0.686 0.4272, 0.8356 -0.6922 0.4272, 0.8389 0.6893 0.4272, 0.8451 0.6811 0.4272, 0.8491 0.6716 0.4272, -0.8389 0.6893 0.4272, -0.8307 0.6955 0.4272, -0.7862 0.6553 0.4272, -0.8212 0.6994 0.4272, -0.7638 0.6694 0.4272, -0.811 0.7008 0.4272, -0.7389 0.6781 0.4272, 0.8281 -0.6969 0.4272, 0.8198 -0.6998 0.4272, 0.811 -0.7008 0.4272, -0.8049 0.6366 0.4272, -0.8491 0.6716 0.4272, -0.8451 0.6811 0.4272, -0.7638 -0.6694 0.4272, -0.811 -0.7008 0.4272, -0.7862 -0.6553 0.4272, -0.8212 -0.6994 0.4272, -0.8307 -0.6955 0.4272, -0.8277 -0.5893 0.4272, -0.819 -0.6142 0.4272, -0.8491 -0.6716 0.4272, -0.8049 -0.6366 0.4272, -0.8451 -0.6811 0.4272, -0.8389 -0.6893 0.4272, -0.7389 -0.6781 0.4272, 0.8008 0.5831 0.8336, 0.7941 0.6022 0.8336, 0.7833 0.6194 0.8336, 0.769 0.6337 0.8336, 0.7519 0.6445 0.8336, 0.7327 0.6512 0.8336, 0.7126 0.6535 0.8336, -0.7126 0.6535 0.8336, -0.7327 0.6512 0.8336, -0.7519 0.6445 0.8336, -0.769 0.6337 0.8336, -0.7833 0.6194 0.8336, -0.7941 0.6022 0.8336, -0.8008 0.5831 0.8336, -0.8008 -0.5831 0.8336, -0.7941 -0.6022 0.8336, -0.7833 -0.6194 0.8336, -0.769 -0.6337 0.8336, -0.7519 -0.6445 0.8336, -0.7327 -0.6512 0.8336, -0.7126 -0.6535 0.8336, 0.7126 -0.6535 0.8336, 0.7327 -0.6512 0.8336, 0.7519 -0.6445 0.8336, 0.769 -0.6337 0.8336, 0.7833 -0.6194 0.8336, 0.7941 -0.6022 0.8336, 0.8008 -0.5831 0.8336
            ]
        }
        coordIndex [
            0,1,2,-1,3,4,5,-1,6,7,8,-1,9,0,3,-1,3,0,2,-1,3,2,4,-1,5,10,3,-1,3,10,6,-1,3,6,11,-1,11,6,8,-1,9,12,0,-1,0,12,13,-1,0,13,14,-1,15,16,14,-1,14,16,17,-1,14,17,0,-1,18,19,20,-1,20,19,21,-1,22,23,24,-1,25,26,21,-1,21,26,27,-1,21,27,20,-1,20,27,28,-1,22,24,21,-1,21,24,29,-1,21,29,25,-1,30,31,32,-1,32,31,33,-1,28,34,20,-1,20,34,33,-1,20,33,35,-1,35,33,31,-1,36,37,38,-1,39,40,41,-1,42,41,43,-1,44,45,46,-1,46,47,48,-1,48,47,49,-1,49,50,48,-1,48,50,39,-1,48,39,51,-1,51,39,41,-1,36,38,52,-1,52,38,53,-1,52,53,54,-1,55,56,57,-1,57,56,50,-1,57,50,58,-1,58,50,49,-1,58,49,59,-1,59,49,60,-1,45,54,46,-1,46,54,53,-1,46,53,40,-1,40,53,61,-1,40,61,41,-1,41,61,62,-1,63,64,65,-1,65,64,66,-1,65,66,67,-1,68,69,70,-1,70,69,71,-1,68,72,69,-1,69,72,73,-1,69,73,74,-1,74,73,75,-1,74,75,76,-1,67,77,65,-1,65,77,78,-1,65,78,79,-1,37,80,38,-1,38,80,81,-1,38,81,82,-1,83,84,38,-1,38,84,85,-1,86,87,88,-1,88,87,89,-1,85,90,38,-1,38,90,89,-1,38,89,91,-1,91,89,87,-1,62,92,41,-1,41,92,71,-1,41,71,43,-1,43,71,69,-1,82,93,38,-1,38,93,94,-1,38,94,83,-1,75,95,76,-1,76,95,96,-1,76,96,65,-1,65,96,97,-1,65,97,63,-1,43,79,42,-1,42,79,78,-1,42,78,98,-1,98,78,99,-1,99,78,100,-1,99,100,101,-1,102,103,104,-1,105,106,107,-1,107,106,108,-1,107,108,109,-1,110,111,51,-1,51,111,107,-1,109,112,107,-1,107,112,113,-1,107,113,51,-1,51,113,114,-1,51,114,48,-1,48,114,115,-1,48,115,116,-1,117,118,119,-1,119,118,120,-1,104,111,102,-1,102,111,110,-1,102,110,121,-1,121,110,122,-1,121,122,123,-1,123,122,48,-1,123,48,119,-1,119,48,116,-1,119,116,117,-1,120,124,119,-1,119,124,125,-1,119,125,126,-1,126,127,119,-1,119,127,128,-1,119,128,107,-1,107,128,129,-1,107,129,105,-1,44,46,101,-1,101,46,48,-1,101,48,99,-1,99,48,122,-1,99,122,130,-1,131,132,133,-1,133,132,134,-1,133,134,135,-1,135,134,136,-1,137,138,139,-1,139,138,140,-1,141,142,143,-1,142,141,144,-1,144,141,145,-1,144,145,146,-1,139,147,137,-1,137,147,148,-1,137,148,149,-1,149,148,150,-1,149,150,151,-1,151,150,144,-1,151,144,152,-1,152,144,146,-1,143,153,141,-1,141,153,154,-1,141,154,155,-1,154,156,155,-1,155,156,157,-1,155,157,158,-1,158,157,159,-1,158,159,160,-1,160,159,161,-1,136,134,162,-1,162,134,163,-1,162,163,159,-1,159,163,164,-1,159,164,161,-1,165,166,167,-1,167,166,168,-1,167,168,169,-1,169,168,170,-1,169,170,132,-1,132,170,134,-1,131,133,171,-1,171,133,172,-1,171,172,173,-1,173,172,174,-1,173,174,175,-1,175,174,176,-1,177,178,179,-1,166,165,176,-1,176,165,175,-1,180,181,182,-1,182,181,183,-1,182,183,184,-1,184,183,185,-1,186,187,188,-1,188,187,189,-1,188,189,190,-1,190,189,191,-1,190,191,192,-1,185,183,193,-1,193,183,194,-1,193,194,188,-1,188,194,195,-1,188,195,186,-1,179,196,177,-1,177,196,197,-1,177,197,198,-1,176,199,166,-1,166,199,200,-1,166,200,201,-1,201,200,202,-1,201,202,203,-1,203,202,177,-1,203,177,204,-1,204,177,198,-1,178,205,179,-1,179,205,206,-1,179,206,191,-1,191,206,207,-1,191,207,192,-1,138,137,208,-1,208,137,209,-1,208,209,210,-1,210,209,211,-1,210,211,181,-1,181,211,183,-1,180,182,212,-1,212,182,213,-1,212,213,214,-1,214,213,215,-1,214,215,140,-1,140,215,139,-1,216,217,218,-1,216,218,219,-1,219,218,220,-1,219,220,221,-1,221,220,222,-1,221,222,223,-1,223,222,224,-1,223,224,225,-1,225,224,226,-1,225,226,227,-1,227,226,228,-1,227,228,229,-1,229,228,230,-1,229,230,231,-1,231,230,232,-1,232,230,233,-1,232,233,234,-1,232,234,235,-1,235,234,236,-1,235,236,237,-1,237,236,238,-1,237,238,239,-1,239,238,240,-1,239,240,241,-1,241,240,242,-1,241,242,243,-1,243,242,244,-1,243,244,245,-1,245,244,246,-1,245,246,247,-1,247,246,248,-1,248,246,249,-1,249,250,251,-1,251,110,51,-1,249,251,248,-1,248,251,51,-1,248,51,41,-1,252,253,254,-1,254,217,255,-1,255,217,216,-1,99,130,252,-1,254,255,252,-1,252,255,98,-1,252,98,99,-1,238,236,168,-1,256,211,257,-1,257,211,209,-1,257,209,258,-1,258,209,259,-1,220,260,222,-1,222,260,261,-1,222,261,262,-1,168,263,238,-1,238,263,264,-1,238,264,240,-1,240,264,265,-1,240,265,266,-1,262,267,222,-1,222,267,268,-1,222,268,224,-1,224,268,269,-1,224,269,226,-1,226,269,170,-1,226,170,228,-1,270,271,272,-1,272,271,273,-1,272,273,274,-1,274,273,275,-1,274,275,276,-1,266,277,240,-1,240,277,278,-1,240,278,242,-1,242,278,279,-1,242,279,244,-1,236,234,168,-1,168,234,233,-1,168,233,170,-1,170,233,230,-1,170,230,228,-1,259,209,280,-1,280,209,281,-1,280,281,272,-1,272,281,282,-1,272,282,270,-1,283,284,285,-1,285,284,286,-1,285,286,287,-1,256,288,211,-1,211,288,289,-1,211,289,290,-1,290,289,291,-1,290,291,292,-1,292,291,285,-1,292,285,293,-1,293,285,287,-1,220,218,260,-1,260,218,217,-1,260,217,275,-1,275,217,254,-1,275,254,276,-1,283,294,284,-1,284,294,249,-1,284,249,279,-1,279,249,246,-1,279,246,244,-1,260,275,155,-1,155,275,141,-1,284,279,191,-1,191,279,179,-1,172,133,135,-1,172,135,295,-1,295,135,136,-1,295,136,296,-1,296,136,162,-1,296,162,297,-1,297,162,159,-1,297,159,298,-1,298,159,157,-1,298,157,299,-1,299,157,156,-1,299,156,300,-1,300,156,154,-1,300,154,301,-1,301,154,302,-1,302,154,153,-1,302,153,143,-1,302,143,303,-1,303,143,142,-1,303,142,304,-1,304,142,144,-1,304,144,305,-1,305,144,150,-1,305,150,306,-1,306,150,148,-1,306,148,307,-1,307,148,147,-1,307,147,308,-1,308,147,139,-1,308,139,215,-1,213,182,184,-1,213,184,309,-1,309,184,185,-1,309,185,310,-1,310,185,193,-1,310,193,311,-1,311,193,188,-1,311,188,312,-1,312,188,190,-1,312,190,313,-1,313,190,192,-1,313,192,314,-1,314,192,207,-1,314,207,315,-1,315,207,316,-1,316,207,206,-1,316,206,205,-1,316,205,317,-1,317,205,178,-1,317,178,318,-1,318,178,177,-1,318,177,319,-1,319,177,202,-1,319,202,320,-1,320,202,200,-1,320,200,321,-1,321,200,199,-1,321,199,322,-1,322,199,176,-1,322,176,174,-1,
        ]
    }
}
Shape{
    appearance Appearance {
        material  Material 	{
            diffuseColor 0.45098039215686275 0.43137254901960786 0.4196078431372549
            specularColor 0.03137254901960784 0.03137254901960784 0.03137254901960784
            ambientIntensity 0.6221
            transparency 0.0
            shininess 0.5
        }
    }
    geometry IndexedFaceSet {
        ccw TRUE
        solid FALSE
        coord DEF co Coordinate {
            point [
                -0.5251 -0.575 0.9055, -0.5251 0.575 0.9055, -0.6156 -0.575 0.9055, -0.6156 0.575 0.9055
            ]
        }
        coordIndex [
            0,1,2,-1,2,1,3,-1,
        ]
    }
}
Shape{
    appearance Appearance {
        material  Material 	{
            diffuseColor 0.20784313725490197 0.20784313725490197 0.20784313725490197
            specularColor 0.01568627450980392 0.01568627450980392 0.01568627450980392
            ambientIntensity 0.298
            transparency 0.0
            shininess 0.5
        }
    }
    geometry IndexedFaceSet {
        ccw TRUE
        solid FALSE
        coord DEF co Coordinate {
            point [
                -0.8031 0.563 0.8336, -0.8031 -0.563 0.8336, -0.799 -0.563 0.8526, -0.799 0.563 0.8526, -0.7904 -0.563 0.87, -0.7904 0.563 0.87, -0.7778 -0.563 0.8848, -0.7778 0.563 0.8848, -0.762 -0.563 0.8961, -0.762 0.563 0.8961, -0.7439 -0.563 0.9031, -0.7439 0.563 0.9031, -0.7246 -0.563 0.9055, -0.7246 0.563 0.9055, -0.7126 -0.6535 0.8336, -0.7126 -0.6494 0.8526, -0.7318 -0.6472 0.8526, -0.7126 -0.6408 0.87, -0.7299 -0.6389 0.87, -0.7126 -0.6282 0.8848, -0.7271 -0.6266 0.8848, -0.7126 -0.6124 0.8961, -0.7236 -0.6112 0.8961, -0.7126 -0.5943 0.9031, -0.7196 -0.5935 0.9031, -0.7126 -0.575 0.9055, -0.7153 -0.5747 0.9055, -0.7178 -0.5738 0.9055, -0.7262 -0.5912 0.9031, -0.7201 -0.5724 0.9055, -0.7321 -0.5875 0.9031, -0.722 -0.5705 0.9055, -0.7371 -0.5825 0.9031, -0.7234 -0.5682 0.9055, -0.7408 -0.5766 0.9031, -0.7243 -0.5657 0.9055, -0.7431 -0.57 0.9031, -0.734 -0.6075 0.8961, -0.7434 -0.6016 0.8961, -0.7512 -0.5938 0.8961, -0.7571 -0.5844 0.8961, -0.7608 -0.574 0.8961, -0.7409 -0.6218 0.8848, -0.7533 -0.614 0.8848, -0.7636 -0.6037 0.8848, -0.7714 -0.5913 0.8848, -0.7762 -0.5775 0.8848, -0.7464 -0.6331 0.87, -0.7611 -0.6238 0.87, -0.7734 -0.6115 0.87, -0.7827 -0.5968 0.87, -0.7885 -0.5803 0.87, -0.7501 -0.6408 0.8526, -0.7665 -0.6305 0.8526, -0.7802 -0.6169 0.8526, -0.7904 -0.6005 0.8526, -0.7968 -0.5822 0.8526, -0.7327 -0.6512 0.8336, -0.7519 -0.6445 0.8336, -0.769 -0.6337 0.8336, -0.7833 -0.6194 0.8336, -0.7941 -0.6022 0.8336, -0.8008 -0.5831 0.8336, -0.7968 0.5822 0.8526, -0.7885 0.5803 0.87, -0.7762 0.5775 0.8848, -0.7608 0.574 0.8961, -0.7431 0.57 0.9031, -0.7243 0.5657 0.9055, -0.7234 0.5682 0.9055, -0.7408 0.5766 0.9031, -0.722 0.5705 0.9055, -0.7371 0.5825 0.9031, -0.7201 0.5724 0.9055, -0.7321 0.5875 0.9031, -0.7178 0.5738 0.9055, -0.7262 0.5912 0.9031, -0.7153 0.5747 0.9055, -0.7196 0.5935 0.9031, -0.7126 0.575 0.9055, -0.7126 0.5943 0.9031, -0.7571 0.5844 0.8961, -0.7512 0.5938 0.8961, -0.7434 0.6016 0.8961, -0.734 0.6075 0.8961, -0.7236 0.6112 0.8961, -0.7126 0.6124 0.8961, -0.7714 0.5913 0.8848, -0.7636 0.6037 0.8848, -0.7533 0.614 0.8848, -0.7409 0.6218 0.8848, -0.7271 0.6266 0.8848, -0.7126 0.6282 0.8848, -0.7827 0.5968 0.87, -0.7734 0.6115 0.87, -0.7611 0.6238 0.87, -0.7464 0.6331 0.87, -0.7299 0.6389 0.87, -0.7126 0.6408 0.87, -0.7904 0.6005 0.8526, -0.7802 0.6169 0.8526, -0.7665 0.6305 0.8526, -0.7501 0.6408 0.8526, -0.7318 0.6472 0.8526, -0.7126 0.6494 0.8526, -0.8008 0.5831 0.8336, -0.7941 0.6022 0.8336, -0.7833 0.6194 0.8336, -0.769 0.6337 0.8336, -0.7519 0.6445 0.8336, -0.7327 0.6512 0.8336, -0.7126 0.6535 0.8336, -0.6156 -0.575 0.9055, 0.7126 -0.6535 0.8336, 0.7126 -0.6494 0.8526, 0.7126 -0.5943 0.9031, 0.7126 -0.575 0.9055, -0.5251 -0.575 0.9055, 0.7126 -0.6408 0.87, 0.7126 -0.6282 0.8848, 0.7126 -0.6124 0.8961, 0.7126 0.6535 0.8336, -0.6156 0.575 0.9055, -0.5251 0.575 0.9055, 0.7126 0.6494 0.8526, 0.7126 0.6408 0.87, 0.7126 0.6282 0.8848, 0.7126 0.6124 0.8961, 0.7126 0.5943 0.9031, 0.7126 0.575 0.9055, 0.8031 -0.563 0.8336, 0.799 -0.563 0.8526, 0.7968 -0.5822 0.8526, 0.7904 -0.563 0.87, 0.7885 -0.5803 0.87, 0.7778 -0.563 0.8848, 0.7762 -0.5775 0.8848, 0.762 -0.563 0.8961, 0.7608 -0.574 0.8961, 0.7439 -0.563 0.9031, 0.7431 -0.57 0.9031, 0.7246 -0.563 0.9055, 0.7243 -0.5657 0.9055, 0.7234 -0.5682 0.9055, 0.7408 -0.5766 0.9031, 0.722 -0.5705 0.9055, 0.7371 -0.5825 0.9031, 0.7201 -0.5724 0.9055, 0.7321 -0.5875 0.9031, 0.7178 -0.5738 0.9055, 0.7262 -0.5912 0.9031, 0.7153 -0.5747 0.9055, 0.7196 -0.5935 0.9031, 0.7571 -0.5844 0.8961, 0.7512 -0.5938 0.8961, 0.7434 -0.6016 0.8961, 0.734 -0.6075 0.8961, 0.7236 -0.6112 0.8961, 0.7714 -0.5913 0.8848, 0.7636 -0.6037 0.8848, 0.7533 -0.614 0.8848, 0.7409 -0.6218 0.8848, 0.7271 -0.6266 0.8848, 0.7827 -0.5968 0.87, 0.7734 -0.6115 0.87, 0.7611 -0.6238 0.87, 0.7464 -0.6331 0.87, 0.7299 -0.6389 0.87, 0.7904 -0.6005 0.8526, 0.7802 -0.6169 0.8526, 0.7665 -0.6305 0.8526, 0.7501 -0.6408 0.8526, 0.7318 -0.6472 0.8526, 0.8008 -0.5831 0.8336, 0.7941 -0.6022 0.8336, 0.7833 -0.6194 0.8336, 0.769 -0.6337 0.8336, 0.7519 -0.6445 0.8336, 0.7327 -0.6512 0.8336, 0.7318 0.6472 0.8526, 0.7299 0.6389 0.87, 0.7271 0.6266 0.8848, 0.7236 0.6112 0.8961, 0.7196 0.5935 0.9031, 0.7153 0.5747 0.9055, 0.7178 0.5738 0.9055, 0.7262 0.5912 0.9031, 0.7201 0.5724 0.9055, 0.7321 0.5875 0.9031, 0.722 0.5705 0.9055, 0.7371 0.5825 0.9031, 0.7234 0.5682 0.9055, 0.7408 0.5766 0.9031, 0.7243 0.5657 0.9055, 0.7431 0.57 0.9031, 0.7246 0.563 0.9055, 0.7439 0.563 0.9031, 0.734 0.6075 0.8961, 0.7434 0.6016 0.8961, 0.7512 0.5938 0.8961, 0.7571 0.5844 0.8961, 0.7608 0.574 0.8961, 0.762 0.563 0.8961, 0.7409 0.6218 0.8848, 0.7533 0.614 0.8848, 0.7636 0.6037 0.8848, 0.7714 0.5913 0.8848, 0.7762 0.5775 0.8848, 0.7778 0.563 0.8848, 0.7464 0.6331 0.87, 0.7611 0.6238 0.87, 0.7734 0.6115 0.87, 0.7827 0.5968 0.87, 0.7885 0.5803 0.87, 0.7904 0.563 0.87, 0.7501 0.6408 0.8526, 0.7665 0.6305 0.8526, 0.7802 0.6169 0.8526, 0.7904 0.6005 0.8526, 0.7968 0.5822 0.8526, 0.799 0.563 0.8526, 0.7327 0.6512 0.8336, 0.7519 0.6445 0.8336, 0.769 0.6337 0.8336, 0.7833 0.6194 0.8336, 0.7941 0.6022 0.8336, 0.8008 0.5831 0.8336, 0.8031 0.563 0.8336, -0.7126 -0.6604 0.19, -0.7126 -0.6811 0.4272, -0.7389 -0.6781 0.4272, -0.7343 -0.6579 0.19, -0.7638 -0.6694 0.4272, -0.7548 -0.6507 0.19, -0.7862 -0.6553 0.4272, -0.7733 -0.6391 0.19, -0.8049 -0.6366 0.4272, -0.7887 -0.6237 0.19, -0.819 -0.6142 0.4272, -0.8003 -0.6052 0.19, -0.8277 -0.5893 0.4272, -0.8075 -0.5847 0.19, -0.8307 -0.563 0.4272, -0.81 -0.563 0.19, -0.81 0.563 0.19, -0.8307 0.563 0.4272, -0.8277 0.5893 0.4272, -0.8075 0.5847 0.19, -0.819 0.6142 0.4272, -0.8003 0.6052 0.19, -0.8049 0.6366 0.4272, -0.7887 0.6237 0.19, -0.7862 0.6553 0.4272, -0.7733 0.6391 0.19, -0.7638 0.6694 0.4272, -0.7548 0.6507 0.19, -0.7389 0.6781 0.4272, -0.7343 0.6579 0.19, -0.7126 0.6811 0.4272, -0.7126 0.6604 0.19, -0.2756 -0.6472 0.0394, -0.2756 -0.6604 0.19, -0.2756 -0.6563 0.171, -0.2756 0.6472 0.0394, -0.2756 0.6193 0.1275, -0.2756 0.6351 0.1388, -0.2756 0.6477 0.1536, -0.2756 0.6563 0.171, -0.2756 0.6604 0.19, -0.2756 -0.6477 0.1536, -0.2756 -0.6351 0.1388, -0.2756 -0.6193 0.1275, -0.2756 -0.6012 0.1205, -0.2756 -0.5819 0.1181, -0.2756 0.0428 0.0394, -0.2756 0.5819 0.1181, -0.2756 0.6012 0.1205, -0.7315 -0.563 0.1181, -0.7315 0.563 0.1181, -0.7126 0.5819 0.1181, -0.7208 -0.58 0.1181, -0.7244 -0.5778 0.1181, -0.731 0.5672 0.1181, -0.7296 0.5712 0.1181, -0.7274 0.5748 0.1181, -0.7244 0.5778 0.1181, -0.7208 0.58 0.1181, -0.7168 0.5814 0.1181, -0.7126 -0.5819 0.1181, -0.7168 -0.5814 0.1181, -0.7274 -0.5748 0.1181, -0.7296 -0.5712 0.1181, -0.731 -0.5672 0.1181, 0.2756 0.6472 0.0394, 0.2756 0.6604 0.19, 0.2756 0.6563 0.171, 0.2756 -0.6193 0.1275, 0.2756 -0.6351 0.1388, 0.2756 -0.6472 0.0394, 0.2756 0.6477 0.1536, 0.2756 0.6351 0.1388, 0.2756 0.6193 0.1275, 0.2756 -0.6477 0.1536, 0.2756 -0.6563 0.171, 0.2756 -0.6604 0.19, 0.2756 0.6012 0.1205, 0.2756 0.5819 0.1181, 0.2756 0.0428 0.0394, 0.2756 -0.5819 0.1181, 0.2756 -0.6012 0.1205, 0.7126 -0.5819 0.1181, 0.7126 0.5819 0.1181, 0.731 0.5672 0.1181, 0.7315 0.563 0.1181, 0.731 -0.5672 0.1181, 0.7296 -0.5712 0.1181, 0.7315 -0.563 0.1181, 0.7274 -0.5748 0.1181, 0.7244 -0.5778 0.1181, 0.7168 -0.5814 0.1181, 0.7208 -0.58 0.1181, 0.7244 0.5778 0.1181, 0.7208 0.58 0.1181, 0.7168 0.5814 0.1181, 0.7274 0.5748 0.1181, 0.7296 0.5712 0.1181, 0.7126 -0.6012 0.1205, 0.7126 -0.6193 0.1275, 0.7126 -0.6351 0.1388, 0.7126 -0.6477 0.1536, 0.7126 -0.6563 0.171, 0.7126 -0.6604 0.19, 0.7334 -0.6539 0.171, 0.7314 -0.6456 0.1536, 0.7286 -0.6333 0.1388, 0.7251 -0.6179 0.1275, 0.7211 -0.6002 0.1205, 0.7292 -0.5974 0.1205, 0.7364 -0.5929 0.1205, 0.7425 -0.5868 0.1205, 0.747 -0.5796 0.1205, 0.7498 -0.5715 0.1205, 0.7508 -0.563 0.1205, 0.737 -0.6137 0.1275, 0.7477 -0.607 0.1275, 0.7566 -0.5981 0.1275, 0.7633 -0.5874 0.1275, 0.7675 -0.5755 0.1275, 0.7689 -0.563 0.1275, 0.7439 -0.628 0.1388, 0.7576 -0.6194 0.1388, 0.769 -0.608 0.1388, 0.7776 -0.5943 0.1388, 0.7829 -0.579 0.1388, 0.7847 -0.563 0.1388, 0.7494 -0.6393 0.1536, 0.7654 -0.6292 0.1536, 0.7788 -0.6158 0.1536, 0.7889 -0.5997 0.1536, 0.7952 -0.5818 0.1536, 0.7973 -0.563 0.1536, 0.7531 -0.647 0.171, 0.7708 -0.6359 0.171, 0.7855 -0.6212 0.171, 0.7967 -0.6035 0.171, 0.8036 -0.5838 0.171, 0.8059 -0.563 0.171, 0.7343 -0.6579 0.19, 0.7548 -0.6507 0.19, 0.7733 -0.6391 0.19, 0.7887 -0.6237 0.19, 0.8003 -0.6052 0.19, 0.8075 -0.5847 0.19, 0.81 -0.563 0.19, 0.7508 0.563 0.1205, 0.7689 0.563 0.1275, 0.7847 0.563 0.1388, 0.7973 0.563 0.1536, 0.8059 0.563 0.171, 0.81 0.563 0.19, 0.8036 0.5838 0.171, 0.7952 0.5818 0.1536, 0.7829 0.579 0.1388, 0.7675 0.5755 0.1275, 0.7498 0.5715 0.1205, 0.747 0.5796 0.1205, 0.7425 0.5868 0.1205, 0.7364 0.5929 0.1205, 0.7292 0.5974 0.1205, 0.7211 0.6002 0.1205, 0.7126 0.6012 0.1205, 0.7633 0.5874 0.1275, 0.7566 0.5981 0.1275, 0.7477 0.607 0.1275, 0.737 0.6137 0.1275, 0.7251 0.6179 0.1275, 0.7126 0.6193 0.1275, 0.7776 0.5943 0.1388, 0.769 0.608 0.1388, 0.7576 0.6194 0.1388, 0.7439 0.628 0.1388, 0.7286 0.6333 0.1388, 0.7126 0.6351 0.1388, 0.7889 0.5997 0.1536, 0.7788 0.6158 0.1536, 0.7654 0.6292 0.1536, 0.7494 0.6393 0.1536, 0.7314 0.6456 0.1536, 0.7126 0.6477 0.1536, 0.7967 0.6035 0.171, 0.7855 0.6212 0.171, 0.7708 0.6359 0.171, 0.7531 0.647 0.171, 0.7334 0.6539 0.171, 0.7126 0.6563 0.171, 0.8075 0.5847 0.19, 0.8003 0.6052 0.19, 0.7887 0.6237 0.19, 0.7733 0.6391 0.19, 0.7548 0.6507 0.19, 0.7343 0.6579 0.19, 0.7126 0.6604 0.19, -0.7126 0.6012 0.1205, -0.7126 0.6193 0.1275, -0.7126 0.6351 0.1388, -0.7126 0.6477 0.1536, -0.7126 0.6563 0.171, -0.7508 0.563 0.1205, -0.7498 0.5715 0.1205, -0.7689 0.563 0.1275, -0.7675 0.5755 0.1275, -0.7847 0.563 0.1388, -0.7829 0.579 0.1388, -0.7973 0.563 0.1536, -0.7952 0.5818 0.1536, -0.8059 0.563 0.171, -0.8036 0.5838 0.171, -0.7967 0.6035 0.171, -0.7855 0.6212 0.171, -0.7708 0.6359 0.171, -0.7531 0.647 0.171, -0.7334 0.6539 0.171, -0.7889 0.5997 0.1536, -0.7788 0.6158 0.1536, -0.7654 0.6292 0.1536, -0.7494 0.6393 0.1536, -0.7314 0.6456 0.1536, -0.7776 0.5943 0.1388, -0.769 0.608 0.1388, -0.7576 0.6194 0.1388, -0.7439 0.628 0.1388, -0.7286 0.6333 0.1388, -0.7633 0.5874 0.1275, -0.7566 0.5981 0.1275, -0.7477 0.607 0.1275, -0.737 0.6137 0.1275, -0.7251 0.6179 0.1275, -0.747 0.5796 0.1205, -0.7425 0.5868 0.1205, -0.7364 0.5929 0.1205, -0.7292 0.5974 0.1205, -0.7211 0.6002 0.1205, -0.7508 -0.563 0.1205, -0.7689 -0.563 0.1275, -0.7847 -0.563 0.1388, -0.7973 -0.563 0.1536, -0.8059 -0.563 0.171, -0.7126 -0.6012 0.1205, -0.7211 -0.6002 0.1205, -0.7126 -0.6193 0.1275, -0.7251 -0.6179 0.1275, -0.7126 -0.6351 0.1388, -0.7286 -0.6333 0.1388, -0.7126 -0.6477 0.1536, -0.7314 -0.6456 0.1536, -0.7126 -0.6563 0.171, -0.7334 -0.6539 0.171, -0.7531 -0.647 0.171, -0.7708 -0.6359 0.171, -0.7855 -0.6212 0.171, -0.7967 -0.6035 0.171, -0.8036 -0.5838 0.171, -0.7494 -0.6393 0.1536, -0.7654 -0.6292 0.1536, -0.7788 -0.6158 0.1536, -0.7889 -0.5997 0.1536, -0.7952 -0.5818 0.1536, -0.7439 -0.628 0.1388, -0.7576 -0.6194 0.1388, -0.769 -0.608 0.1388, -0.7776 -0.5943 0.1388, -0.7829 -0.579 0.1388, -0.737 -0.6137 0.1275, -0.7477 -0.607 0.1275, -0.7566 -0.5981 0.1275, -0.7633 -0.5874 0.1275, -0.7675 -0.5755 0.1275, -0.7292 -0.5974 0.1205, -0.7364 -0.5929 0.1205, -0.7425 -0.5868 0.1205, -0.747 -0.5796 0.1205, -0.7498 -0.5715 0.1205
            ]
        }
        coordIndex [
            0,1,2,-1,0,2,3,-1,3,2,4,-1,3,4,5,-1,5,4,6,-1,5,6,7,-1,7,6,8,-1,7,8,9,-1,9,8,10,-1,9,10,11,-1,11,10,12,-1,11,12,13,-1,14,15,16,-1,15,17,18,-1,17,19,20,-1,19,21,22,-1,21,23,24,-1,23,25,26,-1,23,26,24,-1,24,26,27,-1,24,27,28,-1,28,27,29,-1,28,29,30,-1,30,29,31,-1,30,31,32,-1,32,31,33,-1,32,33,34,-1,34,33,35,-1,34,35,36,-1,36,35,12,-1,36,12,10,-1,21,24,22,-1,22,24,28,-1,22,28,37,-1,37,28,30,-1,37,30,38,-1,38,30,32,-1,38,32,39,-1,39,32,34,-1,39,34,40,-1,40,34,36,-1,40,36,41,-1,41,36,10,-1,41,10,8,-1,19,22,20,-1,20,22,37,-1,20,37,42,-1,42,37,38,-1,42,38,43,-1,43,38,39,-1,43,39,44,-1,44,39,40,-1,44,40,45,-1,45,40,41,-1,45,41,46,-1,46,41,8,-1,46,8,6,-1,17,20,18,-1,18,20,42,-1,18,42,47,-1,47,42,43,-1,47,43,48,-1,48,43,44,-1,48,44,49,-1,49,44,45,-1,49,45,50,-1,50,45,46,-1,50,46,51,-1,51,46,6,-1,51,6,4,-1,15,18,16,-1,16,18,47,-1,16,47,52,-1,52,47,48,-1,52,48,53,-1,53,48,49,-1,53,49,54,-1,54,49,50,-1,54,50,55,-1,55,50,51,-1,55,51,56,-1,56,51,4,-1,56,4,2,-1,14,16,57,-1,57,16,52,-1,57,52,58,-1,58,52,53,-1,58,53,59,-1,59,53,54,-1,59,54,60,-1,60,54,55,-1,60,55,61,-1,61,55,56,-1,61,56,62,-1,62,56,2,-1,62,2,1,-1,0,3,63,-1,3,5,64,-1,5,7,65,-1,7,9,66,-1,9,11,67,-1,11,13,68,-1,11,68,67,-1,67,68,69,-1,67,69,70,-1,70,69,71,-1,70,71,72,-1,72,71,73,-1,72,73,74,-1,74,73,75,-1,74,75,76,-1,76,75,77,-1,76,77,78,-1,78,77,79,-1,78,79,80,-1,9,67,66,-1,66,67,70,-1,66,70,81,-1,81,70,72,-1,81,72,82,-1,82,72,74,-1,82,74,83,-1,83,74,76,-1,83,76,84,-1,84,76,78,-1,84,78,85,-1,85,78,80,-1,85,80,86,-1,7,66,65,-1,65,66,81,-1,65,81,87,-1,87,81,82,-1,87,82,88,-1,88,82,83,-1,88,83,89,-1,89,83,84,-1,89,84,90,-1,90,84,85,-1,90,85,91,-1,91,85,86,-1,91,86,92,-1,5,65,64,-1,64,65,87,-1,64,87,93,-1,93,87,88,-1,93,88,94,-1,94,88,89,-1,94,89,95,-1,95,89,90,-1,95,90,96,-1,96,90,91,-1,96,91,97,-1,97,91,92,-1,97,92,98,-1,3,64,63,-1,63,64,93,-1,63,93,99,-1,99,93,94,-1,99,94,100,-1,100,94,95,-1,100,95,101,-1,101,95,96,-1,101,96,102,-1,102,96,97,-1,102,97,103,-1,103,97,98,-1,103,98,104,-1,0,63,105,-1,105,63,99,-1,105,99,106,-1,106,99,100,-1,106,100,107,-1,107,100,101,-1,107,101,108,-1,108,101,102,-1,108,102,109,-1,109,102,103,-1,109,103,110,-1,110,103,104,-1,110,104,111,-1,112,25,23,-1,14,113,114,-1,115,116,117,-1,14,114,15,-1,15,114,118,-1,15,118,17,-1,17,118,119,-1,17,119,19,-1,19,119,120,-1,19,120,21,-1,21,120,115,-1,21,115,23,-1,23,115,117,-1,23,117,112,-1,121,111,104,-1,79,122,80,-1,80,122,123,-1,121,104,124,-1,124,104,98,-1,124,98,125,-1,125,98,92,-1,125,92,126,-1,126,92,86,-1,126,86,127,-1,127,86,80,-1,127,80,128,-1,128,80,123,-1,128,123,129,-1,130,131,132,-1,131,133,134,-1,133,135,136,-1,135,137,138,-1,137,139,140,-1,139,141,142,-1,139,142,140,-1,140,142,143,-1,140,143,144,-1,144,143,145,-1,144,145,146,-1,146,145,147,-1,146,147,148,-1,148,147,149,-1,148,149,150,-1,150,149,151,-1,150,151,152,-1,152,151,116,-1,152,116,115,-1,137,140,138,-1,138,140,144,-1,138,144,153,-1,153,144,146,-1,153,146,154,-1,154,146,148,-1,154,148,155,-1,155,148,150,-1,155,150,156,-1,156,150,152,-1,156,152,157,-1,157,152,115,-1,157,115,120,-1,135,138,136,-1,136,138,153,-1,136,153,158,-1,158,153,154,-1,158,154,159,-1,159,154,155,-1,159,155,160,-1,160,155,156,-1,160,156,161,-1,161,156,157,-1,161,157,162,-1,162,157,120,-1,162,120,119,-1,133,136,134,-1,134,136,158,-1,134,158,163,-1,163,158,159,-1,163,159,164,-1,164,159,160,-1,164,160,165,-1,165,160,161,-1,165,161,166,-1,166,161,162,-1,166,162,167,-1,167,162,119,-1,167,119,118,-1,131,134,132,-1,132,134,163,-1,132,163,168,-1,168,163,164,-1,168,164,169,-1,169,164,165,-1,169,165,170,-1,170,165,166,-1,170,166,171,-1,171,166,167,-1,171,167,172,-1,172,167,118,-1,172,118,114,-1,130,132,173,-1,173,132,168,-1,173,168,174,-1,174,168,169,-1,174,169,175,-1,175,169,170,-1,175,170,176,-1,176,170,171,-1,176,171,177,-1,177,171,172,-1,177,172,178,-1,178,172,114,-1,178,114,113,-1,121,124,179,-1,124,125,180,-1,125,126,181,-1,126,127,182,-1,127,128,183,-1,128,129,184,-1,128,184,183,-1,183,184,185,-1,183,185,186,-1,186,185,187,-1,186,187,188,-1,188,187,189,-1,188,189,190,-1,190,189,191,-1,190,191,192,-1,192,191,193,-1,192,193,194,-1,194,193,195,-1,194,195,196,-1,127,183,182,-1,182,183,186,-1,182,186,197,-1,197,186,188,-1,197,188,198,-1,198,188,190,-1,198,190,199,-1,199,190,192,-1,199,192,200,-1,200,192,194,-1,200,194,201,-1,201,194,196,-1,201,196,202,-1,126,182,181,-1,181,182,197,-1,181,197,203,-1,203,197,198,-1,203,198,204,-1,204,198,199,-1,204,199,205,-1,205,199,200,-1,205,200,206,-1,206,200,201,-1,206,201,207,-1,207,201,202,-1,207,202,208,-1,125,181,180,-1,180,181,203,-1,180,203,209,-1,209,203,204,-1,209,204,210,-1,210,204,205,-1,210,205,211,-1,211,205,206,-1,211,206,212,-1,212,206,207,-1,212,207,213,-1,213,207,208,-1,213,208,214,-1,124,180,179,-1,179,180,209,-1,179,209,215,-1,215,209,210,-1,215,210,216,-1,216,210,211,-1,216,211,217,-1,217,211,212,-1,217,212,218,-1,218,212,213,-1,218,213,219,-1,219,213,214,-1,219,214,220,-1,121,179,221,-1,221,179,215,-1,221,215,222,-1,222,215,216,-1,222,216,223,-1,223,216,217,-1,223,217,224,-1,224,217,218,-1,224,218,225,-1,225,218,219,-1,225,219,226,-1,226,219,220,-1,226,220,227,-1,130,227,220,-1,130,220,131,-1,131,220,214,-1,131,214,133,-1,133,214,208,-1,133,208,135,-1,135,208,202,-1,135,202,137,-1,137,202,196,-1,137,196,139,-1,139,196,195,-1,139,195,141,-1,228,229,230,-1,228,230,231,-1,231,230,232,-1,231,232,233,-1,233,232,234,-1,233,234,235,-1,235,234,236,-1,235,236,237,-1,237,236,238,-1,237,238,239,-1,239,238,240,-1,239,240,241,-1,241,240,242,-1,241,242,243,-1,243,242,244,-1,244,242,245,-1,244,245,246,-1,244,246,247,-1,247,246,248,-1,247,248,249,-1,249,248,250,-1,249,250,251,-1,251,250,252,-1,251,252,253,-1,253,252,254,-1,253,254,255,-1,255,254,256,-1,255,256,257,-1,257,256,258,-1,257,258,259,-1,260,261,262,-1,263,264,265,-1,265,266,263,-1,263,266,267,-1,263,267,268,-1,262,269,260,-1,260,269,270,-1,260,270,271,-1,271,272,260,-1,260,272,273,-1,260,273,274,-1,274,273,275,-1,274,275,263,-1,263,275,276,-1,263,276,264,-1,277,278,279,-1,280,281,277,-1,278,282,279,-1,279,282,283,-1,279,283,284,-1,284,285,279,-1,279,285,286,-1,279,286,287,-1,275,273,279,-1,279,273,288,-1,279,288,277,-1,277,288,289,-1,277,289,280,-1,290,291,281,-1,281,291,292,-1,281,292,277,-1,293,294,295,-1,296,297,298,-1,295,299,293,-1,293,299,300,-1,293,300,301,-1,297,302,298,-1,298,302,303,-1,298,303,304,-1,301,305,293,-1,293,305,306,-1,293,306,307,-1,307,306,308,-1,307,308,298,-1,298,308,309,-1,298,309,296,-1,308,306,310,-1,310,306,311,-1,312,313,311,-1,314,315,310,-1,311,313,310,-1,310,313,316,-1,310,316,314,-1,315,317,310,-1,310,317,318,-1,310,318,319,-1,319,318,320,-1,321,311,322,-1,322,311,323,-1,321,324,311,-1,311,324,325,-1,311,325,312,-1,308,310,326,-1,308,326,309,-1,309,326,327,-1,309,327,296,-1,296,327,328,-1,296,328,297,-1,297,328,329,-1,297,329,302,-1,302,329,330,-1,302,330,303,-1,303,330,331,-1,303,331,304,-1,331,330,332,-1,330,329,333,-1,329,328,334,-1,328,327,335,-1,327,326,336,-1,326,310,319,-1,326,319,336,-1,336,319,320,-1,336,320,337,-1,337,320,318,-1,337,318,338,-1,338,318,317,-1,338,317,339,-1,339,317,315,-1,339,315,340,-1,340,315,314,-1,340,314,341,-1,341,314,316,-1,341,316,342,-1,327,336,335,-1,335,336,337,-1,335,337,343,-1,343,337,338,-1,343,338,344,-1,344,338,339,-1,344,339,345,-1,345,339,340,-1,345,340,346,-1,346,340,341,-1,346,341,347,-1,347,341,342,-1,347,342,348,-1,328,335,334,-1,334,335,343,-1,334,343,349,-1,349,343,344,-1,349,344,350,-1,350,344,345,-1,350,345,351,-1,351,345,346,-1,351,346,352,-1,352,346,347,-1,352,347,353,-1,353,347,348,-1,353,348,354,-1,329,334,333,-1,333,334,349,-1,333,349,355,-1,355,349,350,-1,355,350,356,-1,356,350,351,-1,356,351,357,-1,357,351,352,-1,357,352,358,-1,358,352,353,-1,358,353,359,-1,359,353,354,-1,359,354,360,-1,330,333,332,-1,332,333,355,-1,332,355,361,-1,361,355,356,-1,361,356,362,-1,362,356,357,-1,362,357,363,-1,363,357,358,-1,363,358,364,-1,364,358,359,-1,364,359,365,-1,365,359,360,-1,365,360,366,-1,331,332,367,-1,367,332,361,-1,367,361,368,-1,368,361,362,-1,368,362,369,-1,369,362,363,-1,369,363,370,-1,370,363,364,-1,370,364,371,-1,371,364,365,-1,371,365,372,-1,372,365,366,-1,372,366,373,-1,316,313,374,-1,316,374,342,-1,342,374,375,-1,342,375,348,-1,348,375,376,-1,348,376,354,-1,354,376,377,-1,354,377,360,-1,360,377,378,-1,360,378,366,-1,366,378,379,-1,366,379,373,-1,379,378,380,-1,378,377,381,-1,377,376,382,-1,376,375,383,-1,375,374,384,-1,374,313,312,-1,374,312,384,-1,384,312,325,-1,384,325,385,-1,385,325,324,-1,385,324,386,-1,386,324,321,-1,386,321,387,-1,387,321,322,-1,387,322,388,-1,388,322,323,-1,388,323,389,-1,389,323,311,-1,389,311,390,-1,375,384,383,-1,383,384,385,-1,383,385,391,-1,391,385,386,-1,391,386,392,-1,392,386,387,-1,392,387,393,-1,393,387,388,-1,393,388,394,-1,394,388,389,-1,394,389,395,-1,395,389,390,-1,395,390,396,-1,376,383,382,-1,382,383,391,-1,382,391,397,-1,397,391,392,-1,397,392,398,-1,398,392,393,-1,398,393,399,-1,399,393,394,-1,399,394,400,-1,400,394,395,-1,400,395,401,-1,401,395,396,-1,401,396,402,-1,377,382,381,-1,381,382,397,-1,381,397,403,-1,403,397,398,-1,403,398,404,-1,404,398,399,-1,404,399,405,-1,405,399,400,-1,405,400,406,-1,406,400,401,-1,406,401,407,-1,407,401,402,-1,407,402,408,-1,378,381,380,-1,380,381,403,-1,380,403,409,-1,409,403,404,-1,409,404,410,-1,410,404,405,-1,410,405,411,-1,411,405,406,-1,411,406,412,-1,412,406,407,-1,412,407,413,-1,413,407,408,-1,413,408,414,-1,379,380,415,-1,415,380,409,-1,415,409,416,-1,416,409,410,-1,416,410,417,-1,417,410,411,-1,417,411,418,-1,418,411,412,-1,418,412,419,-1,419,412,413,-1,419,413,420,-1,420,413,414,-1,420,414,421,-1,311,306,305,-1,311,305,390,-1,390,305,301,-1,390,301,396,-1,396,301,300,-1,396,300,402,-1,402,300,299,-1,402,299,408,-1,408,299,295,-1,408,295,414,-1,414,295,294,-1,414,294,421,-1,275,279,422,-1,275,422,276,-1,276,422,423,-1,276,423,264,-1,264,423,424,-1,264,424,265,-1,265,424,425,-1,265,425,266,-1,266,425,426,-1,266,426,267,-1,267,426,259,-1,267,259,268,-1,278,427,428,-1,427,429,430,-1,429,431,432,-1,431,433,434,-1,433,435,436,-1,435,244,247,-1,435,247,436,-1,436,247,249,-1,436,249,437,-1,437,249,251,-1,437,251,438,-1,438,251,253,-1,438,253,439,-1,439,253,255,-1,439,255,440,-1,440,255,257,-1,440,257,441,-1,441,257,259,-1,441,259,426,-1,433,436,434,-1,434,436,437,-1,434,437,442,-1,442,437,438,-1,442,438,443,-1,443,438,439,-1,443,439,444,-1,444,439,440,-1,444,440,445,-1,445,440,441,-1,445,441,446,-1,446,441,426,-1,446,426,425,-1,431,434,432,-1,432,434,442,-1,432,442,447,-1,447,442,443,-1,447,443,448,-1,448,443,444,-1,448,444,449,-1,449,444,445,-1,449,445,450,-1,450,445,446,-1,450,446,451,-1,451,446,425,-1,451,425,424,-1,429,432,430,-1,430,432,447,-1,430,447,452,-1,452,447,448,-1,452,448,453,-1,453,448,449,-1,453,449,454,-1,454,449,450,-1,454,450,455,-1,455,450,451,-1,455,451,456,-1,456,451,424,-1,456,424,423,-1,427,430,428,-1,428,430,452,-1,428,452,457,-1,457,452,453,-1,457,453,458,-1,458,453,454,-1,458,454,459,-1,459,454,455,-1,459,455,460,-1,460,455,456,-1,460,456,461,-1,461,456,423,-1,461,423,422,-1,278,428,282,-1,282,428,457,-1,282,457,283,-1,283,457,458,-1,283,458,284,-1,284,458,459,-1,284,459,285,-1,285,459,460,-1,285,460,286,-1,286,460,461,-1,286,461,287,-1,287,461,422,-1,287,422,279,-1,278,277,462,-1,278,462,427,-1,427,462,463,-1,427,463,429,-1,429,463,464,-1,429,464,431,-1,431,464,465,-1,431,465,433,-1,433,465,466,-1,433,466,435,-1,435,466,243,-1,435,243,244,-1,288,467,468,-1,467,469,470,-1,469,471,472,-1,471,473,474,-1,473,475,476,-1,475,228,231,-1,475,231,476,-1,476,231,233,-1,476,233,477,-1,477,233,235,-1,477,235,478,-1,478,235,237,-1,478,237,479,-1,479,237,239,-1,479,239,480,-1,480,239,241,-1,480,241,481,-1,481,241,243,-1,481,243,466,-1,473,476,474,-1,474,476,477,-1,474,477,482,-1,482,477,478,-1,482,478,483,-1,483,478,479,-1,483,479,484,-1,484,479,480,-1,484,480,485,-1,485,480,481,-1,485,481,486,-1,486,481,466,-1,486,466,465,-1,471,474,472,-1,472,474,482,-1,472,482,487,-1,487,482,483,-1,487,483,488,-1,488,483,484,-1,488,484,489,-1,489,484,485,-1,489,485,490,-1,490,485,486,-1,490,486,491,-1,491,486,465,-1,491,465,464,-1,469,472,470,-1,470,472,487,-1,470,487,492,-1,492,487,488,-1,492,488,493,-1,493,488,489,-1,493,489,494,-1,494,489,490,-1,494,490,495,-1,495,490,491,-1,495,491,496,-1,496,491,464,-1,496,464,463,-1,467,470,468,-1,468,470,492,-1,468,492,497,-1,497,492,493,-1,497,493,498,-1,498,493,494,-1,498,494,499,-1,499,494,495,-1,499,495,500,-1,500,495,496,-1,500,496,501,-1,501,496,463,-1,501,463,462,-1,288,468,289,-1,289,468,497,-1,289,497,280,-1,280,497,498,-1,280,498,281,-1,281,498,499,-1,281,499,290,-1,290,499,500,-1,290,500,291,-1,291,500,501,-1,291,501,292,-1,292,501,462,-1,292,462,277,-1,288,273,272,-1,288,272,467,-1,467,272,271,-1,467,271,469,-1,469,271,270,-1,469,270,471,-1,471,270,269,-1,471,269,473,-1,473,269,262,-1,473,262,475,-1,475,262,261,-1,475,261,228,-1,
        ]
    }
}
Shape{
    appearance Appearance {
        material  Material 	{
            diffuseColor 0.6666666666666666 0.6666666666666666 0.6666666666666666
            specularColor 0.4666666666666667 0.4666666666666667 0.4666666666666667
            ambientIntensity 0.6667
            transparency 0.0
            shininess 0.5
        }
    }
    geometry IndexedFaceSet {
        ccw TRUE
        solid FALSE
        coord DEF co Coordinate {
            point [
                -0.8504 -0.3996 0.4276, -0.9528 -0.3996 0.4276, -0.8504 0.3996 0.4276, -0.9528 0.3996 0.4276, -0.9528 0.3996 0.5181, -0.9528 -0.3996 0.5181, -0.8307 0.3996 0.5181, -0.8307 -0.3996 0.5181, -0.8504 0.3996 0.5177, -1.0709 0.3996 0.4, -1.0668 0.3996 0.4306, -1.055 0.3996 0.4591, -0.9599 0.3996 0.4266, -0.9665 0.3996 0.4239, -0.9722 0.3996 0.4195, -0.9766 0.3996 0.4138, -1.0363 0.3996 0.4835, -1.0118 0.3996 0.5023, -0.9833 0.3996 0.5141, -0.8307 0.3996 0.5177, -0.6693 0.3996 0.0906, -0.6693 0.3996 0.0, -0.9528 0.3996 0.0906, -0.9528 0.3996 0.0, -0.9589 0.3996 0.0912, -0.979 0.3996 0.003, -0.9647 0.3996 0.0933, -1.004 0.3996 0.0117, -0.9699 0.3996 0.0966, -1.0264 0.3996 0.0258, -0.9743 0.3996 0.1009, -1.0451 0.3996 0.0445, -0.9776 0.3996 0.1062, -1.0592 0.3996 0.0669, -0.9796 0.3996 0.112, -1.0679 0.3996 0.0918, -0.9803 0.3996 0.1181, -1.0709 0.3996 0.1181, -0.9803 0.3996 0.4, -0.9794 0.3996 0.4071, -0.8307 -0.3996 0.5177, -0.8504 -0.3996 0.5177, -0.9599 -0.3996 0.4266, -0.9833 -0.3996 0.5141, -0.9665 -0.3996 0.4239, -1.0118 -0.3996 0.5023, -0.9722 -0.3996 0.4195, -1.0363 -0.3996 0.4835, -0.9766 -0.3996 0.4138, -1.055 -0.3996 0.4591, -0.9794 -0.3996 0.4071, -1.0668 -0.3996 0.4306, -0.9803 -0.3996 0.4, -1.0709 -0.3996 0.4, -0.9803 -0.3996 0.1181, -1.0709 -0.3996 0.1181, -0.9796 -0.3996 0.112, -1.0679 -0.3996 0.0918, -0.9776 -0.3996 0.1062, -1.0592 -0.3996 0.0669, -0.9743 -0.3996 0.1009, -1.0451 -0.3996 0.0445, -0.9699 -0.3996 0.0966, -1.0264 -0.3996 0.0258, -0.9647 -0.3996 0.0933, -1.004 -0.3996 0.0117, -0.9589 -0.3996 0.0912, -0.979 -0.3996 0.003, -0.9528 -0.3996 0.0906, -0.9528 -0.3996 0.0, -0.6693 -0.3996 0.0906, -0.6693 -0.3996 0.0, 0.9528 0.3996 0.4276, 0.9528 -0.3996 0.4276, 0.8504 0.3996 0.4276, 0.8504 -0.3996 0.4276, 0.8307 -0.3996 0.5181, 0.9528 -0.3996 0.5181, 0.8307 0.3996 0.5181, 0.9528 0.3996 0.5181, 0.8307 0.3996 0.5177, 0.8504 0.3996 0.5177, 0.9599 0.3996 0.4266, 0.9833 0.3996 0.5141, 0.9665 0.3996 0.4239, 1.0118 0.3996 0.5023, 0.9722 0.3996 0.4195, 1.0363 0.3996 0.4835, 0.9766 0.3996 0.4138, 1.055 0.3996 0.4591, 0.9794 0.3996 0.4071, 1.0668 0.3996 0.4306, 0.9803 0.3996 0.4, 1.0709 0.3996 0.4, 0.9803 0.3996 0.1181, 1.0709 0.3996 0.1181, 0.9796 0.3996 0.112, 1.0679 0.3996 0.0918, 0.9776 0.3996 0.1062, 1.0592 0.3996 0.0669, 0.9743 0.3996 0.1009, 1.0451 0.3996 0.0445, 0.9699 0.3996 0.0966, 1.0264 0.3996 0.0258, 0.9647 0.3996 0.0933, 1.004 0.3996 0.0117, 0.9589 0.3996 0.0912, 0.979 0.3996 0.003, 0.9528 0.3996 0.0906, 0.9528 0.3996 0.0, 0.6693 0.3996 0.0906, 0.6693 0.3996 0.0, 0.8504 -0.3996 0.5177, 1.0709 -0.3996 0.4, 1.0668 -0.3996 0.4306, 1.055 -0.3996 0.4591, 0.9599 -0.3996 0.4266, 0.9665 -0.3996 0.4239, 0.9722 -0.3996 0.4195, 0.9766 -0.3996 0.4138, 1.0363 -0.3996 0.4835, 1.0118 -0.3996 0.5023, 0.9833 -0.3996 0.5141, 0.8307 -0.3996 0.5177, 0.6693 -0.3996 0.0906, 0.6693 -0.3996 0.0, 0.9528 -0.3996 0.0906, 0.9528 -0.3996 0.0, 0.9589 -0.3996 0.0912, 0.979 -0.3996 0.003, 0.9647 -0.3996 0.0933, 1.004 -0.3996 0.0117, 0.9699 -0.3996 0.0966, 1.0264 -0.3996 0.0258, 0.9743 -0.3996 0.1009, 1.0451 -0.3996 0.0445, 0.9776 -0.3996 0.1062, 1.0592 -0.3996 0.0669, 0.9796 -0.3996 0.112, 1.0679 -0.3996 0.0918, 0.9803 -0.3996 0.1181, 1.0709 -0.3996 0.1181, 0.9803 -0.3996 0.4, 0.9794 -0.3996 0.4071
            ]
        }
        coordIndex [
            0,1,2,-1,2,1,3,-1,4,5,6,-1,6,5,7,-1,8,2,3,-1,9,10,8,-1,8,10,11,-1,3,12,8,-1,8,12,13,-1,8,13,9,-1,9,13,14,-1,9,14,15,-1,11,16,8,-1,8,16,17,-1,8,17,18,-1,18,4,8,-1,8,4,6,-1,8,6,19,-1,20,21,22,-1,22,21,23,-1,22,23,24,-1,24,23,25,-1,24,25,26,-1,26,25,27,-1,26,27,28,-1,28,27,29,-1,28,29,30,-1,30,29,31,-1,30,31,32,-1,32,31,33,-1,32,33,34,-1,34,33,35,-1,34,35,36,-1,36,35,37,-1,36,37,38,-1,38,37,9,-1,38,9,39,-1,39,9,15,-1,40,7,41,-1,41,7,5,-1,0,41,1,-1,1,41,5,-1,1,5,42,-1,42,5,43,-1,42,43,44,-1,44,43,45,-1,44,45,46,-1,46,45,47,-1,46,47,48,-1,48,47,49,-1,48,49,50,-1,50,49,51,-1,50,51,52,-1,52,51,53,-1,52,53,54,-1,54,53,55,-1,54,55,56,-1,56,55,57,-1,56,57,58,-1,58,57,59,-1,58,59,60,-1,60,59,61,-1,60,61,62,-1,62,61,63,-1,62,63,64,-1,64,63,65,-1,64,65,66,-1,66,65,67,-1,66,67,68,-1,68,67,69,-1,68,69,70,-1,70,69,71,-1,20,22,70,-1,70,22,68,-1,21,20,71,-1,71,20,70,-1,23,21,69,-1,69,21,71,-1,23,69,67,-1,23,67,25,-1,25,67,65,-1,25,65,27,-1,27,65,63,-1,27,63,29,-1,29,63,61,-1,29,61,31,-1,31,61,59,-1,31,59,33,-1,33,59,57,-1,33,57,35,-1,35,57,55,-1,35,55,37,-1,9,37,53,-1,53,37,55,-1,9,53,51,-1,9,51,10,-1,10,51,49,-1,10,49,11,-1,11,49,47,-1,11,47,16,-1,16,47,45,-1,16,45,17,-1,17,45,43,-1,17,43,18,-1,18,43,5,-1,18,5,4,-1,3,1,12,-1,12,1,42,-1,12,42,13,-1,13,42,44,-1,13,44,14,-1,14,44,46,-1,14,46,15,-1,15,46,48,-1,15,48,39,-1,39,48,50,-1,39,50,38,-1,38,50,52,-1,36,38,54,-1,54,38,52,-1,36,54,34,-1,34,54,56,-1,34,56,32,-1,32,56,58,-1,32,58,30,-1,30,58,60,-1,30,60,28,-1,28,60,62,-1,28,62,26,-1,26,62,64,-1,26,64,24,-1,24,64,66,-1,24,66,22,-1,22,66,68,-1,72,73,74,-1,74,73,75,-1,76,77,78,-1,78,77,79,-1,80,78,81,-1,81,78,79,-1,74,81,72,-1,72,81,79,-1,72,79,82,-1,82,79,83,-1,82,83,84,-1,84,83,85,-1,84,85,86,-1,86,85,87,-1,86,87,88,-1,88,87,89,-1,88,89,90,-1,90,89,91,-1,90,91,92,-1,92,91,93,-1,92,93,94,-1,94,93,95,-1,94,95,96,-1,96,95,97,-1,96,97,98,-1,98,97,99,-1,98,99,100,-1,100,99,101,-1,100,101,102,-1,102,101,103,-1,102,103,104,-1,104,103,105,-1,104,105,106,-1,106,105,107,-1,106,107,108,-1,108,107,109,-1,108,109,110,-1,110,109,111,-1,112,75,73,-1,113,114,112,-1,112,114,115,-1,73,116,112,-1,112,116,117,-1,112,117,113,-1,113,117,118,-1,113,118,119,-1,115,120,112,-1,112,120,121,-1,112,121,122,-1,122,77,112,-1,112,77,76,-1,112,76,123,-1,124,125,126,-1,126,125,127,-1,126,127,128,-1,128,127,129,-1,128,129,130,-1,130,129,131,-1,130,131,132,-1,132,131,133,-1,132,133,134,-1,134,133,135,-1,134,135,136,-1,136,135,137,-1,136,137,138,-1,138,137,139,-1,138,139,140,-1,140,139,141,-1,140,141,142,-1,142,141,113,-1,142,113,143,-1,143,113,119,-1,108,110,126,-1,126,110,124,-1,108,126,106,-1,106,126,128,-1,106,128,104,-1,104,128,130,-1,104,130,102,-1,102,130,132,-1,102,132,100,-1,100,132,134,-1,100,134,98,-1,98,134,136,-1,98,136,96,-1,96,136,138,-1,96,138,94,-1,94,138,140,-1,92,94,142,-1,142,94,140,-1,92,142,90,-1,90,142,143,-1,90,143,88,-1,88,143,119,-1,88,119,86,-1,86,119,118,-1,86,118,84,-1,84,118,117,-1,84,117,82,-1,82,117,116,-1,82,116,72,-1,72,116,73,-1,79,77,122,-1,79,122,83,-1,83,122,121,-1,83,121,85,-1,85,121,120,-1,85,120,87,-1,87,120,115,-1,87,115,89,-1,89,115,114,-1,89,114,91,-1,91,114,113,-1,91,113,93,-1,95,93,141,-1,141,93,113,-1,95,141,139,-1,95,139,97,-1,97,139,137,-1,97,137,99,-1,99,137,135,-1,99,135,101,-1,101,135,133,-1,101,133,103,-1,103,133,131,-1,103,131,105,-1,105,131,129,-1,105,129,107,-1,107,129,127,-1,107,127,109,-1,111,109,125,-1,125,109,127,-1,110,111,124,-1,124,111,125,-1,
        ]
    }
}
Shape{
    appearance Appearance {
        material  Material 	{
            diffuseColor 1.0 1.0 1.0
            specularColor 0.8784313725490196 0.8784313725490196 0.8784313725490196
            ambientIntensity 1.0
            transparency 0.0
            shininess 0.5
        }
    }
    geometry IndexedFaceSet {
        ccw TRUE
        solid FALSE
        coord DEF co Coordinate {
            point [
                -0.1335 0.0423 0.0787, -0.1642 -0.0364 0.0787, -0.1335 0.0423 0.0394, -0.1642 -0.0364 0.0394, -0.1527 -0.0364 0.0787, -0.1527 -0.0364 0.0394, -0.1447 -0.0143 0.0787, -0.1447 -0.0143 0.0394, -0.1122 -0.0143 0.0787, -0.1122 -0.0143 0.0394, -0.1047 -0.0364 0.0787, -0.1047 -0.0364 0.0394, -0.0931 -0.0364 0.0787, -0.0931 -0.0364 0.0394, -0.1229 0.0423 0.0787, -0.1229 0.0423 0.0394, -0.1148 -0.0057 0.0787, -0.1412 -0.0057 0.0787, -0.1266 0.0272 0.0787, -0.1273 0.0299 0.0787, -0.1278 0.0327 0.0787, -0.1281 0.0327 0.0787, -0.1286 0.03 0.0787, -0.1293 0.0272 0.0787, -0.1148 -0.0057 0.0394, -0.1412 -0.0057 0.0394, -0.1266 0.0272 0.0394, -0.1273 0.0299 0.0394, -0.1278 0.0327 0.0394, -0.1281 0.0327 0.0394, -0.1286 0.03 0.0394, -0.1293 0.0272 0.0394, -0.0454 -0.0364 0.0787, -0.024 -0.0364 0.0787, -0.0454 -0.0364 0.0394, -0.024 -0.0364 0.0394, -0.024 0.0423 0.0787, -0.024 0.0423 0.0394, -0.0462 0.0423 0.0787, -0.0462 0.0423 0.0394, -0.0874 0.004 0.0787, -0.0874 0.004 0.0394, -0.0868 0.0114 0.0394, -0.0868 0.0114 0.0787, -0.0847 0.0191 0.0394, -0.0847 0.0191 0.0787, -0.081 0.0259 0.0394, -0.081 0.0259 0.0787, -0.0755 0.0321 0.0394, -0.0755 0.0321 0.0787, -0.0754 0.0321 0.0394, -0.0754 0.0321 0.0787, -0.0668 0.0379 0.0394, -0.0668 0.0379 0.0787, -0.0576 0.0411 0.0394, -0.0576 0.0411 0.0787, -0.0552 -0.0356 0.0394, -0.0552 -0.0356 0.0787, -0.0642 -0.0328 0.0394, -0.0642 -0.0328 0.0787, -0.0725 -0.0281 0.0394, -0.0725 -0.0281 0.0787, -0.0789 -0.0219 0.0394, -0.0789 -0.0219 0.0787, -0.0835 -0.0148 0.0394, -0.0835 -0.0148 0.0787, -0.0863 -0.0066 0.0394, -0.0863 -0.0066 0.0787, -0.0716 0.0227 0.0787, -0.0678 0.0267 0.0787, -0.062 0.0304 0.0787, -0.0555 0.0327 0.0787, -0.0462 0.0337 0.0787, -0.0346 0.0337 0.0787, -0.0346 -0.0278 0.0787, -0.0457 -0.0278 0.0787, -0.0541 -0.027 0.0787, -0.0607 -0.0249 0.0787, -0.066 -0.0217 0.0787, -0.0705 -0.0174 0.0787, -0.0738 -0.0119 0.0787, -0.0761 -0.0045 0.0787, -0.0768 0.0037 0.0787, -0.0762 0.0116 0.0787, -0.0743 0.0178 0.0787, -0.0462 0.0337 0.0394, -0.0346 0.0337 0.0394, -0.0555 0.0327 0.0394, -0.062 0.0304 0.0394, -0.0678 0.0267 0.0394, -0.0716 0.0227 0.0394, -0.0743 0.0178 0.0394, -0.0762 0.0116 0.0394, -0.0768 0.0037 0.0394, -0.0761 -0.0045 0.0394, -0.0738 -0.0119 0.0394, -0.0705 -0.0174 0.0394, -0.066 -0.0217 0.0394, -0.0607 -0.0249 0.0394, -0.0541 -0.027 0.0394, -0.0457 -0.0278 0.0394, -0.0346 -0.0278 0.0394, -0.0086 -0.0278 0.0787, -0.0086 -0.0364 0.0787, -0.0086 -0.0278 0.0394, -0.0086 -0.0364 0.0394, 0.0336 -0.0364 0.0787, 0.0336 -0.0364 0.0394, 0.0336 0.0423 0.0787, 0.0336 0.0423 0.0394, -0.0067 0.0423 0.0787, -0.0067 0.0423 0.0394, -0.0067 0.0337 0.0787, -0.0067 0.0337 0.0394, 0.023 0.0337 0.0787, 0.023 0.0337 0.0394, 0.023 0.0078 0.0787, 0.023 0.0078 0.0394, -0.0048 0.0078 0.0787, -0.0048 0.0078 0.0394, -0.0048 -0.0009 0.0787, -0.0048 -0.0009 0.0394, 0.023 -0.0009 0.0787, 0.023 -0.0009 0.0394, 0.023 -0.0278 0.0787, 0.023 -0.0278 0.0394, 0.049 -0.0237 0.0787, 0.049 -0.0323 0.0787, 0.049 -0.0237 0.0394, 0.049 -0.0323 0.0394, 0.0706 -0.0374 0.0787, 0.0706 -0.0374 0.0394, 0.0685 -0.0373 0.0394, 0.0685 -0.0373 0.0787, 0.0574 -0.0358 0.0394, 0.0574 -0.0358 0.0787, 0.1075 0.0015 0.0787, 0.1075 0.0015 0.0394, 0.1068 -0.0076 0.0394, 0.1068 -0.0076 0.0787, 0.1044 -0.016 0.0394, 0.1044 -0.016 0.0787, 0.1002 -0.0235 0.0394, 0.1002 -0.0235 0.0787, 0.0943 -0.0297 0.0394, 0.0943 -0.0297 0.0787, 0.088 -0.0337 0.0394, 0.088 -0.0337 0.0787, 0.0803 -0.0364 0.0394, 0.0803 -0.0364 0.0787, 0.0675 0.0433 0.0394, 0.0734 0.0428 0.0394, 0.0675 0.0433 0.0787, 0.0754 0.0427 0.0787, 0.0754 0.0427 0.0394, 0.0842 0.0401 0.0394, 0.0842 0.0401 0.0787, 0.0917 0.0358 0.0394, 0.0917 0.0358 0.0787, 0.0988 0.029 0.0394, 0.0988 0.029 0.0787, 0.1034 0.0216 0.0394, 0.1034 0.0216 0.0787, 0.1064 0.0127 0.0394, 0.1064 0.0127 0.0787, 0.0605 0.0428 0.0394, 0.0581 0.0426 0.0787, 0.0581 0.0426 0.0394, 0.049 0.0402 0.0787, 0.049 0.0402 0.0394, 0.049 0.0296 0.0787, 0.049 0.0296 0.0394, 0.0674 0.0347 0.0787, 0.0674 0.0347 0.0394, 0.0578 0.0334 0.0394, 0.0578 0.0334 0.0787, 0.097 0.0021 0.0787, 0.097 0.0021 0.0394, 0.0966 0.0083 0.0394, 0.0966 0.0083 0.0787, 0.0945 0.0167 0.0394, 0.0945 0.0167 0.0787, 0.0913 0.0228 0.0394, 0.0913 0.0228 0.0787, 0.0865 0.028 0.0394, 0.0865 0.028 0.0787, 0.0811 0.0317 0.0394, 0.0811 0.0317 0.0787, 0.0752 0.0338 0.0394, 0.0752 0.0338 0.0787, 0.0692 -0.0287 0.0787, 0.0692 -0.0287 0.0394, 0.0765 -0.0279 0.0394, 0.0765 -0.0279 0.0787, 0.0823 -0.0258 0.0394, 0.0823 -0.0258 0.0787, 0.0871 -0.0225 0.0394, 0.0871 -0.0225 0.0787, 0.0908 -0.0186 0.0394, 0.0908 -0.0186 0.0787, 0.094 -0.0132 0.0394, 0.094 -0.0132 0.0787, 0.0962 -0.0064 0.0394, 0.0962 -0.0064 0.0787, 0.0504 -0.0245 0.0394, 0.0504 -0.0245 0.0787, 0.0587 -0.0276 0.0394, 0.0587 -0.0276 0.0787, 0.1143 -0.0278 0.0787, 0.1143 -0.0364 0.0787, 0.1143 -0.0278 0.0394, 0.1143 -0.0364 0.0394, 0.1546 -0.0364 0.0787, 0.1546 -0.0364 0.0394, 0.1546 0.0423 0.0787, 0.1546 0.0423 0.0394, 0.144 0.0423 0.0787, 0.144 0.0423 0.0394, 0.144 -0.0278 0.0787, 0.144 -0.0278 0.0394
            ]
        }
        coordIndex [
            0,1,2,-1,2,1,3,-1,1,4,3,-1,3,4,5,-1,4,6,5,-1,5,6,7,-1,6,8,7,-1,7,8,9,-1,8,10,9,-1,9,10,11,-1,10,12,11,-1,11,12,13,-1,12,14,13,-1,13,14,15,-1,14,0,15,-1,15,0,2,-1,16,8,17,-1,17,8,6,-1,18,14,16,-1,16,14,12,-1,16,12,8,-1,8,12,10,-1,18,19,14,-1,14,19,20,-1,14,20,0,-1,0,20,21,-1,0,21,22,-1,22,23,0,-1,0,23,17,-1,0,17,1,-1,1,17,6,-1,1,6,4,-1,16,17,24,-1,24,17,25,-1,18,16,26,-1,26,16,24,-1,18,26,27,-1,18,27,19,-1,19,27,28,-1,19,28,20,-1,21,20,29,-1,29,20,28,-1,21,29,30,-1,21,30,22,-1,22,30,31,-1,22,31,23,-1,17,23,25,-1,25,23,31,-1,32,33,34,-1,34,33,35,-1,33,36,35,-1,35,36,37,-1,36,38,37,-1,37,38,39,-1,40,41,42,-1,40,42,43,-1,43,42,44,-1,43,44,45,-1,45,44,46,-1,45,46,47,-1,47,46,48,-1,47,48,49,-1,49,48,50,-1,49,50,51,-1,51,50,52,-1,51,52,53,-1,53,52,54,-1,53,54,55,-1,55,54,39,-1,55,39,38,-1,32,34,56,-1,32,56,57,-1,57,56,58,-1,57,58,59,-1,59,58,60,-1,59,60,61,-1,61,60,62,-1,61,62,63,-1,63,62,64,-1,63,64,65,-1,65,64,66,-1,65,66,67,-1,67,66,41,-1,67,41,40,-1,45,47,68,-1,68,47,49,-1,68,49,69,-1,69,49,51,-1,69,51,70,-1,70,51,53,-1,70,53,71,-1,71,53,55,-1,71,55,72,-1,72,55,38,-1,72,38,73,-1,73,38,36,-1,73,36,74,-1,74,36,33,-1,74,33,75,-1,75,33,32,-1,75,32,76,-1,76,32,57,-1,76,57,77,-1,77,57,59,-1,77,59,78,-1,78,59,61,-1,78,61,79,-1,79,61,63,-1,79,63,80,-1,80,63,65,-1,80,65,81,-1,81,65,67,-1,81,67,82,-1,82,67,40,-1,82,40,83,-1,83,40,43,-1,83,43,84,-1,84,43,45,-1,84,45,68,-1,72,73,85,-1,85,73,86,-1,72,85,87,-1,72,87,71,-1,71,87,88,-1,71,88,70,-1,70,88,89,-1,70,89,69,-1,69,89,90,-1,69,90,68,-1,68,90,91,-1,68,91,84,-1,84,91,92,-1,84,92,83,-1,83,92,93,-1,83,93,82,-1,82,93,94,-1,82,94,81,-1,81,94,95,-1,81,95,80,-1,80,95,96,-1,80,96,79,-1,79,96,97,-1,79,97,78,-1,78,97,98,-1,78,98,77,-1,77,98,99,-1,77,99,76,-1,76,99,100,-1,76,100,75,-1,74,75,101,-1,101,75,100,-1,73,74,86,-1,86,74,101,-1,102,103,104,-1,104,103,105,-1,103,106,105,-1,105,106,107,-1,106,108,107,-1,107,108,109,-1,108,110,109,-1,109,110,111,-1,110,112,111,-1,111,112,113,-1,112,114,113,-1,113,114,115,-1,114,116,115,-1,115,116,117,-1,116,118,117,-1,117,118,119,-1,118,120,119,-1,119,120,121,-1,120,122,121,-1,121,122,123,-1,122,124,123,-1,123,124,125,-1,124,102,125,-1,125,102,104,-1,106,103,102,-1,102,124,106,-1,106,124,122,-1,106,122,108,-1,112,110,114,-1,114,110,108,-1,114,108,116,-1,116,108,122,-1,116,122,118,-1,118,122,120,-1,126,127,128,-1,128,127,129,-1,130,131,132,-1,130,132,133,-1,133,132,134,-1,133,134,135,-1,135,134,129,-1,135,129,127,-1,136,137,138,-1,136,138,139,-1,139,138,140,-1,139,140,141,-1,141,140,142,-1,141,142,143,-1,143,142,144,-1,143,144,145,-1,145,144,146,-1,145,146,147,-1,147,146,148,-1,147,148,149,-1,149,148,131,-1,149,131,130,-1,150,151,152,-1,152,151,153,-1,151,154,153,-1,153,154,155,-1,153,155,156,-1,156,155,157,-1,156,157,158,-1,158,157,159,-1,158,159,160,-1,160,159,161,-1,160,161,162,-1,162,161,163,-1,162,163,164,-1,164,163,137,-1,164,137,136,-1,150,152,165,-1,165,152,166,-1,165,166,167,-1,167,166,168,-1,167,168,169,-1,168,170,169,-1,169,170,171,-1,172,173,174,-1,172,174,175,-1,175,174,171,-1,175,171,170,-1,176,177,178,-1,176,178,179,-1,179,178,180,-1,179,180,181,-1,181,180,182,-1,181,182,183,-1,183,182,184,-1,183,184,185,-1,185,184,186,-1,185,186,187,-1,187,186,188,-1,187,188,189,-1,189,188,173,-1,189,173,172,-1,190,191,192,-1,190,192,193,-1,193,192,194,-1,193,194,195,-1,195,194,196,-1,195,196,197,-1,197,196,198,-1,197,198,199,-1,199,198,200,-1,199,200,201,-1,201,200,202,-1,201,202,203,-1,203,202,177,-1,203,177,176,-1,126,128,204,-1,126,204,205,-1,205,204,206,-1,205,206,207,-1,207,206,191,-1,207,191,190,-1,193,130,190,-1,190,130,133,-1,190,133,207,-1,207,133,135,-1,207,135,205,-1,205,135,127,-1,205,127,126,-1,170,168,175,-1,175,168,166,-1,175,166,172,-1,172,166,152,-1,172,152,189,-1,189,152,153,-1,189,153,187,-1,187,153,156,-1,187,156,185,-1,185,156,158,-1,185,158,183,-1,183,158,160,-1,183,160,181,-1,181,160,162,-1,181,162,179,-1,179,162,164,-1,179,164,176,-1,176,164,136,-1,176,136,203,-1,203,136,139,-1,203,139,201,-1,201,139,141,-1,201,141,199,-1,199,141,143,-1,199,143,197,-1,197,143,145,-1,197,145,195,-1,195,145,147,-1,195,147,193,-1,193,147,149,-1,193,149,130,-1,208,209,210,-1,210,209,211,-1,209,212,211,-1,211,212,213,-1,212,214,213,-1,213,214,215,-1,214,216,215,-1,215,216,217,-1,216,218,217,-1,217,218,219,-1,218,208,219,-1,219,208,210,-1,216,214,218,-1,218,214,212,-1,218,212,208,-1,208,212,209,-1,
        ]
    }
}
Shape{
    appearance Appearance {
        material  Material 	{
            diffuseColor 0.20784313725490197 0.20784313725490197 0.20784313725490197
            specularColor 0.01568627450980392 0.01568627450980392 0.01568627450980392
            ambientIntensity 0.298
            transparency 0.0
            shininess 0.5
        }
    }
    geometry IndexedFaceSet {
        ccw TRUE
        solid FALSE
        coord DEF co Coordinate {
            point [
                -0.1148 -0.0057 0.0394, -0.1412 -0.0057 0.0394, -0.1266 0.0272 0.0394, -0.1293 0.0272 0.0394, -0.1273 0.0299 0.0394, -0.1286 0.03 0.0394, -0.1278 0.0327 0.0394, -0.1281 0.0327 0.0394, -0.0346 0.0337 0.0394, -0.0346 -0.0278 0.0394, -0.0462 0.0337 0.0394, -0.0457 -0.0278 0.0394, -0.0541 -0.027 0.0394, -0.0768 0.0037 0.0394, -0.0762 0.0116 0.0394, -0.0743 0.0178 0.0394, -0.0555 0.0327 0.0394, -0.0607 -0.0249 0.0394, -0.066 -0.0217 0.0394, -0.0705 -0.0174 0.0394, -0.0738 -0.0119 0.0394, -0.0761 -0.0045 0.0394, -0.0716 0.0227 0.0394, -0.0678 0.0267 0.0394, -0.062 0.0304 0.0394, -0.8504 -0.6614 0.5177, -0.8504 -0.6614 0.4272, -0.8491 -0.6716 0.4272, -0.8491 -0.6716 0.5177, -0.8451 -0.6811 0.4272, -0.8451 -0.6811 0.5177, -0.8389 -0.6893 0.4272, -0.8389 -0.6893 0.5177, -0.8307 -0.6955 0.4272, -0.8307 -0.6955 0.5177, -0.8212 -0.6994 0.4272, -0.8212 -0.6994 0.5177, -0.811 -0.7008 0.4272, -0.811 -0.7008 0.5177, 0.811 -0.7008 0.5177, 0.811 -0.7008 0.4272, 0.8198 -0.6998 0.4272, 0.8198 -0.6998 0.5177, 0.8281 -0.6969 0.4272, 0.8281 -0.6969 0.5177, 0.8356 -0.6922 0.4272, 0.8356 -0.6922 0.5177, 0.8418 -0.686 0.4272, 0.8418 -0.686 0.5177, 0.8465 -0.6785 0.4272, 0.8465 -0.6785 0.5177, 0.8494 -0.6702 0.4272, 0.8494 -0.6702 0.5177, 0.8504 -0.6614 0.4272, 0.8504 -0.6614 0.5177, 0.8504 0.6614 0.5177, 0.8504 0.6614 0.4272, 0.8491 0.6716 0.4272, 0.8491 0.6716 0.5177, 0.8451 0.6811 0.4272, 0.8451 0.6811 0.5177, 0.8389 0.6893 0.4272, 0.8389 0.6893 0.5177, 0.8307 0.6955 0.4272, 0.8307 0.6955 0.5177, 0.8212 0.6994 0.4272, 0.8212 0.6994 0.5177, 0.811 0.7008 0.4272, 0.811 0.7008 0.5177, -0.811 0.7008 0.5177, -0.811 0.7008 0.4272, -0.8212 0.6994 0.4272, -0.8212 0.6994 0.5177, -0.8307 0.6955 0.4272, -0.8307 0.6955 0.5177, -0.8389 0.6893 0.4272, -0.8389 0.6893 0.5177, -0.8451 0.6811 0.4272, -0.8451 0.6811 0.5177, -0.8491 0.6716 0.4272, -0.8491 0.6716 0.5177, -0.8504 0.6614 0.4272, -0.8504 0.6614 0.5177
            ]
        }
        coordIndex [
            0,1,2,-1,2,1,3,-1,2,3,4,-1,4,3,5,-1,4,5,6,-1,6,5,7,-1,8,9,10,-1,10,9,11,-1,10,11,12,-1,13,14,10,-1,10,14,15,-1,10,15,16,-1,12,17,10,-1,10,17,18,-1,10,18,19,-1,19,20,10,-1,10,20,21,-1,10,21,13,-1,22,23,15,-1,15,23,24,-1,15,24,16,-1,25,26,27,-1,25,27,28,-1,28,27,29,-1,28,29,30,-1,30,29,31,-1,30,31,32,-1,32,31,33,-1,32,33,34,-1,34,33,35,-1,34,35,36,-1,36,35,37,-1,36,37,38,-1,39,40,41,-1,39,41,42,-1,42,41,43,-1,42,43,44,-1,44,43,45,-1,44,45,46,-1,46,45,47,-1,46,47,48,-1,48,47,49,-1,48,49,50,-1,50,49,51,-1,50,51,52,-1,52,51,53,-1,52,53,54,-1,55,56,57,-1,55,57,58,-1,58,57,59,-1,58,59,60,-1,60,59,61,-1,60,61,62,-1,62,61,63,-1,62,63,64,-1,64,63,65,-1,64,65,66,-1,66,65,67,-1,66,67,68,-1,69,70,71,-1,69,71,72,-1,72,71,73,-1,72,73,74,-1,74,73,75,-1,74,75,76,-1,76,75,77,-1,76,77,78,-1,78,77,79,-1,78,79,80,-1,80,79,81,-1,80,81,82,-1,
        ]
    }
}