<?xml version="1.0" standalone="no"?>
 <!DOCTYPE svg PUBLIC "-//W3C//DTD SVG 1.1//EN" 
 "http://www.w3.org/Graphics/SVG/1.1/DTD/svg11.dtd"> 
<svg
  xmlns:svg="http://www.w3.org/2000/svg"
  xmlns="http://www.w3.org/2000/svg"
  xmlns:xlink="http://www.w3.org/1999/xlink"
  xmlns:inkscape="http://www.inkscape.org/namespaces/inkscape"
  version="1.1"
  width="49.9872mm" height="39.9796mm" viewBox="0.0000 0.0000 49.9872 39.9796">
<title>SVG Image created as B_Cu.svg date 2026-07-28T12:01:42 </title>
  <desc>Image generated by PCBNEW </desc>
<g style="fill:#000000; fill-opacity:1.0000;stroke:#000000; stroke-opacity:1.0000;
stroke-linecap:round; stroke-linejoin:round;"
 transform="translate(0 0) scale(1 1)">
<path style="fill:#4D7FC4; fill-opacity:1.0000; stroke:none;fill-rule:evenodd;"
d="M 49.1675,19.1525
49.1675,20.8525
47.4675,20.8525
47.4675,19.1525
Z" /> 
</g>
<g style="fill:#4D7FC4; fill-opacity:1.0000; stroke:none;">
<circle cx="45.7775" cy="20.0025" r="0.8500" /> 
<circle cx="43.2375" cy="20.0025" r="0.8500" /> 
<circle cx="40.6975" cy="20.0025" r="0.8500" /> 
<circle cx="5.8475" cy="22.4225" r="0.5500" /> 
<circle cx="5.8475" cy="17.5825" r="0.5500" /> 
</g>
<g style="fill:none; 
stroke:#4D7FC4; stroke-width:1.1000; stroke-opacity:1; 
stroke-linecap:round; stroke-linejoin:round;">
<path d="M2.8175 23.6025
L3.5175 23.6025
" />
<path d="M2.8175 16.4025
L3.5175 16.4025
" />
</g>
<g style="fill:#4D7FC4; fill-opacity:1.0000; stroke:none;">
<circle cx="13.2575" cy="2.0825" r="0.3000" /> 
<circle cx="36.7575" cy="24.9325" r="0.3000" /> 
<circle cx="13.7075" cy="22.3325" r="0.3000" /> 
<circle cx="20.7605" cy="6.8725" r="0.3000" /> 
<circle cx="27.1075" cy="20.7325" r="0.3000" /> 
<circle cx="27.1075" cy="25.7325" r="0.3000" /> 
<circle cx="11.3505" cy="36.8165" r="0.3000" /> 
<circle cx="19.4075" cy="28.9825" r="0.3000" /> 
<circle cx="25.5575" cy="2.0825" r="0.3000" /> 
<circle cx="21.9075" cy="7.2325" r="0.3000" /> 
<circle cx="24.0075" cy="11.5325" r="0.3000" /> 
<circle cx="25.7575" cy="19.2575" r="0.2250" /> 
<circle cx="18.1575" cy="16.7325" r="0.2250" /> 
<circle cx="24.1075" cy="6.9325" r="0.3000" /> 
<circle cx="27.8575" cy="12.2825" r="0.3000" /> 
<circle cx="36.7575" cy="16.0325" r="0.3000" /> 
<circle cx="22.6975" cy="28.2425" r="0.3000" /> 
<circle cx="7.8575" cy="20.3325" r="0.3000" /> 
<circle cx="17.6575" cy="11.5325" r="0.3000" /> 
<circle cx="23.1575" cy="31.6325" r="0.3000" /> 
<circle cx="15.4645" cy="36.8165" r="0.3000" /> 
<circle cx="27.1075" cy="18.0325" r="0.3000" /> 
<circle cx="15.6115" cy="23.1055" r="0.3000" /> 
<circle cx="16.5575" cy="2.0825" r="0.3000" /> 
<circle cx="36.6075" cy="35.5825" r="0.3000" /> 
<circle cx="17.0075" cy="13.5825" r="0.3000" /> 
<circle cx="18.2075" cy="2.0325" r="0.3000" /> 
<circle cx="25.2035" cy="23.1055" r="0.3000" /> 
<circle cx="23.1575" cy="28.9325" r="0.3000" /> 
<circle cx="24.0075" cy="14.2325" r="0.3000" /> 
<circle cx="22.2575" cy="2.0825" r="0.3000" /> 
<circle cx="13.7075" cy="25.0325" r="0.3000" /> 
<circle cx="27.1075" cy="23.0325" r="0.3000" /> 
<circle cx="17.3045" cy="15.2065" r="0.3000" /> 
<circle cx="11.4075" cy="22.2825" r="0.3000" /> 
<circle cx="19.4075" cy="2.0325" r="0.3000" /> 
<circle cx="18.0545" cy="10.2925" r="0.3000" /> 
<circle cx="20.6075" cy="2.0325" r="0.3000" /> 
<circle cx="23.5105" cy="24.7985" r="0.3000" /> 
<circle cx="23.1575" cy="25.7325" r="0.3000" /> 
<circle cx="19.8075" cy="35.5825" r="0.3000" /> 
<circle cx="18.1150" cy="21.7525" r="0.2250" /> 
<circle cx="12.0075" cy="18.0825" r="0.3000" /> 
<circle cx="12.0075" cy="20.0825" r="0.3000" /> 
</g>
<g style="fill:none; 
stroke:#4D7FC4; stroke-width:0.2000; stroke-opacity:1; 
stroke-linecap:round; stroke-linejoin:round;">
<path d="M38.9475 21.7525
L18.1150 21.7525
" />
<path d="M40.6975 20.0025
L38.9475 21.7525
" />
</g>
<g style="fill:none; 
stroke:#4D7FC4; stroke-width:0.3000; stroke-opacity:1; 
stroke-linecap:round; stroke-linejoin:round;">
<path d="M12.0075 18.0825
L12.0075 20.0825
" />
<path style="fill:none; 
stroke:#D0D2CD; stroke-width:0.1000; stroke-opacity:1; 
stroke-linecap:round; stroke-linejoin:round;fill:none"
d="M 0.0000,0.0000
50.0000,0.0000
50.0000,40.0000
0.0000,40.0000
Z" /> 
</g>
<g style="fill:#FFFFFF; fill-opacity:1.0000; stroke:none;">
<circle cx="13.2575" cy="2.0825" r="0.1500" /> 
<circle cx="36.7575" cy="24.9325" r="0.1500" /> 
<circle cx="13.7075" cy="22.3325" r="0.1500" /> 
<circle cx="20.7605" cy="6.8725" r="0.1500" /> 
<circle cx="27.1075" cy="20.7325" r="0.1500" /> 
<circle cx="27.1075" cy="25.7325" r="0.1500" /> 
<circle cx="11.3505" cy="36.8165" r="0.1500" /> 
<circle cx="19.4075" cy="28.9825" r="0.1500" /> 
<circle cx="25.5575" cy="2.0825" r="0.1500" /> 
<circle cx="21.9075" cy="7.2325" r="0.1500" /> 
<circle cx="24.0075" cy="11.5325" r="0.1500" /> 
<circle cx="25.7575" cy="19.2575" r="0.1000" /> 
<circle cx="18.1575" cy="16.7325" r="0.1000" /> 
<circle cx="24.1075" cy="6.9325" r="0.1500" /> 
<circle cx="27.8575" cy="12.2825" r="0.1500" /> 
<circle cx="36.7575" cy="16.0325" r="0.1500" /> 
<circle cx="22.6975" cy="28.2425" r="0.1500" /> 
<circle cx="7.8575" cy="20.3325" r="0.1500" /> 
<circle cx="17.6575" cy="11.5325" r="0.1500" /> 
<circle cx="23.1575" cy="31.6325" r="0.1500" /> 
<circle cx="15.4645" cy="36.8165" r="0.1500" /> 
<circle cx="27.1075" cy="18.0325" r="0.1500" /> 
<circle cx="15.6115" cy="23.1055" r="0.1500" /> 
<circle cx="16.5575" cy="2.0825" r="0.1500" /> 
<circle cx="36.6075" cy="35.5825" r="0.1500" /> 
<circle cx="17.0075" cy="13.5825" r="0.1500" /> 
<circle cx="18.2075" cy="2.0325" r="0.1500" /> 
<circle cx="25.2035" cy="23.1055" r="0.1500" /> 
<circle cx="23.1575" cy="28.9325" r="0.1500" /> 
<circle cx="24.0075" cy="14.2325" r="0.1500" /> 
<circle cx="22.2575" cy="2.0825" r="0.1500" /> 
<circle cx="13.7075" cy="25.0325" r="0.1500" /> 
<circle cx="27.1075" cy="23.0325" r="0.1500" /> 
<circle cx="17.3045" cy="15.2065" r="0.1500" /> 
<circle cx="11.4075" cy="22.2825" r="0.1500" /> 
<circle cx="19.4075" cy="2.0325" r="0.1500" /> 
<circle cx="18.0545" cy="10.2925" r="0.1500" /> 
<circle cx="20.6075" cy="2.0325" r="0.1500" /> 
<circle cx="23.5105" cy="24.7985" r="0.1500" /> 
<circle cx="23.1575" cy="25.7325" r="0.1500" /> 
<circle cx="19.8075" cy="35.5825" r="0.1500" /> 
<circle cx="18.1150" cy="21.7525" r="0.1000" /> 
<circle cx="12.0075" cy="18.0825" r="0.1500" /> 
<circle cx="12.0075" cy="20.0825" r="0.1500" /> 
</g>
<g style="fill:#FFFFFF; fill-opacity:1.0000; stroke:none;">
<circle cx="48.3175" cy="20.0025" r="0.5500" /> 
</g>
<g style="fill:#FFFFFF; fill-opacity:1.0000; stroke:none;">
<circle cx="45.7775" cy="20.0025" r="0.5500" /> 
</g>
<g style="fill:#FFFFFF; fill-opacity:1.0000; stroke:none;">
<circle cx="43.2375" cy="20.0025" r="0.5500" /> 
</g>
<g style="fill:#FFFFFF; fill-opacity:1.0000; stroke:none;">
<circle cx="40.6975" cy="20.0025" r="0.5500" /> 
</g>
<g style="fill:#FFFFFF; fill-opacity:1.0000; stroke:none;">
<circle cx="5.8475" cy="22.4225" r="0.3500" /> 
</g>
<g style="fill:#FFFFFF; fill-opacity:1.0000; stroke:none;">
<circle cx="5.8475" cy="17.5825" r="0.3500" /> 
</g>
<g style="fill:none; 
stroke:#FFFFFF; stroke-width:0.5000; stroke-opacity:1; 
stroke-linecap:round; stroke-linejoin:round;">
<path d="M2.7675 23.6025
L3.5675 23.6025
" />
</g>
<g style="fill:none; 
stroke:#FFFFFF; stroke-width:0.5000; stroke-opacity:1; 
stroke-linecap:round; stroke-linejoin:round;">
<path d="M2.7675 16.4025
L3.5675 16.4025
" />
</g> 
</svg>
