%TF.GenerationSoftware,KiCad,Pcbnew,10.0.6-10.0.6~ubuntu26.04.1*%
%TF.CreationDate,2026-09-24T03:25:05-04:00*%
%TF.ProjectId,pd-trigger-lite,70642d74-7269-4676-9765-722d6c697465,rev?*%
%TF.SameCoordinates,Original*%
%TF.FileFunction,Paste,Top*%
%TF.FilePolarity,Positive*%
%FSLAX46Y46*%
G04 Gerber Fmt 4.6, Leading zero omitted, Abs format (unit mm)*
G04 Created by KiCad (PCBNEW 10.0.6-10.0.6~ubuntu26.04.1) date 2026-09-24 03:25:05*
%MOMM*%
%LPD*%
G01*
G04 APERTURE LIST*
%ADD10R,1.500000X0.600000*%
%ADD11R,2.100000X3.300000*%
%ADD12R,0.864000X0.806000*%
%ADD13R,0.806000X0.864000*%
%ADD14R,0.800000X0.800000*%
%ADD15R,0.900000X0.800000*%
%ADD16R,1.300000X0.700000*%
%ADD17R,1.300000X0.800000*%
G04 APERTURE END LIST*
D10*
%TO.C,U1*%
X34070000Y-42143000D03*
X34070000Y-41143000D03*
X34070000Y-40143000D03*
X34070000Y-39143000D03*
X34070000Y-38143000D03*
X28070000Y-38143000D03*
X28070000Y-39143000D03*
X28070000Y-40143000D03*
X28070000Y-41143000D03*
X28070000Y-42143000D03*
D11*
X31070000Y-40143000D03*
%TD*%
D12*
%TO.C,JP3*%
X33270000Y-31393000D03*
X33270000Y-32893000D03*
%TD*%
D13*
%TO.C,R6*%
X37520000Y-39093000D03*
X39020000Y-39093000D03*
%TD*%
D12*
%TO.C,R2*%
X29270000Y-28543000D03*
X29270000Y-30043000D03*
%TD*%
D14*
%TO.C,D1*%
X40320000Y-39093000D03*
X41820000Y-39093000D03*
%TD*%
D12*
%TO.C,JP1*%
X27270000Y-31393000D03*
X27270000Y-32893000D03*
%TD*%
D15*
%TO.C,C1*%
X35870000Y-40393000D03*
X35870000Y-41793000D03*
%TD*%
D12*
%TO.C,R5*%
X29270000Y-31393000D03*
X29270000Y-32893000D03*
%TD*%
D16*
%TO.C,J1*%
X24970000Y-34793000D03*
D17*
X24970000Y-36793000D03*
X24970000Y-37993000D03*
D16*
X24970000Y-35793000D03*
D17*
X24970000Y-33793000D03*
X24970000Y-32593000D03*
%TD*%
D12*
%TO.C,R3*%
X31270000Y-28543000D03*
X31270000Y-30043000D03*
%TD*%
%TO.C,R4*%
X33270000Y-28543000D03*
X33270000Y-30043000D03*
%TD*%
%TO.C,JP2*%
X31270000Y-31393000D03*
X31270000Y-32893000D03*
%TD*%
%TO.C,R7*%
X35870000Y-37593000D03*
X35870000Y-39093000D03*
%TD*%
%TO.C,R1*%
X27270000Y-28543000D03*
X27270000Y-30043000D03*
%TD*%
M02*
