%TF.GenerationSoftware,KiCad,Pcbnew,10.0.6-10.0.6~ubuntu26.04.1*%
%TF.CreationDate,2026-09-24T03:25:05-04:00*%
%TF.ProjectId,pd-trigger-lite,70642d74-7269-4676-9765-722d6c697465,rev?*%
%TF.SameCoordinates,Original*%
%TF.FileFunction,Legend,Top*%
%TF.FilePolarity,Positive*%
%FSLAX46Y46*%
G04 Gerber Fmt 4.6, Leading zero omitted, Abs format (unit mm)*
G04 Created by KiCad (PCBNEW 10.0.6-10.0.6~ubuntu26.04.1) date 2026-09-24 03:25:05*
%MOMM*%
%LPD*%
G01*
G04 APERTURE LIST*
%ADD10C,0.150000*%
%ADD11C,0.200000*%
%ADD12C,0.250000*%
G04 APERTURE END LIST*
D10*
X20574762Y-41855295D02*
X20574762Y-41055295D01*
X20574762Y-41055295D02*
X20879524Y-41055295D01*
X20879524Y-41055295D02*
X20955714Y-41093390D01*
X20955714Y-41093390D02*
X20993809Y-41131485D01*
X20993809Y-41131485D02*
X21031905Y-41207676D01*
X21031905Y-41207676D02*
X21031905Y-41321961D01*
X21031905Y-41321961D02*
X20993809Y-41398152D01*
X20993809Y-41398152D02*
X20955714Y-41436247D01*
X20955714Y-41436247D02*
X20879524Y-41474342D01*
X20879524Y-41474342D02*
X20574762Y-41474342D01*
X21374762Y-41855295D02*
X21374762Y-41055295D01*
X21374762Y-41055295D02*
X21565238Y-41055295D01*
X21565238Y-41055295D02*
X21679524Y-41093390D01*
X21679524Y-41093390D02*
X21755714Y-41169580D01*
X21755714Y-41169580D02*
X21793809Y-41245771D01*
X21793809Y-41245771D02*
X21831905Y-41398152D01*
X21831905Y-41398152D02*
X21831905Y-41512438D01*
X21831905Y-41512438D02*
X21793809Y-41664819D01*
X21793809Y-41664819D02*
X21755714Y-41741009D01*
X21755714Y-41741009D02*
X21679524Y-41817200D01*
X21679524Y-41817200D02*
X21565238Y-41855295D01*
X21565238Y-41855295D02*
X21374762Y-41855295D01*
X23165238Y-41855295D02*
X22784286Y-41855295D01*
X22784286Y-41855295D02*
X22784286Y-41055295D01*
X23431905Y-41855295D02*
X23431905Y-41055295D01*
X23698571Y-41055295D02*
X24155714Y-41055295D01*
X23927142Y-41855295D02*
X23927142Y-41055295D01*
X24422381Y-41436247D02*
X24689047Y-41436247D01*
X24803333Y-41855295D02*
X24422381Y-41855295D01*
X24422381Y-41855295D02*
X24422381Y-41055295D01*
X24422381Y-41055295D02*
X24803333Y-41055295D01*
X27117619Y-34355295D02*
X27270000Y-34355295D01*
X27270000Y-34355295D02*
X27346190Y-34317200D01*
X27346190Y-34317200D02*
X27384286Y-34279104D01*
X27384286Y-34279104D02*
X27460476Y-34164819D01*
X27460476Y-34164819D02*
X27498571Y-34012438D01*
X27498571Y-34012438D02*
X27498571Y-33707676D01*
X27498571Y-33707676D02*
X27460476Y-33631485D01*
X27460476Y-33631485D02*
X27422381Y-33593390D01*
X27422381Y-33593390D02*
X27346190Y-33555295D01*
X27346190Y-33555295D02*
X27193809Y-33555295D01*
X27193809Y-33555295D02*
X27117619Y-33593390D01*
X27117619Y-33593390D02*
X27079524Y-33631485D01*
X27079524Y-33631485D02*
X27041428Y-33707676D01*
X27041428Y-33707676D02*
X27041428Y-33898152D01*
X27041428Y-33898152D02*
X27079524Y-33974342D01*
X27079524Y-33974342D02*
X27117619Y-34012438D01*
X27117619Y-34012438D02*
X27193809Y-34050533D01*
X27193809Y-34050533D02*
X27346190Y-34050533D01*
X27346190Y-34050533D02*
X27422381Y-34012438D01*
X27422381Y-34012438D02*
X27460476Y-33974342D01*
X27460476Y-33974342D02*
X27498571Y-33898152D01*
X29117618Y-34355295D02*
X28660475Y-34355295D01*
X28889047Y-34355295D02*
X28889047Y-33555295D01*
X28889047Y-33555295D02*
X28812856Y-33669580D01*
X28812856Y-33669580D02*
X28736666Y-33745771D01*
X28736666Y-33745771D02*
X28660475Y-33783866D01*
X29422380Y-33631485D02*
X29460476Y-33593390D01*
X29460476Y-33593390D02*
X29536666Y-33555295D01*
X29536666Y-33555295D02*
X29727142Y-33555295D01*
X29727142Y-33555295D02*
X29803333Y-33593390D01*
X29803333Y-33593390D02*
X29841428Y-33631485D01*
X29841428Y-33631485D02*
X29879523Y-33707676D01*
X29879523Y-33707676D02*
X29879523Y-33783866D01*
X29879523Y-33783866D02*
X29841428Y-33898152D01*
X29841428Y-33898152D02*
X29384285Y-34355295D01*
X29384285Y-34355295D02*
X29879523Y-34355295D01*
X31117618Y-34355295D02*
X30660475Y-34355295D01*
X30889047Y-34355295D02*
X30889047Y-33555295D01*
X30889047Y-33555295D02*
X30812856Y-33669580D01*
X30812856Y-33669580D02*
X30736666Y-33745771D01*
X30736666Y-33745771D02*
X30660475Y-33783866D01*
X31841428Y-33555295D02*
X31460476Y-33555295D01*
X31460476Y-33555295D02*
X31422380Y-33936247D01*
X31422380Y-33936247D02*
X31460476Y-33898152D01*
X31460476Y-33898152D02*
X31536666Y-33860057D01*
X31536666Y-33860057D02*
X31727142Y-33860057D01*
X31727142Y-33860057D02*
X31803333Y-33898152D01*
X31803333Y-33898152D02*
X31841428Y-33936247D01*
X31841428Y-33936247D02*
X31879523Y-34012438D01*
X31879523Y-34012438D02*
X31879523Y-34202914D01*
X31879523Y-34202914D02*
X31841428Y-34279104D01*
X31841428Y-34279104D02*
X31803333Y-34317200D01*
X31803333Y-34317200D02*
X31727142Y-34355295D01*
X31727142Y-34355295D02*
X31536666Y-34355295D01*
X31536666Y-34355295D02*
X31460476Y-34317200D01*
X31460476Y-34317200D02*
X31422380Y-34279104D01*
X32660475Y-33631485D02*
X32698571Y-33593390D01*
X32698571Y-33593390D02*
X32774761Y-33555295D01*
X32774761Y-33555295D02*
X32965237Y-33555295D01*
X32965237Y-33555295D02*
X33041428Y-33593390D01*
X33041428Y-33593390D02*
X33079523Y-33631485D01*
X33079523Y-33631485D02*
X33117618Y-33707676D01*
X33117618Y-33707676D02*
X33117618Y-33783866D01*
X33117618Y-33783866D02*
X33079523Y-33898152D01*
X33079523Y-33898152D02*
X32622380Y-34355295D01*
X32622380Y-34355295D02*
X33117618Y-34355295D01*
X33612857Y-33555295D02*
X33689047Y-33555295D01*
X33689047Y-33555295D02*
X33765238Y-33593390D01*
X33765238Y-33593390D02*
X33803333Y-33631485D01*
X33803333Y-33631485D02*
X33841428Y-33707676D01*
X33841428Y-33707676D02*
X33879523Y-33860057D01*
X33879523Y-33860057D02*
X33879523Y-34050533D01*
X33879523Y-34050533D02*
X33841428Y-34202914D01*
X33841428Y-34202914D02*
X33803333Y-34279104D01*
X33803333Y-34279104D02*
X33765238Y-34317200D01*
X33765238Y-34317200D02*
X33689047Y-34355295D01*
X33689047Y-34355295D02*
X33612857Y-34355295D01*
X33612857Y-34355295D02*
X33536666Y-34317200D01*
X33536666Y-34317200D02*
X33498571Y-34279104D01*
X33498571Y-34279104D02*
X33460476Y-34202914D01*
X33460476Y-34202914D02*
X33422380Y-34050533D01*
X33422380Y-34050533D02*
X33422380Y-33860057D01*
X33422380Y-33860057D02*
X33460476Y-33707676D01*
X33460476Y-33707676D02*
X33498571Y-33631485D01*
X33498571Y-33631485D02*
X33536666Y-33593390D01*
X33536666Y-33593390D02*
X33612857Y-33555295D01*
X34603333Y-33555295D02*
X34870000Y-34355295D01*
X34870000Y-34355295D02*
X35136666Y-33555295D01*
D11*
X39489048Y-34164266D02*
X40250953Y-34164266D01*
X39870000Y-34545219D02*
X39870000Y-33783314D01*
X39489048Y-36704266D02*
X40250953Y-36704266D01*
%TO.C,U1*%
D10*
X29120000Y-42643000D02*
X29120000Y-37643000D01*
X30250000Y-42643000D02*
X29120000Y-42643000D01*
X30490000Y-42643000D02*
X30250000Y-42643000D01*
X30530000Y-42603000D02*
X30490000Y-42643000D01*
X31550000Y-42643000D02*
X31550000Y-42543000D01*
X33020000Y-37643000D02*
X29120000Y-37643000D01*
X33020000Y-42643000D02*
X31550000Y-42643000D01*
X33020000Y-42643000D02*
X33020000Y-37643000D01*
X30530000Y-42603000D02*
G75*
G02*
X31078478Y-42063751I500000J40000D01*
G01*
X31070000Y-42063000D02*
G75*
G02*
X31550000Y-42543000I-1J-480001D01*
G01*
X32670000Y-42243000D02*
G75*
G02*
X32370000Y-42243000I-150000J0D01*
G01*
X32370000Y-42243000D02*
G75*
G02*
X32670000Y-42243000I150000J0D01*
G01*
%TO.C,D1*%
D12*
X39600000Y-38393000D02*
X40870000Y-38393000D01*
X39600000Y-39793000D02*
X39600000Y-38393000D01*
X40870000Y-39793000D02*
X39600000Y-39793000D01*
D10*
X40980000Y-39093000D02*
X41190000Y-39093000D01*
X40980000Y-39493000D02*
X40980000Y-38713000D01*
D12*
X41370000Y-39793000D02*
X42470000Y-39793000D01*
X42470000Y-38393000D02*
X41370000Y-38393000D01*
X42470000Y-39793000D02*
X42770000Y-39493000D01*
X42770000Y-38693000D02*
X42470000Y-38393000D01*
X42770000Y-39493000D02*
X42770000Y-38693000D01*
%TO.C,J1*%
D10*
X22170000Y-39893000D02*
X23630000Y-39893000D01*
D12*
X22220000Y-30693000D02*
X23600000Y-30693000D01*
%TD*%
M02*
