%TF.GenerationSoftware,KiCad,Pcbnew,10.0.6-10.0.6~ubuntu26.04.1*%
%TF.CreationDate,2026-09-24T03:25:05-04:00*%
%TF.ProjectId,pd-trigger-lite,70642d74-7269-4676-9765-722d6c697465,rev?*%
%TF.SameCoordinates,Original*%
%TF.FileFunction,Copper,L1,Top*%
%TF.FilePolarity,Positive*%
%FSLAX46Y46*%
G04 Gerber Fmt 4.6, Leading zero omitted, Abs format (unit mm)*
G04 Created by KiCad (PCBNEW 10.0.6-10.0.6~ubuntu26.04.1) date 2026-09-24 03:25:05*
%MOMM*%
%LPD*%
G01*
G04 APERTURE LIST*
%TA.AperFunction,SMDPad,CuDef*%
%ADD10R,1.500000X0.600000*%
%TD*%
%TA.AperFunction,SMDPad,CuDef*%
%ADD11R,2.100000X3.300000*%
%TD*%
%TA.AperFunction,SMDPad,CuDef*%
%ADD12R,0.864000X0.806000*%
%TD*%
%TA.AperFunction,SMDPad,CuDef*%
%ADD13R,0.806000X0.864000*%
%TD*%
%TA.AperFunction,SMDPad,CuDef*%
%ADD14R,0.800000X0.800000*%
%TD*%
%TA.AperFunction,ComponentPad*%
%ADD15R,2.000000X2.000000*%
%TD*%
%TA.AperFunction,ComponentPad*%
%ADD16C,2.000000*%
%TD*%
%TA.AperFunction,SMDPad,CuDef*%
%ADD17R,0.900000X0.800000*%
%TD*%
%TA.AperFunction,ComponentPad*%
%ADD18O,1.800000X1.200000*%
%TD*%
%TA.AperFunction,SMDPad,CuDef*%
%ADD19R,1.300000X0.700000*%
%TD*%
%TA.AperFunction,SMDPad,CuDef*%
%ADD20R,1.300000X0.800000*%
%TD*%
%TA.AperFunction,ViaPad*%
%ADD21C,0.600000*%
%TD*%
%TA.AperFunction,Conductor*%
%ADD22C,0.200000*%
%TD*%
%TA.AperFunction,Conductor*%
%ADD23C,0.250000*%
%TD*%
%TA.AperFunction,Conductor*%
%ADD24C,0.800000*%
%TD*%
%TA.AperFunction,Conductor*%
%ADD25C,1.250000*%
%TD*%
G04 APERTURE END LIST*
D10*
%TO.P,U1,1*%
%TO.N,/VHV*%
X34070000Y-42143000D03*
%TO.P,U1,2*%
%TO.N,unconnected-(U1-CFG2{slash}SCL-Pad2)*%
X34070000Y-41143000D03*
%TO.P,U1,3*%
%TO.N,unconnected-(U1-CFG3{slash}SDA-Pad3)*%
X34070000Y-40143000D03*
%TO.P,U1,4*%
%TO.N,unconnected-(U1-DP-Pad4)*%
X34070000Y-39143000D03*
%TO.P,U1,5*%
%TO.N,unconnected-(U1-DM-Pad5)*%
X34070000Y-38143000D03*
%TO.P,U1,6*%
%TO.N,/CC2*%
X28070000Y-38143000D03*
%TO.P,U1,7*%
%TO.N,/CC1*%
X28070000Y-39143000D03*
%TO.P,U1,8*%
%TO.N,/VHV*%
X28070000Y-40143000D03*
%TO.P,U1,9*%
%TO.N,/CFG1*%
X28070000Y-41143000D03*
%TO.P,U1,10*%
%TO.N,unconnected-(U1-PG-Pad10)*%
X28070000Y-42143000D03*
D11*
%TO.P,U1,11*%
%TO.N,GND*%
X31070000Y-40143000D03*
%TD*%
D12*
%TO.P,JP3,1*%
%TO.N,/SEL20*%
X33270000Y-31393000D03*
%TO.P,JP3,2*%
%TO.N,GND*%
X33270000Y-32893000D03*
%TD*%
D13*
%TO.P,R6,1*%
%TO.N,/VHV*%
X37520000Y-39093000D03*
%TO.P,R6,2*%
%TO.N,/LED_A*%
X39020000Y-39093000D03*
%TD*%
D12*
%TO.P,R2,1*%
%TO.N,/CFG1*%
X29270000Y-28543000D03*
%TO.P,R2,2*%
%TO.N,/SEL12*%
X29270000Y-30043000D03*
%TD*%
D14*
%TO.P,D1,1*%
%TO.N,/LED_A*%
X40320000Y-39093000D03*
%TO.P,D1,2*%
%TO.N,GND*%
X41820000Y-39093000D03*
%TD*%
D15*
%TO.P,J2,1*%
%TO.N,VBUS*%
X41670000Y-34093000D03*
D16*
%TO.P,J2,2*%
%TO.N,GND*%
X41670000Y-36633000D03*
%TD*%
D12*
%TO.P,JP1,1*%
%TO.N,/SEL9*%
X27270000Y-31393000D03*
%TO.P,JP1,2*%
%TO.N,GND*%
X27270000Y-32893000D03*
%TD*%
D17*
%TO.P,C1,1*%
%TO.N,/VHV*%
X35870000Y-40393000D03*
%TO.P,C1,2*%
%TO.N,GND*%
X35870000Y-41793000D03*
%TD*%
D12*
%TO.P,R5,1*%
%TO.N,/SEL12*%
X29270000Y-31393000D03*
%TO.P,R5,2*%
%TO.N,GND*%
X29270000Y-32893000D03*
%TD*%
D18*
%TO.P,J1,1*%
%TO.N,GND*%
X24870000Y-39613000D03*
%TO.P,J1,2*%
X21070000Y-39613000D03*
%TO.P,J1,3*%
X21070000Y-30973000D03*
%TO.P,J1,4*%
X24870000Y-30973000D03*
D19*
%TO.P,J1,A5*%
%TO.N,/CC1*%
X24970000Y-34793000D03*
D20*
%TO.P,J1,A9*%
%TO.N,VBUS*%
X24970000Y-36793000D03*
%TO.P,J1,A12*%
%TO.N,GND*%
X24970000Y-37993000D03*
D19*
%TO.P,J1,B5*%
%TO.N,/CC2*%
X24970000Y-35793000D03*
D20*
%TO.P,J1,B9*%
%TO.N,VBUS*%
X24970000Y-33793000D03*
%TO.P,J1,B12*%
%TO.N,GND*%
X24970000Y-32593000D03*
%TD*%
D12*
%TO.P,R3,1*%
%TO.N,/CFG1*%
X31270000Y-28543000D03*
%TO.P,R3,2*%
%TO.N,/SEL15*%
X31270000Y-30043000D03*
%TD*%
%TO.P,R4,1*%
%TO.N,/CFG1*%
X33270000Y-28543000D03*
%TO.P,R4,2*%
%TO.N,/SEL20*%
X33270000Y-30043000D03*
%TD*%
%TO.P,JP2,1*%
%TO.N,/SEL15*%
X31270000Y-31393000D03*
%TO.P,JP2,2*%
%TO.N,GND*%
X31270000Y-32893000D03*
%TD*%
%TO.P,R7,1*%
%TO.N,VBUS*%
X35870000Y-37593000D03*
%TO.P,R7,2*%
%TO.N,/VHV*%
X35870000Y-39093000D03*
%TD*%
%TO.P,R1,1*%
%TO.N,/CFG1*%
X27270000Y-28543000D03*
%TO.P,R1,2*%
%TO.N,/SEL9*%
X27270000Y-30043000D03*
%TD*%
D21*
%TO.N,/CC2*%
X26870000Y-38143000D03*
X26220000Y-35793000D03*
%TO.N,/CC1*%
X26870000Y-39143000D03*
X26220000Y-34793000D03*
%TO.N,/CFG1*%
X26670000Y-41143000D03*
X25870000Y-28543000D03*
%TO.N,GND*%
X30270000Y-32543000D03*
X32270000Y-32543000D03*
X42670000Y-39093000D03*
X34270000Y-32543000D03*
X28270000Y-32543000D03*
X36770000Y-41793000D03*
X31070000Y-40143000D03*
X31070000Y-41343000D03*
X31070000Y-38943000D03*
%TD*%
%TO.N,/VHV*%
D22*
X34070000Y-42143000D02*
X35170000Y-42143000D01*
X30070000Y-42143000D02*
X34070000Y-42143000D01*
X35170000Y-42143000D02*
X35170000Y-40393000D01*
X35870000Y-40393000D02*
X35870000Y-39093000D01*
X29070000Y-41143000D02*
X29070000Y-42143000D01*
X35870000Y-39093000D02*
X37520000Y-39093000D01*
X35170000Y-40393000D02*
X35870000Y-40393000D01*
X29070000Y-42143000D02*
X30070000Y-42143000D01*
X28070000Y-40143000D02*
X29070000Y-40143000D01*
X29070000Y-40143000D02*
X29070000Y-41143000D01*
%TO.N,/CC2*%
D23*
X24970000Y-35793000D02*
X26220000Y-35793000D01*
X26870000Y-38143000D02*
X28070000Y-38143000D01*
%TO.N,/CC1*%
X24970000Y-34793000D02*
X26220000Y-34793000D01*
X26870000Y-39143000D02*
X28070000Y-39143000D01*
%TO.N,/CFG1*%
X31270000Y-28543000D02*
X33270000Y-28543000D01*
X27270000Y-28543000D02*
X29270000Y-28543000D01*
X29270000Y-28543000D02*
X31270000Y-28543000D01*
X28070000Y-41143000D02*
X26670000Y-41143000D01*
X25870000Y-28543000D02*
X27270000Y-28543000D01*
%TO.N,GND*%
X33270000Y-32893000D02*
X33820000Y-32543000D01*
X29820000Y-32543000D02*
X30270000Y-32543000D01*
X33820000Y-32543000D02*
X34270000Y-32543000D01*
D24*
X24970000Y-32593000D02*
X24970000Y-31393000D01*
D23*
X27270000Y-32893000D02*
X27820000Y-32543000D01*
X31820000Y-32543000D02*
X32270000Y-32543000D01*
X27820000Y-32543000D02*
X28270000Y-32543000D01*
X41820000Y-39093000D02*
X42670000Y-39093000D01*
X31270000Y-32893000D02*
X31820000Y-32543000D01*
X35870000Y-41793000D02*
X36770000Y-41793000D01*
D24*
X24970000Y-37993000D02*
X24970000Y-39193000D01*
D23*
X29270000Y-32893000D02*
X29820000Y-32543000D01*
%TO.N,/SEL20*%
X33270000Y-30043000D02*
X33270000Y-31393000D01*
%TO.N,/LED_A*%
X39020000Y-39093000D02*
X40320000Y-39093000D01*
%TO.N,/SEL12*%
X29270000Y-30043000D02*
X29270000Y-31393000D01*
%TO.N,VBUS*%
D25*
X35870000Y-36193000D02*
X35870000Y-37593000D01*
%TO.N,/SEL9*%
D23*
X27270000Y-30043000D02*
X27270000Y-31393000D01*
%TO.N,/SEL15*%
X31270000Y-30043000D02*
X31270000Y-31393000D01*
%TD*%
%TA.AperFunction,Conductor*%
%TO.N,VBUS*%
G36*
X26653539Y-33112685D02*
G01*
X26699294Y-33165489D01*
X26710500Y-33217000D01*
X26710500Y-33308558D01*
X26717898Y-33345749D01*
X26746077Y-33387922D01*
X26788250Y-33416101D01*
X26788252Y-33416102D01*
X26816205Y-33421662D01*
X26825441Y-33423500D01*
X26825442Y-33423500D01*
X27714559Y-33423500D01*
X27721957Y-33422028D01*
X27751748Y-33416102D01*
X27793922Y-33387922D01*
X27822102Y-33345748D01*
X27829500Y-33308558D01*
X27829500Y-33217000D01*
X27849185Y-33149961D01*
X27901989Y-33104206D01*
X27953500Y-33093000D01*
X28586500Y-33093000D01*
X28653539Y-33112685D01*
X28699294Y-33165489D01*
X28710500Y-33217000D01*
X28710500Y-33308558D01*
X28717898Y-33345749D01*
X28746077Y-33387922D01*
X28788250Y-33416101D01*
X28788252Y-33416102D01*
X28816205Y-33421662D01*
X28825441Y-33423500D01*
X28825442Y-33423500D01*
X29714559Y-33423500D01*
X29721957Y-33422028D01*
X29751748Y-33416102D01*
X29793922Y-33387922D01*
X29822102Y-33345748D01*
X29829500Y-33308558D01*
X29829500Y-33217000D01*
X29849185Y-33149961D01*
X29901989Y-33104206D01*
X29953500Y-33093000D01*
X30586500Y-33093000D01*
X30653539Y-33112685D01*
X30699294Y-33165489D01*
X30710500Y-33217000D01*
X30710500Y-33308558D01*
X30717898Y-33345749D01*
X30746077Y-33387922D01*
X30788250Y-33416101D01*
X30788252Y-33416102D01*
X30816205Y-33421662D01*
X30825441Y-33423500D01*
X30825442Y-33423500D01*
X31714559Y-33423500D01*
X31721957Y-33422028D01*
X31751748Y-33416102D01*
X31793922Y-33387922D01*
X31822102Y-33345748D01*
X31829500Y-33308558D01*
X31829500Y-33217000D01*
X31849185Y-33149961D01*
X31901989Y-33104206D01*
X31953500Y-33093000D01*
X32586500Y-33093000D01*
X32653539Y-33112685D01*
X32699294Y-33165489D01*
X32710500Y-33217000D01*
X32710500Y-33308558D01*
X32717898Y-33345749D01*
X32746077Y-33387922D01*
X32788250Y-33416101D01*
X32788252Y-33416102D01*
X32816205Y-33421662D01*
X32825441Y-33423500D01*
X32825442Y-33423500D01*
X33714559Y-33423500D01*
X33721957Y-33422028D01*
X33751748Y-33416102D01*
X33793922Y-33387922D01*
X33822102Y-33345748D01*
X33829500Y-33308558D01*
X33829500Y-33217000D01*
X33849185Y-33149961D01*
X33901989Y-33104206D01*
X33953500Y-33093000D01*
X43045500Y-33093000D01*
X43112539Y-33112685D01*
X43158294Y-33165489D01*
X43169500Y-33217000D01*
X43169500Y-37369000D01*
X43149815Y-37436039D01*
X43097011Y-37481794D01*
X43045500Y-37493000D01*
X42682204Y-37493000D01*
X42615165Y-37473315D01*
X42569410Y-37420511D01*
X42559466Y-37351353D01*
X42581886Y-37296115D01*
X42605468Y-37263655D01*
X42634324Y-37223939D01*
X42714895Y-37065810D01*
X42769737Y-36897023D01*
X42797500Y-36721736D01*
X42797500Y-36544264D01*
X42769737Y-36368977D01*
X42769736Y-36368973D01*
X42769736Y-36368972D01*
X42714896Y-36200192D01*
X42708214Y-36187078D01*
X42634324Y-36042061D01*
X42573257Y-35958009D01*
X42530014Y-35898489D01*
X42530010Y-35898484D01*
X42404515Y-35772989D01*
X42404510Y-35772985D01*
X42260942Y-35668678D01*
X42260941Y-35668677D01*
X42260939Y-35668676D01*
X42181087Y-35627989D01*
X42102807Y-35588103D01*
X41934026Y-35533263D01*
X41802557Y-35512440D01*
X41758736Y-35505500D01*
X41581264Y-35505500D01*
X41522835Y-35514754D01*
X41405975Y-35533263D01*
X41405972Y-35533263D01*
X41237192Y-35588103D01*
X41079057Y-35668678D01*
X40935489Y-35772985D01*
X40935484Y-35772989D01*
X40809989Y-35898484D01*
X40809985Y-35898489D01*
X40705678Y-36042057D01*
X40625103Y-36200192D01*
X40570263Y-36368972D01*
X40570263Y-36368975D01*
X40542500Y-36544264D01*
X40542500Y-36721735D01*
X40570263Y-36897024D01*
X40570263Y-36897027D01*
X40625103Y-37065807D01*
X40705678Y-37223942D01*
X40758114Y-37296115D01*
X40781594Y-37361921D01*
X40765768Y-37429975D01*
X40715663Y-37478670D01*
X40657796Y-37493000D01*
X25737447Y-37493000D01*
X25681452Y-37476557D01*
X25681032Y-37477572D01*
X25671598Y-37473664D01*
X25670408Y-37473315D01*
X25669810Y-37472924D01*
X25669750Y-37472899D01*
X25669749Y-37472898D01*
X25669748Y-37472898D01*
X25632558Y-37465500D01*
X24494000Y-37465500D01*
X24426961Y-37445815D01*
X24381206Y-37393011D01*
X24370000Y-37341500D01*
X24370000Y-36394500D01*
X24389685Y-36327461D01*
X24442489Y-36281706D01*
X24494000Y-36270500D01*
X25632559Y-36270500D01*
X25639957Y-36269028D01*
X25669748Y-36263102D01*
X25711922Y-36234922D01*
X25740102Y-36192748D01*
X25740480Y-36190845D01*
X25742450Y-36187078D01*
X25744775Y-36181467D01*
X25745276Y-36181674D01*
X25772861Y-36128937D01*
X25833575Y-36094360D01*
X25903344Y-36098096D01*
X25949778Y-36127354D01*
X25957509Y-36135085D01*
X26041928Y-36183825D01*
X26054095Y-36190850D01*
X26054991Y-36191367D01*
X26163719Y-36220500D01*
X26163721Y-36220500D01*
X26276279Y-36220500D01*
X26276281Y-36220500D01*
X26385009Y-36191367D01*
X26482491Y-36135085D01*
X26562085Y-36055491D01*
X26618367Y-35958009D01*
X26647500Y-35849281D01*
X26647500Y-35736719D01*
X26618367Y-35627991D01*
X26562085Y-35530509D01*
X26482491Y-35450915D01*
X26394972Y-35400385D01*
X26346759Y-35349820D01*
X26333537Y-35281212D01*
X26359505Y-35216348D01*
X26394971Y-35185614D01*
X26482491Y-35135085D01*
X26562085Y-35055491D01*
X26618367Y-34958009D01*
X26647500Y-34849281D01*
X26647500Y-34736719D01*
X26618367Y-34627991D01*
X26562085Y-34530509D01*
X26482491Y-34450915D01*
X26433750Y-34422774D01*
X26385010Y-34394633D01*
X26330645Y-34380066D01*
X26276281Y-34365500D01*
X26163719Y-34365500D01*
X26054989Y-34394633D01*
X25957509Y-34450915D01*
X25957504Y-34450919D01*
X25949775Y-34458648D01*
X25888451Y-34492131D01*
X25818759Y-34487144D01*
X25762827Y-34445271D01*
X25740480Y-34395154D01*
X25740102Y-34393252D01*
X25721559Y-34365500D01*
X25711922Y-34351077D01*
X25669749Y-34322898D01*
X25632559Y-34315500D01*
X25632558Y-34315500D01*
X24494000Y-34315500D01*
X24426961Y-34295815D01*
X24381206Y-34243011D01*
X24370000Y-34191500D01*
X24370000Y-33244500D01*
X24389685Y-33177461D01*
X24442489Y-33131706D01*
X24494000Y-33120500D01*
X25632558Y-33120500D01*
X25669748Y-33113102D01*
X25669752Y-33113098D01*
X25681032Y-33108428D01*
X25681605Y-33109811D01*
X25735233Y-33093020D01*
X25737447Y-33093000D01*
X26586500Y-33093000D01*
X26653539Y-33112685D01*
G37*
%TD.AperFunction*%
%TD*%
M02*
