M48
; DRILL file KiCad 10.0.6-10.0.6~ubuntu26.04.1 date 2026-09-24T03:25:07
; FORMAT={-:-/ absolute / metric / decimal}
; #@! TF.CreationDate,2026-09-24T03:25:07-04:00
; #@! TF.GenerationSoftware,Kicad,Pcbnew,10.0.6-10.0.6~ubuntu26.04.1
; #@! TF.FileFunction,MixedPlating,1,2
FMAT,2
METRIC
; #@! TA.AperFunction,Plated,PTH,ViaDrill
T1C0.300
; #@! TA.AperFunction,Plated,PTH,ComponentDrill
T2C0.600
; #@! TA.AperFunction,Plated,PTH,ComponentDrill
T3C1.100
%
G90
G05
T1
X25.87Y-28.543
X26.22Y-34.793
X26.22Y-35.793
X26.67Y-41.143
X26.87Y-38.143
X26.87Y-39.143
X28.27Y-32.543
X30.27Y-32.543
X31.07Y-38.943
X31.07Y-40.143
X31.07Y-41.343
X32.27Y-32.543
X34.27Y-32.543
X36.77Y-41.793
X42.67Y-39.093
T3
X41.67Y-34.093
X41.67Y-36.633
T2
X21.37Y-30.973G85X20.77Y-30.973
G05
X21.37Y-39.613G85X20.77Y-39.613
G05
X25.17Y-30.973G85X24.57Y-30.973
G05
X25.17Y-39.613G85X24.57Y-39.613
G05
M30
