%TF.GenerationSoftware,KiCad,Pcbnew,10.0.6-10.0.6~ubuntu26.04.1*%
%TF.CreationDate,2026-09-24T03:25:05-04:00*%
%TF.ProjectId,pd-trigger-lite,70642d74-7269-4676-9765-722d6c697465,rev?*%
%TF.SameCoordinates,Original*%
%TF.FileFunction,Copper,L2,Bot*%
%TF.FilePolarity,Positive*%
%FSLAX46Y46*%
G04 Gerber Fmt 4.6, Leading zero omitted, Abs format (unit mm)*
G04 Created by KiCad (PCBNEW 10.0.6-10.0.6~ubuntu26.04.1) date 2026-09-24 03:25:05*
%MOMM*%
%LPD*%
G01*
G04 APERTURE LIST*
%TA.AperFunction,ComponentPad*%
%ADD10R,2.000000X2.000000*%
%TD*%
%TA.AperFunction,ComponentPad*%
%ADD11C,2.000000*%
%TD*%
%TA.AperFunction,ComponentPad*%
%ADD12O,1.800000X1.200000*%
%TD*%
%TA.AperFunction,ViaPad*%
%ADD13C,0.600000*%
%TD*%
%TA.AperFunction,Conductor*%
%ADD14C,0.250000*%
%TD*%
G04 APERTURE END LIST*
D10*
%TO.P,J2,1*%
%TO.N,VBUS*%
X41670000Y-34093000D03*
D11*
%TO.P,J2,2*%
%TO.N,GND*%
X41670000Y-36633000D03*
%TD*%
D12*
%TO.P,J1,1*%
%TO.N,GND*%
X24870000Y-39613000D03*
%TO.P,J1,2*%
X21070000Y-39613000D03*
%TO.P,J1,3*%
X21070000Y-30973000D03*
%TO.P,J1,4*%
X24870000Y-30973000D03*
%TD*%
D13*
%TO.N,/CC2*%
X26870000Y-38143000D03*
X26220000Y-35793000D03*
%TO.N,/CC1*%
X26870000Y-39143000D03*
X26220000Y-34793000D03*
%TO.N,/CFG1*%
X26670000Y-41143000D03*
X25870000Y-28543000D03*
%TO.N,GND*%
X30270000Y-32543000D03*
X32270000Y-32543000D03*
X42670000Y-39093000D03*
X34270000Y-32543000D03*
X28270000Y-32543000D03*
X36770000Y-41793000D03*
X31070000Y-40143000D03*
X31070000Y-41343000D03*
X31070000Y-38943000D03*
%TD*%
%TO.N,/CC2*%
D14*
X26220000Y-37493000D02*
X26870000Y-38143000D01*
X26220000Y-35793000D02*
X26220000Y-37493000D01*
%TO.N,/CC1*%
X27770000Y-34793000D02*
X27770000Y-38693000D01*
X26220000Y-34793000D02*
X27770000Y-34793000D01*
X27770000Y-38693000D02*
X26870000Y-39143000D01*
%TO.N,/CFG1*%
X22970000Y-41143000D02*
X22970000Y-28993000D01*
X25420000Y-28993000D02*
X25870000Y-28543000D01*
X26670000Y-41143000D02*
X22970000Y-41143000D01*
X22970000Y-28993000D02*
X25420000Y-28993000D01*
%TD*%
%TA.AperFunction,Conductor*%
%TO.N,GND*%
G36*
X25399846Y-28312685D02*
G01*
X25445601Y-28365489D01*
X25455545Y-28434647D01*
X25452582Y-28449093D01*
X25442500Y-28486719D01*
X25442500Y-28562047D01*
X25422815Y-28629086D01*
X25406182Y-28649727D01*
X25351730Y-28704180D01*
X25290407Y-28737666D01*
X25264048Y-28740500D01*
X22919773Y-28740500D01*
X22826969Y-28778941D01*
X22755941Y-28849969D01*
X22717500Y-28942773D01*
X22717500Y-41193226D01*
X22720008Y-41199280D01*
X22755941Y-41286030D01*
X22826970Y-41357059D01*
X22919775Y-41395500D01*
X26266561Y-41395500D01*
X26333600Y-41415185D01*
X26354241Y-41431818D01*
X26407505Y-41485081D01*
X26407509Y-41485085D01*
X26504991Y-41541367D01*
X26613719Y-41570500D01*
X26613721Y-41570500D01*
X26726279Y-41570500D01*
X26726281Y-41570500D01*
X26835009Y-41541367D01*
X26932491Y-41485085D01*
X27012085Y-41405491D01*
X27068367Y-41308009D01*
X27097500Y-41199281D01*
X27097500Y-41086719D01*
X27068367Y-40977991D01*
X27012085Y-40880509D01*
X26932491Y-40800915D01*
X26872883Y-40766500D01*
X26835010Y-40744633D01*
X26780645Y-40730066D01*
X26726281Y-40715500D01*
X26613719Y-40715500D01*
X26504989Y-40744633D01*
X26407509Y-40800915D01*
X26407505Y-40800918D01*
X26354241Y-40854182D01*
X26292918Y-40887666D01*
X26266561Y-40890500D01*
X25580838Y-40890500D01*
X25513799Y-40870815D01*
X25468044Y-40818011D01*
X25458100Y-40748853D01*
X25487125Y-40685297D01*
X25542520Y-40648569D01*
X25592255Y-40632408D01*
X25746524Y-40553804D01*
X25886602Y-40452032D01*
X26009032Y-40329602D01*
X26110804Y-40189524D01*
X26189408Y-40035255D01*
X26242914Y-39870584D01*
X26244115Y-39863000D01*
X25336986Y-39863000D01*
X25354204Y-39853059D01*
X25410059Y-39797204D01*
X25449555Y-39728795D01*
X25469999Y-39652496D01*
X25469999Y-39573504D01*
X25449555Y-39497205D01*
X25410059Y-39428796D01*
X25354204Y-39372941D01*
X25336986Y-39363000D01*
X26238405Y-39363000D01*
X26199696Y-39222407D01*
X26189408Y-39190742D01*
X26110804Y-39036475D01*
X26009032Y-38896397D01*
X25886602Y-38773967D01*
X25746524Y-38672195D01*
X25592257Y-38593591D01*
X25427584Y-38540085D01*
X25256571Y-38513000D01*
X25120000Y-38513000D01*
X25120000Y-39313001D01*
X24620000Y-39313001D01*
X24620000Y-38513000D01*
X24483429Y-38513000D01*
X24312415Y-38540085D01*
X24147742Y-38593591D01*
X23993475Y-38672195D01*
X23853397Y-38773967D01*
X23730967Y-38896397D01*
X23629195Y-39036475D01*
X23550591Y-39190744D01*
X23497085Y-39355415D01*
X23495884Y-39362999D01*
X23495885Y-39363000D01*
X24403014Y-39363000D01*
X24385796Y-39372941D01*
X24329941Y-39428796D01*
X24290445Y-39497205D01*
X24270001Y-39573504D01*
X24270001Y-39652496D01*
X24290445Y-39728795D01*
X24329941Y-39797204D01*
X24385796Y-39853059D01*
X24403014Y-39863000D01*
X23495885Y-39863000D01*
X23497085Y-39870584D01*
X23550591Y-40035255D01*
X23629195Y-40189524D01*
X23730967Y-40329602D01*
X23853397Y-40452032D01*
X23993475Y-40553804D01*
X24147744Y-40632408D01*
X24197480Y-40648569D01*
X24255156Y-40688007D01*
X24282354Y-40752365D01*
X24270439Y-40821212D01*
X24223195Y-40872687D01*
X24159162Y-40890500D01*
X23346500Y-40890500D01*
X23279461Y-40870815D01*
X23233706Y-40818011D01*
X23222500Y-40766500D01*
X23222500Y-34736719D01*
X25792500Y-34736719D01*
X25792500Y-34849280D01*
X25821633Y-34958010D01*
X25849774Y-35006750D01*
X25877915Y-35055491D01*
X25957509Y-35135085D01*
X26035726Y-35180244D01*
X26045025Y-35185613D01*
X26093240Y-35236181D01*
X26106462Y-35304788D01*
X26080494Y-35369653D01*
X26045025Y-35400387D01*
X25957509Y-35450915D01*
X25957506Y-35450917D01*
X25877917Y-35530506D01*
X25877915Y-35530509D01*
X25821633Y-35627989D01*
X25792500Y-35736719D01*
X25792500Y-35849280D01*
X25821633Y-35958010D01*
X25849774Y-36006750D01*
X25877915Y-36055491D01*
X25877917Y-36055493D01*
X25931181Y-36108757D01*
X25964666Y-36170080D01*
X25967500Y-36196438D01*
X25967500Y-37543226D01*
X26005941Y-37636030D01*
X26406181Y-38036270D01*
X26439666Y-38097593D01*
X26442500Y-38123951D01*
X26442500Y-38199280D01*
X26471633Y-38308010D01*
X26499774Y-38356750D01*
X26527915Y-38405491D01*
X26607509Y-38485085D01*
X26655859Y-38513000D01*
X26695025Y-38535613D01*
X26743240Y-38586181D01*
X26756462Y-38654788D01*
X26730494Y-38719653D01*
X26695025Y-38750387D01*
X26607509Y-38800915D01*
X26607506Y-38800917D01*
X26527917Y-38880506D01*
X26527915Y-38880509D01*
X26471633Y-38977989D01*
X26442500Y-39086719D01*
X26442500Y-39199281D01*
X26471633Y-39308009D01*
X26488569Y-39337342D01*
X26488570Y-39337346D01*
X26503382Y-39363000D01*
X26527915Y-39405491D01*
X26607509Y-39485085D01*
X26704991Y-39541367D01*
X26813719Y-39570500D01*
X26813721Y-39570500D01*
X26926279Y-39570500D01*
X26926281Y-39570500D01*
X27035009Y-39541367D01*
X27132491Y-39485085D01*
X27212085Y-39405491D01*
X27268367Y-39308009D01*
X27279268Y-39267321D01*
X27315630Y-39207665D01*
X27343585Y-39188509D01*
X27870971Y-38924816D01*
X27878950Y-38921174D01*
X27913030Y-38907059D01*
X27913033Y-38907055D01*
X27920633Y-38901978D01*
X27927840Y-38896384D01*
X27927841Y-38896382D01*
X27927844Y-38896381D01*
X27952003Y-38868524D01*
X27957969Y-38862118D01*
X27984059Y-38836030D01*
X27984061Y-38836023D01*
X27989141Y-38828421D01*
X27993658Y-38820497D01*
X27993657Y-38820497D01*
X27993660Y-38820495D01*
X28005323Y-38785505D01*
X28008386Y-38777297D01*
X28022500Y-38743225D01*
X28022500Y-38743219D01*
X28024284Y-38734254D01*
X28025426Y-38725197D01*
X28022812Y-38688417D01*
X28022500Y-38679627D01*
X28022500Y-34742776D01*
X28022499Y-34742773D01*
X27984059Y-34649970D01*
X27913030Y-34578941D01*
X27820226Y-34540500D01*
X27820225Y-34540500D01*
X26623439Y-34540500D01*
X26556400Y-34520815D01*
X26535759Y-34504182D01*
X26482494Y-34450918D01*
X26482493Y-34450917D01*
X26482491Y-34450915D01*
X26433750Y-34422774D01*
X26385010Y-34394633D01*
X26330645Y-34380066D01*
X26276281Y-34365500D01*
X26163719Y-34365500D01*
X26054989Y-34394633D01*
X25957509Y-34450915D01*
X25957506Y-34450917D01*
X25877917Y-34530506D01*
X25877915Y-34530509D01*
X25821633Y-34627989D01*
X25792500Y-34736719D01*
X23222500Y-34736719D01*
X23222500Y-30722999D01*
X23495884Y-30722999D01*
X23495885Y-30723000D01*
X24403014Y-30723000D01*
X24385796Y-30732941D01*
X24329941Y-30788796D01*
X24290445Y-30857205D01*
X24270001Y-30933504D01*
X24270001Y-31012496D01*
X24290445Y-31088795D01*
X24329941Y-31157204D01*
X24385796Y-31213059D01*
X24403014Y-31223000D01*
X23495885Y-31223000D01*
X23497085Y-31230584D01*
X23550591Y-31395255D01*
X23629195Y-31549524D01*
X23730967Y-31689602D01*
X23853397Y-31812032D01*
X23993475Y-31913804D01*
X24147742Y-31992408D01*
X24312415Y-32045914D01*
X24483429Y-32073000D01*
X24620000Y-32073000D01*
X24620000Y-31272999D01*
X25120000Y-31272999D01*
X25120000Y-32073000D01*
X25256571Y-32073000D01*
X25427584Y-32045914D01*
X25592257Y-31992408D01*
X25746524Y-31913804D01*
X25886602Y-31812032D01*
X26009032Y-31689602D01*
X26110804Y-31549524D01*
X26189408Y-31395255D01*
X26242914Y-31230584D01*
X26244115Y-31223000D01*
X25336986Y-31223000D01*
X25354204Y-31213059D01*
X25410059Y-31157204D01*
X25449555Y-31088795D01*
X25469999Y-31012496D01*
X25469999Y-30933504D01*
X25449555Y-30857205D01*
X25410059Y-30788796D01*
X25354204Y-30732941D01*
X25336986Y-30723000D01*
X26244115Y-30723000D01*
X26244115Y-30722999D01*
X26242914Y-30715415D01*
X26189408Y-30550744D01*
X26110804Y-30396475D01*
X26009032Y-30256397D01*
X25886602Y-30133967D01*
X25746524Y-30032195D01*
X25592257Y-29953591D01*
X25427584Y-29900085D01*
X25256571Y-29873000D01*
X25120000Y-29873000D01*
X25120000Y-30673001D01*
X24620000Y-30673001D01*
X24620000Y-29873000D01*
X24483429Y-29873000D01*
X24312415Y-29900085D01*
X24147742Y-29953591D01*
X23993475Y-30032195D01*
X23853397Y-30133967D01*
X23730967Y-30256397D01*
X23629195Y-30396475D01*
X23550591Y-30550744D01*
X23497085Y-30715415D01*
X23495884Y-30722999D01*
X23222500Y-30722999D01*
X23222500Y-29369500D01*
X23242185Y-29302461D01*
X23294989Y-29256706D01*
X23346500Y-29245500D01*
X25470223Y-29245500D01*
X25470225Y-29245500D01*
X25563030Y-29207059D01*
X25763270Y-29006817D01*
X25824591Y-28973334D01*
X25850950Y-28970500D01*
X25926279Y-28970500D01*
X25926281Y-28970500D01*
X26035009Y-28941367D01*
X26132491Y-28885085D01*
X26212085Y-28805491D01*
X26268367Y-28708009D01*
X26297500Y-28599281D01*
X26297500Y-28486719D01*
X26287418Y-28449091D01*
X26289081Y-28379243D01*
X26328244Y-28321381D01*
X26392472Y-28293877D01*
X26407193Y-28293000D01*
X42846000Y-28293000D01*
X42913039Y-28312685D01*
X42958794Y-28365489D01*
X42970000Y-28417000D01*
X42970000Y-32909793D01*
X42950315Y-32976832D01*
X42897511Y-33022587D01*
X42828353Y-33032531D01*
X42772605Y-33007072D01*
X42772077Y-33007863D01*
X42767195Y-33004601D01*
X42764797Y-33003506D01*
X42762867Y-33001709D01*
X42719749Y-32972898D01*
X42682559Y-32965500D01*
X42682558Y-32965500D01*
X40657442Y-32965500D01*
X40657441Y-32965500D01*
X40620250Y-32972898D01*
X40578077Y-33001077D01*
X40549898Y-33043250D01*
X40542500Y-33080441D01*
X40542500Y-35105558D01*
X40549898Y-35142749D01*
X40578077Y-35184922D01*
X40620250Y-35213101D01*
X40620252Y-35213102D01*
X40648205Y-35218662D01*
X40657441Y-35220500D01*
X40681693Y-35220500D01*
X40748732Y-35240185D01*
X40794487Y-35292989D01*
X40805311Y-35354230D01*
X40800894Y-35410340D01*
X41499766Y-36109212D01*
X41457708Y-36120482D01*
X41332292Y-36192890D01*
X41229890Y-36295292D01*
X41157482Y-36420708D01*
X41146212Y-36462766D01*
X40447340Y-35763894D01*
X40387084Y-35846830D01*
X40279897Y-36057197D01*
X40206934Y-36281752D01*
X40170000Y-36514947D01*
X40170000Y-36751052D01*
X40206934Y-36984247D01*
X40279897Y-37208802D01*
X40387087Y-37419174D01*
X40447338Y-37502104D01*
X40447340Y-37502105D01*
X41146212Y-36803233D01*
X41157482Y-36845292D01*
X41229890Y-36970708D01*
X41332292Y-37073110D01*
X41457708Y-37145518D01*
X41499765Y-37156787D01*
X40800893Y-37855658D01*
X40883828Y-37915914D01*
X41094197Y-38023102D01*
X41318752Y-38096065D01*
X41318751Y-38096065D01*
X41551948Y-38133000D01*
X41788052Y-38133000D01*
X42021247Y-38096065D01*
X42245802Y-38023102D01*
X42456163Y-37915918D01*
X42456169Y-37915914D01*
X42539104Y-37855658D01*
X42539105Y-37855658D01*
X41840233Y-37156787D01*
X41882292Y-37145518D01*
X42007708Y-37073110D01*
X42110110Y-36970708D01*
X42182518Y-36845292D01*
X42193787Y-36803233D01*
X42933080Y-37542527D01*
X42929853Y-37545753D01*
X42954335Y-37569832D01*
X42970000Y-37630160D01*
X42970000Y-42168000D01*
X42950315Y-42235039D01*
X42897511Y-42280794D01*
X42846000Y-42292000D01*
X19094000Y-42292000D01*
X19026961Y-42272315D01*
X18981206Y-42219511D01*
X18970000Y-42168000D01*
X18970000Y-39362999D01*
X19695884Y-39362999D01*
X19695885Y-39363000D01*
X20603014Y-39363000D01*
X20585796Y-39372941D01*
X20529941Y-39428796D01*
X20490445Y-39497205D01*
X20470001Y-39573504D01*
X20470001Y-39652496D01*
X20490445Y-39728795D01*
X20529941Y-39797204D01*
X20585796Y-39853059D01*
X20603014Y-39863000D01*
X19695885Y-39863000D01*
X19697085Y-39870584D01*
X19750591Y-40035255D01*
X19829195Y-40189524D01*
X19930967Y-40329602D01*
X20053397Y-40452032D01*
X20193475Y-40553804D01*
X20347742Y-40632408D01*
X20512415Y-40685914D01*
X20683429Y-40713000D01*
X20820000Y-40713000D01*
X20820000Y-39912999D01*
X21320000Y-39912999D01*
X21320000Y-40713000D01*
X21456571Y-40713000D01*
X21627584Y-40685914D01*
X21792257Y-40632408D01*
X21946524Y-40553804D01*
X22086602Y-40452032D01*
X22209032Y-40329602D01*
X22310804Y-40189524D01*
X22389408Y-40035255D01*
X22442914Y-39870584D01*
X22444115Y-39863000D01*
X21536986Y-39863000D01*
X21554204Y-39853059D01*
X21610059Y-39797204D01*
X21649555Y-39728795D01*
X21669999Y-39652496D01*
X21669999Y-39573504D01*
X21649555Y-39497205D01*
X21610059Y-39428796D01*
X21554204Y-39372941D01*
X21536986Y-39363000D01*
X22444115Y-39363000D01*
X22444115Y-39362999D01*
X22442914Y-39355415D01*
X22389408Y-39190744D01*
X22310804Y-39036475D01*
X22209032Y-38896397D01*
X22086602Y-38773967D01*
X21946524Y-38672195D01*
X21792257Y-38593591D01*
X21627584Y-38540085D01*
X21456571Y-38513000D01*
X21320000Y-38513000D01*
X21320000Y-39313001D01*
X20820000Y-39313001D01*
X20820000Y-38513000D01*
X20683429Y-38513000D01*
X20512415Y-38540085D01*
X20347742Y-38593591D01*
X20193475Y-38672195D01*
X20053397Y-38773967D01*
X19930967Y-38896397D01*
X19829195Y-39036475D01*
X19750591Y-39190744D01*
X19697085Y-39355415D01*
X19695884Y-39362999D01*
X18970000Y-39362999D01*
X18970000Y-30722999D01*
X19695884Y-30722999D01*
X19695885Y-30723000D01*
X20603014Y-30723000D01*
X20585796Y-30732941D01*
X20529941Y-30788796D01*
X20490445Y-30857205D01*
X20470001Y-30933504D01*
X20470001Y-31012496D01*
X20490445Y-31088795D01*
X20529941Y-31157204D01*
X20585796Y-31213059D01*
X20603014Y-31223000D01*
X19695885Y-31223000D01*
X19697085Y-31230584D01*
X19750591Y-31395255D01*
X19829195Y-31549524D01*
X19930967Y-31689602D01*
X20053397Y-31812032D01*
X20193475Y-31913804D01*
X20347742Y-31992408D01*
X20512415Y-32045914D01*
X20683429Y-32073000D01*
X20820000Y-32073000D01*
X20820000Y-31272999D01*
X21320000Y-31272999D01*
X21320000Y-32073000D01*
X21456571Y-32073000D01*
X21627584Y-32045914D01*
X21792257Y-31992408D01*
X21946524Y-31913804D01*
X22086602Y-31812032D01*
X22209032Y-31689602D01*
X22310804Y-31549524D01*
X22389408Y-31395255D01*
X22442914Y-31230584D01*
X22444115Y-31223000D01*
X21536986Y-31223000D01*
X21554204Y-31213059D01*
X21610059Y-31157204D01*
X21649555Y-31088795D01*
X21669999Y-31012496D01*
X21669999Y-30933504D01*
X21649555Y-30857205D01*
X21610059Y-30788796D01*
X21554204Y-30732941D01*
X21536986Y-30723000D01*
X22444115Y-30723000D01*
X22444115Y-30722999D01*
X22442914Y-30715415D01*
X22389408Y-30550744D01*
X22310804Y-30396475D01*
X22209032Y-30256397D01*
X22086602Y-30133967D01*
X21946524Y-30032195D01*
X21792257Y-29953591D01*
X21627584Y-29900085D01*
X21456571Y-29873000D01*
X21320000Y-29873000D01*
X21320000Y-30673001D01*
X20820000Y-30673001D01*
X20820000Y-29873000D01*
X20683429Y-29873000D01*
X20512415Y-29900085D01*
X20347742Y-29953591D01*
X20193475Y-30032195D01*
X20053397Y-30133967D01*
X19930967Y-30256397D01*
X19829195Y-30396475D01*
X19750591Y-30550744D01*
X19697085Y-30715415D01*
X19695884Y-30722999D01*
X18970000Y-30722999D01*
X18970000Y-28417000D01*
X18989685Y-28349961D01*
X19042489Y-28304206D01*
X19094000Y-28293000D01*
X25332807Y-28293000D01*
X25399846Y-28312685D01*
G37*
%TD.AperFunction*%
%TA.AperFunction,Conductor*%
G36*
X42889334Y-35160025D02*
G01*
X42945267Y-35201897D01*
X42969684Y-35267361D01*
X42970000Y-35276207D01*
X42970000Y-35635838D01*
X42950315Y-35702877D01*
X42930047Y-35720439D01*
X42933080Y-35723472D01*
X42193787Y-36462765D01*
X42182518Y-36420708D01*
X42110110Y-36295292D01*
X42007708Y-36192890D01*
X41882292Y-36120482D01*
X41840234Y-36109212D01*
X42539105Y-35410341D01*
X42534689Y-35354229D01*
X42549053Y-35285852D01*
X42598105Y-35236095D01*
X42658307Y-35220500D01*
X42682559Y-35220500D01*
X42689957Y-35219028D01*
X42719748Y-35213102D01*
X42743141Y-35197470D01*
X42772077Y-35178137D01*
X42773485Y-35180244D01*
X42819642Y-35155041D01*
X42889334Y-35160025D01*
G37*
%TD.AperFunction*%
%TD*%
M02*
