%TF.GenerationSoftware,KiCad,Pcbnew,10.0.3*%
%TF.CreationDate,2026-08-09T04:09:48-07:00*%
%TF.ProjectId,rf-term-150w,72662d74-6572-46d2-9d31-3530772e6b69,rev?*%
%TF.SameCoordinates,Original*%
%TF.FileFunction,Legend,Top*%
%TF.FilePolarity,Positive*%
%FSLAX46Y46*%
G04 Gerber Fmt 4.6, Leading zero omitted, Abs format (unit mm)*
G04 Created by KiCad (PCBNEW 10.0.3) date 2026-08-09 04:09:48*
%MOMM*%
%LPD*%
G01*
G04 APERTURE LIST*
%ADD10C,0.150000*%
%ADD11C,0.200000*%
%ADD12C,0.120000*%
%ADD13C,0.250000*%
G04 APERTURE END LIST*
D10*
X46573095Y-31342319D02*
X46573095Y-30342319D01*
X46573095Y-30818509D02*
X47144523Y-30818509D01*
X47144523Y-31342319D02*
X47144523Y-30342319D01*
X47573095Y-30437557D02*
X47620714Y-30389938D01*
X47620714Y-30389938D02*
X47715952Y-30342319D01*
X47715952Y-30342319D02*
X47954047Y-30342319D01*
X47954047Y-30342319D02*
X48049285Y-30389938D01*
X48049285Y-30389938D02*
X48096904Y-30437557D01*
X48096904Y-30437557D02*
X48144523Y-30532795D01*
X48144523Y-30532795D02*
X48144523Y-30628033D01*
X48144523Y-30628033D02*
X48096904Y-30770890D01*
X48096904Y-30770890D02*
X47525476Y-31342319D01*
X47525476Y-31342319D02*
X48144523Y-31342319D01*
X44468333Y-29897080D02*
X44420714Y-29944700D01*
X44420714Y-29944700D02*
X44277857Y-29992319D01*
X44277857Y-29992319D02*
X44182619Y-29992319D01*
X44182619Y-29992319D02*
X44039762Y-29944700D01*
X44039762Y-29944700D02*
X43944524Y-29849461D01*
X43944524Y-29849461D02*
X43896905Y-29754223D01*
X43896905Y-29754223D02*
X43849286Y-29563747D01*
X43849286Y-29563747D02*
X43849286Y-29420890D01*
X43849286Y-29420890D02*
X43896905Y-29230414D01*
X43896905Y-29230414D02*
X43944524Y-29135176D01*
X43944524Y-29135176D02*
X44039762Y-29039938D01*
X44039762Y-29039938D02*
X44182619Y-28992319D01*
X44182619Y-28992319D02*
X44277857Y-28992319D01*
X44277857Y-28992319D02*
X44420714Y-29039938D01*
X44420714Y-29039938D02*
X44468333Y-29087557D01*
X45420714Y-29992319D02*
X44849286Y-29992319D01*
X45135000Y-29992319D02*
X45135000Y-28992319D01*
X45135000Y-28992319D02*
X45039762Y-29135176D01*
X45039762Y-29135176D02*
X44944524Y-29230414D01*
X44944524Y-29230414D02*
X44849286Y-29278033D01*
X26473095Y-21742319D02*
X26473095Y-20742319D01*
X26473095Y-21218509D02*
X27044523Y-21218509D01*
X27044523Y-21742319D02*
X27044523Y-20742319D01*
X27425476Y-20742319D02*
X28044523Y-20742319D01*
X28044523Y-20742319D02*
X27711190Y-21123271D01*
X27711190Y-21123271D02*
X27854047Y-21123271D01*
X27854047Y-21123271D02*
X27949285Y-21170890D01*
X27949285Y-21170890D02*
X27996904Y-21218509D01*
X27996904Y-21218509D02*
X28044523Y-21313747D01*
X28044523Y-21313747D02*
X28044523Y-21551842D01*
X28044523Y-21551842D02*
X27996904Y-21647080D01*
X27996904Y-21647080D02*
X27949285Y-21694700D01*
X27949285Y-21694700D02*
X27854047Y-21742319D01*
X27854047Y-21742319D02*
X27568333Y-21742319D01*
X27568333Y-21742319D02*
X27473095Y-21694700D01*
X27473095Y-21694700D02*
X27425476Y-21647080D01*
X34251666Y-29342319D02*
X34251666Y-30056604D01*
X34251666Y-30056604D02*
X34204047Y-30199461D01*
X34204047Y-30199461D02*
X34108809Y-30294700D01*
X34108809Y-30294700D02*
X33965952Y-30342319D01*
X33965952Y-30342319D02*
X33870714Y-30342319D01*
X35251666Y-30342319D02*
X34680238Y-30342319D01*
X34965952Y-30342319D02*
X34965952Y-29342319D01*
X34965952Y-29342319D02*
X34870714Y-29485176D01*
X34870714Y-29485176D02*
X34775476Y-29580414D01*
X34775476Y-29580414D02*
X34680238Y-29628033D01*
X26473095Y-31342319D02*
X26473095Y-30342319D01*
X26473095Y-30818509D02*
X27044523Y-30818509D01*
X27044523Y-31342319D02*
X27044523Y-30342319D01*
X28044523Y-31342319D02*
X27473095Y-31342319D01*
X27758809Y-31342319D02*
X27758809Y-30342319D01*
X27758809Y-30342319D02*
X27663571Y-30485176D01*
X27663571Y-30485176D02*
X27568333Y-30580414D01*
X27568333Y-30580414D02*
X27473095Y-30628033D01*
X32118333Y-35967319D02*
X31785000Y-35491128D01*
X31546905Y-35967319D02*
X31546905Y-34967319D01*
X31546905Y-34967319D02*
X31927857Y-34967319D01*
X31927857Y-34967319D02*
X32023095Y-35014938D01*
X32023095Y-35014938D02*
X32070714Y-35062557D01*
X32070714Y-35062557D02*
X32118333Y-35157795D01*
X32118333Y-35157795D02*
X32118333Y-35300652D01*
X32118333Y-35300652D02*
X32070714Y-35395890D01*
X32070714Y-35395890D02*
X32023095Y-35443509D01*
X32023095Y-35443509D02*
X31927857Y-35491128D01*
X31927857Y-35491128D02*
X31546905Y-35491128D01*
X33070714Y-35967319D02*
X32499286Y-35967319D01*
X32785000Y-35967319D02*
X32785000Y-34967319D01*
X32785000Y-34967319D02*
X32689762Y-35110176D01*
X32689762Y-35110176D02*
X32594524Y-35205414D01*
X32594524Y-35205414D02*
X32499286Y-35253033D01*
X26055952Y-37625747D02*
X26170238Y-37663842D01*
X26170238Y-37663842D02*
X26208333Y-37701938D01*
X26208333Y-37701938D02*
X26246429Y-37778128D01*
X26246429Y-37778128D02*
X26246429Y-37892414D01*
X26246429Y-37892414D02*
X26208333Y-37968604D01*
X26208333Y-37968604D02*
X26170238Y-38006700D01*
X26170238Y-38006700D02*
X26094048Y-38044795D01*
X26094048Y-38044795D02*
X25789286Y-38044795D01*
X25789286Y-38044795D02*
X25789286Y-37244795D01*
X25789286Y-37244795D02*
X26055952Y-37244795D01*
X26055952Y-37244795D02*
X26132143Y-37282890D01*
X26132143Y-37282890D02*
X26170238Y-37320985D01*
X26170238Y-37320985D02*
X26208333Y-37397176D01*
X26208333Y-37397176D02*
X26208333Y-37473366D01*
X26208333Y-37473366D02*
X26170238Y-37549557D01*
X26170238Y-37549557D02*
X26132143Y-37587652D01*
X26132143Y-37587652D02*
X26055952Y-37625747D01*
X26055952Y-37625747D02*
X25789286Y-37625747D01*
X26741667Y-37244795D02*
X26894048Y-37244795D01*
X26894048Y-37244795D02*
X26970238Y-37282890D01*
X26970238Y-37282890D02*
X27046429Y-37359080D01*
X27046429Y-37359080D02*
X27084524Y-37511461D01*
X27084524Y-37511461D02*
X27084524Y-37778128D01*
X27084524Y-37778128D02*
X27046429Y-37930509D01*
X27046429Y-37930509D02*
X26970238Y-38006700D01*
X26970238Y-38006700D02*
X26894048Y-38044795D01*
X26894048Y-38044795D02*
X26741667Y-38044795D01*
X26741667Y-38044795D02*
X26665476Y-38006700D01*
X26665476Y-38006700D02*
X26589286Y-37930509D01*
X26589286Y-37930509D02*
X26551190Y-37778128D01*
X26551190Y-37778128D02*
X26551190Y-37511461D01*
X26551190Y-37511461D02*
X26589286Y-37359080D01*
X26589286Y-37359080D02*
X26665476Y-37282890D01*
X26665476Y-37282890D02*
X26741667Y-37244795D01*
X27808333Y-38044795D02*
X27427381Y-38044795D01*
X27427381Y-38044795D02*
X27427381Y-37244795D01*
X27960714Y-37244795D02*
X28417857Y-37244795D01*
X28189285Y-38044795D02*
X28189285Y-37244795D01*
X29751191Y-37968604D02*
X29713095Y-38006700D01*
X29713095Y-38006700D02*
X29598810Y-38044795D01*
X29598810Y-38044795D02*
X29522619Y-38044795D01*
X29522619Y-38044795D02*
X29408333Y-38006700D01*
X29408333Y-38006700D02*
X29332143Y-37930509D01*
X29332143Y-37930509D02*
X29294048Y-37854319D01*
X29294048Y-37854319D02*
X29255952Y-37701938D01*
X29255952Y-37701938D02*
X29255952Y-37587652D01*
X29255952Y-37587652D02*
X29294048Y-37435271D01*
X29294048Y-37435271D02*
X29332143Y-37359080D01*
X29332143Y-37359080D02*
X29408333Y-37282890D01*
X29408333Y-37282890D02*
X29522619Y-37244795D01*
X29522619Y-37244795D02*
X29598810Y-37244795D01*
X29598810Y-37244795D02*
X29713095Y-37282890D01*
X29713095Y-37282890D02*
X29751191Y-37320985D01*
X30475000Y-38044795D02*
X30094048Y-38044795D01*
X30094048Y-38044795D02*
X30094048Y-37244795D01*
X33056428Y-31725747D02*
X32789762Y-31725747D01*
X32789762Y-32144795D02*
X32789762Y-31344795D01*
X32789762Y-31344795D02*
X33170714Y-31344795D01*
X33856428Y-32144795D02*
X33475476Y-32144795D01*
X33475476Y-32144795D02*
X33475476Y-31344795D01*
X34084999Y-31916223D02*
X34465952Y-31916223D01*
X34008809Y-32144795D02*
X34275476Y-31344795D01*
X34275476Y-31344795D02*
X34542142Y-32144795D01*
X34808809Y-32144795D02*
X34808809Y-31344795D01*
X34808809Y-31344795D02*
X35265952Y-32144795D01*
X35265952Y-32144795D02*
X35265952Y-31344795D01*
X36065951Y-31382890D02*
X35989761Y-31344795D01*
X35989761Y-31344795D02*
X35875475Y-31344795D01*
X35875475Y-31344795D02*
X35761189Y-31382890D01*
X35761189Y-31382890D02*
X35684999Y-31459080D01*
X35684999Y-31459080D02*
X35646904Y-31535271D01*
X35646904Y-31535271D02*
X35608808Y-31687652D01*
X35608808Y-31687652D02*
X35608808Y-31801938D01*
X35608808Y-31801938D02*
X35646904Y-31954319D01*
X35646904Y-31954319D02*
X35684999Y-32030509D01*
X35684999Y-32030509D02*
X35761189Y-32106700D01*
X35761189Y-32106700D02*
X35875475Y-32144795D01*
X35875475Y-32144795D02*
X35951666Y-32144795D01*
X35951666Y-32144795D02*
X36065951Y-32106700D01*
X36065951Y-32106700D02*
X36104047Y-32068604D01*
X36104047Y-32068604D02*
X36104047Y-31801938D01*
X36104047Y-31801938D02*
X35951666Y-31801938D01*
X36446904Y-31725747D02*
X36713570Y-31725747D01*
X36827856Y-32144795D02*
X36446904Y-32144795D01*
X36446904Y-32144795D02*
X36446904Y-31344795D01*
X36446904Y-31344795D02*
X36827856Y-31344795D01*
X37742142Y-31306700D02*
X37056428Y-32335271D01*
X37894523Y-31344795D02*
X38351666Y-31344795D01*
X38123094Y-32144795D02*
X38123094Y-31344795D01*
X38580237Y-31916223D02*
X38961190Y-31916223D01*
X38504047Y-32144795D02*
X38770714Y-31344795D01*
X38770714Y-31344795D02*
X39037380Y-32144795D01*
X39570713Y-31725747D02*
X39684999Y-31763842D01*
X39684999Y-31763842D02*
X39723094Y-31801938D01*
X39723094Y-31801938D02*
X39761190Y-31878128D01*
X39761190Y-31878128D02*
X39761190Y-31992414D01*
X39761190Y-31992414D02*
X39723094Y-32068604D01*
X39723094Y-32068604D02*
X39684999Y-32106700D01*
X39684999Y-32106700D02*
X39608809Y-32144795D01*
X39608809Y-32144795D02*
X39304047Y-32144795D01*
X39304047Y-32144795D02*
X39304047Y-31344795D01*
X39304047Y-31344795D02*
X39570713Y-31344795D01*
X39570713Y-31344795D02*
X39646904Y-31382890D01*
X39646904Y-31382890D02*
X39684999Y-31420985D01*
X39684999Y-31420985D02*
X39723094Y-31497176D01*
X39723094Y-31497176D02*
X39723094Y-31573366D01*
X39723094Y-31573366D02*
X39684999Y-31649557D01*
X39684999Y-31649557D02*
X39646904Y-31687652D01*
X39646904Y-31687652D02*
X39570713Y-31725747D01*
X39570713Y-31725747D02*
X39304047Y-31725747D01*
X41170714Y-32068604D02*
X41132618Y-32106700D01*
X41132618Y-32106700D02*
X41018333Y-32144795D01*
X41018333Y-32144795D02*
X40942142Y-32144795D01*
X40942142Y-32144795D02*
X40827856Y-32106700D01*
X40827856Y-32106700D02*
X40751666Y-32030509D01*
X40751666Y-32030509D02*
X40713571Y-31954319D01*
X40713571Y-31954319D02*
X40675475Y-31801938D01*
X40675475Y-31801938D02*
X40675475Y-31687652D01*
X40675475Y-31687652D02*
X40713571Y-31535271D01*
X40713571Y-31535271D02*
X40751666Y-31459080D01*
X40751666Y-31459080D02*
X40827856Y-31382890D01*
X40827856Y-31382890D02*
X40942142Y-31344795D01*
X40942142Y-31344795D02*
X41018333Y-31344795D01*
X41018333Y-31344795D02*
X41132618Y-31382890D01*
X41132618Y-31382890D02*
X41170714Y-31420985D01*
X41894523Y-32144795D02*
X41513571Y-32144795D01*
X41513571Y-32144795D02*
X41513571Y-31344795D01*
X44475952Y-37625747D02*
X44590238Y-37663842D01*
X44590238Y-37663842D02*
X44628333Y-37701938D01*
X44628333Y-37701938D02*
X44666429Y-37778128D01*
X44666429Y-37778128D02*
X44666429Y-37892414D01*
X44666429Y-37892414D02*
X44628333Y-37968604D01*
X44628333Y-37968604D02*
X44590238Y-38006700D01*
X44590238Y-38006700D02*
X44514048Y-38044795D01*
X44514048Y-38044795D02*
X44209286Y-38044795D01*
X44209286Y-38044795D02*
X44209286Y-37244795D01*
X44209286Y-37244795D02*
X44475952Y-37244795D01*
X44475952Y-37244795D02*
X44552143Y-37282890D01*
X44552143Y-37282890D02*
X44590238Y-37320985D01*
X44590238Y-37320985D02*
X44628333Y-37397176D01*
X44628333Y-37397176D02*
X44628333Y-37473366D01*
X44628333Y-37473366D02*
X44590238Y-37549557D01*
X44590238Y-37549557D02*
X44552143Y-37587652D01*
X44552143Y-37587652D02*
X44475952Y-37625747D01*
X44475952Y-37625747D02*
X44209286Y-37625747D01*
X45161667Y-37244795D02*
X45314048Y-37244795D01*
X45314048Y-37244795D02*
X45390238Y-37282890D01*
X45390238Y-37282890D02*
X45466429Y-37359080D01*
X45466429Y-37359080D02*
X45504524Y-37511461D01*
X45504524Y-37511461D02*
X45504524Y-37778128D01*
X45504524Y-37778128D02*
X45466429Y-37930509D01*
X45466429Y-37930509D02*
X45390238Y-38006700D01*
X45390238Y-38006700D02*
X45314048Y-38044795D01*
X45314048Y-38044795D02*
X45161667Y-38044795D01*
X45161667Y-38044795D02*
X45085476Y-38006700D01*
X45085476Y-38006700D02*
X45009286Y-37930509D01*
X45009286Y-37930509D02*
X44971190Y-37778128D01*
X44971190Y-37778128D02*
X44971190Y-37511461D01*
X44971190Y-37511461D02*
X45009286Y-37359080D01*
X45009286Y-37359080D02*
X45085476Y-37282890D01*
X45085476Y-37282890D02*
X45161667Y-37244795D01*
X46228333Y-38044795D02*
X45847381Y-38044795D01*
X45847381Y-38044795D02*
X45847381Y-37244795D01*
X46380714Y-37244795D02*
X46837857Y-37244795D01*
X46609285Y-38044795D02*
X46609285Y-37244795D01*
X48171191Y-37968604D02*
X48133095Y-38006700D01*
X48133095Y-38006700D02*
X48018810Y-38044795D01*
X48018810Y-38044795D02*
X47942619Y-38044795D01*
X47942619Y-38044795D02*
X47828333Y-38006700D01*
X47828333Y-38006700D02*
X47752143Y-37930509D01*
X47752143Y-37930509D02*
X47714048Y-37854319D01*
X47714048Y-37854319D02*
X47675952Y-37701938D01*
X47675952Y-37701938D02*
X47675952Y-37587652D01*
X47675952Y-37587652D02*
X47714048Y-37435271D01*
X47714048Y-37435271D02*
X47752143Y-37359080D01*
X47752143Y-37359080D02*
X47828333Y-37282890D01*
X47828333Y-37282890D02*
X47942619Y-37244795D01*
X47942619Y-37244795D02*
X48018810Y-37244795D01*
X48018810Y-37244795D02*
X48133095Y-37282890D01*
X48133095Y-37282890D02*
X48171191Y-37320985D01*
X48895000Y-38044795D02*
X48514048Y-38044795D01*
X48514048Y-38044795D02*
X48514048Y-37244795D01*
%TO.C,C1*%
D11*
X40135000Y-25962500D02*
X40135000Y-26462500D01*
X46135000Y-28962500D02*
X46135000Y-29462500D01*
%TO.C,J1*%
D12*
X30700000Y-25312500D02*
X31200000Y-24812500D01*
X31200000Y-24812500D02*
X30700000Y-24312500D01*
X30675000Y-20902500D02*
X38495000Y-20902500D01*
X38495000Y-28722500D01*
X30675000Y-28722500D01*
X30675000Y-20902500D01*
%TO.C,R1*%
D13*
X28075000Y-39882500D02*
X28075000Y-38682500D01*
X32185000Y-37982500D02*
X32185000Y-37682500D01*
X37285000Y-32832500D02*
X37285000Y-32632500D01*
X42385000Y-37982500D02*
X42385000Y-37682500D01*
X46495000Y-39882500D02*
X46495000Y-38682500D01*
%TD*%
M02*
