M48
; DRILL file KiCad 10.0.3 date 2026-08-09T05:27:14
; FORMAT={-:-/ absolute / metric / decimal}
; #@! TF.CreationDate,2026-08-09T05:27:14-07:00
; #@! TF.GenerationSoftware,Kicad,Pcbnew,10.0.3
; #@! TF.FileFunction,MixedPlating,1,2
FMAT,2
METRIC
; #@! TA.AperFunction,Plated,PTH,ViaDrill
T1C0.300
; #@! TA.AperFunction,Plated,PTH,ComponentDrill
T2C0.800
; #@! TA.AperFunction,Plated,PTH,ComponentDrill
T3C1.400
; #@! TA.AperFunction,Plated,PTH,ComponentDrill
T4C3.200
; #@! TA.AperFunction,Plated,PTH,ComponentDrill
T5C6.300
%
G90
G05
T1
X25.585Y-21.812
X25.585Y-26.612
X25.585Y-28.212
X25.585Y-29.812
X25.585Y-31.412
X25.585Y-36.212
X25.585Y-37.812
X25.585Y-39.412
X27.185Y-21.812
X27.185Y-28.212
X27.185Y-29.812
X27.185Y-31.412
X27.185Y-37.812
X27.185Y-39.412
X28.785Y-21.812
X28.785Y-26.612
X28.785Y-28.212
X28.785Y-29.812
X28.785Y-31.412
X28.785Y-36.212
X28.785Y-37.812
X28.785Y-39.412
X30.385Y-21.812
X30.385Y-23.412
X30.385Y-25.012
X30.385Y-26.612
X30.385Y-28.212
X30.385Y-29.812
X30.385Y-31.412
X30.385Y-33.012
X30.385Y-34.612
X30.385Y-36.212
X30.385Y-37.812
X30.385Y-39.412
X31.985Y-25.012
X31.985Y-37.812
X31.985Y-39.412
X33.585Y-21.812
X33.585Y-39.412
X35.185Y-21.812
X38.385Y-28.212
X39.985Y-21.812
X39.985Y-28.212
X41.585Y-21.812
X41.585Y-28.212
X41.585Y-34.612
X41.585Y-36.212
X41.585Y-37.812
X41.585Y-39.412
X43.185Y-21.812
X43.185Y-28.212
X43.185Y-34.612
X43.185Y-36.212
X43.185Y-37.812
X43.185Y-39.412
X44.785Y-34.612
X44.785Y-36.212
X44.785Y-37.812
X44.785Y-39.412
X46.385Y-29.812
X46.385Y-31.412
X46.385Y-37.812
X46.385Y-39.412
X47.985Y-28.212
X47.985Y-29.812
X47.985Y-31.412
X47.985Y-37.812
X47.985Y-39.412
T2
X40.135Y-24.812
T3
X32.035Y-22.262
X32.035Y-27.362
X34.585Y-24.812
X37.135Y-22.262
X37.135Y-27.362
T4
X27.235Y-24.712
X27.235Y-34.312
X47.335Y-34.312
T5
X46.135Y-24.812
M30
