%TF.GenerationSoftware,KiCad,Pcbnew,10.0.3*%
%TF.CreationDate,2026-08-09T04:09:48-07:00*%
%TF.ProjectId,rf-term-150w,72662d74-6572-46d2-9d31-3530772e6b69,rev?*%
%TF.SameCoordinates,Original*%
%TF.FileFunction,Copper,L1,Top*%
%TF.FilePolarity,Positive*%
%FSLAX46Y46*%
G04 Gerber Fmt 4.6, Leading zero omitted, Abs format (unit mm)*
G04 Created by KiCad (PCBNEW 10.0.3) date 2026-08-09 04:09:48*
%MOMM*%
%LPD*%
G01*
G04 APERTURE LIST*
G04 Aperture macros list*
%AMRoundRect*
0 Rectangle with rounded corners*
0 $1 Rounding radius*
0 $2 $3 $4 $5 $6 $7 $8 $9 X,Y pos of 4 corners*
0 Add a 4 corners polygon primitive as box body*
4,1,4,$2,$3,$4,$5,$6,$7,$8,$9,$2,$3,0*
0 Add four circle primitives for the rounded corners*
1,1,$1+$1,$2,$3*
1,1,$1+$1,$4,$5*
1,1,$1+$1,$6,$7*
1,1,$1+$1,$8,$9*
0 Add four rect primitives between the rounded corners*
20,1,$1+$1,$2,$3,$4,$5,0*
20,1,$1+$1,$4,$5,$6,$7,0*
20,1,$1+$1,$6,$7,$8,$9,0*
20,1,$1+$1,$8,$9,$2,$3,0*%
G04 Aperture macros list end*
%TA.AperFunction,ComponentPad*%
%ADD10C,5.000000*%
%TD*%
%TA.AperFunction,ComponentPad*%
%ADD11C,7.600000*%
%TD*%
%TA.AperFunction,ComponentPad*%
%ADD12C,1.600000*%
%TD*%
%TA.AperFunction,ComponentPad*%
%ADD13RoundRect,0.200100X-0.949900X-0.949900X0.949900X-0.949900X0.949900X0.949900X-0.949900X0.949900X0*%
%TD*%
%TA.AperFunction,ComponentPad*%
%ADD14C,2.200000*%
%TD*%
%TA.AperFunction,SMDPad,CuDef*%
%ADD15R,5.000000X7.000000*%
%TD*%
%TA.AperFunction,SMDPad,CuDef*%
%ADD16R,3.500000X2.000000*%
%TD*%
%TA.AperFunction,ViaPad*%
%ADD17C,0.600000*%
%TD*%
%TA.AperFunction,Conductor*%
%ADD18C,1.260000*%
%TD*%
%TA.AperFunction,Conductor*%
%ADD19C,1.270000*%
%TD*%
%TA.AperFunction,Conductor*%
%ADD20C,1.330000*%
%TD*%
%TA.AperFunction,Conductor*%
%ADD21C,2.200000*%
%TD*%
%TA.AperFunction,Conductor*%
%ADD22C,1.280000*%
%TD*%
%TA.AperFunction,Conductor*%
%ADD23C,2.230000*%
%TD*%
%TA.AperFunction,Conductor*%
%ADD24C,1.810000*%
%TD*%
%TA.AperFunction,Conductor*%
%ADD25C,6.740000*%
%TD*%
%TA.AperFunction,Conductor*%
%ADD26C,1.550000*%
%TD*%
%TA.AperFunction,Conductor*%
%ADD27C,2.730000*%
%TD*%
%TA.AperFunction,Conductor*%
%ADD28C,4.890000*%
%TD*%
%TA.AperFunction,Conductor*%
%ADD29C,2.690000*%
%TD*%
%TA.AperFunction,Conductor*%
%ADD30C,1.600000*%
%TD*%
%TA.AperFunction,Conductor*%
%ADD31C,5.720000*%
%TD*%
%TA.AperFunction,Conductor*%
%ADD32C,1.790000*%
%TD*%
%TA.AperFunction,Conductor*%
%ADD33C,1.380000*%
%TD*%
%TA.AperFunction,Conductor*%
%ADD34C,1.300000*%
%TD*%
%TA.AperFunction,Conductor*%
%ADD35C,1.420000*%
%TD*%
%TA.AperFunction,Conductor*%
%ADD36C,1.770000*%
%TD*%
%TA.AperFunction,Conductor*%
%ADD37C,7.340000*%
%TD*%
%TA.AperFunction,Conductor*%
%ADD38C,1.320000*%
%TD*%
%TA.AperFunction,Conductor*%
%ADD39C,1.390000*%
%TD*%
%TA.AperFunction,Conductor*%
%ADD40C,4.020000*%
%TD*%
%TA.AperFunction,Conductor*%
%ADD41C,1.530000*%
%TD*%
%TA.AperFunction,Conductor*%
%ADD42C,1.880000*%
%TD*%
%TA.AperFunction,Conductor*%
%ADD43C,2.170000*%
%TD*%
%TA.AperFunction,Conductor*%
%ADD44C,3.290000*%
%TD*%
%TA.AperFunction,Conductor*%
%ADD45C,1.460000*%
%TD*%
G04 APERTURE END LIST*
D10*
%TO.P,H2,1*%
%TO.N,GND*%
X47335000Y-34312500D03*
%TD*%
D11*
%TO.P,C1,1*%
%TO.N,GND*%
X46135000Y-24812500D03*
D12*
%TO.P,C1,2*%
%TO.N,/RF*%
X40135000Y-24812500D03*
%TD*%
D10*
%TO.P,H3,1*%
%TO.N,GND*%
X27235000Y-24712500D03*
%TD*%
D13*
%TO.P,J1,1*%
%TO.N,/RF*%
X34585000Y-24812500D03*
D14*
%TO.P,J1,2*%
%TO.N,GND*%
X32035000Y-22262500D03*
X32035000Y-27362500D03*
X37135000Y-22262500D03*
X37135000Y-27362500D03*
%TD*%
D10*
%TO.P,H1,1*%
%TO.N,GND*%
X27235000Y-34312500D03*
%TD*%
D15*
%TO.P,R1,1*%
%TO.N,/RF*%
X37285000Y-36682500D03*
D16*
%TO.P,R1,2*%
%TO.N,GND*%
X42385000Y-39182500D03*
X32185000Y-39182500D03*
%TD*%
D17*
%TO.N,GND*%
X28785000Y-39412000D03*
X30385000Y-26612000D03*
X28785000Y-29812000D03*
X30385000Y-39412000D03*
X30385000Y-33012000D03*
X41585000Y-37812000D03*
X41585000Y-21812000D03*
X33585000Y-39412000D03*
X44785000Y-34612000D03*
X43185000Y-34612000D03*
X41585000Y-34612000D03*
X30385000Y-31412000D03*
X28785000Y-31412000D03*
X27185000Y-29812000D03*
X25585000Y-28212000D03*
X41585000Y-36212000D03*
X27185000Y-39412000D03*
X28785000Y-21812000D03*
X44785000Y-33012000D03*
X41585000Y-29812000D03*
X25585000Y-29812000D03*
X43185000Y-33012000D03*
X39985000Y-31412000D03*
X28785000Y-26612000D03*
X30385000Y-25012000D03*
X44785000Y-31412000D03*
X47985000Y-29812000D03*
X41585000Y-33012000D03*
X43185000Y-36212000D03*
X30385000Y-34612000D03*
X25585000Y-21812000D03*
X31985000Y-39412000D03*
X25585000Y-36212000D03*
X47985000Y-39412000D03*
X30385000Y-37812000D03*
X35185000Y-21812000D03*
X47985000Y-37812000D03*
X44785000Y-37812000D03*
X43185000Y-21812000D03*
X44785000Y-29812000D03*
X47985000Y-28212000D03*
X44785000Y-39412000D03*
X39985000Y-28212000D03*
X28785000Y-36212000D03*
X43185000Y-28212000D03*
X41585000Y-31412000D03*
X44785000Y-36212000D03*
X28785000Y-37812000D03*
X27185000Y-31412000D03*
X27185000Y-28212000D03*
X30385000Y-36212000D03*
X25585000Y-39412000D03*
X30385000Y-21812000D03*
X31985000Y-25012000D03*
X38385000Y-28212000D03*
X28785000Y-28212000D03*
X30385000Y-28212000D03*
X41585000Y-28212000D03*
X46385000Y-29812000D03*
X30385000Y-23412000D03*
X30385000Y-29812000D03*
X41585000Y-39412000D03*
X43185000Y-31412000D03*
X43185000Y-37812000D03*
X27185000Y-37812000D03*
X25585000Y-37812000D03*
X43185000Y-29812000D03*
X25585000Y-31412000D03*
X46385000Y-37812000D03*
X39985000Y-29812000D03*
X31985000Y-37812000D03*
X39985000Y-21812000D03*
X43185000Y-39412000D03*
X46385000Y-39412000D03*
X33585000Y-21812000D03*
X27185000Y-21812000D03*
X47985000Y-31412000D03*
X46385000Y-31412000D03*
X25585000Y-26612000D03*
%TD*%
%TO.N,/RF*%
D18*
X37050000Y-24812500D02*
X37300000Y-24812500D01*
D19*
X34585000Y-27050000D02*
X34585000Y-27250000D01*
D20*
X37550000Y-24812500D02*
X37850000Y-24812500D01*
D21*
X34585000Y-25300000D02*
X34585000Y-25750000D01*
D22*
X37300000Y-24812500D02*
X37550000Y-24812500D01*
D23*
X34585000Y-29000000D02*
X34585000Y-29400000D01*
D24*
X34585000Y-25750000D02*
X34585000Y-26150000D01*
D25*
X35000000Y-32200000D02*
X35350000Y-33000000D01*
D26*
X34585000Y-26150000D02*
X34585000Y-26500000D01*
D27*
X34585000Y-24812500D02*
X34585000Y-25300000D01*
D28*
X34585000Y-30900000D02*
X34750000Y-31500000D01*
D29*
X34585000Y-29400000D02*
X34585000Y-29850000D01*
D30*
X34585000Y-28300000D02*
X34585000Y-28650000D01*
D27*
X39200000Y-24812500D02*
X40135000Y-24812500D01*
D31*
X34750000Y-31500000D02*
X35000000Y-32200000D01*
D32*
X35550000Y-24812500D02*
X35950000Y-24812500D01*
D19*
X34585000Y-27500000D02*
X34585000Y-27750000D01*
D33*
X36300000Y-24812500D02*
X36600000Y-24812500D01*
D19*
X36850000Y-24812500D02*
X37050000Y-24812500D01*
D34*
X36600000Y-24812500D02*
X36850000Y-24812500D01*
D35*
X34585000Y-28000000D02*
X34585000Y-28300000D01*
D36*
X38300000Y-24812500D02*
X39200000Y-24812500D01*
D29*
X34585000Y-24812500D02*
X35100000Y-24812500D01*
D37*
X35350000Y-33000000D02*
X35800000Y-34100000D01*
D38*
X34585000Y-27750000D02*
X34585000Y-28000000D01*
D39*
X34585000Y-26500000D02*
X34585000Y-26800000D01*
D40*
X34585000Y-30350000D02*
X34585000Y-30900000D01*
D41*
X35950000Y-24812500D02*
X36300000Y-24812500D01*
D34*
X34585000Y-26800000D02*
X34585000Y-27050000D01*
D42*
X34585000Y-28650000D02*
X34585000Y-29000000D01*
D43*
X35100000Y-24812500D02*
X35550000Y-24812500D01*
D18*
X34585000Y-27250000D02*
X34585000Y-27500000D01*
D44*
X34585000Y-29850000D02*
X34585000Y-30350000D01*
D45*
X37850000Y-24812500D02*
X38300000Y-24812500D01*
%TD*%
%TA.AperFunction,Conductor*%
%TO.N,GND*%
G36*
X49728039Y-21031685D02*
G01*
X49773794Y-21084489D01*
X49785000Y-21136000D01*
X49785000Y-39889000D01*
X49765315Y-39956039D01*
X49712511Y-40001794D01*
X49661000Y-40013000D01*
X40709500Y-40013000D01*
X40642461Y-39993315D01*
X40596706Y-39940511D01*
X40585500Y-39889000D01*
X40585500Y-33137543D01*
X40585499Y-33137539D01*
X40570369Y-33003250D01*
X40570368Y-33003245D01*
X40510788Y-32832976D01*
X40414815Y-32680237D01*
X40287262Y-32552684D01*
X40134522Y-32456711D01*
X39981028Y-32403001D01*
X39924252Y-32362279D01*
X39907217Y-32332912D01*
X39413754Y-31126668D01*
X39235019Y-30779617D01*
X39026715Y-30449465D01*
X38790431Y-30138723D01*
X38790427Y-30138718D01*
X38790422Y-30138712D01*
X38527966Y-29849762D01*
X38527963Y-29849759D01*
X38334641Y-29671048D01*
X38292577Y-29632163D01*
X38282469Y-29621650D01*
X38037993Y-29335450D01*
X38037985Y-29335442D01*
X37742590Y-29051468D01*
X37420784Y-28797815D01*
X37420778Y-28797812D01*
X37420776Y-28797811D01*
X37420774Y-28797809D01*
X37075643Y-28576914D01*
X36710524Y-28390911D01*
X36710522Y-28390910D01*
X36640853Y-28363648D01*
X36622227Y-28354494D01*
X36522318Y-28294530D01*
X36514567Y-28289476D01*
X36467518Y-28256227D01*
X36461769Y-28251908D01*
X36386230Y-28191668D01*
X36375861Y-28182402D01*
X36292157Y-28098698D01*
X36281462Y-28086503D01*
X36237773Y-28029566D01*
X36228762Y-28016080D01*
X36181098Y-27933524D01*
X36181097Y-27933522D01*
X36171545Y-27921074D01*
X36160715Y-27904324D01*
X36157754Y-27898819D01*
X36149357Y-27878545D01*
X36112775Y-27815184D01*
X36111897Y-27813551D01*
X36111566Y-27811985D01*
X36103174Y-27793135D01*
X36068244Y-27685628D01*
X36067865Y-27684713D01*
X36067325Y-27682799D01*
X36066736Y-27680986D01*
X36066807Y-27680962D01*
X36059946Y-27656642D01*
X36058307Y-27646290D01*
X36039805Y-27589347D01*
X36035264Y-27570430D01*
X36022027Y-27486855D01*
X36020500Y-27467457D01*
X36020500Y-27387018D01*
X36020320Y-27384732D01*
X36020320Y-27365268D01*
X36020500Y-27362981D01*
X36020500Y-27268623D01*
X36022026Y-27249228D01*
X36030511Y-27195649D01*
X36035056Y-27176721D01*
X36043671Y-27150210D01*
X36043673Y-27150204D01*
X36043675Y-27150197D01*
X36054854Y-27079608D01*
X36059394Y-27060703D01*
X36095076Y-26950886D01*
X36105619Y-26927209D01*
X36117898Y-26905942D01*
X36140222Y-26852044D01*
X36156401Y-26824022D01*
X36168599Y-26808127D01*
X36200533Y-26752813D01*
X36214702Y-26733043D01*
X36216596Y-26730882D01*
X36216602Y-26730877D01*
X36338838Y-26571574D01*
X36361720Y-26548691D01*
X36500831Y-26441947D01*
X36514299Y-26432948D01*
X36599776Y-26383600D01*
X36601118Y-26382569D01*
X36602587Y-26381721D01*
X36603154Y-26381343D01*
X36603178Y-26381380D01*
X36629159Y-26366378D01*
X36701510Y-26336411D01*
X36723123Y-26323931D01*
X36746801Y-26313389D01*
X36827962Y-26287018D01*
X36846881Y-26282477D01*
X36949021Y-26266300D01*
X36949023Y-26266299D01*
X36949026Y-26266299D01*
X36949028Y-26266298D01*
X36953761Y-26265162D01*
X36953836Y-26265474D01*
X36964078Y-26263013D01*
X37049223Y-26249527D01*
X37068621Y-26248000D01*
X37145303Y-26248000D01*
X37164700Y-26249526D01*
X37175171Y-26251185D01*
X37186628Y-26253000D01*
X37186630Y-26253000D01*
X37267055Y-26253000D01*
X37286451Y-26254526D01*
X37319993Y-26259838D01*
X37372114Y-26268092D01*
X37391030Y-26272634D01*
X37491607Y-26305314D01*
X37496496Y-26306088D01*
X37500629Y-26306743D01*
X37543237Y-26321830D01*
X37552923Y-26327423D01*
X37662053Y-26372626D01*
X37700028Y-26388356D01*
X37740256Y-26415236D01*
X37769117Y-26444097D01*
X37769123Y-26444102D01*
X37994331Y-26616910D01*
X37994338Y-26616914D01*
X38240161Y-26758841D01*
X38240166Y-26758843D01*
X38240169Y-26758845D01*
X38359146Y-26808127D01*
X38465199Y-26852056D01*
X38502429Y-26867477D01*
X38776626Y-26940947D01*
X39058066Y-26978000D01*
X39058073Y-26978000D01*
X40276927Y-26978000D01*
X40276934Y-26978000D01*
X40558374Y-26940947D01*
X40832571Y-26867477D01*
X41094831Y-26758845D01*
X41340669Y-26616910D01*
X41565877Y-26444102D01*
X41766602Y-26243377D01*
X41939410Y-26018169D01*
X42081345Y-25772331D01*
X42189977Y-25510071D01*
X42263447Y-25235874D01*
X42300500Y-24954434D01*
X42300500Y-24670566D01*
X42263447Y-24389126D01*
X42189977Y-24114929D01*
X42081345Y-23852669D01*
X42081343Y-23852666D01*
X42081341Y-23852661D01*
X41939414Y-23606838D01*
X41939410Y-23606831D01*
X41766602Y-23381623D01*
X41766597Y-23381617D01*
X41565882Y-23180902D01*
X41565875Y-23180896D01*
X41340677Y-23008096D01*
X41340675Y-23008094D01*
X41340669Y-23008090D01*
X41340664Y-23008087D01*
X41340661Y-23008085D01*
X41094838Y-22866158D01*
X41094827Y-22866153D01*
X40832580Y-22757526D01*
X40832573Y-22757524D01*
X40832571Y-22757523D01*
X40558374Y-22684053D01*
X40511338Y-22677860D01*
X40276941Y-22647000D01*
X40276934Y-22647000D01*
X39058066Y-22647000D01*
X39058058Y-22647000D01*
X38790175Y-22682269D01*
X38776626Y-22684053D01*
X38502429Y-22757523D01*
X38502419Y-22757526D01*
X38240172Y-22866153D01*
X38240161Y-22866158D01*
X37994338Y-23008085D01*
X37994322Y-23008096D01*
X37769128Y-23180893D01*
X37769120Y-23180899D01*
X37740254Y-23209765D01*
X37734159Y-23213896D01*
X37731681Y-23217572D01*
X37705252Y-23233495D01*
X37701573Y-23235990D01*
X37700740Y-23236348D01*
X37552923Y-23297577D01*
X37536929Y-23306810D01*
X37530231Y-23309692D01*
X37522003Y-23310689D01*
X37500636Y-23318255D01*
X37497750Y-23318712D01*
X37491599Y-23319687D01*
X37491598Y-23319687D01*
X37391029Y-23352364D01*
X37372111Y-23356906D01*
X37299573Y-23368395D01*
X37286457Y-23370473D01*
X37267060Y-23372000D01*
X37186628Y-23372000D01*
X37175171Y-23373814D01*
X37164700Y-23375473D01*
X37145303Y-23377000D01*
X37068621Y-23377000D01*
X37049223Y-23375473D01*
X37027295Y-23372000D01*
X36964079Y-23361987D01*
X36953836Y-23359527D01*
X36953762Y-23359838D01*
X36949025Y-23358700D01*
X36846878Y-23342521D01*
X36827959Y-23337979D01*
X36746806Y-23311611D01*
X36723127Y-23301069D01*
X36701511Y-23288589D01*
X36701498Y-23288583D01*
X36629159Y-23258620D01*
X36613433Y-23250757D01*
X36607026Y-23246963D01*
X36599776Y-23241400D01*
X36513757Y-23191736D01*
X36513129Y-23191365D01*
X36512886Y-23191104D01*
X36500821Y-23183043D01*
X36294542Y-23024760D01*
X36294540Y-23024758D01*
X36294534Y-23024754D01*
X36294529Y-23024751D01*
X36294526Y-23024749D01*
X36050974Y-22884133D01*
X36050958Y-22884125D01*
X35791143Y-22776507D01*
X35791131Y-22776503D01*
X35791128Y-22776502D01*
X35519464Y-22703710D01*
X35519458Y-22703709D01*
X35519453Y-22703708D01*
X35240633Y-22667001D01*
X35240630Y-22667000D01*
X35240624Y-22667000D01*
X35240617Y-22667000D01*
X34886973Y-22667000D01*
X34870787Y-22665939D01*
X34726941Y-22647000D01*
X34726934Y-22647000D01*
X34443066Y-22647000D01*
X34443058Y-22647000D01*
X34175175Y-22682269D01*
X34161626Y-22684053D01*
X33887429Y-22757523D01*
X33887413Y-22757528D01*
X33657983Y-22852561D01*
X33610534Y-22862000D01*
X33577072Y-22862000D01*
X33577060Y-22862001D01*
X33457668Y-22872614D01*
X33457664Y-22872614D01*
X33457664Y-22872615D01*
X33417439Y-22884125D01*
X33262016Y-22928597D01*
X33081637Y-23022819D01*
X32923920Y-23151420D01*
X32795319Y-23309137D01*
X32701097Y-23489516D01*
X32645114Y-23685167D01*
X32634500Y-23804562D01*
X32634500Y-23838033D01*
X32625061Y-23885486D01*
X32530026Y-24114919D01*
X32530023Y-24114929D01*
X32456554Y-24389123D01*
X32456552Y-24389134D01*
X32419500Y-24670558D01*
X32419500Y-25441941D01*
X32450360Y-25676338D01*
X32456553Y-25723374D01*
X32456554Y-25723376D01*
X32530023Y-25997570D01*
X32530026Y-25997580D01*
X32638653Y-26259827D01*
X32638658Y-26259838D01*
X32780585Y-26505661D01*
X32780596Y-26505677D01*
X32953406Y-26730888D01*
X32955312Y-26733062D01*
X32967112Y-26748906D01*
X32968336Y-26750857D01*
X33001401Y-26808127D01*
X33017149Y-26828651D01*
X33020253Y-26833597D01*
X33021328Y-26837413D01*
X33029777Y-26852045D01*
X33052102Y-26905941D01*
X33052104Y-26905946D01*
X33052107Y-26905952D01*
X33064380Y-26927209D01*
X33074924Y-26950891D01*
X33110604Y-27060703D01*
X33115146Y-27079621D01*
X33126325Y-27150201D01*
X33126326Y-27150204D01*
X33134945Y-27176728D01*
X33139488Y-27195649D01*
X33139488Y-27195650D01*
X33147973Y-27249221D01*
X33149500Y-27268619D01*
X33149500Y-27362983D01*
X33149681Y-27365287D01*
X33149681Y-27384713D01*
X33149500Y-27387016D01*
X33149500Y-27467456D01*
X33147973Y-27486855D01*
X33147973Y-27486856D01*
X33134734Y-27570434D01*
X33130193Y-27589350D01*
X33111692Y-27646291D01*
X33110050Y-27656656D01*
X33103195Y-27680967D01*
X33103264Y-27680990D01*
X33102695Y-27682738D01*
X33102149Y-27684678D01*
X33101761Y-27685613D01*
X33066824Y-27793137D01*
X33058102Y-27813550D01*
X33057213Y-27815201D01*
X33020643Y-27878545D01*
X33012246Y-27898816D01*
X33009285Y-27904322D01*
X33006493Y-27907149D01*
X32998454Y-27921074D01*
X32988907Y-27933515D01*
X32988904Y-27933520D01*
X32941234Y-28016084D01*
X32932226Y-28029566D01*
X32932224Y-28029569D01*
X32888536Y-28086504D01*
X32877841Y-28098698D01*
X32794137Y-28182402D01*
X32783768Y-28191669D01*
X32745257Y-28222380D01*
X32734122Y-28230297D01*
X32718258Y-28240307D01*
X32718248Y-28240315D01*
X32702882Y-28252267D01*
X32466546Y-28436092D01*
X32318156Y-28576915D01*
X32235238Y-28655604D01*
X32235235Y-28655606D01*
X32026565Y-28896725D01*
X31842537Y-29157131D01*
X31842535Y-29157134D01*
X31684908Y-29434341D01*
X31684899Y-29434358D01*
X31585478Y-29657672D01*
X31578519Y-29671048D01*
X31518853Y-29770462D01*
X31364887Y-30095500D01*
X31304081Y-30265126D01*
X31297843Y-30279568D01*
X31190915Y-30489467D01*
X31190910Y-30489477D01*
X31041592Y-30871068D01*
X31041589Y-30871076D01*
X30930395Y-31265457D01*
X30894392Y-31467155D01*
X30858390Y-31668851D01*
X30858390Y-31668854D01*
X30826272Y-32077362D01*
X30834347Y-32487040D01*
X30834348Y-32487047D01*
X30879120Y-32865078D01*
X30879838Y-32885613D01*
X30875284Y-32980394D01*
X30875283Y-32980418D01*
X30890602Y-33370464D01*
X30939863Y-33757729D01*
X31022682Y-34139205D01*
X31138435Y-34512012D01*
X31138438Y-34512022D01*
X31736246Y-35973332D01*
X31736246Y-35973333D01*
X31914980Y-36320380D01*
X31914990Y-36320397D01*
X32123273Y-36650518D01*
X32123273Y-36650519D01*
X32359577Y-36961287D01*
X32622033Y-37250236D01*
X32622048Y-37250251D01*
X32801196Y-37415860D01*
X32908692Y-37515232D01*
X32908700Y-37515238D01*
X32908709Y-37515246D01*
X33217341Y-37754221D01*
X33217344Y-37754223D01*
X33217352Y-37754229D01*
X33545667Y-37965417D01*
X33891139Y-38147185D01*
X33908452Y-38154445D01*
X33962664Y-38198523D01*
X33984439Y-38264913D01*
X33984500Y-38268798D01*
X33984500Y-39889000D01*
X33964815Y-39956039D01*
X33912011Y-40001794D01*
X33860500Y-40013000D01*
X24909000Y-40013000D01*
X24841961Y-39993315D01*
X24796206Y-39940511D01*
X24785000Y-39889000D01*
X24785000Y-21136000D01*
X24804685Y-21068961D01*
X24857489Y-21023206D01*
X24909000Y-21012000D01*
X49661000Y-21012000D01*
X49728039Y-21031685D01*
G37*
%TD.AperFunction*%
%TD*%
M02*
