%TF.GenerationSoftware,KiCad,Pcbnew,10.0.3*%
%TF.CreationDate,2026-08-19T04:55:40-07:00*%
%TF.ProjectId,bb-adc,62622d61-6463-42e6-9b69-6361645f7063,rev?*%
%TF.SameCoordinates,Original*%
%TF.FileFunction,Paste,Top*%
%TF.FilePolarity,Positive*%
%FSLAX46Y46*%
G04 Gerber Fmt 4.6, Leading zero omitted, Abs format (unit mm)*
G04 Created by KiCad (PCBNEW 10.0.3) date 2026-08-19 04:55:40*
%MOMM*%
%LPD*%
G01*
G04 APERTURE LIST*
%ADD10R,1.133000X1.377000*%
%ADD11R,0.800000X0.900000*%
%ADD12R,2.700000X1.635000*%
%ADD13R,0.600000X1.100000*%
%ADD14R,0.500000X0.540000*%
%ADD15R,0.540000X0.500000*%
%ADD16O,1.662000X0.364000*%
%ADD17R,1.350000X1.410000*%
%ADD18R,0.900000X0.800000*%
%ADD19R,0.864000X0.806000*%
%ADD20R,0.806000X0.864000*%
%ADD21O,0.568000X1.950000*%
G04 APERTURE END LIST*
D10*
%TO.C,R4*%
X43800000Y-41600000D03*
X45800000Y-41600000D03*
%TD*%
D11*
%TO.C,C7*%
X54900000Y-39680000D03*
X53500000Y-39680000D03*
%TD*%
D12*
%TO.C,C3*%
X56870000Y-36730000D03*
X56870000Y-33690000D03*
%TD*%
D13*
%TO.C,U3*%
X40900000Y-39200000D03*
X41850000Y-39200000D03*
X42800000Y-39200000D03*
X42800000Y-36600000D03*
X40900000Y-36600000D03*
%TD*%
D14*
%TO.C,C2*%
X62930000Y-38850000D03*
X63770000Y-38850000D03*
%TD*%
D15*
%TO.C,C6*%
X40900000Y-34820000D03*
X40900000Y-33980000D03*
%TD*%
D10*
%TO.C,R1*%
X31800000Y-41600000D03*
X33800000Y-41600000D03*
%TD*%
%TO.C,R3*%
X39800000Y-41600000D03*
X41800000Y-41600000D03*
%TD*%
D16*
%TO.C,U1*%
X56870000Y-39020000D03*
X56870000Y-39680000D03*
X56870000Y-40330000D03*
X56870000Y-40980000D03*
X61130000Y-40980000D03*
X61130000Y-40330000D03*
X61130000Y-39680000D03*
X61130000Y-39020000D03*
%TD*%
D10*
%TO.C,R2*%
X35800000Y-41600000D03*
X37800000Y-41600000D03*
%TD*%
D17*
%TO.C,C1*%
X68000000Y-33920000D03*
X68000000Y-35920000D03*
%TD*%
D18*
%TO.C,C5*%
X55370000Y-30050000D03*
X55370000Y-31450000D03*
%TD*%
D19*
%TO.C,R8*%
X49800000Y-43550000D03*
X49800000Y-45050000D03*
%TD*%
D15*
%TO.C,C4*%
X56630000Y-20370000D03*
X56630000Y-19530000D03*
%TD*%
D19*
%TO.C,R7*%
X63350000Y-31250000D03*
X63350000Y-32750000D03*
%TD*%
D20*
%TO.C,R6*%
X45250000Y-36600000D03*
X46750000Y-36600000D03*
%TD*%
D10*
%TO.C,R5*%
X47800000Y-41600000D03*
X49800000Y-41600000D03*
%TD*%
D21*
%TO.C,U2*%
X57900000Y-22340000D03*
X56630000Y-22340000D03*
X55370000Y-22340000D03*
X54100000Y-22340000D03*
X54100000Y-27760000D03*
X55370000Y-27760000D03*
X56630000Y-27760000D03*
X57900000Y-27760000D03*
%TD*%
D17*
%TO.C,C8*%
X63350000Y-34600000D03*
X63350000Y-36600000D03*
%TD*%
M02*
