M48
; DRILL file KiCad 10.0.3 date 2026-08-19T04:55:41
; FORMAT={-:-/ absolute / metric / decimal}
; #@! TF.CreationDate,2026-08-19T04:55:41-07:00
; #@! TF.GenerationSoftware,Kicad,Pcbnew,10.0.3
; #@! TF.FileFunction,MixedPlating,1,2
FMAT,2
METRIC
; #@! TA.AperFunction,Plated,PTH,ViaDrill
T1C0.300
; #@! TA.AperFunction,Plated,PTH,ComponentDrill
T2C1.200
; #@! TA.AperFunction,Plated,PTH,ComponentDrill
T3C1.500
; #@! TA.AperFunction,NonPlated,NPTH,ComponentDrill
T4C3.200
%
G90
G05
T1
X40.9Y-33.267
X41.65Y-39.85
X49.593Y-45.888
X52.643Y-39.664
X53.585Y-21.136
X56.266Y-31.233
X56.87Y-33.69
X57.345Y-19.314
X58.148Y-40.909
X63.35Y-37.747
X64.475Y-39.0
X66.0Y-39.05
X66.0Y-40.98
X68.0Y-37.068
T2
X70.5Y-33.65
X70.5Y-36.19
X70.5Y-38.73
X70.5Y-41.27
X70.5Y-43.81
X70.5Y-46.35
T3
X24.5Y-36.52
X24.5Y-41.6
T4
X22.45Y-23.0
X22.45Y-48.5
X65.0Y-48.5
X68.3Y-23.0
M30
