%TF.GenerationSoftware,KiCad,Pcbnew,10.0.3*%
%TF.CreationDate,2026-08-19T04:55:40-07:00*%
%TF.ProjectId,bb-adc,62622d61-6463-42e6-9b69-6361645f7063,rev?*%
%TF.SameCoordinates,Original*%
%TF.FileFunction,Copper,L1,Top*%
%TF.FilePolarity,Positive*%
%FSLAX46Y46*%
G04 Gerber Fmt 4.6, Leading zero omitted, Abs format (unit mm)*
G04 Created by KiCad (PCBNEW 10.0.3) date 2026-08-19 04:55:40*
%MOMM*%
%LPD*%
G01*
G04 APERTURE LIST*
%TA.AperFunction,SMDPad,CuDef*%
%ADD10R,1.133000X1.377000*%
%TD*%
%TA.AperFunction,SMDPad,CuDef*%
%ADD11R,0.800000X0.900000*%
%TD*%
%TA.AperFunction,ComponentPad*%
%ADD12R,1.800000X1.800000*%
%TD*%
%TA.AperFunction,ComponentPad*%
%ADD13C,1.800000*%
%TD*%
%TA.AperFunction,SMDPad,CuDef*%
%ADD14R,2.700000X1.635000*%
%TD*%
%TA.AperFunction,SMDPad,CuDef*%
%ADD15R,0.600000X1.100000*%
%TD*%
%TA.AperFunction,SMDPad,CuDef*%
%ADD16R,0.500000X0.540000*%
%TD*%
%TA.AperFunction,SMDPad,CuDef*%
%ADD17R,0.540000X0.500000*%
%TD*%
%TA.AperFunction,SMDPad,CuDef*%
%ADD18O,1.662000X0.364000*%
%TD*%
%TA.AperFunction,SMDPad,CuDef*%
%ADD19R,1.350000X1.410000*%
%TD*%
%TA.AperFunction,SMDPad,CuDef*%
%ADD20R,0.900000X0.800000*%
%TD*%
%TA.AperFunction,SMDPad,CuDef*%
%ADD21R,0.864000X0.806000*%
%TD*%
%TA.AperFunction,ComponentPad*%
%ADD22C,2.000000*%
%TD*%
%TA.AperFunction,SMDPad,CuDef*%
%ADD23R,0.806000X0.864000*%
%TD*%
%TA.AperFunction,SMDPad,CuDef*%
%ADD24O,0.568000X1.950000*%
%TD*%
%TA.AperFunction,ViaPad*%
%ADD25C,0.600000*%
%TD*%
%TA.AperFunction,Conductor*%
%ADD26C,0.200000*%
%TD*%
%TA.AperFunction,Conductor*%
%ADD27C,0.500000*%
%TD*%
%TA.AperFunction,Conductor*%
%ADD28C,0.600000*%
%TD*%
G04 APERTURE END LIST*
D10*
%TO.P,R4,1*%
%TO.N,/AIN_DIV*%
X43800000Y-41600000D03*
%TO.P,R4,2*%
%TO.N,/ATT_C*%
X45800000Y-41600000D03*
%TD*%
D11*
%TO.P,C7,1*%
%TO.N,/AIN_ADC*%
X54900000Y-39680000D03*
%TO.P,C7,2*%
%TO.N,GND*%
X53500000Y-39680000D03*
%TD*%
D12*
%TO.P,J2,1*%
%TO.N,+3V3*%
X70500000Y-33650000D03*
D13*
%TO.P,J2,2*%
%TO.N,GND*%
X70500000Y-36190000D03*
%TO.P,J2,3*%
%TO.N,/CS*%
X70500000Y-38730000D03*
%TO.P,J2,4*%
%TO.N,/SCLK*%
X70500000Y-41270000D03*
%TO.P,J2,5*%
%TO.N,/DOUT*%
X70500000Y-43810000D03*
%TO.P,J2,6*%
%TO.N,GND*%
X70500000Y-46350000D03*
%TD*%
D14*
%TO.P,C3,1*%
%TO.N,VREF*%
X56870000Y-36730000D03*
%TO.P,C3,2*%
%TO.N,GND*%
X56870000Y-33690000D03*
%TD*%
D15*
%TO.P,U3,1*%
%TO.N,/AIN_BUF*%
X40900000Y-39200000D03*
%TO.P,U3,2*%
%TO.N,GND*%
X41850000Y-39200000D03*
%TO.P,U3,3*%
%TO.N,/AIN_DIV*%
X42800000Y-39200000D03*
%TO.P,U3,4*%
%TO.N,/AIN_BUF*%
X42800000Y-36600000D03*
%TO.P,U3,5*%
%TO.N,+3V3*%
X40900000Y-36600000D03*
%TD*%
D16*
%TO.P,C2,1*%
%TO.N,VDD_ADC*%
X62930000Y-38850000D03*
%TO.P,C2,2*%
%TO.N,GND*%
X63770000Y-38850000D03*
%TD*%
D17*
%TO.P,C6,1*%
%TO.N,+3V3*%
X40900000Y-34820000D03*
%TO.P,C6,2*%
%TO.N,GND*%
X40900000Y-33980000D03*
%TD*%
D10*
%TO.P,R1,1*%
%TO.N,/AIN_RAW*%
X31800000Y-41600000D03*
%TO.P,R1,2*%
%TO.N,/ATT_A*%
X33800000Y-41600000D03*
%TD*%
%TO.P,R3,1*%
%TO.N,/ATT_B*%
X39800000Y-41600000D03*
%TO.P,R3,2*%
%TO.N,/AIN_DIV*%
X41800000Y-41600000D03*
%TD*%
D18*
%TO.P,U1,1*%
%TO.N,VREF*%
X56870000Y-39020000D03*
%TO.P,U1,2*%
%TO.N,/AIN_ADC*%
X56870000Y-39680000D03*
%TO.P,U1,3*%
%TO.N,/AGND_SENSE*%
X56870000Y-40330000D03*
%TO.P,U1,4*%
%TO.N,GND*%
X56870000Y-40980000D03*
%TO.P,U1,5*%
%TO.N,/CS*%
X61130000Y-40980000D03*
%TO.P,U1,6*%
%TO.N,/DOUT*%
X61130000Y-40330000D03*
%TO.P,U1,7*%
%TO.N,/SCLK*%
X61130000Y-39680000D03*
%TO.P,U1,8*%
%TO.N,VDD_ADC*%
X61130000Y-39020000D03*
%TD*%
D10*
%TO.P,R2,1*%
%TO.N,/ATT_A*%
X35800000Y-41600000D03*
%TO.P,R2,2*%
%TO.N,/ATT_B*%
X37800000Y-41600000D03*
%TD*%
D19*
%TO.P,C1,1*%
%TO.N,+3V3*%
X68000000Y-33920000D03*
%TO.P,C1,2*%
%TO.N,GND*%
X68000000Y-35920000D03*
%TD*%
D20*
%TO.P,C5,1*%
%TO.N,VREF*%
X55370000Y-30050000D03*
%TO.P,C5,2*%
%TO.N,GND*%
X55370000Y-31450000D03*
%TD*%
D21*
%TO.P,R8,1*%
%TO.N,/AGND_SENSE*%
X49800000Y-43550000D03*
%TO.P,R8,2*%
%TO.N,GND*%
X49800000Y-45050000D03*
%TD*%
D17*
%TO.P,C4,1*%
%TO.N,+3V3*%
X56630000Y-20370000D03*
%TO.P,C4,2*%
%TO.N,GND*%
X56630000Y-19530000D03*
%TD*%
D22*
%TO.P,J1,1*%
%TO.N,/AIN_RAW*%
X24500000Y-36520000D03*
%TO.P,J1,2*%
%TO.N,GND*%
X24500000Y-41600000D03*
%TD*%
D21*
%TO.P,R7,1*%
%TO.N,+3V3*%
X63350000Y-31250000D03*
%TO.P,R7,2*%
%TO.N,VDD_ADC*%
X63350000Y-32750000D03*
%TD*%
D23*
%TO.P,R6,1*%
%TO.N,/AIN_BUF*%
X45250000Y-36600000D03*
%TO.P,R6,2*%
%TO.N,/AIN_ADC*%
X46750000Y-36600000D03*
%TD*%
D10*
%TO.P,R5,1*%
%TO.N,/ATT_C*%
X47800000Y-41600000D03*
%TO.P,R5,2*%
%TO.N,/AGND_SENSE*%
X49800000Y-41600000D03*
%TD*%
D24*
%TO.P,U2,1*%
%TO.N,unconnected-(U2-NIC-Pad1)*%
X57900000Y-22340000D03*
%TO.P,U2,2*%
%TO.N,+3V3*%
X56630000Y-22340000D03*
%TO.P,U2,3*%
%TO.N,unconnected-(U2-NIC-Pad3)*%
X55370000Y-22340000D03*
%TO.P,U2,4*%
%TO.N,GND*%
X54100000Y-22340000D03*
%TO.P,U2,5*%
%TO.N,unconnected-(U2-NIC-Pad5)*%
X54100000Y-27760000D03*
%TO.P,U2,6*%
%TO.N,VREF*%
X55370000Y-27760000D03*
%TO.P,U2,7*%
%TO.N,unconnected-(U2-NIC-Pad7)*%
X56630000Y-27760000D03*
%TO.P,U2,8*%
%TO.N,unconnected-(U2-DNC-Pad8)*%
X57900000Y-27760000D03*
%TD*%
D19*
%TO.P,C8,1*%
%TO.N,VDD_ADC*%
X63350000Y-34600000D03*
%TO.P,C8,2*%
%TO.N,GND*%
X63350000Y-36600000D03*
%TD*%
D25*
%TO.N,GND*%
X58147900Y-40909300D03*
X64475000Y-38999900D03*
X49593500Y-45888200D03*
X56870000Y-33690000D03*
X57344800Y-19313900D03*
X52643400Y-39664000D03*
X40900000Y-33267100D03*
X68000000Y-37068200D03*
X41650000Y-39850000D03*
X63350000Y-37746900D03*
X56266000Y-31232700D03*
X53585400Y-21136300D03*
%TO.N,/CS*%
X66000000Y-40980000D03*
X66000000Y-39050000D03*
%TD*%
%TO.N,/AIN_DIV*%
D26*
X41800000Y-41600000D02*
X43800000Y-41600000D01*
X43800000Y-41600000D02*
X42800000Y-39200000D01*
%TO.N,/ATT_C*%
X47800000Y-41600000D02*
X45800000Y-41600000D01*
%TO.N,/AIN_ADC*%
X46750000Y-36600000D02*
X54000000Y-38700000D01*
X54000000Y-38700000D02*
X54900000Y-39680000D01*
X54900000Y-39680000D02*
X56870000Y-39680000D01*
%TO.N,GND*%
X40900000Y-33267100D02*
X40900000Y-33980000D01*
X56048700Y-31450000D02*
X56266000Y-31232700D01*
X56630000Y-19530000D02*
X57128700Y-19530000D01*
X63770000Y-38850000D02*
X64248700Y-38850000D01*
X58000400Y-40909300D02*
X57929700Y-40980000D01*
X49800000Y-45681700D02*
X49593500Y-45888200D01*
X49800000Y-45050000D02*
X49800000Y-45681700D01*
X54100000Y-22340000D02*
X54100000Y-21136300D01*
X58147900Y-40909300D02*
X58000400Y-40909300D01*
X57344800Y-19313900D02*
X57128700Y-19530000D01*
X52643400Y-39664000D02*
X52855300Y-39664000D01*
X55370000Y-31450000D02*
X56048700Y-31450000D01*
X64475000Y-38999900D02*
X64398600Y-38999900D01*
X53585400Y-21136300D02*
X54100000Y-21136300D01*
X63350000Y-37746900D02*
X63350000Y-36600000D01*
X56870000Y-40980000D02*
X57929700Y-40980000D01*
X53500000Y-39680000D02*
X52871300Y-39680000D01*
X52855300Y-39664000D02*
X52871300Y-39680000D01*
X64398600Y-38999900D02*
X64248700Y-38850000D01*
X68000000Y-37068200D02*
X68000000Y-35920000D01*
%TO.N,+3V3*%
D27*
X64426300Y-31250000D02*
X67096300Y-33920000D01*
X40900000Y-34820000D02*
X45309100Y-34820000D01*
X40900000Y-34820000D02*
X40900000Y-36600000D01*
X56630000Y-23898300D02*
X63350000Y-30618300D01*
X56230800Y-23898300D02*
X56630000Y-23898300D01*
X56630000Y-22340000D02*
X56630000Y-23898300D01*
X63350000Y-31250000D02*
X64426300Y-31250000D01*
X45309100Y-34820000D02*
X56230800Y-23898300D01*
X68000000Y-33920000D02*
X67096300Y-33920000D01*
X69101300Y-33920000D02*
X69371300Y-33650000D01*
X68000000Y-33920000D02*
X69101300Y-33920000D01*
X70500000Y-33650000D02*
X69371300Y-33650000D01*
X56630000Y-22340000D02*
X56630000Y-20370000D01*
X63350000Y-31250000D02*
X63350000Y-30618300D01*
%TO.N,/CS*%
D26*
X66320000Y-38730000D02*
X70500000Y-38730000D01*
X66000000Y-39050000D02*
X66320000Y-38730000D01*
X61130000Y-40980000D02*
X66000000Y-40980000D01*
%TO.N,/SCLK*%
X61130000Y-39680000D02*
X68910000Y-39680000D01*
X68910000Y-39680000D02*
X70500000Y-41270000D01*
%TO.N,/DOUT*%
X67191900Y-40330000D02*
X61130000Y-40330000D01*
X70500000Y-43638100D02*
X67191900Y-40330000D01*
X70500000Y-43810000D02*
X70500000Y-43638100D01*
%TO.N,VREF*%
X58483100Y-32484400D02*
X56048700Y-30050000D01*
D28*
X56870000Y-36730000D02*
X56870000Y-39020000D01*
D26*
X57393100Y-35683800D02*
X58483100Y-34593800D01*
X56870000Y-35683800D02*
X57393100Y-35683800D01*
X55370000Y-27760000D02*
X55370000Y-30050000D01*
X55370000Y-30050000D02*
X56048700Y-30050000D01*
X56870000Y-36730000D02*
X56870000Y-35683800D01*
X58483100Y-34593800D02*
X58483100Y-32484400D01*
%TO.N,/AIN_BUF*%
X42800000Y-36600000D02*
X42800000Y-38300000D01*
X42800000Y-36600000D02*
X45250000Y-36600000D01*
%TO.N,VDD_ADC*%
X62446300Y-38605600D02*
X62446300Y-34600000D01*
X62690700Y-38850000D02*
X62446300Y-38605600D01*
X62281300Y-39020000D02*
X62451300Y-38850000D01*
X63350000Y-32750000D02*
X63350000Y-34600000D01*
X62690700Y-38850000D02*
X62451300Y-38850000D01*
X62930000Y-38850000D02*
X62690700Y-38850000D01*
X63350000Y-34600000D02*
X62446300Y-34600000D01*
X61130000Y-39020000D02*
X62281300Y-39020000D01*
%TO.N,/AIN_RAW*%
X24500000Y-36520000D02*
X26720000Y-36520000D01*
X26720000Y-36520000D02*
X31800000Y-41600000D01*
%TO.N,/ATT_A*%
X35800000Y-41600000D02*
X33800000Y-41600000D01*
%TO.N,/ATT_B*%
X37800000Y-41600000D02*
X39800000Y-41600000D01*
%TO.N,/AGND_SENSE*%
X49800000Y-41600000D02*
X56870000Y-40330000D01*
X49800000Y-41600000D02*
X49800000Y-43550000D01*
%TD*%
%TA.AperFunction,Conductor*%
%TO.N,/AIN_BUF*%
G36*
X45143039Y-37919685D02*
G01*
X45188794Y-37972489D01*
X45200000Y-38024000D01*
X45200000Y-40714261D01*
X45180315Y-40781300D01*
X45144896Y-40817360D01*
X45141578Y-40819577D01*
X45113398Y-40861750D01*
X45106000Y-40898941D01*
X45106000Y-42301058D01*
X45113398Y-42338249D01*
X45141576Y-42380420D01*
X45141577Y-42380420D01*
X45141578Y-42380422D01*
X45144886Y-42382632D01*
X45189693Y-42436241D01*
X45200000Y-42485737D01*
X45200000Y-43076000D01*
X45180315Y-43143039D01*
X45127511Y-43188794D01*
X45076000Y-43200000D01*
X40524000Y-43200000D01*
X40456961Y-43180315D01*
X40411206Y-43127511D01*
X40400000Y-43076000D01*
X40400000Y-42485737D01*
X40419685Y-42418698D01*
X40455113Y-42382632D01*
X40458422Y-42380422D01*
X40486602Y-42338248D01*
X40494000Y-42301058D01*
X40494000Y-40898942D01*
X40494000Y-40898941D01*
X41106000Y-40898941D01*
X41106000Y-42301058D01*
X41113398Y-42338249D01*
X41141577Y-42380422D01*
X41183750Y-42408601D01*
X41183752Y-42408602D01*
X41211705Y-42414162D01*
X41220941Y-42416000D01*
X41220942Y-42416000D01*
X42379059Y-42416000D01*
X42386457Y-42414528D01*
X42416248Y-42408602D01*
X42458422Y-42380422D01*
X42486602Y-42338248D01*
X42494000Y-42301058D01*
X42494000Y-41951500D01*
X42513685Y-41884461D01*
X42566489Y-41838706D01*
X42618000Y-41827500D01*
X42982000Y-41827500D01*
X43049039Y-41847185D01*
X43094794Y-41899989D01*
X43106000Y-41951500D01*
X43106000Y-42301058D01*
X43113398Y-42338249D01*
X43141577Y-42380422D01*
X43183750Y-42408601D01*
X43183752Y-42408602D01*
X43211705Y-42414162D01*
X43220941Y-42416000D01*
X43220942Y-42416000D01*
X44379059Y-42416000D01*
X44386457Y-42414528D01*
X44416248Y-42408602D01*
X44458422Y-42380422D01*
X44486602Y-42338248D01*
X44494000Y-42301058D01*
X44494000Y-40898942D01*
X44486602Y-40861752D01*
X44486601Y-40861750D01*
X44458422Y-40819577D01*
X44416249Y-40791398D01*
X44379059Y-40784000D01*
X44379058Y-40784000D01*
X43789125Y-40784000D01*
X43722086Y-40764315D01*
X43676331Y-40711511D01*
X43674663Y-40707692D01*
X43237038Y-39657391D01*
X43227500Y-39609699D01*
X43227500Y-38637441D01*
X43225662Y-38628205D01*
X43220102Y-38600252D01*
X43196456Y-38564863D01*
X43191922Y-38558077D01*
X43149749Y-38529898D01*
X43112559Y-38522500D01*
X43112558Y-38522500D01*
X42487442Y-38522500D01*
X42487441Y-38522500D01*
X42450250Y-38529898D01*
X42397923Y-38564863D01*
X42396292Y-38562422D01*
X42351358Y-38586959D01*
X42281666Y-38581975D01*
X42252967Y-38563530D01*
X42252077Y-38564863D01*
X42199749Y-38529898D01*
X42162559Y-38522500D01*
X42162558Y-38522500D01*
X41537442Y-38522500D01*
X41537441Y-38522500D01*
X41500250Y-38529898D01*
X41458077Y-38558077D01*
X41429898Y-38600250D01*
X41422500Y-38637441D01*
X41422500Y-39421561D01*
X41402815Y-39488600D01*
X41386182Y-39509242D01*
X41307914Y-39587509D01*
X41251633Y-39684989D01*
X41230849Y-39762558D01*
X41222500Y-39793719D01*
X41222500Y-39906281D01*
X41234211Y-39949989D01*
X41251633Y-40015010D01*
X41279774Y-40063750D01*
X41307915Y-40112491D01*
X41387509Y-40192085D01*
X41484991Y-40248367D01*
X41593719Y-40277500D01*
X41593721Y-40277500D01*
X41706279Y-40277500D01*
X41706281Y-40277500D01*
X41815009Y-40248367D01*
X41912491Y-40192085D01*
X41992085Y-40112491D01*
X42048367Y-40015009D01*
X42060903Y-39968221D01*
X42097265Y-39908563D01*
X42129038Y-39887579D01*
X42151042Y-39877500D01*
X42162558Y-39877500D01*
X42199748Y-39870102D01*
X42241922Y-39841922D01*
X42247747Y-39833203D01*
X42273361Y-39821471D01*
X42286760Y-39819528D01*
X42298642Y-39813041D01*
X42320659Y-39814615D01*
X42342508Y-39811449D01*
X42354829Y-39817059D01*
X42368334Y-39818025D01*
X42395998Y-39835804D01*
X42397132Y-39836320D01*
X42397923Y-39835137D01*
X42405174Y-39839982D01*
X42406096Y-39840402D01*
X42406317Y-39840746D01*
X42450250Y-39870101D01*
X42450252Y-39870102D01*
X42478205Y-39875662D01*
X42487441Y-39877500D01*
X42487442Y-39877500D01*
X42753166Y-39877500D01*
X42820205Y-39897185D01*
X42865960Y-39949989D01*
X42867628Y-39953808D01*
X43170900Y-40681662D01*
X43178514Y-40751115D01*
X43147369Y-40813660D01*
X43144123Y-40817031D01*
X43141580Y-40819573D01*
X43113398Y-40861750D01*
X43106000Y-40898941D01*
X43106000Y-41248500D01*
X43086315Y-41315539D01*
X43033511Y-41361294D01*
X42982000Y-41372500D01*
X42618000Y-41372500D01*
X42550961Y-41352815D01*
X42505206Y-41300011D01*
X42494000Y-41248500D01*
X42494000Y-40898941D01*
X42492162Y-40889705D01*
X42486602Y-40861752D01*
X42486601Y-40861750D01*
X42458422Y-40819577D01*
X42416249Y-40791398D01*
X42379059Y-40784000D01*
X42379058Y-40784000D01*
X41220942Y-40784000D01*
X41220941Y-40784000D01*
X41183750Y-40791398D01*
X41141577Y-40819577D01*
X41113398Y-40861750D01*
X41106000Y-40898941D01*
X40494000Y-40898941D01*
X40486602Y-40861752D01*
X40458422Y-40819578D01*
X40428936Y-40799876D01*
X40414272Y-40772016D01*
X40413336Y-40767376D01*
X40410302Y-40763745D01*
X40400000Y-40714261D01*
X40400000Y-38024000D01*
X40419685Y-37956961D01*
X40472489Y-37911206D01*
X40524000Y-37900000D01*
X45076000Y-37900000D01*
X45143039Y-37919685D01*
G37*
%TD.AperFunction*%
%TD*%
M02*
