#VRML V2.0 utf8
# 3D model generated by easyeda2kicad.py (https://github.com/uPesy/easyeda2kicad.py)

Shape{
    appearance Appearance {
        material  Material 	{
            diffuseColor 0.1803921568627451 0.1803921568627451 0.1803921568627451
            specularColor 0.09019607843137255 0.09019607843137255 0.09019607843137255
            ambientIntensity 0.1804
            transparency 0.0
            shininess 0.5
        }
    }
    geometry IndexedFaceSet {
        ccw TRUE
        solid FALSE
        coord DEF co Coordinate {
            point [
                0.0792 0.0205 0.0197, 0.0852 0.0196 0.0197, 0.315 -0.2913 0.0197, 0.315 -0.4567 0.0197, -0.0128 -0.5709 0.0197, 0.0891 0.0195 0.0197, 0.0947 0.0205 0.0197, 0.3543 -0.2913 0.0197, 0.3347 -0.5709 0.0197, 0.3543 -0.4567 0.0197, 0.3543 -0.5512 0.0197, 0.3517 -0.5611 0.0197, 0.3486 -0.5651 0.0197, 0.3445 -0.5682 0.0197, 0.3543 0.5512 0.0197, 0.3543 0.4567 0.0197, 0.315 0.4567 0.0197, -0.0057 0.0922 0.0197, 0.0316 0.0922 0.0197, 0.0316 0.068 0.0197, -0.0057 0.068 0.0197, -0.0057 0.0599 0.0197, -0.0128 0.0205 0.0197, 0.3486 0.5651 0.0197, 0.3517 0.5611 0.0197, -0.0057 0.1003 0.0197, -0.0128 0.5709 0.0197, 0.0387 0.1003 0.0197, 0.0892 0.1023 0.0197, 0.07 0.0982 0.0197, 0.0619 0.0932 0.0197, 0.3445 0.5682 0.0197, 0.315 0.2913 0.0197, 0.113 0.0957 0.0197, 0.0927 0.1022 0.0197, 0.0387 0.0215 0.0197, 0.0549 0.0858 0.0197, 0.0573 0.0889 0.0197, 0.3347 0.5709 0.0197, 0.178 0.0215 0.0197, 0.1407 0.0215 0.0197, 0.107 0.0227 0.0197, 0.1146 0.0269 0.0197, 0.0316 0.0599 0.0197, 0.0316 0.0296 0.0197, -0.0057 0.0296 0.0197, -0.0057 0.0215 0.0197, 0.1071 0.0899 0.0197, 0.1193 0.0789 0.0197, 0.0897 0.0942 0.0197, 0.1244 0.064 0.0197, 0.1245 0.0608 0.0197, 0.1204 0.0446 0.0197, 0.1096 0.0332 0.0197, 0.0941 0.0278 0.0197, 0.07 0.0236 0.0197, 0.0789 0.0205 0.0197, 0.3543 0.0205 0.0197, 0.3543 0.2913 0.0197, 0.178 0.1003 0.0197, 0.171 0.1003 0.0197, 0.0549 0.036 0.0197, 0.061 0.0407 0.0197, 0.061 0.0811 0.0197, 0.0736 0.0309 0.0197, 0.0738 0.091 0.0197, 0.0892 0.0276 0.0197, 0.0812 0.0934 0.0197, 0.0864 0.0941 0.0197, 0.1191 0.0306 0.0197, 0.1216 0.0333 0.0197, 0.1407 0.0296 0.0197, 0.1292 0.0464 0.0197, 0.171 0.0296 0.0197, 0.1316 0.0613 0.0197, 0.1265 0.0815 0.0197, -0.1329 0.1003 0.0197, -0.1692 0.0215 0.0197, -0.315 0.0205 0.0197, -0.1616 0.0215 0.0197, -0.315 -0.0827 0.0197, -0.0945 0.0215 0.0197, -0.0686 0.027 0.0197, -0.0527 0.022 0.0197, -0.0442 0.0215 0.0197, -0.1023 0.0215 0.0197, -0.1142 0.0468 0.0197, -0.1499 0.0468 0.0197, -0.315 0.0827 0.0197, -0.3347 0.5709 0.0197, -0.3543 0.0827 0.0197, -0.3543 0.5512 0.0197, -0.0484 0.0998 0.0197, -0.0607 0.0974 0.0197, -0.3517 0.5611 0.0197, -0.3486 0.5651 0.0197, -0.3445 0.5682 0.0197, -0.1319 0.1003 0.0197, -0.0749 0.0879 0.0197, -0.083 0.0723 0.0197, -0.0844 0.0599 0.0197, -0.08 0.0401 0.0197, -0.0198 0.0215 0.0197, -0.0198 0.1003 0.0197, -0.0357 0.1003 0.0197, -0.3543 -0.5512 0.0197, -0.3347 -0.5709 0.0197, -0.3543 -0.0827 0.0197, -0.3445 -0.5682 0.0197, -0.3486 -0.5651 0.0197, -0.3517 -0.5611 0.0197, 0.351 -0.4567 0.0669, 0.3337 -0.5306 0.315, 0.351 -0.2913 0.0669, 0.3337 0.5306 0.315, 0.351 0.2913 0.0669, 0.351 0.4567 0.0669, 0.314 0.5502 0.315, -0.314 0.5502 0.315, -0.351 -0.0827 0.0669, -0.3337 -0.5306 0.315, -0.351 0.0827 0.0669, -0.3337 0.5306 0.315, 0.314 -0.5502 0.315, -0.314 -0.5502 0.315, 0.3279 -0.5445 0.315, 0.3311 -0.5404 0.315, -0.3279 0.5445 0.315, -0.3311 0.5404 0.315, 0.3239 -0.5476 0.315, 0.3311 0.5404 0.315, 0.3279 0.5445 0.315, 0.3239 0.5476 0.315, -0.3239 0.5476 0.315, -0.3311 -0.5404 0.315, -0.3279 -0.5445 0.315, -0.3239 -0.5476 0.315
            ]
        }
        coordIndex [
            0,1,2,-1,2,3,4,-1,1,5,2,-1,2,5,6,-1,2,6,7,-1,4,3,8,-1,8,3,9,-1,8,9,10,-1,10,11,8,-1,8,11,12,-1,8,12,13,-1,14,15,16,-1,17,18,19,-1,20,21,22,-1,23,24,14,-1,19,20,17,-1,17,20,22,-1,17,22,25,-1,25,22,26,-1,25,26,27,-1,28,29,26,-1,26,29,30,-1,23,14,31,-1,32,33,16,-1,16,33,34,-1,35,27,36,-1,36,27,26,-1,36,26,37,-1,37,26,30,-1,31,14,38,-1,38,14,16,-1,38,16,26,-1,26,16,34,-1,26,34,28,-1,39,6,40,-1,40,6,41,-1,40,41,42,-1,43,44,21,-1,21,44,45,-1,21,45,22,-1,22,45,46,-1,22,46,35,-1,47,48,49,-1,49,48,50,-1,49,50,51,-1,51,52,49,-1,49,52,53,-1,49,53,54,-1,55,56,35,-1,35,56,0,-1,35,0,22,-1,7,6,57,-1,57,6,39,-1,57,39,58,-1,58,39,59,-1,58,59,32,-1,32,59,60,-1,32,60,33,-1,55,35,61,-1,61,35,36,-1,61,36,62,-1,62,36,63,-1,62,63,64,-1,64,63,65,-1,64,65,66,-1,66,65,67,-1,66,67,54,-1,54,67,68,-1,54,68,49,-1,42,69,40,-1,40,69,70,-1,40,70,71,-1,71,70,72,-1,71,72,73,-1,73,72,74,-1,73,74,60,-1,60,74,75,-1,60,75,33,-1,76,77,78,-1,77,79,78,-1,78,79,22,-1,78,22,80,-1,81,82,83,-1,83,84,81,-1,81,84,22,-1,81,22,85,-1,85,22,79,-1,85,79,86,-1,86,79,87,-1,26,88,89,-1,89,88,90,-1,89,90,91,-1,92,93,26,-1,91,94,89,-1,89,94,95,-1,89,95,96,-1,78,88,76,-1,76,88,26,-1,76,26,97,-1,97,26,93,-1,97,93,98,-1,98,99,97,-1,97,99,100,-1,97,100,81,-1,81,100,101,-1,81,101,82,-1,84,102,22,-1,22,102,103,-1,22,103,26,-1,26,103,104,-1,26,104,92,-1,105,4,106,-1,0,2,22,-1,22,2,4,-1,22,4,80,-1,80,4,105,-1,80,105,107,-1,106,108,105,-1,105,108,109,-1,105,109,110,-1,10,9,111,-1,10,111,112,-1,112,111,113,-1,112,113,114,-1,57,58,115,-1,15,14,116,-1,116,14,114,-1,116,114,115,-1,115,114,113,-1,115,113,57,-1,57,113,7,-1,117,38,118,-1,118,38,26,-1,118,26,89,-1,107,105,119,-1,119,105,120,-1,119,120,121,-1,121,120,122,-1,121,122,90,-1,90,122,91,-1,8,123,4,-1,4,123,124,-1,4,124,106,-1,125,126,112,-1,127,128,122,-1,123,117,124,-1,124,117,118,-1,125,112,129,-1,114,117,112,-1,112,117,123,-1,112,123,129,-1,114,130,117,-1,117,130,131,-1,117,131,132,-1,127,122,133,-1,120,124,122,-1,122,124,118,-1,122,118,133,-1,120,134,124,-1,124,134,135,-1,124,135,136,-1,
        ]
    }
}
Shape{
    appearance Appearance {
        material  Material 	{
            diffuseColor 0.6470588235294118 0.6196078431372549 0.5882352941176471
            specularColor 0.45098039215686275 0.43529411764705883 0.4117647058823529
            ambientIntensity 0.6242
            transparency 0.0
            shininess 0.5
        }
    }
    geometry IndexedFaceSet {
        ccw TRUE
        solid FALSE
        coord DEF co Coordinate {
            point [
                -0.351 0.0827 0.0669, -0.4724 0.0827 0.0669, -0.351 -0.0827 0.0669, -0.4724 -0.0827 0.0669, -0.315 -0.0827 0.0197, -0.315 -0.0827 0.0, -0.315 0.0205 0.0197, -0.315 0.0827 0.0, -0.315 0.0827 0.0197, -0.3543 0.0827 0.0197, -0.4724 0.0827 0.0, -0.3543 -0.0827 0.0197, -0.4724 -0.0827 0.0, 0.351 0.2913 0.0669, 0.4724 0.2913 0.0669, 0.351 0.4567 0.0669, 0.4724 0.4567 0.0669, 0.315 0.4567 0.0, 0.315 0.4567 0.0197, 0.3543 0.4567 0.0197, 0.4724 0.4567 0.0, 0.315 0.2913 0.0, 0.315 0.2913 0.0197, 0.3543 0.2913 0.0197, 0.4724 0.2913 0.0, 0.4724 -0.4567 0.0669, 0.4724 -0.2913 0.0669, 0.351 -0.4567 0.0669, 0.351 -0.2913 0.0669, 0.315 -0.2913 0.0, 0.315 -0.2913 0.0197, 0.3543 -0.2913 0.0197, 0.4724 -0.2913 0.0, 0.315 -0.4567 0.0, 0.315 -0.4567 0.0197, 0.3543 -0.4567 0.0197, 0.4724 -0.4567 0.0
            ]
        }
        coordIndex [
            0,1,2,-1,2,1,3,-1,4,5,6,-1,6,5,7,-1,6,7,8,-1,8,7,9,-1,9,7,10,-1,9,10,0,-1,0,10,1,-1,5,4,11,-1,2,3,11,-1,11,3,12,-1,11,12,5,-1,12,3,10,-1,10,3,1,-1,12,10,5,-1,5,10,7,-1,13,14,15,-1,15,14,16,-1,17,18,19,-1,15,16,19,-1,19,16,20,-1,19,20,17,-1,17,21,18,-1,18,21,22,-1,22,21,23,-1,23,21,24,-1,23,24,13,-1,13,24,14,-1,20,16,24,-1,24,16,14,-1,21,17,24,-1,24,17,20,-1,25,26,27,-1,27,26,28,-1,29,30,31,-1,28,26,31,-1,31,26,32,-1,31,32,29,-1,29,33,30,-1,30,33,34,-1,34,33,35,-1,35,33,36,-1,35,36,27,-1,27,36,25,-1,32,26,36,-1,36,26,25,-1,33,29,36,-1,36,29,32,-1,
        ]
    }
}
Shape{
    appearance Appearance {
        material  Material 	{
            diffuseColor 0.7529411764705882 0.7529411764705882 0.7529411764705882
            specularColor 0.3764705882352941 0.3764705882352941 0.3764705882352941
            ambientIntensity 0.7529
            transparency 0.0
            shininess 0.5
        }
    }
    geometry IndexedFaceSet {
        ccw TRUE
        solid FALSE
        coord DEF co Coordinate {
            point [
                -0.1319 0.1003 0.0394, -0.1329 0.1003 0.0394, -0.1319 0.1003 0.0197, -0.1329 0.1003 0.0197, -0.1692 0.0215 0.0394, -0.1692 0.0215 0.0197, -0.1616 0.0215 0.0394, -0.1616 0.0215 0.0197, -0.1499 0.0468 0.0394, -0.1499 0.0468 0.0197, -0.1142 0.0468 0.0394, -0.1142 0.0468 0.0197, -0.1023 0.0215 0.0394, -0.1023 0.0215 0.0197, -0.0945 0.0215 0.0394, -0.0945 0.0215 0.0197, -0.1462 0.0548 0.0394, -0.1181 0.0548 0.0394, -0.1323 0.0849 0.0394, -0.1462 0.0548 0.0197, -0.1323 0.0849 0.0197, -0.1181 0.0548 0.0197, -0.0442 0.0215 0.0394, -0.0198 0.0215 0.0394, -0.0442 0.0215 0.0197, -0.0198 0.0215 0.0197, -0.0198 0.1003 0.0394, -0.0198 0.1003 0.0197, -0.0357 0.1003 0.0394, -0.0357 0.1003 0.0197, -0.0607 0.0974 0.0394, -0.0607 0.0974 0.0197, -0.0484 0.0998 0.0197, -0.0484 0.0998 0.0394, -0.0844 0.0599 0.0394, -0.0844 0.0599 0.0197, -0.083 0.0723 0.0197, -0.083 0.0723 0.0394, -0.0749 0.0879 0.0197, -0.0749 0.0879 0.0394, -0.0527 0.022 0.0197, -0.0527 0.022 0.0394, -0.0686 0.027 0.0197, -0.0686 0.027 0.0394, -0.08 0.0401 0.0197, -0.08 0.0401 0.0394, -0.0761 0.0501 0.0394, -0.0697 0.0386 0.0394, -0.0585 0.0316 0.0394, -0.0473 0.0299 0.0394, -0.0359 0.0296 0.0394, -0.0269 0.0296 0.0394, -0.0269 0.0922 0.0394, -0.0324 0.0922 0.0394, -0.0446 0.0918 0.0394, -0.0566 0.09 0.0394, -0.0653 0.0858 0.0394, -0.0739 0.0756 0.0394, -0.0774 0.0599 0.0394, -0.0269 0.0922 0.0197, -0.0269 0.0296 0.0197, -0.0324 0.0922 0.0197, -0.0446 0.0918 0.0197, -0.0566 0.09 0.0197, -0.0653 0.0858 0.0197, -0.0739 0.0756 0.0197, -0.0774 0.0599 0.0197, -0.0761 0.0501 0.0197, -0.0697 0.0386 0.0197, -0.0585 0.0316 0.0197, -0.0473 0.0299 0.0197, -0.0359 0.0296 0.0197, 0.0387 0.0215 0.0394, 0.0387 0.1003 0.0394, 0.0387 0.0215 0.0197, 0.0387 0.1003 0.0197, -0.0057 0.1003 0.0394, -0.0057 0.1003 0.0197, -0.0057 0.0922 0.0394, -0.0057 0.0922 0.0197, 0.0316 0.0922 0.0394, 0.0316 0.0922 0.0197, 0.0316 0.068 0.0394, 0.0316 0.068 0.0197, -0.0057 0.068 0.0394, -0.0057 0.068 0.0197, -0.0057 0.0599 0.0394, -0.0057 0.0599 0.0197, 0.0316 0.0599 0.0394, 0.0316 0.0599 0.0197, 0.0316 0.0296 0.0394, 0.0316 0.0296 0.0197, -0.0057 0.0296 0.0394, -0.0057 0.0296 0.0197, -0.0057 0.0215 0.0394, -0.0057 0.0215 0.0197, 0.0549 0.0858 0.0394, 0.0549 0.0858 0.0197, 0.0573 0.0889 0.0197, 0.0573 0.0889 0.0394, 0.0619 0.0932 0.0197, 0.0619 0.0932 0.0394, 0.07 0.0982 0.0197, 0.07 0.0982 0.0394, 0.0892 0.1023 0.0197, 0.0892 0.1023 0.0394, 0.061 0.0811 0.0394, 0.061 0.0811 0.0197, 0.0897 0.0942 0.0394, 0.0897 0.0942 0.0197, 0.0864 0.0941 0.0197, 0.0864 0.0941 0.0394, 0.0812 0.0934 0.0197, 0.0812 0.0934 0.0394, 0.0738 0.091 0.0197, 0.0738 0.091 0.0394, 0.1245 0.0608 0.0394, 0.1245 0.0608 0.0197, 0.1244 0.064 0.0197, 0.1244 0.064 0.0394, 0.1193 0.0789 0.0197, 0.1193 0.0789 0.0394, 0.1071 0.0899 0.0197, 0.1071 0.0899 0.0394, 0.0892 0.0276 0.0394, 0.0892 0.0276 0.0197, 0.0941 0.0278 0.0197, 0.0941 0.0278 0.0394, 0.1096 0.0332 0.0197, 0.1096 0.0332 0.0394, 0.1204 0.0446 0.0197, 0.1204 0.0446 0.0394, 0.061 0.0407 0.0394, 0.061 0.0407 0.0197, 0.0736 0.0309 0.0197, 0.0736 0.0309 0.0394, 0.0549 0.036 0.0394, 0.0549 0.036 0.0197, 0.0891 0.0195 0.0394, 0.0891 0.0195 0.0197, 0.0852 0.0196 0.0197, 0.0852 0.0196 0.0394, 0.0792 0.0205 0.0197, 0.0789 0.0205 0.0394, 0.0789 0.0205 0.0197, 0.07 0.0236 0.0197, 0.07 0.0236 0.0394, 0.0947 0.0205 0.0197, 0.107 0.0227 0.0394, 0.107 0.0227 0.0197, 0.1146 0.0269 0.0394, 0.1146 0.0269 0.0197, 0.1191 0.0306 0.0394, 0.1191 0.0306 0.0197, 0.1216 0.0333 0.0394, 0.1216 0.0333 0.0197, 0.1316 0.0613 0.0394, 0.1316 0.0613 0.0197, 0.1292 0.0464 0.0197, 0.1292 0.0464 0.0394, 0.0927 0.1022 0.0197, 0.0927 0.1022 0.0394, 0.113 0.0957 0.0197, 0.113 0.0957 0.0394, 0.1265 0.0815 0.0197, 0.1265 0.0815 0.0394, 0.178 0.0215 0.0394, 0.178 0.1003 0.0394, 0.178 0.0215 0.0197, 0.178 0.1003 0.0197, 0.171 0.1003 0.0394, 0.171 0.1003 0.0197, 0.171 0.0296 0.0394, 0.171 0.0296 0.0197, 0.1407 0.0296 0.0394, 0.1407 0.0296 0.0197, 0.1407 0.0215 0.0394, 0.1407 0.0215 0.0197
            ]
        }
        coordIndex [
            0,1,2,-1,2,1,3,-1,1,4,3,-1,3,4,5,-1,4,6,5,-1,5,6,7,-1,6,8,7,-1,7,8,9,-1,8,10,9,-1,9,10,11,-1,10,12,11,-1,11,12,13,-1,12,14,13,-1,13,14,15,-1,14,0,15,-1,15,0,2,-1,16,4,1,-1,0,17,1,-1,1,17,18,-1,1,18,16,-1,14,12,10,-1,6,4,8,-1,8,4,16,-1,8,16,10,-1,10,16,17,-1,10,17,14,-1,14,17,0,-1,16,18,19,-1,19,18,20,-1,17,16,21,-1,21,16,19,-1,18,17,20,-1,20,17,21,-1,22,23,24,-1,24,23,25,-1,23,26,25,-1,25,26,27,-1,26,28,27,-1,27,28,29,-1,30,31,32,-1,30,32,33,-1,33,32,29,-1,33,29,28,-1,34,35,36,-1,34,36,37,-1,37,36,38,-1,37,38,39,-1,39,38,31,-1,39,31,30,-1,22,24,40,-1,22,40,41,-1,41,40,42,-1,41,42,43,-1,43,42,44,-1,43,44,45,-1,45,44,35,-1,45,35,34,-1,46,47,43,-1,43,47,48,-1,43,48,41,-1,41,48,49,-1,41,49,22,-1,22,49,50,-1,22,50,23,-1,23,50,51,-1,23,51,26,-1,26,51,52,-1,26,52,28,-1,28,52,53,-1,28,53,33,-1,33,53,54,-1,33,54,30,-1,30,54,55,-1,30,55,39,-1,39,55,56,-1,39,56,37,-1,37,56,57,-1,37,57,34,-1,34,57,58,-1,34,58,45,-1,45,58,46,-1,45,46,43,-1,52,51,59,-1,59,51,60,-1,53,52,61,-1,61,52,59,-1,53,61,62,-1,53,62,54,-1,54,62,63,-1,54,63,55,-1,55,63,64,-1,55,64,56,-1,56,64,65,-1,56,65,57,-1,57,65,66,-1,57,66,58,-1,58,66,67,-1,58,67,46,-1,46,67,68,-1,46,68,47,-1,47,68,69,-1,47,69,48,-1,48,69,70,-1,48,70,49,-1,49,70,71,-1,49,71,50,-1,51,50,60,-1,60,50,71,-1,72,73,74,-1,74,73,75,-1,73,76,75,-1,75,76,77,-1,76,78,77,-1,77,78,79,-1,78,80,79,-1,79,80,81,-1,80,82,81,-1,81,82,83,-1,82,84,83,-1,83,84,85,-1,84,86,85,-1,85,86,87,-1,86,88,87,-1,87,88,89,-1,88,90,89,-1,89,90,91,-1,90,92,91,-1,91,92,93,-1,92,94,93,-1,93,94,95,-1,94,72,95,-1,95,72,74,-1,72,94,92,-1,92,90,72,-1,72,90,88,-1,72,88,73,-1,78,76,80,-1,80,76,73,-1,80,73,82,-1,82,73,88,-1,82,88,84,-1,84,88,86,-1,96,97,98,-1,96,98,99,-1,99,98,100,-1,99,100,101,-1,101,100,102,-1,101,102,103,-1,103,102,104,-1,103,104,105,-1,96,106,97,-1,97,106,107,-1,108,109,110,-1,108,110,111,-1,111,110,112,-1,111,112,113,-1,113,112,114,-1,113,114,115,-1,115,114,107,-1,115,107,106,-1,116,117,118,-1,116,118,119,-1,119,118,120,-1,119,120,121,-1,121,120,122,-1,121,122,123,-1,123,122,109,-1,123,109,108,-1,124,125,126,-1,124,126,127,-1,127,126,128,-1,127,128,129,-1,129,128,130,-1,129,130,131,-1,131,130,117,-1,131,117,116,-1,132,133,134,-1,132,134,135,-1,135,134,125,-1,135,125,124,-1,132,136,133,-1,133,136,137,-1,138,139,140,-1,138,140,141,-1,141,140,142,-1,141,142,143,-1,142,144,143,-1,143,144,145,-1,143,145,146,-1,146,145,137,-1,146,137,136,-1,139,138,147,-1,147,138,148,-1,147,148,149,-1,149,148,150,-1,149,150,151,-1,151,150,152,-1,151,152,153,-1,153,152,154,-1,153,154,155,-1,156,157,158,-1,156,158,159,-1,159,158,155,-1,159,155,154,-1,105,104,160,-1,105,160,161,-1,161,160,162,-1,161,162,163,-1,163,162,164,-1,163,164,165,-1,165,164,157,-1,165,157,156,-1,136,132,146,-1,146,132,135,-1,156,159,131,-1,131,159,129,-1,129,159,154,-1,129,154,152,-1,106,96,99,-1,106,99,115,-1,115,99,101,-1,115,101,103,-1,152,150,129,-1,129,150,148,-1,129,148,127,-1,127,148,138,-1,127,138,124,-1,124,138,141,-1,124,141,135,-1,135,141,143,-1,135,143,146,-1,131,116,156,-1,156,116,119,-1,156,119,165,-1,165,119,121,-1,165,121,163,-1,163,121,123,-1,163,123,161,-1,161,123,108,-1,161,108,105,-1,105,108,111,-1,105,111,103,-1,103,111,113,-1,103,113,115,-1,166,167,168,-1,168,167,169,-1,167,170,169,-1,169,170,171,-1,170,172,171,-1,171,172,173,-1,172,174,173,-1,173,174,175,-1,174,176,175,-1,175,176,177,-1,176,166,177,-1,177,166,168,-1,170,167,172,-1,172,167,166,-1,172,166,174,-1,174,166,176,-1,
        ]
    }
}
Shape{
    appearance Appearance {
        material  Material 	{
            diffuseColor 0.1803921568627451 0.1803921568627451 0.1803921568627451
            specularColor 0.09019607843137255 0.09019607843137255 0.09019607843137255
            ambientIntensity 0.1804
            transparency 0.0
            shininess 0.5
        }
    }
    geometry IndexedFaceSet {
        ccw TRUE
        solid FALSE
        coord DEF co Coordinate {
            point [
                -0.1323 0.0849 0.0197, -0.1181 0.0548 0.0197, -0.1462 0.0548 0.0197, -0.0269 0.0922 0.0197, -0.0269 0.0296 0.0197, -0.0324 0.0922 0.0197, -0.0359 0.0296 0.0197, -0.0446 0.0918 0.0197, -0.0473 0.0299 0.0197, -0.0566 0.09 0.0197, -0.0585 0.0316 0.0197, -0.0697 0.0386 0.0197, -0.0761 0.0501 0.0197, -0.0774 0.0599 0.0197, -0.0739 0.0756 0.0197, -0.0653 0.0858 0.0197, 0.3337 -0.5306 0.315, 0.3311 -0.5404 0.315, 0.3543 -0.5512 0.0197, 0.3517 -0.5611 0.0197, 0.3486 -0.5651 0.0197, 0.3279 -0.5445 0.315, 0.3445 -0.5682 0.0197, 0.3239 -0.5476 0.315, 0.314 -0.5502 0.315, 0.3347 -0.5709 0.0197, 0.314 0.5502 0.315, 0.3239 0.5476 0.315, 0.3347 0.5709 0.0197, 0.3445 0.5682 0.0197, 0.3486 0.5651 0.0197, 0.3279 0.5445 0.315, 0.3517 0.5611 0.0197, 0.3311 0.5404 0.315, 0.3337 0.5306 0.315, 0.3543 0.5512 0.0197, -0.314 -0.5502 0.315, -0.3239 -0.5476 0.315, -0.3347 -0.5709 0.0197, -0.3445 -0.5682 0.0197, -0.3486 -0.5651 0.0197, -0.3279 -0.5445 0.315, -0.3517 -0.5611 0.0197, -0.3311 -0.5404 0.315, -0.3337 -0.5306 0.315, -0.3543 -0.5512 0.0197, -0.3337 0.5306 0.315, -0.3311 0.5404 0.315, -0.3543 0.5512 0.0197, -0.3517 0.5611 0.0197, -0.3486 0.5651 0.0197, -0.3279 0.5445 0.315, -0.3445 0.5682 0.0197, -0.3239 0.5476 0.315, -0.314 0.5502 0.315, -0.3347 0.5709 0.0197
            ]
        }
        coordIndex [
            0,1,2,-1,3,4,5,-1,5,4,6,-1,5,6,7,-1,7,6,8,-1,7,8,9,-1,10,11,8,-1,8,11,12,-1,8,12,13,-1,13,14,8,-1,8,14,15,-1,8,15,9,-1,16,17,18,-1,18,17,19,-1,19,17,20,-1,20,17,21,-1,20,21,22,-1,21,23,22,-1,22,23,24,-1,22,24,25,-1,26,27,28,-1,28,27,29,-1,29,27,30,-1,30,27,31,-1,30,31,32,-1,31,33,32,-1,32,33,34,-1,32,34,35,-1,36,37,38,-1,38,37,39,-1,39,37,40,-1,40,37,41,-1,40,41,42,-1,41,43,42,-1,42,43,44,-1,42,44,45,-1,46,47,48,-1,48,47,49,-1,49,47,50,-1,50,47,51,-1,50,51,52,-1,51,53,52,-1,52,53,54,-1,52,54,55,-1,
        ]
    }
}