#VRML V2.0 utf8
# 3D model generated by easyeda2kicad.py (https://github.com/uPesy/easyeda2kicad.py)

Shape{
    appearance Appearance {
        material  Material 	{
            diffuseColor 0.6666666666666666 0.6666666666666666 0.6666666666666666
            specularColor 0.4666666666666667 0.4666666666666667 0.4666666666666667
            ambientIntensity 0.6667
            transparency 0.0
            shininess 0.5
        }
    }
    geometry IndexedFaceSet {
        ccw TRUE
        solid FALSE
        coord DEF co Coordinate {
            point [
                0.5946 -0.0766 0.0193, 0.603 -0.0754 0.0193, 0.5946 -0.0982 0.0193, 0.603 -0.2597 0.0193, 0.5202 -0.0982 0.0193, 0.5202 -0.2597 0.0193, 0.4312 -0.2597 0.0193, 0.4312 -0.0754 0.0193, 0.4938 -0.0766 0.0193, 0.5202 -0.2734 0.0193, 0.603 -0.6527 0.0193, 0.4938 -0.2734 0.0193, 0.8971 -0.2518 0.0193, 0.8227 -0.2518 0.0193, 0.8227 -0.187 0.0193, 0.8971 -0.2734 0.0193, 0.8971 -0.2597 0.0193, 0.9211 -0.2597 0.0193, 0.8923 -0.187 0.0193, 0.8227 -0.1654 0.0193, 0.8227 -0.0982 0.0193, 0.8923 -0.1654 0.0193, 0.9019 -0.0982 0.0193, 0.7963 -0.0766 0.0193, 0.7771 -0.0754 0.0193, 0.9019 -0.0766 0.0193, 0.9211 -0.0754 0.0193, 0.7963 -0.2734 0.0193, 0.9211 -0.6527 0.0193, 0.7963 -0.2597 0.0193, 0.7771 -0.2597 0.0193, 0.7771 -0.6527 0.0193, 1.3415 -0.2597 0.0193, 1.3415 -0.6527 0.0193, 1.214 -0.2734 0.0193, 1.1876 -0.2734 0.0193, 1.106 -0.6527 0.0193, 1.1824 -0.2597 0.0193, 1.106 -0.2597 0.0193, 1.1132 -0.0766 0.0193, 1.106 -0.0754 0.0193, 1.142 -0.0766 0.0193, 1.2193 -0.2597 0.0193, 1.2908 -0.0766 0.0193, 1.3415 -0.0754 0.0193, 1.262 -0.0766 0.0193, 1.2421 -0.1318 0.0193, 1.1608 -0.1318 0.0193, 1.7071 -0.0754 0.0193, 2.337 -0.0754 0.0193, 1.7071 -0.2461 0.0193, 2.337 -0.2597 0.0193, 1.3921 -0.0754 0.0193, 1.3921 -0.2461 0.0193, 1.3415 0.876 0.0193, 1.3921 0.876 0.0193, 1.3921 0.7185 0.0193, 1.3921 0.2461 0.0193, 1.7071 0.7185 0.0193, 1.7071 0.2461 0.0193, 2.3764 1.0295 0.0193, 2.3764 0.8327 0.0193, 2.337 0.8327 0.0193, 1.7071 1.0295 0.0193, 2.3764 -0.8327 0.0193, 2.3764 -1.0295 0.0193, 2.337 -0.8327 0.0193, 1.7071 -1.0295 0.0193, 2.337 -0.6527 0.0193, 1.7071 -0.7185 0.0193, 1.3921 -0.7185 0.0193, 1.106 0.876 0.0193, 0.9211 0.876 0.0193, 0.7771 0.876 0.0193, 0.4312 0.876 0.0193, 0.603 0.876 0.0193, 0.4938 -0.2597 0.0193, 0.4312 -0.6527 0.0193, 0.4312 -0.876 0.0193, 0.603 -0.876 0.0193, 0.7771 -0.876 0.0193, 0.9211 -0.876 0.0193, 1.106 -0.876 0.0193, 1.3415 -0.876 0.0193, 1.3921 -0.876 0.0193, 1.0513 -0.2597 0.0193, 1.0669 -0.2496 0.0193, 1.089 -0.1306 0.0193, 1.0779 -0.1133 0.0193, 1.0618 -0.0977 0.0193, 1.0415 -0.0857 0.0193, 1.0745 -0.2425 0.0193, 1.0863 -0.2271 0.0193, 1.0946 -0.208 0.0193, 1.0984 -0.1872 0.0193, 1.0988 -0.1775 0.0193, 1.096 -0.1511 0.0193, 1.0188 -0.0788 0.0193, 0.9939 -0.0766 0.0193, 0.9403 -0.0766 0.0193, 0.9403 -0.2597 0.0193, 0.9403 -0.2734 0.0193, 1.0474 -0.2623 0.0193, 1.0243 -0.2704 0.0193, 0.9959 -0.2734 0.0193, 0.7579 -0.1084 0.0193, 0.7579 -0.0868 0.0193, 0.7369 -0.0782 0.0193, 0.717 -0.0754 0.0193, 0.7091 -0.0743 0.0193, 0.7118 -0.2542 0.0193, 0.7544 -0.1064 0.0193, 0.7357 -0.2511 0.0193, 0.7579 -0.2416 0.0193, 0.6924 -0.2521 0.0193, 0.6777 -0.2468 0.0193, 0.6638 -0.2374 0.0193, 0.652 -0.2242 0.0193, 0.6439 -0.209 0.0193, 0.6387 -0.1877 0.0193, 0.6379 -0.1729 0.0193, 0.6398 -0.1516 0.0193, 0.6452 -0.1347 0.0193, 0.7074 -0.0958 0.0193, 0.6625 -0.1113 0.0193, 0.6891 -0.0978 0.0193, 0.6746 -0.1031 0.0193, 0.6534 -0.121 0.0193, 0.7335 -0.0987 0.0193, 0.7116 -0.2758 0.0193, 0.7351 -0.2742 0.0193, 0.7579 -0.268 0.0193, 0.7579 -0.2597 0.0193, 0.6908 -0.274 0.0193, 0.6219 -0.2217 0.0193, 0.6336 -0.2403 0.0193, 0.6508 -0.2568 0.0193, 0.6558 -0.2597 0.0193, 0.6692 -0.2675 0.0193, 0.7037 -0.0742 0.0193, 0.6921 -0.0754 0.0193, 0.6795 -0.0767 0.0193, 0.6604 -0.0832 0.0193, 0.6444 -0.0935 0.0193, 0.63 -0.1087 0.0193, 0.6195 -0.1272 0.0193, 0.6134 -0.1483 0.0193, 0.6114 -0.1713 0.0193, 0.6143 -0.1992 0.0193, 0.3685 0.876 0.0193, 0.3685 -0.0754 0.0193, 0.3685 -0.2597 0.0193, 0.3685 -0.6527 0.0193, 0.3685 -0.876 0.0193, -0.8126 0.7421 0.5, -0.8126 0.7421 0.6496, -0.8433 0.7421 0.5, -0.8433 0.7421 0.6496, -0.845 0.7421 0.4998, -0.8761 0.7421 0.6462, -0.8465 0.7421 0.4993, -0.9074 0.7421 0.636, -0.848 0.7421 0.4985, -0.9359 0.7421 0.6195, -0.8492 0.7421 0.4974, -0.9604 0.7421 0.5975, -0.8502 0.7421 0.4961, -0.9797 0.7421 0.5709, -1.082 0.7421 0.0945, -1.2116 0.7421 0.1693, -1.112 0.7421 0.0554, -1.2178 0.7421 0.1611, -1.1512 0.7421 0.0253, -1.226 0.7421 0.1549, -1.1968 0.7421 0.0064, -1.2355 0.7421 0.1509, -1.2457 0.7421 0.0, -1.2457 0.7421 0.1496, -1.6 0.7421 0.0, -1.6 0.7421 0.1496, -1.6 1.0571 0.0, -1.6 1.0571 0.1496, -1.2457 1.0571 0.0, -1.2457 1.0571 0.1496, -1.1968 1.0571 0.0064, -1.2355 1.0571 0.1509, -1.1512 1.0571 0.0253, -1.226 1.0571 0.1549, -1.112 1.0571 0.0554, -1.2178 1.0571 0.1611, -1.082 1.0571 0.0945, -1.2116 1.0571 0.1693, -0.8502 1.0571 0.4961, -0.9797 1.0571 0.5709, -0.8492 1.0571 0.4974, -0.9604 1.0571 0.5975, -0.848 1.0571 0.4985, -0.9359 1.0571 0.6195, -0.8465 1.0571 0.4993, -0.9074 1.0571 0.636, -0.845 1.0571 0.4998, -0.8761 1.0571 0.6462, -0.8433 1.0571 0.5, -0.8433 1.0571 0.6496, -0.8126 1.0571 0.5, -0.8126 1.0571 0.6496, -0.8126 -1.0571 0.5, -0.8126 -1.0571 0.6496, -0.8433 -1.0571 0.5, -0.8433 -1.0571 0.6496, -0.845 -1.0571 0.4998, -0.8761 -1.0571 0.6462, -0.8465 -1.0571 0.4993, -0.9074 -1.0571 0.636, -0.848 -1.0571 0.4985, -0.9359 -1.0571 0.6195, -0.8492 -1.0571 0.4974, -0.9604 -1.0571 0.5975, -0.8502 -1.0571 0.4961, -0.9797 -1.0571 0.5709, -1.082 -1.0571 0.0945, -1.2116 -1.0571 0.1693, -1.112 -1.0571 0.0554, -1.2178 -1.0571 0.1611, -1.1512 -1.0571 0.0253, -1.226 -1.0571 0.1549, -1.1968 -1.0571 0.0064, -1.2355 -1.0571 0.1509, -1.2457 -1.0571 0.0, -1.2457 -1.0571 0.1496, -1.6 -1.0571 0.0, -1.6 -1.0571 0.1496, -1.6 -0.7421 0.0, -1.6 -0.7421 0.1496, -1.2457 -0.7421 0.0, -1.2457 -0.7421 0.1496, -1.1968 -0.7421 0.0064, -1.2355 -0.7421 0.1509, -1.1512 -0.7421 0.0253, -1.226 -0.7421 0.1549, -1.112 -0.7421 0.0554, -1.2178 -0.7421 0.1611, -1.082 -0.7421 0.0945, -1.2116 -0.7421 0.1693, -0.8502 -0.7421 0.4961, -0.9797 -0.7421 0.5709, -0.8492 -0.7421 0.4974, -0.9604 -0.7421 0.5975, -0.848 -0.7421 0.4985, -0.9359 -0.7421 0.6195, -0.8465 -0.7421 0.4993, -0.9074 -0.7421 0.636, -0.845 -0.7421 0.4998, -0.8761 -0.7421 0.6462, -0.8433 -0.7421 0.5, -0.8433 -0.7421 0.6496, -0.8126 -0.7421 0.5, -0.8126 -0.7421 0.6496
            ]
        }
        coordIndex [
            0,1,2,-1,2,1,3,-1,2,3,4,-1,4,3,5,-1,6,7,8,-1,5,3,9,-1,9,3,10,-1,9,10,11,-1,12,13,14,-1,15,16,17,-1,17,16,12,-1,17,12,18,-1,18,12,14,-1,19,20,21,-1,21,20,22,-1,23,24,25,-1,25,24,26,-1,25,26,22,-1,22,26,17,-1,22,17,21,-1,21,17,18,-1,27,15,28,-1,23,29,30,-1,30,29,27,-1,30,27,31,-1,31,27,28,-1,32,33,34,-1,34,33,35,-1,35,33,36,-1,35,36,37,-1,37,36,38,-1,37,38,39,-1,39,38,40,-1,39,40,41,-1,42,43,44,-1,44,43,45,-1,46,47,45,-1,45,47,41,-1,45,41,44,-1,44,41,40,-1,48,49,50,-1,50,49,51,-1,52,53,32,-1,54,55,56,-1,34,42,32,-1,32,42,44,-1,32,44,52,-1,52,44,57,-1,56,58,59,-1,60,61,62,-1,48,59,49,-1,49,59,58,-1,49,58,62,-1,62,58,63,-1,62,63,60,-1,64,65,66,-1,66,65,67,-1,66,67,68,-1,69,70,33,-1,53,50,32,-1,32,50,51,-1,32,51,33,-1,33,51,68,-1,33,68,69,-1,69,68,67,-1,59,57,56,-1,56,57,44,-1,56,44,54,-1,54,44,40,-1,54,40,71,-1,71,40,26,-1,71,26,72,-1,72,26,24,-1,72,24,73,-1,74,75,7,-1,7,75,1,-1,7,1,8,-1,8,1,0,-1,8,76,6,-1,6,76,11,-1,6,11,77,-1,77,11,10,-1,77,10,78,-1,78,10,79,-1,79,31,80,-1,80,31,28,-1,80,28,81,-1,81,28,36,-1,81,36,82,-1,82,36,33,-1,82,33,83,-1,83,33,70,-1,83,70,84,-1,38,85,86,-1,87,88,40,-1,40,88,89,-1,40,89,90,-1,86,91,38,-1,38,91,92,-1,38,92,93,-1,93,94,38,-1,38,94,95,-1,38,95,40,-1,40,95,96,-1,40,96,87,-1,90,97,40,-1,40,97,98,-1,40,98,26,-1,26,98,99,-1,26,99,17,-1,17,99,100,-1,17,100,101,-1,85,38,102,-1,102,38,36,-1,102,36,103,-1,15,17,28,-1,28,17,101,-1,28,101,36,-1,36,101,104,-1,36,104,103,-1,23,30,24,-1,24,30,105,-1,24,105,106,-1,106,107,24,-1,24,107,108,-1,24,108,73,-1,73,108,109,-1,73,109,75,-1,110,111,112,-1,112,111,105,-1,112,105,113,-1,113,105,30,-1,110,114,111,-1,111,114,115,-1,111,115,116,-1,116,117,111,-1,111,117,118,-1,111,118,119,-1,119,120,111,-1,111,120,121,-1,111,121,122,-1,123,124,125,-1,125,124,126,-1,122,127,111,-1,111,127,124,-1,111,124,128,-1,128,124,123,-1,129,130,31,-1,31,130,131,-1,31,131,30,-1,30,131,132,-1,30,132,113,-1,79,10,31,-1,31,10,133,-1,31,133,129,-1,134,135,3,-1,135,136,3,-1,3,136,137,-1,3,137,10,-1,10,137,138,-1,10,138,133,-1,109,139,75,-1,75,139,140,-1,75,140,1,-1,1,140,141,-1,1,141,142,-1,142,143,1,-1,1,143,144,-1,1,144,145,-1,145,146,1,-1,1,146,147,-1,1,147,3,-1,3,147,148,-1,3,148,134,-1,149,74,150,-1,150,74,7,-1,150,7,151,-1,151,7,6,-1,151,6,152,-1,152,6,77,-1,152,77,153,-1,153,77,78,-1,154,155,156,-1,156,155,157,-1,156,157,158,-1,158,157,159,-1,158,159,160,-1,160,159,161,-1,160,161,162,-1,162,161,163,-1,162,163,164,-1,164,163,165,-1,164,165,166,-1,166,165,167,-1,166,167,168,-1,168,167,169,-1,168,169,170,-1,170,169,171,-1,170,171,172,-1,172,171,173,-1,172,173,174,-1,174,173,175,-1,174,175,176,-1,176,175,177,-1,176,177,178,-1,178,177,179,-1,180,181,182,-1,182,181,183,-1,182,183,184,-1,184,183,185,-1,184,185,186,-1,186,185,187,-1,186,187,188,-1,188,187,189,-1,188,189,190,-1,190,189,191,-1,190,191,192,-1,192,191,193,-1,192,193,194,-1,194,193,195,-1,194,195,196,-1,196,195,197,-1,196,197,198,-1,198,197,199,-1,198,199,200,-1,200,199,201,-1,200,201,202,-1,202,201,203,-1,202,203,204,-1,204,203,205,-1,206,207,208,-1,208,207,209,-1,208,209,210,-1,210,209,211,-1,210,211,212,-1,212,211,213,-1,212,213,214,-1,214,213,215,-1,214,215,216,-1,216,215,217,-1,216,217,218,-1,218,217,219,-1,218,219,220,-1,220,219,221,-1,220,221,222,-1,222,221,223,-1,222,223,224,-1,224,223,225,-1,224,225,226,-1,226,225,227,-1,226,227,228,-1,228,227,229,-1,228,229,230,-1,230,229,231,-1,232,233,234,-1,234,233,235,-1,234,235,236,-1,236,235,237,-1,236,237,238,-1,238,237,239,-1,238,239,240,-1,240,239,241,-1,240,241,242,-1,242,241,243,-1,242,243,244,-1,244,243,245,-1,244,245,246,-1,246,245,247,-1,246,247,248,-1,248,247,249,-1,248,249,250,-1,250,249,251,-1,250,251,252,-1,252,251,253,-1,252,253,254,-1,254,253,255,-1,254,255,256,-1,256,255,257,-1,
        ]
    }
}
Shape{
    appearance Appearance {
        material  Material 	{
            diffuseColor 0.20784313725490197 0.20784313725490197 0.20784313725490197
            specularColor 0.01568627450980392 0.01568627450980392 0.01568627450980392
            ambientIntensity 0.298
            transparency 0.0
            shininess 0.5
        }
    }
    geometry IndexedFaceSet {
        ccw TRUE
        solid FALSE
        coord DEF co Coordinate {
            point [
                1.3921 -0.2461 0.0197, 1.3921 0.2461 0.0197, 1.7071 -0.2461 0.0197, 1.7071 0.2461 0.0197
            ]
        }
        coordIndex [
            0,1,2,-1,2,1,3,-1,
        ]
    }
}
Shape{
    appearance Appearance {
        material  Material 	{
            diffuseColor 0.6666666666666666 0.6666666666666666 0.6666666666666666
            specularColor 0.4666666666666667 0.4666666666666667 0.4666666666666667
            ambientIntensity 0.6667
            transparency 0.0
            shininess 0.5
        }
    }
    geometry IndexedFaceSet {
        ccw TRUE
        solid FALSE
        coord DEF co Coordinate {
            point [
                1.7071 -0.2461 0.0193, 1.7071 -0.2461 0.0197, 1.7071 -0.0754 0.0193, 1.7071 0.2461 0.0197, 1.7071 0.2461 0.0193, 1.7071 1.0295 0.0197, 1.7071 1.0295 0.0193, 1.7071 0.7185 0.0197, 1.7071 0.7185 0.0193
            ]
        }
        coordIndex [
            0,1,2,-1,2,1,3,-1,2,3,4,-1,5,6,7,-1,7,6,8,-1,
        ]
    }
}
Shape{
    appearance Appearance {
        material  Material 	{
            diffuseColor 0.20784313725490197 0.20784313725490197 0.20784313725490197
            specularColor 0.01568627450980392 0.01568627450980392 0.01568627450980392
            ambientIntensity 0.298
            transparency 0.0
            shininess 0.5
        }
    }
    geometry IndexedFaceSet {
        ccw TRUE
        solid FALSE
        coord DEF co Coordinate {
            point [
                1.9433 -1.0295 0.0197, 1.91 -1.0295 0.2909, 1.9247 -1.0355 0.1712, 1.9064 -1.0423 0.3202, 1.8512 1.0697 0.7698, 1.8321 1.0819 0.9252, 1.8512 -1.0697 0.7698, 1.8321 -1.0819 0.9252, 1.9064 1.0423 0.3202, 1.91 1.0295 0.2909, 1.9247 1.0355 0.1712, 1.9433 1.0295 0.0197, 1.871 1.0587 0.609, 1.871 -1.0587 0.609, 1.8885 -1.0501 0.4662, 1.8885 1.0501 0.4662, 1.6864 -1.2623 0.3202, 1.6942 -1.2444 0.4662, -0.4583 -1.2219 0.6496, 1.7028 -1.2269 0.609, -0.4244 -1.188 0.9252, 1.7138 -1.2071 0.7698, 1.726 -1.188 0.9252, 1.6796 -1.2806 0.1712, -0.3809 -1.2992 0.0197, 1.6736 -1.2992 0.0197, 1.5083 0.0611 0.9252, 1.5163 -0.0 0.9252, 1.5083 -0.0611 0.9252, 1.4847 -0.1181 0.9252, -0.4244 1.188 0.9252, 1.0519 0.0611 0.9252, 1.0755 0.1181 0.9252, 1.3412 -0.2282 0.9252, 1.2801 -0.2362 0.9252, 1.2189 -0.2282 0.9252, 1.162 -0.2046 0.9252, 1.113 -0.167 0.9252, 1.4471 -0.167 0.9252, 1.3982 -0.2046 0.9252, 1.8038 -1.1029 0.9252, 1.747 -1.1597 0.9252, 1.747 1.1597 0.9252, 1.726 1.188 0.9252, 1.3412 0.2282 0.9252, 1.2801 0.2362 0.9252, 1.3982 0.2046 0.9252, 1.4471 0.167 0.9252, 1.4847 0.1181 0.9252, 1.0755 -0.1181 0.9252, 1.0519 -0.0611 0.9252, 1.0439 -0.0 0.9252, 1.113 0.167 0.9252, 1.162 0.2046 0.9252, 1.2189 0.2282 0.9252, 1.8038 1.1029 0.9252, 1.747 1.1597 0.0197, 1.7071 1.0295 0.0197, 1.7028 1.2269 0.0197, -0.3809 1.2992 0.0197, 1.6736 1.2992 0.0197, 1.8038 1.1029 0.0197, 1.871 1.0587 0.0197, 1.7071 0.7185 0.0197, 1.3921 0.7185 0.0197, 1.3921 0.876 0.0197, 0.3685 0.876 0.0197, 0.3685 -0.876 0.0197, 1.7028 -1.2269 0.0197, 1.7071 -0.7185 0.0197, 1.7071 -1.0295 0.0197, 1.3921 -0.7185 0.0197, 1.3921 -0.876 0.0197, 1.8038 -1.1029 0.0197, 1.871 -1.0587 0.0197, 1.747 -1.1597 0.0197, 1.7028 1.2269 0.609, -0.4583 1.2219 0.6496, 1.7138 1.2071 0.7698, 1.6942 1.2444 0.4662, 1.6864 1.2623 0.3202, 1.6796 1.2806 0.1712, -0.4583 -1.0571 0.6496, -0.4583 0.7421 0.6496, -0.4583 1.0571 0.6496, -0.4583 0.1575 0.6496, -0.4583 -0.1575 0.6496, -0.4583 -0.7421 0.6496, -0.4399 0.1575 0.5, -0.4399 1.0571 0.5, -0.4399 0.7421 0.5, -0.4399 -1.0571 0.5, -0.4399 -0.7421 0.5, -0.4399 -0.1575 0.5
            ]
        }
        coordIndex [
            0,1,2,-1,2,1,3,-1,4,5,6,-1,6,5,7,-1,8,9,10,-1,10,9,11,-1,4,6,12,-1,12,6,13,-1,12,13,14,-1,1,9,3,-1,3,9,8,-1,3,8,14,-1,14,8,15,-1,14,15,12,-1,16,17,18,-1,18,17,19,-1,18,19,20,-1,20,19,21,-1,20,21,22,-1,16,18,23,-1,23,18,24,-1,23,24,25,-1,26,27,5,-1,5,27,7,-1,7,27,28,-1,7,28,29,-1,30,31,32,-1,33,34,22,-1,22,34,35,-1,22,35,20,-1,20,35,36,-1,20,36,37,-1,29,38,7,-1,7,38,39,-1,7,39,40,-1,40,39,33,-1,40,33,41,-1,41,33,22,-1,42,43,44,-1,44,43,45,-1,46,47,5,-1,5,47,48,-1,5,48,26,-1,37,49,20,-1,20,49,50,-1,20,50,30,-1,30,50,51,-1,30,51,31,-1,32,52,30,-1,30,52,53,-1,30,53,43,-1,43,53,54,-1,43,54,45,-1,46,5,44,-1,44,5,55,-1,44,55,42,-1,56,57,58,-1,58,57,59,-1,58,59,60,-1,56,61,57,-1,57,61,62,-1,57,62,11,-1,63,64,57,-1,57,64,65,-1,57,65,59,-1,59,65,66,-1,59,66,24,-1,24,66,67,-1,24,67,25,-1,25,67,68,-1,69,70,71,-1,71,70,72,-1,73,70,74,-1,74,70,0,-1,67,72,68,-1,68,72,70,-1,68,70,75,-1,75,70,73,-1,76,77,78,-1,78,77,30,-1,78,30,43,-1,76,79,77,-1,77,79,80,-1,77,80,59,-1,59,80,81,-1,59,81,60,-1,82,18,20,-1,83,30,84,-1,84,30,77,-1,83,85,30,-1,30,85,86,-1,30,86,20,-1,20,86,87,-1,20,87,82,-1,88,85,83,-1,84,77,89,-1,89,77,59,-1,89,59,90,-1,90,59,24,-1,18,82,24,-1,24,82,91,-1,24,91,92,-1,87,86,92,-1,92,86,93,-1,92,93,24,-1,24,93,88,-1,24,88,90,-1,90,88,83,-1,78,43,42,-1,15,8,62,-1,62,8,10,-1,62,10,11,-1,15,62,12,-1,12,62,61,-1,12,61,4,-1,60,81,58,-1,58,81,80,-1,80,79,58,-1,58,79,76,-1,58,76,56,-1,76,78,56,-1,56,78,42,-1,56,42,61,-1,61,42,55,-1,61,55,4,-1,4,55,5,-1,6,7,40,-1,0,2,74,-1,74,2,3,-1,3,14,74,-1,74,14,13,-1,74,13,73,-1,17,16,68,-1,68,16,23,-1,68,23,25,-1,17,68,19,-1,19,68,75,-1,19,75,21,-1,13,6,73,-1,73,6,40,-1,73,40,75,-1,75,40,41,-1,75,41,21,-1,21,41,22,-1,
        ]
    }
}
Shape{
    appearance Appearance {
        material  Material 	{
            diffuseColor 0.6666666666666666 0.6666666666666666 0.6666666666666666
            specularColor 0.4666666666666667 0.4666666666666667 0.4666666666666667
            ambientIntensity 0.6667
            transparency 0.0
            shininess 0.5
        }
    }
    geometry IndexedFaceSet {
        ccw TRUE
        solid FALSE
        coord DEF co Coordinate {
            point [
                2.3764 -0.8327 0.2909, 2.3764 -1.0295 0.2909, 2.3764 -0.8327 0.0193, 2.3764 -1.0295 0.0193, 2.337 -0.8327 0.2909, 2.337 -0.8327 0.0193, 2.337 -0.6527 0.0193, 2.337 0.8327 0.0193, 2.337 0.8327 0.2909, 2.337 -0.0754 0.0193, 2.337 -0.2597 0.0193, 2.3764 0.8327 0.2909, 2.3764 0.8327 0.0193, 2.3764 1.0295 0.2909, 2.3764 1.0295 0.0193, 1.9433 1.0295 0.0197, 1.91 1.0295 0.2909, 1.7071 1.0295 0.0193, 1.7071 1.0295 0.0197, 1.7071 -0.7185 0.0193, 1.7071 -1.0295 0.0193, 1.7071 -0.7185 0.0197, 1.7071 -1.0295 0.0197, 1.9433 -1.0295 0.0197, 1.91 -1.0295 0.2909, 1.3921 0.7185 0.0193, 1.3921 0.876 0.0193, 1.3921 0.7185 0.0197, 1.3921 0.876 0.0197, 1.3415 0.876 0.0193, 0.4312 0.876 0.0193, 0.3685 0.876 0.0193, 0.3685 0.876 0.0197, 0.603 0.876 0.0193, 1.106 0.876 0.0193, 0.9211 0.876 0.0193, 0.7771 0.876 0.0193, 0.3685 -0.0754 0.0193, 0.3685 -0.6527 0.0193, 0.3685 -0.876 0.0193, 0.3685 -0.876 0.0197, 0.3685 -0.2597 0.0193, 0.4312 -0.876 0.0193, 0.603 -0.876 0.0193, 1.3415 -0.876 0.0193, 1.3921 -0.876 0.0193, 1.3921 -0.876 0.0197, 0.7771 -0.876 0.0193, 0.9211 -0.876 0.0193, 1.106 -0.876 0.0193, 1.3921 -0.7185 0.0193, 1.3921 -0.7185 0.0197, 1.7071 -0.2461 0.0193, 1.3921 -0.2461 0.0193, 1.7071 -0.2461 0.0197, 1.3921 -0.2461 0.0197, 1.3921 0.2461 0.0193, 1.3921 0.2461 0.0197, 1.3921 -0.0754 0.0193, 1.7071 0.2461 0.0197, 1.7071 0.2461 0.0193, 1.7071 0.7185 0.0193, 1.7071 0.7185 0.0197, -1.6 -1.0571 0.1496, -1.2457 -1.0571 0.1496, -1.6 -0.7421 0.1496, -1.2457 -0.7421 0.1496, -1.6 -1.0571 0.0, -1.6 -0.7421 0.0, -1.2457 -1.0571 0.0, -1.2457 -0.7421 0.0, -1.1968 -0.7421 0.0064, -1.1968 -1.0571 0.0064, -1.1512 -0.7421 0.0253, -1.1512 -1.0571 0.0253, -1.112 -0.7421 0.0554, -1.112 -1.0571 0.0554, -1.082 -0.7421 0.0945, -1.082 -1.0571 0.0945, -0.8502 -1.0571 0.4961, -0.8502 -0.7421 0.4961, -0.8492 -1.0571 0.4974, -0.8492 -0.7421 0.4974, -0.848 -1.0571 0.4985, -0.848 -0.7421 0.4985, -0.8465 -1.0571 0.4993, -0.8465 -0.7421 0.4993, -0.845 -1.0571 0.4998, -0.845 -0.7421 0.4998, -0.8433 -1.0571 0.5, -0.8433 -0.7421 0.5, -0.8126 -0.7421 0.5, -0.8126 -0.7205 0.5, -0.6354 -0.7205 0.5, -0.6354 -0.7421 0.5, -0.8126 -1.0571 0.5, -0.6354 -1.0787 0.5, -0.8126 -1.0787 0.5, -0.6354 -1.0571 0.5, -0.4399 -0.7421 0.5, -0.4399 -1.0571 0.5, -0.8126 -1.0787 0.6496, -0.6354 -1.0787 0.6496, -0.8126 -1.0571 0.6496, -0.6354 -1.0571 0.6496, -0.8433 -0.7421 0.6496, -0.8433 -1.0571 0.6496, -0.8126 -0.7421 0.6496, -0.6354 -0.7421 0.6496, -0.8126 -0.7205 0.6496, -0.6354 -0.7205 0.6496, -0.4583 -1.0571 0.6496, -0.4583 -0.7421 0.6496, -0.8761 -0.7421 0.6462, -0.8761 -1.0571 0.6462, -0.9074 -0.7421 0.636, -0.9074 -1.0571 0.636, -0.9359 -0.7421 0.6195, -0.9359 -1.0571 0.6195, -0.9604 -0.7421 0.5975, -0.9604 -1.0571 0.5975, -0.9797 -0.7421 0.5709, -0.9797 -1.0571 0.5709, -1.2116 -1.0571 0.1693, -1.2116 -0.7421 0.1693, -1.2178 -1.0571 0.1611, -1.2178 -0.7421 0.1611, -1.226 -1.0571 0.1549, -1.226 -0.7421 0.1549, -1.2355 -1.0571 0.1509, -1.2355 -0.7421 0.1509, -0.7339 -0.1791 0.5, -0.7339 0.1791 0.5, -0.6354 0.1575 0.5, -0.6354 0.1791 0.5, -0.6354 -0.1791 0.5, -0.6354 -0.1575 0.5, -0.4399 -0.1575 0.5, -0.4399 0.1575 0.5, -0.6354 0.1575 0.6496, -0.6354 0.1791 0.6496, -0.7339 0.1791 0.6496, -0.7339 -0.1791 0.6496, -0.6354 -0.1791 0.6496, -0.6354 -0.1575 0.6496, -0.4583 -0.1575 0.6496, -0.4583 0.1575 0.6496, -1.6 0.7421 0.1496, -1.2457 0.7421 0.1496, -1.6 1.0571 0.1496, -1.2457 1.0571 0.1496, -1.6 0.7421 0.0, -1.6 1.0571 0.0, -1.2457 0.7421 0.0, -1.2457 1.0571 0.0, -1.1968 1.0571 0.0064, -1.1968 0.7421 0.0064, -1.1512 1.0571 0.0253, -1.1512 0.7421 0.0253, -1.112 1.0571 0.0554, -1.112 0.7421 0.0554, -1.082 1.0571 0.0945, -1.082 0.7421 0.0945, -0.8502 0.7421 0.4961, -0.8502 1.0571 0.4961, -0.8492 0.7421 0.4974, -0.8492 1.0571 0.4974, -0.848 0.7421 0.4985, -0.848 1.0571 0.4985, -0.8465 0.7421 0.4993, -0.8465 1.0571 0.4993, -0.845 0.7421 0.4998, -0.845 1.0571 0.4998, -0.8433 0.7421 0.5, -0.8433 1.0571 0.5, -0.4399 1.0571 0.5, -0.4399 0.7421 0.5, -0.6354 0.7421 0.5, -0.6354 0.7205 0.5, -0.8126 0.7205 0.5, -0.8126 0.7421 0.5, -0.6354 1.0571 0.5, -0.8126 1.0787 0.5, -0.6354 1.0787 0.5, -0.8126 1.0571 0.5, -0.6354 1.0787 0.6496, -0.8126 1.0787 0.6496, -0.6354 1.0571 0.6496, -0.8126 1.0571 0.6496, -0.4583 0.7421 0.6496, -0.4583 1.0571 0.6496, -0.6354 0.7421 0.6496, -0.8126 0.7421 0.6496, -0.6354 0.7205 0.6496, -0.8126 0.7205 0.6496, -0.8433 1.0571 0.6496, -0.8433 0.7421 0.6496, -0.8761 1.0571 0.6462, -0.8761 0.7421 0.6462, -0.9074 1.0571 0.636, -0.9074 0.7421 0.636, -0.9359 1.0571 0.6195, -0.9359 0.7421 0.6195, -0.9604 1.0571 0.5975, -0.9604 0.7421 0.5975, -0.9797 1.0571 0.5709, -0.9797 0.7421 0.5709, -1.2116 0.7421 0.1693, -1.2116 1.0571 0.1693, -1.2178 0.7421 0.1611, -1.2178 1.0571 0.1611, -1.226 0.7421 0.1549, -1.226 1.0571 0.1549, -1.2355 0.7421 0.1509, -1.2355 1.0571 0.1509
            ]
        }
        coordIndex [
            0,1,2,-1,2,1,3,-1,4,0,5,-1,5,0,2,-1,4,5,6,-1,7,8,9,-1,9,8,4,-1,9,4,10,-1,10,4,6,-1,11,8,12,-1,12,8,7,-1,13,11,14,-1,14,11,12,-1,15,16,13,-1,13,14,15,-1,15,14,17,-1,15,17,18,-1,19,20,21,-1,21,20,22,-1,22,20,23,-1,23,20,3,-1,23,3,24,-1,24,3,1,-1,11,13,8,-1,8,13,16,-1,8,16,4,-1,4,16,24,-1,4,24,0,-1,0,24,1,-1,25,26,27,-1,27,26,28,-1,28,26,29,-1,30,31,32,-1,30,32,33,-1,29,34,28,-1,28,34,35,-1,28,35,32,-1,32,35,36,-1,32,36,33,-1,32,31,37,-1,38,39,40,-1,32,37,40,-1,40,37,41,-1,40,41,38,-1,39,42,40,-1,40,42,43,-1,44,45,46,-1,43,47,40,-1,40,47,48,-1,40,48,46,-1,46,48,49,-1,46,49,44,-1,45,50,46,-1,46,50,51,-1,51,50,21,-1,21,50,19,-1,52,53,54,-1,54,53,55,-1,56,57,58,-1,58,57,55,-1,58,55,53,-1,57,56,59,-1,59,56,60,-1,61,25,62,-1,62,25,27,-1,63,64,65,-1,65,64,66,-1,67,63,68,-1,68,63,65,-1,69,67,70,-1,70,67,68,-1,69,70,71,-1,69,71,72,-1,72,71,73,-1,72,73,74,-1,74,73,75,-1,74,75,76,-1,76,75,77,-1,76,77,78,-1,79,78,80,-1,80,78,77,-1,79,80,81,-1,81,80,82,-1,81,82,83,-1,83,82,84,-1,83,84,85,-1,85,84,86,-1,85,86,87,-1,87,86,88,-1,87,88,89,-1,89,88,90,-1,89,90,91,-1,92,93,91,-1,91,93,94,-1,91,94,89,-1,89,94,95,-1,96,97,98,-1,98,97,95,-1,95,94,98,-1,98,94,99,-1,98,99,100,-1,101,102,103,-1,103,102,104,-1,105,106,107,-1,107,106,108,-1,107,108,109,-1,109,108,110,-1,111,112,104,-1,104,112,108,-1,104,108,103,-1,103,108,106,-1,106,105,113,-1,106,113,114,-1,114,113,115,-1,114,115,116,-1,116,115,117,-1,116,117,118,-1,118,117,119,-1,118,119,120,-1,120,119,121,-1,120,121,122,-1,123,122,124,-1,124,122,121,-1,123,124,125,-1,125,124,126,-1,125,126,127,-1,127,126,128,-1,127,128,129,-1,129,128,130,-1,129,130,64,-1,64,130,66,-1,100,111,98,-1,98,111,104,-1,108,112,94,-1,94,112,99,-1,93,92,110,-1,110,92,109,-1,93,110,94,-1,94,110,108,-1,109,92,107,-1,107,92,91,-1,97,96,101,-1,101,96,102,-1,95,97,103,-1,103,97,101,-1,104,102,98,-1,98,102,96,-1,131,132,133,-1,133,132,134,-1,135,131,136,-1,136,131,133,-1,136,133,137,-1,137,133,138,-1,139,140,141,-1,142,143,144,-1,145,146,144,-1,144,146,139,-1,144,139,142,-1,142,139,141,-1,137,145,136,-1,136,145,144,-1,139,146,133,-1,133,146,138,-1,147,148,149,-1,149,148,150,-1,151,147,152,-1,152,147,149,-1,153,151,154,-1,154,151,152,-1,153,154,155,-1,153,155,156,-1,156,155,157,-1,156,157,158,-1,158,157,159,-1,158,159,160,-1,160,159,161,-1,160,161,162,-1,163,162,164,-1,164,162,161,-1,163,164,165,-1,165,164,166,-1,165,166,167,-1,167,166,168,-1,167,168,169,-1,169,168,170,-1,169,170,171,-1,171,170,172,-1,171,172,173,-1,173,172,174,-1,175,176,177,-1,178,179,177,-1,177,179,180,-1,177,180,175,-1,175,180,181,-1,182,183,184,-1,184,183,181,-1,181,180,184,-1,184,180,173,-1,184,173,174,-1,185,186,187,-1,187,186,188,-1,189,190,191,-1,191,190,192,-1,191,192,193,-1,193,192,194,-1,195,196,188,-1,188,196,192,-1,188,192,187,-1,187,192,190,-1,196,195,197,-1,196,197,198,-1,198,197,199,-1,198,199,200,-1,200,199,201,-1,200,201,202,-1,202,201,203,-1,202,203,204,-1,204,203,205,-1,204,205,206,-1,207,206,208,-1,208,206,205,-1,207,208,209,-1,209,208,210,-1,209,210,211,-1,211,210,212,-1,211,212,213,-1,213,212,214,-1,213,214,148,-1,148,214,150,-1,176,189,177,-1,177,189,191,-1,187,190,181,-1,181,190,175,-1,140,134,141,-1,141,134,132,-1,134,140,133,-1,133,140,139,-1,135,143,131,-1,131,143,142,-1,144,143,136,-1,136,143,135,-1,183,182,185,-1,185,182,186,-1,183,185,181,-1,181,185,187,-1,186,182,188,-1,188,182,184,-1,179,178,194,-1,194,178,193,-1,180,179,192,-1,192,179,194,-1,191,193,177,-1,177,193,178,-1,131,142,132,-1,132,142,141,-1,
        ]
    }
}
Shape{
    appearance Appearance {
        material  Material 	{
            diffuseColor 0.20784313725490197 0.20784313725490197 0.20784313725490197
            specularColor 0.01568627450980392 0.01568627450980392 0.01568627450980392
            ambientIntensity 0.298
            transparency 0.0
            shininess 0.5
        }
    }
    geometry IndexedFaceSet {
        ccw TRUE
        solid FALSE
        coord DEF co Coordinate {
            point [
                1.2801 -0.2362 0.9055, 1.2801 -0.2362 0.9252, 1.3412 -0.2282 0.9055, 1.3412 -0.2282 0.9252, 1.3982 -0.2046 0.9055, 1.3982 -0.2046 0.9252, 1.4471 -0.167 0.9055, 1.4471 -0.167 0.9252, 1.4847 -0.1181 0.9055, 1.4847 -0.1181 0.9252, 1.5083 -0.0611 0.9055, 1.5083 -0.0611 0.9252, 1.5163 -0.0 0.9055, 1.5163 -0.0 0.9252, 1.5083 0.0611 0.9055, 1.5083 0.0611 0.9252, 1.4847 0.1181 0.9055, 1.4847 0.1181 0.9252, 1.4471 0.167 0.9055, 1.4471 0.167 0.9252, 1.3982 0.2046 0.9055, 1.3982 0.2046 0.9252, 1.3412 0.2282 0.9055, 1.3412 0.2282 0.9252, 1.2801 0.2362 0.9055, 1.2801 0.2362 0.9252, 1.2189 0.2282 0.9055, 1.2189 0.2282 0.9252, 1.162 0.2046 0.9055, 1.162 0.2046 0.9252, 1.113 0.167 0.9055, 1.113 0.167 0.9252, 1.0755 0.1181 0.9055, 1.0755 0.1181 0.9252, 1.0519 0.0611 0.9055, 1.0519 0.0611 0.9252, 1.0439 -0.0 0.9055, 1.0439 -0.0 0.9252, 1.0519 -0.0611 0.9055, 1.0519 -0.0611 0.9252, 1.0755 -0.1181 0.9055, 1.0755 -0.1181 0.9252, 1.113 -0.167 0.9055, 1.113 -0.167 0.9252, 1.162 -0.2046 0.9055, 1.162 -0.2046 0.9252, 1.2189 -0.2282 0.9055, 1.2189 -0.2282 0.9252, 1.2801 -0.0 0.9055
            ]
        }
        coordIndex [
            0,1,2,-1,2,1,3,-1,2,3,4,-1,4,3,5,-1,4,5,6,-1,6,5,7,-1,6,7,8,-1,8,7,9,-1,8,9,10,-1,10,9,11,-1,10,11,12,-1,12,11,13,-1,12,13,14,-1,14,13,15,-1,14,15,16,-1,16,15,17,-1,16,17,18,-1,18,17,19,-1,18,19,20,-1,20,19,21,-1,20,21,22,-1,22,21,23,-1,22,23,24,-1,24,23,25,-1,24,25,26,-1,26,25,27,-1,26,27,28,-1,28,27,29,-1,28,29,30,-1,30,29,31,-1,30,31,32,-1,32,31,33,-1,32,33,34,-1,34,33,35,-1,34,35,36,-1,36,35,37,-1,36,37,38,-1,38,37,39,-1,38,39,40,-1,40,39,41,-1,40,41,42,-1,42,41,43,-1,42,43,44,-1,44,43,45,-1,44,45,46,-1,46,45,47,-1,46,47,0,-1,0,47,1,-1,44,46,48,-1,48,46,0,-1,48,0,2,-1,38,40,48,-1,48,40,42,-1,48,42,44,-1,32,34,48,-1,48,34,36,-1,48,36,38,-1,26,28,48,-1,48,28,30,-1,48,30,32,-1,20,22,48,-1,48,22,24,-1,48,24,26,-1,14,16,48,-1,48,16,18,-1,48,18,20,-1,8,10,48,-1,48,10,12,-1,48,12,14,-1,2,4,48,-1,48,4,6,-1,48,6,8,-1,
        ]
    }
}
Shape{
    appearance Appearance {
        material  Material 	{
            diffuseColor 1.0 1.0 1.0
            specularColor 0.8784313725490196 0.8784313725490196 0.8784313725490196
            ambientIntensity 1.0
            transparency 0.0
            shininess 0.5
        }
    }
    geometry IndexedFaceSet {
        ccw TRUE
        solid FALSE
        coord DEF co Coordinate {
            point [
                1.214 -0.2734 0.0193, 1.214 -0.2734 0.098, 1.2193 -0.2597 0.0193, 1.2908 -0.0766 0.098, 1.2908 -0.0766 0.0193, 1.262 -0.0766 0.098, 1.262 -0.0766 0.0193, 1.2421 -0.1318 0.098, 1.2421 -0.1318 0.0193, 1.1608 -0.1318 0.098, 1.1608 -0.1318 0.0193, 1.142 -0.0766 0.098, 1.142 -0.0766 0.0193, 1.1132 -0.0766 0.098, 1.1132 -0.0766 0.0193, 1.1824 -0.2597 0.0193, 1.1876 -0.2734 0.098, 1.1876 -0.2734 0.0193, 1.1674 -0.1534 0.098, 1.2332 -0.1534 0.098, 1.1968 -0.2356 0.098, 1.1986 -0.2425 0.098, 1.1999 -0.2494 0.098, 1.2006 -0.2494 0.098, 1.2019 -0.2425 0.098, 1.2036 -0.2356 0.098, 1.1674 -0.1534 0.0193, 1.2332 -0.1534 0.0193, 1.1968 -0.2356 0.0193, 1.1986 -0.2425 0.0193, 1.1999 -0.2494 0.0193, 1.2006 -0.2494 0.0193, 1.2019 -0.2425 0.0193, 1.2036 -0.2356 0.0193, 0.9939 -0.0766 0.098, 0.9403 -0.0766 0.098, 0.9939 -0.0766 0.0193, 0.9403 -0.0766 0.0193, 0.9403 -0.2597 0.0193, 0.9403 -0.2734 0.098, 0.9403 -0.2734 0.0193, 0.9959 -0.2734 0.098, 0.9959 -0.2734 0.0193, 1.0988 -0.1775 0.098, 1.0988 -0.1775 0.0193, 1.0984 -0.1872 0.0193, 1.0984 -0.1872 0.098, 1.0946 -0.208 0.0193, 1.0946 -0.208 0.098, 1.0863 -0.2271 0.0193, 1.0863 -0.2271 0.098, 1.0745 -0.2425 0.0193, 1.0745 -0.2425 0.098, 1.0669 -0.2496 0.0193, 1.0669 -0.2496 0.098, 1.0513 -0.2597 0.0193, 1.0474 -0.2623 0.098, 1.0474 -0.2623 0.0193, 1.0243 -0.2704 0.0193, 1.0243 -0.2704 0.098, 1.0188 -0.0788 0.0193, 1.0188 -0.0788 0.098, 1.0415 -0.0857 0.0193, 1.0415 -0.0857 0.098, 1.0618 -0.0977 0.0193, 1.0618 -0.0977 0.098, 1.0779 -0.1133 0.0193, 1.0779 -0.1133 0.098, 1.089 -0.1306 0.0193, 1.089 -0.1306 0.098, 1.096 -0.1511 0.0193, 1.096 -0.1511 0.098, 1.0724 -0.1769 0.098, 1.0707 -0.1965 0.098, 1.0661 -0.2121 0.098, 1.0594 -0.2241 0.098, 1.0498 -0.2343 0.098, 1.0355 -0.2436 0.098, 1.0192 -0.2493 0.098, 0.9958 -0.2518 0.098, 0.9667 -0.2518 0.098, 0.9667 -0.0982 0.098, 0.9947 -0.0982 0.098, 1.0155 -0.1001 0.098, 1.032 -0.1053 0.098, 1.0453 -0.1132 0.098, 1.0565 -0.1241 0.098, 1.0647 -0.1376 0.098, 1.0699 -0.1532 0.098, 0.9958 -0.2518 0.0193, 0.9667 -0.2518 0.0193, 1.0192 -0.2493 0.0193, 1.0355 -0.2436 0.0193, 1.0498 -0.2343 0.0193, 1.0594 -0.2241 0.0193, 1.0661 -0.2121 0.0193, 1.0707 -0.1965 0.0193, 1.0724 -0.1769 0.0193, 1.0699 -0.1532 0.0193, 1.0647 -0.1376 0.0193, 1.0565 -0.1241 0.0193, 1.0453 -0.1132 0.0193, 1.032 -0.1053 0.0193, 1.0155 -0.1001 0.0193, 0.9947 -0.0982 0.0193, 0.9667 -0.0982 0.0193, 0.9019 -0.0982 0.098, 0.9019 -0.0766 0.098, 0.9019 -0.0982 0.0193, 0.9019 -0.0766 0.0193, 0.7963 -0.0766 0.098, 0.7963 -0.0766 0.0193, 0.7963 -0.2597 0.0193, 0.7963 -0.2734 0.098, 0.7963 -0.2734 0.0193, 0.8971 -0.2734 0.098, 0.8971 -0.2734 0.0193, 0.8971 -0.2597 0.0193, 0.8971 -0.2518 0.098, 0.8971 -0.2518 0.0193, 0.8227 -0.2518 0.098, 0.8227 -0.2518 0.0193, 0.8227 -0.187 0.098, 0.8227 -0.187 0.0193, 0.8923 -0.187 0.098, 0.8923 -0.187 0.0193, 0.8923 -0.1654 0.098, 0.8923 -0.1654 0.0193, 0.8227 -0.1654 0.098, 0.8227 -0.1654 0.0193, 0.8227 -0.0982 0.098, 0.8227 -0.0982 0.0193, 0.7579 -0.1084 0.098, 0.7579 -0.0868 0.098, 0.7579 -0.1084 0.0193, 0.7579 -0.0868 0.0193, 0.7369 -0.0782 0.098, 0.7037 -0.0742 0.098, 0.7037 -0.0742 0.0193, 0.7091 -0.0743 0.0193, 0.7091 -0.0743 0.098, 0.717 -0.0754 0.0193, 0.7369 -0.0782 0.0193, 0.6921 -0.0754 0.0193, 0.6795 -0.0767 0.098, 0.6795 -0.0767 0.0193, 0.6604 -0.0832 0.098, 0.6604 -0.0832 0.0193, 0.6444 -0.0935 0.098, 0.6444 -0.0935 0.0193, 0.63 -0.1087 0.098, 0.63 -0.1087 0.0193, 0.6195 -0.1272 0.098, 0.6195 -0.1272 0.0193, 0.6134 -0.1483 0.098, 0.6134 -0.1483 0.0193, 0.6114 -0.1713 0.098, 0.6114 -0.1713 0.0193, 0.7116 -0.2758 0.098, 0.7116 -0.2758 0.0193, 0.6908 -0.274 0.0193, 0.6908 -0.274 0.098, 0.6692 -0.2675 0.0193, 0.6692 -0.2675 0.098, 0.6558 -0.2597 0.0193, 0.6508 -0.2568 0.098, 0.6508 -0.2568 0.0193, 0.6336 -0.2403 0.0193, 0.6336 -0.2403 0.098, 0.6219 -0.2217 0.0193, 0.6219 -0.2217 0.098, 0.6143 -0.1992 0.0193, 0.6143 -0.1992 0.098, 0.7579 -0.268 0.098, 0.7579 -0.268 0.0193, 0.7351 -0.2742 0.0193, 0.7351 -0.2742 0.098, 0.7579 -0.2597 0.0193, 0.7579 -0.2416 0.098, 0.7579 -0.2416 0.0193, 0.7118 -0.2542 0.098, 0.7118 -0.2542 0.0193, 0.7357 -0.2511 0.0193, 0.7357 -0.2511 0.098, 0.6379 -0.1729 0.098, 0.6379 -0.1729 0.0193, 0.6387 -0.1877 0.0193, 0.6387 -0.1877 0.098, 0.6439 -0.209 0.0193, 0.6439 -0.209 0.098, 0.652 -0.2242 0.0193, 0.652 -0.2242 0.098, 0.6638 -0.2374 0.0193, 0.6638 -0.2374 0.098, 0.6777 -0.2468 0.0193, 0.6777 -0.2468 0.098, 0.6924 -0.2521 0.0193, 0.6924 -0.2521 0.098, 0.7074 -0.0958 0.098, 0.7074 -0.0958 0.0193, 0.6891 -0.0978 0.0193, 0.6891 -0.0978 0.098, 0.6746 -0.1031 0.0193, 0.6746 -0.1031 0.098, 0.6625 -0.1113 0.0193, 0.6625 -0.1113 0.098, 0.6534 -0.121 0.0193, 0.6534 -0.121 0.098, 0.6452 -0.1347 0.0193, 0.6452 -0.1347 0.098, 0.6398 -0.1516 0.0193, 0.6398 -0.1516 0.098, 0.7544 -0.1064 0.0193, 0.7544 -0.1064 0.098, 0.7335 -0.0987 0.0193, 0.7335 -0.0987 0.098, 0.5946 -0.0982 0.098, 0.5946 -0.0766 0.098, 0.5946 -0.0982 0.0193, 0.5946 -0.0766 0.0193, 0.4938 -0.0766 0.098, 0.4938 -0.0766 0.0193, 0.4938 -0.2597 0.0193, 0.4938 -0.2734 0.098, 0.4938 -0.2734 0.0193, 0.5202 -0.2734 0.098, 0.5202 -0.2734 0.0193, 0.5202 -0.2597 0.0193, 0.5202 -0.0982 0.098, 0.5202 -0.0982 0.0193
            ]
        }
        coordIndex [
            0,1,2,-1,2,1,3,-1,2,3,4,-1,3,5,4,-1,4,5,6,-1,5,7,6,-1,6,7,8,-1,7,9,8,-1,8,9,10,-1,9,11,10,-1,10,11,12,-1,11,13,12,-1,12,13,14,-1,14,13,15,-1,15,13,16,-1,15,16,17,-1,16,1,17,-1,17,1,0,-1,18,9,19,-1,19,9,7,-1,20,16,18,-1,18,16,13,-1,18,13,9,-1,9,13,11,-1,20,21,16,-1,16,21,22,-1,16,22,1,-1,1,22,23,-1,1,23,24,-1,24,25,1,-1,1,25,19,-1,1,19,3,-1,3,19,7,-1,3,7,5,-1,18,19,26,-1,26,19,27,-1,20,18,28,-1,28,18,26,-1,20,28,29,-1,20,29,21,-1,21,29,30,-1,21,30,22,-1,23,22,31,-1,31,22,30,-1,23,31,32,-1,23,32,24,-1,24,32,33,-1,24,33,25,-1,19,25,27,-1,27,25,33,-1,34,35,36,-1,36,35,37,-1,37,35,38,-1,38,35,39,-1,38,39,40,-1,39,41,40,-1,40,41,42,-1,43,44,45,-1,43,45,46,-1,46,45,47,-1,46,47,48,-1,48,47,49,-1,48,49,50,-1,50,49,51,-1,50,51,52,-1,52,51,53,-1,52,53,54,-1,54,53,55,-1,54,55,56,-1,55,57,56,-1,56,57,58,-1,56,58,59,-1,59,58,42,-1,59,42,41,-1,34,36,60,-1,34,60,61,-1,61,60,62,-1,61,62,63,-1,63,62,64,-1,63,64,65,-1,65,64,66,-1,65,66,67,-1,67,66,68,-1,67,68,69,-1,69,68,70,-1,69,70,71,-1,71,70,44,-1,71,44,43,-1,71,43,72,-1,72,43,46,-1,72,46,73,-1,73,46,48,-1,73,48,74,-1,74,48,50,-1,74,50,75,-1,75,50,52,-1,75,52,76,-1,76,52,54,-1,76,54,77,-1,77,54,56,-1,77,56,78,-1,78,56,59,-1,78,59,79,-1,79,59,41,-1,79,41,80,-1,80,41,39,-1,80,39,81,-1,81,39,35,-1,81,35,82,-1,82,35,34,-1,82,34,83,-1,83,34,61,-1,83,61,84,-1,84,61,63,-1,84,63,85,-1,85,63,65,-1,85,65,86,-1,86,65,67,-1,86,67,87,-1,87,67,69,-1,87,69,88,-1,88,69,71,-1,88,71,72,-1,79,80,89,-1,89,80,90,-1,79,89,91,-1,79,91,78,-1,78,91,92,-1,78,92,77,-1,77,92,93,-1,77,93,76,-1,76,93,94,-1,76,94,75,-1,75,94,95,-1,75,95,74,-1,74,95,96,-1,74,96,73,-1,73,96,97,-1,73,97,72,-1,72,97,98,-1,72,98,88,-1,88,98,99,-1,88,99,87,-1,87,99,100,-1,87,100,86,-1,86,100,101,-1,86,101,85,-1,85,101,102,-1,85,102,84,-1,84,102,103,-1,84,103,83,-1,83,103,104,-1,83,104,82,-1,81,82,105,-1,105,82,104,-1,80,81,90,-1,90,81,105,-1,106,107,108,-1,108,107,109,-1,107,110,109,-1,109,110,111,-1,111,110,112,-1,112,110,113,-1,112,113,114,-1,113,115,114,-1,114,115,116,-1,116,115,117,-1,117,115,118,-1,117,118,119,-1,118,120,119,-1,119,120,121,-1,120,122,121,-1,121,122,123,-1,122,124,123,-1,123,124,125,-1,124,126,125,-1,125,126,127,-1,126,128,127,-1,127,128,129,-1,128,130,129,-1,129,130,131,-1,130,106,131,-1,131,106,108,-1,110,107,106,-1,106,130,110,-1,110,130,128,-1,110,128,113,-1,118,115,120,-1,120,115,113,-1,120,113,122,-1,122,113,128,-1,122,128,124,-1,124,128,126,-1,132,133,134,-1,134,133,135,-1,135,133,136,-1,137,138,139,-1,137,139,140,-1,140,139,141,-1,140,141,136,-1,136,141,142,-1,136,142,135,-1,138,137,143,-1,143,137,144,-1,143,144,145,-1,145,144,146,-1,145,146,147,-1,147,146,148,-1,147,148,149,-1,149,148,150,-1,149,150,151,-1,151,150,152,-1,151,152,153,-1,153,152,154,-1,153,154,155,-1,155,154,156,-1,155,156,157,-1,158,159,160,-1,158,160,161,-1,161,160,162,-1,161,162,163,-1,163,162,164,-1,163,164,165,-1,164,166,165,-1,165,166,167,-1,165,167,168,-1,168,167,169,-1,168,169,170,-1,170,169,171,-1,170,171,172,-1,172,171,157,-1,172,157,156,-1,173,174,175,-1,173,175,176,-1,176,175,159,-1,176,159,158,-1,174,173,177,-1,177,173,178,-1,177,178,179,-1,180,181,182,-1,180,182,183,-1,183,182,179,-1,183,179,178,-1,184,185,186,-1,184,186,187,-1,187,186,188,-1,187,188,189,-1,189,188,190,-1,189,190,191,-1,191,190,192,-1,191,192,193,-1,193,192,194,-1,193,194,195,-1,195,194,196,-1,195,196,197,-1,197,196,181,-1,197,181,180,-1,198,199,200,-1,198,200,201,-1,201,200,202,-1,201,202,203,-1,203,202,204,-1,203,204,205,-1,205,204,206,-1,205,206,207,-1,207,206,208,-1,207,208,209,-1,209,208,210,-1,209,210,211,-1,211,210,185,-1,211,185,184,-1,132,134,212,-1,132,212,213,-1,213,212,214,-1,213,214,215,-1,215,214,199,-1,215,199,198,-1,201,137,198,-1,198,137,140,-1,198,140,215,-1,215,140,136,-1,215,136,213,-1,213,136,133,-1,213,133,132,-1,178,173,183,-1,183,173,176,-1,183,176,180,-1,180,176,158,-1,180,158,197,-1,197,158,161,-1,197,161,195,-1,195,161,163,-1,195,163,193,-1,193,163,165,-1,193,165,191,-1,191,165,168,-1,191,168,189,-1,189,168,170,-1,189,170,187,-1,187,170,172,-1,187,172,184,-1,184,172,156,-1,184,156,211,-1,211,156,154,-1,211,154,209,-1,209,154,152,-1,209,152,207,-1,207,152,150,-1,207,150,205,-1,205,150,148,-1,205,148,203,-1,203,148,146,-1,203,146,201,-1,201,146,144,-1,201,144,137,-1,216,217,218,-1,218,217,219,-1,217,220,219,-1,219,220,221,-1,221,220,222,-1,222,220,223,-1,222,223,224,-1,223,225,224,-1,224,225,226,-1,226,225,227,-1,227,225,228,-1,227,228,229,-1,228,216,229,-1,229,216,218,-1,225,223,228,-1,228,223,220,-1,228,220,216,-1,216,220,217,-1,
        ]
    }
}
Shape{
    appearance Appearance {
        material  Material 	{
            diffuseColor 0.6666666666666666 0.6666666666666666 0.6666666666666666
            specularColor 0.4666666666666667 0.4666666666666667 0.4666666666666667
            ambientIntensity 0.6667
            transparency 0.0
            shininess 0.5
        }
    }
    geometry IndexedFaceSet {
        ccw TRUE
        solid FALSE
        coord DEF co Coordinate {
            point [
                1.1674 -0.1534 0.0193, 1.2332 -0.1534 0.0193, 1.1968 -0.2356 0.0193, 1.2036 -0.2356 0.0193, 1.1986 -0.2425 0.0193, 1.2019 -0.2425 0.0193, 1.1999 -0.2494 0.0193, 1.2006 -0.2494 0.0193, 0.9667 -0.2518 0.0193, 0.9667 -0.0982 0.0193, 0.9958 -0.2518 0.0193, 0.9947 -0.0982 0.0193, 1.0699 -0.1532 0.0193, 1.0724 -0.1769 0.0193, 1.0707 -0.1965 0.0193, 1.0661 -0.2121 0.0193, 1.0192 -0.2493 0.0193, 1.0155 -0.1001 0.0193, 1.032 -0.1053 0.0193, 1.0453 -0.1132 0.0193, 1.0594 -0.2241 0.0193, 1.0498 -0.2343 0.0193, 1.0355 -0.2436 0.0193, 1.0565 -0.1241 0.0193, 1.0647 -0.1376 0.0193
            ]
        }
        coordIndex [
            0,1,2,-1,2,1,3,-1,2,3,4,-1,4,3,5,-1,4,5,6,-1,6,5,7,-1,8,9,10,-1,10,9,11,-1,12,13,10,-1,13,14,10,-1,10,14,15,-1,10,15,16,-1,11,17,10,-1,10,17,18,-1,10,18,19,-1,20,21,15,-1,15,21,22,-1,15,22,16,-1,19,23,10,-1,10,23,24,-1,10,24,12,-1,
        ]
    }
}