%TF.GenerationSoftware,KiCad,Pcbnew,10.0.3*%
%TF.CreationDate,2026-07-28T11:55:55-07:00*%
%TF.ProjectId,pd-trigger,70642d74-7269-4676-9765-722e6b696361,rev?*%
%TF.SameCoordinates,Original*%
%TF.FileFunction,Legend,Bot*%
%TF.FilePolarity,Positive*%
%FSLAX46Y46*%
G04 Gerber Fmt 4.6, Leading zero omitted, Abs format (unit mm)*
G04 Created by KiCad (PCBNEW 10.0.3) date 2026-07-28 11:55:55*
%MOMM*%
%LPD*%
G01*
G04 APERTURE LIST*
%ADD10C,0.150000*%
G04 APERTURE END LIST*
D10*
X44585713Y-46408557D02*
X44585713Y-45508557D01*
X44585713Y-45508557D02*
X44242856Y-45508557D01*
X44242856Y-45508557D02*
X44157141Y-45551414D01*
X44157141Y-45551414D02*
X44114284Y-45594271D01*
X44114284Y-45594271D02*
X44071427Y-45679985D01*
X44071427Y-45679985D02*
X44071427Y-45808557D01*
X44071427Y-45808557D02*
X44114284Y-45894271D01*
X44114284Y-45894271D02*
X44157141Y-45937128D01*
X44157141Y-45937128D02*
X44242856Y-45979985D01*
X44242856Y-45979985D02*
X44585713Y-45979985D01*
X43685713Y-46408557D02*
X43685713Y-45508557D01*
X43685713Y-45508557D02*
X43471427Y-45508557D01*
X43471427Y-45508557D02*
X43342856Y-45551414D01*
X43342856Y-45551414D02*
X43257141Y-45637128D01*
X43257141Y-45637128D02*
X43214284Y-45722842D01*
X43214284Y-45722842D02*
X43171427Y-45894271D01*
X43171427Y-45894271D02*
X43171427Y-46022842D01*
X43171427Y-46022842D02*
X43214284Y-46194271D01*
X43214284Y-46194271D02*
X43257141Y-46279985D01*
X43257141Y-46279985D02*
X43342856Y-46365700D01*
X43342856Y-46365700D02*
X43471427Y-46408557D01*
X43471427Y-46408557D02*
X43685713Y-46408557D01*
X42099999Y-46408557D02*
X42099999Y-45508557D01*
X42099999Y-45508557D02*
X41757142Y-45508557D01*
X41757142Y-45508557D02*
X41671427Y-45551414D01*
X41671427Y-45551414D02*
X41628570Y-45594271D01*
X41628570Y-45594271D02*
X41585713Y-45679985D01*
X41585713Y-45679985D02*
X41585713Y-45808557D01*
X41585713Y-45808557D02*
X41628570Y-45894271D01*
X41628570Y-45894271D02*
X41671427Y-45937128D01*
X41671427Y-45937128D02*
X41757142Y-45979985D01*
X41757142Y-45979985D02*
X42099999Y-45979985D01*
X40685713Y-46408557D02*
X40985713Y-45979985D01*
X41199999Y-46408557D02*
X41199999Y-45508557D01*
X41199999Y-45508557D02*
X40857142Y-45508557D01*
X40857142Y-45508557D02*
X40771427Y-45551414D01*
X40771427Y-45551414D02*
X40728570Y-45594271D01*
X40728570Y-45594271D02*
X40685713Y-45679985D01*
X40685713Y-45679985D02*
X40685713Y-45808557D01*
X40685713Y-45808557D02*
X40728570Y-45894271D01*
X40728570Y-45894271D02*
X40771427Y-45937128D01*
X40771427Y-45937128D02*
X40857142Y-45979985D01*
X40857142Y-45979985D02*
X41199999Y-45979985D01*
X40128570Y-45508557D02*
X39957142Y-45508557D01*
X39957142Y-45508557D02*
X39871427Y-45551414D01*
X39871427Y-45551414D02*
X39785713Y-45637128D01*
X39785713Y-45637128D02*
X39742856Y-45808557D01*
X39742856Y-45808557D02*
X39742856Y-46108557D01*
X39742856Y-46108557D02*
X39785713Y-46279985D01*
X39785713Y-46279985D02*
X39871427Y-46365700D01*
X39871427Y-46365700D02*
X39957142Y-46408557D01*
X39957142Y-46408557D02*
X40128570Y-46408557D01*
X40128570Y-46408557D02*
X40214285Y-46365700D01*
X40214285Y-46365700D02*
X40299999Y-46279985D01*
X40299999Y-46279985D02*
X40342856Y-46108557D01*
X40342856Y-46108557D02*
X40342856Y-45808557D01*
X40342856Y-45808557D02*
X40299999Y-45637128D01*
X40299999Y-45637128D02*
X40214285Y-45551414D01*
X40214285Y-45551414D02*
X40128570Y-45508557D01*
X39057142Y-45937128D02*
X39357142Y-45937128D01*
X39357142Y-46408557D02*
X39357142Y-45508557D01*
X39357142Y-45508557D02*
X38928570Y-45508557D01*
X38585713Y-46408557D02*
X38585713Y-45508557D01*
X37728570Y-46408557D02*
X38157142Y-46408557D01*
X38157142Y-46408557D02*
X38157142Y-45508557D01*
X37428571Y-45937128D02*
X37128571Y-45937128D01*
X36999999Y-46408557D02*
X37428571Y-46408557D01*
X37428571Y-46408557D02*
X37428571Y-45508557D01*
X37428571Y-45508557D02*
X36999999Y-45508557D01*
X35671428Y-46751414D02*
X35714285Y-46708557D01*
X35714285Y-46708557D02*
X35799999Y-46579985D01*
X35799999Y-46579985D02*
X35842857Y-46494271D01*
X35842857Y-46494271D02*
X35885714Y-46365700D01*
X35885714Y-46365700D02*
X35928571Y-46151414D01*
X35928571Y-46151414D02*
X35928571Y-45979985D01*
X35928571Y-45979985D02*
X35885714Y-45765700D01*
X35885714Y-45765700D02*
X35842857Y-45637128D01*
X35842857Y-45637128D02*
X35799999Y-45551414D01*
X35799999Y-45551414D02*
X35714285Y-45422842D01*
X35714285Y-45422842D02*
X35671428Y-45379985D01*
X35371428Y-46365700D02*
X35242857Y-46408557D01*
X35242857Y-46408557D02*
X35028571Y-46408557D01*
X35028571Y-46408557D02*
X34942857Y-46365700D01*
X34942857Y-46365700D02*
X34899999Y-46322842D01*
X34899999Y-46322842D02*
X34857142Y-46237128D01*
X34857142Y-46237128D02*
X34857142Y-46151414D01*
X34857142Y-46151414D02*
X34899999Y-46065700D01*
X34899999Y-46065700D02*
X34942857Y-46022842D01*
X34942857Y-46022842D02*
X35028571Y-45979985D01*
X35028571Y-45979985D02*
X35199999Y-45937128D01*
X35199999Y-45937128D02*
X35285714Y-45894271D01*
X35285714Y-45894271D02*
X35328571Y-45851414D01*
X35328571Y-45851414D02*
X35371428Y-45765700D01*
X35371428Y-45765700D02*
X35371428Y-45679985D01*
X35371428Y-45679985D02*
X35328571Y-45594271D01*
X35328571Y-45594271D02*
X35285714Y-45551414D01*
X35285714Y-45551414D02*
X35199999Y-45508557D01*
X35199999Y-45508557D02*
X34985714Y-45508557D01*
X34985714Y-45508557D02*
X34857142Y-45551414D01*
X34557142Y-45508557D02*
X34342856Y-46408557D01*
X34342856Y-46408557D02*
X34171428Y-45765700D01*
X34171428Y-45765700D02*
X33999999Y-46408557D01*
X33999999Y-46408557D02*
X33785714Y-45508557D01*
X32971428Y-46408557D02*
X33485714Y-46408557D01*
X33228571Y-46408557D02*
X33228571Y-45508557D01*
X33228571Y-45508557D02*
X33314285Y-45637128D01*
X33314285Y-45637128D02*
X33400000Y-45722842D01*
X33400000Y-45722842D02*
X33485714Y-45765700D01*
X32671428Y-46751414D02*
X32628571Y-46708557D01*
X32628571Y-46708557D02*
X32542857Y-46579985D01*
X32542857Y-46579985D02*
X32500000Y-46494271D01*
X32500000Y-46494271D02*
X32457142Y-46365700D01*
X32457142Y-46365700D02*
X32414285Y-46151414D01*
X32414285Y-46151414D02*
X32414285Y-45979985D01*
X32414285Y-45979985D02*
X32457142Y-45765700D01*
X32457142Y-45765700D02*
X32500000Y-45637128D01*
X32500000Y-45637128D02*
X32542857Y-45551414D01*
X32542857Y-45551414D02*
X32628571Y-45422842D01*
X32628571Y-45422842D02*
X32671428Y-45379985D01*
X44671426Y-47865700D02*
X44542855Y-47908557D01*
X44542855Y-47908557D02*
X44328569Y-47908557D01*
X44328569Y-47908557D02*
X44242855Y-47865700D01*
X44242855Y-47865700D02*
X44199997Y-47822842D01*
X44199997Y-47822842D02*
X44157140Y-47737128D01*
X44157140Y-47737128D02*
X44157140Y-47651414D01*
X44157140Y-47651414D02*
X44199997Y-47565700D01*
X44199997Y-47565700D02*
X44242855Y-47522842D01*
X44242855Y-47522842D02*
X44328569Y-47479985D01*
X44328569Y-47479985D02*
X44499997Y-47437128D01*
X44499997Y-47437128D02*
X44585712Y-47394271D01*
X44585712Y-47394271D02*
X44628569Y-47351414D01*
X44628569Y-47351414D02*
X44671426Y-47265700D01*
X44671426Y-47265700D02*
X44671426Y-47179985D01*
X44671426Y-47179985D02*
X44628569Y-47094271D01*
X44628569Y-47094271D02*
X44585712Y-47051414D01*
X44585712Y-47051414D02*
X44499997Y-47008557D01*
X44499997Y-47008557D02*
X44285712Y-47008557D01*
X44285712Y-47008557D02*
X44157140Y-47051414D01*
X43857140Y-47008557D02*
X43642854Y-47908557D01*
X43642854Y-47908557D02*
X43471426Y-47265700D01*
X43471426Y-47265700D02*
X43299997Y-47908557D01*
X43299997Y-47908557D02*
X43085712Y-47008557D01*
X39528570Y-47908557D02*
X40042856Y-47908557D01*
X39785713Y-47908557D02*
X39785713Y-47008557D01*
X39785713Y-47008557D02*
X39871427Y-47137128D01*
X39871427Y-47137128D02*
X39957142Y-47222842D01*
X39957142Y-47222842D02*
X40042856Y-47265700D01*
X36442857Y-47094271D02*
X36400000Y-47051414D01*
X36400000Y-47051414D02*
X36314286Y-47008557D01*
X36314286Y-47008557D02*
X36100000Y-47008557D01*
X36100000Y-47008557D02*
X36014286Y-47051414D01*
X36014286Y-47051414D02*
X35971428Y-47094271D01*
X35971428Y-47094271D02*
X35928571Y-47179985D01*
X35928571Y-47179985D02*
X35928571Y-47265700D01*
X35928571Y-47265700D02*
X35971428Y-47394271D01*
X35971428Y-47394271D02*
X36485714Y-47908557D01*
X36485714Y-47908557D02*
X35928571Y-47908557D01*
X32885715Y-47008557D02*
X32328572Y-47008557D01*
X32328572Y-47008557D02*
X32628572Y-47351414D01*
X32628572Y-47351414D02*
X32500001Y-47351414D01*
X32500001Y-47351414D02*
X32414287Y-47394271D01*
X32414287Y-47394271D02*
X32371429Y-47437128D01*
X32371429Y-47437128D02*
X32328572Y-47522842D01*
X32328572Y-47522842D02*
X32328572Y-47737128D01*
X32328572Y-47737128D02*
X32371429Y-47822842D01*
X32371429Y-47822842D02*
X32414287Y-47865700D01*
X32414287Y-47865700D02*
X32500001Y-47908557D01*
X32500001Y-47908557D02*
X32757144Y-47908557D01*
X32757144Y-47908557D02*
X32842858Y-47865700D01*
X32842858Y-47865700D02*
X32885715Y-47822842D01*
X44799999Y-48508557D02*
X45228571Y-48508557D01*
X45228571Y-48508557D02*
X45271428Y-48937128D01*
X45271428Y-48937128D02*
X45228571Y-48894271D01*
X45228571Y-48894271D02*
X45142857Y-48851414D01*
X45142857Y-48851414D02*
X44928571Y-48851414D01*
X44928571Y-48851414D02*
X44842857Y-48894271D01*
X44842857Y-48894271D02*
X44799999Y-48937128D01*
X44799999Y-48937128D02*
X44757142Y-49022842D01*
X44757142Y-49022842D02*
X44757142Y-49237128D01*
X44757142Y-49237128D02*
X44799999Y-49322842D01*
X44799999Y-49322842D02*
X44842857Y-49365700D01*
X44842857Y-49365700D02*
X44928571Y-49408557D01*
X44928571Y-49408557D02*
X45142857Y-49408557D01*
X45142857Y-49408557D02*
X45228571Y-49365700D01*
X45228571Y-49365700D02*
X45271428Y-49322842D01*
X44499999Y-48508557D02*
X44199999Y-49408557D01*
X44199999Y-49408557D02*
X43899999Y-48508557D01*
X41371428Y-48508557D02*
X41200000Y-48508557D01*
X41200000Y-48508557D02*
X41114285Y-48551414D01*
X41114285Y-48551414D02*
X41028571Y-48637128D01*
X41028571Y-48637128D02*
X40985714Y-48808557D01*
X40985714Y-48808557D02*
X40985714Y-49108557D01*
X40985714Y-49108557D02*
X41028571Y-49279985D01*
X41028571Y-49279985D02*
X41114285Y-49365700D01*
X41114285Y-49365700D02*
X41200000Y-49408557D01*
X41200000Y-49408557D02*
X41371428Y-49408557D01*
X41371428Y-49408557D02*
X41457143Y-49365700D01*
X41457143Y-49365700D02*
X41542857Y-49279985D01*
X41542857Y-49279985D02*
X41585714Y-49108557D01*
X41585714Y-49108557D02*
X41585714Y-48808557D01*
X41585714Y-48808557D02*
X41542857Y-48637128D01*
X41542857Y-48637128D02*
X41457143Y-48551414D01*
X41457143Y-48551414D02*
X41371428Y-48508557D01*
X40300000Y-48937128D02*
X40600000Y-48937128D01*
X40600000Y-49408557D02*
X40600000Y-48508557D01*
X40600000Y-48508557D02*
X40171428Y-48508557D01*
X39528571Y-48937128D02*
X39828571Y-48937128D01*
X39828571Y-49408557D02*
X39828571Y-48508557D01*
X39828571Y-48508557D02*
X39399999Y-48508557D01*
X37728571Y-49151414D02*
X37300000Y-49151414D01*
X37814285Y-49408557D02*
X37514285Y-48508557D01*
X37514285Y-48508557D02*
X37214285Y-49408557D01*
X36914285Y-49408557D02*
X36914285Y-48508557D01*
X36914285Y-48508557D02*
X36399999Y-49408557D01*
X36399999Y-49408557D02*
X36399999Y-48508557D01*
X35799999Y-48979985D02*
X35799999Y-49408557D01*
X36099999Y-48508557D02*
X35799999Y-48979985D01*
X35799999Y-48979985D02*
X35499999Y-48508557D01*
X33871428Y-49151414D02*
X33442857Y-49151414D01*
X33957142Y-49408557D02*
X33657142Y-48508557D01*
X33657142Y-48508557D02*
X33357142Y-49408557D01*
X33057142Y-49408557D02*
X33057142Y-48508557D01*
X33057142Y-48508557D02*
X32542856Y-49408557D01*
X32542856Y-49408557D02*
X32542856Y-48508557D01*
X31942856Y-48979985D02*
X31942856Y-49408557D01*
X32242856Y-48508557D02*
X31942856Y-48979985D01*
X31942856Y-48979985D02*
X31642856Y-48508557D01*
X44971427Y-50908557D02*
X44799998Y-50908557D01*
X44799998Y-50908557D02*
X44714284Y-50865700D01*
X44714284Y-50865700D02*
X44671427Y-50822842D01*
X44671427Y-50822842D02*
X44585712Y-50694271D01*
X44585712Y-50694271D02*
X44542855Y-50522842D01*
X44542855Y-50522842D02*
X44542855Y-50179985D01*
X44542855Y-50179985D02*
X44585712Y-50094271D01*
X44585712Y-50094271D02*
X44628570Y-50051414D01*
X44628570Y-50051414D02*
X44714284Y-50008557D01*
X44714284Y-50008557D02*
X44885712Y-50008557D01*
X44885712Y-50008557D02*
X44971427Y-50051414D01*
X44971427Y-50051414D02*
X45014284Y-50094271D01*
X45014284Y-50094271D02*
X45057141Y-50179985D01*
X45057141Y-50179985D02*
X45057141Y-50394271D01*
X45057141Y-50394271D02*
X45014284Y-50479985D01*
X45014284Y-50479985D02*
X44971427Y-50522842D01*
X44971427Y-50522842D02*
X44885712Y-50565700D01*
X44885712Y-50565700D02*
X44714284Y-50565700D01*
X44714284Y-50565700D02*
X44628570Y-50522842D01*
X44628570Y-50522842D02*
X44585712Y-50479985D01*
X44585712Y-50479985D02*
X44542855Y-50394271D01*
X44285712Y-50008557D02*
X43985712Y-50908557D01*
X43985712Y-50908557D02*
X43685712Y-50008557D01*
X41157141Y-50008557D02*
X40985713Y-50008557D01*
X40985713Y-50008557D02*
X40899998Y-50051414D01*
X40899998Y-50051414D02*
X40814284Y-50137128D01*
X40814284Y-50137128D02*
X40771427Y-50308557D01*
X40771427Y-50308557D02*
X40771427Y-50608557D01*
X40771427Y-50608557D02*
X40814284Y-50779985D01*
X40814284Y-50779985D02*
X40899998Y-50865700D01*
X40899998Y-50865700D02*
X40985713Y-50908557D01*
X40985713Y-50908557D02*
X41157141Y-50908557D01*
X41157141Y-50908557D02*
X41242856Y-50865700D01*
X41242856Y-50865700D02*
X41328570Y-50779985D01*
X41328570Y-50779985D02*
X41371427Y-50608557D01*
X41371427Y-50608557D02*
X41371427Y-50308557D01*
X41371427Y-50308557D02*
X41328570Y-50137128D01*
X41328570Y-50137128D02*
X41242856Y-50051414D01*
X41242856Y-50051414D02*
X41157141Y-50008557D01*
X40385713Y-50908557D02*
X40385713Y-50008557D01*
X40385713Y-50008557D02*
X39871427Y-50908557D01*
X39871427Y-50908557D02*
X39871427Y-50008557D01*
X37214285Y-50008557D02*
X37042857Y-50008557D01*
X37042857Y-50008557D02*
X36957142Y-50051414D01*
X36957142Y-50051414D02*
X36871428Y-50137128D01*
X36871428Y-50137128D02*
X36828571Y-50308557D01*
X36828571Y-50308557D02*
X36828571Y-50608557D01*
X36828571Y-50608557D02*
X36871428Y-50779985D01*
X36871428Y-50779985D02*
X36957142Y-50865700D01*
X36957142Y-50865700D02*
X37042857Y-50908557D01*
X37042857Y-50908557D02*
X37214285Y-50908557D01*
X37214285Y-50908557D02*
X37300000Y-50865700D01*
X37300000Y-50865700D02*
X37385714Y-50779985D01*
X37385714Y-50779985D02*
X37428571Y-50608557D01*
X37428571Y-50608557D02*
X37428571Y-50308557D01*
X37428571Y-50308557D02*
X37385714Y-50137128D01*
X37385714Y-50137128D02*
X37300000Y-50051414D01*
X37300000Y-50051414D02*
X37214285Y-50008557D01*
X36442857Y-50908557D02*
X36442857Y-50008557D01*
X36442857Y-50008557D02*
X35928571Y-50908557D01*
X35928571Y-50908557D02*
X35928571Y-50008557D01*
X33271429Y-50008557D02*
X33100001Y-50008557D01*
X33100001Y-50008557D02*
X33014286Y-50051414D01*
X33014286Y-50051414D02*
X32928572Y-50137128D01*
X32928572Y-50137128D02*
X32885715Y-50308557D01*
X32885715Y-50308557D02*
X32885715Y-50608557D01*
X32885715Y-50608557D02*
X32928572Y-50779985D01*
X32928572Y-50779985D02*
X33014286Y-50865700D01*
X33014286Y-50865700D02*
X33100001Y-50908557D01*
X33100001Y-50908557D02*
X33271429Y-50908557D01*
X33271429Y-50908557D02*
X33357144Y-50865700D01*
X33357144Y-50865700D02*
X33442858Y-50779985D01*
X33442858Y-50779985D02*
X33485715Y-50608557D01*
X33485715Y-50608557D02*
X33485715Y-50308557D01*
X33485715Y-50308557D02*
X33442858Y-50137128D01*
X33442858Y-50137128D02*
X33357144Y-50051414D01*
X33357144Y-50051414D02*
X33271429Y-50008557D01*
X32500001Y-50908557D02*
X32500001Y-50008557D01*
X32500001Y-50008557D02*
X31985715Y-50908557D01*
X31985715Y-50908557D02*
X31985715Y-50008557D01*
X44928570Y-52408557D02*
X45442856Y-52408557D01*
X45185713Y-52408557D02*
X45185713Y-51508557D01*
X45185713Y-51508557D02*
X45271427Y-51637128D01*
X45271427Y-51637128D02*
X45357142Y-51722842D01*
X45357142Y-51722842D02*
X45442856Y-51765700D01*
X44585713Y-51594271D02*
X44542856Y-51551414D01*
X44542856Y-51551414D02*
X44457142Y-51508557D01*
X44457142Y-51508557D02*
X44242856Y-51508557D01*
X44242856Y-51508557D02*
X44157142Y-51551414D01*
X44157142Y-51551414D02*
X44114284Y-51594271D01*
X44114284Y-51594271D02*
X44071427Y-51679985D01*
X44071427Y-51679985D02*
X44071427Y-51765700D01*
X44071427Y-51765700D02*
X44114284Y-51894271D01*
X44114284Y-51894271D02*
X44628570Y-52408557D01*
X44628570Y-52408557D02*
X44071427Y-52408557D01*
X43814284Y-51508557D02*
X43514284Y-52408557D01*
X43514284Y-52408557D02*
X43214284Y-51508557D01*
X41371427Y-51508557D02*
X41199999Y-51508557D01*
X41199999Y-51508557D02*
X41114284Y-51551414D01*
X41114284Y-51551414D02*
X41028570Y-51637128D01*
X41028570Y-51637128D02*
X40985713Y-51808557D01*
X40985713Y-51808557D02*
X40985713Y-52108557D01*
X40985713Y-52108557D02*
X41028570Y-52279985D01*
X41028570Y-52279985D02*
X41114284Y-52365700D01*
X41114284Y-52365700D02*
X41199999Y-52408557D01*
X41199999Y-52408557D02*
X41371427Y-52408557D01*
X41371427Y-52408557D02*
X41457142Y-52365700D01*
X41457142Y-52365700D02*
X41542856Y-52279985D01*
X41542856Y-52279985D02*
X41585713Y-52108557D01*
X41585713Y-52108557D02*
X41585713Y-51808557D01*
X41585713Y-51808557D02*
X41542856Y-51637128D01*
X41542856Y-51637128D02*
X41457142Y-51551414D01*
X41457142Y-51551414D02*
X41371427Y-51508557D01*
X40599999Y-52408557D02*
X40599999Y-51508557D01*
X40599999Y-51508557D02*
X40085713Y-52408557D01*
X40085713Y-52408557D02*
X40085713Y-51508557D01*
X37428571Y-51508557D02*
X37257143Y-51508557D01*
X37257143Y-51508557D02*
X37171428Y-51551414D01*
X37171428Y-51551414D02*
X37085714Y-51637128D01*
X37085714Y-51637128D02*
X37042857Y-51808557D01*
X37042857Y-51808557D02*
X37042857Y-52108557D01*
X37042857Y-52108557D02*
X37085714Y-52279985D01*
X37085714Y-52279985D02*
X37171428Y-52365700D01*
X37171428Y-52365700D02*
X37257143Y-52408557D01*
X37257143Y-52408557D02*
X37428571Y-52408557D01*
X37428571Y-52408557D02*
X37514286Y-52365700D01*
X37514286Y-52365700D02*
X37600000Y-52279985D01*
X37600000Y-52279985D02*
X37642857Y-52108557D01*
X37642857Y-52108557D02*
X37642857Y-51808557D01*
X37642857Y-51808557D02*
X37600000Y-51637128D01*
X37600000Y-51637128D02*
X37514286Y-51551414D01*
X37514286Y-51551414D02*
X37428571Y-51508557D01*
X36657143Y-52408557D02*
X36657143Y-51508557D01*
X36657143Y-51508557D02*
X36142857Y-52408557D01*
X36142857Y-52408557D02*
X36142857Y-51508557D01*
X33485715Y-51508557D02*
X33314287Y-51508557D01*
X33314287Y-51508557D02*
X33228572Y-51551414D01*
X33228572Y-51551414D02*
X33142858Y-51637128D01*
X33142858Y-51637128D02*
X33100001Y-51808557D01*
X33100001Y-51808557D02*
X33100001Y-52108557D01*
X33100001Y-52108557D02*
X33142858Y-52279985D01*
X33142858Y-52279985D02*
X33228572Y-52365700D01*
X33228572Y-52365700D02*
X33314287Y-52408557D01*
X33314287Y-52408557D02*
X33485715Y-52408557D01*
X33485715Y-52408557D02*
X33571430Y-52365700D01*
X33571430Y-52365700D02*
X33657144Y-52279985D01*
X33657144Y-52279985D02*
X33700001Y-52108557D01*
X33700001Y-52108557D02*
X33700001Y-51808557D01*
X33700001Y-51808557D02*
X33657144Y-51637128D01*
X33657144Y-51637128D02*
X33571430Y-51551414D01*
X33571430Y-51551414D02*
X33485715Y-51508557D01*
X32414287Y-51937128D02*
X32714287Y-51937128D01*
X32714287Y-52408557D02*
X32714287Y-51508557D01*
X32714287Y-51508557D02*
X32285715Y-51508557D01*
X31642858Y-51937128D02*
X31942858Y-51937128D01*
X31942858Y-52408557D02*
X31942858Y-51508557D01*
X31942858Y-51508557D02*
X31514286Y-51508557D01*
X44885713Y-53908557D02*
X45399999Y-53908557D01*
X45142856Y-53908557D02*
X45142856Y-53008557D01*
X45142856Y-53008557D02*
X45228570Y-53137128D01*
X45228570Y-53137128D02*
X45314285Y-53222842D01*
X45314285Y-53222842D02*
X45399999Y-53265700D01*
X44071427Y-53008557D02*
X44499999Y-53008557D01*
X44499999Y-53008557D02*
X44542856Y-53437128D01*
X44542856Y-53437128D02*
X44499999Y-53394271D01*
X44499999Y-53394271D02*
X44414285Y-53351414D01*
X44414285Y-53351414D02*
X44199999Y-53351414D01*
X44199999Y-53351414D02*
X44114285Y-53394271D01*
X44114285Y-53394271D02*
X44071427Y-53437128D01*
X44071427Y-53437128D02*
X44028570Y-53522842D01*
X44028570Y-53522842D02*
X44028570Y-53737128D01*
X44028570Y-53737128D02*
X44071427Y-53822842D01*
X44071427Y-53822842D02*
X44114285Y-53865700D01*
X44114285Y-53865700D02*
X44199999Y-53908557D01*
X44199999Y-53908557D02*
X44414285Y-53908557D01*
X44414285Y-53908557D02*
X44499999Y-53865700D01*
X44499999Y-53865700D02*
X44542856Y-53822842D01*
X43771427Y-53008557D02*
X43471427Y-53908557D01*
X43471427Y-53908557D02*
X43171427Y-53008557D01*
X41328570Y-53008557D02*
X41157142Y-53008557D01*
X41157142Y-53008557D02*
X41071427Y-53051414D01*
X41071427Y-53051414D02*
X40985713Y-53137128D01*
X40985713Y-53137128D02*
X40942856Y-53308557D01*
X40942856Y-53308557D02*
X40942856Y-53608557D01*
X40942856Y-53608557D02*
X40985713Y-53779985D01*
X40985713Y-53779985D02*
X41071427Y-53865700D01*
X41071427Y-53865700D02*
X41157142Y-53908557D01*
X41157142Y-53908557D02*
X41328570Y-53908557D01*
X41328570Y-53908557D02*
X41414285Y-53865700D01*
X41414285Y-53865700D02*
X41499999Y-53779985D01*
X41499999Y-53779985D02*
X41542856Y-53608557D01*
X41542856Y-53608557D02*
X41542856Y-53308557D01*
X41542856Y-53308557D02*
X41499999Y-53137128D01*
X41499999Y-53137128D02*
X41414285Y-53051414D01*
X41414285Y-53051414D02*
X41328570Y-53008557D01*
X40557142Y-53908557D02*
X40557142Y-53008557D01*
X40557142Y-53008557D02*
X40042856Y-53908557D01*
X40042856Y-53908557D02*
X40042856Y-53008557D01*
X37385714Y-53008557D02*
X37214286Y-53008557D01*
X37214286Y-53008557D02*
X37128571Y-53051414D01*
X37128571Y-53051414D02*
X37042857Y-53137128D01*
X37042857Y-53137128D02*
X37000000Y-53308557D01*
X37000000Y-53308557D02*
X37000000Y-53608557D01*
X37000000Y-53608557D02*
X37042857Y-53779985D01*
X37042857Y-53779985D02*
X37128571Y-53865700D01*
X37128571Y-53865700D02*
X37214286Y-53908557D01*
X37214286Y-53908557D02*
X37385714Y-53908557D01*
X37385714Y-53908557D02*
X37471429Y-53865700D01*
X37471429Y-53865700D02*
X37557143Y-53779985D01*
X37557143Y-53779985D02*
X37600000Y-53608557D01*
X37600000Y-53608557D02*
X37600000Y-53308557D01*
X37600000Y-53308557D02*
X37557143Y-53137128D01*
X37557143Y-53137128D02*
X37471429Y-53051414D01*
X37471429Y-53051414D02*
X37385714Y-53008557D01*
X36314286Y-53437128D02*
X36614286Y-53437128D01*
X36614286Y-53908557D02*
X36614286Y-53008557D01*
X36614286Y-53008557D02*
X36185714Y-53008557D01*
X35542857Y-53437128D02*
X35842857Y-53437128D01*
X35842857Y-53908557D02*
X35842857Y-53008557D01*
X35842857Y-53008557D02*
X35414285Y-53008557D01*
X33528571Y-53008557D02*
X33357143Y-53008557D01*
X33357143Y-53008557D02*
X33271428Y-53051414D01*
X33271428Y-53051414D02*
X33185714Y-53137128D01*
X33185714Y-53137128D02*
X33142857Y-53308557D01*
X33142857Y-53308557D02*
X33142857Y-53608557D01*
X33142857Y-53608557D02*
X33185714Y-53779985D01*
X33185714Y-53779985D02*
X33271428Y-53865700D01*
X33271428Y-53865700D02*
X33357143Y-53908557D01*
X33357143Y-53908557D02*
X33528571Y-53908557D01*
X33528571Y-53908557D02*
X33614286Y-53865700D01*
X33614286Y-53865700D02*
X33700000Y-53779985D01*
X33700000Y-53779985D02*
X33742857Y-53608557D01*
X33742857Y-53608557D02*
X33742857Y-53308557D01*
X33742857Y-53308557D02*
X33700000Y-53137128D01*
X33700000Y-53137128D02*
X33614286Y-53051414D01*
X33614286Y-53051414D02*
X33528571Y-53008557D01*
X32457143Y-53437128D02*
X32757143Y-53437128D01*
X32757143Y-53908557D02*
X32757143Y-53008557D01*
X32757143Y-53008557D02*
X32328571Y-53008557D01*
X31685714Y-53437128D02*
X31985714Y-53437128D01*
X31985714Y-53908557D02*
X31985714Y-53008557D01*
X31985714Y-53008557D02*
X31557142Y-53008557D01*
X45099999Y-54594271D02*
X45057142Y-54551414D01*
X45057142Y-54551414D02*
X44971428Y-54508557D01*
X44971428Y-54508557D02*
X44757142Y-54508557D01*
X44757142Y-54508557D02*
X44671428Y-54551414D01*
X44671428Y-54551414D02*
X44628570Y-54594271D01*
X44628570Y-54594271D02*
X44585713Y-54679985D01*
X44585713Y-54679985D02*
X44585713Y-54765700D01*
X44585713Y-54765700D02*
X44628570Y-54894271D01*
X44628570Y-54894271D02*
X45142856Y-55408557D01*
X45142856Y-55408557D02*
X44585713Y-55408557D01*
X44028570Y-54508557D02*
X43942856Y-54508557D01*
X43942856Y-54508557D02*
X43857142Y-54551414D01*
X43857142Y-54551414D02*
X43814285Y-54594271D01*
X43814285Y-54594271D02*
X43771427Y-54679985D01*
X43771427Y-54679985D02*
X43728570Y-54851414D01*
X43728570Y-54851414D02*
X43728570Y-55065700D01*
X43728570Y-55065700D02*
X43771427Y-55237128D01*
X43771427Y-55237128D02*
X43814285Y-55322842D01*
X43814285Y-55322842D02*
X43857142Y-55365700D01*
X43857142Y-55365700D02*
X43942856Y-55408557D01*
X43942856Y-55408557D02*
X44028570Y-55408557D01*
X44028570Y-55408557D02*
X44114285Y-55365700D01*
X44114285Y-55365700D02*
X44157142Y-55322842D01*
X44157142Y-55322842D02*
X44199999Y-55237128D01*
X44199999Y-55237128D02*
X44242856Y-55065700D01*
X44242856Y-55065700D02*
X44242856Y-54851414D01*
X44242856Y-54851414D02*
X44199999Y-54679985D01*
X44199999Y-54679985D02*
X44157142Y-54594271D01*
X44157142Y-54594271D02*
X44114285Y-54551414D01*
X44114285Y-54551414D02*
X44028570Y-54508557D01*
X43471427Y-54508557D02*
X43171427Y-55408557D01*
X43171427Y-55408557D02*
X42871427Y-54508557D01*
X41028570Y-54508557D02*
X40857142Y-54508557D01*
X40857142Y-54508557D02*
X40771427Y-54551414D01*
X40771427Y-54551414D02*
X40685713Y-54637128D01*
X40685713Y-54637128D02*
X40642856Y-54808557D01*
X40642856Y-54808557D02*
X40642856Y-55108557D01*
X40642856Y-55108557D02*
X40685713Y-55279985D01*
X40685713Y-55279985D02*
X40771427Y-55365700D01*
X40771427Y-55365700D02*
X40857142Y-55408557D01*
X40857142Y-55408557D02*
X41028570Y-55408557D01*
X41028570Y-55408557D02*
X41114285Y-55365700D01*
X41114285Y-55365700D02*
X41199999Y-55279985D01*
X41199999Y-55279985D02*
X41242856Y-55108557D01*
X41242856Y-55108557D02*
X41242856Y-54808557D01*
X41242856Y-54808557D02*
X41199999Y-54637128D01*
X41199999Y-54637128D02*
X41114285Y-54551414D01*
X41114285Y-54551414D02*
X41028570Y-54508557D01*
X40257142Y-55408557D02*
X40257142Y-54508557D01*
X40257142Y-54508557D02*
X39742856Y-55408557D01*
X39742856Y-55408557D02*
X39742856Y-54508557D01*
X37085714Y-54508557D02*
X36914286Y-54508557D01*
X36914286Y-54508557D02*
X36828571Y-54551414D01*
X36828571Y-54551414D02*
X36742857Y-54637128D01*
X36742857Y-54637128D02*
X36700000Y-54808557D01*
X36700000Y-54808557D02*
X36700000Y-55108557D01*
X36700000Y-55108557D02*
X36742857Y-55279985D01*
X36742857Y-55279985D02*
X36828571Y-55365700D01*
X36828571Y-55365700D02*
X36914286Y-55408557D01*
X36914286Y-55408557D02*
X37085714Y-55408557D01*
X37085714Y-55408557D02*
X37171429Y-55365700D01*
X37171429Y-55365700D02*
X37257143Y-55279985D01*
X37257143Y-55279985D02*
X37300000Y-55108557D01*
X37300000Y-55108557D02*
X37300000Y-54808557D01*
X37300000Y-54808557D02*
X37257143Y-54637128D01*
X37257143Y-54637128D02*
X37171429Y-54551414D01*
X37171429Y-54551414D02*
X37085714Y-54508557D01*
X36014286Y-54937128D02*
X36314286Y-54937128D01*
X36314286Y-55408557D02*
X36314286Y-54508557D01*
X36314286Y-54508557D02*
X35885714Y-54508557D01*
X35242857Y-54937128D02*
X35542857Y-54937128D01*
X35542857Y-55408557D02*
X35542857Y-54508557D01*
X35542857Y-54508557D02*
X35114285Y-54508557D01*
X33228571Y-54508557D02*
X33057143Y-54508557D01*
X33057143Y-54508557D02*
X32971428Y-54551414D01*
X32971428Y-54551414D02*
X32885714Y-54637128D01*
X32885714Y-54637128D02*
X32842857Y-54808557D01*
X32842857Y-54808557D02*
X32842857Y-55108557D01*
X32842857Y-55108557D02*
X32885714Y-55279985D01*
X32885714Y-55279985D02*
X32971428Y-55365700D01*
X32971428Y-55365700D02*
X33057143Y-55408557D01*
X33057143Y-55408557D02*
X33228571Y-55408557D01*
X33228571Y-55408557D02*
X33314286Y-55365700D01*
X33314286Y-55365700D02*
X33400000Y-55279985D01*
X33400000Y-55279985D02*
X33442857Y-55108557D01*
X33442857Y-55108557D02*
X33442857Y-54808557D01*
X33442857Y-54808557D02*
X33400000Y-54637128D01*
X33400000Y-54637128D02*
X33314286Y-54551414D01*
X33314286Y-54551414D02*
X33228571Y-54508557D01*
X32457143Y-55408557D02*
X32457143Y-54508557D01*
X32457143Y-54508557D02*
X31942857Y-55408557D01*
X31942857Y-55408557D02*
X31942857Y-54508557D01*
M02*
