M48
; DRILL file KiCad 10.0.3 date 2026-07-28T11:55:55
; FORMAT={-:-/ absolute / metric / decimal}
; #@! TF.CreationDate,2026-07-28T11:55:55-07:00
; #@! TF.GenerationSoftware,Kicad,Pcbnew,10.0.3
; #@! TF.FileFunction,MixedPlating,1,2
FMAT,2
METRIC
; #@! TA.AperFunction,Plated,PTH,ViaDrill
T1C0.300
; #@! TA.AperFunction,Plated,PTH,ComponentDrill
T2C0.600
; #@! TA.AperFunction,Plated,PTH,ComponentDrill
T3C1.100
; #@! TA.AperFunction,Plated,PTH,ComponentDrill
T4C1.600
; #@! TA.AperFunction,NonPlated,NPTH,ComponentDrill
T5C0.650
%
G90
G05
T1
X13.2Y-45.8
X14.0Y-45.8
X14.4Y-37.1
X14.7Y-46.83
X14.8Y-39.2
X14.8Y-45.8
X15.2Y-37.1
X15.5Y-46.83
X15.6Y-39.2
X15.6Y-45.8
X15.958Y-33.518
X16.0Y-37.1
X16.079Y-44.354
X16.578Y-41.983
X16.8Y-37.1
X16.85Y-33.518
X17.6Y-37.1
X17.75Y-45.8
X17.83Y-39.2
X18.878Y-45.814
X18.878Y-48.537
X19.75Y-49.4
X20.4Y-48.83
X21.05Y-47.2
X21.05Y-49.4
X21.939Y-39.081
X22.0Y-34.8
X22.0Y-50.746
X22.254Y-40.11
X23.2Y-34.8
X24.24Y-51.0
X24.3Y-48.13
X24.4Y-34.8
X27.75Y-53.813
X28.488Y-47.736
X29.0Y-32.108
X29.85Y-54.215
X31.15Y-50.768
X36.689Y-28.59
X38.532Y-28.837
X43.108Y-28.338
X45.6Y-30.8
X47.7Y-56.475
X50.338Y-31.0
T3
X18.13Y-29.15
X20.67Y-29.15
T4
X52.2Y-38.42
X52.2Y-43.5
T5
X16.55Y-39.62
X16.55Y-45.4
T2
X13.27Y-38.19G85X12.47Y-38.19
G05
X13.27Y-46.83G85X12.47Y-46.83
G05
X17.6Y-38.19G85X16.5Y-38.19
G05
X17.6Y-46.83G85X16.5Y-46.83
G05
M30
