%TF.GenerationSoftware,KiCad,Pcbnew,10.0.3*%
%TF.CreationDate,2026-07-28T11:55:55-07:00*%
%TF.ProjectId,pd-trigger,70642d74-7269-4676-9765-722e6b696361,rev?*%
%TF.SameCoordinates,Original*%
%TF.FileFunction,Legend,Top*%
%TF.FilePolarity,Positive*%
%FSLAX46Y46*%
G04 Gerber Fmt 4.6, Leading zero omitted, Abs format (unit mm)*
G04 Created by KiCad (PCBNEW 10.0.3) date 2026-07-28 11:55:55*
%MOMM*%
%LPD*%
G01*
G04 APERTURE LIST*
%ADD10C,0.150000*%
%ADD11C,0.250000*%
%ADD12C,0.060000*%
%ADD13C,0.000000*%
%ADD14C,0.080000*%
%ADD15C,0.200000*%
%ADD16C,0.130000*%
G04 APERTURE END LIST*
D10*
X12409523Y-28833723D02*
X12790476Y-28833723D01*
X12333333Y-29062295D02*
X12600000Y-28262295D01*
X12600000Y-28262295D02*
X12866666Y-29062295D01*
X13133333Y-28262295D02*
X13133333Y-28909914D01*
X13133333Y-28909914D02*
X13171428Y-28986104D01*
X13171428Y-28986104D02*
X13209523Y-29024200D01*
X13209523Y-29024200D02*
X13285714Y-29062295D01*
X13285714Y-29062295D02*
X13438095Y-29062295D01*
X13438095Y-29062295D02*
X13514285Y-29024200D01*
X13514285Y-29024200D02*
X13552380Y-28986104D01*
X13552380Y-28986104D02*
X13590476Y-28909914D01*
X13590476Y-28909914D02*
X13590476Y-28262295D01*
X13895237Y-28262295D02*
X14428571Y-29062295D01*
X14428571Y-28262295D02*
X13895237Y-29062295D01*
X11799999Y-30362295D02*
X11342856Y-30362295D01*
X11571428Y-30362295D02*
X11571428Y-29562295D01*
X11571428Y-29562295D02*
X11495237Y-29676580D01*
X11495237Y-29676580D02*
X11419047Y-29752771D01*
X11419047Y-29752771D02*
X11342856Y-29790866D01*
X12104761Y-30133723D02*
X12485714Y-30133723D01*
X12028571Y-30362295D02*
X12295238Y-29562295D01*
X12295238Y-29562295D02*
X12561904Y-30362295D01*
X13438095Y-30362295D02*
X13438095Y-29562295D01*
X13438095Y-29562295D02*
X13704761Y-30133723D01*
X13704761Y-30133723D02*
X13971428Y-29562295D01*
X13971428Y-29562295D02*
X13971428Y-30362295D01*
X14314285Y-30133723D02*
X14695238Y-30133723D01*
X14238095Y-30362295D02*
X14504762Y-29562295D01*
X14504762Y-29562295D02*
X14771428Y-30362295D01*
X14961904Y-29562295D02*
X15495238Y-30362295D01*
X15495238Y-29562295D02*
X14961904Y-30362295D01*
X9995238Y-51662295D02*
X9995238Y-50862295D01*
X9995238Y-50862295D02*
X10300000Y-50862295D01*
X10300000Y-50862295D02*
X10376190Y-50900390D01*
X10376190Y-50900390D02*
X10414285Y-50938485D01*
X10414285Y-50938485D02*
X10452381Y-51014676D01*
X10452381Y-51014676D02*
X10452381Y-51128961D01*
X10452381Y-51128961D02*
X10414285Y-51205152D01*
X10414285Y-51205152D02*
X10376190Y-51243247D01*
X10376190Y-51243247D02*
X10300000Y-51281342D01*
X10300000Y-51281342D02*
X9995238Y-51281342D01*
X10795238Y-51662295D02*
X10795238Y-50862295D01*
X10795238Y-50862295D02*
X10985714Y-50862295D01*
X10985714Y-50862295D02*
X11100000Y-50900390D01*
X11100000Y-50900390D02*
X11176190Y-50976580D01*
X11176190Y-50976580D02*
X11214285Y-51052771D01*
X11214285Y-51052771D02*
X11252381Y-51205152D01*
X11252381Y-51205152D02*
X11252381Y-51319438D01*
X11252381Y-51319438D02*
X11214285Y-51471819D01*
X11214285Y-51471819D02*
X11176190Y-51548009D01*
X11176190Y-51548009D02*
X11100000Y-51624200D01*
X11100000Y-51624200D02*
X10985714Y-51662295D01*
X10985714Y-51662295D02*
X10795238Y-51662295D01*
X12166666Y-51624200D02*
X12280952Y-51662295D01*
X12280952Y-51662295D02*
X12471428Y-51662295D01*
X12471428Y-51662295D02*
X12547619Y-51624200D01*
X12547619Y-51624200D02*
X12585714Y-51586104D01*
X12585714Y-51586104D02*
X12623809Y-51509914D01*
X12623809Y-51509914D02*
X12623809Y-51433723D01*
X12623809Y-51433723D02*
X12585714Y-51357533D01*
X12585714Y-51357533D02*
X12547619Y-51319438D01*
X12547619Y-51319438D02*
X12471428Y-51281342D01*
X12471428Y-51281342D02*
X12319047Y-51243247D01*
X12319047Y-51243247D02*
X12242857Y-51205152D01*
X12242857Y-51205152D02*
X12204762Y-51167057D01*
X12204762Y-51167057D02*
X12166666Y-51090866D01*
X12166666Y-51090866D02*
X12166666Y-51014676D01*
X12166666Y-51014676D02*
X12204762Y-50938485D01*
X12204762Y-50938485D02*
X12242857Y-50900390D01*
X12242857Y-50900390D02*
X12319047Y-50862295D01*
X12319047Y-50862295D02*
X12509524Y-50862295D01*
X12509524Y-50862295D02*
X12623809Y-50900390D01*
X13423810Y-51662295D02*
X13157143Y-51281342D01*
X12966667Y-51662295D02*
X12966667Y-50862295D01*
X12966667Y-50862295D02*
X13271429Y-50862295D01*
X13271429Y-50862295D02*
X13347619Y-50900390D01*
X13347619Y-50900390D02*
X13385714Y-50938485D01*
X13385714Y-50938485D02*
X13423810Y-51014676D01*
X13423810Y-51014676D02*
X13423810Y-51128961D01*
X13423810Y-51128961D02*
X13385714Y-51205152D01*
X13385714Y-51205152D02*
X13347619Y-51243247D01*
X13347619Y-51243247D02*
X13271429Y-51281342D01*
X13271429Y-51281342D02*
X12966667Y-51281342D01*
X14223810Y-51586104D02*
X14185714Y-51624200D01*
X14185714Y-51624200D02*
X14071429Y-51662295D01*
X14071429Y-51662295D02*
X13995238Y-51662295D01*
X13995238Y-51662295D02*
X13880952Y-51624200D01*
X13880952Y-51624200D02*
X13804762Y-51548009D01*
X13804762Y-51548009D02*
X13766667Y-51471819D01*
X13766667Y-51471819D02*
X13728571Y-51319438D01*
X13728571Y-51319438D02*
X13728571Y-51205152D01*
X13728571Y-51205152D02*
X13766667Y-51052771D01*
X13766667Y-51052771D02*
X13804762Y-50976580D01*
X13804762Y-50976580D02*
X13880952Y-50900390D01*
X13880952Y-50900390D02*
X13995238Y-50862295D01*
X13995238Y-50862295D02*
X14071429Y-50862295D01*
X14071429Y-50862295D02*
X14185714Y-50900390D01*
X14185714Y-50900390D02*
X14223810Y-50938485D01*
X15328572Y-50862295D02*
X15480953Y-50862295D01*
X15480953Y-50862295D02*
X15557143Y-50900390D01*
X15557143Y-50900390D02*
X15633334Y-50976580D01*
X15633334Y-50976580D02*
X15671429Y-51128961D01*
X15671429Y-51128961D02*
X15671429Y-51395628D01*
X15671429Y-51395628D02*
X15633334Y-51548009D01*
X15633334Y-51548009D02*
X15557143Y-51624200D01*
X15557143Y-51624200D02*
X15480953Y-51662295D01*
X15480953Y-51662295D02*
X15328572Y-51662295D01*
X15328572Y-51662295D02*
X15252381Y-51624200D01*
X15252381Y-51624200D02*
X15176191Y-51548009D01*
X15176191Y-51548009D02*
X15138095Y-51395628D01*
X15138095Y-51395628D02*
X15138095Y-51128961D01*
X15138095Y-51128961D02*
X15176191Y-50976580D01*
X15176191Y-50976580D02*
X15252381Y-50900390D01*
X15252381Y-50900390D02*
X15328572Y-50862295D01*
X16014286Y-51662295D02*
X16014286Y-50862295D01*
X16014286Y-50862295D02*
X16471429Y-51662295D01*
X16471429Y-51662295D02*
X16471429Y-50862295D01*
X17233333Y-51662295D02*
X16852381Y-51662295D01*
X16852381Y-51662295D02*
X16852381Y-50862295D01*
X17652381Y-51281342D02*
X17652381Y-51662295D01*
X17385714Y-50862295D02*
X17652381Y-51281342D01*
X17652381Y-51281342D02*
X17919047Y-50862295D01*
X38752381Y-42362295D02*
X38752381Y-41562295D01*
X38752381Y-41562295D02*
X39057143Y-41562295D01*
X39057143Y-41562295D02*
X39133333Y-41600390D01*
X39133333Y-41600390D02*
X39171428Y-41638485D01*
X39171428Y-41638485D02*
X39209524Y-41714676D01*
X39209524Y-41714676D02*
X39209524Y-41828961D01*
X39209524Y-41828961D02*
X39171428Y-41905152D01*
X39171428Y-41905152D02*
X39133333Y-41943247D01*
X39133333Y-41943247D02*
X39057143Y-41981342D01*
X39057143Y-41981342D02*
X38752381Y-41981342D01*
X40009524Y-42362295D02*
X39742857Y-41981342D01*
X39552381Y-42362295D02*
X39552381Y-41562295D01*
X39552381Y-41562295D02*
X39857143Y-41562295D01*
X39857143Y-41562295D02*
X39933333Y-41600390D01*
X39933333Y-41600390D02*
X39971428Y-41638485D01*
X39971428Y-41638485D02*
X40009524Y-41714676D01*
X40009524Y-41714676D02*
X40009524Y-41828961D01*
X40009524Y-41828961D02*
X39971428Y-41905152D01*
X39971428Y-41905152D02*
X39933333Y-41943247D01*
X39933333Y-41943247D02*
X39857143Y-41981342D01*
X39857143Y-41981342D02*
X39552381Y-41981342D01*
X40504762Y-41562295D02*
X40657143Y-41562295D01*
X40657143Y-41562295D02*
X40733333Y-41600390D01*
X40733333Y-41600390D02*
X40809524Y-41676580D01*
X40809524Y-41676580D02*
X40847619Y-41828961D01*
X40847619Y-41828961D02*
X40847619Y-42095628D01*
X40847619Y-42095628D02*
X40809524Y-42248009D01*
X40809524Y-42248009D02*
X40733333Y-42324200D01*
X40733333Y-42324200D02*
X40657143Y-42362295D01*
X40657143Y-42362295D02*
X40504762Y-42362295D01*
X40504762Y-42362295D02*
X40428571Y-42324200D01*
X40428571Y-42324200D02*
X40352381Y-42248009D01*
X40352381Y-42248009D02*
X40314285Y-42095628D01*
X40314285Y-42095628D02*
X40314285Y-41828961D01*
X40314285Y-41828961D02*
X40352381Y-41676580D01*
X40352381Y-41676580D02*
X40428571Y-41600390D01*
X40428571Y-41600390D02*
X40504762Y-41562295D01*
X41457142Y-41943247D02*
X41190476Y-41943247D01*
X41190476Y-42362295D02*
X41190476Y-41562295D01*
X41190476Y-41562295D02*
X41571428Y-41562295D01*
X41876190Y-42362295D02*
X41876190Y-41562295D01*
X42638094Y-42362295D02*
X42257142Y-42362295D01*
X42257142Y-42362295D02*
X42257142Y-41562295D01*
X42904761Y-41943247D02*
X43171427Y-41943247D01*
X43285713Y-42362295D02*
X42904761Y-42362295D01*
X42904761Y-42362295D02*
X42904761Y-41562295D01*
X42904761Y-41562295D02*
X43285713Y-41562295D01*
X38199999Y-43624200D02*
X38314285Y-43662295D01*
X38314285Y-43662295D02*
X38504761Y-43662295D01*
X38504761Y-43662295D02*
X38580952Y-43624200D01*
X38580952Y-43624200D02*
X38619047Y-43586104D01*
X38619047Y-43586104D02*
X38657142Y-43509914D01*
X38657142Y-43509914D02*
X38657142Y-43433723D01*
X38657142Y-43433723D02*
X38619047Y-43357533D01*
X38619047Y-43357533D02*
X38580952Y-43319438D01*
X38580952Y-43319438D02*
X38504761Y-43281342D01*
X38504761Y-43281342D02*
X38352380Y-43243247D01*
X38352380Y-43243247D02*
X38276190Y-43205152D01*
X38276190Y-43205152D02*
X38238095Y-43167057D01*
X38238095Y-43167057D02*
X38199999Y-43090866D01*
X38199999Y-43090866D02*
X38199999Y-43014676D01*
X38199999Y-43014676D02*
X38238095Y-42938485D01*
X38238095Y-42938485D02*
X38276190Y-42900390D01*
X38276190Y-42900390D02*
X38352380Y-42862295D01*
X38352380Y-42862295D02*
X38542857Y-42862295D01*
X38542857Y-42862295D02*
X38657142Y-42900390D01*
X39000000Y-43243247D02*
X39266666Y-43243247D01*
X39380952Y-43662295D02*
X39000000Y-43662295D01*
X39000000Y-43662295D02*
X39000000Y-42862295D01*
X39000000Y-42862295D02*
X39380952Y-42862295D01*
X39723810Y-43243247D02*
X39990476Y-43243247D01*
X40104762Y-43662295D02*
X39723810Y-43662295D01*
X39723810Y-43662295D02*
X39723810Y-42862295D01*
X39723810Y-42862295D02*
X40104762Y-42862295D01*
X41323810Y-43243247D02*
X41438096Y-43281342D01*
X41438096Y-43281342D02*
X41476191Y-43319438D01*
X41476191Y-43319438D02*
X41514287Y-43395628D01*
X41514287Y-43395628D02*
X41514287Y-43509914D01*
X41514287Y-43509914D02*
X41476191Y-43586104D01*
X41476191Y-43586104D02*
X41438096Y-43624200D01*
X41438096Y-43624200D02*
X41361906Y-43662295D01*
X41361906Y-43662295D02*
X41057144Y-43662295D01*
X41057144Y-43662295D02*
X41057144Y-42862295D01*
X41057144Y-42862295D02*
X41323810Y-42862295D01*
X41323810Y-42862295D02*
X41400001Y-42900390D01*
X41400001Y-42900390D02*
X41438096Y-42938485D01*
X41438096Y-42938485D02*
X41476191Y-43014676D01*
X41476191Y-43014676D02*
X41476191Y-43090866D01*
X41476191Y-43090866D02*
X41438096Y-43167057D01*
X41438096Y-43167057D02*
X41400001Y-43205152D01*
X41400001Y-43205152D02*
X41323810Y-43243247D01*
X41323810Y-43243247D02*
X41057144Y-43243247D01*
X41819048Y-43433723D02*
X42200001Y-43433723D01*
X41742858Y-43662295D02*
X42009525Y-42862295D01*
X42009525Y-42862295D02*
X42276191Y-43662295D01*
X43000001Y-43586104D02*
X42961905Y-43624200D01*
X42961905Y-43624200D02*
X42847620Y-43662295D01*
X42847620Y-43662295D02*
X42771429Y-43662295D01*
X42771429Y-43662295D02*
X42657143Y-43624200D01*
X42657143Y-43624200D02*
X42580953Y-43548009D01*
X42580953Y-43548009D02*
X42542858Y-43471819D01*
X42542858Y-43471819D02*
X42504762Y-43319438D01*
X42504762Y-43319438D02*
X42504762Y-43205152D01*
X42504762Y-43205152D02*
X42542858Y-43052771D01*
X42542858Y-43052771D02*
X42580953Y-42976580D01*
X42580953Y-42976580D02*
X42657143Y-42900390D01*
X42657143Y-42900390D02*
X42771429Y-42862295D01*
X42771429Y-42862295D02*
X42847620Y-42862295D01*
X42847620Y-42862295D02*
X42961905Y-42900390D01*
X42961905Y-42900390D02*
X43000001Y-42938485D01*
X43342858Y-43662295D02*
X43342858Y-42862295D01*
X43800001Y-43662295D02*
X43457143Y-43205152D01*
X43800001Y-42862295D02*
X43342858Y-43319438D01*
X35512295Y-55752380D02*
X35512295Y-56133332D01*
X35512295Y-56133332D02*
X35893247Y-56171428D01*
X35893247Y-56171428D02*
X35855152Y-56133332D01*
X35855152Y-56133332D02*
X35817057Y-56057142D01*
X35817057Y-56057142D02*
X35817057Y-55866666D01*
X35817057Y-55866666D02*
X35855152Y-55790475D01*
X35855152Y-55790475D02*
X35893247Y-55752380D01*
X35893247Y-55752380D02*
X35969438Y-55714285D01*
X35969438Y-55714285D02*
X36159914Y-55714285D01*
X36159914Y-55714285D02*
X36236104Y-55752380D01*
X36236104Y-55752380D02*
X36274200Y-55790475D01*
X36274200Y-55790475D02*
X36312295Y-55866666D01*
X36312295Y-55866666D02*
X36312295Y-56057142D01*
X36312295Y-56057142D02*
X36274200Y-56133332D01*
X36274200Y-56133332D02*
X36236104Y-56171428D01*
X35512295Y-55485713D02*
X36312295Y-55219046D01*
X36312295Y-55219046D02*
X35512295Y-54952380D01*
X40512295Y-56076189D02*
X40512295Y-55923808D01*
X40512295Y-55923808D02*
X40550390Y-55847618D01*
X40550390Y-55847618D02*
X40626580Y-55771427D01*
X40626580Y-55771427D02*
X40778961Y-55733332D01*
X40778961Y-55733332D02*
X41045628Y-55733332D01*
X41045628Y-55733332D02*
X41198009Y-55771427D01*
X41198009Y-55771427D02*
X41274200Y-55847618D01*
X41274200Y-55847618D02*
X41312295Y-55923808D01*
X41312295Y-55923808D02*
X41312295Y-56076189D01*
X41312295Y-56076189D02*
X41274200Y-56152380D01*
X41274200Y-56152380D02*
X41198009Y-56228570D01*
X41198009Y-56228570D02*
X41045628Y-56266666D01*
X41045628Y-56266666D02*
X40778961Y-56266666D01*
X40778961Y-56266666D02*
X40626580Y-56228570D01*
X40626580Y-56228570D02*
X40550390Y-56152380D01*
X40550390Y-56152380D02*
X40512295Y-56076189D01*
X41312295Y-55390475D02*
X40512295Y-55390475D01*
X41312295Y-54933332D02*
X40855152Y-55276190D01*
X40512295Y-54933332D02*
X40969438Y-55390475D01*
X46312295Y-56666666D02*
X45512295Y-56666666D01*
X45512295Y-56666666D02*
X45512295Y-56361904D01*
X45512295Y-56361904D02*
X45550390Y-56285714D01*
X45550390Y-56285714D02*
X45588485Y-56247619D01*
X45588485Y-56247619D02*
X45664676Y-56209523D01*
X45664676Y-56209523D02*
X45778961Y-56209523D01*
X45778961Y-56209523D02*
X45855152Y-56247619D01*
X45855152Y-56247619D02*
X45893247Y-56285714D01*
X45893247Y-56285714D02*
X45931342Y-56361904D01*
X45931342Y-56361904D02*
X45931342Y-56666666D01*
X45512295Y-55942857D02*
X46312295Y-55752381D01*
X46312295Y-55752381D02*
X45740866Y-55600000D01*
X45740866Y-55600000D02*
X46312295Y-55447619D01*
X46312295Y-55447619D02*
X45512295Y-55257143D01*
X46312295Y-54495237D02*
X45931342Y-54761904D01*
X46312295Y-54952380D02*
X45512295Y-54952380D01*
X45512295Y-54952380D02*
X45512295Y-54647618D01*
X45512295Y-54647618D02*
X45550390Y-54571428D01*
X45550390Y-54571428D02*
X45588485Y-54533333D01*
X45588485Y-54533333D02*
X45664676Y-54495237D01*
X45664676Y-54495237D02*
X45778961Y-54495237D01*
X45778961Y-54495237D02*
X45855152Y-54533333D01*
X45855152Y-54533333D02*
X45893247Y-54571428D01*
X45893247Y-54571428D02*
X45931342Y-54647618D01*
X45931342Y-54647618D02*
X45931342Y-54952380D01*
X45219048Y-38493866D02*
X45980953Y-38493866D01*
X45219048Y-43573866D02*
X45980953Y-43573866D01*
X45600000Y-43954819D02*
X45600000Y-43192914D01*
X13584819Y-48761533D02*
X14299104Y-48761533D01*
X14299104Y-48761533D02*
X14441961Y-48809152D01*
X14441961Y-48809152D02*
X14537200Y-48904390D01*
X14537200Y-48904390D02*
X14584819Y-49047247D01*
X14584819Y-49047247D02*
X14584819Y-49142485D01*
X14584819Y-47761533D02*
X14584819Y-48332961D01*
X14584819Y-48047247D02*
X13584819Y-48047247D01*
X13584819Y-48047247D02*
X13727676Y-48142485D01*
X13727676Y-48142485D02*
X13822914Y-48237723D01*
X13822914Y-48237723D02*
X13870533Y-48332961D01*
X20567133Y-45159580D02*
X20519514Y-45207200D01*
X20519514Y-45207200D02*
X20376657Y-45254819D01*
X20376657Y-45254819D02*
X20281419Y-45254819D01*
X20281419Y-45254819D02*
X20138562Y-45207200D01*
X20138562Y-45207200D02*
X20043324Y-45111961D01*
X20043324Y-45111961D02*
X19995705Y-45016723D01*
X19995705Y-45016723D02*
X19948086Y-44826247D01*
X19948086Y-44826247D02*
X19948086Y-44683390D01*
X19948086Y-44683390D02*
X19995705Y-44492914D01*
X19995705Y-44492914D02*
X20043324Y-44397676D01*
X20043324Y-44397676D02*
X20138562Y-44302438D01*
X20138562Y-44302438D02*
X20281419Y-44254819D01*
X20281419Y-44254819D02*
X20376657Y-44254819D01*
X20376657Y-44254819D02*
X20519514Y-44302438D01*
X20519514Y-44302438D02*
X20567133Y-44350057D01*
X20948086Y-44350057D02*
X20995705Y-44302438D01*
X20995705Y-44302438D02*
X21090943Y-44254819D01*
X21090943Y-44254819D02*
X21329038Y-44254819D01*
X21329038Y-44254819D02*
X21424276Y-44302438D01*
X21424276Y-44302438D02*
X21471895Y-44350057D01*
X21471895Y-44350057D02*
X21519514Y-44445295D01*
X21519514Y-44445295D02*
X21519514Y-44540533D01*
X21519514Y-44540533D02*
X21471895Y-44683390D01*
X21471895Y-44683390D02*
X20900467Y-45254819D01*
X20900467Y-45254819D02*
X21519514Y-45254819D01*
X30018119Y-56066666D02*
X29541928Y-56399999D01*
X30018119Y-56638094D02*
X29018119Y-56638094D01*
X29018119Y-56638094D02*
X29018119Y-56257142D01*
X29018119Y-56257142D02*
X29065738Y-56161904D01*
X29065738Y-56161904D02*
X29113357Y-56114285D01*
X29113357Y-56114285D02*
X29208595Y-56066666D01*
X29208595Y-56066666D02*
X29351452Y-56066666D01*
X29351452Y-56066666D02*
X29446690Y-56114285D01*
X29446690Y-56114285D02*
X29494309Y-56161904D01*
X29494309Y-56161904D02*
X29541928Y-56257142D01*
X29541928Y-56257142D02*
X29541928Y-56638094D01*
X29018119Y-55733332D02*
X29018119Y-55066666D01*
X29018119Y-55066666D02*
X30018119Y-55495237D01*
X30217133Y-29254819D02*
X29883800Y-28778628D01*
X29645705Y-29254819D02*
X29645705Y-28254819D01*
X29645705Y-28254819D02*
X30026657Y-28254819D01*
X30026657Y-28254819D02*
X30121895Y-28302438D01*
X30121895Y-28302438D02*
X30169514Y-28350057D01*
X30169514Y-28350057D02*
X30217133Y-28445295D01*
X30217133Y-28445295D02*
X30217133Y-28588152D01*
X30217133Y-28588152D02*
X30169514Y-28683390D01*
X30169514Y-28683390D02*
X30121895Y-28731009D01*
X30121895Y-28731009D02*
X30026657Y-28778628D01*
X30026657Y-28778628D02*
X29645705Y-28778628D01*
X31121895Y-28254819D02*
X30645705Y-28254819D01*
X30645705Y-28254819D02*
X30598086Y-28731009D01*
X30598086Y-28731009D02*
X30645705Y-28683390D01*
X30645705Y-28683390D02*
X30740943Y-28635771D01*
X30740943Y-28635771D02*
X30979038Y-28635771D01*
X30979038Y-28635771D02*
X31074276Y-28683390D01*
X31074276Y-28683390D02*
X31121895Y-28731009D01*
X31121895Y-28731009D02*
X31169514Y-28826247D01*
X31169514Y-28826247D02*
X31169514Y-29064342D01*
X31169514Y-29064342D02*
X31121895Y-29159580D01*
X31121895Y-29159580D02*
X31074276Y-29207200D01*
X31074276Y-29207200D02*
X30979038Y-29254819D01*
X30979038Y-29254819D02*
X30740943Y-29254819D01*
X30740943Y-29254819D02*
X30645705Y-29207200D01*
X30645705Y-29207200D02*
X30598086Y-29159580D01*
X37711905Y-54121619D02*
X37711905Y-53121619D01*
X37711905Y-53121619D02*
X37950000Y-53121619D01*
X37950000Y-53121619D02*
X38092857Y-53169238D01*
X38092857Y-53169238D02*
X38188095Y-53264476D01*
X38188095Y-53264476D02*
X38235714Y-53359714D01*
X38235714Y-53359714D02*
X38283333Y-53550190D01*
X38283333Y-53550190D02*
X38283333Y-53693047D01*
X38283333Y-53693047D02*
X38235714Y-53883523D01*
X38235714Y-53883523D02*
X38188095Y-53978761D01*
X38188095Y-53978761D02*
X38092857Y-54074000D01*
X38092857Y-54074000D02*
X37950000Y-54121619D01*
X37950000Y-54121619D02*
X37711905Y-54121619D01*
X39188095Y-53121619D02*
X38711905Y-53121619D01*
X38711905Y-53121619D02*
X38664286Y-53597809D01*
X38664286Y-53597809D02*
X38711905Y-53550190D01*
X38711905Y-53550190D02*
X38807143Y-53502571D01*
X38807143Y-53502571D02*
X39045238Y-53502571D01*
X39045238Y-53502571D02*
X39140476Y-53550190D01*
X39140476Y-53550190D02*
X39188095Y-53597809D01*
X39188095Y-53597809D02*
X39235714Y-53693047D01*
X39235714Y-53693047D02*
X39235714Y-53931142D01*
X39235714Y-53931142D02*
X39188095Y-54026380D01*
X39188095Y-54026380D02*
X39140476Y-54074000D01*
X39140476Y-54074000D02*
X39045238Y-54121619D01*
X39045238Y-54121619D02*
X38807143Y-54121619D01*
X38807143Y-54121619D02*
X38711905Y-54074000D01*
X38711905Y-54074000D02*
X38664286Y-54026380D01*
X51518119Y-56333094D02*
X50518119Y-56333094D01*
X50518119Y-56333094D02*
X50518119Y-56094999D01*
X50518119Y-56094999D02*
X50565738Y-55952142D01*
X50565738Y-55952142D02*
X50660976Y-55856904D01*
X50660976Y-55856904D02*
X50756214Y-55809285D01*
X50756214Y-55809285D02*
X50946690Y-55761666D01*
X50946690Y-55761666D02*
X51089547Y-55761666D01*
X51089547Y-55761666D02*
X51280023Y-55809285D01*
X51280023Y-55809285D02*
X51375261Y-55856904D01*
X51375261Y-55856904D02*
X51470500Y-55952142D01*
X51470500Y-55952142D02*
X51518119Y-56094999D01*
X51518119Y-56094999D02*
X51518119Y-56333094D01*
X50518119Y-55428332D02*
X50518119Y-54809285D01*
X50518119Y-54809285D02*
X50899071Y-55142618D01*
X50899071Y-55142618D02*
X50899071Y-54999761D01*
X50899071Y-54999761D02*
X50946690Y-54904523D01*
X50946690Y-54904523D02*
X50994309Y-54856904D01*
X50994309Y-54856904D02*
X51089547Y-54809285D01*
X51089547Y-54809285D02*
X51327642Y-54809285D01*
X51327642Y-54809285D02*
X51422880Y-54856904D01*
X51422880Y-54856904D02*
X51470500Y-54904523D01*
X51470500Y-54904523D02*
X51518119Y-54999761D01*
X51518119Y-54999761D02*
X51518119Y-55285475D01*
X51518119Y-55285475D02*
X51470500Y-55380713D01*
X51470500Y-55380713D02*
X51422880Y-55428332D01*
X31618119Y-41766666D02*
X31141928Y-42099999D01*
X31618119Y-42338094D02*
X30618119Y-42338094D01*
X30618119Y-42338094D02*
X30618119Y-41957142D01*
X30618119Y-41957142D02*
X30665738Y-41861904D01*
X30665738Y-41861904D02*
X30713357Y-41814285D01*
X30713357Y-41814285D02*
X30808595Y-41766666D01*
X30808595Y-41766666D02*
X30951452Y-41766666D01*
X30951452Y-41766666D02*
X31046690Y-41814285D01*
X31046690Y-41814285D02*
X31094309Y-41861904D01*
X31094309Y-41861904D02*
X31141928Y-41957142D01*
X31141928Y-41957142D02*
X31141928Y-42338094D01*
X31618119Y-40814285D02*
X31618119Y-41385713D01*
X31618119Y-41099999D02*
X30618119Y-41099999D01*
X30618119Y-41099999D02*
X30760976Y-41195237D01*
X30760976Y-41195237D02*
X30856214Y-41290475D01*
X30856214Y-41290475D02*
X30903833Y-41385713D01*
X19603619Y-56338094D02*
X18603619Y-56338094D01*
X18603619Y-56338094D02*
X18603619Y-56099999D01*
X18603619Y-56099999D02*
X18651238Y-55957142D01*
X18651238Y-55957142D02*
X18746476Y-55861904D01*
X18746476Y-55861904D02*
X18841714Y-55814285D01*
X18841714Y-55814285D02*
X19032190Y-55766666D01*
X19032190Y-55766666D02*
X19175047Y-55766666D01*
X19175047Y-55766666D02*
X19365523Y-55814285D01*
X19365523Y-55814285D02*
X19460761Y-55861904D01*
X19460761Y-55861904D02*
X19556000Y-55957142D01*
X19556000Y-55957142D02*
X19603619Y-56099999D01*
X19603619Y-56099999D02*
X19603619Y-56338094D01*
X18698857Y-55385713D02*
X18651238Y-55338094D01*
X18651238Y-55338094D02*
X18603619Y-55242856D01*
X18603619Y-55242856D02*
X18603619Y-55004761D01*
X18603619Y-55004761D02*
X18651238Y-54909523D01*
X18651238Y-54909523D02*
X18698857Y-54861904D01*
X18698857Y-54861904D02*
X18794095Y-54814285D01*
X18794095Y-54814285D02*
X18889333Y-54814285D01*
X18889333Y-54814285D02*
X19032190Y-54861904D01*
X19032190Y-54861904D02*
X19603619Y-55433332D01*
X19603619Y-55433332D02*
X19603619Y-54814285D01*
X36354819Y-52780466D02*
X35878628Y-53113799D01*
X36354819Y-53351894D02*
X35354819Y-53351894D01*
X35354819Y-53351894D02*
X35354819Y-52970942D01*
X35354819Y-52970942D02*
X35402438Y-52875704D01*
X35402438Y-52875704D02*
X35450057Y-52828085D01*
X35450057Y-52828085D02*
X35545295Y-52780466D01*
X35545295Y-52780466D02*
X35688152Y-52780466D01*
X35688152Y-52780466D02*
X35783390Y-52828085D01*
X35783390Y-52828085D02*
X35831009Y-52875704D01*
X35831009Y-52875704D02*
X35878628Y-52970942D01*
X35878628Y-52970942D02*
X35878628Y-53351894D01*
X36354819Y-52304275D02*
X36354819Y-52113799D01*
X36354819Y-52113799D02*
X36307200Y-52018561D01*
X36307200Y-52018561D02*
X36259580Y-51970942D01*
X36259580Y-51970942D02*
X36116723Y-51875704D01*
X36116723Y-51875704D02*
X35926247Y-51828085D01*
X35926247Y-51828085D02*
X35545295Y-51828085D01*
X35545295Y-51828085D02*
X35450057Y-51875704D01*
X35450057Y-51875704D02*
X35402438Y-51923323D01*
X35402438Y-51923323D02*
X35354819Y-52018561D01*
X35354819Y-52018561D02*
X35354819Y-52209037D01*
X35354819Y-52209037D02*
X35402438Y-52304275D01*
X35402438Y-52304275D02*
X35450057Y-52351894D01*
X35450057Y-52351894D02*
X35545295Y-52399513D01*
X35545295Y-52399513D02*
X35783390Y-52399513D01*
X35783390Y-52399513D02*
X35878628Y-52351894D01*
X35878628Y-52351894D02*
X35926247Y-52304275D01*
X35926247Y-52304275D02*
X35973866Y-52209037D01*
X35973866Y-52209037D02*
X35973866Y-52018561D01*
X35973866Y-52018561D02*
X35926247Y-51923323D01*
X35926247Y-51923323D02*
X35878628Y-51875704D01*
X35878628Y-51875704D02*
X35783390Y-51828085D01*
X51569461Y-29454819D02*
X51236128Y-28978628D01*
X50998033Y-29454819D02*
X50998033Y-28454819D01*
X50998033Y-28454819D02*
X51378985Y-28454819D01*
X51378985Y-28454819D02*
X51474223Y-28502438D01*
X51474223Y-28502438D02*
X51521842Y-28550057D01*
X51521842Y-28550057D02*
X51569461Y-28645295D01*
X51569461Y-28645295D02*
X51569461Y-28788152D01*
X51569461Y-28788152D02*
X51521842Y-28883390D01*
X51521842Y-28883390D02*
X51474223Y-28931009D01*
X51474223Y-28931009D02*
X51378985Y-28978628D01*
X51378985Y-28978628D02*
X50998033Y-28978628D01*
X51950414Y-28550057D02*
X51998033Y-28502438D01*
X51998033Y-28502438D02*
X52093271Y-28454819D01*
X52093271Y-28454819D02*
X52331366Y-28454819D01*
X52331366Y-28454819D02*
X52426604Y-28502438D01*
X52426604Y-28502438D02*
X52474223Y-28550057D01*
X52474223Y-28550057D02*
X52521842Y-28645295D01*
X52521842Y-28645295D02*
X52521842Y-28740533D01*
X52521842Y-28740533D02*
X52474223Y-28883390D01*
X52474223Y-28883390D02*
X51902795Y-29454819D01*
X51902795Y-29454819D02*
X52521842Y-29454819D01*
X52902795Y-29169104D02*
X53378985Y-29169104D01*
X52807557Y-29454819D02*
X53140890Y-28454819D01*
X53140890Y-28454819D02*
X53474223Y-29454819D01*
X41511905Y-54121619D02*
X41511905Y-53121619D01*
X41511905Y-53121619D02*
X41750000Y-53121619D01*
X41750000Y-53121619D02*
X41892857Y-53169238D01*
X41892857Y-53169238D02*
X41988095Y-53264476D01*
X41988095Y-53264476D02*
X42035714Y-53359714D01*
X42035714Y-53359714D02*
X42083333Y-53550190D01*
X42083333Y-53550190D02*
X42083333Y-53693047D01*
X42083333Y-53693047D02*
X42035714Y-53883523D01*
X42035714Y-53883523D02*
X41988095Y-53978761D01*
X41988095Y-53978761D02*
X41892857Y-54074000D01*
X41892857Y-54074000D02*
X41750000Y-54121619D01*
X41750000Y-54121619D02*
X41511905Y-54121619D01*
X42940476Y-53121619D02*
X42750000Y-53121619D01*
X42750000Y-53121619D02*
X42654762Y-53169238D01*
X42654762Y-53169238D02*
X42607143Y-53216857D01*
X42607143Y-53216857D02*
X42511905Y-53359714D01*
X42511905Y-53359714D02*
X42464286Y-53550190D01*
X42464286Y-53550190D02*
X42464286Y-53931142D01*
X42464286Y-53931142D02*
X42511905Y-54026380D01*
X42511905Y-54026380D02*
X42559524Y-54074000D01*
X42559524Y-54074000D02*
X42654762Y-54121619D01*
X42654762Y-54121619D02*
X42845238Y-54121619D01*
X42845238Y-54121619D02*
X42940476Y-54074000D01*
X42940476Y-54074000D02*
X42988095Y-54026380D01*
X42988095Y-54026380D02*
X43035714Y-53931142D01*
X43035714Y-53931142D02*
X43035714Y-53693047D01*
X43035714Y-53693047D02*
X42988095Y-53597809D01*
X42988095Y-53597809D02*
X42940476Y-53550190D01*
X42940476Y-53550190D02*
X42845238Y-53502571D01*
X42845238Y-53502571D02*
X42654762Y-53502571D01*
X42654762Y-53502571D02*
X42559524Y-53550190D01*
X42559524Y-53550190D02*
X42511905Y-53597809D01*
X42511905Y-53597809D02*
X42464286Y-53693047D01*
X46519542Y-49554819D02*
X46186209Y-49078628D01*
X45948114Y-49554819D02*
X45948114Y-48554819D01*
X45948114Y-48554819D02*
X46329066Y-48554819D01*
X46329066Y-48554819D02*
X46424304Y-48602438D01*
X46424304Y-48602438D02*
X46471923Y-48650057D01*
X46471923Y-48650057D02*
X46519542Y-48745295D01*
X46519542Y-48745295D02*
X46519542Y-48888152D01*
X46519542Y-48888152D02*
X46471923Y-48983390D01*
X46471923Y-48983390D02*
X46424304Y-49031009D01*
X46424304Y-49031009D02*
X46329066Y-49078628D01*
X46329066Y-49078628D02*
X45948114Y-49078628D01*
X47471923Y-49554819D02*
X46900495Y-49554819D01*
X47186209Y-49554819D02*
X47186209Y-48554819D01*
X47186209Y-48554819D02*
X47090971Y-48697676D01*
X47090971Y-48697676D02*
X46995733Y-48792914D01*
X46995733Y-48792914D02*
X46900495Y-48840533D01*
X47805257Y-48554819D02*
X48424304Y-48554819D01*
X48424304Y-48554819D02*
X48090971Y-48935771D01*
X48090971Y-48935771D02*
X48233828Y-48935771D01*
X48233828Y-48935771D02*
X48329066Y-48983390D01*
X48329066Y-48983390D02*
X48376685Y-49031009D01*
X48376685Y-49031009D02*
X48424304Y-49126247D01*
X48424304Y-49126247D02*
X48424304Y-49364342D01*
X48424304Y-49364342D02*
X48376685Y-49459580D01*
X48376685Y-49459580D02*
X48329066Y-49507200D01*
X48329066Y-49507200D02*
X48233828Y-49554819D01*
X48233828Y-49554819D02*
X47948114Y-49554819D01*
X47948114Y-49554819D02*
X47852876Y-49507200D01*
X47852876Y-49507200D02*
X47805257Y-49459580D01*
X52069542Y-49554819D02*
X51736209Y-49078628D01*
X51498114Y-49554819D02*
X51498114Y-48554819D01*
X51498114Y-48554819D02*
X51879066Y-48554819D01*
X51879066Y-48554819D02*
X51974304Y-48602438D01*
X51974304Y-48602438D02*
X52021923Y-48650057D01*
X52021923Y-48650057D02*
X52069542Y-48745295D01*
X52069542Y-48745295D02*
X52069542Y-48888152D01*
X52069542Y-48888152D02*
X52021923Y-48983390D01*
X52021923Y-48983390D02*
X51974304Y-49031009D01*
X51974304Y-49031009D02*
X51879066Y-49078628D01*
X51879066Y-49078628D02*
X51498114Y-49078628D01*
X53021923Y-49554819D02*
X52450495Y-49554819D01*
X52736209Y-49554819D02*
X52736209Y-48554819D01*
X52736209Y-48554819D02*
X52640971Y-48697676D01*
X52640971Y-48697676D02*
X52545733Y-48792914D01*
X52545733Y-48792914D02*
X52450495Y-48840533D01*
X53640971Y-48554819D02*
X53736209Y-48554819D01*
X53736209Y-48554819D02*
X53831447Y-48602438D01*
X53831447Y-48602438D02*
X53879066Y-48650057D01*
X53879066Y-48650057D02*
X53926685Y-48745295D01*
X53926685Y-48745295D02*
X53974304Y-48935771D01*
X53974304Y-48935771D02*
X53974304Y-49173866D01*
X53974304Y-49173866D02*
X53926685Y-49364342D01*
X53926685Y-49364342D02*
X53879066Y-49459580D01*
X53879066Y-49459580D02*
X53831447Y-49507200D01*
X53831447Y-49507200D02*
X53736209Y-49554819D01*
X53736209Y-49554819D02*
X53640971Y-49554819D01*
X53640971Y-49554819D02*
X53545733Y-49507200D01*
X53545733Y-49507200D02*
X53498114Y-49459580D01*
X53498114Y-49459580D02*
X53450495Y-49364342D01*
X53450495Y-49364342D02*
X53402876Y-49173866D01*
X53402876Y-49173866D02*
X53402876Y-48935771D01*
X53402876Y-48935771D02*
X53450495Y-48745295D01*
X53450495Y-48745295D02*
X53498114Y-48650057D01*
X53498114Y-48650057D02*
X53545733Y-48602438D01*
X53545733Y-48602438D02*
X53640971Y-48554819D01*
X38226667Y-40155500D02*
X38369524Y-40203119D01*
X38369524Y-40203119D02*
X38607619Y-40203119D01*
X38607619Y-40203119D02*
X38702857Y-40155500D01*
X38702857Y-40155500D02*
X38750476Y-40107880D01*
X38750476Y-40107880D02*
X38798095Y-40012642D01*
X38798095Y-40012642D02*
X38798095Y-39917404D01*
X38798095Y-39917404D02*
X38750476Y-39822166D01*
X38750476Y-39822166D02*
X38702857Y-39774547D01*
X38702857Y-39774547D02*
X38607619Y-39726928D01*
X38607619Y-39726928D02*
X38417143Y-39679309D01*
X38417143Y-39679309D02*
X38321905Y-39631690D01*
X38321905Y-39631690D02*
X38274286Y-39584071D01*
X38274286Y-39584071D02*
X38226667Y-39488833D01*
X38226667Y-39488833D02*
X38226667Y-39393595D01*
X38226667Y-39393595D02*
X38274286Y-39298357D01*
X38274286Y-39298357D02*
X38321905Y-39250738D01*
X38321905Y-39250738D02*
X38417143Y-39203119D01*
X38417143Y-39203119D02*
X38655238Y-39203119D01*
X38655238Y-39203119D02*
X38798095Y-39250738D01*
X39131429Y-39203119D02*
X39369524Y-40203119D01*
X39369524Y-40203119D02*
X39560000Y-39488833D01*
X39560000Y-39488833D02*
X39750476Y-40203119D01*
X39750476Y-40203119D02*
X39988572Y-39203119D01*
X40893333Y-40203119D02*
X40321905Y-40203119D01*
X40607619Y-40203119D02*
X40607619Y-39203119D01*
X40607619Y-39203119D02*
X40512381Y-39345976D01*
X40512381Y-39345976D02*
X40417143Y-39441214D01*
X40417143Y-39441214D02*
X40321905Y-39488833D01*
X36518119Y-48066666D02*
X36041928Y-48399999D01*
X36518119Y-48638094D02*
X35518119Y-48638094D01*
X35518119Y-48638094D02*
X35518119Y-48257142D01*
X35518119Y-48257142D02*
X35565738Y-48161904D01*
X35565738Y-48161904D02*
X35613357Y-48114285D01*
X35613357Y-48114285D02*
X35708595Y-48066666D01*
X35708595Y-48066666D02*
X35851452Y-48066666D01*
X35851452Y-48066666D02*
X35946690Y-48114285D01*
X35946690Y-48114285D02*
X35994309Y-48161904D01*
X35994309Y-48161904D02*
X36041928Y-48257142D01*
X36041928Y-48257142D02*
X36041928Y-48638094D01*
X35946690Y-47495237D02*
X35899071Y-47590475D01*
X35899071Y-47590475D02*
X35851452Y-47638094D01*
X35851452Y-47638094D02*
X35756214Y-47685713D01*
X35756214Y-47685713D02*
X35708595Y-47685713D01*
X35708595Y-47685713D02*
X35613357Y-47638094D01*
X35613357Y-47638094D02*
X35565738Y-47590475D01*
X35565738Y-47590475D02*
X35518119Y-47495237D01*
X35518119Y-47495237D02*
X35518119Y-47304761D01*
X35518119Y-47304761D02*
X35565738Y-47209523D01*
X35565738Y-47209523D02*
X35613357Y-47161904D01*
X35613357Y-47161904D02*
X35708595Y-47114285D01*
X35708595Y-47114285D02*
X35756214Y-47114285D01*
X35756214Y-47114285D02*
X35851452Y-47161904D01*
X35851452Y-47161904D02*
X35899071Y-47209523D01*
X35899071Y-47209523D02*
X35946690Y-47304761D01*
X35946690Y-47304761D02*
X35946690Y-47495237D01*
X35946690Y-47495237D02*
X35994309Y-47590475D01*
X35994309Y-47590475D02*
X36041928Y-47638094D01*
X36041928Y-47638094D02*
X36137166Y-47685713D01*
X36137166Y-47685713D02*
X36327642Y-47685713D01*
X36327642Y-47685713D02*
X36422880Y-47638094D01*
X36422880Y-47638094D02*
X36470500Y-47590475D01*
X36470500Y-47590475D02*
X36518119Y-47495237D01*
X36518119Y-47495237D02*
X36518119Y-47304761D01*
X36518119Y-47304761D02*
X36470500Y-47209523D01*
X36470500Y-47209523D02*
X36422880Y-47161904D01*
X36422880Y-47161904D02*
X36327642Y-47114285D01*
X36327642Y-47114285D02*
X36137166Y-47114285D01*
X36137166Y-47114285D02*
X36041928Y-47161904D01*
X36041928Y-47161904D02*
X35994309Y-47209523D01*
X35994309Y-47209523D02*
X35946690Y-47304761D01*
X25733333Y-29626280D02*
X25685714Y-29673900D01*
X25685714Y-29673900D02*
X25542857Y-29721519D01*
X25542857Y-29721519D02*
X25447619Y-29721519D01*
X25447619Y-29721519D02*
X25304762Y-29673900D01*
X25304762Y-29673900D02*
X25209524Y-29578661D01*
X25209524Y-29578661D02*
X25161905Y-29483423D01*
X25161905Y-29483423D02*
X25114286Y-29292947D01*
X25114286Y-29292947D02*
X25114286Y-29150090D01*
X25114286Y-29150090D02*
X25161905Y-28959614D01*
X25161905Y-28959614D02*
X25209524Y-28864376D01*
X25209524Y-28864376D02*
X25304762Y-28769138D01*
X25304762Y-28769138D02*
X25447619Y-28721519D01*
X25447619Y-28721519D02*
X25542857Y-28721519D01*
X25542857Y-28721519D02*
X25685714Y-28769138D01*
X25685714Y-28769138D02*
X25733333Y-28816757D01*
X26638095Y-28721519D02*
X26161905Y-28721519D01*
X26161905Y-28721519D02*
X26114286Y-29197709D01*
X26114286Y-29197709D02*
X26161905Y-29150090D01*
X26161905Y-29150090D02*
X26257143Y-29102471D01*
X26257143Y-29102471D02*
X26495238Y-29102471D01*
X26495238Y-29102471D02*
X26590476Y-29150090D01*
X26590476Y-29150090D02*
X26638095Y-29197709D01*
X26638095Y-29197709D02*
X26685714Y-29292947D01*
X26685714Y-29292947D02*
X26685714Y-29531042D01*
X26685714Y-29531042D02*
X26638095Y-29626280D01*
X26638095Y-29626280D02*
X26590476Y-29673900D01*
X26590476Y-29673900D02*
X26495238Y-29721519D01*
X26495238Y-29721519D02*
X26257143Y-29721519D01*
X26257143Y-29721519D02*
X26161905Y-29673900D01*
X26161905Y-29673900D02*
X26114286Y-29626280D01*
X17874209Y-32933333D02*
X17874209Y-33266666D01*
X18398019Y-33266666D02*
X17398019Y-33266666D01*
X17398019Y-33266666D02*
X17398019Y-32790476D01*
X18398019Y-31885714D02*
X18398019Y-32457142D01*
X18398019Y-32171428D02*
X17398019Y-32171428D01*
X17398019Y-32171428D02*
X17540876Y-32266666D01*
X17540876Y-32266666D02*
X17636114Y-32361904D01*
X17636114Y-32361904D02*
X17683733Y-32457142D01*
X31091619Y-33166666D02*
X30615428Y-33499999D01*
X31091619Y-33738094D02*
X30091619Y-33738094D01*
X30091619Y-33738094D02*
X30091619Y-33357142D01*
X30091619Y-33357142D02*
X30139238Y-33261904D01*
X30139238Y-33261904D02*
X30186857Y-33214285D01*
X30186857Y-33214285D02*
X30282095Y-33166666D01*
X30282095Y-33166666D02*
X30424952Y-33166666D01*
X30424952Y-33166666D02*
X30520190Y-33214285D01*
X30520190Y-33214285D02*
X30567809Y-33261904D01*
X30567809Y-33261904D02*
X30615428Y-33357142D01*
X30615428Y-33357142D02*
X30615428Y-33738094D01*
X30424952Y-32309523D02*
X31091619Y-32309523D01*
X30044000Y-32547618D02*
X30758285Y-32785713D01*
X30758285Y-32785713D02*
X30758285Y-32166666D01*
X16847133Y-53759580D02*
X16799514Y-53807200D01*
X16799514Y-53807200D02*
X16656657Y-53854819D01*
X16656657Y-53854819D02*
X16561419Y-53854819D01*
X16561419Y-53854819D02*
X16418562Y-53807200D01*
X16418562Y-53807200D02*
X16323324Y-53711961D01*
X16323324Y-53711961D02*
X16275705Y-53616723D01*
X16275705Y-53616723D02*
X16228086Y-53426247D01*
X16228086Y-53426247D02*
X16228086Y-53283390D01*
X16228086Y-53283390D02*
X16275705Y-53092914D01*
X16275705Y-53092914D02*
X16323324Y-52997676D01*
X16323324Y-52997676D02*
X16418562Y-52902438D01*
X16418562Y-52902438D02*
X16561419Y-52854819D01*
X16561419Y-52854819D02*
X16656657Y-52854819D01*
X16656657Y-52854819D02*
X16799514Y-52902438D01*
X16799514Y-52902438D02*
X16847133Y-52950057D01*
X17799514Y-53854819D02*
X17228086Y-53854819D01*
X17513800Y-53854819D02*
X17513800Y-52854819D01*
X17513800Y-52854819D02*
X17418562Y-52997676D01*
X17418562Y-52997676D02*
X17323324Y-53092914D01*
X17323324Y-53092914D02*
X17228086Y-53140533D01*
X18561419Y-53331009D02*
X18704276Y-53378628D01*
X18704276Y-53378628D02*
X18751895Y-53426247D01*
X18751895Y-53426247D02*
X18799514Y-53521485D01*
X18799514Y-53521485D02*
X18799514Y-53664342D01*
X18799514Y-53664342D02*
X18751895Y-53759580D01*
X18751895Y-53759580D02*
X18704276Y-53807200D01*
X18704276Y-53807200D02*
X18609038Y-53854819D01*
X18609038Y-53854819D02*
X18228086Y-53854819D01*
X18228086Y-53854819D02*
X18228086Y-52854819D01*
X18228086Y-52854819D02*
X18561419Y-52854819D01*
X18561419Y-52854819D02*
X18656657Y-52902438D01*
X18656657Y-52902438D02*
X18704276Y-52950057D01*
X18704276Y-52950057D02*
X18751895Y-53045295D01*
X18751895Y-53045295D02*
X18751895Y-53140533D01*
X18751895Y-53140533D02*
X18704276Y-53235771D01*
X18704276Y-53235771D02*
X18656657Y-53283390D01*
X18656657Y-53283390D02*
X18561419Y-53331009D01*
X18561419Y-53331009D02*
X18228086Y-53331009D01*
X22654819Y-30301904D02*
X23464342Y-30301904D01*
X23464342Y-30301904D02*
X23559580Y-30254285D01*
X23559580Y-30254285D02*
X23607200Y-30206666D01*
X23607200Y-30206666D02*
X23654819Y-30111428D01*
X23654819Y-30111428D02*
X23654819Y-29920952D01*
X23654819Y-29920952D02*
X23607200Y-29825714D01*
X23607200Y-29825714D02*
X23559580Y-29778095D01*
X23559580Y-29778095D02*
X23464342Y-29730476D01*
X23464342Y-29730476D02*
X22654819Y-29730476D01*
X23654819Y-28730476D02*
X23654819Y-29301904D01*
X23654819Y-29016190D02*
X22654819Y-29016190D01*
X22654819Y-29016190D02*
X22797676Y-29111428D01*
X22797676Y-29111428D02*
X22892914Y-29206666D01*
X22892914Y-29206666D02*
X22940533Y-29301904D01*
X45243466Y-40114819D02*
X45243466Y-40829104D01*
X45243466Y-40829104D02*
X45195847Y-40971961D01*
X45195847Y-40971961D02*
X45100609Y-41067200D01*
X45100609Y-41067200D02*
X44957752Y-41114819D01*
X44957752Y-41114819D02*
X44862514Y-41114819D01*
X45672038Y-40210057D02*
X45719657Y-40162438D01*
X45719657Y-40162438D02*
X45814895Y-40114819D01*
X45814895Y-40114819D02*
X46052990Y-40114819D01*
X46052990Y-40114819D02*
X46148228Y-40162438D01*
X46148228Y-40162438D02*
X46195847Y-40210057D01*
X46195847Y-40210057D02*
X46243466Y-40305295D01*
X46243466Y-40305295D02*
X46243466Y-40400533D01*
X46243466Y-40400533D02*
X46195847Y-40543390D01*
X46195847Y-40543390D02*
X45624419Y-41114819D01*
X45624419Y-41114819D02*
X46243466Y-41114819D01*
X15194466Y-31004819D02*
X15194466Y-31719104D01*
X15194466Y-31719104D02*
X15146847Y-31861961D01*
X15146847Y-31861961D02*
X15051609Y-31957200D01*
X15051609Y-31957200D02*
X14908752Y-32004819D01*
X14908752Y-32004819D02*
X14813514Y-32004819D01*
X15575419Y-31004819D02*
X16194466Y-31004819D01*
X16194466Y-31004819D02*
X15861133Y-31385771D01*
X15861133Y-31385771D02*
X16003990Y-31385771D01*
X16003990Y-31385771D02*
X16099228Y-31433390D01*
X16099228Y-31433390D02*
X16146847Y-31481009D01*
X16146847Y-31481009D02*
X16194466Y-31576247D01*
X16194466Y-31576247D02*
X16194466Y-31814342D01*
X16194466Y-31814342D02*
X16146847Y-31909580D01*
X16146847Y-31909580D02*
X16099228Y-31957200D01*
X16099228Y-31957200D02*
X16003990Y-32004819D01*
X16003990Y-32004819D02*
X15718276Y-32004819D01*
X15718276Y-32004819D02*
X15623038Y-31957200D01*
X15623038Y-31957200D02*
X15575419Y-31909580D01*
X51569533Y-31454819D02*
X51236200Y-30978628D01*
X50998105Y-31454819D02*
X50998105Y-30454819D01*
X50998105Y-30454819D02*
X51379057Y-30454819D01*
X51379057Y-30454819D02*
X51474295Y-30502438D01*
X51474295Y-30502438D02*
X51521914Y-30550057D01*
X51521914Y-30550057D02*
X51569533Y-30645295D01*
X51569533Y-30645295D02*
X51569533Y-30788152D01*
X51569533Y-30788152D02*
X51521914Y-30883390D01*
X51521914Y-30883390D02*
X51474295Y-30931009D01*
X51474295Y-30931009D02*
X51379057Y-30978628D01*
X51379057Y-30978628D02*
X50998105Y-30978628D01*
X51950486Y-30550057D02*
X51998105Y-30502438D01*
X51998105Y-30502438D02*
X52093343Y-30454819D01*
X52093343Y-30454819D02*
X52331438Y-30454819D01*
X52331438Y-30454819D02*
X52426676Y-30502438D01*
X52426676Y-30502438D02*
X52474295Y-30550057D01*
X52474295Y-30550057D02*
X52521914Y-30645295D01*
X52521914Y-30645295D02*
X52521914Y-30740533D01*
X52521914Y-30740533D02*
X52474295Y-30883390D01*
X52474295Y-30883390D02*
X51902867Y-31454819D01*
X51902867Y-31454819D02*
X52521914Y-31454819D01*
X53283819Y-30931009D02*
X53426676Y-30978628D01*
X53426676Y-30978628D02*
X53474295Y-31026247D01*
X53474295Y-31026247D02*
X53521914Y-31121485D01*
X53521914Y-31121485D02*
X53521914Y-31264342D01*
X53521914Y-31264342D02*
X53474295Y-31359580D01*
X53474295Y-31359580D02*
X53426676Y-31407200D01*
X53426676Y-31407200D02*
X53331438Y-31454819D01*
X53331438Y-31454819D02*
X52950486Y-31454819D01*
X52950486Y-31454819D02*
X52950486Y-30454819D01*
X52950486Y-30454819D02*
X53283819Y-30454819D01*
X53283819Y-30454819D02*
X53379057Y-30502438D01*
X53379057Y-30502438D02*
X53426676Y-30550057D01*
X53426676Y-30550057D02*
X53474295Y-30645295D01*
X53474295Y-30645295D02*
X53474295Y-30740533D01*
X53474295Y-30740533D02*
X53426676Y-30835771D01*
X53426676Y-30835771D02*
X53379057Y-30883390D01*
X53379057Y-30883390D02*
X53283819Y-30931009D01*
X53283819Y-30931009D02*
X52950486Y-30931009D01*
X23089961Y-45159580D02*
X23042342Y-45207200D01*
X23042342Y-45207200D02*
X22899485Y-45254819D01*
X22899485Y-45254819D02*
X22804247Y-45254819D01*
X22804247Y-45254819D02*
X22661390Y-45207200D01*
X22661390Y-45207200D02*
X22566152Y-45111961D01*
X22566152Y-45111961D02*
X22518533Y-45016723D01*
X22518533Y-45016723D02*
X22470914Y-44826247D01*
X22470914Y-44826247D02*
X22470914Y-44683390D01*
X22470914Y-44683390D02*
X22518533Y-44492914D01*
X22518533Y-44492914D02*
X22566152Y-44397676D01*
X22566152Y-44397676D02*
X22661390Y-44302438D01*
X22661390Y-44302438D02*
X22804247Y-44254819D01*
X22804247Y-44254819D02*
X22899485Y-44254819D01*
X22899485Y-44254819D02*
X23042342Y-44302438D01*
X23042342Y-44302438D02*
X23089961Y-44350057D01*
X24042342Y-45254819D02*
X23470914Y-45254819D01*
X23756628Y-45254819D02*
X23756628Y-44254819D01*
X23756628Y-44254819D02*
X23661390Y-44397676D01*
X23661390Y-44397676D02*
X23566152Y-44492914D01*
X23566152Y-44492914D02*
X23470914Y-44540533D01*
X24423295Y-44969104D02*
X24899485Y-44969104D01*
X24328057Y-45254819D02*
X24661390Y-44254819D01*
X24661390Y-44254819D02*
X24994723Y-45254819D01*
X36018119Y-42142857D02*
X35541928Y-42476190D01*
X36018119Y-42714285D02*
X35018119Y-42714285D01*
X35018119Y-42714285D02*
X35018119Y-42333333D01*
X35018119Y-42333333D02*
X35065738Y-42238095D01*
X35065738Y-42238095D02*
X35113357Y-42190476D01*
X35113357Y-42190476D02*
X35208595Y-42142857D01*
X35208595Y-42142857D02*
X35351452Y-42142857D01*
X35351452Y-42142857D02*
X35446690Y-42190476D01*
X35446690Y-42190476D02*
X35494309Y-42238095D01*
X35494309Y-42238095D02*
X35541928Y-42333333D01*
X35541928Y-42333333D02*
X35541928Y-42714285D01*
X36018119Y-41190476D02*
X36018119Y-41761904D01*
X36018119Y-41476190D02*
X35018119Y-41476190D01*
X35018119Y-41476190D02*
X35160976Y-41571428D01*
X35160976Y-41571428D02*
X35256214Y-41666666D01*
X35256214Y-41666666D02*
X35303833Y-41761904D01*
X35351452Y-40333333D02*
X36018119Y-40333333D01*
X34970500Y-40571428D02*
X35684785Y-40809523D01*
X35684785Y-40809523D02*
X35684785Y-40190476D01*
X26833333Y-52588019D02*
X26500000Y-52111828D01*
X26261905Y-52588019D02*
X26261905Y-51588019D01*
X26261905Y-51588019D02*
X26642857Y-51588019D01*
X26642857Y-51588019D02*
X26738095Y-51635638D01*
X26738095Y-51635638D02*
X26785714Y-51683257D01*
X26785714Y-51683257D02*
X26833333Y-51778495D01*
X26833333Y-51778495D02*
X26833333Y-51921352D01*
X26833333Y-51921352D02*
X26785714Y-52016590D01*
X26785714Y-52016590D02*
X26738095Y-52064209D01*
X26738095Y-52064209D02*
X26642857Y-52111828D01*
X26642857Y-52111828D02*
X26261905Y-52111828D01*
X27690476Y-51588019D02*
X27500000Y-51588019D01*
X27500000Y-51588019D02*
X27404762Y-51635638D01*
X27404762Y-51635638D02*
X27357143Y-51683257D01*
X27357143Y-51683257D02*
X27261905Y-51826114D01*
X27261905Y-51826114D02*
X27214286Y-52016590D01*
X27214286Y-52016590D02*
X27214286Y-52397542D01*
X27214286Y-52397542D02*
X27261905Y-52492780D01*
X27261905Y-52492780D02*
X27309524Y-52540400D01*
X27309524Y-52540400D02*
X27404762Y-52588019D01*
X27404762Y-52588019D02*
X27595238Y-52588019D01*
X27595238Y-52588019D02*
X27690476Y-52540400D01*
X27690476Y-52540400D02*
X27738095Y-52492780D01*
X27738095Y-52492780D02*
X27785714Y-52397542D01*
X27785714Y-52397542D02*
X27785714Y-52159447D01*
X27785714Y-52159447D02*
X27738095Y-52064209D01*
X27738095Y-52064209D02*
X27690476Y-52016590D01*
X27690476Y-52016590D02*
X27595238Y-51968971D01*
X27595238Y-51968971D02*
X27404762Y-51968971D01*
X27404762Y-51968971D02*
X27309524Y-52016590D01*
X27309524Y-52016590D02*
X27261905Y-52064209D01*
X27261905Y-52064209D02*
X27214286Y-52159447D01*
X31091619Y-36166666D02*
X30615428Y-36499999D01*
X31091619Y-36738094D02*
X30091619Y-36738094D01*
X30091619Y-36738094D02*
X30091619Y-36357142D01*
X30091619Y-36357142D02*
X30139238Y-36261904D01*
X30139238Y-36261904D02*
X30186857Y-36214285D01*
X30186857Y-36214285D02*
X30282095Y-36166666D01*
X30282095Y-36166666D02*
X30424952Y-36166666D01*
X30424952Y-36166666D02*
X30520190Y-36214285D01*
X30520190Y-36214285D02*
X30567809Y-36261904D01*
X30567809Y-36261904D02*
X30615428Y-36357142D01*
X30615428Y-36357142D02*
X30615428Y-36738094D01*
X30091619Y-35833332D02*
X30091619Y-35214285D01*
X30091619Y-35214285D02*
X30472571Y-35547618D01*
X30472571Y-35547618D02*
X30472571Y-35404761D01*
X30472571Y-35404761D02*
X30520190Y-35309523D01*
X30520190Y-35309523D02*
X30567809Y-35261904D01*
X30567809Y-35261904D02*
X30663047Y-35214285D01*
X30663047Y-35214285D02*
X30901142Y-35214285D01*
X30901142Y-35214285D02*
X30996380Y-35261904D01*
X30996380Y-35261904D02*
X31044000Y-35309523D01*
X31044000Y-35309523D02*
X31091619Y-35404761D01*
X31091619Y-35404761D02*
X31091619Y-35690475D01*
X31091619Y-35690475D02*
X31044000Y-35785713D01*
X31044000Y-35785713D02*
X30996380Y-35833332D01*
X17160705Y-50152319D02*
X17160705Y-49152319D01*
X17160705Y-49152319D02*
X17398800Y-49152319D01*
X17398800Y-49152319D02*
X17541657Y-49199938D01*
X17541657Y-49199938D02*
X17636895Y-49295176D01*
X17636895Y-49295176D02*
X17684514Y-49390414D01*
X17684514Y-49390414D02*
X17732133Y-49580890D01*
X17732133Y-49580890D02*
X17732133Y-49723747D01*
X17732133Y-49723747D02*
X17684514Y-49914223D01*
X17684514Y-49914223D02*
X17636895Y-50009461D01*
X17636895Y-50009461D02*
X17541657Y-50104700D01*
X17541657Y-50104700D02*
X17398800Y-50152319D01*
X17398800Y-50152319D02*
X17160705Y-50152319D01*
X18684514Y-50152319D02*
X18113086Y-50152319D01*
X18398800Y-50152319D02*
X18398800Y-49152319D01*
X18398800Y-49152319D02*
X18303562Y-49295176D01*
X18303562Y-49295176D02*
X18208324Y-49390414D01*
X18208324Y-49390414D02*
X18113086Y-49438033D01*
X32964761Y-53050057D02*
X32869523Y-53002438D01*
X32869523Y-53002438D02*
X32774285Y-52907200D01*
X32774285Y-52907200D02*
X32631428Y-52764342D01*
X32631428Y-52764342D02*
X32536190Y-52716723D01*
X32536190Y-52716723D02*
X32440952Y-52716723D01*
X32488571Y-52954819D02*
X32393333Y-52907200D01*
X32393333Y-52907200D02*
X32298095Y-52811961D01*
X32298095Y-52811961D02*
X32250476Y-52621485D01*
X32250476Y-52621485D02*
X32250476Y-52288152D01*
X32250476Y-52288152D02*
X32298095Y-52097676D01*
X32298095Y-52097676D02*
X32393333Y-52002438D01*
X32393333Y-52002438D02*
X32488571Y-51954819D01*
X32488571Y-51954819D02*
X32679047Y-51954819D01*
X32679047Y-51954819D02*
X32774285Y-52002438D01*
X32774285Y-52002438D02*
X32869523Y-52097676D01*
X32869523Y-52097676D02*
X32917142Y-52288152D01*
X32917142Y-52288152D02*
X32917142Y-52621485D01*
X32917142Y-52621485D02*
X32869523Y-52811961D01*
X32869523Y-52811961D02*
X32774285Y-52907200D01*
X32774285Y-52907200D02*
X32679047Y-52954819D01*
X32679047Y-52954819D02*
X32488571Y-52954819D01*
X33869523Y-52954819D02*
X33298095Y-52954819D01*
X33583809Y-52954819D02*
X33583809Y-51954819D01*
X33583809Y-51954819D02*
X33488571Y-52097676D01*
X33488571Y-52097676D02*
X33393333Y-52192914D01*
X33393333Y-52192914D02*
X33298095Y-52240533D01*
X41149542Y-49554819D02*
X40816209Y-49078628D01*
X40578114Y-49554819D02*
X40578114Y-48554819D01*
X40578114Y-48554819D02*
X40959066Y-48554819D01*
X40959066Y-48554819D02*
X41054304Y-48602438D01*
X41054304Y-48602438D02*
X41101923Y-48650057D01*
X41101923Y-48650057D02*
X41149542Y-48745295D01*
X41149542Y-48745295D02*
X41149542Y-48888152D01*
X41149542Y-48888152D02*
X41101923Y-48983390D01*
X41101923Y-48983390D02*
X41054304Y-49031009D01*
X41054304Y-49031009D02*
X40959066Y-49078628D01*
X40959066Y-49078628D02*
X40578114Y-49078628D01*
X42101923Y-49554819D02*
X41530495Y-49554819D01*
X41816209Y-49554819D02*
X41816209Y-48554819D01*
X41816209Y-48554819D02*
X41720971Y-48697676D01*
X41720971Y-48697676D02*
X41625733Y-48792914D01*
X41625733Y-48792914D02*
X41530495Y-48840533D01*
X42482876Y-48650057D02*
X42530495Y-48602438D01*
X42530495Y-48602438D02*
X42625733Y-48554819D01*
X42625733Y-48554819D02*
X42863828Y-48554819D01*
X42863828Y-48554819D02*
X42959066Y-48602438D01*
X42959066Y-48602438D02*
X43006685Y-48650057D01*
X43006685Y-48650057D02*
X43054304Y-48745295D01*
X43054304Y-48745295D02*
X43054304Y-48840533D01*
X43054304Y-48840533D02*
X43006685Y-48983390D01*
X43006685Y-48983390D02*
X42435257Y-49554819D01*
X42435257Y-49554819D02*
X43054304Y-49554819D01*
%TO.C,J1*%
D11*
X10180000Y-37940000D02*
X10180000Y-47080000D01*
X10180000Y-47080000D02*
X11700000Y-47080000D01*
X11700000Y-37940000D02*
X10180000Y-37940000D01*
X14330000Y-39180000D02*
X15090000Y-39180000D01*
X14330000Y-40960000D02*
X14330000Y-39180000D01*
X14330000Y-44010000D02*
X15090000Y-44010000D01*
X14330000Y-45780000D02*
X14330000Y-44010000D01*
X15090000Y-39180000D02*
X15090000Y-40960000D01*
X15090000Y-40960000D02*
X14330000Y-40960000D01*
X15090000Y-44010000D02*
X15090000Y-45780000D01*
X15090000Y-45780000D02*
X14330000Y-45780000D01*
X15700000Y-37940000D02*
X14050000Y-37940000D01*
X15700000Y-47080000D02*
X14050000Y-47080000D01*
%TO.C,C2*%
X22210000Y-47600000D02*
X22210000Y-46800000D01*
X23320000Y-46490000D02*
X22520000Y-46490000D01*
X23320000Y-47910000D02*
X22520000Y-47910000D01*
X23880000Y-46490000D02*
X24680000Y-46490000D01*
X23880000Y-47910000D02*
X24680000Y-47910000D01*
X24990000Y-46800000D02*
X24990000Y-47600000D01*
X22210000Y-46800000D02*
G75*
G02*
X22520000Y-46490000I310000J0D01*
G01*
X22520000Y-47910000D02*
G75*
G02*
X22210000Y-47600000I0J310000D01*
G01*
X24680000Y-46490000D02*
G75*
G02*
X24990000Y-46800000I0J-310000D01*
G01*
X24990000Y-47600000D02*
G75*
G02*
X24680000Y-47910000I-310000J0D01*
G01*
D12*
X22830000Y-47600000D02*
G75*
G02*
X22770000Y-47600000I-30000J0D01*
G01*
X22770000Y-47600000D02*
G75*
G02*
X22830000Y-47600000I30000J0D01*
G01*
%TO.C,R7*%
D10*
X25610000Y-54040000D02*
X26570000Y-54040000D01*
X25610000Y-55360000D02*
X25610000Y-54040000D01*
X26570000Y-55360000D02*
X25610000Y-55360000D01*
X27430000Y-55360000D02*
X28390000Y-55360000D01*
X28390000Y-54040000D02*
X27430000Y-54040000D01*
X28390000Y-55360000D02*
X28390000Y-54040000D01*
D12*
X26230000Y-55100000D02*
G75*
G02*
X26170000Y-55100000I-30000J0D01*
G01*
X26170000Y-55100000D02*
G75*
G02*
X26230000Y-55100000I30000J0D01*
G01*
%TO.C,R5*%
D10*
X31810000Y-29340000D02*
X32770000Y-29340000D01*
X31810000Y-30660000D02*
X31810000Y-29340000D01*
X32770000Y-30660000D02*
X31810000Y-30660000D01*
X33630000Y-30660000D02*
X34590000Y-30660000D01*
X34590000Y-29340000D02*
X33630000Y-29340000D01*
X34590000Y-30660000D02*
X34590000Y-29340000D01*
D12*
X32430000Y-30400000D02*
G75*
G02*
X32370000Y-30400000I-30000J0D01*
G01*
X32370000Y-30400000D02*
G75*
G02*
X32430000Y-30400000I30000J0D01*
G01*
%TO.C,D5*%
D10*
X37010000Y-55150000D02*
X37310000Y-54850000D01*
X37010000Y-55250000D02*
X37010000Y-55150000D01*
X37010000Y-55250000D02*
X37010000Y-55950000D01*
X37010000Y-55950000D02*
X37010000Y-56050000D01*
X37010000Y-56050000D02*
X37310000Y-56350000D01*
X38360000Y-54850000D02*
X37310000Y-54850000D01*
X38360000Y-56350000D02*
X37310000Y-56350000D01*
X38710000Y-55920000D02*
X38380000Y-55590000D01*
X38720000Y-55240000D02*
X38720000Y-55250000D01*
X38720000Y-55240000D02*
X38720000Y-55920000D01*
X38720000Y-55250000D02*
X38380000Y-55590000D01*
X38720000Y-55590000D02*
X38380000Y-55590000D01*
X38720000Y-55920000D02*
X38710000Y-55920000D01*
X38740000Y-54840000D02*
X39890000Y-54840000D01*
X38740000Y-56340000D02*
X39890000Y-56340000D01*
X39890000Y-54840000D02*
X39890000Y-56320000D01*
%TO.C,D3*%
X47010000Y-55150000D02*
X47310000Y-54850000D01*
X47010000Y-55250000D02*
X47010000Y-55150000D01*
X47010000Y-55250000D02*
X47010000Y-55950000D01*
X47010000Y-55950000D02*
X47010000Y-56050000D01*
X47010000Y-56050000D02*
X47310000Y-56350000D01*
X48360000Y-54850000D02*
X47310000Y-54850000D01*
X48360000Y-56350000D02*
X47310000Y-56350000D01*
X48740000Y-54840000D02*
X49890000Y-54840000D01*
X48740000Y-56340000D02*
X49890000Y-56340000D01*
X49890000Y-54840000D02*
X49890000Y-56320000D01*
D13*
G36*
X48400051Y-56000025D02*
G01*
X48200102Y-56000025D01*
X48200102Y-55200026D01*
X48400051Y-55200026D01*
X48400051Y-56000025D01*
G37*
%TO.C,R1*%
D10*
X27210000Y-38540000D02*
X28170000Y-38540000D01*
X27210000Y-39860000D02*
X27210000Y-38540000D01*
X28170000Y-39860000D02*
X27210000Y-39860000D01*
X29030000Y-39860000D02*
X29990000Y-39860000D01*
X29990000Y-38540000D02*
X29030000Y-38540000D01*
X29990000Y-39860000D02*
X29990000Y-38540000D01*
D12*
X27830000Y-39600000D02*
G75*
G02*
X27770000Y-39600000I-30000J0D01*
G01*
X27770000Y-39600000D02*
G75*
G02*
X27830000Y-39600000I30000J0D01*
G01*
%TO.C,D2*%
D10*
X21270000Y-52870000D02*
X21270000Y-53910000D01*
X21270000Y-55930000D02*
X21270000Y-54890000D01*
X22730000Y-52870000D02*
X21270000Y-52870000D01*
X22730000Y-53940000D02*
X22730000Y-54860000D01*
X22730000Y-55930000D02*
X21270000Y-55930000D01*
D12*
X23230000Y-55850000D02*
G75*
G02*
X23170000Y-55850000I-30000J0D01*
G01*
X23170000Y-55850000D02*
G75*
G02*
X23230000Y-55850000I30000J0D01*
G01*
%TO.C,R9*%
D10*
X32110000Y-54040000D02*
X32110000Y-55360000D01*
X32110000Y-55360000D02*
X33070000Y-55360000D01*
X33070000Y-54040000D02*
X32110000Y-54040000D01*
X33930000Y-54040000D02*
X34890000Y-54040000D01*
X34890000Y-54040000D02*
X34890000Y-55360000D01*
X34890000Y-55360000D02*
X33930000Y-55360000D01*
D12*
X34330000Y-54300000D02*
G75*
G02*
X34270000Y-54300000I-30000J0D01*
G01*
X34270000Y-54300000D02*
G75*
G02*
X34330000Y-54300000I30000J0D01*
G01*
%TO.C,R2A*%
D10*
X45690000Y-27920000D02*
X47050000Y-27920000D01*
X45690000Y-30080000D02*
X45690000Y-27920000D01*
X47050000Y-30080000D02*
X45690000Y-30080000D01*
X48950000Y-30080000D02*
X50310000Y-30080000D01*
X50310000Y-27920000D02*
X48950000Y-27920000D01*
X50310000Y-30080000D02*
X50310000Y-27920000D01*
D12*
X46480000Y-29790000D02*
G75*
G02*
X46420000Y-29790000I-30000J0D01*
G01*
X46420000Y-29790000D02*
G75*
G02*
X46480000Y-29790000I30000J0D01*
G01*
%TO.C,D6*%
D10*
X42010000Y-55150000D02*
X42310000Y-54850000D01*
X42010000Y-55250000D02*
X42010000Y-55150000D01*
X42010000Y-55250000D02*
X42010000Y-55950000D01*
X42010000Y-55950000D02*
X42010000Y-56050000D01*
X42010000Y-56050000D02*
X42310000Y-56350000D01*
X43360000Y-54850000D02*
X42310000Y-54850000D01*
X43360000Y-56350000D02*
X42310000Y-56350000D01*
X43740000Y-54840000D02*
X44890000Y-54840000D01*
X43740000Y-56340000D02*
X44890000Y-56340000D01*
X44890000Y-54840000D02*
X44890000Y-56320000D01*
D13*
G36*
X43400051Y-56000025D02*
G01*
X43200102Y-56000025D01*
X43200102Y-55200026D01*
X43400051Y-55200026D01*
X43400051Y-56000025D01*
G37*
%TO.C,R13*%
D10*
X41740000Y-50580000D02*
X43020000Y-50580000D01*
X41740000Y-52420000D02*
X41740000Y-50580000D01*
X43020000Y-52420000D02*
X41740000Y-52420000D01*
X43980000Y-52420000D02*
X45260000Y-52420000D01*
X45260000Y-50580000D02*
X43980000Y-50580000D01*
X45260000Y-52420000D02*
X45260000Y-50580000D01*
D12*
X42530000Y-52140000D02*
G75*
G02*
X42470000Y-52140000I-30000J0D01*
G01*
X42470000Y-52140000D02*
G75*
G02*
X42530000Y-52140000I30000J0D01*
G01*
%TO.C,R10*%
D10*
X46190000Y-50420000D02*
X47550000Y-50420000D01*
X46190000Y-52580000D02*
X46190000Y-50420000D01*
X47550000Y-52580000D02*
X46190000Y-52580000D01*
X49450000Y-52580000D02*
X50810000Y-52580000D01*
X50810000Y-50420000D02*
X49450000Y-50420000D01*
X50810000Y-52580000D02*
X50810000Y-50420000D01*
D12*
X46980000Y-52290000D02*
G75*
G02*
X46920000Y-52290000I-30000J0D01*
G01*
X46920000Y-52290000D02*
G75*
G02*
X46980000Y-52290000I30000J0D01*
G01*
%TO.C,SW1*%
D11*
X35750000Y-30400000D02*
X43370000Y-30400000D01*
X35750000Y-36500000D02*
X35750000Y-30400000D01*
D10*
X36390000Y-31930000D02*
X37910000Y-31930000D01*
X36390000Y-32430000D02*
X37910000Y-32430000D01*
X36390000Y-34970000D02*
X36390000Y-31930000D01*
X37910000Y-31930000D02*
X37910000Y-34970000D01*
X37910000Y-34970000D02*
X36390000Y-34970000D01*
X38930000Y-31930000D02*
X40450000Y-31930000D01*
X38930000Y-32430000D02*
X40450000Y-32430000D01*
X38930000Y-34970000D02*
X38930000Y-31930000D01*
X40450000Y-31930000D02*
X40450000Y-34970000D01*
X40450000Y-34970000D02*
X38930000Y-34970000D01*
X41460000Y-31930000D02*
X42990000Y-31930000D01*
X41460000Y-32430000D02*
X42990000Y-32430000D01*
X41460000Y-34970000D02*
X41460000Y-31930000D01*
X42990000Y-31930000D02*
X42990000Y-34970000D01*
X42990000Y-34970000D02*
X41460000Y-34970000D01*
D11*
X43370000Y-30400000D02*
X43370000Y-36500000D01*
X43370000Y-36500000D02*
X35750000Y-36500000D01*
D12*
X35780000Y-38100000D02*
G75*
G02*
X35720000Y-38100000I-30000J0D01*
G01*
X35720000Y-38100000D02*
G75*
G02*
X35780000Y-38100000I30000J0D01*
G01*
D13*
G36*
X37984997Y-34541997D02*
G01*
X36309003Y-34541997D01*
X36309003Y-33374003D01*
X37984997Y-33374003D01*
X37984997Y-34541997D01*
G37*
G36*
X40524997Y-34541997D02*
G01*
X38849003Y-34541997D01*
X38849003Y-33374003D01*
X40524997Y-33374003D01*
X40524997Y-34541997D01*
G37*
G36*
X43064997Y-34541997D02*
G01*
X41389003Y-34541997D01*
X41389003Y-33374003D01*
X43064997Y-33374003D01*
X43064997Y-34541997D01*
G37*
%TO.C,R8*%
D10*
X32110000Y-49640000D02*
X33070000Y-49640000D01*
X32110000Y-50960000D02*
X32110000Y-49640000D01*
X33070000Y-50960000D02*
X32110000Y-50960000D01*
X33930000Y-50960000D02*
X34890000Y-50960000D01*
X34890000Y-49640000D02*
X33930000Y-49640000D01*
X34890000Y-50960000D02*
X34890000Y-49640000D01*
D12*
X32730000Y-50700000D02*
G75*
G02*
X32670000Y-50700000I-30000J0D01*
G01*
X32670000Y-50700000D02*
G75*
G02*
X32730000Y-50700000I30000J0D01*
G01*
%TO.C,C5*%
D11*
X26910000Y-31600000D02*
X26910000Y-30800000D01*
X28020000Y-30490000D02*
X27220000Y-30490000D01*
X28020000Y-31910000D02*
X27220000Y-31910000D01*
X28580000Y-30490000D02*
X29380000Y-30490000D01*
X28580000Y-31910000D02*
X29380000Y-31910000D01*
X29690000Y-30800000D02*
X29690000Y-31600000D01*
X26910000Y-30800000D02*
G75*
G02*
X27220000Y-30490000I310000J0D01*
G01*
X27220000Y-31910000D02*
G75*
G02*
X26910000Y-31600000I0J310000D01*
G01*
X29380000Y-30490000D02*
G75*
G02*
X29690000Y-30800000I0J-310000D01*
G01*
X29690000Y-31600000D02*
G75*
G02*
X29380000Y-31910000I-310000J0D01*
G01*
D12*
X27530000Y-31600000D02*
G75*
G02*
X27470000Y-31600000I-30000J0D01*
G01*
X27470000Y-31600000D02*
G75*
G02*
X27530000Y-31600000I30000J0D01*
G01*
%TO.C,F1*%
D10*
X12230000Y-34060000D02*
X12230000Y-35940000D01*
X12380000Y-36090000D02*
X13570000Y-36090000D01*
X13570000Y-33910000D02*
X12380000Y-33910000D01*
X15430000Y-33910000D02*
X16620000Y-33910000D01*
X16620000Y-36090000D02*
X15430000Y-36090000D01*
X16770000Y-34060000D02*
X16770000Y-35940000D01*
D14*
X14498731Y-34997801D02*
G75*
G02*
X14500000Y-35840000I-728730J-422198D01*
G01*
X14501269Y-35002199D02*
G75*
G02*
X14500000Y-34160000I728731J422199D01*
G01*
D12*
X12930000Y-35800000D02*
G75*
G02*
X12870000Y-35800000I-30000J0D01*
G01*
X12870000Y-35800000D02*
G75*
G02*
X12930000Y-35800000I30000J0D01*
G01*
%TO.C,R4*%
D10*
X31810000Y-32340000D02*
X32770000Y-32340000D01*
X31810000Y-33660000D02*
X31810000Y-32340000D01*
X32770000Y-33660000D02*
X31810000Y-33660000D01*
X33630000Y-33660000D02*
X34590000Y-33660000D01*
X34590000Y-32340000D02*
X33630000Y-32340000D01*
X34590000Y-33660000D02*
X34590000Y-32340000D01*
D12*
X32430000Y-33400000D02*
G75*
G02*
X32370000Y-33400000I-30000J0D01*
G01*
X32370000Y-33400000D02*
G75*
G02*
X32430000Y-33400000I30000J0D01*
G01*
%TO.C,C1B*%
D10*
X19440000Y-51940000D02*
X19440000Y-50060000D01*
X19590000Y-49910000D02*
X21070000Y-49910000D01*
X21070000Y-52090000D02*
X19590000Y-52090000D01*
X22930000Y-52090000D02*
X24410000Y-52090000D01*
X24410000Y-49910000D02*
X22930000Y-49910000D01*
X24560000Y-51940000D02*
X24560000Y-50060000D01*
X19440000Y-50060000D02*
G75*
G02*
X19590000Y-49910000I150000J0D01*
G01*
X19590000Y-52090000D02*
G75*
G02*
X19440000Y-51940000I0J150000D01*
G01*
X24410000Y-49910000D02*
G75*
G02*
X24560000Y-50060000I0J-150000D01*
G01*
X24560000Y-51940000D02*
G75*
G02*
X24410000Y-52090000I-150000J0D01*
G01*
D12*
X20430000Y-51800000D02*
G75*
G02*
X20370000Y-51800000I-30000J0D01*
G01*
X20370000Y-51800000D02*
G75*
G02*
X20430000Y-51800000I30000J0D01*
G01*
%TO.C,U1*%
D10*
X20700000Y-32850000D02*
X20700000Y-36750000D01*
X25660000Y-35340000D02*
X25700000Y-35380000D01*
X25700000Y-32850000D02*
X20700000Y-32850000D01*
X25700000Y-32850000D02*
X25700000Y-34320000D01*
X25700000Y-34320000D02*
X25600000Y-34320000D01*
X25700000Y-35380000D02*
X25700000Y-35620000D01*
X25700000Y-35620000D02*
X25700000Y-36750000D01*
X25700000Y-36750000D02*
X20700000Y-36750000D01*
X25120000Y-34800000D02*
G75*
G02*
X25600000Y-34320000I480001J-1D01*
G01*
X25660000Y-35340000D02*
G75*
G02*
X25120751Y-34791522I-40000J500000D01*
G01*
X25400000Y-33540000D02*
G75*
G02*
X24840000Y-33540000I-280000J0D01*
G01*
X24840000Y-33540000D02*
G75*
G02*
X25400000Y-33540000I280000J0D01*
G01*
D12*
X25680000Y-31800000D02*
G75*
G02*
X25620000Y-31800000I-30000J0D01*
G01*
X25620000Y-31800000D02*
G75*
G02*
X25680000Y-31800000I30000J0D01*
G01*
%TO.C,J2*%
D11*
X46800000Y-35880000D02*
X57500000Y-35880000D01*
X46800000Y-46040000D02*
X46800000Y-35880000D01*
X48610000Y-35280000D02*
X48890000Y-35880000D01*
X48610000Y-35280000D02*
X49610000Y-35280000D01*
X49610000Y-35280000D02*
X49330000Y-35880000D01*
X55810000Y-35280000D02*
X56810000Y-35280000D01*
X56090000Y-35880000D02*
X55810000Y-35280000D01*
X56540000Y-35880000D02*
X56810000Y-35280000D01*
X57500000Y-35880000D02*
X57500000Y-46040000D01*
X57500000Y-46040000D02*
X46800000Y-46040000D01*
D12*
X57530000Y-46040000D02*
G75*
G02*
X57470000Y-46040000I-30000J0D01*
G01*
X57470000Y-46040000D02*
G75*
G02*
X57530000Y-46040000I30000J0D01*
G01*
D13*
G36*
X55199994Y-39419998D02*
G01*
X54199996Y-38420000D01*
X55199994Y-37420002D01*
X55199994Y-39419998D01*
G37*
G36*
X55199994Y-44499998D02*
G01*
X54199996Y-43500000D01*
X55199994Y-42500002D01*
X55199994Y-44499998D01*
G37*
G36*
X57199990Y-38919999D02*
G01*
X55199994Y-38919999D01*
X55199994Y-37920001D01*
X57199990Y-37920001D01*
X57199990Y-38919999D01*
G37*
G36*
X57199990Y-43999999D02*
G01*
X55199994Y-43999999D01*
X55199994Y-43000001D01*
X57199990Y-43000001D01*
X57199990Y-43999999D01*
G37*
%TO.C,J3*%
D15*
X16860000Y-27880000D02*
X18770000Y-27880000D01*
X16860000Y-30420000D02*
X16860000Y-27880000D01*
X21940000Y-27880000D02*
X18770000Y-27880000D01*
X21940000Y-27880000D02*
X21940000Y-30420000D01*
X21940000Y-30420000D02*
X16860000Y-30420000D01*
D12*
X16890000Y-30420000D02*
G75*
G02*
X16830000Y-30420000I-30000J0D01*
G01*
X16830000Y-30420000D02*
G75*
G02*
X16890000Y-30420000I30000J0D01*
G01*
%TO.C,R2B*%
D10*
X45690000Y-32320000D02*
X47050000Y-32320000D01*
X45690000Y-34480000D02*
X45690000Y-32320000D01*
X47050000Y-34480000D02*
X45690000Y-34480000D01*
X48950000Y-34480000D02*
X50310000Y-34480000D01*
X50310000Y-32320000D02*
X48950000Y-32320000D01*
X50310000Y-34480000D02*
X50310000Y-32320000D01*
D12*
X46480000Y-34190000D02*
G75*
G02*
X46420000Y-34190000I-30000J0D01*
G01*
X46420000Y-34190000D02*
G75*
G02*
X46480000Y-34190000I30000J0D01*
G01*
%TO.C,C1A*%
D10*
X25540000Y-48140000D02*
X25540000Y-46260000D01*
X25690000Y-46110000D02*
X27170000Y-46110000D01*
X27170000Y-48290000D02*
X25690000Y-48290000D01*
X29030000Y-48290000D02*
X30510000Y-48290000D01*
X30510000Y-46110000D02*
X29030000Y-46110000D01*
X30660000Y-48140000D02*
X30660000Y-46260000D01*
X25540000Y-46260000D02*
G75*
G02*
X25690000Y-46110000I150000J0D01*
G01*
X25690000Y-48290000D02*
G75*
G02*
X25540000Y-48140000I0J150000D01*
G01*
X30510000Y-46110000D02*
G75*
G02*
X30660000Y-46260000I0J-150000D01*
G01*
X30660000Y-48140000D02*
G75*
G02*
X30510000Y-48290000I-150000J0D01*
G01*
D12*
X26530000Y-48000000D02*
G75*
G02*
X26470000Y-48000000I-30000J0D01*
G01*
X26470000Y-48000000D02*
G75*
G02*
X26530000Y-48000000I30000J0D01*
G01*
%TO.C,R14*%
D10*
X31610000Y-38440000D02*
X32570000Y-38440000D01*
X31610000Y-39760000D02*
X31610000Y-38440000D01*
X32570000Y-39760000D02*
X31610000Y-39760000D01*
X33430000Y-39760000D02*
X34390000Y-39760000D01*
X34390000Y-38440000D02*
X33430000Y-38440000D01*
X34390000Y-39760000D02*
X34390000Y-38440000D01*
D12*
X32230000Y-39500000D02*
G75*
G02*
X32170000Y-39500000I-30000J0D01*
G01*
X32170000Y-39500000D02*
G75*
G02*
X32230000Y-39500000I30000J0D01*
G01*
%TO.C,R6*%
D10*
X25610000Y-49640000D02*
X26570000Y-49640000D01*
X25610000Y-50960000D02*
X25610000Y-49640000D01*
X26570000Y-50960000D02*
X25610000Y-50960000D01*
X27430000Y-50960000D02*
X28390000Y-50960000D01*
X28390000Y-49640000D02*
X27430000Y-49640000D01*
X28390000Y-50960000D02*
X28390000Y-49640000D01*
D12*
X26230000Y-50700000D02*
G75*
G02*
X26170000Y-50700000I-30000J0D01*
G01*
X26170000Y-50700000D02*
G75*
G02*
X26230000Y-50700000I30000J0D01*
G01*
%TO.C,R3*%
D10*
X31810000Y-35340000D02*
X32770000Y-35340000D01*
X31810000Y-36660000D02*
X31810000Y-35340000D01*
X32770000Y-36660000D02*
X31810000Y-36660000D01*
X33630000Y-36660000D02*
X34590000Y-36660000D01*
X34590000Y-35340000D02*
X33630000Y-35340000D01*
X34590000Y-36660000D02*
X34590000Y-35340000D01*
D12*
X32430000Y-36400000D02*
G75*
G02*
X32370000Y-36400000I-30000J0D01*
G01*
X32370000Y-36400000D02*
G75*
G02*
X32430000Y-36400000I30000J0D01*
G01*
%TO.C,D1*%
D15*
X19350000Y-48250000D02*
X19350000Y-46150000D01*
X21450000Y-48250000D02*
X21450000Y-46150000D01*
D11*
X19420000Y-48500000D02*
G75*
G02*
X19300000Y-48500000I-60000J0D01*
G01*
X19300000Y-48500000D02*
G75*
G02*
X19420000Y-48500000I60000J0D01*
G01*
D12*
X19430000Y-48200000D02*
G75*
G02*
X19370000Y-48200000I-30000J0D01*
G01*
X19370000Y-48200000D02*
G75*
G02*
X19430000Y-48200000I30000J0D01*
G01*
%TO.C,Q1*%
D16*
X29400000Y-53150000D02*
X29400000Y-51850000D01*
X29440000Y-51850000D02*
X29400000Y-51850000D01*
X29440000Y-53150000D02*
X29400000Y-53150000D01*
X31600000Y-51850000D02*
X31560000Y-51850000D01*
X31600000Y-53150000D02*
X31560000Y-53150000D01*
X31600000Y-53150000D02*
X31600000Y-51850000D01*
D12*
X31600000Y-51450000D02*
G75*
G02*
X31540000Y-51450000I-30000J0D01*
G01*
X31540000Y-51450000D02*
G75*
G02*
X31600000Y-51450000I30000J0D01*
G01*
D11*
X31710000Y-51470000D02*
G75*
G02*
X31530000Y-51470000I-90000J0D01*
G01*
X31530000Y-51470000D02*
G75*
G02*
X31710000Y-51470000I90000J0D01*
G01*
%TO.C,R12*%
D10*
X37110000Y-50840000D02*
X38070000Y-50840000D01*
X37110000Y-52160000D02*
X37110000Y-50840000D01*
X38070000Y-52160000D02*
X37110000Y-52160000D01*
X38930000Y-52160000D02*
X39890000Y-52160000D01*
X39890000Y-50840000D02*
X38930000Y-50840000D01*
X39890000Y-52160000D02*
X39890000Y-50840000D01*
D12*
X37730000Y-51900000D02*
G75*
G02*
X37670000Y-51900000I-30000J0D01*
G01*
X37670000Y-51900000D02*
G75*
G02*
X37730000Y-51900000I30000J0D01*
G01*
%TD*%
M02*
