%TF.GenerationSoftware,KiCad,Pcbnew,10.0.3*%
%TF.CreationDate,2026-07-28T11:55:55-07:00*%
%TF.ProjectId,pd-trigger,70642d74-7269-4676-9765-722e6b696361,rev?*%
%TF.SameCoordinates,Original*%
%TF.FileFunction,Copper,L2,Bot*%
%TF.FilePolarity,Positive*%
%FSLAX46Y46*%
G04 Gerber Fmt 4.6, Leading zero omitted, Abs format (unit mm)*
G04 Created by KiCad (PCBNEW 10.0.3) date 2026-07-28 11:55:55*
%MOMM*%
%LPD*%
G01*
G04 APERTURE LIST*
%TA.AperFunction,ComponentPad*%
%ADD10O,2.100000X1.000000*%
%TD*%
%TA.AperFunction,ComponentPad*%
%ADD11O,1.800000X1.000000*%
%TD*%
%TA.AperFunction,ComponentPad*%
%ADD12C,2.400000*%
%TD*%
%TA.AperFunction,ComponentPad*%
%ADD13R,1.800000X1.800000*%
%TD*%
%TA.AperFunction,ComponentPad*%
%ADD14C,1.800000*%
%TD*%
%TA.AperFunction,ViaPad*%
%ADD15C,0.600000*%
%TD*%
%TA.AperFunction,Conductor*%
%ADD16C,0.200000*%
%TD*%
%TA.AperFunction,Conductor*%
%ADD17C,0.300000*%
%TD*%
G04 APERTURE END LIST*
D10*
%TO.P,J1,1*%
%TO.N,GND*%
X17050000Y-38190000D03*
D11*
%TO.P,J1,2*%
X12870000Y-38190000D03*
%TO.P,J1,3*%
X12870000Y-46830000D03*
D10*
%TO.P,J1,4*%
X17050000Y-46830000D03*
%TD*%
D12*
%TO.P,J2,1*%
%TO.N,VBUS*%
X52200000Y-43500000D03*
%TO.P,J2,2*%
%TO.N,GND*%
X52200000Y-38420000D03*
%TD*%
D13*
%TO.P,J3,1*%
%TO.N,/VAUX*%
X18130000Y-29150000D03*
D14*
%TO.P,J3,2*%
%TO.N,GND*%
X20670000Y-29150000D03*
%TD*%
D15*
%TO.N,GND*%
X13200000Y-45800000D03*
X14400000Y-37100000D03*
X15600000Y-39200000D03*
X15600000Y-45800000D03*
X24300000Y-48130100D03*
X17830000Y-39200000D03*
X43107900Y-28337700D03*
X21050000Y-49400000D03*
X24240000Y-51000000D03*
X14800000Y-45800000D03*
X28488000Y-47736500D03*
X24400000Y-34800000D03*
X18878000Y-45814000D03*
X16800000Y-37100000D03*
X14700000Y-46830000D03*
X15200000Y-37100000D03*
X17600000Y-37100000D03*
X38531500Y-28837500D03*
X29000000Y-32107500D03*
X15500000Y-46830000D03*
X31150000Y-50768300D03*
X29850000Y-54214500D03*
X36689000Y-28590000D03*
X22000000Y-34800000D03*
X21050000Y-47200000D03*
X14000000Y-45800000D03*
X47700000Y-56475400D03*
X20400000Y-48830000D03*
X17750000Y-45800000D03*
X18878000Y-48536700D03*
X23200000Y-34800000D03*
X16000000Y-37100000D03*
X14800000Y-39200000D03*
X27750000Y-53813400D03*
X22000000Y-50746200D03*
X19750000Y-49400000D03*
%TO.N,/CC1*%
X21938600Y-39080700D03*
X16578300Y-41982800D03*
%TO.N,/CC2*%
X22254100Y-40110300D03*
X16079400Y-44353700D03*
%TO.N,/VIND*%
X45600000Y-30800000D03*
X50338000Y-31000000D03*
%TO.N,/VAUX*%
X15957800Y-33518200D03*
X16850000Y-33518200D03*
%TD*%
%TO.N,/CC1*%
D16*
X19480400Y-39080700D02*
X21938600Y-39080700D01*
X16578300Y-41982800D02*
X19480400Y-39080700D01*
%TO.N,/CC2*%
X22254100Y-40110300D02*
X20322800Y-40110300D01*
X20322800Y-40110300D02*
X16079400Y-44353700D01*
%TO.N,/VIND*%
X50338000Y-31000000D02*
X45600000Y-30800000D01*
%TO.N,/VAUX*%
D17*
X18130000Y-29150000D02*
X18130000Y-30401700D01*
X15957800Y-32573900D02*
X15957800Y-33518200D01*
X15957800Y-33518200D02*
X16850000Y-33518200D01*
X18130000Y-30401700D02*
X15957800Y-32573900D01*
%TD*%
%TA.AperFunction,Conductor*%
%TO.N,GND*%
G36*
X17042132Y-28029685D02*
G01*
X17087887Y-28082489D01*
X17097831Y-28151647D01*
X17089653Y-28181455D01*
X17085971Y-28190343D01*
X17077100Y-28234940D01*
X17077100Y-30065054D01*
X17085972Y-30109658D01*
X17085973Y-30109661D01*
X17119765Y-30160233D01*
X17119766Y-30160234D01*
X17170342Y-30194028D01*
X17170343Y-30194028D01*
X17170345Y-30194029D01*
X17192642Y-30198464D01*
X17214943Y-30202900D01*
X17601073Y-30202899D01*
X17668111Y-30222583D01*
X17713866Y-30275387D01*
X17723810Y-30344546D01*
X17694785Y-30408101D01*
X17688753Y-30414580D01*
X15715420Y-32387913D01*
X15715418Y-32387916D01*
X15675542Y-32456984D01*
X15675542Y-32456985D01*
X15654899Y-32534022D01*
X15654899Y-32534024D01*
X15654899Y-32623767D01*
X15654900Y-32623780D01*
X15654900Y-33129241D01*
X15635215Y-33196280D01*
X15618581Y-33216922D01*
X15595392Y-33240110D01*
X15595390Y-33240113D01*
X15535764Y-33343385D01*
X15504900Y-33458575D01*
X15504900Y-33577824D01*
X15535764Y-33693014D01*
X15565577Y-33744650D01*
X15595390Y-33796287D01*
X15679713Y-33880610D01*
X15782987Y-33940236D01*
X15898175Y-33971100D01*
X15898177Y-33971100D01*
X16017423Y-33971100D01*
X16017425Y-33971100D01*
X16132613Y-33940236D01*
X16235887Y-33880610D01*
X16259078Y-33857419D01*
X16286005Y-33842715D01*
X16311824Y-33826123D01*
X16318024Y-33825231D01*
X16320401Y-33823934D01*
X16346759Y-33821100D01*
X16461041Y-33821100D01*
X16528080Y-33840785D01*
X16548722Y-33857419D01*
X16571913Y-33880610D01*
X16675187Y-33940236D01*
X16790375Y-33971100D01*
X16790377Y-33971100D01*
X16909623Y-33971100D01*
X16909625Y-33971100D01*
X17024813Y-33940236D01*
X17128087Y-33880610D01*
X17212410Y-33796287D01*
X17272036Y-33693013D01*
X17302900Y-33577825D01*
X17302900Y-33458575D01*
X17272036Y-33343387D01*
X17212410Y-33240113D01*
X17128087Y-33155790D01*
X17076450Y-33125977D01*
X17024814Y-33096164D01*
X16967219Y-33080732D01*
X16909625Y-33065300D01*
X16790375Y-33065300D01*
X16675185Y-33096164D01*
X16571913Y-33155790D01*
X16571910Y-33155792D01*
X16548722Y-33178981D01*
X16521794Y-33193684D01*
X16495976Y-33210277D01*
X16489775Y-33211168D01*
X16487399Y-33212466D01*
X16461041Y-33215300D01*
X16384700Y-33215300D01*
X16317661Y-33195615D01*
X16271906Y-33142811D01*
X16260700Y-33091300D01*
X16260700Y-32750726D01*
X16280385Y-32683687D01*
X16297014Y-32663050D01*
X18219688Y-30740375D01*
X45147100Y-30740375D01*
X45147100Y-30859624D01*
X45177964Y-30974814D01*
X45207777Y-31026450D01*
X45237590Y-31078087D01*
X45321913Y-31162410D01*
X45425187Y-31222036D01*
X45540375Y-31252900D01*
X45540377Y-31252900D01*
X45659623Y-31252900D01*
X45659625Y-31252900D01*
X45774813Y-31222036D01*
X45878087Y-31162410D01*
X45933180Y-31107316D01*
X45994499Y-31073834D01*
X46026087Y-31071110D01*
X49885786Y-31234035D01*
X49951933Y-31256530D01*
X49969138Y-31273044D01*
X49969843Y-31272340D01*
X49975589Y-31278086D01*
X49975590Y-31278087D01*
X50059913Y-31362410D01*
X50163187Y-31422036D01*
X50278375Y-31452900D01*
X50278377Y-31452900D01*
X50397623Y-31452900D01*
X50397625Y-31452900D01*
X50512813Y-31422036D01*
X50616087Y-31362410D01*
X50700410Y-31278087D01*
X50760036Y-31174813D01*
X50790900Y-31059625D01*
X50790900Y-30940375D01*
X50760036Y-30825187D01*
X50700410Y-30721913D01*
X50616087Y-30637590D01*
X50529652Y-30587686D01*
X50512814Y-30577964D01*
X50455219Y-30562532D01*
X50397625Y-30547100D01*
X50278375Y-30547100D01*
X50163185Y-30577964D01*
X50059913Y-30637590D01*
X50004821Y-30692681D01*
X49943497Y-30726165D01*
X49911911Y-30728888D01*
X46052215Y-30565963D01*
X45986066Y-30543468D01*
X45968860Y-30526956D01*
X45968157Y-30527660D01*
X45878089Y-30437592D01*
X45878087Y-30437590D01*
X45826450Y-30407777D01*
X45774814Y-30377964D01*
X45714554Y-30361818D01*
X45659625Y-30347100D01*
X45540375Y-30347100D01*
X45425185Y-30377964D01*
X45321913Y-30437590D01*
X45321910Y-30437592D01*
X45237592Y-30521910D01*
X45237590Y-30521913D01*
X45177964Y-30625185D01*
X45147100Y-30740375D01*
X18219688Y-30740375D01*
X18305775Y-30654288D01*
X18305780Y-30654285D01*
X18315499Y-30644567D01*
X18334881Y-30625185D01*
X18372381Y-30587685D01*
X18412258Y-30518615D01*
X18432901Y-30441578D01*
X18432901Y-30361822D01*
X18432901Y-30354227D01*
X18432900Y-30354209D01*
X18432900Y-30326899D01*
X18452585Y-30259860D01*
X18505389Y-30214105D01*
X18556900Y-30202899D01*
X19045055Y-30202899D01*
X19045056Y-30202899D01*
X19089658Y-30194028D01*
X19140234Y-30160234D01*
X19174028Y-30109658D01*
X19182900Y-30065057D01*
X19182899Y-29831661D01*
X19202583Y-29764624D01*
X19255387Y-29718869D01*
X19324546Y-29708925D01*
X19388101Y-29737950D01*
X19417384Y-29775368D01*
X19472611Y-29883756D01*
X19518932Y-29947513D01*
X20146202Y-29320243D01*
X20157470Y-29362297D01*
X20229881Y-29487715D01*
X20332285Y-29590119D01*
X20457703Y-29662530D01*
X20499754Y-29673797D01*
X19872485Y-30301065D01*
X19872485Y-30301066D01*
X19936243Y-30347388D01*
X20132589Y-30447432D01*
X20342164Y-30515526D01*
X20559819Y-30550000D01*
X20780181Y-30550000D01*
X20997835Y-30515526D01*
X21207410Y-30447432D01*
X21403760Y-30347386D01*
X21467513Y-30301066D01*
X21467514Y-30301066D01*
X20840244Y-29673797D01*
X20882297Y-29662530D01*
X21007715Y-29590119D01*
X21110119Y-29487715D01*
X21182530Y-29362297D01*
X21193797Y-29320244D01*
X21821066Y-29947514D01*
X21821066Y-29947513D01*
X21867386Y-29883760D01*
X21967432Y-29687410D01*
X22035526Y-29477835D01*
X22070000Y-29260181D01*
X22070000Y-29039818D01*
X22035526Y-28822164D01*
X21967432Y-28612589D01*
X21867388Y-28416243D01*
X21821066Y-28352485D01*
X21821065Y-28352485D01*
X21193797Y-28979754D01*
X21182530Y-28937703D01*
X21110119Y-28812285D01*
X21007715Y-28709881D01*
X20882297Y-28637470D01*
X20840243Y-28626201D01*
X21456446Y-28010000D01*
X21693745Y-28010000D01*
X57176000Y-28010000D01*
X57243039Y-28029685D01*
X57288794Y-28082489D01*
X57300000Y-28134000D01*
X57300000Y-56886000D01*
X57280315Y-56953039D01*
X57227511Y-56998794D01*
X57176000Y-57010000D01*
X10424000Y-57010000D01*
X10356961Y-56990315D01*
X10311206Y-56937511D01*
X10300000Y-56886000D01*
X10300000Y-46580000D01*
X11500138Y-46580000D01*
X12303014Y-46580000D01*
X12285796Y-46589941D01*
X12229941Y-46645796D01*
X12190445Y-46714205D01*
X12170001Y-46790504D01*
X12170001Y-46869496D01*
X12190445Y-46945795D01*
X12229941Y-47014204D01*
X12285796Y-47070059D01*
X12303014Y-47080000D01*
X11500138Y-47080000D01*
X11508430Y-47121690D01*
X11508430Y-47121692D01*
X11583807Y-47303671D01*
X11583814Y-47303684D01*
X11693248Y-47467462D01*
X11693251Y-47467466D01*
X11832533Y-47606748D01*
X11832537Y-47606751D01*
X11996315Y-47716185D01*
X11996328Y-47716192D01*
X12178306Y-47791569D01*
X12178318Y-47791572D01*
X12371504Y-47829999D01*
X12371508Y-47830000D01*
X12620000Y-47830000D01*
X12620000Y-47129999D01*
X13120000Y-47129999D01*
X13120000Y-47830000D01*
X13368492Y-47830000D01*
X13368495Y-47829999D01*
X13561681Y-47791572D01*
X13561693Y-47791569D01*
X13743671Y-47716192D01*
X13743684Y-47716185D01*
X13907462Y-47606751D01*
X13907466Y-47606748D01*
X14046748Y-47467466D01*
X14046751Y-47467462D01*
X14156185Y-47303684D01*
X14156192Y-47303671D01*
X14231569Y-47121692D01*
X14231569Y-47121690D01*
X14239862Y-47080000D01*
X13436986Y-47080000D01*
X13454204Y-47070059D01*
X13510059Y-47014204D01*
X13549555Y-46945795D01*
X13569999Y-46869496D01*
X13569999Y-46790504D01*
X13549555Y-46714205D01*
X13510059Y-46645796D01*
X13454204Y-46589941D01*
X13436986Y-46580000D01*
X14239862Y-46580000D01*
X15530138Y-46580000D01*
X16333014Y-46580000D01*
X16315796Y-46589941D01*
X16259941Y-46645796D01*
X16220445Y-46714205D01*
X16200001Y-46790504D01*
X16200001Y-46869496D01*
X16220445Y-46945795D01*
X16259941Y-47014204D01*
X16315796Y-47070059D01*
X16333014Y-47080000D01*
X15530138Y-47080000D01*
X15538430Y-47121690D01*
X15538430Y-47121692D01*
X15613807Y-47303671D01*
X15613814Y-47303684D01*
X15723248Y-47467462D01*
X15723251Y-47467466D01*
X15862533Y-47606748D01*
X15862537Y-47606751D01*
X16026315Y-47716185D01*
X16026328Y-47716192D01*
X16208306Y-47791569D01*
X16208318Y-47791572D01*
X16401504Y-47829999D01*
X16401508Y-47830000D01*
X16800000Y-47830000D01*
X16800000Y-47129999D01*
X17300000Y-47129999D01*
X17300000Y-47830000D01*
X17698492Y-47830000D01*
X17698495Y-47829999D01*
X17891681Y-47791572D01*
X17891693Y-47791569D01*
X18073671Y-47716192D01*
X18073684Y-47716185D01*
X18237462Y-47606751D01*
X18237466Y-47606748D01*
X18376748Y-47467466D01*
X18376751Y-47467462D01*
X18486185Y-47303684D01*
X18486192Y-47303671D01*
X18561569Y-47121692D01*
X18561569Y-47121690D01*
X18569862Y-47080000D01*
X17766986Y-47080000D01*
X17784204Y-47070059D01*
X17840059Y-47014204D01*
X17879555Y-46945795D01*
X17899999Y-46869496D01*
X17899999Y-46790504D01*
X17879555Y-46714205D01*
X17840059Y-46645796D01*
X17784204Y-46589941D01*
X17766986Y-46580000D01*
X18569862Y-46580000D01*
X18561569Y-46538309D01*
X18561569Y-46538307D01*
X18486192Y-46356328D01*
X18486185Y-46356315D01*
X18376751Y-46192537D01*
X18376748Y-46192533D01*
X18237466Y-46053251D01*
X18237462Y-46053248D01*
X18073684Y-45943814D01*
X18073671Y-45943807D01*
X17891693Y-45868430D01*
X17891681Y-45868427D01*
X17698495Y-45830000D01*
X17300000Y-45830000D01*
X17300000Y-46530001D01*
X16800000Y-46530001D01*
X16800000Y-45991784D01*
X16819685Y-45924745D01*
X16862000Y-45884397D01*
X16903365Y-45860515D01*
X17010515Y-45753365D01*
X17011372Y-45751879D01*
X17031721Y-45716637D01*
X17086279Y-45622138D01*
X17086281Y-45622135D01*
X17125500Y-45475766D01*
X17125500Y-45324234D01*
X17086281Y-45177865D01*
X17010515Y-45046635D01*
X16903365Y-44939485D01*
X16798757Y-44879089D01*
X16772136Y-44863719D01*
X16698950Y-44844109D01*
X16625766Y-44824500D01*
X16545321Y-44824500D01*
X16478282Y-44804815D01*
X16432527Y-44752011D01*
X16422583Y-44682853D01*
X16437934Y-44638499D01*
X16441808Y-44631788D01*
X16441810Y-44631787D01*
X16501436Y-44528513D01*
X16532300Y-44413325D01*
X16532300Y-44309815D01*
X16551985Y-44242776D01*
X16568619Y-44222134D01*
X17397229Y-43393524D01*
X50847100Y-43393524D01*
X50847100Y-43606476D01*
X50880413Y-43816805D01*
X50937107Y-43991290D01*
X50946220Y-44019335D01*
X51042899Y-44209077D01*
X51168060Y-44381348D01*
X51168064Y-44381353D01*
X51318646Y-44531935D01*
X51318651Y-44531939D01*
X51456080Y-44631786D01*
X51490926Y-44657103D01*
X51680667Y-44753781D01*
X51883195Y-44819587D01*
X52093524Y-44852900D01*
X52093525Y-44852900D01*
X52306475Y-44852900D01*
X52306476Y-44852900D01*
X52516805Y-44819587D01*
X52719333Y-44753781D01*
X52909074Y-44657103D01*
X53081355Y-44531934D01*
X53231934Y-44381355D01*
X53357103Y-44209074D01*
X53453781Y-44019333D01*
X53519587Y-43816805D01*
X53552900Y-43606476D01*
X53552900Y-43393524D01*
X53519587Y-43183195D01*
X53453781Y-42980667D01*
X53357103Y-42790926D01*
X53341111Y-42768915D01*
X53231939Y-42618651D01*
X53231935Y-42618646D01*
X53081353Y-42468064D01*
X53081348Y-42468060D01*
X52909077Y-42342899D01*
X52909076Y-42342898D01*
X52909074Y-42342897D01*
X52719333Y-42246219D01*
X52516805Y-42180413D01*
X52516803Y-42180412D01*
X52516802Y-42180412D01*
X52355232Y-42154822D01*
X52306476Y-42147100D01*
X52093524Y-42147100D01*
X52044767Y-42154822D01*
X51883198Y-42180412D01*
X51680664Y-42246220D01*
X51490922Y-42342899D01*
X51318651Y-42468060D01*
X51318646Y-42468064D01*
X51168064Y-42618646D01*
X51168060Y-42618651D01*
X51042899Y-42790922D01*
X50946220Y-42980664D01*
X50880412Y-43183198D01*
X50861759Y-43300971D01*
X50847100Y-43393524D01*
X17397229Y-43393524D01*
X17489782Y-43300971D01*
X18529865Y-42260889D01*
X20391235Y-40399519D01*
X20452558Y-40366034D01*
X20478916Y-40363200D01*
X21815141Y-40363200D01*
X21882180Y-40382885D01*
X21902822Y-40399519D01*
X21976013Y-40472710D01*
X22079287Y-40532336D01*
X22194475Y-40563200D01*
X22194477Y-40563200D01*
X22313723Y-40563200D01*
X22313725Y-40563200D01*
X22428913Y-40532336D01*
X22532187Y-40472710D01*
X22616510Y-40388387D01*
X22676136Y-40285113D01*
X22707000Y-40169925D01*
X22707000Y-40050675D01*
X22676136Y-39935487D01*
X22616510Y-39832213D01*
X22532187Y-39747890D01*
X22441907Y-39695766D01*
X22428914Y-39688264D01*
X22371319Y-39672832D01*
X22313725Y-39657400D01*
X22301759Y-39657400D01*
X22234720Y-39637715D01*
X22188965Y-39584911D01*
X22179021Y-39515753D01*
X22208046Y-39452197D01*
X22214078Y-39445719D01*
X22227394Y-39432403D01*
X22301010Y-39358787D01*
X22360636Y-39255513D01*
X22391500Y-39140325D01*
X22391500Y-39021075D01*
X22360636Y-38905887D01*
X22301010Y-38802613D01*
X22216687Y-38718290D01*
X22165050Y-38688477D01*
X22113414Y-38658664D01*
X22055819Y-38643232D01*
X21998225Y-38627800D01*
X21878975Y-38627800D01*
X21763785Y-38658664D01*
X21660513Y-38718290D01*
X21660510Y-38718292D01*
X21587322Y-38791481D01*
X21525999Y-38824966D01*
X21499641Y-38827800D01*
X19545147Y-38827800D01*
X19545139Y-38827799D01*
X19530705Y-38827799D01*
X19430095Y-38827799D01*
X19430093Y-38827799D01*
X19391593Y-38843747D01*
X19337143Y-38866300D01*
X19261670Y-38941774D01*
X19261660Y-38941784D01*
X16709864Y-41493581D01*
X16648541Y-41527066D01*
X16622183Y-41529900D01*
X16518675Y-41529900D01*
X16403485Y-41560764D01*
X16300213Y-41620390D01*
X16300210Y-41620392D01*
X16215892Y-41704710D01*
X16215890Y-41704713D01*
X16156264Y-41807985D01*
X16125400Y-41923175D01*
X16125400Y-42042424D01*
X16156264Y-42157614D01*
X16186077Y-42209250D01*
X16215890Y-42260887D01*
X16300213Y-42345210D01*
X16403487Y-42404836D01*
X16518675Y-42435700D01*
X16518677Y-42435700D01*
X16637923Y-42435700D01*
X16637925Y-42435700D01*
X16753113Y-42404836D01*
X16856387Y-42345210D01*
X16940710Y-42260887D01*
X17000336Y-42157613D01*
X17031200Y-42042425D01*
X17031200Y-41938915D01*
X17050885Y-41871876D01*
X17067519Y-41851234D01*
X19548835Y-39369919D01*
X19610158Y-39336434D01*
X19636516Y-39333600D01*
X21499641Y-39333600D01*
X21566680Y-39353285D01*
X21587322Y-39369919D01*
X21660513Y-39443110D01*
X21763787Y-39502736D01*
X21878975Y-39533600D01*
X21878977Y-39533600D01*
X21890941Y-39533600D01*
X21912186Y-39539838D01*
X21934275Y-39541418D01*
X21945058Y-39549490D01*
X21957980Y-39553285D01*
X21972479Y-39570018D01*
X21990208Y-39583290D01*
X21994915Y-39595910D01*
X22003735Y-39606089D01*
X22006886Y-39628006D01*
X22014625Y-39648754D01*
X22011762Y-39661914D01*
X22013679Y-39675247D01*
X22004479Y-39695390D01*
X21999773Y-39717027D01*
X21986504Y-39734752D01*
X21984654Y-39738803D01*
X21978622Y-39745281D01*
X21902822Y-39821081D01*
X21841499Y-39854566D01*
X21815141Y-39857400D01*
X20387547Y-39857400D01*
X20387539Y-39857399D01*
X20373105Y-39857399D01*
X20272495Y-39857399D01*
X20272493Y-39857399D01*
X20233993Y-39873347D01*
X20179543Y-39895900D01*
X20104070Y-39971374D01*
X20104060Y-39971384D01*
X16210964Y-43864481D01*
X16149641Y-43897966D01*
X16123283Y-43900800D01*
X16019775Y-43900800D01*
X15904585Y-43931664D01*
X15801313Y-43991290D01*
X15801310Y-43991292D01*
X15716992Y-44075610D01*
X15716990Y-44075613D01*
X15657364Y-44178885D01*
X15626500Y-44294075D01*
X15626500Y-44413324D01*
X15657364Y-44528514D01*
X15687177Y-44580150D01*
X15716990Y-44631787D01*
X15801313Y-44716110D01*
X15904587Y-44775736D01*
X16019775Y-44806600D01*
X16019777Y-44806600D01*
X16030158Y-44806600D01*
X16097197Y-44826285D01*
X16142952Y-44879089D01*
X16152896Y-44948247D01*
X16123871Y-45011803D01*
X16117839Y-45018281D01*
X16089487Y-45046632D01*
X16089485Y-45046635D01*
X16013719Y-45177863D01*
X15974500Y-45324234D01*
X15974500Y-45475765D01*
X16013719Y-45622136D01*
X16053153Y-45690437D01*
X16089485Y-45753365D01*
X16089486Y-45753366D01*
X16093549Y-45760403D01*
X16091346Y-45761674D01*
X16111959Y-45814983D01*
X16097923Y-45883428D01*
X16049112Y-45933420D01*
X16035845Y-45939866D01*
X16026324Y-45943809D01*
X16026315Y-45943814D01*
X15862537Y-46053248D01*
X15862533Y-46053251D01*
X15723251Y-46192533D01*
X15723248Y-46192537D01*
X15613814Y-46356315D01*
X15613807Y-46356328D01*
X15538430Y-46538307D01*
X15538430Y-46538309D01*
X15530138Y-46580000D01*
X14239862Y-46580000D01*
X14231569Y-46538309D01*
X14231569Y-46538307D01*
X14156192Y-46356328D01*
X14156185Y-46356315D01*
X14046751Y-46192537D01*
X14046748Y-46192533D01*
X13907466Y-46053251D01*
X13907462Y-46053248D01*
X13743684Y-45943814D01*
X13743671Y-45943807D01*
X13561693Y-45868430D01*
X13561681Y-45868427D01*
X13368495Y-45830000D01*
X13120000Y-45830000D01*
X13120000Y-46530001D01*
X12620000Y-46530001D01*
X12620000Y-45830000D01*
X12371504Y-45830000D01*
X12178318Y-45868427D01*
X12178306Y-45868430D01*
X11996328Y-45943807D01*
X11996315Y-45943814D01*
X11832537Y-46053248D01*
X11832533Y-46053251D01*
X11693251Y-46192533D01*
X11693248Y-46192537D01*
X11583814Y-46356315D01*
X11583807Y-46356328D01*
X11508430Y-46538307D01*
X11508430Y-46538309D01*
X11500138Y-46580000D01*
X10300000Y-46580000D01*
X10300000Y-37940000D01*
X11500138Y-37940000D01*
X12303014Y-37940000D01*
X12285796Y-37949941D01*
X12229941Y-38005796D01*
X12190445Y-38074205D01*
X12170001Y-38150504D01*
X12170001Y-38229496D01*
X12190445Y-38305795D01*
X12229941Y-38374204D01*
X12285796Y-38430059D01*
X12303014Y-38440000D01*
X11500138Y-38440000D01*
X11508430Y-38481690D01*
X11508430Y-38481692D01*
X11583807Y-38663671D01*
X11583814Y-38663684D01*
X11693248Y-38827462D01*
X11693251Y-38827466D01*
X11832533Y-38966748D01*
X11832537Y-38966751D01*
X11996315Y-39076185D01*
X11996328Y-39076192D01*
X12178306Y-39151569D01*
X12178318Y-39151572D01*
X12371504Y-39189999D01*
X12371508Y-39190000D01*
X12620000Y-39190000D01*
X12620000Y-38489999D01*
X13120000Y-38489999D01*
X13120000Y-39190000D01*
X13368492Y-39190000D01*
X13368495Y-39189999D01*
X13561681Y-39151572D01*
X13561693Y-39151569D01*
X13743671Y-39076192D01*
X13743684Y-39076185D01*
X13907462Y-38966751D01*
X13907466Y-38966748D01*
X14046748Y-38827466D01*
X14046751Y-38827462D01*
X14156185Y-38663684D01*
X14156192Y-38663671D01*
X14231569Y-38481692D01*
X14231569Y-38481690D01*
X14239862Y-38440000D01*
X13436986Y-38440000D01*
X13454204Y-38430059D01*
X13510059Y-38374204D01*
X13549555Y-38305795D01*
X13569999Y-38229496D01*
X13569999Y-38150504D01*
X13549555Y-38074205D01*
X13510059Y-38005796D01*
X13454204Y-37949941D01*
X13436986Y-37940000D01*
X14239862Y-37940000D01*
X15530138Y-37940000D01*
X16333002Y-37940000D01*
X16315784Y-37949941D01*
X16259929Y-38005796D01*
X16220433Y-38074205D01*
X16199989Y-38150504D01*
X16199989Y-38229496D01*
X16220433Y-38305795D01*
X16259929Y-38374204D01*
X16315784Y-38430059D01*
X16333002Y-38440000D01*
X15530138Y-38440000D01*
X15538430Y-38481690D01*
X15538430Y-38481692D01*
X15613807Y-38663671D01*
X15613814Y-38663684D01*
X15723248Y-38827462D01*
X15723251Y-38827466D01*
X15862533Y-38966748D01*
X15862537Y-38966751D01*
X16026315Y-39076185D01*
X16026328Y-39076192D01*
X16035838Y-39080131D01*
X16090243Y-39123970D01*
X16112310Y-39190264D01*
X16095033Y-39257963D01*
X16091350Y-39263405D01*
X16013719Y-39397863D01*
X15974500Y-39544234D01*
X15974500Y-39695765D01*
X16013719Y-39842136D01*
X16022532Y-39857400D01*
X16089485Y-39973365D01*
X16196635Y-40080515D01*
X16327865Y-40156281D01*
X16474234Y-40195500D01*
X16474236Y-40195500D01*
X16625764Y-40195500D01*
X16625766Y-40195500D01*
X16772135Y-40156281D01*
X16903365Y-40080515D01*
X17010515Y-39973365D01*
X17086281Y-39842135D01*
X17125500Y-39695766D01*
X17125500Y-39544234D01*
X17086281Y-39397865D01*
X17010515Y-39266635D01*
X16903365Y-39159485D01*
X16889654Y-39151569D01*
X16861998Y-39135601D01*
X16813784Y-39085033D01*
X16800000Y-39028215D01*
X16800000Y-38489999D01*
X17300000Y-38489999D01*
X17300000Y-39190000D01*
X17698492Y-39190000D01*
X17698495Y-39189999D01*
X17891681Y-39151572D01*
X17891693Y-39151569D01*
X18073671Y-39076192D01*
X18073684Y-39076185D01*
X18237462Y-38966751D01*
X18237466Y-38966748D01*
X18376748Y-38827466D01*
X18376751Y-38827462D01*
X18486185Y-38663684D01*
X18486192Y-38663671D01*
X18561569Y-38481692D01*
X18561569Y-38481690D01*
X18569862Y-38440000D01*
X17766998Y-38440000D01*
X17784216Y-38430059D01*
X17840071Y-38374204D01*
X17877962Y-38308575D01*
X50500000Y-38308575D01*
X50500000Y-38531424D01*
X50529085Y-38752354D01*
X50529088Y-38752367D01*
X50586763Y-38967618D01*
X50672045Y-39173502D01*
X50672054Y-39173520D01*
X50783464Y-39366491D01*
X50783473Y-39366504D01*
X50834040Y-39432403D01*
X50834043Y-39432403D01*
X51484154Y-38782291D01*
X51491051Y-38798941D01*
X51578601Y-38929969D01*
X51690031Y-39041399D01*
X51821059Y-39128949D01*
X51837707Y-39135844D01*
X51187595Y-39785955D01*
X51187595Y-39785956D01*
X51253507Y-39836533D01*
X51446485Y-39947949D01*
X51446497Y-39947954D01*
X51652381Y-40033236D01*
X51867632Y-40090911D01*
X51867645Y-40090914D01*
X52088575Y-40120000D01*
X52311425Y-40120000D01*
X52532354Y-40090914D01*
X52532367Y-40090911D01*
X52747618Y-40033236D01*
X52953502Y-39947954D01*
X52953514Y-39947949D01*
X53146498Y-39836530D01*
X53212403Y-39785957D01*
X53212404Y-39785956D01*
X52562292Y-39135845D01*
X52578941Y-39128949D01*
X52709969Y-39041399D01*
X52821399Y-38929969D01*
X52908949Y-38798941D01*
X52915845Y-38782292D01*
X53565956Y-39432404D01*
X53565957Y-39432403D01*
X53616530Y-39366498D01*
X53727949Y-39173514D01*
X53727954Y-39173502D01*
X53813236Y-38967618D01*
X53870911Y-38752367D01*
X53870914Y-38752354D01*
X53900000Y-38531424D01*
X53900000Y-38308575D01*
X53870914Y-38087645D01*
X53870911Y-38087632D01*
X53813236Y-37872381D01*
X53727954Y-37666497D01*
X53727949Y-37666485D01*
X53616533Y-37473507D01*
X53565956Y-37407595D01*
X53565955Y-37407595D01*
X52915844Y-38057706D01*
X52908949Y-38041059D01*
X52821399Y-37910031D01*
X52709969Y-37798601D01*
X52578941Y-37711051D01*
X52562291Y-37704154D01*
X53212403Y-37054043D01*
X53212403Y-37054040D01*
X53146504Y-37003473D01*
X53146491Y-37003464D01*
X52953520Y-36892054D01*
X52953502Y-36892045D01*
X52747618Y-36806763D01*
X52532367Y-36749088D01*
X52532354Y-36749085D01*
X52311425Y-36720000D01*
X52088575Y-36720000D01*
X51867645Y-36749085D01*
X51867632Y-36749088D01*
X51652381Y-36806763D01*
X51446497Y-36892045D01*
X51446479Y-36892054D01*
X51253511Y-37003462D01*
X51187595Y-37054042D01*
X51837708Y-37704154D01*
X51821059Y-37711051D01*
X51690031Y-37798601D01*
X51578601Y-37910031D01*
X51491051Y-38041059D01*
X51484154Y-38057707D01*
X50834042Y-37407595D01*
X50783462Y-37473511D01*
X50672054Y-37666479D01*
X50672045Y-37666497D01*
X50586763Y-37872381D01*
X50529088Y-38087632D01*
X50529085Y-38087645D01*
X50500000Y-38308575D01*
X17877962Y-38308575D01*
X17879567Y-38305795D01*
X17900011Y-38229496D01*
X17900011Y-38150504D01*
X17879567Y-38074205D01*
X17840071Y-38005796D01*
X17784216Y-37949941D01*
X17766998Y-37940000D01*
X18569862Y-37940000D01*
X18561569Y-37898309D01*
X18561569Y-37898307D01*
X18486192Y-37716328D01*
X18486185Y-37716315D01*
X18376751Y-37552537D01*
X18376748Y-37552533D01*
X18237466Y-37413251D01*
X18237462Y-37413248D01*
X18073684Y-37303814D01*
X18073671Y-37303807D01*
X17891692Y-37228430D01*
X17867474Y-37223613D01*
X17867470Y-37223611D01*
X17698495Y-37190000D01*
X17300000Y-37190000D01*
X17300000Y-37890001D01*
X16800000Y-37890001D01*
X16800000Y-37190000D01*
X16401504Y-37190000D01*
X16208318Y-37228427D01*
X16208306Y-37228430D01*
X16026328Y-37303807D01*
X16026315Y-37303814D01*
X15862537Y-37413248D01*
X15862533Y-37413251D01*
X15723251Y-37552533D01*
X15723248Y-37552537D01*
X15613814Y-37716315D01*
X15613807Y-37716328D01*
X15538430Y-37898307D01*
X15538430Y-37898309D01*
X15530138Y-37940000D01*
X14239862Y-37940000D01*
X14231569Y-37898309D01*
X14231569Y-37898307D01*
X14156192Y-37716328D01*
X14156185Y-37716315D01*
X14046751Y-37552537D01*
X14046748Y-37552533D01*
X13907466Y-37413251D01*
X13907462Y-37413248D01*
X13743684Y-37303814D01*
X13743671Y-37303807D01*
X13561693Y-37228430D01*
X13561681Y-37228427D01*
X13368495Y-37190000D01*
X13120000Y-37190000D01*
X13120000Y-37890001D01*
X12620000Y-37890001D01*
X12620000Y-37190000D01*
X12371504Y-37190000D01*
X12178318Y-37228427D01*
X12178306Y-37228430D01*
X11996328Y-37303807D01*
X11996315Y-37303814D01*
X11832537Y-37413248D01*
X11832533Y-37413251D01*
X11693251Y-37552533D01*
X11693248Y-37552537D01*
X11583814Y-37716315D01*
X11583807Y-37716328D01*
X11508430Y-37898307D01*
X11508430Y-37898309D01*
X11500138Y-37940000D01*
X10300000Y-37940000D01*
X10300000Y-28134000D01*
X10319685Y-28066961D01*
X10372489Y-28021206D01*
X10424000Y-28010000D01*
X16975093Y-28010000D01*
X17042132Y-28029685D01*
G37*
%TD.AperFunction*%
%TA.AperFunction,Conductor*%
G36*
X20499755Y-28626202D02*
G01*
X20457703Y-28637470D01*
X20332285Y-28709881D01*
X20229881Y-28812285D01*
X20157470Y-28937703D01*
X20146202Y-28979755D01*
X19518932Y-28352485D01*
X19518931Y-28352485D01*
X19472616Y-28416234D01*
X19472614Y-28416237D01*
X19417383Y-28524633D01*
X19369409Y-28575428D01*
X19301587Y-28592223D01*
X19235453Y-28569685D01*
X19192002Y-28514970D01*
X19182899Y-28468337D01*
X19182899Y-28234945D01*
X19182898Y-28234940D01*
X19174028Y-28190342D01*
X19174026Y-28190339D01*
X19174026Y-28190338D01*
X19170344Y-28181446D01*
X19162879Y-28111976D01*
X19194158Y-28049499D01*
X19254249Y-28013850D01*
X19284908Y-28010000D01*
X19646254Y-28010000D01*
X19883553Y-28010000D01*
X20499755Y-28626202D01*
G37*
%TD.AperFunction*%
%TD*%
M02*
