%TF.GenerationSoftware,KiCad,Pcbnew,10.0.3*%
%TF.CreationDate,2026-08-06T15:29:58-07:00*%
%TF.ProjectId,blinky2,626c696e-6b79-4322-9e6b-696361645f70,rev?*%
%TF.SameCoordinates,Original*%
%TF.FileFunction,Copper,L2,Bot*%
%TF.FilePolarity,Positive*%
%FSLAX46Y46*%
G04 Gerber Fmt 4.6, Leading zero omitted, Abs format (unit mm)*
G04 Created by KiCad (PCBNEW 10.0.3) date 2026-08-06 15:29:58*
%MOMM*%
%LPD*%
G01*
G04 APERTURE LIST*
%TA.AperFunction,ComponentPad*%
%ADD10R,1.700000X1.700000*%
%TD*%
%TA.AperFunction,ComponentPad*%
%ADD11C,1.700000*%
%TD*%
%TA.AperFunction,ViaPad*%
%ADD12C,0.600000*%
%TD*%
%TA.AperFunction,Conductor*%
%ADD13C,0.400000*%
%TD*%
G04 APERTURE END LIST*
D10*
%TO.P,J1,1*%
%TO.N,+5V*%
X102800000Y-103500000D03*
D11*
%TO.P,J1,2*%
%TO.N,GND*%
X105340000Y-103500000D03*
%TD*%
D10*
%TO.P,J2,1*%
%TO.N,+3V3*%
X146500000Y-110500000D03*
D11*
%TO.P,J2,2*%
%TO.N,/SWDIO*%
X143960000Y-110500000D03*
%TO.P,J2,3*%
%TO.N,/SWCLK*%
X141420000Y-110500000D03*
%TO.P,J2,4*%
%TO.N,GND*%
X138880000Y-110500000D03*
%TD*%
D12*
%TO.N,GND*%
X117500000Y-122000000D03*
X110100000Y-103700000D03*
X117600000Y-103800000D03*
X105340000Y-105100000D03*
X125275000Y-109200000D03*
X116800000Y-130500000D03*
X129699999Y-124100000D03*
X138880000Y-111700000D03*
X123000000Y-132000000D03*
X134900000Y-125500000D03*
X109500000Y-124000000D03*
X130500000Y-105050000D03*
X121000000Y-133000000D03*
X121800000Y-121500000D03*
X134100000Y-116000000D03*
X108000000Y-125500000D03*
X117500000Y-116500000D03*
X124500000Y-127500000D03*
X108100000Y-110500000D03*
X133500000Y-129500000D03*
X126600000Y-111500000D03*
X137800000Y-114300000D03*
X107900000Y-132500000D03*
%TO.N,+3V3*%
X121000000Y-110500000D03*
X124400000Y-124900000D03*
%TD*%
%TO.N,+3V3*%
D13*
X125100000Y-110500000D02*
X125100000Y-124900000D01*
X125100000Y-124900000D02*
X124400000Y-124900000D01*
X121000000Y-110500000D02*
X125100000Y-110500000D01*
%TD*%
%TA.AperFunction,Conductor*%
%TO.N,GND*%
G36*
X149343039Y-100619685D02*
G01*
X149388794Y-100672489D01*
X149400000Y-100724000D01*
X149400000Y-139276000D01*
X149380315Y-139343039D01*
X149327511Y-139388794D01*
X149276000Y-139400000D01*
X100724000Y-139400000D01*
X100656961Y-139380315D01*
X100611206Y-139327511D01*
X100600000Y-139276000D01*
X100600000Y-110421153D01*
X120199500Y-110421153D01*
X120199500Y-110578846D01*
X120230261Y-110733489D01*
X120230264Y-110733501D01*
X120290602Y-110879172D01*
X120290609Y-110879185D01*
X120378210Y-111010288D01*
X120378213Y-111010292D01*
X120489707Y-111121786D01*
X120489711Y-111121789D01*
X120620814Y-111209390D01*
X120620827Y-111209397D01*
X120766498Y-111269735D01*
X120766503Y-111269737D01*
X120921153Y-111300499D01*
X120921156Y-111300500D01*
X120921158Y-111300500D01*
X121078844Y-111300500D01*
X121078845Y-111300499D01*
X121233497Y-111269737D01*
X121308963Y-111238478D01*
X121377864Y-111209939D01*
X121425316Y-111200500D01*
X124275500Y-111200500D01*
X124342539Y-111220185D01*
X124388294Y-111272989D01*
X124399500Y-111324500D01*
X124399500Y-123982152D01*
X124379815Y-124049191D01*
X124327011Y-124094946D01*
X124299692Y-124103769D01*
X124166508Y-124130261D01*
X124166498Y-124130264D01*
X124020827Y-124190602D01*
X124020814Y-124190609D01*
X123889711Y-124278210D01*
X123889707Y-124278213D01*
X123778213Y-124389707D01*
X123778210Y-124389711D01*
X123690609Y-124520814D01*
X123690602Y-124520827D01*
X123630264Y-124666498D01*
X123630261Y-124666510D01*
X123599500Y-124821153D01*
X123599500Y-124978846D01*
X123630261Y-125133489D01*
X123630264Y-125133501D01*
X123690602Y-125279172D01*
X123690609Y-125279185D01*
X123778210Y-125410288D01*
X123778213Y-125410292D01*
X123889707Y-125521786D01*
X123889711Y-125521789D01*
X124020814Y-125609390D01*
X124020827Y-125609397D01*
X124166498Y-125669735D01*
X124166503Y-125669737D01*
X124321153Y-125700499D01*
X124321156Y-125700500D01*
X124321158Y-125700500D01*
X124478844Y-125700500D01*
X124478845Y-125700499D01*
X124633497Y-125669737D01*
X124708963Y-125638478D01*
X124777864Y-125609939D01*
X124825316Y-125600500D01*
X125168995Y-125600500D01*
X125260041Y-125582389D01*
X125304328Y-125573580D01*
X125431811Y-125520775D01*
X125546542Y-125444114D01*
X125644114Y-125346542D01*
X125720775Y-125231811D01*
X125773580Y-125104328D01*
X125800500Y-124968993D01*
X125800500Y-110431007D01*
X125800500Y-110431004D01*
X125796925Y-110413033D01*
X125796925Y-110413032D01*
X125793082Y-110393713D01*
X140069500Y-110393713D01*
X140069500Y-110606287D01*
X140102754Y-110816243D01*
X140165803Y-111010288D01*
X140168444Y-111018414D01*
X140264951Y-111207820D01*
X140389890Y-111379786D01*
X140540213Y-111530109D01*
X140712179Y-111655048D01*
X140712181Y-111655049D01*
X140712184Y-111655051D01*
X140901588Y-111751557D01*
X141103757Y-111817246D01*
X141313713Y-111850500D01*
X141313714Y-111850500D01*
X141526286Y-111850500D01*
X141526287Y-111850500D01*
X141736243Y-111817246D01*
X141938412Y-111751557D01*
X142127816Y-111655051D01*
X142214138Y-111592335D01*
X142299786Y-111530109D01*
X142299788Y-111530106D01*
X142299792Y-111530104D01*
X142450104Y-111379792D01*
X142450106Y-111379788D01*
X142450109Y-111379786D01*
X142566064Y-111220185D01*
X142575051Y-111207816D01*
X142579514Y-111199054D01*
X142627488Y-111148259D01*
X142695308Y-111131463D01*
X142761444Y-111153999D01*
X142800484Y-111199054D01*
X142804591Y-111207115D01*
X142804951Y-111207820D01*
X142929890Y-111379786D01*
X143080213Y-111530109D01*
X143252179Y-111655048D01*
X143252181Y-111655049D01*
X143252184Y-111655051D01*
X143441588Y-111751557D01*
X143643757Y-111817246D01*
X143853713Y-111850500D01*
X143853714Y-111850500D01*
X144066286Y-111850500D01*
X144066287Y-111850500D01*
X144276243Y-111817246D01*
X144478412Y-111751557D01*
X144667816Y-111655051D01*
X144839792Y-111530104D01*
X144953329Y-111416566D01*
X145014648Y-111383084D01*
X145084340Y-111388068D01*
X145140274Y-111429939D01*
X145157189Y-111460917D01*
X145206202Y-111592328D01*
X145206206Y-111592335D01*
X145292452Y-111707544D01*
X145292455Y-111707547D01*
X145407664Y-111793793D01*
X145407671Y-111793797D01*
X145542517Y-111844091D01*
X145542516Y-111844091D01*
X145549444Y-111844835D01*
X145602127Y-111850500D01*
X147397872Y-111850499D01*
X147457483Y-111844091D01*
X147592331Y-111793796D01*
X147707546Y-111707546D01*
X147793796Y-111592331D01*
X147844091Y-111457483D01*
X147850500Y-111397873D01*
X147850499Y-109602128D01*
X147844091Y-109542517D01*
X147842810Y-109539083D01*
X147793797Y-109407671D01*
X147793793Y-109407664D01*
X147707547Y-109292455D01*
X147707544Y-109292452D01*
X147592335Y-109206206D01*
X147592328Y-109206202D01*
X147457482Y-109155908D01*
X147457483Y-109155908D01*
X147397883Y-109149501D01*
X147397881Y-109149500D01*
X147397873Y-109149500D01*
X147397864Y-109149500D01*
X145602129Y-109149500D01*
X145602123Y-109149501D01*
X145542516Y-109155908D01*
X145407671Y-109206202D01*
X145407664Y-109206206D01*
X145292455Y-109292452D01*
X145292452Y-109292455D01*
X145206206Y-109407664D01*
X145206203Y-109407669D01*
X145157189Y-109539083D01*
X145115317Y-109595016D01*
X145049853Y-109619433D01*
X144981580Y-109604581D01*
X144953326Y-109583430D01*
X144839786Y-109469890D01*
X144667820Y-109344951D01*
X144478414Y-109248444D01*
X144478413Y-109248443D01*
X144478412Y-109248443D01*
X144276243Y-109182754D01*
X144276241Y-109182753D01*
X144276240Y-109182753D01*
X144114957Y-109157208D01*
X144066287Y-109149500D01*
X143853713Y-109149500D01*
X143805042Y-109157208D01*
X143643760Y-109182753D01*
X143441585Y-109248444D01*
X143252179Y-109344951D01*
X143080213Y-109469890D01*
X142929890Y-109620213D01*
X142804949Y-109792182D01*
X142800484Y-109800946D01*
X142752509Y-109851742D01*
X142684688Y-109868536D01*
X142618553Y-109845998D01*
X142579516Y-109800946D01*
X142575050Y-109792182D01*
X142450109Y-109620213D01*
X142299786Y-109469890D01*
X142127820Y-109344951D01*
X141938414Y-109248444D01*
X141938413Y-109248443D01*
X141938412Y-109248443D01*
X141736243Y-109182754D01*
X141736241Y-109182753D01*
X141736240Y-109182753D01*
X141574957Y-109157208D01*
X141526287Y-109149500D01*
X141313713Y-109149500D01*
X141265042Y-109157208D01*
X141103760Y-109182753D01*
X140901585Y-109248444D01*
X140712179Y-109344951D01*
X140540213Y-109469890D01*
X140389890Y-109620213D01*
X140264951Y-109792179D01*
X140168444Y-109981585D01*
X140102753Y-110183760D01*
X140089649Y-110266498D01*
X140069500Y-110393713D01*
X125793082Y-110393713D01*
X125773581Y-110295679D01*
X125773580Y-110295672D01*
X125727225Y-110183760D01*
X125720778Y-110168195D01*
X125720771Y-110168182D01*
X125644114Y-110053458D01*
X125644111Y-110053454D01*
X125546545Y-109955888D01*
X125546541Y-109955885D01*
X125431817Y-109879228D01*
X125431804Y-109879221D01*
X125304332Y-109826421D01*
X125304322Y-109826418D01*
X125168995Y-109799500D01*
X125168993Y-109799500D01*
X121425316Y-109799500D01*
X121377864Y-109790061D01*
X121233501Y-109730264D01*
X121233489Y-109730261D01*
X121078845Y-109699500D01*
X121078842Y-109699500D01*
X120921158Y-109699500D01*
X120921155Y-109699500D01*
X120766510Y-109730261D01*
X120766498Y-109730264D01*
X120620827Y-109790602D01*
X120620814Y-109790609D01*
X120489711Y-109878210D01*
X120489707Y-109878213D01*
X120378213Y-109989707D01*
X120378210Y-109989711D01*
X120290609Y-110120814D01*
X120290602Y-110120827D01*
X120230264Y-110266498D01*
X120230261Y-110266510D01*
X120199500Y-110421153D01*
X100600000Y-110421153D01*
X100600000Y-102602135D01*
X101449500Y-102602135D01*
X101449500Y-104397870D01*
X101449501Y-104397876D01*
X101455908Y-104457483D01*
X101506202Y-104592328D01*
X101506206Y-104592335D01*
X101592452Y-104707544D01*
X101592455Y-104707547D01*
X101707664Y-104793793D01*
X101707671Y-104793797D01*
X101842517Y-104844091D01*
X101842516Y-104844091D01*
X101849444Y-104844835D01*
X101902127Y-104850500D01*
X103697872Y-104850499D01*
X103757483Y-104844091D01*
X103892331Y-104793796D01*
X104007546Y-104707546D01*
X104093796Y-104592331D01*
X104144091Y-104457483D01*
X104150500Y-104397873D01*
X104150499Y-102602128D01*
X104144091Y-102542517D01*
X104093796Y-102407669D01*
X104093795Y-102407668D01*
X104093793Y-102407664D01*
X104007547Y-102292455D01*
X104007544Y-102292452D01*
X103892335Y-102206206D01*
X103892328Y-102206202D01*
X103757482Y-102155908D01*
X103757483Y-102155908D01*
X103697883Y-102149501D01*
X103697881Y-102149500D01*
X103697873Y-102149500D01*
X103697864Y-102149500D01*
X101902129Y-102149500D01*
X101902123Y-102149501D01*
X101842516Y-102155908D01*
X101707671Y-102206202D01*
X101707664Y-102206206D01*
X101592455Y-102292452D01*
X101592452Y-102292455D01*
X101506206Y-102407664D01*
X101506202Y-102407671D01*
X101455908Y-102542517D01*
X101449501Y-102602116D01*
X101449501Y-102602123D01*
X101449500Y-102602135D01*
X100600000Y-102602135D01*
X100600000Y-100724000D01*
X100619685Y-100656961D01*
X100672489Y-100611206D01*
X100724000Y-100600000D01*
X149276000Y-100600000D01*
X149343039Y-100619685D01*
G37*
%TD.AperFunction*%
%TD*%
M02*
