M48
; DRILL file KiCad 10.0.3 date 2026-08-06T15:29:59
; FORMAT={-:-/ absolute / metric / decimal}
; #@! TF.CreationDate,2026-08-06T15:29:59-07:00
; #@! TF.GenerationSoftware,Kicad,Pcbnew,10.0.3
; #@! TF.FileFunction,MixedPlating,1,2
FMAT,2
METRIC
; #@! TA.AperFunction,Plated,PTH,ViaDrill
T1C0.300
; #@! TA.AperFunction,Plated,PTH,ComponentDrill
T2C1.000
%
G90
G05
T1
X105.34Y-105.1
X107.9Y-132.5
X108.0Y-125.5
X108.1Y-110.5
X109.5Y-124.0
X110.1Y-103.7
X116.8Y-130.5
X117.5Y-116.5
X117.5Y-122.0
X117.6Y-103.8
X121.0Y-110.5
X121.0Y-133.0
X121.8Y-121.5
X123.0Y-132.0
X124.4Y-124.9
X124.5Y-127.5
X125.275Y-109.2
X126.6Y-111.5
X129.7Y-124.1
X130.5Y-105.05
X133.5Y-129.5
X134.1Y-116.0
X134.9Y-125.5
X137.8Y-114.3
X138.88Y-111.7
T2
X102.8Y-103.5
X105.34Y-103.5
X138.88Y-110.5
X141.42Y-110.5
X143.96Y-110.5
X146.5Y-110.5
M30
