%TF.GenerationSoftware,KiCad,Pcbnew,10.0.3*%
%TF.CreationDate,2026-08-17T23:00:07-07:00*%
%TF.ProjectId,bb-amp,62622d61-6d70-42e6-9b69-6361645f7063,rev?*%
%TF.SameCoordinates,Original*%
%TF.FileFunction,Copper,L1,Top*%
%TF.FilePolarity,Positive*%
%FSLAX46Y46*%
G04 Gerber Fmt 4.6, Leading zero omitted, Abs format (unit mm)*
G04 Created by KiCad (PCBNEW 10.0.3) date 2026-08-17 23:00:07*
%MOMM*%
%LPD*%
G01*
G04 APERTURE LIST*
%TA.AperFunction,SMDPad,CuDef*%
%ADD10R,0.806000X0.864000*%
%TD*%
%TA.AperFunction,SMDPad,CuDef*%
%ADD11R,0.864000X0.806000*%
%TD*%
%TA.AperFunction,ComponentPad*%
%ADD12C,2.400000*%
%TD*%
%TA.AperFunction,SMDPad,CuDef*%
%ADD13R,0.900000X0.800000*%
%TD*%
%TA.AperFunction,SMDPad,CuDef*%
%ADD14O,1.865000X0.630000*%
%TD*%
%TA.AperFunction,SMDPad,CuDef*%
%ADD15R,0.800000X0.900000*%
%TD*%
%TA.AperFunction,SMDPad,CuDef*%
%ADD16R,1.410000X1.350000*%
%TD*%
%TA.AperFunction,SMDPad,CuDef*%
%ADD17O,1.950000X0.568000*%
%TD*%
%TA.AperFunction,ViaPad*%
%ADD18C,0.600000*%
%TD*%
%TA.AperFunction,Conductor*%
%ADD19C,0.200000*%
%TD*%
%TA.AperFunction,Conductor*%
%ADD20C,0.309000*%
%TD*%
G04 APERTURE END LIST*
D10*
%TO.P,R5,1*%
%TO.N,/FB2*%
X44450000Y-36600000D03*
%TO.P,R5,2*%
%TO.N,/VREF*%
X42950000Y-36600000D03*
%TD*%
D11*
%TO.P,R1,1*%
%TO.N,/RG_A*%
X27880000Y-29250000D03*
%TO.P,R1,2*%
%TO.N,/RG_B*%
X27880000Y-30750000D03*
%TD*%
D12*
%TO.P,J3,1*%
%TO.N,+3V3*%
X39460000Y-45500000D03*
%TO.P,J3,2*%
%TO.N,GND*%
X44540000Y-45500000D03*
%TD*%
D13*
%TO.P,C3,1*%
%TO.N,+3V3*%
X44980000Y-29100000D03*
%TO.P,C3,2*%
%TO.N,GND*%
X44980000Y-27700000D03*
%TD*%
D14*
%TO.P,U2,1*%
%TO.N,/VREF*%
X39620000Y-30630000D03*
%TO.P,U2,2*%
X39620000Y-31910000D03*
%TO.P,U2,3*%
%TO.N,/VREF_SET*%
X39620000Y-33170000D03*
%TO.P,U2,4*%
%TO.N,GND*%
X39620000Y-34440000D03*
%TO.P,U2,5*%
%TO.N,/AMP1_OUT*%
X44980000Y-34440000D03*
%TO.P,U2,6*%
%TO.N,/FB2*%
X44980000Y-33170000D03*
%TO.P,U2,7*%
%TO.N,/VOUT*%
X44980000Y-31910000D03*
%TO.P,U2,8*%
%TO.N,+3V3*%
X44980000Y-30630000D03*
%TD*%
D10*
%TO.P,R2,1*%
%TO.N,+3V3*%
X36250000Y-38600000D03*
%TO.P,R2,2*%
%TO.N,/VREF_SET*%
X37750000Y-38600000D03*
%TD*%
%TO.P,R3,1*%
%TO.N,/VREF_SET*%
X36250000Y-36600000D03*
%TO.P,R3,2*%
%TO.N,GND*%
X37750000Y-36600000D03*
%TD*%
D15*
%TO.P,C4,1*%
%TO.N,/VREF_SET*%
X39600000Y-36600000D03*
%TO.P,C4,2*%
%TO.N,GND*%
X41000000Y-36600000D03*
%TD*%
D11*
%TO.P,R4,1*%
%TO.N,/VOUT*%
X47600000Y-31790000D03*
%TO.P,R4,2*%
%TO.N,/FB2*%
X47600000Y-33290000D03*
%TD*%
D13*
%TO.P,C1,1*%
%TO.N,+3V3*%
X35510000Y-26600000D03*
%TO.P,C1,2*%
%TO.N,GND*%
X35510000Y-25200000D03*
%TD*%
D12*
%TO.P,J2,1*%
%TO.N,/VOUT*%
X54680000Y-33040000D03*
%TO.P,J2,2*%
%TO.N,GND*%
X54680000Y-27960000D03*
%TD*%
D16*
%TO.P,C2,1*%
%TO.N,+3V3*%
X41000000Y-38600000D03*
%TO.P,C2,2*%
%TO.N,GND*%
X43000000Y-38600000D03*
%TD*%
D12*
%TO.P,J1,1*%
%TO.N,/IN_N*%
X19300000Y-27460000D03*
%TO.P,J1,2*%
%TO.N,/IN_P*%
X19300000Y-32540000D03*
%TO.P,J1,3*%
%TO.N,GND*%
X19300000Y-37620000D03*
%TD*%
D17*
%TO.P,U1,1*%
%TO.N,/IN_N*%
X30090000Y-28100000D03*
%TO.P,U1,2*%
%TO.N,/RG_A*%
X30090000Y-29370000D03*
%TO.P,U1,3*%
%TO.N,/RG_B*%
X30090000Y-30630000D03*
%TO.P,U1,4*%
%TO.N,/IN_P*%
X30090000Y-31900000D03*
%TO.P,U1,5*%
%TO.N,GND*%
X35510000Y-31900000D03*
%TO.P,U1,6*%
%TO.N,/VREF*%
X35510000Y-30630000D03*
%TO.P,U1,7*%
%TO.N,/AMP1_OUT*%
X35510000Y-29370000D03*
%TO.P,U1,8*%
%TO.N,+3V3*%
X35510000Y-28100000D03*
%TD*%
D18*
%TO.N,GND*%
X38255200Y-34297600D03*
X36933100Y-32000900D03*
X43000000Y-39705500D03*
X41000000Y-35697600D03*
X37750000Y-35717400D03*
X45870000Y-27488700D03*
X36393800Y-24994900D03*
%TD*%
%TO.N,/FB2*%
D19*
X47600000Y-33921700D02*
X45081700Y-36440000D01*
X44450000Y-36600000D02*
X45081700Y-36600000D01*
X44980000Y-33170000D02*
X46819300Y-33170000D01*
X47600000Y-33290000D02*
X47600000Y-33921700D01*
X45081700Y-36440000D02*
X45081700Y-36600000D01*
X46819300Y-33170000D02*
X46939300Y-33290000D01*
X47600000Y-33290000D02*
X46939300Y-33290000D01*
%TO.N,/VREF*%
X35510000Y-30630000D02*
X39620000Y-30630000D01*
X39620000Y-30630000D02*
X40781200Y-30630000D01*
X40781200Y-31910000D02*
X42950000Y-34078800D01*
X42950000Y-34078800D02*
X42950000Y-36600000D01*
X39620000Y-31910000D02*
X40781200Y-31910000D01*
X40781200Y-30630000D02*
X40781200Y-31910000D01*
%TO.N,/RG_A*%
X30090000Y-29370000D02*
X28886300Y-29370000D01*
X28886300Y-29370000D02*
X28766300Y-29250000D01*
X28766300Y-29250000D02*
X27880000Y-29250000D01*
%TO.N,/RG_B*%
X30090000Y-30630000D02*
X28660700Y-30630000D01*
X27880000Y-30750000D02*
X28540700Y-30750000D01*
X28660700Y-30630000D02*
X28540700Y-30750000D01*
%TO.N,+3V3*%
X35510000Y-28100000D02*
X36713700Y-28100000D01*
X37085000Y-28471300D02*
X44980000Y-28471300D01*
X36713700Y-28100000D02*
X37085000Y-28471300D01*
X35618300Y-38600000D02*
X34306300Y-37288000D01*
X39405600Y-39260700D02*
X39405600Y-45445600D01*
X36250000Y-38600000D02*
X36881700Y-38600000D01*
X39405600Y-45445600D02*
X39460000Y-45500000D01*
X41000000Y-38600000D02*
X40066300Y-38600000D01*
X36881700Y-38915900D02*
X36881700Y-38600000D01*
X44980000Y-29100000D02*
X44980000Y-28471300D01*
X35510000Y-28100000D02*
X34306300Y-28100000D01*
X34306300Y-37288000D02*
X34306300Y-28100000D01*
X37226500Y-39260700D02*
X36881700Y-38915900D01*
X44980000Y-29100000D02*
X44980000Y-30630000D01*
X35510000Y-26600000D02*
X35510000Y-28100000D01*
X40066300Y-38600000D02*
X39405600Y-39260700D01*
X39405600Y-39260700D02*
X37226500Y-39260700D01*
X36250000Y-38600000D02*
X35618300Y-38600000D01*
%TO.N,GND*%
X39620000Y-34440000D02*
X38458800Y-34440000D01*
X36933100Y-32000900D02*
X36814600Y-32000900D01*
X38316400Y-34297600D02*
X38458800Y-34440000D01*
X45870000Y-27488700D02*
X45658700Y-27700000D01*
X35510000Y-31900000D02*
X36713700Y-31900000D01*
X43000000Y-38600000D02*
X43000000Y-39705500D01*
X44980000Y-27700000D02*
X45658700Y-27700000D01*
X37750000Y-35717400D02*
X37750000Y-36600000D01*
X38255200Y-34297600D02*
X38316400Y-34297600D01*
X36393800Y-24994900D02*
X36188700Y-25200000D01*
X41000000Y-35697600D02*
X41000000Y-36600000D01*
X35510000Y-25200000D02*
X36188700Y-25200000D01*
X36814600Y-32000900D02*
X36713700Y-31900000D01*
%TO.N,/VREF_SET*%
X39620000Y-33170000D02*
X38458800Y-33170000D01*
X39600000Y-37278700D02*
X38431300Y-38447400D01*
X36881700Y-36897800D02*
X38431300Y-38447400D01*
X38381700Y-38497000D02*
X38381700Y-38600000D01*
X36278600Y-36600000D02*
X36881700Y-36600000D01*
X38431300Y-38447400D02*
X38381700Y-38497000D01*
X38458800Y-33170000D02*
X36278600Y-35350200D01*
X36278600Y-35350200D02*
X36278600Y-36600000D01*
X36881700Y-36600000D02*
X36881700Y-36897800D01*
X37750000Y-38600000D02*
X38381700Y-38600000D01*
X36250000Y-36600000D02*
X36278600Y-36600000D01*
X39600000Y-36600000D02*
X39600000Y-37278700D01*
%TO.N,/AMP1_OUT*%
X44980000Y-34440000D02*
X43818800Y-34440000D01*
X40027200Y-29370000D02*
X43818800Y-33161600D01*
X43818800Y-33161600D02*
X43818800Y-34440000D01*
X35510000Y-29370000D02*
X40027200Y-29370000D01*
%TO.N,/VOUT*%
X54680000Y-33040000D02*
X54061700Y-32421700D01*
X47600000Y-31900000D02*
X47600000Y-32421700D01*
X44980000Y-31910000D02*
X47590000Y-31910000D01*
X47600000Y-31790000D02*
X47600000Y-31900000D01*
X47590000Y-31910000D02*
X47600000Y-31900000D01*
X54061700Y-32421700D02*
X47600000Y-32421700D01*
%TO.N,/IN_N*%
D20*
X19300000Y-27460000D02*
X30090000Y-28100000D01*
%TO.N,/IN_P*%
X19300000Y-32540000D02*
X30090000Y-31900000D01*
%TD*%
M02*
