%TF.GenerationSoftware,KiCad,Pcbnew,10.0.3*%
%TF.CreationDate,2026-08-17T23:00:07-07:00*%
%TF.ProjectId,bb-amp,62622d61-6d70-42e6-9b69-6361645f7063,rev?*%
%TF.SameCoordinates,Original*%
%TF.FileFunction,Copper,L2,Bot*%
%TF.FilePolarity,Positive*%
%FSLAX46Y46*%
G04 Gerber Fmt 4.6, Leading zero omitted, Abs format (unit mm)*
G04 Created by KiCad (PCBNEW 10.0.3) date 2026-08-17 23:00:07*
%MOMM*%
%LPD*%
G01*
G04 APERTURE LIST*
%TA.AperFunction,ComponentPad*%
%ADD10C,2.400000*%
%TD*%
%TA.AperFunction,ViaPad*%
%ADD11C,0.600000*%
%TD*%
G04 APERTURE END LIST*
D10*
%TO.P,J3,1*%
%TO.N,+3V3*%
X39460000Y-45500000D03*
%TO.P,J3,2*%
%TO.N,GND*%
X44540000Y-45500000D03*
%TD*%
%TO.P,J2,1*%
%TO.N,/VOUT*%
X54680000Y-33040000D03*
%TO.P,J2,2*%
%TO.N,GND*%
X54680000Y-27960000D03*
%TD*%
%TO.P,J1,1*%
%TO.N,/IN_N*%
X19300000Y-27460000D03*
%TO.P,J1,2*%
%TO.N,/IN_P*%
X19300000Y-32540000D03*
%TO.P,J1,3*%
%TO.N,GND*%
X19300000Y-37620000D03*
%TD*%
D11*
%TO.N,GND*%
X38255200Y-34297600D03*
X36933100Y-32000900D03*
X43000000Y-39705500D03*
X41000000Y-35697600D03*
X37750000Y-35717400D03*
X45870000Y-27488700D03*
X36393800Y-24994900D03*
%TD*%
%TA.AperFunction,Conductor*%
%TO.N,GND*%
G36*
X60423039Y-24068685D02*
G01*
X60468794Y-24121489D01*
X60480000Y-24173000D01*
X60480000Y-51176000D01*
X60460315Y-51243039D01*
X60407511Y-51288794D01*
X60356000Y-51300000D01*
X13624000Y-51300000D01*
X13556961Y-51280315D01*
X13511206Y-51227511D01*
X13500000Y-51176000D01*
X13500000Y-45395517D01*
X38132500Y-45395517D01*
X38132500Y-45604482D01*
X38165186Y-45810857D01*
X38229758Y-46009587D01*
X38286186Y-46120331D01*
X38324620Y-46195762D01*
X38447440Y-46364808D01*
X38595192Y-46512560D01*
X38764238Y-46635380D01*
X38852199Y-46680198D01*
X38950412Y-46730241D01*
X38950414Y-46730241D01*
X38950417Y-46730243D01*
X39056939Y-46764854D01*
X39149142Y-46794813D01*
X39355518Y-46827500D01*
X39355523Y-46827500D01*
X39564482Y-46827500D01*
X39770857Y-46794813D01*
X39969583Y-46730243D01*
X40155762Y-46635380D01*
X40324808Y-46512560D01*
X40472560Y-46364808D01*
X40595380Y-46195762D01*
X40690243Y-46009583D01*
X40754813Y-45810857D01*
X40787500Y-45604482D01*
X40787500Y-45395517D01*
X40786400Y-45388575D01*
X42840000Y-45388575D01*
X42840000Y-45611424D01*
X42869085Y-45832354D01*
X42869088Y-45832367D01*
X42926763Y-46047618D01*
X43012045Y-46253502D01*
X43012054Y-46253520D01*
X43123464Y-46446491D01*
X43123473Y-46446504D01*
X43174040Y-46512403D01*
X43174043Y-46512403D01*
X43900690Y-45785755D01*
X43919669Y-45831574D01*
X43996275Y-45946223D01*
X44093777Y-46043725D01*
X44208426Y-46120331D01*
X44254243Y-46139308D01*
X43527595Y-46865955D01*
X43527595Y-46865956D01*
X43593507Y-46916533D01*
X43786485Y-47027949D01*
X43786497Y-47027954D01*
X43992381Y-47113236D01*
X44207632Y-47170911D01*
X44207645Y-47170914D01*
X44428575Y-47200000D01*
X44651425Y-47200000D01*
X44872354Y-47170914D01*
X44872367Y-47170911D01*
X45087618Y-47113236D01*
X45293502Y-47027954D01*
X45293514Y-47027949D01*
X45486498Y-46916530D01*
X45552403Y-46865957D01*
X45552404Y-46865956D01*
X44825756Y-46139309D01*
X44871574Y-46120331D01*
X44986223Y-46043725D01*
X45083725Y-45946223D01*
X45160331Y-45831574D01*
X45179309Y-45785756D01*
X45905956Y-46512404D01*
X45905957Y-46512403D01*
X45956530Y-46446498D01*
X46067949Y-46253514D01*
X46067954Y-46253502D01*
X46153236Y-46047618D01*
X46210911Y-45832367D01*
X46210914Y-45832354D01*
X46240000Y-45611424D01*
X46240000Y-45388575D01*
X46210914Y-45167645D01*
X46210911Y-45167632D01*
X46153236Y-44952381D01*
X46067954Y-44746497D01*
X46067949Y-44746485D01*
X45956533Y-44553507D01*
X45905956Y-44487595D01*
X45905955Y-44487595D01*
X45179308Y-45214242D01*
X45160331Y-45168426D01*
X45083725Y-45053777D01*
X44986223Y-44956275D01*
X44871574Y-44879669D01*
X44825755Y-44860690D01*
X45552403Y-44134043D01*
X45552403Y-44134040D01*
X45486504Y-44083473D01*
X45486491Y-44083464D01*
X45293520Y-43972054D01*
X45293502Y-43972045D01*
X45087618Y-43886763D01*
X44872367Y-43829088D01*
X44872354Y-43829085D01*
X44651425Y-43800000D01*
X44428575Y-43800000D01*
X44207645Y-43829085D01*
X44207632Y-43829088D01*
X43992381Y-43886763D01*
X43786497Y-43972045D01*
X43786479Y-43972054D01*
X43593511Y-44083462D01*
X43527595Y-44134042D01*
X44254244Y-44860690D01*
X44208426Y-44879669D01*
X44093777Y-44956275D01*
X43996275Y-45053777D01*
X43919669Y-45168426D01*
X43900690Y-45214243D01*
X43174042Y-44487595D01*
X43123462Y-44553511D01*
X43012054Y-44746479D01*
X43012045Y-44746497D01*
X42926763Y-44952381D01*
X42869088Y-45167632D01*
X42869085Y-45167645D01*
X42840000Y-45388575D01*
X40786400Y-45388575D01*
X40754813Y-45189142D01*
X40690241Y-44990412D01*
X40595379Y-44804237D01*
X40472560Y-44635192D01*
X40324808Y-44487440D01*
X40155762Y-44364620D01*
X40014180Y-44292480D01*
X39969587Y-44269759D01*
X39969586Y-44269758D01*
X39969583Y-44269757D01*
X39887734Y-44243162D01*
X39770857Y-44205186D01*
X39564482Y-44172500D01*
X39564477Y-44172500D01*
X39355523Y-44172500D01*
X39355518Y-44172500D01*
X39149142Y-44205186D01*
X38950412Y-44269758D01*
X38764237Y-44364620D01*
X38595190Y-44487441D01*
X38447441Y-44635190D01*
X38324620Y-44804237D01*
X38229758Y-44990412D01*
X38165186Y-45189142D01*
X38132500Y-45395517D01*
X13500000Y-45395517D01*
X13500000Y-37508575D01*
X17600000Y-37508575D01*
X17600000Y-37731424D01*
X17629085Y-37952354D01*
X17629088Y-37952367D01*
X17686763Y-38167618D01*
X17772045Y-38373502D01*
X17772054Y-38373520D01*
X17883464Y-38566491D01*
X17883473Y-38566504D01*
X17934040Y-38632403D01*
X17934043Y-38632403D01*
X18660690Y-37905755D01*
X18679669Y-37951574D01*
X18756275Y-38066223D01*
X18853777Y-38163725D01*
X18968426Y-38240331D01*
X19014243Y-38259308D01*
X18287595Y-38985955D01*
X18287595Y-38985956D01*
X18353507Y-39036533D01*
X18546485Y-39147949D01*
X18546497Y-39147954D01*
X18752381Y-39233236D01*
X18967632Y-39290911D01*
X18967645Y-39290914D01*
X19188575Y-39320000D01*
X19411425Y-39320000D01*
X19632354Y-39290914D01*
X19632367Y-39290911D01*
X19847618Y-39233236D01*
X20053502Y-39147954D01*
X20053514Y-39147949D01*
X20246498Y-39036530D01*
X20312403Y-38985957D01*
X20312404Y-38985956D01*
X19585756Y-38259309D01*
X19631574Y-38240331D01*
X19746223Y-38163725D01*
X19843725Y-38066223D01*
X19920331Y-37951574D01*
X19939309Y-37905756D01*
X20665956Y-38632404D01*
X20665957Y-38632403D01*
X20716530Y-38566498D01*
X20827949Y-38373514D01*
X20827954Y-38373502D01*
X20913236Y-38167618D01*
X20970911Y-37952367D01*
X20970914Y-37952354D01*
X21000000Y-37731424D01*
X21000000Y-37508575D01*
X20970914Y-37287645D01*
X20970911Y-37287632D01*
X20913236Y-37072381D01*
X20827954Y-36866497D01*
X20827949Y-36866485D01*
X20716533Y-36673507D01*
X20665956Y-36607595D01*
X20665955Y-36607595D01*
X19939308Y-37334242D01*
X19920331Y-37288426D01*
X19843725Y-37173777D01*
X19746223Y-37076275D01*
X19631574Y-36999669D01*
X19585755Y-36980690D01*
X20312403Y-36254043D01*
X20312403Y-36254040D01*
X20246504Y-36203473D01*
X20246491Y-36203464D01*
X20053520Y-36092054D01*
X20053502Y-36092045D01*
X19847618Y-36006763D01*
X19632367Y-35949088D01*
X19632354Y-35949085D01*
X19411425Y-35920000D01*
X19188575Y-35920000D01*
X18967645Y-35949085D01*
X18967632Y-35949088D01*
X18752381Y-36006763D01*
X18546497Y-36092045D01*
X18546479Y-36092054D01*
X18353511Y-36203462D01*
X18287595Y-36254042D01*
X19014244Y-36980690D01*
X18968426Y-36999669D01*
X18853777Y-37076275D01*
X18756275Y-37173777D01*
X18679669Y-37288426D01*
X18660690Y-37334243D01*
X17934042Y-36607595D01*
X17883462Y-36673511D01*
X17772054Y-36866479D01*
X17772045Y-36866497D01*
X17686763Y-37072381D01*
X17629088Y-37287632D01*
X17629085Y-37287645D01*
X17600000Y-37508575D01*
X13500000Y-37508575D01*
X13500000Y-32435517D01*
X17972500Y-32435517D01*
X17972500Y-32644482D01*
X18005186Y-32850857D01*
X18069758Y-33049587D01*
X18118110Y-33144482D01*
X18164620Y-33235762D01*
X18287440Y-33404808D01*
X18435192Y-33552560D01*
X18604238Y-33675380D01*
X18692199Y-33720198D01*
X18790412Y-33770241D01*
X18790414Y-33770241D01*
X18790417Y-33770243D01*
X18896939Y-33804854D01*
X18989142Y-33834813D01*
X19195518Y-33867500D01*
X19195523Y-33867500D01*
X19404482Y-33867500D01*
X19610857Y-33834813D01*
X19809583Y-33770243D01*
X19995762Y-33675380D01*
X20164808Y-33552560D01*
X20312560Y-33404808D01*
X20435380Y-33235762D01*
X20530243Y-33049583D01*
X20567305Y-32935517D01*
X53352500Y-32935517D01*
X53352500Y-33144482D01*
X53385186Y-33350857D01*
X53449758Y-33549587D01*
X53544620Y-33735762D01*
X53667440Y-33904808D01*
X53815192Y-34052560D01*
X53984238Y-34175380D01*
X54072199Y-34220198D01*
X54170412Y-34270241D01*
X54170414Y-34270241D01*
X54170417Y-34270243D01*
X54276939Y-34304854D01*
X54369142Y-34334813D01*
X54575518Y-34367500D01*
X54575523Y-34367500D01*
X54784482Y-34367500D01*
X54990857Y-34334813D01*
X55189583Y-34270243D01*
X55375762Y-34175380D01*
X55544808Y-34052560D01*
X55692560Y-33904808D01*
X55815380Y-33735762D01*
X55910243Y-33549583D01*
X55974813Y-33350857D01*
X55993042Y-33235762D01*
X56007500Y-33144482D01*
X56007500Y-32935517D01*
X55974813Y-32729142D01*
X55910241Y-32530412D01*
X55815379Y-32344237D01*
X55731757Y-32229142D01*
X55692560Y-32175192D01*
X55544808Y-32027440D01*
X55375762Y-31904620D01*
X55189587Y-31809758D01*
X54990857Y-31745186D01*
X54784482Y-31712500D01*
X54784477Y-31712500D01*
X54575523Y-31712500D01*
X54575518Y-31712500D01*
X54369142Y-31745186D01*
X54170412Y-31809758D01*
X53984237Y-31904620D01*
X53815190Y-32027441D01*
X53667441Y-32175190D01*
X53544620Y-32344237D01*
X53449758Y-32530412D01*
X53385186Y-32729142D01*
X53352500Y-32935517D01*
X20567305Y-32935517D01*
X20594813Y-32850857D01*
X20627500Y-32644482D01*
X20627500Y-32435517D01*
X20594813Y-32229142D01*
X20530241Y-32030412D01*
X20435379Y-31844237D01*
X20312560Y-31675192D01*
X20164808Y-31527440D01*
X19995762Y-31404620D01*
X19809587Y-31309758D01*
X19610857Y-31245186D01*
X19404482Y-31212500D01*
X19404477Y-31212500D01*
X19195523Y-31212500D01*
X19195518Y-31212500D01*
X18989142Y-31245186D01*
X18790412Y-31309758D01*
X18604237Y-31404620D01*
X18435190Y-31527441D01*
X18287441Y-31675190D01*
X18164620Y-31844237D01*
X18069758Y-32030412D01*
X18005186Y-32229142D01*
X17972500Y-32435517D01*
X13500000Y-32435517D01*
X13500000Y-27355517D01*
X17972500Y-27355517D01*
X17972500Y-27564482D01*
X18005186Y-27770857D01*
X18069758Y-27969587D01*
X18164620Y-28155762D01*
X18287440Y-28324808D01*
X18435192Y-28472560D01*
X18604238Y-28595380D01*
X18678264Y-28633098D01*
X18790412Y-28690241D01*
X18790414Y-28690241D01*
X18790417Y-28690243D01*
X18896939Y-28724854D01*
X18989142Y-28754813D01*
X19195518Y-28787500D01*
X19195523Y-28787500D01*
X19404482Y-28787500D01*
X19610857Y-28754813D01*
X19809583Y-28690243D01*
X19995762Y-28595380D01*
X20164808Y-28472560D01*
X20312560Y-28324808D01*
X20435380Y-28155762D01*
X20530243Y-27969583D01*
X20569561Y-27848575D01*
X52980000Y-27848575D01*
X52980000Y-28071424D01*
X53009085Y-28292354D01*
X53009088Y-28292367D01*
X53066763Y-28507618D01*
X53152045Y-28713502D01*
X53152054Y-28713520D01*
X53263464Y-28906491D01*
X53263473Y-28906504D01*
X53314040Y-28972403D01*
X53314043Y-28972403D01*
X54040690Y-28245755D01*
X54059669Y-28291574D01*
X54136275Y-28406223D01*
X54233777Y-28503725D01*
X54348426Y-28580331D01*
X54394243Y-28599308D01*
X53667595Y-29325955D01*
X53667595Y-29325956D01*
X53733507Y-29376533D01*
X53926485Y-29487949D01*
X53926497Y-29487954D01*
X54132381Y-29573236D01*
X54347632Y-29630911D01*
X54347645Y-29630914D01*
X54568575Y-29660000D01*
X54791425Y-29660000D01*
X55012354Y-29630914D01*
X55012367Y-29630911D01*
X55227618Y-29573236D01*
X55433502Y-29487954D01*
X55433514Y-29487949D01*
X55626498Y-29376530D01*
X55692403Y-29325957D01*
X55692404Y-29325956D01*
X54965756Y-28599309D01*
X55011574Y-28580331D01*
X55126223Y-28503725D01*
X55223725Y-28406223D01*
X55300331Y-28291574D01*
X55319309Y-28245756D01*
X56045956Y-28972404D01*
X56045957Y-28972403D01*
X56096530Y-28906498D01*
X56207949Y-28713514D01*
X56207954Y-28713502D01*
X56293236Y-28507618D01*
X56350911Y-28292367D01*
X56350914Y-28292354D01*
X56380000Y-28071424D01*
X56380000Y-27848575D01*
X56350914Y-27627645D01*
X56350911Y-27627632D01*
X56293236Y-27412381D01*
X56207954Y-27206497D01*
X56207949Y-27206485D01*
X56096533Y-27013507D01*
X56045956Y-26947595D01*
X56045955Y-26947595D01*
X55319308Y-27674242D01*
X55300331Y-27628426D01*
X55223725Y-27513777D01*
X55126223Y-27416275D01*
X55011574Y-27339669D01*
X54965755Y-27320690D01*
X55692403Y-26594043D01*
X55692403Y-26594040D01*
X55626504Y-26543473D01*
X55626491Y-26543464D01*
X55433520Y-26432054D01*
X55433502Y-26432045D01*
X55227618Y-26346763D01*
X55012367Y-26289088D01*
X55012354Y-26289085D01*
X54791425Y-26260000D01*
X54568575Y-26260000D01*
X54347645Y-26289085D01*
X54347632Y-26289088D01*
X54132381Y-26346763D01*
X53926497Y-26432045D01*
X53926479Y-26432054D01*
X53733511Y-26543462D01*
X53667595Y-26594042D01*
X54394244Y-27320690D01*
X54348426Y-27339669D01*
X54233777Y-27416275D01*
X54136275Y-27513777D01*
X54059669Y-27628426D01*
X54040690Y-27674243D01*
X53314042Y-26947595D01*
X53263462Y-27013511D01*
X53152054Y-27206479D01*
X53152045Y-27206497D01*
X53066763Y-27412381D01*
X53009088Y-27627632D01*
X53009085Y-27627645D01*
X52980000Y-27848575D01*
X20569561Y-27848575D01*
X20594813Y-27770857D01*
X20617372Y-27628426D01*
X20627500Y-27564482D01*
X20627500Y-27355517D01*
X20594813Y-27149142D01*
X20530241Y-26950412D01*
X20495826Y-26882869D01*
X20435380Y-26764238D01*
X20431468Y-26758854D01*
X20399522Y-26714883D01*
X20399520Y-26714881D01*
X20374578Y-26680552D01*
X20312560Y-26595192D01*
X20164808Y-26447440D01*
X19995762Y-26324620D01*
X19926021Y-26289085D01*
X19809587Y-26229758D01*
X19610857Y-26165186D01*
X19404482Y-26132500D01*
X19404477Y-26132500D01*
X19195523Y-26132500D01*
X19195518Y-26132500D01*
X18989142Y-26165186D01*
X18790412Y-26229758D01*
X18604237Y-26324620D01*
X18435190Y-26447441D01*
X18287441Y-26595190D01*
X18164620Y-26764237D01*
X18069758Y-26950412D01*
X18005186Y-27149142D01*
X17972500Y-27355517D01*
X13500000Y-27355517D01*
X13500000Y-24173000D01*
X13519685Y-24105961D01*
X13572489Y-24060206D01*
X13624000Y-24049000D01*
X60356000Y-24049000D01*
X60423039Y-24068685D01*
G37*
%TD.AperFunction*%
%TD*%
M02*
