%TF.GenerationSoftware,KiCad,Pcbnew,10.0.3*%
%TF.CreationDate,2026-08-20T02:55:06-07:00*%
%TF.ProjectId,bb-ldo,62622d6c-646f-42e6-9b69-6361645f7063,rev?*%
%TF.SameCoordinates,Original*%
%TF.FileFunction,Copper,L2,Bot*%
%TF.FilePolarity,Positive*%
%FSLAX46Y46*%
G04 Gerber Fmt 4.6, Leading zero omitted, Abs format (unit mm)*
G04 Created by KiCad (PCBNEW 10.0.3) date 2026-08-20 02:55:06*
%MOMM*%
%LPD*%
G01*
G04 APERTURE LIST*
%TA.AperFunction,ComponentPad*%
%ADD10C,2.000000*%
%TD*%
%TA.AperFunction,ViaPad*%
%ADD11C,0.600000*%
%TD*%
G04 APERTURE END LIST*
D10*
%TO.P,J1,1*%
%TO.N,+5V*%
X11625000Y-39567500D03*
%TO.P,J1,2*%
%TO.N,GND*%
X11625000Y-34487500D03*
%TD*%
%TO.P,J2,1*%
%TO.N,+3V3*%
X33280000Y-34487500D03*
%TO.P,J2,2*%
%TO.N,GND*%
X33280000Y-39567500D03*
%TD*%
D11*
%TO.N,GND*%
X25991500Y-22542500D03*
X26100000Y-30805000D03*
X21111500Y-22542500D03*
X26951500Y-32605000D03*
X17953500Y-30045000D03*
%TD*%
%TA.AperFunction,Conductor*%
%TO.N,GND*%
G36*
X39223039Y-20219685D02*
G01*
X39268794Y-20272489D01*
X39280000Y-20324000D01*
X39280000Y-53731000D01*
X39260315Y-53798039D01*
X39207511Y-53843794D01*
X39156000Y-53855000D01*
X5749000Y-53855000D01*
X5681961Y-53835315D01*
X5636206Y-53782511D01*
X5625000Y-53731000D01*
X5625000Y-39478764D01*
X10497500Y-39478764D01*
X10497500Y-39656235D01*
X10525263Y-39831524D01*
X10525263Y-39831527D01*
X10580103Y-40000307D01*
X10580105Y-40000310D01*
X10653080Y-40143532D01*
X10660678Y-40158442D01*
X10764985Y-40302010D01*
X10764989Y-40302015D01*
X10890484Y-40427510D01*
X10890489Y-40427514D01*
X11015716Y-40518496D01*
X11034061Y-40531824D01*
X11192190Y-40612395D01*
X11192192Y-40612396D01*
X11360973Y-40667236D01*
X11360974Y-40667236D01*
X11360977Y-40667237D01*
X11536264Y-40695000D01*
X11536265Y-40695000D01*
X11713735Y-40695000D01*
X11713736Y-40695000D01*
X11889023Y-40667237D01*
X11889026Y-40667236D01*
X11889027Y-40667236D01*
X12019116Y-40624968D01*
X12057807Y-40612396D01*
X12057807Y-40612395D01*
X12057810Y-40612395D01*
X12215939Y-40531824D01*
X12359517Y-40427509D01*
X12485009Y-40302017D01*
X12589324Y-40158439D01*
X12669895Y-40000310D01*
X12724737Y-39831523D01*
X12752500Y-39656236D01*
X12752500Y-39478764D01*
X12747857Y-39449447D01*
X31780000Y-39449447D01*
X31780000Y-39685552D01*
X31816934Y-39918747D01*
X31889897Y-40143302D01*
X31997087Y-40353674D01*
X32057338Y-40436604D01*
X32057340Y-40436605D01*
X32678949Y-39814996D01*
X32703968Y-39875396D01*
X32775104Y-39981858D01*
X32865642Y-40072396D01*
X32972104Y-40143532D01*
X33032503Y-40168549D01*
X32410893Y-40790158D01*
X32493828Y-40850414D01*
X32704197Y-40957602D01*
X32928752Y-41030565D01*
X32928751Y-41030565D01*
X33161948Y-41067500D01*
X33398052Y-41067500D01*
X33631247Y-41030565D01*
X33855802Y-40957602D01*
X34066163Y-40850418D01*
X34066169Y-40850414D01*
X34149104Y-40790158D01*
X34149105Y-40790158D01*
X33527496Y-40168550D01*
X33587896Y-40143532D01*
X33694358Y-40072396D01*
X33784896Y-39981858D01*
X33856032Y-39875396D01*
X33881049Y-39814996D01*
X34502658Y-40436605D01*
X34502658Y-40436604D01*
X34562914Y-40353669D01*
X34562918Y-40353663D01*
X34670102Y-40143302D01*
X34743065Y-39918747D01*
X34780000Y-39685552D01*
X34780000Y-39449447D01*
X34743065Y-39216252D01*
X34670102Y-38991697D01*
X34562914Y-38781328D01*
X34502658Y-38698394D01*
X34502658Y-38698393D01*
X33881049Y-39320002D01*
X33856032Y-39259604D01*
X33784896Y-39153142D01*
X33694358Y-39062604D01*
X33587896Y-38991468D01*
X33527496Y-38966449D01*
X34149105Y-38344840D01*
X34149104Y-38344838D01*
X34066174Y-38284587D01*
X33855802Y-38177397D01*
X33631247Y-38104434D01*
X33631248Y-38104434D01*
X33398052Y-38067500D01*
X33161948Y-38067500D01*
X32928752Y-38104434D01*
X32704197Y-38177397D01*
X32493830Y-38284584D01*
X32410894Y-38344840D01*
X33032503Y-38966449D01*
X32972104Y-38991468D01*
X32865642Y-39062604D01*
X32775104Y-39153142D01*
X32703968Y-39259604D01*
X32678949Y-39320003D01*
X32057340Y-38698394D01*
X31997084Y-38781330D01*
X31889897Y-38991697D01*
X31816934Y-39216252D01*
X31780000Y-39449447D01*
X12747857Y-39449447D01*
X12724737Y-39303477D01*
X12724736Y-39303473D01*
X12724736Y-39303472D01*
X12669896Y-39134692D01*
X12633165Y-39062604D01*
X12589324Y-38976561D01*
X12546406Y-38917489D01*
X12485014Y-38832989D01*
X12485010Y-38832984D01*
X12359515Y-38707489D01*
X12359510Y-38707485D01*
X12215942Y-38603178D01*
X12215941Y-38603177D01*
X12215939Y-38603176D01*
X12136874Y-38562890D01*
X12057807Y-38522603D01*
X12019110Y-38510030D01*
X11889026Y-38467763D01*
X11757557Y-38446940D01*
X11713736Y-38440000D01*
X11536264Y-38440000D01*
X11477835Y-38449254D01*
X11360975Y-38467763D01*
X11360972Y-38467763D01*
X11192192Y-38522603D01*
X11034057Y-38603178D01*
X10890489Y-38707485D01*
X10890484Y-38707489D01*
X10764989Y-38832984D01*
X10764985Y-38832989D01*
X10660678Y-38976557D01*
X10580103Y-39134692D01*
X10525263Y-39303472D01*
X10525263Y-39303475D01*
X10497500Y-39478764D01*
X5625000Y-39478764D01*
X5625000Y-34369447D01*
X10125000Y-34369447D01*
X10125000Y-34605552D01*
X10161934Y-34838747D01*
X10234897Y-35063302D01*
X10342087Y-35273674D01*
X10402338Y-35356604D01*
X10402340Y-35356605D01*
X11023949Y-34734996D01*
X11048968Y-34795396D01*
X11120104Y-34901858D01*
X11210642Y-34992396D01*
X11317104Y-35063532D01*
X11377503Y-35088549D01*
X10755893Y-35710158D01*
X10838828Y-35770414D01*
X11049197Y-35877602D01*
X11273752Y-35950565D01*
X11273751Y-35950565D01*
X11506948Y-35987500D01*
X11743052Y-35987500D01*
X11976247Y-35950565D01*
X12200802Y-35877602D01*
X12411163Y-35770418D01*
X12411169Y-35770414D01*
X12494104Y-35710158D01*
X12494105Y-35710158D01*
X11872496Y-35088550D01*
X11932896Y-35063532D01*
X12039358Y-34992396D01*
X12129896Y-34901858D01*
X12201032Y-34795396D01*
X12226050Y-34734996D01*
X12847658Y-35356605D01*
X12847658Y-35356604D01*
X12907914Y-35273669D01*
X12907918Y-35273663D01*
X13015102Y-35063302D01*
X13088065Y-34838747D01*
X13125000Y-34605552D01*
X13125000Y-34398764D01*
X32152500Y-34398764D01*
X32152500Y-34576235D01*
X32180263Y-34751524D01*
X32180263Y-34751527D01*
X32235103Y-34920307D01*
X32235105Y-34920310D01*
X32308080Y-35063532D01*
X32315678Y-35078442D01*
X32419985Y-35222010D01*
X32419989Y-35222015D01*
X32545484Y-35347510D01*
X32545489Y-35347514D01*
X32670716Y-35438496D01*
X32689061Y-35451824D01*
X32847190Y-35532395D01*
X32847192Y-35532396D01*
X33015973Y-35587236D01*
X33015974Y-35587236D01*
X33015977Y-35587237D01*
X33191264Y-35615000D01*
X33191265Y-35615000D01*
X33368735Y-35615000D01*
X33368736Y-35615000D01*
X33544023Y-35587237D01*
X33544026Y-35587236D01*
X33544027Y-35587236D01*
X33712807Y-35532396D01*
X33712807Y-35532395D01*
X33712810Y-35532395D01*
X33870939Y-35451824D01*
X34014517Y-35347509D01*
X34140009Y-35222017D01*
X34244324Y-35078439D01*
X34324895Y-34920310D01*
X34379737Y-34751523D01*
X34407500Y-34576236D01*
X34407500Y-34398764D01*
X34379737Y-34223477D01*
X34379736Y-34223473D01*
X34379736Y-34223472D01*
X34324896Y-34054692D01*
X34288165Y-33982604D01*
X34244324Y-33896561D01*
X34201406Y-33837489D01*
X34140014Y-33752989D01*
X34140010Y-33752984D01*
X34014515Y-33627489D01*
X34014510Y-33627485D01*
X33870942Y-33523178D01*
X33870941Y-33523177D01*
X33870939Y-33523176D01*
X33791874Y-33482890D01*
X33712807Y-33442603D01*
X33544026Y-33387763D01*
X33412557Y-33366940D01*
X33368736Y-33360000D01*
X33191264Y-33360000D01*
X33132835Y-33369254D01*
X33015975Y-33387763D01*
X33015972Y-33387763D01*
X32847192Y-33442603D01*
X32689057Y-33523178D01*
X32545489Y-33627485D01*
X32545484Y-33627489D01*
X32419989Y-33752984D01*
X32419985Y-33752989D01*
X32315678Y-33896557D01*
X32235103Y-34054692D01*
X32180263Y-34223472D01*
X32180263Y-34223475D01*
X32152500Y-34398764D01*
X13125000Y-34398764D01*
X13125000Y-34369447D01*
X13088065Y-34136252D01*
X13015102Y-33911697D01*
X12907914Y-33701328D01*
X12847658Y-33618394D01*
X12847658Y-33618393D01*
X12226049Y-34240002D01*
X12201032Y-34179604D01*
X12129896Y-34073142D01*
X12039358Y-33982604D01*
X11932896Y-33911468D01*
X11872496Y-33886449D01*
X12494105Y-33264840D01*
X12494104Y-33264838D01*
X12411174Y-33204587D01*
X12200802Y-33097397D01*
X11976247Y-33024434D01*
X11976248Y-33024434D01*
X11743052Y-32987500D01*
X11506948Y-32987500D01*
X11273752Y-33024434D01*
X11049197Y-33097397D01*
X10838830Y-33204584D01*
X10755894Y-33264840D01*
X11377503Y-33886449D01*
X11317104Y-33911468D01*
X11210642Y-33982604D01*
X11120104Y-34073142D01*
X11048968Y-34179604D01*
X11023949Y-34240003D01*
X10402340Y-33618394D01*
X10342084Y-33701330D01*
X10234897Y-33911697D01*
X10161934Y-34136252D01*
X10125000Y-34369447D01*
X5625000Y-34369447D01*
X5625000Y-20324000D01*
X5644685Y-20256961D01*
X5697489Y-20211206D01*
X5749000Y-20200000D01*
X39156000Y-20200000D01*
X39223039Y-20219685D01*
G37*
%TD.AperFunction*%
%TD*%
M02*
