%TF.GenerationSoftware,KiCad,Pcbnew,10.0.3*%
%TF.CreationDate,2026-08-19T02:36:46-07:00*%
%TF.ProjectId,bb-ldo,62622d6c-646f-42e6-9b69-6361645f7063,rev?*%
%TF.SameCoordinates,Original*%
%TF.FileFunction,Copper,L1,Top*%
%TF.FilePolarity,Positive*%
%FSLAX46Y46*%
G04 Gerber Fmt 4.6, Leading zero omitted, Abs format (unit mm)*
G04 Created by KiCad (PCBNEW 10.0.3) date 2026-08-19 02:36:46*
%MOMM*%
%LPD*%
G01*
G04 APERTURE LIST*
%TA.AperFunction,SMDPad,CuDef*%
%ADD10R,2.500000X1.100000*%
%TD*%
%TA.AperFunction,SMDPad,CuDef*%
%ADD11R,2.340000X3.600000*%
%TD*%
%TA.AperFunction,ComponentPad*%
%ADD12C,2.000000*%
%TD*%
%TA.AperFunction,SMDPad,CuDef*%
%ADD13R,1.530000X1.296000*%
%TD*%
%TA.AperFunction,SMDPad,CuDef*%
%ADD14R,2.185000X3.780000*%
%TD*%
%TA.AperFunction,ViaPad*%
%ADD15C,0.600000*%
%TD*%
%TA.AperFunction,Conductor*%
%ADD16C,0.600000*%
%TD*%
%TA.AperFunction,Conductor*%
%ADD17C,0.386200*%
%TD*%
G04 APERTURE END LIST*
D10*
%TO.P,U1,1*%
%TO.N,GND*%
X28030000Y-30610000D03*
%TO.P,U1,2*%
%TO.N,+3V3*%
X28030000Y-32910000D03*
%TO.P,U1,3*%
%TO.N,+5V*%
X28030000Y-35210000D03*
D11*
%TO.P,U1,4*%
%TO.N,+3V3*%
X33970000Y-32910000D03*
%TD*%
D12*
%TO.P,J1,1*%
%TO.N,+5V*%
X11625000Y-42450000D03*
%TO.P,J1,2*%
%TO.N,GND*%
X11625000Y-37370000D03*
%TD*%
D13*
%TO.P,C1,1*%
%TO.N,+5V*%
X28530000Y-37310000D03*
%TO.P,C1,2*%
%TO.N,GND*%
X25470000Y-37310000D03*
%TD*%
D12*
%TO.P,J2,1*%
%TO.N,+3V3*%
X48625000Y-23370000D03*
%TO.P,J2,2*%
%TO.N,GND*%
X48625000Y-28450000D03*
%TD*%
D14*
%TO.P,C2,1*%
%TO.N,+3V3*%
X24787500Y-32910000D03*
%TO.P,C2,2*%
%TO.N,GND*%
X17967500Y-32910000D03*
%TD*%
D15*
%TO.N,GND*%
X16325000Y-32910000D03*
X27230000Y-29510000D03*
X28830000Y-29510000D03*
X17968000Y-30470000D03*
X24155000Y-37310000D03*
%TD*%
%TO.N,GND*%
D16*
X25470000Y-37310000D02*
X24155000Y-37310000D01*
X17968000Y-32910000D02*
X16325000Y-32910000D01*
X28830000Y-30610000D02*
X28830000Y-29510000D01*
X27230000Y-30610000D02*
X27230000Y-29510000D01*
X17968000Y-32910000D02*
X17968000Y-30470000D01*
%TO.N,+5V*%
D17*
X23400000Y-42450000D02*
X11600000Y-42450000D01*
X28550000Y-37300000D02*
X28050000Y-36800000D01*
X28550000Y-37300000D02*
X23400000Y-42450000D01*
X28050000Y-35200000D02*
X28050000Y-36800000D01*
%TD*%
%TA.AperFunction,Conductor*%
%TO.N,+3V3*%
G36*
X54568039Y-20219685D02*
G01*
X54613794Y-20272489D01*
X54625000Y-20324000D01*
X54625000Y-45496000D01*
X54605315Y-45563039D01*
X54552511Y-45608794D01*
X54501000Y-45620000D01*
X5749000Y-45620000D01*
X5681961Y-45600315D01*
X5636206Y-45547511D01*
X5625000Y-45496000D01*
X5625000Y-42361264D01*
X10497500Y-42361264D01*
X10497500Y-42538735D01*
X10525263Y-42714024D01*
X10525263Y-42714027D01*
X10580103Y-42882807D01*
X10660678Y-43040942D01*
X10764985Y-43184510D01*
X10764989Y-43184515D01*
X10890484Y-43310010D01*
X10890489Y-43310014D01*
X11015716Y-43400996D01*
X11034061Y-43414324D01*
X11192190Y-43494895D01*
X11192192Y-43494896D01*
X11360973Y-43549736D01*
X11360974Y-43549736D01*
X11360977Y-43549737D01*
X11536264Y-43577500D01*
X11536265Y-43577500D01*
X11713735Y-43577500D01*
X11713736Y-43577500D01*
X11889023Y-43549737D01*
X11889026Y-43549736D01*
X11889027Y-43549736D01*
X12057807Y-43494896D01*
X12057807Y-43494895D01*
X12057810Y-43494895D01*
X12215939Y-43414324D01*
X12359517Y-43310009D01*
X12485009Y-43184517D01*
X12589324Y-43040939D01*
X12669895Y-42882810D01*
X12678515Y-42856281D01*
X12717953Y-42798606D01*
X12782312Y-42771408D01*
X12796446Y-42770600D01*
X23442205Y-42770600D01*
X23442208Y-42770600D01*
X23523747Y-42748751D01*
X23596853Y-42706544D01*
X28181578Y-38121819D01*
X28242901Y-38088334D01*
X28269259Y-38085500D01*
X29307559Y-38085500D01*
X29314957Y-38084028D01*
X29344748Y-38078102D01*
X29386922Y-38049922D01*
X29415102Y-38007748D01*
X29422500Y-37970558D01*
X29422500Y-36649442D01*
X29415102Y-36612252D01*
X29415101Y-36612250D01*
X29386922Y-36570077D01*
X29344749Y-36541898D01*
X29307559Y-36534500D01*
X29307558Y-36534500D01*
X28494600Y-36534500D01*
X28427561Y-36514815D01*
X28381806Y-36462011D01*
X28370600Y-36410500D01*
X28370600Y-36011500D01*
X28390285Y-35944461D01*
X28443089Y-35898706D01*
X28494600Y-35887500D01*
X29292559Y-35887500D01*
X29299957Y-35886028D01*
X29329748Y-35880102D01*
X29371922Y-35851922D01*
X29400102Y-35809748D01*
X29407500Y-35772558D01*
X29407500Y-34647442D01*
X29400102Y-34610252D01*
X29400101Y-34610250D01*
X29371922Y-34568077D01*
X29329749Y-34539898D01*
X29292559Y-34532500D01*
X29292558Y-34532500D01*
X26767442Y-34532500D01*
X26767441Y-34532500D01*
X26730250Y-34539898D01*
X26688077Y-34568077D01*
X26659898Y-34610250D01*
X26652500Y-34647441D01*
X26652500Y-35772558D01*
X26659898Y-35809749D01*
X26688077Y-35851922D01*
X26730250Y-35880101D01*
X26730252Y-35880102D01*
X26758205Y-35885662D01*
X26767441Y-35887500D01*
X26767442Y-35887500D01*
X27605400Y-35887500D01*
X27672439Y-35907185D01*
X27718194Y-35959989D01*
X27729400Y-36011500D01*
X27729400Y-36466165D01*
X27709715Y-36533204D01*
X27674292Y-36569267D01*
X27673077Y-36570078D01*
X27644898Y-36612250D01*
X27637500Y-36649441D01*
X27637500Y-37707741D01*
X27617815Y-37774780D01*
X27601181Y-37795422D01*
X23303522Y-42093081D01*
X23242199Y-42126566D01*
X23215841Y-42129400D01*
X12796446Y-42129400D01*
X12729407Y-42109715D01*
X12683652Y-42056911D01*
X12678515Y-42043719D01*
X12676105Y-42036303D01*
X12669895Y-42017190D01*
X12669894Y-42017189D01*
X12669895Y-42017189D01*
X12641993Y-41962430D01*
X12589324Y-41859061D01*
X12575996Y-41840716D01*
X12485014Y-41715489D01*
X12485010Y-41715484D01*
X12359515Y-41589989D01*
X12359510Y-41589985D01*
X12215942Y-41485678D01*
X12215941Y-41485677D01*
X12215939Y-41485676D01*
X12136874Y-41445390D01*
X12057807Y-41405103D01*
X11889026Y-41350263D01*
X11757557Y-41329440D01*
X11713736Y-41322500D01*
X11536264Y-41322500D01*
X11477835Y-41331754D01*
X11360975Y-41350263D01*
X11360972Y-41350263D01*
X11192192Y-41405103D01*
X11034057Y-41485678D01*
X10890489Y-41589985D01*
X10890484Y-41589989D01*
X10764989Y-41715484D01*
X10764985Y-41715489D01*
X10660678Y-41859057D01*
X10580103Y-42017192D01*
X10525263Y-42185972D01*
X10525263Y-42185975D01*
X10497500Y-42361264D01*
X5625000Y-42361264D01*
X5625000Y-37281264D01*
X10497500Y-37281264D01*
X10497500Y-37458736D01*
X10500078Y-37475010D01*
X10525263Y-37634024D01*
X10525263Y-37634027D01*
X10580103Y-37802807D01*
X10660678Y-37960942D01*
X10764985Y-38104510D01*
X10764989Y-38104515D01*
X10890484Y-38230010D01*
X10890489Y-38230014D01*
X11015716Y-38320996D01*
X11034061Y-38334324D01*
X11192190Y-38414895D01*
X11192192Y-38414896D01*
X11360973Y-38469736D01*
X11360974Y-38469736D01*
X11360977Y-38469737D01*
X11536264Y-38497500D01*
X11536265Y-38497500D01*
X11713735Y-38497500D01*
X11713736Y-38497500D01*
X11889023Y-38469737D01*
X11889026Y-38469736D01*
X11889027Y-38469736D01*
X12057807Y-38414896D01*
X12057807Y-38414895D01*
X12057810Y-38414895D01*
X12215939Y-38334324D01*
X12359517Y-38230009D01*
X12485009Y-38104517D01*
X12589324Y-37960939D01*
X12669895Y-37802810D01*
X12669896Y-37802807D01*
X12724736Y-37634027D01*
X12724736Y-37634026D01*
X12724737Y-37634023D01*
X12752500Y-37458736D01*
X12752500Y-37281264D01*
X12748137Y-37253719D01*
X23727500Y-37253719D01*
X23727500Y-37366280D01*
X23756633Y-37475010D01*
X23784774Y-37523750D01*
X23812915Y-37572491D01*
X23892509Y-37652085D01*
X23989991Y-37708367D01*
X24098719Y-37737500D01*
X24211281Y-37737500D01*
X24453500Y-37737500D01*
X24520539Y-37757185D01*
X24566294Y-37809989D01*
X24577500Y-37861500D01*
X24577500Y-37970558D01*
X24584898Y-38007749D01*
X24613077Y-38049922D01*
X24655250Y-38078101D01*
X24655252Y-38078102D01*
X24683205Y-38083662D01*
X24692441Y-38085500D01*
X24692442Y-38085500D01*
X26247559Y-38085500D01*
X26254957Y-38084028D01*
X26284748Y-38078102D01*
X26326922Y-38049922D01*
X26355102Y-38007748D01*
X26362500Y-37970558D01*
X26362500Y-36649442D01*
X26355102Y-36612252D01*
X26355101Y-36612250D01*
X26326922Y-36570077D01*
X26284749Y-36541898D01*
X26247559Y-36534500D01*
X26247558Y-36534500D01*
X24692442Y-36534500D01*
X24692441Y-36534500D01*
X24655250Y-36541898D01*
X24613077Y-36570077D01*
X24584898Y-36612250D01*
X24577500Y-36649441D01*
X24577500Y-36758500D01*
X24557815Y-36825539D01*
X24505011Y-36871294D01*
X24453500Y-36882500D01*
X24098719Y-36882500D01*
X23989989Y-36911633D01*
X23892509Y-36967915D01*
X23892506Y-36967917D01*
X23812917Y-37047506D01*
X23812915Y-37047509D01*
X23756633Y-37144989D01*
X23727500Y-37253719D01*
X12748137Y-37253719D01*
X12724737Y-37105977D01*
X12724736Y-37105973D01*
X12724736Y-37105972D01*
X12669896Y-36937192D01*
X12636319Y-36871294D01*
X12589324Y-36779061D01*
X12495151Y-36649442D01*
X12485014Y-36635489D01*
X12485010Y-36635484D01*
X12359515Y-36509989D01*
X12359510Y-36509985D01*
X12215942Y-36405678D01*
X12215941Y-36405677D01*
X12215939Y-36405676D01*
X12136874Y-36365390D01*
X12057807Y-36325103D01*
X11889026Y-36270263D01*
X11757557Y-36249440D01*
X11713736Y-36242500D01*
X11536264Y-36242500D01*
X11477835Y-36251754D01*
X11360975Y-36270263D01*
X11360972Y-36270263D01*
X11192192Y-36325103D01*
X11034057Y-36405678D01*
X10890489Y-36509985D01*
X10890484Y-36509989D01*
X10764989Y-36635484D01*
X10764985Y-36635489D01*
X10660678Y-36779057D01*
X10580103Y-36937192D01*
X10525263Y-37105972D01*
X10525263Y-37105975D01*
X10501863Y-37253719D01*
X10497500Y-37281264D01*
X5625000Y-37281264D01*
X5625000Y-32853719D01*
X15897500Y-32853719D01*
X15897500Y-32966280D01*
X15926633Y-33075010D01*
X15954774Y-33123750D01*
X15982915Y-33172491D01*
X16062509Y-33252085D01*
X16159991Y-33308367D01*
X16268719Y-33337500D01*
X16381281Y-33337500D01*
X16623500Y-33337500D01*
X16690539Y-33357185D01*
X16736294Y-33409989D01*
X16747500Y-33461500D01*
X16747500Y-34812558D01*
X16754898Y-34849749D01*
X16783077Y-34891922D01*
X16825250Y-34920101D01*
X16825252Y-34920102D01*
X16853205Y-34925662D01*
X16862441Y-34927500D01*
X16862442Y-34927500D01*
X19072559Y-34927500D01*
X19079957Y-34926028D01*
X19109748Y-34920102D01*
X19151922Y-34891922D01*
X19180102Y-34849748D01*
X19187500Y-34812558D01*
X19187500Y-31007442D01*
X19180102Y-30970252D01*
X19180101Y-30970250D01*
X19151922Y-30928077D01*
X19109749Y-30899898D01*
X19072559Y-30892500D01*
X19072558Y-30892500D01*
X18519500Y-30892500D01*
X18452461Y-30872815D01*
X18406706Y-30820011D01*
X18395500Y-30768500D01*
X18395500Y-30413721D01*
X18395500Y-30413719D01*
X18366367Y-30304991D01*
X18310085Y-30207509D01*
X18230491Y-30127915D01*
X18181750Y-30099774D01*
X18133010Y-30071633D01*
X18042721Y-30047441D01*
X26652500Y-30047441D01*
X26652500Y-31172558D01*
X26659898Y-31209749D01*
X26688077Y-31251922D01*
X26730250Y-31280101D01*
X26730252Y-31280102D01*
X26758205Y-31285662D01*
X26767441Y-31287500D01*
X26767442Y-31287500D01*
X29292559Y-31287500D01*
X29299957Y-31286028D01*
X29329748Y-31280102D01*
X29371922Y-31251922D01*
X29400102Y-31209748D01*
X29407500Y-31172558D01*
X29407500Y-30047442D01*
X29400102Y-30010252D01*
X29400101Y-30010250D01*
X29371922Y-29968077D01*
X29319594Y-29933113D01*
X29320931Y-29931111D01*
X29279638Y-29897828D01*
X29257579Y-29831532D01*
X29257500Y-29827117D01*
X29257500Y-29453721D01*
X29257500Y-29453719D01*
X29228367Y-29344991D01*
X29172085Y-29247509D01*
X29092491Y-29167915D01*
X29043750Y-29139774D01*
X28995010Y-29111633D01*
X28940645Y-29097066D01*
X28886281Y-29082500D01*
X28773719Y-29082500D01*
X28664989Y-29111633D01*
X28567509Y-29167915D01*
X28567506Y-29167917D01*
X28487917Y-29247506D01*
X28487915Y-29247509D01*
X28431633Y-29344989D01*
X28402500Y-29453719D01*
X28402500Y-29808500D01*
X28382815Y-29875539D01*
X28330011Y-29921294D01*
X28278500Y-29932500D01*
X27781500Y-29932500D01*
X27714461Y-29912815D01*
X27668706Y-29860011D01*
X27657500Y-29808500D01*
X27657500Y-29453721D01*
X27657500Y-29453719D01*
X27628367Y-29344991D01*
X27572085Y-29247509D01*
X27492491Y-29167915D01*
X27443750Y-29139774D01*
X27395010Y-29111633D01*
X27340645Y-29097066D01*
X27286281Y-29082500D01*
X27173719Y-29082500D01*
X27064989Y-29111633D01*
X26967509Y-29167915D01*
X26967506Y-29167917D01*
X26887917Y-29247506D01*
X26887915Y-29247509D01*
X26831633Y-29344989D01*
X26802500Y-29453719D01*
X26802500Y-29827117D01*
X26782815Y-29894156D01*
X26739471Y-29931713D01*
X26740406Y-29933113D01*
X26688077Y-29968077D01*
X26659898Y-30010250D01*
X26652500Y-30047441D01*
X18042721Y-30047441D01*
X18024281Y-30042500D01*
X17911719Y-30042500D01*
X17802989Y-30071633D01*
X17705509Y-30127915D01*
X17705506Y-30127917D01*
X17625917Y-30207506D01*
X17625915Y-30207509D01*
X17569633Y-30304989D01*
X17540500Y-30413719D01*
X17540500Y-30768500D01*
X17520815Y-30835539D01*
X17468011Y-30881294D01*
X17416500Y-30892500D01*
X16862441Y-30892500D01*
X16825250Y-30899898D01*
X16783077Y-30928077D01*
X16754898Y-30970250D01*
X16747500Y-31007441D01*
X16747500Y-32358500D01*
X16727815Y-32425539D01*
X16675011Y-32471294D01*
X16623500Y-32482500D01*
X16268719Y-32482500D01*
X16159989Y-32511633D01*
X16062509Y-32567915D01*
X16062506Y-32567917D01*
X15982917Y-32647506D01*
X15982915Y-32647509D01*
X15926633Y-32744989D01*
X15897500Y-32853719D01*
X5625000Y-32853719D01*
X5625000Y-28361264D01*
X47497500Y-28361264D01*
X47497500Y-28538735D01*
X47525263Y-28714024D01*
X47525263Y-28714027D01*
X47580103Y-28882807D01*
X47660678Y-29040942D01*
X47764985Y-29184510D01*
X47764989Y-29184515D01*
X47890484Y-29310010D01*
X47890489Y-29310014D01*
X48015716Y-29400996D01*
X48034061Y-29414324D01*
X48192190Y-29494895D01*
X48192192Y-29494896D01*
X48360973Y-29549736D01*
X48360974Y-29549736D01*
X48360977Y-29549737D01*
X48536264Y-29577500D01*
X48536265Y-29577500D01*
X48713735Y-29577500D01*
X48713736Y-29577500D01*
X48889023Y-29549737D01*
X48889026Y-29549736D01*
X48889027Y-29549736D01*
X49057807Y-29494896D01*
X49057807Y-29494895D01*
X49057810Y-29494895D01*
X49215939Y-29414324D01*
X49359517Y-29310009D01*
X49485009Y-29184517D01*
X49589324Y-29040939D01*
X49669895Y-28882810D01*
X49724737Y-28714023D01*
X49752500Y-28538736D01*
X49752500Y-28361264D01*
X49724737Y-28185977D01*
X49724736Y-28185973D01*
X49724736Y-28185972D01*
X49669896Y-28017192D01*
X49669895Y-28017190D01*
X49589324Y-27859061D01*
X49575996Y-27840716D01*
X49485014Y-27715489D01*
X49485010Y-27715484D01*
X49359515Y-27589989D01*
X49359510Y-27589985D01*
X49215942Y-27485678D01*
X49215941Y-27485677D01*
X49215939Y-27485676D01*
X49136874Y-27445390D01*
X49057807Y-27405103D01*
X48889026Y-27350263D01*
X48757557Y-27329440D01*
X48713736Y-27322500D01*
X48536264Y-27322500D01*
X48477835Y-27331754D01*
X48360975Y-27350263D01*
X48360972Y-27350263D01*
X48192192Y-27405103D01*
X48034057Y-27485678D01*
X47890489Y-27589985D01*
X47890484Y-27589989D01*
X47764989Y-27715484D01*
X47764985Y-27715489D01*
X47660678Y-27859057D01*
X47580103Y-28017192D01*
X47525263Y-28185972D01*
X47525263Y-28185975D01*
X47497500Y-28361264D01*
X5625000Y-28361264D01*
X5625000Y-20324000D01*
X5644685Y-20256961D01*
X5697489Y-20211206D01*
X5749000Y-20200000D01*
X54501000Y-20200000D01*
X54568039Y-20219685D01*
G37*
%TD.AperFunction*%
%TD*%
M02*
