%TF.GenerationSoftware,KiCad,Pcbnew,10.0.3*%
%TF.CreationDate,2026-08-20T02:55:06-07:00*%
%TF.ProjectId,bb-ldo,62622d6c-646f-42e6-9b69-6361645f7063,rev?*%
%TF.SameCoordinates,Original*%
%TF.FileFunction,Legend,Top*%
%TF.FilePolarity,Positive*%
%FSLAX46Y46*%
G04 Gerber Fmt 4.6, Leading zero omitted, Abs format (unit mm)*
G04 Created by KiCad (PCBNEW 10.0.3) date 2026-08-20 02:55:06*
%MOMM*%
%LPD*%
G01*
G04 APERTURE LIST*
%ADD10C,0.200000*%
%ADD11C,0.250000*%
%ADD12C,0.150000*%
%ADD13C,0.000000*%
G04 APERTURE END LIST*
D10*
X10710714Y-30001885D02*
X10596429Y-29944742D01*
X10596429Y-29944742D02*
X10425000Y-29944742D01*
X10425000Y-29944742D02*
X10253571Y-30001885D01*
X10253571Y-30001885D02*
X10139286Y-30116171D01*
X10139286Y-30116171D02*
X10082143Y-30230457D01*
X10082143Y-30230457D02*
X10025000Y-30459028D01*
X10025000Y-30459028D02*
X10025000Y-30630457D01*
X10025000Y-30630457D02*
X10082143Y-30859028D01*
X10082143Y-30859028D02*
X10139286Y-30973314D01*
X10139286Y-30973314D02*
X10253571Y-31087600D01*
X10253571Y-31087600D02*
X10425000Y-31144742D01*
X10425000Y-31144742D02*
X10539286Y-31144742D01*
X10539286Y-31144742D02*
X10710714Y-31087600D01*
X10710714Y-31087600D02*
X10767857Y-31030457D01*
X10767857Y-31030457D02*
X10767857Y-30630457D01*
X10767857Y-30630457D02*
X10539286Y-30630457D01*
X11282143Y-31144742D02*
X11282143Y-29944742D01*
X11282143Y-29944742D02*
X11967857Y-31144742D01*
X11967857Y-31144742D02*
X11967857Y-29944742D01*
X12539286Y-31144742D02*
X12539286Y-29944742D01*
X12539286Y-29944742D02*
X12825000Y-29944742D01*
X12825000Y-29944742D02*
X12996429Y-30001885D01*
X12996429Y-30001885D02*
X13110714Y-30116171D01*
X13110714Y-30116171D02*
X13167857Y-30230457D01*
X13167857Y-30230457D02*
X13225000Y-30459028D01*
X13225000Y-30459028D02*
X13225000Y-30630457D01*
X13225000Y-30630457D02*
X13167857Y-30859028D01*
X13167857Y-30859028D02*
X13110714Y-30973314D01*
X13110714Y-30973314D02*
X12996429Y-31087600D01*
X12996429Y-31087600D02*
X12825000Y-31144742D01*
X12825000Y-31144742D02*
X12539286Y-31144742D01*
X10082143Y-43587600D02*
X10996429Y-43587600D01*
X10539286Y-44044742D02*
X10539286Y-43130457D01*
X12139285Y-42844742D02*
X11567857Y-42844742D01*
X11567857Y-42844742D02*
X11510714Y-43416171D01*
X11510714Y-43416171D02*
X11567857Y-43359028D01*
X11567857Y-43359028D02*
X11682143Y-43301885D01*
X11682143Y-43301885D02*
X11967857Y-43301885D01*
X11967857Y-43301885D02*
X12082143Y-43359028D01*
X12082143Y-43359028D02*
X12139285Y-43416171D01*
X12139285Y-43416171D02*
X12196428Y-43530457D01*
X12196428Y-43530457D02*
X12196428Y-43816171D01*
X12196428Y-43816171D02*
X12139285Y-43930457D01*
X12139285Y-43930457D02*
X12082143Y-43987600D01*
X12082143Y-43987600D02*
X11967857Y-44044742D01*
X11967857Y-44044742D02*
X11682143Y-44044742D01*
X11682143Y-44044742D02*
X11567857Y-43987600D01*
X11567857Y-43987600D02*
X11510714Y-43930457D01*
X12539285Y-42844742D02*
X12939285Y-44044742D01*
X12939285Y-44044742D02*
X13339285Y-42844742D01*
X31165715Y-30687600D02*
X32080001Y-30687600D01*
X31622858Y-31144742D02*
X31622858Y-30230457D01*
X32537143Y-29944742D02*
X33280000Y-29944742D01*
X33280000Y-29944742D02*
X32880000Y-30401885D01*
X32880000Y-30401885D02*
X33051429Y-30401885D01*
X33051429Y-30401885D02*
X33165715Y-30459028D01*
X33165715Y-30459028D02*
X33222857Y-30516171D01*
X33222857Y-30516171D02*
X33280000Y-30630457D01*
X33280000Y-30630457D02*
X33280000Y-30916171D01*
X33280000Y-30916171D02*
X33222857Y-31030457D01*
X33222857Y-31030457D02*
X33165715Y-31087600D01*
X33165715Y-31087600D02*
X33051429Y-31144742D01*
X33051429Y-31144742D02*
X32708572Y-31144742D01*
X32708572Y-31144742D02*
X32594286Y-31087600D01*
X32594286Y-31087600D02*
X32537143Y-31030457D01*
X33622857Y-29944742D02*
X34022857Y-31144742D01*
X34022857Y-31144742D02*
X34422857Y-29944742D01*
X34708571Y-29944742D02*
X35451428Y-29944742D01*
X35451428Y-29944742D02*
X35051428Y-30401885D01*
X35051428Y-30401885D02*
X35222857Y-30401885D01*
X35222857Y-30401885D02*
X35337143Y-30459028D01*
X35337143Y-30459028D02*
X35394285Y-30516171D01*
X35394285Y-30516171D02*
X35451428Y-30630457D01*
X35451428Y-30630457D02*
X35451428Y-30916171D01*
X35451428Y-30916171D02*
X35394285Y-31030457D01*
X35394285Y-31030457D02*
X35337143Y-31087600D01*
X35337143Y-31087600D02*
X35222857Y-31144742D01*
X35222857Y-31144742D02*
X34880000Y-31144742D01*
X34880000Y-31144742D02*
X34765714Y-31087600D01*
X34765714Y-31087600D02*
X34708571Y-31030457D01*
X32365714Y-42901885D02*
X32251429Y-42844742D01*
X32251429Y-42844742D02*
X32080000Y-42844742D01*
X32080000Y-42844742D02*
X31908571Y-42901885D01*
X31908571Y-42901885D02*
X31794286Y-43016171D01*
X31794286Y-43016171D02*
X31737143Y-43130457D01*
X31737143Y-43130457D02*
X31680000Y-43359028D01*
X31680000Y-43359028D02*
X31680000Y-43530457D01*
X31680000Y-43530457D02*
X31737143Y-43759028D01*
X31737143Y-43759028D02*
X31794286Y-43873314D01*
X31794286Y-43873314D02*
X31908571Y-43987600D01*
X31908571Y-43987600D02*
X32080000Y-44044742D01*
X32080000Y-44044742D02*
X32194286Y-44044742D01*
X32194286Y-44044742D02*
X32365714Y-43987600D01*
X32365714Y-43987600D02*
X32422857Y-43930457D01*
X32422857Y-43930457D02*
X32422857Y-43530457D01*
X32422857Y-43530457D02*
X32194286Y-43530457D01*
X32937143Y-44044742D02*
X32937143Y-42844742D01*
X32937143Y-42844742D02*
X33622857Y-44044742D01*
X33622857Y-44044742D02*
X33622857Y-42844742D01*
X34194286Y-44044742D02*
X34194286Y-42844742D01*
X34194286Y-42844742D02*
X34480000Y-42844742D01*
X34480000Y-42844742D02*
X34651429Y-42901885D01*
X34651429Y-42901885D02*
X34765714Y-43016171D01*
X34765714Y-43016171D02*
X34822857Y-43130457D01*
X34822857Y-43130457D02*
X34880000Y-43359028D01*
X34880000Y-43359028D02*
X34880000Y-43530457D01*
X34880000Y-43530457D02*
X34822857Y-43759028D01*
X34822857Y-43759028D02*
X34765714Y-43873314D01*
X34765714Y-43873314D02*
X34651429Y-43987600D01*
X34651429Y-43987600D02*
X34480000Y-44044742D01*
X34480000Y-44044742D02*
X34194286Y-44044742D01*
D11*
X26528167Y-29476833D02*
X27594834Y-29476833D01*
X27061500Y-30010166D02*
X27061500Y-28943500D01*
X10786905Y-29027190D02*
X10786905Y-27427190D01*
X11548810Y-29027190D02*
X11548810Y-27427190D01*
X11548810Y-27427190D02*
X12463096Y-29027190D01*
X12463096Y-29027190D02*
X12463096Y-27427190D01*
X14642976Y-46327190D02*
X14642976Y-44727190D01*
X14642976Y-45489095D02*
X15557262Y-45489095D01*
X15557262Y-46327190D02*
X15557262Y-44727190D01*
X16623928Y-44727190D02*
X16928690Y-44727190D01*
X16928690Y-44727190D02*
X17081071Y-44803380D01*
X17081071Y-44803380D02*
X17233452Y-44955761D01*
X17233452Y-44955761D02*
X17309642Y-45260523D01*
X17309642Y-45260523D02*
X17309642Y-45793857D01*
X17309642Y-45793857D02*
X17233452Y-46098619D01*
X17233452Y-46098619D02*
X17081071Y-46251000D01*
X17081071Y-46251000D02*
X16928690Y-46327190D01*
X16928690Y-46327190D02*
X16623928Y-46327190D01*
X16623928Y-46327190D02*
X16471547Y-46251000D01*
X16471547Y-46251000D02*
X16319166Y-46098619D01*
X16319166Y-46098619D02*
X16242975Y-45793857D01*
X16242975Y-45793857D02*
X16242975Y-45260523D01*
X16242975Y-45260523D02*
X16319166Y-44955761D01*
X16319166Y-44955761D02*
X16471547Y-44803380D01*
X16471547Y-44803380D02*
X16623928Y-44727190D01*
X17766784Y-44727190D02*
X18681070Y-44727190D01*
X18223927Y-46327190D02*
X18223927Y-44727190D01*
X20357261Y-46251000D02*
X20585833Y-46327190D01*
X20585833Y-46327190D02*
X20966785Y-46327190D01*
X20966785Y-46327190D02*
X21119166Y-46251000D01*
X21119166Y-46251000D02*
X21195357Y-46174809D01*
X21195357Y-46174809D02*
X21271547Y-46022428D01*
X21271547Y-46022428D02*
X21271547Y-45870047D01*
X21271547Y-45870047D02*
X21195357Y-45717666D01*
X21195357Y-45717666D02*
X21119166Y-45641476D01*
X21119166Y-45641476D02*
X20966785Y-45565285D01*
X20966785Y-45565285D02*
X20662023Y-45489095D01*
X20662023Y-45489095D02*
X20509642Y-45412904D01*
X20509642Y-45412904D02*
X20433452Y-45336714D01*
X20433452Y-45336714D02*
X20357261Y-45184333D01*
X20357261Y-45184333D02*
X20357261Y-45031952D01*
X20357261Y-45031952D02*
X20433452Y-44879571D01*
X20433452Y-44879571D02*
X20509642Y-44803380D01*
X20509642Y-44803380D02*
X20662023Y-44727190D01*
X20662023Y-44727190D02*
X21042976Y-44727190D01*
X21042976Y-44727190D02*
X21271547Y-44803380D01*
X21957262Y-44727190D02*
X21957262Y-46022428D01*
X21957262Y-46022428D02*
X22033452Y-46174809D01*
X22033452Y-46174809D02*
X22109643Y-46251000D01*
X22109643Y-46251000D02*
X22262024Y-46327190D01*
X22262024Y-46327190D02*
X22566786Y-46327190D01*
X22566786Y-46327190D02*
X22719167Y-46251000D01*
X22719167Y-46251000D02*
X22795357Y-46174809D01*
X22795357Y-46174809D02*
X22871548Y-46022428D01*
X22871548Y-46022428D02*
X22871548Y-44727190D01*
X24547738Y-46327190D02*
X24014404Y-45565285D01*
X23633452Y-46327190D02*
X23633452Y-44727190D01*
X23633452Y-44727190D02*
X24242976Y-44727190D01*
X24242976Y-44727190D02*
X24395357Y-44803380D01*
X24395357Y-44803380D02*
X24471547Y-44879571D01*
X24471547Y-44879571D02*
X24547738Y-45031952D01*
X24547738Y-45031952D02*
X24547738Y-45260523D01*
X24547738Y-45260523D02*
X24471547Y-45412904D01*
X24471547Y-45412904D02*
X24395357Y-45489095D01*
X24395357Y-45489095D02*
X24242976Y-45565285D01*
X24242976Y-45565285D02*
X23633452Y-45565285D01*
X25766785Y-45489095D02*
X25233452Y-45489095D01*
X25233452Y-46327190D02*
X25233452Y-44727190D01*
X25233452Y-44727190D02*
X25995357Y-44727190D01*
X26528690Y-45870047D02*
X27290595Y-45870047D01*
X26376309Y-46327190D02*
X26909643Y-44727190D01*
X26909643Y-44727190D02*
X27442976Y-46327190D01*
X28890596Y-46174809D02*
X28814405Y-46251000D01*
X28814405Y-46251000D02*
X28585834Y-46327190D01*
X28585834Y-46327190D02*
X28433453Y-46327190D01*
X28433453Y-46327190D02*
X28204881Y-46251000D01*
X28204881Y-46251000D02*
X28052500Y-46098619D01*
X28052500Y-46098619D02*
X27976310Y-45946238D01*
X27976310Y-45946238D02*
X27900119Y-45641476D01*
X27900119Y-45641476D02*
X27900119Y-45412904D01*
X27900119Y-45412904D02*
X27976310Y-45108142D01*
X27976310Y-45108142D02*
X28052500Y-44955761D01*
X28052500Y-44955761D02*
X28204881Y-44803380D01*
X28204881Y-44803380D02*
X28433453Y-44727190D01*
X28433453Y-44727190D02*
X28585834Y-44727190D01*
X28585834Y-44727190D02*
X28814405Y-44803380D01*
X28814405Y-44803380D02*
X28890596Y-44879571D01*
X29576310Y-45489095D02*
X30109643Y-45489095D01*
X30338215Y-46327190D02*
X29576310Y-46327190D01*
X29576310Y-46327190D02*
X29576310Y-44727190D01*
X29576310Y-44727190D02*
X30338215Y-44727190D01*
X31680000Y-27427190D02*
X31984762Y-27427190D01*
X31984762Y-27427190D02*
X32137143Y-27503380D01*
X32137143Y-27503380D02*
X32289524Y-27655761D01*
X32289524Y-27655761D02*
X32365714Y-27960523D01*
X32365714Y-27960523D02*
X32365714Y-28493857D01*
X32365714Y-28493857D02*
X32289524Y-28798619D01*
X32289524Y-28798619D02*
X32137143Y-28951000D01*
X32137143Y-28951000D02*
X31984762Y-29027190D01*
X31984762Y-29027190D02*
X31680000Y-29027190D01*
X31680000Y-29027190D02*
X31527619Y-28951000D01*
X31527619Y-28951000D02*
X31375238Y-28798619D01*
X31375238Y-28798619D02*
X31299047Y-28493857D01*
X31299047Y-28493857D02*
X31299047Y-27960523D01*
X31299047Y-27960523D02*
X31375238Y-27655761D01*
X31375238Y-27655761D02*
X31527619Y-27503380D01*
X31527619Y-27503380D02*
X31680000Y-27427190D01*
X33051428Y-27427190D02*
X33051428Y-28722428D01*
X33051428Y-28722428D02*
X33127618Y-28874809D01*
X33127618Y-28874809D02*
X33203809Y-28951000D01*
X33203809Y-28951000D02*
X33356190Y-29027190D01*
X33356190Y-29027190D02*
X33660952Y-29027190D01*
X33660952Y-29027190D02*
X33813333Y-28951000D01*
X33813333Y-28951000D02*
X33889523Y-28874809D01*
X33889523Y-28874809D02*
X33965714Y-28722428D01*
X33965714Y-28722428D02*
X33965714Y-27427190D01*
X34499046Y-27427190D02*
X35413332Y-27427190D01*
X34956189Y-29027190D02*
X34956189Y-27427190D01*
D12*
X22789595Y-40094819D02*
X22789595Y-40904342D01*
X22789595Y-40904342D02*
X22837214Y-40999580D01*
X22837214Y-40999580D02*
X22884833Y-41047200D01*
X22884833Y-41047200D02*
X22980071Y-41094819D01*
X22980071Y-41094819D02*
X23170547Y-41094819D01*
X23170547Y-41094819D02*
X23265785Y-41047200D01*
X23265785Y-41047200D02*
X23313404Y-40999580D01*
X23313404Y-40999580D02*
X23361023Y-40904342D01*
X23361023Y-40904342D02*
X23361023Y-40094819D01*
X24361023Y-41094819D02*
X23789595Y-41094819D01*
X24075309Y-41094819D02*
X24075309Y-40094819D01*
X24075309Y-40094819D02*
X23980071Y-40237676D01*
X23980071Y-40237676D02*
X23884833Y-40332914D01*
X23884833Y-40332914D02*
X23789595Y-40380533D01*
X16754819Y-37360833D02*
X17469104Y-37360833D01*
X17469104Y-37360833D02*
X17611961Y-37408452D01*
X17611961Y-37408452D02*
X17707200Y-37503690D01*
X17707200Y-37503690D02*
X17754819Y-37646547D01*
X17754819Y-37646547D02*
X17754819Y-37741785D01*
X17754819Y-36360833D02*
X17754819Y-36932261D01*
X17754819Y-36646547D02*
X16754819Y-36646547D01*
X16754819Y-36646547D02*
X16897676Y-36741785D01*
X16897676Y-36741785D02*
X16992914Y-36837023D01*
X16992914Y-36837023D02*
X17040533Y-36932261D01*
X18984833Y-28714580D02*
X18937214Y-28762200D01*
X18937214Y-28762200D02*
X18794357Y-28809819D01*
X18794357Y-28809819D02*
X18699119Y-28809819D01*
X18699119Y-28809819D02*
X18556262Y-28762200D01*
X18556262Y-28762200D02*
X18461024Y-28666961D01*
X18461024Y-28666961D02*
X18413405Y-28571723D01*
X18413405Y-28571723D02*
X18365786Y-28381247D01*
X18365786Y-28381247D02*
X18365786Y-28238390D01*
X18365786Y-28238390D02*
X18413405Y-28047914D01*
X18413405Y-28047914D02*
X18461024Y-27952676D01*
X18461024Y-27952676D02*
X18556262Y-27857438D01*
X18556262Y-27857438D02*
X18699119Y-27809819D01*
X18699119Y-27809819D02*
X18794357Y-27809819D01*
X18794357Y-27809819D02*
X18937214Y-27857438D01*
X18937214Y-27857438D02*
X18984833Y-27905057D01*
X19937214Y-28809819D02*
X19365786Y-28809819D01*
X19651500Y-28809819D02*
X19651500Y-27809819D01*
X19651500Y-27809819D02*
X19556262Y-27952676D01*
X19556262Y-27952676D02*
X19461024Y-28047914D01*
X19461024Y-28047914D02*
X19365786Y-28095533D01*
X36654819Y-29733333D02*
X37369104Y-29733333D01*
X37369104Y-29733333D02*
X37511961Y-29780952D01*
X37511961Y-29780952D02*
X37607200Y-29876190D01*
X37607200Y-29876190D02*
X37654819Y-30019047D01*
X37654819Y-30019047D02*
X37654819Y-30114285D01*
X36750057Y-29304761D02*
X36702438Y-29257142D01*
X36702438Y-29257142D02*
X36654819Y-29161904D01*
X36654819Y-29161904D02*
X36654819Y-28923809D01*
X36654819Y-28923809D02*
X36702438Y-28828571D01*
X36702438Y-28828571D02*
X36750057Y-28780952D01*
X36750057Y-28780952D02*
X36845295Y-28733333D01*
X36845295Y-28733333D02*
X36940533Y-28733333D01*
X36940533Y-28733333D02*
X37083390Y-28780952D01*
X37083390Y-28780952D02*
X37654819Y-29352380D01*
X37654819Y-29352380D02*
X37654819Y-28733333D01*
X23384833Y-20884580D02*
X23337214Y-20932200D01*
X23337214Y-20932200D02*
X23194357Y-20979819D01*
X23194357Y-20979819D02*
X23099119Y-20979819D01*
X23099119Y-20979819D02*
X22956262Y-20932200D01*
X22956262Y-20932200D02*
X22861024Y-20836961D01*
X22861024Y-20836961D02*
X22813405Y-20741723D01*
X22813405Y-20741723D02*
X22765786Y-20551247D01*
X22765786Y-20551247D02*
X22765786Y-20408390D01*
X22765786Y-20408390D02*
X22813405Y-20217914D01*
X22813405Y-20217914D02*
X22861024Y-20122676D01*
X22861024Y-20122676D02*
X22956262Y-20027438D01*
X22956262Y-20027438D02*
X23099119Y-19979819D01*
X23099119Y-19979819D02*
X23194357Y-19979819D01*
X23194357Y-19979819D02*
X23337214Y-20027438D01*
X23337214Y-20027438D02*
X23384833Y-20075057D01*
X23765786Y-20075057D02*
X23813405Y-20027438D01*
X23813405Y-20027438D02*
X23908643Y-19979819D01*
X23908643Y-19979819D02*
X24146738Y-19979819D01*
X24146738Y-19979819D02*
X24241976Y-20027438D01*
X24241976Y-20027438D02*
X24289595Y-20075057D01*
X24289595Y-20075057D02*
X24337214Y-20170295D01*
X24337214Y-20170295D02*
X24337214Y-20265533D01*
X24337214Y-20265533D02*
X24289595Y-20408390D01*
X24289595Y-20408390D02*
X23718167Y-20979819D01*
X23718167Y-20979819D02*
X24337214Y-20979819D01*
%TO.C,U1*%
X20221500Y-34205000D02*
X26881500Y-34205000D01*
X20221500Y-37145000D02*
X20221500Y-34205000D01*
X26881500Y-34205000D02*
X26881500Y-37145000D01*
X26881500Y-37145000D02*
X20221500Y-37145000D01*
X26831500Y-32175000D02*
G75*
G02*
X26771500Y-32175000I-30000J0D01*
G01*
X26771500Y-32175000D02*
G75*
G02*
X26831500Y-32175000I30000J0D01*
G01*
%TO.C,J1*%
D11*
X5985000Y-31947500D02*
X5985000Y-42077500D01*
X6875000Y-42707500D02*
X7875000Y-42707500D01*
X7125000Y-42107500D02*
X6875000Y-42707500D01*
X7875000Y-42707500D02*
X7625000Y-42107500D01*
X14375000Y-42707500D02*
X15375000Y-42707500D01*
X14625000Y-42107500D02*
X14375000Y-42707500D01*
X15375000Y-42707500D02*
X15125000Y-42107500D01*
X16145000Y-31947500D02*
X5985000Y-31947500D01*
X16145000Y-31947500D02*
X16145000Y-42077500D01*
X16145000Y-42107500D02*
X5985000Y-42107500D01*
D12*
X16155000Y-42237500D02*
G75*
G02*
X16095000Y-42237500I-30000J0D01*
G01*
X16095000Y-42237500D02*
G75*
G02*
X16155000Y-42237500I30000J0D01*
G01*
D13*
G36*
X9125005Y-34447495D02*
G01*
X8125007Y-35447493D01*
X8125007Y-34947494D01*
X6125011Y-34947494D01*
X6125011Y-33947496D01*
X8125007Y-33947496D01*
X8125007Y-33447497D01*
X9125005Y-34447495D01*
G37*
G36*
X9125005Y-39527495D02*
G01*
X8125007Y-40527493D01*
X8125007Y-40027494D01*
X6125011Y-40027494D01*
X6125011Y-39027496D01*
X8125007Y-39027496D01*
X8125007Y-38527497D01*
X9125005Y-39527495D01*
G37*
%TO.C,C1*%
D11*
X17151500Y-34075000D02*
X18151500Y-34075000D01*
X17651500Y-34575000D02*
X17651500Y-33575000D01*
D12*
X18271500Y-29895000D02*
X18271500Y-33255000D01*
X20031500Y-29895000D02*
X20031500Y-33255000D01*
X20031500Y-31975000D02*
X18271500Y-31975000D01*
D13*
G36*
X18351095Y-33632197D02*
G01*
X18199102Y-33632197D01*
X18199102Y-33174997D01*
X18351095Y-33174997D01*
X18351095Y-33632197D01*
G37*
G36*
X20103898Y-33632197D02*
G01*
X19951905Y-33632197D01*
X19951905Y-33174997D01*
X20103898Y-33174997D01*
X20103898Y-33632197D01*
G37*
%TO.C,J2*%
D11*
X28760000Y-31947500D02*
X38920000Y-31947500D01*
X28760000Y-42107500D02*
X28760000Y-31977500D01*
X28760000Y-42107500D02*
X38920000Y-42107500D01*
X29530000Y-31347500D02*
X29780000Y-31947500D01*
X30280000Y-31947500D02*
X30530000Y-31347500D01*
X30530000Y-31347500D02*
X29530000Y-31347500D01*
X37030000Y-31347500D02*
X37280000Y-31947500D01*
X37780000Y-31947500D02*
X38030000Y-31347500D01*
X38030000Y-31347500D02*
X37030000Y-31347500D01*
X38920000Y-42107500D02*
X38920000Y-31977500D01*
D12*
X28810000Y-31817500D02*
G75*
G02*
X28750000Y-31817500I-30000J0D01*
G01*
X28750000Y-31817500D02*
G75*
G02*
X28810000Y-31817500I30000J0D01*
G01*
D13*
G36*
X36779993Y-34027506D02*
G01*
X38779989Y-34027506D01*
X38779989Y-35027504D01*
X36779993Y-35027504D01*
X36779993Y-35527503D01*
X35779995Y-34527505D01*
X36779993Y-33527507D01*
X36779993Y-34027506D01*
G37*
G36*
X36779993Y-39107506D02*
G01*
X38779989Y-39107506D01*
X38779989Y-40107504D01*
X36779993Y-40107504D01*
X36779993Y-40607503D01*
X35779995Y-39607505D01*
X36779993Y-38607507D01*
X36779993Y-39107506D01*
G37*
%TO.C,C2*%
D12*
X21261500Y-22142500D02*
X21261500Y-29762500D01*
X21261500Y-29762500D02*
X21521500Y-29762500D01*
X21521500Y-22142500D02*
X21261500Y-22142500D01*
X25581500Y-29762500D02*
X25841500Y-29762500D01*
X25781500Y-28152500D02*
X21321500Y-28152500D01*
X25841500Y-22142500D02*
X25711500Y-22142500D01*
X25841500Y-29762500D02*
X25841500Y-22142500D01*
X25731500Y-29602500D02*
G75*
G02*
X25671500Y-29602500I-30000J0D01*
G01*
X25671500Y-29602500D02*
G75*
G02*
X25731500Y-29602500I30000J0D01*
G01*
%TD*%
M02*
