%TF.GenerationSoftware,KiCad,Pcbnew,10.0.3*%
%TF.CreationDate,2026-08-19T02:36:46-07:00*%
%TF.ProjectId,bb-ldo,62622d6c-646f-42e6-9b69-6361645f7063,rev?*%
%TF.SameCoordinates,Original*%
%TF.FileFunction,Copper,L2,Bot*%
%TF.FilePolarity,Positive*%
%FSLAX46Y46*%
G04 Gerber Fmt 4.6, Leading zero omitted, Abs format (unit mm)*
G04 Created by KiCad (PCBNEW 10.0.3) date 2026-08-19 02:36:46*
%MOMM*%
%LPD*%
G01*
G04 APERTURE LIST*
%TA.AperFunction,ComponentPad*%
%ADD10C,2.000000*%
%TD*%
%TA.AperFunction,ViaPad*%
%ADD11C,0.600000*%
%TD*%
G04 APERTURE END LIST*
D10*
%TO.P,J1,1*%
%TO.N,+5V*%
X11625000Y-42450000D03*
%TO.P,J1,2*%
%TO.N,GND*%
X11625000Y-37370000D03*
%TD*%
%TO.P,J2,1*%
%TO.N,+3V3*%
X48625000Y-23370000D03*
%TO.P,J2,2*%
%TO.N,GND*%
X48625000Y-28450000D03*
%TD*%
D11*
%TO.N,GND*%
X16325000Y-32910000D03*
X27230000Y-29510000D03*
X28830000Y-29510000D03*
X17968000Y-30470000D03*
X24155000Y-37310000D03*
%TD*%
%TA.AperFunction,Conductor*%
%TO.N,GND*%
G36*
X54568039Y-20219685D02*
G01*
X54613794Y-20272489D01*
X54625000Y-20324000D01*
X54625000Y-45496000D01*
X54605315Y-45563039D01*
X54552511Y-45608794D01*
X54501000Y-45620000D01*
X5749000Y-45620000D01*
X5681961Y-45600315D01*
X5636206Y-45547511D01*
X5625000Y-45496000D01*
X5625000Y-42361264D01*
X10497500Y-42361264D01*
X10497500Y-42538735D01*
X10525263Y-42714024D01*
X10525263Y-42714027D01*
X10580103Y-42882807D01*
X10660678Y-43040942D01*
X10764985Y-43184510D01*
X10764989Y-43184515D01*
X10890484Y-43310010D01*
X10890489Y-43310014D01*
X11015716Y-43400996D01*
X11034061Y-43414324D01*
X11192190Y-43494895D01*
X11192192Y-43494896D01*
X11360973Y-43549736D01*
X11360974Y-43549736D01*
X11360977Y-43549737D01*
X11536264Y-43577500D01*
X11536265Y-43577500D01*
X11713735Y-43577500D01*
X11713736Y-43577500D01*
X11889023Y-43549737D01*
X11889026Y-43549736D01*
X11889027Y-43549736D01*
X12057807Y-43494896D01*
X12057807Y-43494895D01*
X12057810Y-43494895D01*
X12215939Y-43414324D01*
X12359517Y-43310009D01*
X12485009Y-43184517D01*
X12589324Y-43040939D01*
X12669895Y-42882810D01*
X12724737Y-42714023D01*
X12752500Y-42538736D01*
X12752500Y-42361264D01*
X12724737Y-42185977D01*
X12724736Y-42185973D01*
X12724736Y-42185972D01*
X12669896Y-42017192D01*
X12669895Y-42017190D01*
X12589324Y-41859061D01*
X12575996Y-41840716D01*
X12485014Y-41715489D01*
X12485010Y-41715484D01*
X12359515Y-41589989D01*
X12359510Y-41589985D01*
X12215942Y-41485678D01*
X12215941Y-41485677D01*
X12215939Y-41485676D01*
X12136874Y-41445390D01*
X12057807Y-41405103D01*
X11889026Y-41350263D01*
X11757557Y-41329440D01*
X11713736Y-41322500D01*
X11536264Y-41322500D01*
X11477835Y-41331754D01*
X11360975Y-41350263D01*
X11360972Y-41350263D01*
X11192192Y-41405103D01*
X11034057Y-41485678D01*
X10890489Y-41589985D01*
X10890484Y-41589989D01*
X10764989Y-41715484D01*
X10764985Y-41715489D01*
X10660678Y-41859057D01*
X10580103Y-42017192D01*
X10525263Y-42185972D01*
X10525263Y-42185975D01*
X10497500Y-42361264D01*
X5625000Y-42361264D01*
X5625000Y-37251947D01*
X10125000Y-37251947D01*
X10125000Y-37488052D01*
X10161934Y-37721247D01*
X10234897Y-37945802D01*
X10342087Y-38156174D01*
X10402338Y-38239104D01*
X10402340Y-38239105D01*
X11023949Y-37617496D01*
X11048968Y-37677896D01*
X11120104Y-37784358D01*
X11210642Y-37874896D01*
X11317104Y-37946032D01*
X11377503Y-37971049D01*
X10755893Y-38592658D01*
X10838828Y-38652914D01*
X11049197Y-38760102D01*
X11273752Y-38833065D01*
X11273751Y-38833065D01*
X11506948Y-38870000D01*
X11743052Y-38870000D01*
X11976247Y-38833065D01*
X12200802Y-38760102D01*
X12411163Y-38652918D01*
X12411169Y-38652914D01*
X12494104Y-38592658D01*
X12494105Y-38592658D01*
X11872496Y-37971050D01*
X11932896Y-37946032D01*
X12039358Y-37874896D01*
X12129896Y-37784358D01*
X12201032Y-37677896D01*
X12226050Y-37617496D01*
X12847658Y-38239105D01*
X12847658Y-38239104D01*
X12907914Y-38156169D01*
X12907918Y-38156163D01*
X13015102Y-37945802D01*
X13088065Y-37721247D01*
X13125000Y-37488052D01*
X13125000Y-37251947D01*
X13088065Y-37018752D01*
X13015102Y-36794197D01*
X12907914Y-36583828D01*
X12847658Y-36500894D01*
X12847658Y-36500893D01*
X12226049Y-37122502D01*
X12201032Y-37062104D01*
X12129896Y-36955642D01*
X12039358Y-36865104D01*
X11932896Y-36793968D01*
X11872496Y-36768949D01*
X12494105Y-36147340D01*
X12494104Y-36147338D01*
X12411174Y-36087087D01*
X12200802Y-35979897D01*
X11976247Y-35906934D01*
X11976248Y-35906934D01*
X11743052Y-35870000D01*
X11506948Y-35870000D01*
X11273752Y-35906934D01*
X11049197Y-35979897D01*
X10838830Y-36087084D01*
X10755894Y-36147340D01*
X11377503Y-36768949D01*
X11317104Y-36793968D01*
X11210642Y-36865104D01*
X11120104Y-36955642D01*
X11048968Y-37062104D01*
X11023949Y-37122503D01*
X10402340Y-36500894D01*
X10342084Y-36583830D01*
X10234897Y-36794197D01*
X10161934Y-37018752D01*
X10125000Y-37251947D01*
X5625000Y-37251947D01*
X5625000Y-28331947D01*
X47125000Y-28331947D01*
X47125000Y-28568052D01*
X47161934Y-28801247D01*
X47234897Y-29025802D01*
X47342087Y-29236174D01*
X47402338Y-29319104D01*
X47402340Y-29319105D01*
X48023949Y-28697496D01*
X48048968Y-28757896D01*
X48120104Y-28864358D01*
X48210642Y-28954896D01*
X48317104Y-29026032D01*
X48377503Y-29051049D01*
X47755893Y-29672658D01*
X47838828Y-29732914D01*
X48049197Y-29840102D01*
X48273752Y-29913065D01*
X48273751Y-29913065D01*
X48506948Y-29950000D01*
X48743052Y-29950000D01*
X48976247Y-29913065D01*
X49200802Y-29840102D01*
X49411163Y-29732918D01*
X49411169Y-29732914D01*
X49494104Y-29672658D01*
X49494105Y-29672658D01*
X48872496Y-29051050D01*
X48932896Y-29026032D01*
X49039358Y-28954896D01*
X49129896Y-28864358D01*
X49201032Y-28757896D01*
X49226050Y-28697496D01*
X49847658Y-29319105D01*
X49847658Y-29319104D01*
X49907914Y-29236169D01*
X49907918Y-29236163D01*
X50015102Y-29025802D01*
X50088065Y-28801247D01*
X50125000Y-28568052D01*
X50125000Y-28331947D01*
X50088065Y-28098752D01*
X50015102Y-27874197D01*
X49907914Y-27663828D01*
X49847658Y-27580894D01*
X49847658Y-27580893D01*
X49226049Y-28202502D01*
X49201032Y-28142104D01*
X49129896Y-28035642D01*
X49039358Y-27945104D01*
X48932896Y-27873968D01*
X48872496Y-27848949D01*
X49494105Y-27227340D01*
X49494104Y-27227338D01*
X49411174Y-27167087D01*
X49200802Y-27059897D01*
X48976247Y-26986934D01*
X48976248Y-26986934D01*
X48743052Y-26950000D01*
X48506948Y-26950000D01*
X48273752Y-26986934D01*
X48049197Y-27059897D01*
X47838830Y-27167084D01*
X47755894Y-27227340D01*
X48377503Y-27848949D01*
X48317104Y-27873968D01*
X48210642Y-27945104D01*
X48120104Y-28035642D01*
X48048968Y-28142104D01*
X48023949Y-28202503D01*
X47402340Y-27580894D01*
X47342084Y-27663830D01*
X47234897Y-27874197D01*
X47161934Y-28098752D01*
X47125000Y-28331947D01*
X5625000Y-28331947D01*
X5625000Y-23281264D01*
X47497500Y-23281264D01*
X47497500Y-23458735D01*
X47525263Y-23634024D01*
X47525263Y-23634027D01*
X47580103Y-23802807D01*
X47660678Y-23960942D01*
X47764985Y-24104510D01*
X47764989Y-24104515D01*
X47890484Y-24230010D01*
X47890489Y-24230014D01*
X48015716Y-24320996D01*
X48034061Y-24334324D01*
X48192190Y-24414895D01*
X48192192Y-24414896D01*
X48360973Y-24469736D01*
X48360974Y-24469736D01*
X48360977Y-24469737D01*
X48536264Y-24497500D01*
X48536265Y-24497500D01*
X48713735Y-24497500D01*
X48713736Y-24497500D01*
X48889023Y-24469737D01*
X48889026Y-24469736D01*
X48889027Y-24469736D01*
X49057807Y-24414896D01*
X49057807Y-24414895D01*
X49057810Y-24414895D01*
X49215939Y-24334324D01*
X49359517Y-24230009D01*
X49485009Y-24104517D01*
X49589324Y-23960939D01*
X49669895Y-23802810D01*
X49724737Y-23634023D01*
X49752500Y-23458736D01*
X49752500Y-23281264D01*
X49724737Y-23105977D01*
X49724736Y-23105973D01*
X49724736Y-23105972D01*
X49669896Y-22937192D01*
X49669895Y-22937190D01*
X49589324Y-22779061D01*
X49575996Y-22760716D01*
X49485014Y-22635489D01*
X49485010Y-22635484D01*
X49359515Y-22509989D01*
X49359510Y-22509985D01*
X49215942Y-22405678D01*
X49215941Y-22405677D01*
X49215939Y-22405676D01*
X49136874Y-22365390D01*
X49057807Y-22325103D01*
X48889026Y-22270263D01*
X48757557Y-22249440D01*
X48713736Y-22242500D01*
X48536264Y-22242500D01*
X48477835Y-22251754D01*
X48360975Y-22270263D01*
X48360972Y-22270263D01*
X48192192Y-22325103D01*
X48034057Y-22405678D01*
X47890489Y-22509985D01*
X47890484Y-22509989D01*
X47764989Y-22635484D01*
X47764985Y-22635489D01*
X47660678Y-22779057D01*
X47580103Y-22937192D01*
X47525263Y-23105972D01*
X47525263Y-23105975D01*
X47497500Y-23281264D01*
X5625000Y-23281264D01*
X5625000Y-20324000D01*
X5644685Y-20256961D01*
X5697489Y-20211206D01*
X5749000Y-20200000D01*
X54501000Y-20200000D01*
X54568039Y-20219685D01*
G37*
%TD.AperFunction*%
%TD*%
M02*
