%TF.GenerationSoftware,KiCad,Pcbnew,10.0.3*%
%TF.CreationDate,2026-07-28T06:10:09-07:00*%
%TF.ProjectId,stm32-blinky,73746d33-322d-4626-9c69-6e6b792e6b69,rev?*%
%TF.SameCoordinates,Original*%
%TF.FileFunction,Legend,Top*%
%TF.FilePolarity,Positive*%
%FSLAX46Y46*%
G04 Gerber Fmt 4.6, Leading zero omitted, Abs format (unit mm)*
G04 Created by KiCad (PCBNEW 10.0.3) date 2026-07-28 06:10:09*
%MOMM*%
%LPD*%
G01*
G04 APERTURE LIST*
%ADD10C,0.150000*%
%ADD11C,0.060000*%
%ADD12C,0.000000*%
%ADD13C,0.250000*%
%ADD14C,0.200000*%
%ADD15C,0.400000*%
G04 APERTURE END LIST*
D10*
X48852295Y-29394046D02*
X48052295Y-29394046D01*
X48052295Y-28860713D02*
X48052295Y-28708332D01*
X48052295Y-28708332D02*
X48090390Y-28632142D01*
X48090390Y-28632142D02*
X48166580Y-28555951D01*
X48166580Y-28555951D02*
X48318961Y-28517856D01*
X48318961Y-28517856D02*
X48585628Y-28517856D01*
X48585628Y-28517856D02*
X48738009Y-28555951D01*
X48738009Y-28555951D02*
X48814200Y-28632142D01*
X48814200Y-28632142D02*
X48852295Y-28708332D01*
X48852295Y-28708332D02*
X48852295Y-28860713D01*
X48852295Y-28860713D02*
X48814200Y-28936904D01*
X48814200Y-28936904D02*
X48738009Y-29013094D01*
X48738009Y-29013094D02*
X48585628Y-29051190D01*
X48585628Y-29051190D02*
X48318961Y-29051190D01*
X48318961Y-29051190D02*
X48166580Y-29013094D01*
X48166580Y-29013094D02*
X48090390Y-28936904D01*
X48090390Y-28936904D02*
X48052295Y-28860713D01*
X51316104Y-29851189D02*
X51354200Y-29889285D01*
X51354200Y-29889285D02*
X51392295Y-30003570D01*
X51392295Y-30003570D02*
X51392295Y-30079761D01*
X51392295Y-30079761D02*
X51354200Y-30194047D01*
X51354200Y-30194047D02*
X51278009Y-30270237D01*
X51278009Y-30270237D02*
X51201819Y-30308332D01*
X51201819Y-30308332D02*
X51049438Y-30346428D01*
X51049438Y-30346428D02*
X50935152Y-30346428D01*
X50935152Y-30346428D02*
X50782771Y-30308332D01*
X50782771Y-30308332D02*
X50706580Y-30270237D01*
X50706580Y-30270237D02*
X50630390Y-30194047D01*
X50630390Y-30194047D02*
X50592295Y-30079761D01*
X50592295Y-30079761D02*
X50592295Y-30003570D01*
X50592295Y-30003570D02*
X50630390Y-29889285D01*
X50630390Y-29889285D02*
X50668485Y-29851189D01*
X51392295Y-29127380D02*
X51392295Y-29508332D01*
X51392295Y-29508332D02*
X50592295Y-29508332D01*
X51392295Y-28860713D02*
X50592295Y-28860713D01*
X51392295Y-28403570D02*
X50935152Y-28746428D01*
X50592295Y-28403570D02*
X51049438Y-28860713D01*
X53132295Y-30365476D02*
X53132295Y-29870238D01*
X53132295Y-29870238D02*
X53437057Y-30136904D01*
X53437057Y-30136904D02*
X53437057Y-30022619D01*
X53437057Y-30022619D02*
X53475152Y-29946428D01*
X53475152Y-29946428D02*
X53513247Y-29908333D01*
X53513247Y-29908333D02*
X53589438Y-29870238D01*
X53589438Y-29870238D02*
X53779914Y-29870238D01*
X53779914Y-29870238D02*
X53856104Y-29908333D01*
X53856104Y-29908333D02*
X53894200Y-29946428D01*
X53894200Y-29946428D02*
X53932295Y-30022619D01*
X53932295Y-30022619D02*
X53932295Y-30251190D01*
X53932295Y-30251190D02*
X53894200Y-30327381D01*
X53894200Y-30327381D02*
X53856104Y-30365476D01*
X53132295Y-29641666D02*
X53932295Y-29374999D01*
X53932295Y-29374999D02*
X53132295Y-29108333D01*
X53132295Y-28917857D02*
X53132295Y-28422619D01*
X53132295Y-28422619D02*
X53437057Y-28689285D01*
X53437057Y-28689285D02*
X53437057Y-28575000D01*
X53437057Y-28575000D02*
X53475152Y-28498809D01*
X53475152Y-28498809D02*
X53513247Y-28460714D01*
X53513247Y-28460714D02*
X53589438Y-28422619D01*
X53589438Y-28422619D02*
X53779914Y-28422619D01*
X53779914Y-28422619D02*
X53856104Y-28460714D01*
X53856104Y-28460714D02*
X53894200Y-28498809D01*
X53894200Y-28498809D02*
X53932295Y-28575000D01*
X53932295Y-28575000D02*
X53932295Y-28803571D01*
X53932295Y-28803571D02*
X53894200Y-28879762D01*
X53894200Y-28879762D02*
X53856104Y-28917857D01*
X55710390Y-29984523D02*
X55672295Y-30060713D01*
X55672295Y-30060713D02*
X55672295Y-30174999D01*
X55672295Y-30174999D02*
X55710390Y-30289285D01*
X55710390Y-30289285D02*
X55786580Y-30365475D01*
X55786580Y-30365475D02*
X55862771Y-30403570D01*
X55862771Y-30403570D02*
X56015152Y-30441666D01*
X56015152Y-30441666D02*
X56129438Y-30441666D01*
X56129438Y-30441666D02*
X56281819Y-30403570D01*
X56281819Y-30403570D02*
X56358009Y-30365475D01*
X56358009Y-30365475D02*
X56434200Y-30289285D01*
X56434200Y-30289285D02*
X56472295Y-30174999D01*
X56472295Y-30174999D02*
X56472295Y-30098808D01*
X56472295Y-30098808D02*
X56434200Y-29984523D01*
X56434200Y-29984523D02*
X56396104Y-29946427D01*
X56396104Y-29946427D02*
X56129438Y-29946427D01*
X56129438Y-29946427D02*
X56129438Y-30098808D01*
X56472295Y-29603570D02*
X55672295Y-29603570D01*
X55672295Y-29603570D02*
X56472295Y-29146427D01*
X56472295Y-29146427D02*
X55672295Y-29146427D01*
X56472295Y-28765475D02*
X55672295Y-28765475D01*
X55672295Y-28765475D02*
X55672295Y-28574999D01*
X55672295Y-28574999D02*
X55710390Y-28460713D01*
X55710390Y-28460713D02*
X55786580Y-28384523D01*
X55786580Y-28384523D02*
X55862771Y-28346428D01*
X55862771Y-28346428D02*
X56015152Y-28308332D01*
X56015152Y-28308332D02*
X56129438Y-28308332D01*
X56129438Y-28308332D02*
X56281819Y-28346428D01*
X56281819Y-28346428D02*
X56358009Y-28384523D01*
X56358009Y-28384523D02*
X56434200Y-28460713D01*
X56434200Y-28460713D02*
X56472295Y-28574999D01*
X56472295Y-28574999D02*
X56472295Y-28765475D01*
X12304819Y-22809523D02*
X12304819Y-23285713D01*
X12304819Y-23285713D02*
X12781009Y-23333332D01*
X12781009Y-23333332D02*
X12733390Y-23285713D01*
X12733390Y-23285713D02*
X12685771Y-23190475D01*
X12685771Y-23190475D02*
X12685771Y-22952380D01*
X12685771Y-22952380D02*
X12733390Y-22857142D01*
X12733390Y-22857142D02*
X12781009Y-22809523D01*
X12781009Y-22809523D02*
X12876247Y-22761904D01*
X12876247Y-22761904D02*
X13114342Y-22761904D01*
X13114342Y-22761904D02*
X13209580Y-22809523D01*
X13209580Y-22809523D02*
X13257200Y-22857142D01*
X13257200Y-22857142D02*
X13304819Y-22952380D01*
X13304819Y-22952380D02*
X13304819Y-23190475D01*
X13304819Y-23190475D02*
X13257200Y-23285713D01*
X13257200Y-23285713D02*
X13209580Y-23333332D01*
X12304819Y-22476189D02*
X13304819Y-22142856D01*
X13304819Y-22142856D02*
X12304819Y-21809523D01*
X12923866Y-21476189D02*
X12923866Y-20714285D01*
X13304819Y-21095237D02*
X12542914Y-21095237D01*
X14892438Y-22761904D02*
X14844819Y-22857142D01*
X14844819Y-22857142D02*
X14844819Y-22999999D01*
X14844819Y-22999999D02*
X14892438Y-23142856D01*
X14892438Y-23142856D02*
X14987676Y-23238094D01*
X14987676Y-23238094D02*
X15082914Y-23285713D01*
X15082914Y-23285713D02*
X15273390Y-23333332D01*
X15273390Y-23333332D02*
X15416247Y-23333332D01*
X15416247Y-23333332D02*
X15606723Y-23285713D01*
X15606723Y-23285713D02*
X15701961Y-23238094D01*
X15701961Y-23238094D02*
X15797200Y-23142856D01*
X15797200Y-23142856D02*
X15844819Y-22999999D01*
X15844819Y-22999999D02*
X15844819Y-22904761D01*
X15844819Y-22904761D02*
X15797200Y-22761904D01*
X15797200Y-22761904D02*
X15749580Y-22714285D01*
X15749580Y-22714285D02*
X15416247Y-22714285D01*
X15416247Y-22714285D02*
X15416247Y-22904761D01*
X15844819Y-22285713D02*
X14844819Y-22285713D01*
X14844819Y-22285713D02*
X15844819Y-21714285D01*
X15844819Y-21714285D02*
X14844819Y-21714285D01*
X15844819Y-21238094D02*
X14844819Y-21238094D01*
X14844819Y-21238094D02*
X14844819Y-20999999D01*
X14844819Y-20999999D02*
X14892438Y-20857142D01*
X14892438Y-20857142D02*
X14987676Y-20761904D01*
X14987676Y-20761904D02*
X15082914Y-20714285D01*
X15082914Y-20714285D02*
X15273390Y-20666666D01*
X15273390Y-20666666D02*
X15416247Y-20666666D01*
X15416247Y-20666666D02*
X15606723Y-20714285D01*
X15606723Y-20714285D02*
X15701961Y-20761904D01*
X15701961Y-20761904D02*
X15797200Y-20857142D01*
X15797200Y-20857142D02*
X15844819Y-20999999D01*
X15844819Y-20999999D02*
X15844819Y-21238094D01*
X16011905Y-33454819D02*
X16011905Y-32454819D01*
X16011905Y-32454819D02*
X16250000Y-32454819D01*
X16250000Y-32454819D02*
X16392857Y-32502438D01*
X16392857Y-32502438D02*
X16488095Y-32597676D01*
X16488095Y-32597676D02*
X16535714Y-32692914D01*
X16535714Y-32692914D02*
X16583333Y-32883390D01*
X16583333Y-32883390D02*
X16583333Y-33026247D01*
X16583333Y-33026247D02*
X16535714Y-33216723D01*
X16535714Y-33216723D02*
X16488095Y-33311961D01*
X16488095Y-33311961D02*
X16392857Y-33407200D01*
X16392857Y-33407200D02*
X16250000Y-33454819D01*
X16250000Y-33454819D02*
X16011905Y-33454819D01*
X17535714Y-33454819D02*
X16964286Y-33454819D01*
X17250000Y-33454819D02*
X17250000Y-32454819D01*
X17250000Y-32454819D02*
X17154762Y-32597676D01*
X17154762Y-32597676D02*
X17059524Y-32692914D01*
X17059524Y-32692914D02*
X16964286Y-32740533D01*
X41784333Y-31069580D02*
X41736714Y-31117200D01*
X41736714Y-31117200D02*
X41593857Y-31164819D01*
X41593857Y-31164819D02*
X41498619Y-31164819D01*
X41498619Y-31164819D02*
X41355762Y-31117200D01*
X41355762Y-31117200D02*
X41260524Y-31021961D01*
X41260524Y-31021961D02*
X41212905Y-30926723D01*
X41212905Y-30926723D02*
X41165286Y-30736247D01*
X41165286Y-30736247D02*
X41165286Y-30593390D01*
X41165286Y-30593390D02*
X41212905Y-30402914D01*
X41212905Y-30402914D02*
X41260524Y-30307676D01*
X41260524Y-30307676D02*
X41355762Y-30212438D01*
X41355762Y-30212438D02*
X41498619Y-30164819D01*
X41498619Y-30164819D02*
X41593857Y-30164819D01*
X41593857Y-30164819D02*
X41736714Y-30212438D01*
X41736714Y-30212438D02*
X41784333Y-30260057D01*
X42736714Y-31164819D02*
X42165286Y-31164819D01*
X42451000Y-31164819D02*
X42451000Y-30164819D01*
X42451000Y-30164819D02*
X42355762Y-30307676D01*
X42355762Y-30307676D02*
X42260524Y-30402914D01*
X42260524Y-30402914D02*
X42165286Y-30450533D01*
X29288095Y-27154819D02*
X29288095Y-27964342D01*
X29288095Y-27964342D02*
X29335714Y-28059580D01*
X29335714Y-28059580D02*
X29383333Y-28107200D01*
X29383333Y-28107200D02*
X29478571Y-28154819D01*
X29478571Y-28154819D02*
X29669047Y-28154819D01*
X29669047Y-28154819D02*
X29764285Y-28107200D01*
X29764285Y-28107200D02*
X29811904Y-28059580D01*
X29811904Y-28059580D02*
X29859523Y-27964342D01*
X29859523Y-27964342D02*
X29859523Y-27154819D01*
X30288095Y-27250057D02*
X30335714Y-27202438D01*
X30335714Y-27202438D02*
X30430952Y-27154819D01*
X30430952Y-27154819D02*
X30669047Y-27154819D01*
X30669047Y-27154819D02*
X30764285Y-27202438D01*
X30764285Y-27202438D02*
X30811904Y-27250057D01*
X30811904Y-27250057D02*
X30859523Y-27345295D01*
X30859523Y-27345295D02*
X30859523Y-27440533D01*
X30859523Y-27440533D02*
X30811904Y-27583390D01*
X30811904Y-27583390D02*
X30240476Y-28154819D01*
X30240476Y-28154819D02*
X30859523Y-28154819D01*
X31859580Y-33616666D02*
X31907200Y-33664285D01*
X31907200Y-33664285D02*
X31954819Y-33807142D01*
X31954819Y-33807142D02*
X31954819Y-33902380D01*
X31954819Y-33902380D02*
X31907200Y-34045237D01*
X31907200Y-34045237D02*
X31811961Y-34140475D01*
X31811961Y-34140475D02*
X31716723Y-34188094D01*
X31716723Y-34188094D02*
X31526247Y-34235713D01*
X31526247Y-34235713D02*
X31383390Y-34235713D01*
X31383390Y-34235713D02*
X31192914Y-34188094D01*
X31192914Y-34188094D02*
X31097676Y-34140475D01*
X31097676Y-34140475D02*
X31002438Y-34045237D01*
X31002438Y-34045237D02*
X30954819Y-33902380D01*
X30954819Y-33902380D02*
X30954819Y-33807142D01*
X30954819Y-33807142D02*
X31002438Y-33664285D01*
X31002438Y-33664285D02*
X31050057Y-33616666D01*
X31954819Y-33140475D02*
X31954819Y-32949999D01*
X31954819Y-32949999D02*
X31907200Y-32854761D01*
X31907200Y-32854761D02*
X31859580Y-32807142D01*
X31859580Y-32807142D02*
X31716723Y-32711904D01*
X31716723Y-32711904D02*
X31526247Y-32664285D01*
X31526247Y-32664285D02*
X31145295Y-32664285D01*
X31145295Y-32664285D02*
X31050057Y-32711904D01*
X31050057Y-32711904D02*
X31002438Y-32759523D01*
X31002438Y-32759523D02*
X30954819Y-32854761D01*
X30954819Y-32854761D02*
X30954819Y-33045237D01*
X30954819Y-33045237D02*
X31002438Y-33140475D01*
X31002438Y-33140475D02*
X31050057Y-33188094D01*
X31050057Y-33188094D02*
X31145295Y-33235713D01*
X31145295Y-33235713D02*
X31383390Y-33235713D01*
X31383390Y-33235713D02*
X31478628Y-33188094D01*
X31478628Y-33188094D02*
X31526247Y-33140475D01*
X31526247Y-33140475D02*
X31573866Y-33045237D01*
X31573866Y-33045237D02*
X31573866Y-32854761D01*
X31573866Y-32854761D02*
X31526247Y-32759523D01*
X31526247Y-32759523D02*
X31478628Y-32711904D01*
X31478628Y-32711904D02*
X31383390Y-32664285D01*
X41568733Y-45060980D02*
X41521114Y-45108600D01*
X41521114Y-45108600D02*
X41378257Y-45156219D01*
X41378257Y-45156219D02*
X41283019Y-45156219D01*
X41283019Y-45156219D02*
X41140162Y-45108600D01*
X41140162Y-45108600D02*
X41044924Y-45013361D01*
X41044924Y-45013361D02*
X40997305Y-44918123D01*
X40997305Y-44918123D02*
X40949686Y-44727647D01*
X40949686Y-44727647D02*
X40949686Y-44584790D01*
X40949686Y-44584790D02*
X40997305Y-44394314D01*
X40997305Y-44394314D02*
X41044924Y-44299076D01*
X41044924Y-44299076D02*
X41140162Y-44203838D01*
X41140162Y-44203838D02*
X41283019Y-44156219D01*
X41283019Y-44156219D02*
X41378257Y-44156219D01*
X41378257Y-44156219D02*
X41521114Y-44203838D01*
X41521114Y-44203838D02*
X41568733Y-44251457D01*
X42425876Y-44489552D02*
X42425876Y-45156219D01*
X42187781Y-44108600D02*
X41949686Y-44822885D01*
X41949686Y-44822885D02*
X42568733Y-44822885D01*
X40861242Y-43046580D02*
X40813623Y-43094200D01*
X40813623Y-43094200D02*
X40670766Y-43141819D01*
X40670766Y-43141819D02*
X40575528Y-43141819D01*
X40575528Y-43141819D02*
X40432671Y-43094200D01*
X40432671Y-43094200D02*
X40337433Y-42998961D01*
X40337433Y-42998961D02*
X40289814Y-42903723D01*
X40289814Y-42903723D02*
X40242195Y-42713247D01*
X40242195Y-42713247D02*
X40242195Y-42570390D01*
X40242195Y-42570390D02*
X40289814Y-42379914D01*
X40289814Y-42379914D02*
X40337433Y-42284676D01*
X40337433Y-42284676D02*
X40432671Y-42189438D01*
X40432671Y-42189438D02*
X40575528Y-42141819D01*
X40575528Y-42141819D02*
X40670766Y-42141819D01*
X40670766Y-42141819D02*
X40813623Y-42189438D01*
X40813623Y-42189438D02*
X40861242Y-42237057D01*
X41813623Y-43141819D02*
X41242195Y-43141819D01*
X41527909Y-43141819D02*
X41527909Y-42141819D01*
X41527909Y-42141819D02*
X41432671Y-42284676D01*
X41432671Y-42284676D02*
X41337433Y-42379914D01*
X41337433Y-42379914D02*
X41242195Y-42427533D01*
X42432671Y-42141819D02*
X42527909Y-42141819D01*
X42527909Y-42141819D02*
X42623147Y-42189438D01*
X42623147Y-42189438D02*
X42670766Y-42237057D01*
X42670766Y-42237057D02*
X42718385Y-42332295D01*
X42718385Y-42332295D02*
X42766004Y-42522771D01*
X42766004Y-42522771D02*
X42766004Y-42760866D01*
X42766004Y-42760866D02*
X42718385Y-42951342D01*
X42718385Y-42951342D02*
X42670766Y-43046580D01*
X42670766Y-43046580D02*
X42623147Y-43094200D01*
X42623147Y-43094200D02*
X42527909Y-43141819D01*
X42527909Y-43141819D02*
X42432671Y-43141819D01*
X42432671Y-43141819D02*
X42337433Y-43094200D01*
X42337433Y-43094200D02*
X42289814Y-43046580D01*
X42289814Y-43046580D02*
X42242195Y-42951342D01*
X42242195Y-42951342D02*
X42194576Y-42760866D01*
X42194576Y-42760866D02*
X42194576Y-42522771D01*
X42194576Y-42522771D02*
X42242195Y-42332295D01*
X42242195Y-42332295D02*
X42289814Y-42237057D01*
X42289814Y-42237057D02*
X42337433Y-42189438D01*
X42337433Y-42189438D02*
X42432671Y-42141819D01*
X45288580Y-27559857D02*
X45336200Y-27607476D01*
X45336200Y-27607476D02*
X45383819Y-27750333D01*
X45383819Y-27750333D02*
X45383819Y-27845571D01*
X45383819Y-27845571D02*
X45336200Y-27988428D01*
X45336200Y-27988428D02*
X45240961Y-28083666D01*
X45240961Y-28083666D02*
X45145723Y-28131285D01*
X45145723Y-28131285D02*
X44955247Y-28178904D01*
X44955247Y-28178904D02*
X44812390Y-28178904D01*
X44812390Y-28178904D02*
X44621914Y-28131285D01*
X44621914Y-28131285D02*
X44526676Y-28083666D01*
X44526676Y-28083666D02*
X44431438Y-27988428D01*
X44431438Y-27988428D02*
X44383819Y-27845571D01*
X44383819Y-27845571D02*
X44383819Y-27750333D01*
X44383819Y-27750333D02*
X44431438Y-27607476D01*
X44431438Y-27607476D02*
X44479057Y-27559857D01*
X45383819Y-26607476D02*
X45383819Y-27178904D01*
X45383819Y-26893190D02*
X44383819Y-26893190D01*
X44383819Y-26893190D02*
X44526676Y-26988428D01*
X44526676Y-26988428D02*
X44621914Y-27083666D01*
X44621914Y-27083666D02*
X44669533Y-27178904D01*
X45383819Y-25655095D02*
X45383819Y-26226523D01*
X45383819Y-25940809D02*
X44383819Y-25940809D01*
X44383819Y-25940809D02*
X44526676Y-26036047D01*
X44526676Y-26036047D02*
X44621914Y-26131285D01*
X44621914Y-26131285D02*
X44669533Y-26226523D01*
X47933333Y-35454819D02*
X47600000Y-34978628D01*
X47361905Y-35454819D02*
X47361905Y-34454819D01*
X47361905Y-34454819D02*
X47742857Y-34454819D01*
X47742857Y-34454819D02*
X47838095Y-34502438D01*
X47838095Y-34502438D02*
X47885714Y-34550057D01*
X47885714Y-34550057D02*
X47933333Y-34645295D01*
X47933333Y-34645295D02*
X47933333Y-34788152D01*
X47933333Y-34788152D02*
X47885714Y-34883390D01*
X47885714Y-34883390D02*
X47838095Y-34931009D01*
X47838095Y-34931009D02*
X47742857Y-34978628D01*
X47742857Y-34978628D02*
X47361905Y-34978628D01*
X48314286Y-34550057D02*
X48361905Y-34502438D01*
X48361905Y-34502438D02*
X48457143Y-34454819D01*
X48457143Y-34454819D02*
X48695238Y-34454819D01*
X48695238Y-34454819D02*
X48790476Y-34502438D01*
X48790476Y-34502438D02*
X48838095Y-34550057D01*
X48838095Y-34550057D02*
X48885714Y-34645295D01*
X48885714Y-34645295D02*
X48885714Y-34740533D01*
X48885714Y-34740533D02*
X48838095Y-34883390D01*
X48838095Y-34883390D02*
X48266667Y-35454819D01*
X48266667Y-35454819D02*
X48885714Y-35454819D01*
X22522233Y-26959580D02*
X22474614Y-27007200D01*
X22474614Y-27007200D02*
X22331757Y-27054819D01*
X22331757Y-27054819D02*
X22236519Y-27054819D01*
X22236519Y-27054819D02*
X22093662Y-27007200D01*
X22093662Y-27007200D02*
X21998424Y-26911961D01*
X21998424Y-26911961D02*
X21950805Y-26816723D01*
X21950805Y-26816723D02*
X21903186Y-26626247D01*
X21903186Y-26626247D02*
X21903186Y-26483390D01*
X21903186Y-26483390D02*
X21950805Y-26292914D01*
X21950805Y-26292914D02*
X21998424Y-26197676D01*
X21998424Y-26197676D02*
X22093662Y-26102438D01*
X22093662Y-26102438D02*
X22236519Y-26054819D01*
X22236519Y-26054819D02*
X22331757Y-26054819D01*
X22331757Y-26054819D02*
X22474614Y-26102438D01*
X22474614Y-26102438D02*
X22522233Y-26150057D01*
X23426995Y-26054819D02*
X22950805Y-26054819D01*
X22950805Y-26054819D02*
X22903186Y-26531009D01*
X22903186Y-26531009D02*
X22950805Y-26483390D01*
X22950805Y-26483390D02*
X23046043Y-26435771D01*
X23046043Y-26435771D02*
X23284138Y-26435771D01*
X23284138Y-26435771D02*
X23379376Y-26483390D01*
X23379376Y-26483390D02*
X23426995Y-26531009D01*
X23426995Y-26531009D02*
X23474614Y-26626247D01*
X23474614Y-26626247D02*
X23474614Y-26864342D01*
X23474614Y-26864342D02*
X23426995Y-26959580D01*
X23426995Y-26959580D02*
X23379376Y-27007200D01*
X23379376Y-27007200D02*
X23284138Y-27054819D01*
X23284138Y-27054819D02*
X23046043Y-27054819D01*
X23046043Y-27054819D02*
X22950805Y-27007200D01*
X22950805Y-27007200D02*
X22903186Y-26959580D01*
X37508133Y-32359580D02*
X37460514Y-32407200D01*
X37460514Y-32407200D02*
X37317657Y-32454819D01*
X37317657Y-32454819D02*
X37222419Y-32454819D01*
X37222419Y-32454819D02*
X37079562Y-32407200D01*
X37079562Y-32407200D02*
X36984324Y-32311961D01*
X36984324Y-32311961D02*
X36936705Y-32216723D01*
X36936705Y-32216723D02*
X36889086Y-32026247D01*
X36889086Y-32026247D02*
X36889086Y-31883390D01*
X36889086Y-31883390D02*
X36936705Y-31692914D01*
X36936705Y-31692914D02*
X36984324Y-31597676D01*
X36984324Y-31597676D02*
X37079562Y-31502438D01*
X37079562Y-31502438D02*
X37222419Y-31454819D01*
X37222419Y-31454819D02*
X37317657Y-31454819D01*
X37317657Y-31454819D02*
X37460514Y-31502438D01*
X37460514Y-31502438D02*
X37508133Y-31550057D01*
X38079562Y-31883390D02*
X37984324Y-31835771D01*
X37984324Y-31835771D02*
X37936705Y-31788152D01*
X37936705Y-31788152D02*
X37889086Y-31692914D01*
X37889086Y-31692914D02*
X37889086Y-31645295D01*
X37889086Y-31645295D02*
X37936705Y-31550057D01*
X37936705Y-31550057D02*
X37984324Y-31502438D01*
X37984324Y-31502438D02*
X38079562Y-31454819D01*
X38079562Y-31454819D02*
X38270038Y-31454819D01*
X38270038Y-31454819D02*
X38365276Y-31502438D01*
X38365276Y-31502438D02*
X38412895Y-31550057D01*
X38412895Y-31550057D02*
X38460514Y-31645295D01*
X38460514Y-31645295D02*
X38460514Y-31692914D01*
X38460514Y-31692914D02*
X38412895Y-31788152D01*
X38412895Y-31788152D02*
X38365276Y-31835771D01*
X38365276Y-31835771D02*
X38270038Y-31883390D01*
X38270038Y-31883390D02*
X38079562Y-31883390D01*
X38079562Y-31883390D02*
X37984324Y-31931009D01*
X37984324Y-31931009D02*
X37936705Y-31978628D01*
X37936705Y-31978628D02*
X37889086Y-32073866D01*
X37889086Y-32073866D02*
X37889086Y-32264342D01*
X37889086Y-32264342D02*
X37936705Y-32359580D01*
X37936705Y-32359580D02*
X37984324Y-32407200D01*
X37984324Y-32407200D02*
X38079562Y-32454819D01*
X38079562Y-32454819D02*
X38270038Y-32454819D01*
X38270038Y-32454819D02*
X38365276Y-32407200D01*
X38365276Y-32407200D02*
X38412895Y-32359580D01*
X38412895Y-32359580D02*
X38460514Y-32264342D01*
X38460514Y-32264342D02*
X38460514Y-32073866D01*
X38460514Y-32073866D02*
X38412895Y-31978628D01*
X38412895Y-31978628D02*
X38365276Y-31931009D01*
X38365276Y-31931009D02*
X38270038Y-31883390D01*
X57658480Y-42319466D02*
X57706100Y-42367085D01*
X57706100Y-42367085D02*
X57753719Y-42509942D01*
X57753719Y-42509942D02*
X57753719Y-42605180D01*
X57753719Y-42605180D02*
X57706100Y-42748037D01*
X57706100Y-42748037D02*
X57610861Y-42843275D01*
X57610861Y-42843275D02*
X57515623Y-42890894D01*
X57515623Y-42890894D02*
X57325147Y-42938513D01*
X57325147Y-42938513D02*
X57182290Y-42938513D01*
X57182290Y-42938513D02*
X56991814Y-42890894D01*
X56991814Y-42890894D02*
X56896576Y-42843275D01*
X56896576Y-42843275D02*
X56801338Y-42748037D01*
X56801338Y-42748037D02*
X56753719Y-42605180D01*
X56753719Y-42605180D02*
X56753719Y-42509942D01*
X56753719Y-42509942D02*
X56801338Y-42367085D01*
X56801338Y-42367085D02*
X56848957Y-42319466D01*
X56848957Y-41938513D02*
X56801338Y-41890894D01*
X56801338Y-41890894D02*
X56753719Y-41795656D01*
X56753719Y-41795656D02*
X56753719Y-41557561D01*
X56753719Y-41557561D02*
X56801338Y-41462323D01*
X56801338Y-41462323D02*
X56848957Y-41414704D01*
X56848957Y-41414704D02*
X56944195Y-41367085D01*
X56944195Y-41367085D02*
X57039433Y-41367085D01*
X57039433Y-41367085D02*
X57182290Y-41414704D01*
X57182290Y-41414704D02*
X57753719Y-41986132D01*
X57753719Y-41986132D02*
X57753719Y-41367085D01*
X40808533Y-33159580D02*
X40760914Y-33207200D01*
X40760914Y-33207200D02*
X40618057Y-33254819D01*
X40618057Y-33254819D02*
X40522819Y-33254819D01*
X40522819Y-33254819D02*
X40379962Y-33207200D01*
X40379962Y-33207200D02*
X40284724Y-33111961D01*
X40284724Y-33111961D02*
X40237105Y-33016723D01*
X40237105Y-33016723D02*
X40189486Y-32826247D01*
X40189486Y-32826247D02*
X40189486Y-32683390D01*
X40189486Y-32683390D02*
X40237105Y-32492914D01*
X40237105Y-32492914D02*
X40284724Y-32397676D01*
X40284724Y-32397676D02*
X40379962Y-32302438D01*
X40379962Y-32302438D02*
X40522819Y-32254819D01*
X40522819Y-32254819D02*
X40618057Y-32254819D01*
X40618057Y-32254819D02*
X40760914Y-32302438D01*
X40760914Y-32302438D02*
X40808533Y-32350057D01*
X41141867Y-32254819D02*
X41808533Y-32254819D01*
X41808533Y-32254819D02*
X41379962Y-33254819D01*
X37104819Y-28153666D02*
X36628628Y-28486999D01*
X37104819Y-28725094D02*
X36104819Y-28725094D01*
X36104819Y-28725094D02*
X36104819Y-28344142D01*
X36104819Y-28344142D02*
X36152438Y-28248904D01*
X36152438Y-28248904D02*
X36200057Y-28201285D01*
X36200057Y-28201285D02*
X36295295Y-28153666D01*
X36295295Y-28153666D02*
X36438152Y-28153666D01*
X36438152Y-28153666D02*
X36533390Y-28201285D01*
X36533390Y-28201285D02*
X36581009Y-28248904D01*
X36581009Y-28248904D02*
X36628628Y-28344142D01*
X36628628Y-28344142D02*
X36628628Y-28725094D01*
X37104819Y-27201285D02*
X37104819Y-27772713D01*
X37104819Y-27486999D02*
X36104819Y-27486999D01*
X36104819Y-27486999D02*
X36247676Y-27582237D01*
X36247676Y-27582237D02*
X36342914Y-27677475D01*
X36342914Y-27677475D02*
X36390533Y-27772713D01*
X57004819Y-37761904D02*
X57814342Y-37761904D01*
X57814342Y-37761904D02*
X57909580Y-37714285D01*
X57909580Y-37714285D02*
X57957200Y-37666666D01*
X57957200Y-37666666D02*
X58004819Y-37571428D01*
X58004819Y-37571428D02*
X58004819Y-37380952D01*
X58004819Y-37380952D02*
X57957200Y-37285714D01*
X57957200Y-37285714D02*
X57909580Y-37238095D01*
X57909580Y-37238095D02*
X57814342Y-37190476D01*
X57814342Y-37190476D02*
X57004819Y-37190476D01*
X58004819Y-36190476D02*
X58004819Y-36761904D01*
X58004819Y-36476190D02*
X57004819Y-36476190D01*
X57004819Y-36476190D02*
X57147676Y-36571428D01*
X57147676Y-36571428D02*
X57242914Y-36666666D01*
X57242914Y-36666666D02*
X57290533Y-36761904D01*
X13786666Y-18054819D02*
X13786666Y-18769104D01*
X13786666Y-18769104D02*
X13739047Y-18911961D01*
X13739047Y-18911961D02*
X13643809Y-19007200D01*
X13643809Y-19007200D02*
X13500952Y-19054819D01*
X13500952Y-19054819D02*
X13405714Y-19054819D01*
X14786666Y-19054819D02*
X14215238Y-19054819D01*
X14500952Y-19054819D02*
X14500952Y-18054819D01*
X14500952Y-18054819D02*
X14405714Y-18197676D01*
X14405714Y-18197676D02*
X14310476Y-18292914D01*
X14310476Y-18292914D02*
X14215238Y-18340533D01*
X55862580Y-35367666D02*
X55910200Y-35415285D01*
X55910200Y-35415285D02*
X55957819Y-35558142D01*
X55957819Y-35558142D02*
X55957819Y-35653380D01*
X55957819Y-35653380D02*
X55910200Y-35796237D01*
X55910200Y-35796237D02*
X55814961Y-35891475D01*
X55814961Y-35891475D02*
X55719723Y-35939094D01*
X55719723Y-35939094D02*
X55529247Y-35986713D01*
X55529247Y-35986713D02*
X55386390Y-35986713D01*
X55386390Y-35986713D02*
X55195914Y-35939094D01*
X55195914Y-35939094D02*
X55100676Y-35891475D01*
X55100676Y-35891475D02*
X55005438Y-35796237D01*
X55005438Y-35796237D02*
X54957819Y-35653380D01*
X54957819Y-35653380D02*
X54957819Y-35558142D01*
X54957819Y-35558142D02*
X55005438Y-35415285D01*
X55005438Y-35415285D02*
X55053057Y-35367666D01*
X54957819Y-35034332D02*
X54957819Y-34415285D01*
X54957819Y-34415285D02*
X55338771Y-34748618D01*
X55338771Y-34748618D02*
X55338771Y-34605761D01*
X55338771Y-34605761D02*
X55386390Y-34510523D01*
X55386390Y-34510523D02*
X55434009Y-34462904D01*
X55434009Y-34462904D02*
X55529247Y-34415285D01*
X55529247Y-34415285D02*
X55767342Y-34415285D01*
X55767342Y-34415285D02*
X55862580Y-34462904D01*
X55862580Y-34462904D02*
X55910200Y-34510523D01*
X55910200Y-34510523D02*
X55957819Y-34605761D01*
X55957819Y-34605761D02*
X55957819Y-34891475D01*
X55957819Y-34891475D02*
X55910200Y-34986713D01*
X55910200Y-34986713D02*
X55862580Y-35034332D01*
X25931633Y-29844880D02*
X25884014Y-29892500D01*
X25884014Y-29892500D02*
X25741157Y-29940119D01*
X25741157Y-29940119D02*
X25645919Y-29940119D01*
X25645919Y-29940119D02*
X25503062Y-29892500D01*
X25503062Y-29892500D02*
X25407824Y-29797261D01*
X25407824Y-29797261D02*
X25360205Y-29702023D01*
X25360205Y-29702023D02*
X25312586Y-29511547D01*
X25312586Y-29511547D02*
X25312586Y-29368690D01*
X25312586Y-29368690D02*
X25360205Y-29178214D01*
X25360205Y-29178214D02*
X25407824Y-29082976D01*
X25407824Y-29082976D02*
X25503062Y-28987738D01*
X25503062Y-28987738D02*
X25645919Y-28940119D01*
X25645919Y-28940119D02*
X25741157Y-28940119D01*
X25741157Y-28940119D02*
X25884014Y-28987738D01*
X25884014Y-28987738D02*
X25931633Y-29035357D01*
X26788776Y-28940119D02*
X26598300Y-28940119D01*
X26598300Y-28940119D02*
X26503062Y-28987738D01*
X26503062Y-28987738D02*
X26455443Y-29035357D01*
X26455443Y-29035357D02*
X26360205Y-29178214D01*
X26360205Y-29178214D02*
X26312586Y-29368690D01*
X26312586Y-29368690D02*
X26312586Y-29749642D01*
X26312586Y-29749642D02*
X26360205Y-29844880D01*
X26360205Y-29844880D02*
X26407824Y-29892500D01*
X26407824Y-29892500D02*
X26503062Y-29940119D01*
X26503062Y-29940119D02*
X26693538Y-29940119D01*
X26693538Y-29940119D02*
X26788776Y-29892500D01*
X26788776Y-29892500D02*
X26836395Y-29844880D01*
X26836395Y-29844880D02*
X26884014Y-29749642D01*
X26884014Y-29749642D02*
X26884014Y-29511547D01*
X26884014Y-29511547D02*
X26836395Y-29416309D01*
X26836395Y-29416309D02*
X26788776Y-29368690D01*
X26788776Y-29368690D02*
X26693538Y-29321071D01*
X26693538Y-29321071D02*
X26503062Y-29321071D01*
X26503062Y-29321071D02*
X26407824Y-29368690D01*
X26407824Y-29368690D02*
X26360205Y-29416309D01*
X26360205Y-29416309D02*
X26312586Y-29511547D01*
X46511905Y-24249819D02*
X46511905Y-23249819D01*
X46511905Y-23249819D02*
X46750000Y-23249819D01*
X46750000Y-23249819D02*
X46892857Y-23297438D01*
X46892857Y-23297438D02*
X46988095Y-23392676D01*
X46988095Y-23392676D02*
X47035714Y-23487914D01*
X47035714Y-23487914D02*
X47083333Y-23678390D01*
X47083333Y-23678390D02*
X47083333Y-23821247D01*
X47083333Y-23821247D02*
X47035714Y-24011723D01*
X47035714Y-24011723D02*
X46988095Y-24106961D01*
X46988095Y-24106961D02*
X46892857Y-24202200D01*
X46892857Y-24202200D02*
X46750000Y-24249819D01*
X46750000Y-24249819D02*
X46511905Y-24249819D01*
X47464286Y-23345057D02*
X47511905Y-23297438D01*
X47511905Y-23297438D02*
X47607143Y-23249819D01*
X47607143Y-23249819D02*
X47845238Y-23249819D01*
X47845238Y-23249819D02*
X47940476Y-23297438D01*
X47940476Y-23297438D02*
X47988095Y-23345057D01*
X47988095Y-23345057D02*
X48035714Y-23440295D01*
X48035714Y-23440295D02*
X48035714Y-23535533D01*
X48035714Y-23535533D02*
X47988095Y-23678390D01*
X47988095Y-23678390D02*
X47416667Y-24249819D01*
X47416667Y-24249819D02*
X48035714Y-24249819D01*
X32023809Y-35628628D02*
X32023809Y-36104819D01*
X31690476Y-35104819D02*
X32023809Y-35628628D01*
X32023809Y-35628628D02*
X32357142Y-35104819D01*
X33214285Y-36104819D02*
X32642857Y-36104819D01*
X32928571Y-36104819D02*
X32928571Y-35104819D01*
X32928571Y-35104819D02*
X32833333Y-35247676D01*
X32833333Y-35247676D02*
X32738095Y-35342914D01*
X32738095Y-35342914D02*
X32642857Y-35390533D01*
X51966666Y-21909819D02*
X51966666Y-22624104D01*
X51966666Y-22624104D02*
X51919047Y-22766961D01*
X51919047Y-22766961D02*
X51823809Y-22862200D01*
X51823809Y-22862200D02*
X51680952Y-22909819D01*
X51680952Y-22909819D02*
X51585714Y-22909819D01*
X52395238Y-22005057D02*
X52442857Y-21957438D01*
X52442857Y-21957438D02*
X52538095Y-21909819D01*
X52538095Y-21909819D02*
X52776190Y-21909819D01*
X52776190Y-21909819D02*
X52871428Y-21957438D01*
X52871428Y-21957438D02*
X52919047Y-22005057D01*
X52919047Y-22005057D02*
X52966666Y-22100295D01*
X52966666Y-22100295D02*
X52966666Y-22195533D01*
X52966666Y-22195533D02*
X52919047Y-22338390D01*
X52919047Y-22338390D02*
X52347619Y-22909819D01*
X52347619Y-22909819D02*
X52966666Y-22909819D01*
%TO.C,D1*%
X14150000Y-30430000D02*
X14150000Y-30190000D01*
X14160000Y-27820000D02*
X14150000Y-27590000D01*
X17630000Y-30430000D02*
X17630000Y-27570000D01*
X19350000Y-27570000D02*
X14150000Y-27570000D01*
X19350000Y-30430000D02*
X14150000Y-30430000D01*
D11*
X19390000Y-27700000D02*
G75*
G02*
X19330000Y-27700000I-30000J0D01*
G01*
X19330000Y-27700000D02*
G75*
G02*
X19390000Y-27700000I30000J0D01*
G01*
D12*
G36*
X19722638Y-27501959D02*
G01*
X19718981Y-27904041D01*
X19261781Y-27904041D01*
X19263101Y-27497438D01*
X19722638Y-27501959D01*
G37*
G36*
X19730868Y-30100328D02*
G01*
X19727210Y-30502410D01*
X19270010Y-30502410D01*
X19271331Y-30095807D01*
X19730868Y-30100328D01*
G37*
%TO.C,C1*%
D13*
X43441100Y-30430200D02*
X43441100Y-29630200D01*
X43441100Y-30990200D02*
X43441100Y-31790200D01*
X43751100Y-29320200D02*
X44551100Y-29320200D01*
X44551100Y-32100200D02*
X43751100Y-32100200D01*
X44861100Y-30430200D02*
X44861100Y-29630200D01*
X44861100Y-30990200D02*
X44861100Y-31790200D01*
X43441100Y-29630200D02*
G75*
G02*
X43751100Y-29320200I310000J0D01*
G01*
X43751100Y-32100200D02*
G75*
G02*
X43441100Y-31790200I0J310000D01*
G01*
X44551100Y-29320200D02*
G75*
G02*
X44861100Y-29630200I0J-310000D01*
G01*
X44861100Y-31790200D02*
G75*
G02*
X44551100Y-32100200I-310000J0D01*
G01*
D11*
X44581100Y-31510200D02*
G75*
G02*
X44521100Y-31510200I-30000J0D01*
G01*
X44521100Y-31510200D02*
G75*
G02*
X44581100Y-31510200I30000J0D01*
G01*
%TO.C,U2*%
D10*
X28680000Y-18070000D02*
X31620000Y-18070000D01*
X28680000Y-24730000D02*
X28680000Y-18070000D01*
X31620000Y-18070000D02*
X31620000Y-24730000D01*
X31620000Y-24730000D02*
X28680000Y-24730000D01*
D11*
X26680000Y-18150000D02*
G75*
G02*
X26620000Y-18150000I-30000J0D01*
G01*
X26620000Y-18150000D02*
G75*
G02*
X26680000Y-18150000I30000J0D01*
G01*
%TO.C,C9*%
D13*
X34790000Y-33170000D02*
X34790000Y-32370000D01*
X34790000Y-33730000D02*
X34790000Y-34530000D01*
X35100000Y-32060000D02*
X35900000Y-32060000D01*
X35900000Y-34840000D02*
X35100000Y-34840000D01*
X36210000Y-33170000D02*
X36210000Y-32370000D01*
X36210000Y-33730000D02*
X36210000Y-34530000D01*
X34790000Y-32370000D02*
G75*
G02*
X35100000Y-32060000I310000J0D01*
G01*
X35100000Y-34840000D02*
G75*
G02*
X34790000Y-34530000I0J310000D01*
G01*
X35900000Y-32060000D02*
G75*
G02*
X36210000Y-32370000I0J-310000D01*
G01*
X36210000Y-34530000D02*
G75*
G02*
X35900000Y-34840000I-310000J0D01*
G01*
D11*
X35930000Y-34250000D02*
G75*
G02*
X35870000Y-34250000I-30000J0D01*
G01*
X35870000Y-34250000D02*
G75*
G02*
X35930000Y-34250000I30000J0D01*
G01*
%TO.C,C4*%
D13*
X40345400Y-41101400D02*
X40345400Y-40301400D01*
X41455400Y-39991400D02*
X40655400Y-39991400D01*
X41455400Y-41411400D02*
X40655400Y-41411400D01*
X42015400Y-39991400D02*
X42815400Y-39991400D01*
X42015400Y-41411400D02*
X42815400Y-41411400D01*
X43125400Y-40301400D02*
X43125400Y-41101400D01*
X40345400Y-40301400D02*
G75*
G02*
X40655400Y-39991400I310000J0D01*
G01*
X40655400Y-41411400D02*
G75*
G02*
X40345400Y-41101400I0J310000D01*
G01*
X42815400Y-39991400D02*
G75*
G02*
X43125400Y-40301400I0J-310000D01*
G01*
X43125400Y-41101400D02*
G75*
G02*
X42815400Y-41411400I-310000J0D01*
G01*
D11*
X42565400Y-40301400D02*
G75*
G02*
X42505400Y-40301400I-30000J0D01*
G01*
X42505400Y-40301400D02*
G75*
G02*
X42565400Y-40301400I30000J0D01*
G01*
%TO.C,C10*%
D13*
X40114100Y-39087000D02*
X40114100Y-38287000D01*
X41224100Y-37977000D02*
X40424100Y-37977000D01*
X41224100Y-39397000D02*
X40424100Y-39397000D01*
X41784100Y-37977000D02*
X42584100Y-37977000D01*
X41784100Y-39397000D02*
X42584100Y-39397000D01*
X42894100Y-38287000D02*
X42894100Y-39087000D01*
X40114100Y-38287000D02*
G75*
G02*
X40424100Y-37977000I310000J0D01*
G01*
X40424100Y-39397000D02*
G75*
G02*
X40114100Y-39087000I0J310000D01*
G01*
X42584100Y-37977000D02*
G75*
G02*
X42894100Y-38287000I0J-310000D01*
G01*
X42894100Y-39087000D02*
G75*
G02*
X42584100Y-39397000I-310000J0D01*
G01*
D11*
X42334100Y-38287000D02*
G75*
G02*
X42274100Y-38287000I-30000J0D01*
G01*
X42274100Y-38287000D02*
G75*
G02*
X42334100Y-38287000I30000J0D01*
G01*
%TO.C,C11*%
D10*
X41928600Y-25107000D02*
X41928600Y-26517000D01*
X41928600Y-28727000D02*
X41928600Y-27317000D01*
X43578600Y-24957000D02*
X42078600Y-24957000D01*
X43578600Y-28877000D02*
X42078600Y-28877000D01*
X43728600Y-26517000D02*
X43728600Y-25107000D01*
X43728600Y-27317000D02*
X43728600Y-28727000D01*
X41928600Y-25107000D02*
G75*
G02*
X42078600Y-24957000I150000J0D01*
G01*
X42078600Y-28877000D02*
G75*
G02*
X41928600Y-28727000I0J150000D01*
G01*
X43578600Y-24957000D02*
G75*
G02*
X43728600Y-25107000I0J-150000D01*
G01*
X43728600Y-28727000D02*
G75*
G02*
X43578600Y-28877000I-150000J0D01*
G01*
D11*
X43488600Y-27917000D02*
G75*
G02*
X43428600Y-27917000I-30000J0D01*
G01*
X43428600Y-27917000D02*
G75*
G02*
X43488600Y-27917000I30000J0D01*
G01*
%TO.C,R2*%
D10*
X46710000Y-30340000D02*
X46710000Y-31660000D01*
X46710000Y-31660000D02*
X47670000Y-31660000D01*
X47670000Y-30340000D02*
X46710000Y-30340000D01*
X48530000Y-30340000D02*
X49490000Y-30340000D01*
X49490000Y-30340000D02*
X49490000Y-31660000D01*
X49490000Y-31660000D02*
X48530000Y-31660000D01*
D11*
X48930000Y-30600000D02*
G75*
G02*
X48870000Y-30600000I-30000J0D01*
G01*
X48870000Y-30600000D02*
G75*
G02*
X48930000Y-30600000I30000J0D01*
G01*
%TO.C,C5*%
D10*
X20858900Y-21120000D02*
X20858900Y-21210000D01*
X20858900Y-21120000D02*
X24518900Y-21120000D01*
X20858900Y-24080000D02*
X20858900Y-23990000D01*
X20858900Y-24080000D02*
X24518900Y-24080000D01*
X23588900Y-21120000D02*
X23588900Y-24080000D01*
D11*
X24698900Y-21200000D02*
G75*
G02*
X24638900Y-21200000I-30000J0D01*
G01*
X24638900Y-21200000D02*
G75*
G02*
X24698900Y-21200000I30000J0D01*
G01*
D12*
G36*
X24896109Y-21259591D02*
G01*
X24438909Y-21259591D01*
X24438909Y-21047603D01*
X24896109Y-21047603D01*
X24896109Y-21259591D01*
G37*
G36*
X24896109Y-24152397D02*
G01*
X24438909Y-24152397D01*
X24438909Y-23940409D01*
X24896109Y-23940409D01*
X24896109Y-24152397D01*
G37*
%TO.C,C8*%
D13*
X36284800Y-36400000D02*
X36284800Y-35600000D01*
X37394800Y-35290000D02*
X36594800Y-35290000D01*
X37394800Y-36710000D02*
X36594800Y-36710000D01*
X37954800Y-35290000D02*
X38754800Y-35290000D01*
X37954800Y-36710000D02*
X38754800Y-36710000D01*
X39064800Y-35600000D02*
X39064800Y-36400000D01*
X36284800Y-35600000D02*
G75*
G02*
X36594800Y-35290000I310000J0D01*
G01*
X36594800Y-36710000D02*
G75*
G02*
X36284800Y-36400000I0J310000D01*
G01*
X38754800Y-35290000D02*
G75*
G02*
X39064800Y-35600000I0J-310000D01*
G01*
X39064800Y-36400000D02*
G75*
G02*
X38754800Y-36710000I-310000J0D01*
G01*
D11*
X36904800Y-36400000D02*
G75*
G02*
X36844800Y-36400000I-30000J0D01*
G01*
X36844800Y-36400000D02*
G75*
G02*
X36904800Y-36400000I30000J0D01*
G01*
%TO.C,C2*%
D13*
X52588900Y-41872800D02*
X52588900Y-41072800D01*
X52588900Y-42432800D02*
X52588900Y-43232800D01*
X52898900Y-40762800D02*
X53698900Y-40762800D01*
X53698900Y-43542800D02*
X52898900Y-43542800D01*
X54008900Y-41872800D02*
X54008900Y-41072800D01*
X54008900Y-42432800D02*
X54008900Y-43232800D01*
X52588900Y-41072800D02*
G75*
G02*
X52898900Y-40762800I310000J0D01*
G01*
X52898900Y-43542800D02*
G75*
G02*
X52588900Y-43232800I0J310000D01*
G01*
X53698900Y-40762800D02*
G75*
G02*
X54008900Y-41072800I0J-310000D01*
G01*
X54008900Y-43232800D02*
G75*
G02*
X53698900Y-43542800I-310000J0D01*
G01*
D11*
X52928900Y-41352800D02*
G75*
G02*
X52868900Y-41352800I-30000J0D01*
G01*
X52868900Y-41352800D02*
G75*
G02*
X52928900Y-41352800I30000J0D01*
G01*
%TO.C,C7*%
D13*
X39585200Y-37200000D02*
X39585200Y-36400000D01*
X40695200Y-36090000D02*
X39895200Y-36090000D01*
X40695200Y-37510000D02*
X39895200Y-37510000D01*
X41255200Y-36090000D02*
X42055200Y-36090000D01*
X41255200Y-37510000D02*
X42055200Y-37510000D01*
X42365200Y-36400000D02*
X42365200Y-37200000D01*
X39585200Y-36400000D02*
G75*
G02*
X39895200Y-36090000I310000J0D01*
G01*
X39895200Y-37510000D02*
G75*
G02*
X39585200Y-37200000I0J310000D01*
G01*
X42055200Y-36090000D02*
G75*
G02*
X42365200Y-36400000I0J-310000D01*
G01*
X42365200Y-37200000D02*
G75*
G02*
X42055200Y-37510000I-310000J0D01*
G01*
D11*
X40205200Y-37200000D02*
G75*
G02*
X40145200Y-37200000I-30000J0D01*
G01*
X40145200Y-37200000D02*
G75*
G02*
X40205200Y-37200000I30000J0D01*
G01*
%TO.C,R1*%
D10*
X39990000Y-26597000D02*
X39990000Y-27557000D01*
X39990000Y-29377000D02*
X39990000Y-28417000D01*
X41310000Y-26597000D02*
X39990000Y-26597000D01*
X41310000Y-27557000D02*
X41310000Y-26597000D01*
X41310000Y-28417000D02*
X41310000Y-29377000D01*
X41310000Y-29377000D02*
X39990000Y-29377000D01*
D11*
X41080000Y-28787000D02*
G75*
G02*
X41020000Y-28787000I-30000J0D01*
G01*
X41020000Y-28787000D02*
G75*
G02*
X41080000Y-28787000I30000J0D01*
G01*
%TO.C,U1*%
D14*
X45990000Y-33670000D02*
X52640000Y-33670000D01*
X45990000Y-40300000D02*
X45990000Y-33670000D01*
X52640000Y-33670000D02*
X52640000Y-34430000D01*
X52640000Y-34100000D02*
X52640000Y-40300000D01*
X52640000Y-40300000D02*
X45990000Y-40300000D01*
D15*
X45240000Y-33610000D02*
G75*
G02*
X45239984Y-33607452I-200000J18D01*
G01*
D11*
X44830000Y-32500000D02*
G75*
G02*
X44770000Y-32500000I-30000J0D01*
G01*
X44770000Y-32500000D02*
G75*
G02*
X44830000Y-32500000I30000J0D01*
G01*
D13*
X46640000Y-34380000D02*
G75*
G02*
X46300000Y-34380000I-170000J0D01*
G01*
X46300000Y-34380000D02*
G75*
G02*
X46640000Y-34380000I170000J0D01*
G01*
%TO.C,J1*%
D14*
X11580000Y-24584900D02*
X13490000Y-24584900D01*
X11580000Y-27124900D02*
X11580000Y-24584900D01*
X16660000Y-24584900D02*
X13490000Y-24584900D01*
X16660000Y-24584900D02*
X16660000Y-27124900D01*
X16660000Y-27124900D02*
X11580000Y-27124900D01*
D11*
X11610000Y-27124900D02*
G75*
G02*
X11550000Y-27124900I-30000J0D01*
G01*
X11550000Y-27124900D02*
G75*
G02*
X11610000Y-27124900I30000J0D01*
G01*
%TO.C,C3*%
D13*
X53112800Y-33401100D02*
X53112800Y-32601100D01*
X54222800Y-32291100D02*
X53422800Y-32291100D01*
X54222800Y-33711100D02*
X53422800Y-33711100D01*
X54782800Y-32291100D02*
X55582800Y-32291100D01*
X54782800Y-33711100D02*
X55582800Y-33711100D01*
X55892800Y-32601100D02*
X55892800Y-33401100D01*
X53112800Y-32601100D02*
G75*
G02*
X53422800Y-32291100I310000J0D01*
G01*
X53422800Y-33711100D02*
G75*
G02*
X53112800Y-33401100I0J310000D01*
G01*
X55582800Y-32291100D02*
G75*
G02*
X55892800Y-32601100I0J-310000D01*
G01*
X55892800Y-33401100D02*
G75*
G02*
X55582800Y-33711100I-310000J0D01*
G01*
D11*
X53732800Y-33401100D02*
G75*
G02*
X53672800Y-33401100I-30000J0D01*
G01*
X53672800Y-33401100D02*
G75*
G02*
X53732800Y-33401100I30000J0D01*
G01*
%TO.C,C6*%
D10*
X24138300Y-24735300D02*
X24138300Y-26235300D01*
X24288300Y-26385300D02*
X25698300Y-26385300D01*
X25698300Y-24585300D02*
X24288300Y-24585300D01*
X26498300Y-24585300D02*
X27908300Y-24585300D01*
X27908300Y-26385300D02*
X26498300Y-26385300D01*
X28058300Y-24735300D02*
X28058300Y-26235300D01*
X24138300Y-24735300D02*
G75*
G02*
X24288300Y-24585300I150000J0D01*
G01*
X24288300Y-26385300D02*
G75*
G02*
X24138300Y-26235300I0J150000D01*
G01*
X27908300Y-24585300D02*
G75*
G02*
X28058300Y-24735300I0J-150000D01*
G01*
X28058300Y-26235300D02*
G75*
G02*
X27908300Y-26385300I-150000J0D01*
G01*
D11*
X27128300Y-24855300D02*
G75*
G02*
X27068300Y-24855300I-30000J0D01*
G01*
X27068300Y-24855300D02*
G75*
G02*
X27128300Y-24855300I30000J0D01*
G01*
%TO.C,D2*%
D13*
X45270000Y-20755000D02*
X45270000Y-18855000D01*
X46610000Y-18855000D02*
X45270000Y-18855000D01*
X46750000Y-20745000D02*
X45270000Y-20755000D01*
X46950000Y-19785000D02*
X47450000Y-19785000D01*
X46950000Y-20295000D02*
X46950000Y-19295000D01*
X47750000Y-18845000D02*
X49000000Y-18845000D01*
X47750000Y-20745000D02*
X49000000Y-20745000D01*
X49000000Y-18845000D02*
X49000000Y-18845000D01*
X49000000Y-18845000D02*
X49350000Y-19195000D01*
X49000000Y-20745000D02*
X49000000Y-20745000D01*
X49000000Y-20745000D02*
X49350000Y-20395000D01*
X49350000Y-20395000D02*
X49350000Y-19195000D01*
D11*
X49630000Y-19795000D02*
G75*
G02*
X49570000Y-19795000I-30000J0D01*
G01*
X49570000Y-19795000D02*
G75*
G02*
X49630000Y-19795000I30000J0D01*
G01*
%TO.C,Y1*%
D13*
X26800000Y-37250000D02*
X26800000Y-38000000D01*
X26800000Y-42050000D02*
X26800000Y-41300000D01*
X38200000Y-37250000D02*
X26800000Y-37250000D01*
X38200000Y-38000000D02*
X38200000Y-37250000D01*
X38200000Y-41300000D02*
X38200000Y-42050000D01*
X38200000Y-42050000D02*
X26800000Y-42050000D01*
D11*
X26180000Y-42050000D02*
G75*
G02*
X26120000Y-42050000I-30000J0D01*
G01*
X26120000Y-42050000D02*
G75*
G02*
X26180000Y-42050000I30000J0D01*
G01*
%TO.C,J2*%
D13*
X47220000Y-25185000D02*
X49780000Y-25185000D01*
X47220000Y-27725000D02*
X47220000Y-25185000D01*
X49780000Y-25185000D02*
X49780000Y-27725000D01*
X49780000Y-25185000D02*
X57380000Y-25185000D01*
X57380000Y-25185000D02*
X57380000Y-27725000D01*
X57380000Y-27725000D02*
X47220000Y-27725000D01*
D11*
X47250000Y-27705000D02*
G75*
G02*
X47190000Y-27705000I-30000J0D01*
G01*
X47190000Y-27705000D02*
G75*
G02*
X47250000Y-27705000I30000J0D01*
G01*
%TD*%
M02*
