%TF.GenerationSoftware,KiCad,Pcbnew,10.0.3*%
%TF.CreationDate,2026-07-28T06:10:09-07:00*%
%TF.ProjectId,stm32-blinky,73746d33-322d-4626-9c69-6e6b792e6b69,rev?*%
%TF.SameCoordinates,Original*%
%TF.FileFunction,Paste,Top*%
%TF.FilePolarity,Positive*%
%FSLAX46Y46*%
G04 Gerber Fmt 4.6, Leading zero omitted, Abs format (unit mm)*
G04 Created by KiCad (PCBNEW 10.0.3) date 2026-07-28 06:10:09*
%MOMM*%
%LPD*%
G01*
G04 APERTURE LIST*
%ADD10R,2.000000X2.000000*%
%ADD11R,0.900000X0.800000*%
%ADD12R,2.500000X1.100000*%
%ADD13R,2.340000X3.600000*%
%ADD14R,0.800000X0.900000*%
%ADD15R,1.350000X1.410000*%
%ADD16R,0.806000X0.864000*%
%ADD17R,1.506000X2.376000*%
%ADD18R,0.864000X0.806000*%
%ADD19O,1.500000X0.270000*%
%ADD20O,0.270000X1.500000*%
%ADD21R,1.410000X1.350000*%
%ADD22R,1.000000X1.250000*%
%ADD23R,5.500000X2.000000*%
G04 APERTURE END LIST*
D10*
%TO.C,D1*%
X18950000Y-29000000D03*
X14550000Y-29000000D03*
%TD*%
D11*
%TO.C,C1*%
X44151100Y-31410200D03*
X44151100Y-30010200D03*
%TD*%
D12*
%TO.C,U2*%
X27080000Y-19100000D03*
X27080000Y-21400000D03*
X27080000Y-23700000D03*
D13*
X33020000Y-21400000D03*
%TD*%
D11*
%TO.C,C9*%
X35500000Y-34150000D03*
X35500000Y-32750000D03*
%TD*%
D14*
%TO.C,C4*%
X42435400Y-40701400D03*
X41035400Y-40701400D03*
%TD*%
%TO.C,C10*%
X42204100Y-38687000D03*
X40804100Y-38687000D03*
%TD*%
D15*
%TO.C,C11*%
X42828600Y-27917000D03*
X42828600Y-25917000D03*
%TD*%
D16*
%TO.C,R2*%
X48850000Y-31000000D03*
X47350000Y-31000000D03*
%TD*%
D17*
%TO.C,C5*%
X24548900Y-22600000D03*
X20828900Y-22600000D03*
%TD*%
D14*
%TO.C,C8*%
X36974800Y-36000000D03*
X38374800Y-36000000D03*
%TD*%
D11*
%TO.C,C2*%
X53298900Y-41452800D03*
X53298900Y-42852800D03*
%TD*%
D14*
%TO.C,C7*%
X40275200Y-36800000D03*
X41675200Y-36800000D03*
%TD*%
D18*
%TO.C,R1*%
X40650000Y-28737000D03*
X40650000Y-27237000D03*
%TD*%
D19*
%TO.C,U1*%
X45050000Y-34250000D03*
X45050000Y-34750000D03*
X45050000Y-35250000D03*
X45050000Y-35750000D03*
X45050000Y-36250000D03*
X45050000Y-36750000D03*
X45050000Y-37250000D03*
X45050000Y-37750000D03*
X45050000Y-38250000D03*
X45050000Y-38750000D03*
X45050000Y-39250000D03*
X45050000Y-39750000D03*
D20*
X46550000Y-41250000D03*
X47050000Y-41250000D03*
X47550000Y-41250000D03*
X48050000Y-41250000D03*
X48550000Y-41250000D03*
X49050000Y-41250000D03*
X49550000Y-41250000D03*
X50050000Y-41250000D03*
X50550000Y-41250000D03*
X51050000Y-41250000D03*
X51550000Y-41250000D03*
X52050000Y-41250000D03*
D19*
X53550000Y-39750000D03*
X53550000Y-39250000D03*
X53550000Y-38750000D03*
X53550000Y-38250000D03*
X53550000Y-37750000D03*
X53550000Y-37250000D03*
X53550000Y-36750000D03*
X53550000Y-36250000D03*
X53550000Y-35750000D03*
X53550000Y-35250000D03*
X53550000Y-34750000D03*
X53550000Y-34250000D03*
D20*
X52050000Y-32750000D03*
X51550000Y-32750000D03*
X51050000Y-32750000D03*
X50550000Y-32750000D03*
X50050000Y-32750000D03*
X49550000Y-32750000D03*
X49050000Y-32750000D03*
X48550000Y-32750000D03*
X48050000Y-32750000D03*
X47550000Y-32750000D03*
X47050000Y-32750000D03*
X46550000Y-32750000D03*
%TD*%
D14*
%TO.C,C3*%
X53802800Y-33001100D03*
X55202800Y-33001100D03*
%TD*%
D21*
%TO.C,C6*%
X27098300Y-25485300D03*
X25098300Y-25485300D03*
%TD*%
D22*
%TO.C,D2*%
X48350000Y-19795000D03*
X46150000Y-19795000D03*
%TD*%
D23*
%TO.C,Y1*%
X28050000Y-39650000D03*
X36950000Y-39650000D03*
%TD*%
M02*
