%TF.GenerationSoftware,KiCad,Pcbnew,10.0.3*%
%TF.CreationDate,2026-07-28T01:25:13-07:00*%
%TF.ProjectId,stm32-blinky,73746d33-322d-4626-9c69-6e6b792e6b69,rev?*%
%TF.SameCoordinates,Original*%
%TF.FileFunction,Copper,L2,Bot*%
%TF.FilePolarity,Positive*%
%FSLAX46Y46*%
G04 Gerber Fmt 4.6, Leading zero omitted, Abs format (unit mm)*
G04 Created by KiCad (PCBNEW 10.0.3) date 2026-07-28 01:25:13*
%MOMM*%
%LPD*%
G01*
G04 APERTURE LIST*
%TA.AperFunction,ComponentPad*%
%ADD10R,1.800000X1.800000*%
%TD*%
%TA.AperFunction,ComponentPad*%
%ADD11C,1.800000*%
%TD*%
%TA.AperFunction,ComponentPad*%
%ADD12R,1.700000X1.700000*%
%TD*%
%TA.AperFunction,ComponentPad*%
%ADD13C,1.700000*%
%TD*%
%TA.AperFunction,ViaPad*%
%ADD14C,0.600000*%
%TD*%
%TA.AperFunction,Conductor*%
%ADD15C,0.200000*%
%TD*%
G04 APERTURE END LIST*
D10*
%TO.P,J1,1*%
%TO.N,/VIN*%
X12850000Y-25854900D03*
D11*
%TO.P,J1,2*%
%TO.N,GND*%
X15390000Y-25854900D03*
%TD*%
D12*
%TO.P,J2,1*%
%TO.N,/SWDIO*%
X48490000Y-26455000D03*
D13*
%TO.P,J2,2*%
%TO.N,/SWCLK*%
X51030000Y-26455000D03*
%TO.P,J2,3*%
%TO.N,+3V3*%
X53570000Y-26455000D03*
%TO.P,J2,4*%
%TO.N,GND*%
X56110000Y-26455000D03*
%TD*%
D14*
%TO.N,GND*%
X51550000Y-42444300D03*
X41035400Y-41599800D03*
X25376300Y-18875000D03*
X39211900Y-35791600D03*
X24012700Y-24569000D03*
X43781800Y-38054200D03*
X42511000Y-36426600D03*
X47308000Y-30129800D03*
X36402600Y-32973900D03*
X52325300Y-34791200D03*
X20828900Y-20967800D03*
X45044800Y-30225200D03*
X40804100Y-39621600D03*
X42828600Y-24755900D03*
X52408000Y-42816000D03*
X55202800Y-33908400D03*
%TO.N,/NRST*%
X43450000Y-35650000D03*
X43350000Y-37350000D03*
%TO.N,/LED*%
X49145500Y-21815700D03*
X43031500Y-33220500D03*
%TD*%
%TO.N,/NRST*%
D15*
X43450000Y-35650000D02*
X43450000Y-37250000D01*
%TO.N,/LED*%
X43031500Y-27929700D02*
X49145500Y-21815700D01*
X43031500Y-33220500D02*
X43031500Y-27929700D01*
%TD*%
%TA.AperFunction,Conductor*%
%TO.N,GND*%
G36*
X58823039Y-9474685D02*
G01*
X58868794Y-9527489D01*
X58880000Y-9579000D01*
X58880000Y-48331000D01*
X58860315Y-48398039D01*
X58807511Y-48443794D01*
X58756000Y-48455000D01*
X10004000Y-48455000D01*
X9936961Y-48435315D01*
X9891206Y-48382511D01*
X9880000Y-48331000D01*
X9880000Y-37293719D01*
X42922500Y-37293719D01*
X42922500Y-37406280D01*
X42951633Y-37515010D01*
X42979774Y-37563750D01*
X43007915Y-37612491D01*
X43087509Y-37692085D01*
X43184991Y-37748367D01*
X43293719Y-37777500D01*
X43293721Y-37777500D01*
X43406279Y-37777500D01*
X43406281Y-37777500D01*
X43515009Y-37748367D01*
X43612491Y-37692085D01*
X43692085Y-37612491D01*
X43748367Y-37515009D01*
X43777500Y-37406281D01*
X43777500Y-37293719D01*
X43748367Y-37184991D01*
X43694112Y-37091021D01*
X43677500Y-37029021D01*
X43677500Y-36078438D01*
X43697185Y-36011399D01*
X43713819Y-35990757D01*
X43792085Y-35912491D01*
X43848367Y-35815009D01*
X43877500Y-35706281D01*
X43877500Y-35593719D01*
X43848367Y-35484991D01*
X43792085Y-35387509D01*
X43712491Y-35307915D01*
X43663750Y-35279774D01*
X43615010Y-35251633D01*
X43560645Y-35237066D01*
X43506281Y-35222500D01*
X43393719Y-35222500D01*
X43284989Y-35251633D01*
X43187509Y-35307915D01*
X43187506Y-35307917D01*
X43107917Y-35387506D01*
X43107915Y-35387509D01*
X43051633Y-35484989D01*
X43022500Y-35593719D01*
X43022500Y-35706280D01*
X43051633Y-35815010D01*
X43079774Y-35863750D01*
X43107915Y-35912491D01*
X43107917Y-35912493D01*
X43186181Y-35990757D01*
X43219666Y-36052080D01*
X43222500Y-36078438D01*
X43222500Y-36858386D01*
X43202815Y-36925425D01*
X43160502Y-36965771D01*
X43087509Y-37007915D01*
X43087506Y-37007917D01*
X43007917Y-37087506D01*
X43007915Y-37087509D01*
X42951633Y-37184989D01*
X42922500Y-37293719D01*
X9880000Y-37293719D01*
X9880000Y-33164219D01*
X42604000Y-33164219D01*
X42604000Y-33276780D01*
X42633133Y-33385510D01*
X42661274Y-33434250D01*
X42689415Y-33482991D01*
X42769009Y-33562585D01*
X42866491Y-33618867D01*
X42975219Y-33648000D01*
X42975221Y-33648000D01*
X43087779Y-33648000D01*
X43087781Y-33648000D01*
X43196509Y-33618867D01*
X43293991Y-33562585D01*
X43373585Y-33482991D01*
X43429867Y-33385509D01*
X43459000Y-33276781D01*
X43459000Y-33164219D01*
X43429867Y-33055491D01*
X43373585Y-32958009D01*
X43295318Y-32879742D01*
X43261834Y-32818418D01*
X43259000Y-32792061D01*
X43259000Y-28075295D01*
X43278685Y-28008256D01*
X43295319Y-27987614D01*
X45690492Y-25592441D01*
X47512500Y-25592441D01*
X47512500Y-27317558D01*
X47519898Y-27354749D01*
X47548077Y-27396922D01*
X47590250Y-27425101D01*
X47590252Y-27425102D01*
X47618205Y-27430662D01*
X47627441Y-27432500D01*
X47627442Y-27432500D01*
X49352559Y-27432500D01*
X49359957Y-27431028D01*
X49389748Y-27425102D01*
X49431922Y-27396922D01*
X49460102Y-27354748D01*
X49467500Y-27317558D01*
X49467500Y-26358720D01*
X50052500Y-26358720D01*
X50052500Y-26551279D01*
X50090062Y-26740118D01*
X50090066Y-26740132D01*
X50163746Y-26918013D01*
X50163753Y-26918026D01*
X50270725Y-27078119D01*
X50270728Y-27078123D01*
X50406876Y-27214271D01*
X50406880Y-27214274D01*
X50566973Y-27321246D01*
X50566986Y-27321253D01*
X50715806Y-27382896D01*
X50744874Y-27394936D01*
X50896527Y-27425101D01*
X50933720Y-27432499D01*
X50933724Y-27432500D01*
X50933725Y-27432500D01*
X51126276Y-27432500D01*
X51126277Y-27432499D01*
X51315126Y-27394936D01*
X51493020Y-27321250D01*
X51653120Y-27214274D01*
X51789274Y-27078120D01*
X51896250Y-26918020D01*
X51969936Y-26740126D01*
X52007500Y-26551275D01*
X52007500Y-26358725D01*
X52007499Y-26358720D01*
X52592500Y-26358720D01*
X52592500Y-26551279D01*
X52630062Y-26740118D01*
X52630066Y-26740132D01*
X52703746Y-26918013D01*
X52703753Y-26918026D01*
X52810725Y-27078119D01*
X52810728Y-27078123D01*
X52946876Y-27214271D01*
X52946880Y-27214274D01*
X53106973Y-27321246D01*
X53106986Y-27321253D01*
X53255806Y-27382896D01*
X53284874Y-27394936D01*
X53436527Y-27425101D01*
X53473720Y-27432499D01*
X53473724Y-27432500D01*
X53473725Y-27432500D01*
X53666276Y-27432500D01*
X53666277Y-27432499D01*
X53736845Y-27418462D01*
X53822660Y-27401394D01*
X53832265Y-27399483D01*
X53855126Y-27394936D01*
X54033020Y-27321250D01*
X54193120Y-27214274D01*
X54329274Y-27078120D01*
X54436250Y-26918020D01*
X54509936Y-26740126D01*
X54529457Y-26641983D01*
X54561841Y-26580075D01*
X54622557Y-26545501D01*
X54692326Y-26549240D01*
X54748999Y-26590106D01*
X54773547Y-26646779D01*
X54793242Y-26771127D01*
X54793242Y-26771130D01*
X54858904Y-26973217D01*
X54955375Y-27162550D01*
X54994728Y-27216716D01*
X55586201Y-26625243D01*
X55597470Y-26667297D01*
X55669881Y-26792715D01*
X55772285Y-26895119D01*
X55897703Y-26967530D01*
X55939755Y-26978797D01*
X55348282Y-27570269D01*
X55348282Y-27570270D01*
X55402449Y-27609624D01*
X55591782Y-27706095D01*
X55793870Y-27771757D01*
X56003754Y-27805000D01*
X56216246Y-27805000D01*
X56426127Y-27771757D01*
X56426130Y-27771757D01*
X56628217Y-27706095D01*
X56817554Y-27609622D01*
X56871716Y-27570270D01*
X56871717Y-27570270D01*
X56280244Y-26978797D01*
X56322297Y-26967530D01*
X56447715Y-26895119D01*
X56550119Y-26792715D01*
X56622530Y-26667297D01*
X56633797Y-26625244D01*
X57225270Y-27216717D01*
X57225270Y-27216716D01*
X57264622Y-27162554D01*
X57361095Y-26973217D01*
X57426757Y-26771130D01*
X57426757Y-26771127D01*
X57460000Y-26561246D01*
X57460000Y-26348753D01*
X57426757Y-26138872D01*
X57426757Y-26138869D01*
X57361095Y-25936782D01*
X57264624Y-25747449D01*
X57225270Y-25693282D01*
X57225269Y-25693282D01*
X56633797Y-26284754D01*
X56622530Y-26242703D01*
X56550119Y-26117285D01*
X56447715Y-26014881D01*
X56322297Y-25942470D01*
X56280244Y-25931202D01*
X56871716Y-25339728D01*
X56817550Y-25300375D01*
X56628217Y-25203904D01*
X56426129Y-25138242D01*
X56216246Y-25105000D01*
X56003754Y-25105000D01*
X55793872Y-25138242D01*
X55793869Y-25138242D01*
X55591782Y-25203904D01*
X55402439Y-25300380D01*
X55348282Y-25339727D01*
X55348282Y-25339728D01*
X55939756Y-25931202D01*
X55897703Y-25942470D01*
X55772285Y-26014881D01*
X55669881Y-26117285D01*
X55597470Y-26242703D01*
X55586202Y-26284756D01*
X54994728Y-25693282D01*
X54994727Y-25693282D01*
X54955380Y-25747439D01*
X54858904Y-25936782D01*
X54793242Y-26138869D01*
X54793242Y-26138872D01*
X54773547Y-26263220D01*
X54743618Y-26326355D01*
X54684306Y-26363286D01*
X54614443Y-26362288D01*
X54556211Y-26323678D01*
X54529457Y-26268013D01*
X54509937Y-26169881D01*
X54509936Y-26169874D01*
X54445736Y-26014881D01*
X54436253Y-25991986D01*
X54436246Y-25991973D01*
X54329274Y-25831880D01*
X54329271Y-25831876D01*
X54193123Y-25695728D01*
X54193119Y-25695725D01*
X54033026Y-25588753D01*
X54033013Y-25588746D01*
X53855132Y-25515066D01*
X53855128Y-25515064D01*
X53855126Y-25515064D01*
X53855122Y-25515063D01*
X53855118Y-25515062D01*
X53822650Y-25508604D01*
X53666279Y-25477500D01*
X53666275Y-25477500D01*
X53473725Y-25477500D01*
X53473720Y-25477500D01*
X53284881Y-25515062D01*
X53284867Y-25515066D01*
X53106986Y-25588746D01*
X53106973Y-25588753D01*
X52946880Y-25695725D01*
X52946876Y-25695728D01*
X52810728Y-25831876D01*
X52810725Y-25831880D01*
X52703753Y-25991973D01*
X52703746Y-25991986D01*
X52630066Y-26169867D01*
X52630062Y-26169881D01*
X52592500Y-26358720D01*
X52007499Y-26358720D01*
X51969936Y-26169874D01*
X51905736Y-26014881D01*
X51896253Y-25991986D01*
X51896246Y-25991973D01*
X51789274Y-25831880D01*
X51789271Y-25831876D01*
X51653123Y-25695728D01*
X51653119Y-25695725D01*
X51493026Y-25588753D01*
X51493013Y-25588746D01*
X51315132Y-25515066D01*
X51315128Y-25515064D01*
X51315126Y-25515064D01*
X51315122Y-25515063D01*
X51315118Y-25515062D01*
X51126279Y-25477500D01*
X51126275Y-25477500D01*
X50933725Y-25477500D01*
X50933720Y-25477500D01*
X50744881Y-25515062D01*
X50744867Y-25515066D01*
X50566986Y-25588746D01*
X50566973Y-25588753D01*
X50406880Y-25695725D01*
X50406876Y-25695728D01*
X50270728Y-25831876D01*
X50270725Y-25831880D01*
X50163753Y-25991973D01*
X50163746Y-25991986D01*
X50090066Y-26169867D01*
X50090062Y-26169881D01*
X50052500Y-26358720D01*
X49467500Y-26358720D01*
X49467500Y-25592442D01*
X49460102Y-25555252D01*
X49460101Y-25555250D01*
X49431922Y-25513077D01*
X49389749Y-25484898D01*
X49352559Y-25477500D01*
X49352558Y-25477500D01*
X47627442Y-25477500D01*
X47627441Y-25477500D01*
X47590250Y-25484898D01*
X47548077Y-25513077D01*
X47519898Y-25555250D01*
X47512500Y-25592441D01*
X45690492Y-25592441D01*
X49003414Y-22279519D01*
X49064737Y-22246034D01*
X49091095Y-22243200D01*
X49201779Y-22243200D01*
X49201781Y-22243200D01*
X49310509Y-22214067D01*
X49407991Y-22157785D01*
X49487585Y-22078191D01*
X49543867Y-21980709D01*
X49573000Y-21871981D01*
X49573000Y-21759419D01*
X49543867Y-21650691D01*
X49487585Y-21553209D01*
X49407991Y-21473615D01*
X49359250Y-21445474D01*
X49310510Y-21417333D01*
X49256145Y-21402766D01*
X49201781Y-21388200D01*
X49089219Y-21388200D01*
X48980489Y-21417333D01*
X48883009Y-21473615D01*
X48883006Y-21473617D01*
X48803417Y-21553206D01*
X48803415Y-21553209D01*
X48747133Y-21650689D01*
X48718000Y-21759419D01*
X48718000Y-21870103D01*
X48698315Y-21937142D01*
X48681680Y-21957784D01*
X42902632Y-27736835D01*
X42838635Y-27800832D01*
X42836909Y-27805000D01*
X42804000Y-27884446D01*
X42804000Y-32792061D01*
X42784315Y-32859100D01*
X42767682Y-32879742D01*
X42689414Y-32958009D01*
X42633133Y-33055489D01*
X42604000Y-33164219D01*
X9880000Y-33164219D01*
X9880000Y-24942341D01*
X11822500Y-24942341D01*
X11822500Y-26767458D01*
X11829898Y-26804649D01*
X11858077Y-26846822D01*
X11900250Y-26875001D01*
X11900252Y-26875002D01*
X11928205Y-26880562D01*
X11937441Y-26882400D01*
X11937442Y-26882400D01*
X13762559Y-26882400D01*
X13769957Y-26880928D01*
X13799748Y-26875002D01*
X13813148Y-26866047D01*
X13828778Y-26855605D01*
X13841922Y-26846822D01*
X13870101Y-26804649D01*
X13870100Y-26804649D01*
X13870102Y-26804648D01*
X13877500Y-26767458D01*
X13877500Y-26486714D01*
X13897185Y-26419675D01*
X13949989Y-26373920D01*
X14019147Y-26363976D01*
X14082703Y-26393001D01*
X14111985Y-26430419D01*
X14192611Y-26588656D01*
X14238932Y-26652413D01*
X14866202Y-26025143D01*
X14877470Y-26067197D01*
X14949881Y-26192615D01*
X15052285Y-26295019D01*
X15177703Y-26367430D01*
X15219754Y-26378697D01*
X14592485Y-27005965D01*
X14592485Y-27005966D01*
X14656243Y-27052288D01*
X14852589Y-27152332D01*
X15062164Y-27220426D01*
X15279819Y-27254900D01*
X15500181Y-27254900D01*
X15717835Y-27220426D01*
X15927410Y-27152332D01*
X16123760Y-27052286D01*
X16187513Y-27005966D01*
X16187514Y-27005966D01*
X15560244Y-26378697D01*
X15602297Y-26367430D01*
X15727715Y-26295019D01*
X15830119Y-26192615D01*
X15902530Y-26067197D01*
X15913797Y-26025144D01*
X16541066Y-26652414D01*
X16541066Y-26652413D01*
X16587386Y-26588660D01*
X16687432Y-26392310D01*
X16755526Y-26182735D01*
X16790000Y-25965081D01*
X16790000Y-25744718D01*
X16755526Y-25527064D01*
X16687432Y-25317489D01*
X16587388Y-25121143D01*
X16541066Y-25057385D01*
X16541065Y-25057385D01*
X15913797Y-25684654D01*
X15902530Y-25642603D01*
X15830119Y-25517185D01*
X15727715Y-25414781D01*
X15602297Y-25342370D01*
X15560243Y-25331101D01*
X16187513Y-24703832D01*
X16123756Y-24657511D01*
X15927410Y-24557467D01*
X15717835Y-24489373D01*
X15500181Y-24454900D01*
X15279819Y-24454900D01*
X15062164Y-24489373D01*
X14852589Y-24557467D01*
X14656233Y-24657516D01*
X14592485Y-24703831D01*
X14592485Y-24703832D01*
X15219755Y-25331102D01*
X15177703Y-25342370D01*
X15052285Y-25414781D01*
X14949881Y-25517185D01*
X14877470Y-25642603D01*
X14866202Y-25684655D01*
X14238932Y-25057385D01*
X14238931Y-25057385D01*
X14192616Y-25121133D01*
X14111985Y-25279381D01*
X14064010Y-25330177D01*
X13996189Y-25346972D01*
X13930054Y-25324434D01*
X13886603Y-25269719D01*
X13877500Y-25223086D01*
X13877500Y-24942341D01*
X13875662Y-24933105D01*
X13870102Y-24905152D01*
X13870101Y-24905150D01*
X13841922Y-24862977D01*
X13828775Y-24854193D01*
X13799749Y-24834798D01*
X13762559Y-24827400D01*
X13762558Y-24827400D01*
X11937442Y-24827400D01*
X11937441Y-24827400D01*
X11900250Y-24834798D01*
X11858077Y-24862977D01*
X11829898Y-24905150D01*
X11822500Y-24942341D01*
X9880000Y-24942341D01*
X9880000Y-9579000D01*
X9899685Y-9511961D01*
X9952489Y-9466206D01*
X10004000Y-9455000D01*
X58756000Y-9455000D01*
X58823039Y-9474685D01*
G37*
%TD.AperFunction*%
%TD*%
M02*
