M48
; DRILL file KiCad 10.0.3 date 2026-07-28T01:25:13
; FORMAT={-:-/ absolute / metric / decimal}
; #@! TF.CreationDate,2026-07-28T01:25:13-07:00
; #@! TF.GenerationSoftware,Kicad,Pcbnew,10.0.3
; #@! TF.FileFunction,MixedPlating,1,2
FMAT,2
METRIC
; #@! TA.AperFunction,Plated,PTH,ViaDrill
T1C0.300
; #@! TA.AperFunction,Plated,PTH,ComponentDrill
T2C1.100
%
G90
G05
T1
X20.829Y-20.968
X24.013Y-24.569
X25.376Y-18.875
X36.403Y-32.974
X39.212Y-35.792
X40.804Y-39.622
X41.035Y-41.6
X42.511Y-36.427
X42.829Y-24.756
X43.032Y-33.221
X43.35Y-37.35
X43.45Y-35.65
X43.782Y-38.054
X45.045Y-30.225
X47.308Y-30.13
X49.145Y-21.816
X51.55Y-42.444
X52.325Y-34.791
X52.408Y-42.816
X55.203Y-33.908
T2
X12.85Y-25.855
X15.39Y-25.855
X48.49Y-26.455
X51.03Y-26.455
X53.57Y-26.455
X56.11Y-26.455
M30
