<svg xmlns="http://www.w3.org/2000/svg" width="288" height="243" viewBox="0 0 288 243">
<rect width="100%" height="100%" fill="white"/>
<text x="10.0" y="16" font-family="monospace" font-size="12" fill="black">ESOP-8_L4.9-W3.9-P1.27-LS6.0-TL-EP: 9 pads (datasheet 9), pitch/size from datasheet 1.27mm</text>
<text x="10.0" y="32" font-family="monospace" font-size="11" fill="#b00">red = geometry mismatch</text>
<polygon points="10.0,56.0 62.0,56.0 62.0,80.0 10.0,80.0" fill="#f8caca" stroke="#b00000" stroke-width="1"/>
<text x="36.0" y="68.0" font-family="monospace" font-size="10" fill="black" text-anchor="middle" dominant-baseline="central">1</text>
<text x="36.0" y="79.0" font-family="monospace" font-size="7" fill="#555" text-anchor="middle">1.3x0.6</text>
<polygon points="10.0,106.8 62.0,106.8 62.0,130.8 10.0,130.8" fill="#f8caca" stroke="#b00000" stroke-width="1"/>
<text x="36.0" y="118.8" font-family="monospace" font-size="10" fill="black" text-anchor="middle" dominant-baseline="central">2</text>
<text x="36.0" y="129.8" font-family="monospace" font-size="7" fill="#555" text-anchor="middle">1.3x0.6</text>
<polygon points="10.0,158.0 62.0,158.0 62.0,182.0 10.0,182.0" fill="#f8caca" stroke="#b00000" stroke-width="1"/>
<text x="36.0" y="170.0" font-family="monospace" font-size="10" fill="black" text-anchor="middle" dominant-baseline="central">3</text>
<text x="36.0" y="181.0" font-family="monospace" font-size="7" fill="#555" text-anchor="middle">1.3x0.6</text>
<polygon points="10.0,208.8 62.0,208.8 62.0,232.8 10.0,232.8" fill="#f8caca" stroke="#b00000" stroke-width="1"/>
<text x="36.0" y="220.8" font-family="monospace" font-size="10" fill="black" text-anchor="middle" dominant-baseline="central">4</text>
<text x="36.0" y="231.8" font-family="monospace" font-size="7" fill="#555" text-anchor="middle">1.3x0.6</text>
<polygon points="226.0,208.8 278.0,208.8 278.0,232.8 226.0,232.8" fill="#f8caca" stroke="#b00000" stroke-width="1"/>
<text x="252.0" y="220.8" font-family="monospace" font-size="10" fill="black" text-anchor="middle" dominant-baseline="central">5</text>
<text x="252.0" y="231.8" font-family="monospace" font-size="7" fill="#555" text-anchor="middle">1.3x0.6</text>
<polygon points="226.0,158.0 278.0,158.0 278.0,182.0 226.0,182.0" fill="#f8caca" stroke="#b00000" stroke-width="1"/>
<text x="252.0" y="170.0" font-family="monospace" font-size="10" fill="black" text-anchor="middle" dominant-baseline="central">6</text>
<text x="252.0" y="181.0" font-family="monospace" font-size="7" fill="#555" text-anchor="middle">1.3x0.6</text>
<polygon points="226.0,106.8 278.0,106.8 278.0,130.8 226.0,130.8" fill="#f8caca" stroke="#b00000" stroke-width="1"/>
<text x="252.0" y="118.8" font-family="monospace" font-size="10" fill="black" text-anchor="middle" dominant-baseline="central">7</text>
<text x="252.0" y="129.8" font-family="monospace" font-size="7" fill="#555" text-anchor="middle">1.3x0.6</text>
<polygon points="226.0,56.0 278.0,56.0 278.0,80.0 226.0,80.0" fill="#f8caca" stroke="#b00000" stroke-width="1"/>
<text x="252.0" y="68.0" font-family="monospace" font-size="10" fill="black" text-anchor="middle" dominant-baseline="central">8</text>
<text x="252.0" y="79.0" font-family="monospace" font-size="7" fill="#555" text-anchor="middle">1.3x0.6</text>
<polygon points="94.0,74.4 194.0,74.4 194.0,214.4 94.0,214.4" fill="#f8caca" stroke="#b00000" stroke-width="1"/>
<text x="144.0" y="144.4" font-family="monospace" font-size="10" fill="black" text-anchor="middle" dominant-baseline="central">9</text>
<text x="144.0" y="155.4" font-family="monospace" font-size="7" fill="#555" text-anchor="middle">2.5x3.5</text>
</svg>