%TF.GenerationSoftware,KiCad,Pcbnew,10.0.3*%
%TF.CreationDate,2026-07-30T07:07:03-07:00*%
%TF.ProjectId,lumina-carrier,6c756d69-6e61-42d6-9361-72726965722e,rev?*%
%TF.SameCoordinates,Original*%
%TF.FileFunction,Soldermask,Bot*%
%TF.FilePolarity,Negative*%
%FSLAX46Y46*%
G04 Gerber Fmt 4.6, Leading zero omitted, Abs format (unit mm)*
G04 Created by KiCad (PCBNEW 10.0.3) date 2026-07-30 07:07:03*
%MOMM*%
%LPD*%
G01*
G04 APERTURE LIST*
%ADD10R,1.700000X1.700000*%
%ADD11C,1.700000*%
%ADD12C,3.200000*%
%ADD13C,1.524000*%
%ADD14C,1.200000*%
%ADD15C,1.300000*%
%ADD16C,1.600000*%
%ADD17O,2.000000X2.600000*%
G04 APERTURE END LIST*
D10*
%TO.C,J3*%
X34960000Y-134402000D03*
D11*
X34960000Y-131862000D03*
X37500000Y-134402000D03*
X37500000Y-131862000D03*
X40040000Y-134402000D03*
X40040000Y-131862000D03*
X42580000Y-134402000D03*
X42580000Y-131862000D03*
X45120000Y-134402000D03*
X45120000Y-131862000D03*
X47660000Y-134402000D03*
X47660000Y-131862000D03*
X50200000Y-134402000D03*
X50200000Y-131862000D03*
%TD*%
D12*
%TO.C,H1*%
X22579999Y-60132499D03*
%TD*%
%TO.C,J1*%
X46300000Y-68173000D03*
X34870000Y-68173000D03*
D13*
X46300000Y-77063000D03*
D14*
X45030000Y-74523000D03*
D13*
X43760000Y-77063000D03*
X42490000Y-74523000D03*
X41220000Y-77063000D03*
X39950000Y-74523000D03*
X38680000Y-77063000D03*
X37410000Y-74523000D03*
D15*
X36140000Y-77063000D03*
X34870000Y-74523000D03*
D14*
X46300000Y-72013000D03*
D13*
X43760000Y-70743000D03*
X37410000Y-70743000D03*
D14*
X34870000Y-72013000D03*
D16*
X47210000Y-64123000D03*
X44670000Y-64123000D03*
X36490000Y-64123000D03*
X33950000Y-64123000D03*
D17*
X48450000Y-71233000D03*
X32710000Y-71233000D03*
%TD*%
D12*
%TO.C,H4*%
X22579999Y-134132500D03*
%TD*%
%TO.C,H2*%
X116579999Y-60132499D03*
%TD*%
%TO.C,H5*%
X65580000Y-131132000D03*
%TD*%
D13*
%TO.C,J2*%
X93999000Y-58633000D03*
X96539000Y-58633000D03*
X99079000Y-58633000D03*
X101619000Y-58633000D03*
X104159000Y-58633000D03*
X106699000Y-58633000D03*
%TD*%
D12*
%TO.C,H3*%
X116579999Y-134132500D03*
%TD*%
D10*
%TO.C,J4*%
X76610000Y-134402000D03*
D11*
X76610000Y-131862000D03*
X79150000Y-134402000D03*
X79150000Y-131862000D03*
X81690000Y-134402000D03*
X81690000Y-131862000D03*
X84230000Y-134402000D03*
X84230000Y-131862000D03*
X86770000Y-134402000D03*
X86770000Y-131862000D03*
X89310000Y-134402000D03*
X89310000Y-131862000D03*
X91850000Y-134402000D03*
X91850000Y-131862000D03*
X94390000Y-134402000D03*
X94390000Y-131862000D03*
X96930000Y-134402000D03*
X96930000Y-131862000D03*
X99470000Y-134402000D03*
X99470000Y-131862000D03*
X102010000Y-134402000D03*
X102010000Y-131862000D03*
X104550000Y-134402000D03*
X104550000Y-131862000D03*
%TD*%
M02*
