%TF.GenerationSoftware,KiCad,Pcbnew,10.0.3*%
%TF.CreationDate,2026-07-30T08:02:00-07:00*%
%TF.ProjectId,lumina-carrier,6c756d69-6e61-42d6-9361-72726965722e,rev?*%
%TF.SameCoordinates,Original*%
%TF.FileFunction,Soldermask,Top*%
%TF.FilePolarity,Negative*%
%FSLAX46Y46*%
G04 Gerber Fmt 4.6, Leading zero omitted, Abs format (unit mm)*
G04 Created by KiCad (PCBNEW 10.0.3) date 2026-07-30 08:02:00*
%MOMM*%
%LPD*%
G01*
G04 APERTURE LIST*
G04 Aperture macros list*
%AMRoundRect*
0 Rectangle with rounded corners*
0 $1 Rounding radius*
0 $2 $3 $4 $5 $6 $7 $8 $9 X,Y pos of 4 corners*
0 Add a 4 corners polygon primitive as box body*
4,1,4,$2,$3,$4,$5,$6,$7,$8,$9,$2,$3,0*
0 Add four circle primitives for the rounded corners*
1,1,$1+$1,$2,$3*
1,1,$1+$1,$4,$5*
1,1,$1+$1,$6,$7*
1,1,$1+$1,$8,$9*
0 Add four rect primitives between the rounded corners*
20,1,$1+$1,$2,$3,$4,$5,0*
20,1,$1+$1,$4,$5,$6,$7,0*
20,1,$1+$1,$6,$7,$8,$9,0*
20,1,$1+$1,$8,$9,$2,$3,0*%
G04 Aperture macros list end*
%ADD10R,3.250000X5.400000*%
%ADD11R,1.700000X1.700000*%
%ADD12C,1.700000*%
%ADD13R,0.800000X0.900000*%
%ADD14R,1.133000X1.377000*%
%ADD15R,1.410000X1.350000*%
%ADD16R,0.864000X0.806000*%
%ADD17R,0.800000X0.800000*%
%ADD18R,0.806000X0.864000*%
%ADD19C,3.200000*%
%ADD20R,1.100000X0.600000*%
%ADD21C,1.524000*%
%ADD22C,1.200000*%
%ADD23C,1.300000*%
%ADD24C,1.600000*%
%ADD25O,2.000000X2.600000*%
%ADD26R,3.030000X3.820000*%
%ADD27R,1.400000X1.200000*%
%ADD28R,1.635000X2.700000*%
%ADD29R,0.900000X0.800000*%
%ADD30O,0.270000X1.500000*%
%ADD31O,1.500000X0.270000*%
%ADD32R,1.960000X2.940000*%
%ADD33R,1.000000X1.400000*%
%ADD34R,0.830000X0.630000*%
%ADD35R,2.710000X3.400000*%
%ADD36RoundRect,0.150000X-0.737500X-0.150000X0.737500X-0.150000X0.737500X0.150000X-0.737500X0.150000X0*%
%ADD37RoundRect,0.150000X-0.825000X-0.150000X0.825000X-0.150000X0.825000X0.150000X-0.825000X0.150000X0*%
%ADD38R,2.410000X3.300000*%
%ADD39R,0.840000X1.695000*%
%ADD40R,1.485000X1.728000*%
%ADD41R,1.377000X1.133000*%
%ADD42R,0.900000X1.500000*%
%ADD43R,1.500000X0.900000*%
%ADD44R,0.900000X0.900000*%
%ADD45R,2.960000X2.960000*%
%ADD46RoundRect,0.100000X-0.687500X-0.100000X0.687500X-0.100000X0.687500X0.100000X-0.687500X0.100000X0*%
%ADD47R,1.900000X2.500000*%
%ADD48R,1.860000X1.230000*%
%ADD49R,0.600000X1.100000*%
G04 APERTURE END LIST*
D10*
%TO.C,L20*%
X38000000Y-118800000D03*
X50000000Y-118800000D03*
%TD*%
D11*
%TO.C,J3*%
X34960000Y-134402000D03*
D12*
X34960000Y-131862000D03*
X37500000Y-134402000D03*
X37500000Y-131862000D03*
X40040000Y-134402000D03*
X40040000Y-131862000D03*
X42580000Y-134402000D03*
X42580000Y-131862000D03*
X45120000Y-134402000D03*
X45120000Y-131862000D03*
X47660000Y-134402000D03*
X47660000Y-131862000D03*
X50200000Y-134402000D03*
X50200000Y-131862000D03*
%TD*%
D13*
%TO.C,C60*%
X69950000Y-127750000D03*
X68550000Y-127750000D03*
%TD*%
D14*
%TO.C,R73*%
X62750000Y-79000000D03*
X64750000Y-79000000D03*
%TD*%
D15*
%TO.C,C1*%
X29000000Y-87000000D03*
X31000000Y-87000000D03*
%TD*%
D16*
%TO.C,R104*%
X118000000Y-73250000D03*
X118000000Y-71750000D03*
%TD*%
D17*
%TO.C,D22*%
X109250000Y-70000000D03*
X110750000Y-70000000D03*
%TD*%
D14*
%TO.C,R5*%
X81095700Y-96732600D03*
X83095700Y-96732600D03*
%TD*%
D16*
%TO.C,R68*%
X73250000Y-71250000D03*
X73250000Y-69750000D03*
%TD*%
D15*
%TO.C,C62*%
X38000000Y-93500000D03*
X36000000Y-93500000D03*
%TD*%
D18*
%TO.C,R106*%
X108371100Y-108350500D03*
X106871100Y-108350500D03*
%TD*%
%TO.C,R132*%
X112000000Y-64750000D03*
X113500000Y-64750000D03*
%TD*%
%TO.C,R65*%
X50250000Y-100000000D03*
X51750000Y-100000000D03*
%TD*%
D19*
%TO.C,H1*%
X22579999Y-60132499D03*
%TD*%
D14*
%TO.C,R2*%
X22000000Y-94600000D03*
X24000000Y-94600000D03*
%TD*%
D18*
%TO.C,R136*%
X103250000Y-117000000D03*
X104750000Y-117000000D03*
%TD*%
D13*
%TO.C,C30*%
X89530000Y-65382500D03*
X88130000Y-65382500D03*
%TD*%
D20*
%TO.C,U21*%
X65350000Y-113950000D03*
X65350000Y-113000000D03*
X65350000Y-112050000D03*
X62650000Y-112050000D03*
X62650000Y-113000000D03*
X62650000Y-113950000D03*
%TD*%
D16*
%TO.C,R135*%
X103250000Y-122500000D03*
X103250000Y-121000000D03*
%TD*%
D14*
%TO.C,R1*%
X22000000Y-90800000D03*
X24000000Y-90800000D03*
%TD*%
D19*
%TO.C,J1*%
X46300000Y-68173000D03*
X34870000Y-68173000D03*
D21*
X46300000Y-77063000D03*
D22*
X45030000Y-74523000D03*
D21*
X43760000Y-77063000D03*
X42490000Y-74523000D03*
X41220000Y-77063000D03*
X39950000Y-74523000D03*
X38680000Y-77063000D03*
X37410000Y-74523000D03*
D23*
X36140000Y-77063000D03*
X34870000Y-74523000D03*
D22*
X46300000Y-72013000D03*
D21*
X43760000Y-70743000D03*
X37410000Y-70743000D03*
D22*
X34870000Y-72013000D03*
D24*
X47210000Y-64123000D03*
X44670000Y-64123000D03*
X36490000Y-64123000D03*
X33950000Y-64123000D03*
D25*
X48450000Y-71233000D03*
X32710000Y-71233000D03*
%TD*%
D18*
%TO.C,R101*%
X114850000Y-78600000D03*
X116350000Y-78600000D03*
%TD*%
D19*
%TO.C,H4*%
X22579999Y-134132500D03*
%TD*%
D26*
%TO.C,D23*%
X69940000Y-85250000D03*
X63060000Y-85250000D03*
%TD*%
D18*
%TO.C,R69*%
X43250000Y-102000000D03*
X44750000Y-102000000D03*
%TD*%
%TO.C,R103*%
X99250000Y-120000000D03*
X100750000Y-120000000D03*
%TD*%
D13*
%TO.C,C81*%
X113600000Y-84700000D03*
X115000000Y-84700000D03*
%TD*%
D14*
%TO.C,R70*%
X50000000Y-97000000D03*
X52000000Y-97000000D03*
%TD*%
D27*
%TO.C,Y10*%
X89230000Y-63082500D03*
X91430000Y-63082500D03*
X91430000Y-61182500D03*
X89230000Y-61182500D03*
%TD*%
D13*
%TO.C,C85*%
X89700000Y-81250000D03*
X88300000Y-81250000D03*
%TD*%
D28*
%TO.C,C4*%
X32020000Y-82000000D03*
X28980000Y-82000000D03*
%TD*%
D14*
%TO.C,R62*%
X23750000Y-74250000D03*
X25750000Y-74250000D03*
%TD*%
D26*
%TO.C,D20*%
X46440000Y-108600000D03*
X39560000Y-108600000D03*
%TD*%
D29*
%TO.C,C35*%
X97631000Y-84813000D03*
X97631000Y-86213000D03*
%TD*%
D30*
%TO.C,U10*%
X93675800Y-82931900D03*
X94175800Y-82931900D03*
X94675800Y-82931900D03*
X95175800Y-82931900D03*
X95675800Y-82931900D03*
X96175800Y-82931900D03*
X96675800Y-82931900D03*
X97175800Y-82931900D03*
X97675800Y-82931900D03*
X98175800Y-82931900D03*
X98675800Y-82931900D03*
X99175800Y-82931900D03*
D31*
X100675800Y-81431900D03*
X100675800Y-80931900D03*
X100675800Y-80431900D03*
X100675800Y-79931900D03*
X100675800Y-79431900D03*
X100675800Y-78931900D03*
X100675800Y-78431900D03*
X100675800Y-77931900D03*
X100675800Y-77431900D03*
X100675800Y-76931900D03*
X100675800Y-76431900D03*
X100675800Y-75931900D03*
D30*
X99175800Y-74431900D03*
X98675800Y-74431900D03*
X98175800Y-74431900D03*
X97675800Y-74431900D03*
X97175800Y-74431900D03*
X96675800Y-74431900D03*
X96175800Y-74431900D03*
X95675800Y-74431900D03*
X95175800Y-74431900D03*
X94675800Y-74431900D03*
X94175800Y-74431900D03*
X93675800Y-74431900D03*
D31*
X92175800Y-75931900D03*
X92175800Y-76431900D03*
X92175800Y-76931900D03*
X92175800Y-77431900D03*
X92175800Y-77931900D03*
X92175800Y-78431900D03*
X92175800Y-78931900D03*
X92175800Y-79431900D03*
X92175800Y-79931900D03*
X92175800Y-80431900D03*
X92175800Y-80931900D03*
X92175800Y-81431900D03*
%TD*%
D13*
%TO.C,C58*%
X63300000Y-117500000D03*
X64700000Y-117500000D03*
%TD*%
D18*
%TO.C,R6*%
X69500000Y-91000000D03*
X71000000Y-91000000D03*
%TD*%
D16*
%TO.C,R60*%
X73750000Y-130750000D03*
X73750000Y-129250000D03*
%TD*%
D18*
%TO.C,R134*%
X111000000Y-122750000D03*
X112500000Y-122750000D03*
%TD*%
D14*
%TO.C,R3*%
X35000000Y-102500000D03*
X37000000Y-102500000D03*
%TD*%
D28*
%TO.C,C2*%
X26020000Y-87000000D03*
X22980000Y-87000000D03*
%TD*%
D32*
%TO.C,D1*%
X32380000Y-100600000D03*
X27620000Y-100600000D03*
%TD*%
D18*
%TO.C,R131*%
X99250000Y-110000000D03*
X100750000Y-110000000D03*
%TD*%
D13*
%TO.C,C83*%
X110300000Y-84700000D03*
X111700000Y-84700000D03*
%TD*%
D33*
%TO.C,D21*%
X64950000Y-98500000D03*
X67050000Y-98500000D03*
%TD*%
D34*
%TO.C,D42*%
X114860000Y-109500000D03*
X117140000Y-109500000D03*
%TD*%
D18*
%TO.C,R31*%
X88750000Y-70800000D03*
X90250000Y-70800000D03*
%TD*%
D13*
%TO.C,C54*%
X32300000Y-116000000D03*
X33700000Y-116000000D03*
%TD*%
D15*
%TO.C,C63*%
X50000000Y-94000000D03*
X52000000Y-94000000D03*
%TD*%
D35*
%TO.C,U1*%
X30000000Y-92500000D03*
D36*
X27437500Y-90595000D03*
X27437500Y-91865000D03*
X27437500Y-93135000D03*
X27437500Y-94405000D03*
X32562500Y-94405000D03*
X32562500Y-93135000D03*
X32562500Y-91865000D03*
X32562500Y-90595000D03*
%TD*%
D16*
%TO.C,R34*%
X97750000Y-62500000D03*
X97750000Y-64000000D03*
%TD*%
D37*
%TO.C,U20*%
X30025000Y-108095000D03*
X30025000Y-109365000D03*
X30025000Y-110635000D03*
X30025000Y-111905000D03*
X34975000Y-111905000D03*
X34975000Y-110635000D03*
X34975000Y-109365000D03*
X34975000Y-108095000D03*
D38*
X32500000Y-110000000D03*
%TD*%
D13*
%TO.C,C84*%
X104300000Y-85200000D03*
X105700000Y-85200000D03*
%TD*%
D39*
%TO.C,D2*%
X47000000Y-81680000D03*
X43000000Y-81680000D03*
X43000000Y-87320000D03*
X47000000Y-87320000D03*
%TD*%
D40*
%TO.C,C55*%
X56410000Y-113000000D03*
X59590000Y-113000000D03*
%TD*%
D19*
%TO.C,H2*%
X116579999Y-60132499D03*
%TD*%
D28*
%TO.C,C50*%
X25520000Y-106500000D03*
X22480000Y-106500000D03*
%TD*%
D41*
%TO.C,R30*%
X85750000Y-82250000D03*
X85750000Y-84250000D03*
%TD*%
D29*
%TO.C,C40*%
X98415300Y-72617700D03*
X98415300Y-71217700D03*
%TD*%
D42*
%TO.C,U30*%
X111580000Y-88232000D03*
X110310000Y-88232000D03*
X109040000Y-88232000D03*
X107770000Y-88232000D03*
X106500000Y-88232000D03*
X105230000Y-88232000D03*
X103960000Y-88232000D03*
X102690000Y-88232000D03*
X101420000Y-88232000D03*
X100150000Y-88232000D03*
X98880000Y-88232000D03*
X97610000Y-88232000D03*
X96340000Y-88232000D03*
X95070000Y-88232000D03*
D43*
X93680000Y-90152000D03*
X93680000Y-91422000D03*
X93680000Y-92692000D03*
X93680000Y-93962000D03*
X93680000Y-95232000D03*
X93680000Y-96502000D03*
X93680000Y-97772000D03*
X93680000Y-99042000D03*
X93680000Y-100312000D03*
X93680000Y-101582000D03*
X93680000Y-102852000D03*
X93680000Y-104122000D03*
D42*
X95070000Y-106032000D03*
X96340000Y-106032000D03*
X97610000Y-106032000D03*
X98880000Y-106032000D03*
X100150000Y-106032000D03*
X101420000Y-106032000D03*
X102690000Y-106032000D03*
X103960000Y-106032000D03*
X105230000Y-106032000D03*
X106500000Y-106032000D03*
X107770000Y-106032000D03*
X109040000Y-106032000D03*
X110310000Y-106032000D03*
X111580000Y-106032000D03*
D44*
X105270000Y-94232000D03*
X103870000Y-94232000D03*
X102470000Y-94232000D03*
X105270000Y-95632000D03*
X103870000Y-95632000D03*
X102470000Y-95632000D03*
X105270000Y-97032000D03*
X103870000Y-97032000D03*
X102470000Y-97032000D03*
%TD*%
D18*
%TO.C,R100*%
X110750000Y-78600000D03*
X112250000Y-78600000D03*
%TD*%
D13*
%TO.C,C31*%
X93380000Y-61882500D03*
X94780000Y-61882500D03*
%TD*%
D15*
%TO.C,C61*%
X25500000Y-110000000D03*
X23500000Y-110000000D03*
%TD*%
D13*
%TO.C,C38*%
X102900000Y-81000000D03*
X104300000Y-81000000D03*
%TD*%
D19*
%TO.C,H5*%
X65580000Y-131132000D03*
%TD*%
D40*
%TO.C,C80*%
X113910000Y-81900000D03*
X117090000Y-81900000D03*
%TD*%
D15*
%TO.C,C36*%
X112000000Y-75000000D03*
X114000000Y-75000000D03*
%TD*%
D21*
%TO.C,J2*%
X93999000Y-58633000D03*
X96539000Y-58633000D03*
X99079000Y-58633000D03*
X101619000Y-58633000D03*
X104159000Y-58633000D03*
X106699000Y-58633000D03*
%TD*%
D40*
%TO.C,C52*%
X26410000Y-119500000D03*
X29590000Y-119500000D03*
%TD*%
%TO.C,C3*%
X50410000Y-84000000D03*
X53590000Y-84000000D03*
%TD*%
D41*
%TO.C,R4*%
X79000000Y-95500000D03*
X79000000Y-93500000D03*
%TD*%
D18*
%TO.C,R32*%
X92750000Y-70800000D03*
X94250000Y-70800000D03*
%TD*%
%TO.C,R137*%
X107250000Y-117000000D03*
X108750000Y-117000000D03*
%TD*%
%TO.C,R8*%
X116030000Y-66588800D03*
X117530000Y-66588800D03*
%TD*%
%TO.C,R64*%
X57250000Y-120500000D03*
X58750000Y-120500000D03*
%TD*%
D14*
%TO.C,R66*%
X36000000Y-96500000D03*
X38000000Y-96500000D03*
%TD*%
D34*
%TO.C,D31*%
X102915000Y-60932500D03*
X105195000Y-60932500D03*
%TD*%
D18*
%TO.C,R35*%
X91080000Y-65132500D03*
X92580000Y-65132500D03*
%TD*%
D29*
%TO.C,C34*%
X94436300Y-84746100D03*
X94436300Y-86146100D03*
%TD*%
D34*
%TO.C,D32*%
X118390000Y-64750000D03*
X116110000Y-64750000D03*
%TD*%
D18*
%TO.C,R105*%
X74250000Y-84000000D03*
X75750000Y-84000000D03*
%TD*%
D40*
%TO.C,C57*%
X69910000Y-122000000D03*
X73090000Y-122000000D03*
%TD*%
D34*
%TO.C,D40*%
X88610000Y-105750000D03*
X90890000Y-105750000D03*
%TD*%
%TO.C,D41*%
X90390000Y-79250000D03*
X88110000Y-79250000D03*
%TD*%
D33*
%TO.C,D30*%
X84300000Y-68500000D03*
X82200000Y-68500000D03*
%TD*%
D19*
%TO.C,H3*%
X116579999Y-134132500D03*
%TD*%
D13*
%TO.C,C82*%
X110300000Y-81900000D03*
X111700000Y-81900000D03*
%TD*%
%TO.C,C39*%
X102900000Y-78500000D03*
X104300000Y-78500000D03*
%TD*%
D28*
%TO.C,C6*%
X26020000Y-77000000D03*
X22980000Y-77000000D03*
%TD*%
D29*
%TO.C,C37*%
X100089100Y-84901500D03*
X100089100Y-86301500D03*
%TD*%
D13*
%TO.C,C41*%
X107300000Y-79500000D03*
X108700000Y-79500000D03*
%TD*%
D39*
%TO.C,D3*%
X38200000Y-81680000D03*
X34200000Y-81680000D03*
X34200000Y-87320000D03*
X38200000Y-87320000D03*
%TD*%
D13*
%TO.C,C33*%
X102900000Y-72800000D03*
X104300000Y-72800000D03*
%TD*%
D45*
%TO.C,U22*%
X44000000Y-96000000D03*
D46*
X41137500Y-93075000D03*
X41137500Y-93725000D03*
X41137500Y-94375000D03*
X41137500Y-95025000D03*
X41137500Y-95675000D03*
X41137500Y-96325000D03*
X41137500Y-96975000D03*
X41137500Y-97625000D03*
X41137500Y-98275000D03*
X41137500Y-98925000D03*
X46862500Y-98925000D03*
X46862500Y-98275000D03*
X46862500Y-97625000D03*
X46862500Y-96975000D03*
X46862500Y-96325000D03*
X46862500Y-95675000D03*
X46862500Y-95025000D03*
X46862500Y-94375000D03*
X46862500Y-93725000D03*
X46862500Y-93075000D03*
%TD*%
D28*
%TO.C,C5*%
X26020000Y-82000000D03*
X22980000Y-82000000D03*
%TD*%
D16*
%TO.C,R33*%
X86000000Y-75000000D03*
X86000000Y-76500000D03*
%TD*%
D18*
%TO.C,R71*%
X54250000Y-108000000D03*
X55750000Y-108000000D03*
%TD*%
%TO.C,R74*%
X56750000Y-82000000D03*
X58250000Y-82000000D03*
%TD*%
D47*
%TO.C,L21*%
X73550000Y-113000000D03*
X69450000Y-113000000D03*
%TD*%
D18*
%TO.C,R130*%
X95250000Y-110000000D03*
X96750000Y-110000000D03*
%TD*%
D16*
%TO.C,R61*%
X73750000Y-108500000D03*
X73750000Y-107000000D03*
%TD*%
D18*
%TO.C,R63*%
X57250000Y-117500000D03*
X58750000Y-117500000D03*
%TD*%
D14*
%TO.C,R67*%
X36000000Y-99000000D03*
X38000000Y-99000000D03*
%TD*%
D28*
%TO.C,C51*%
X25520000Y-113500000D03*
X22480000Y-113500000D03*
%TD*%
D48*
%TO.C,SW1*%
X81750000Y-58320000D03*
X81750000Y-62680000D03*
%TD*%
D18*
%TO.C,R102*%
X103500000Y-68250000D03*
X102000000Y-68250000D03*
%TD*%
D16*
%TO.C,R9*%
X64500000Y-91350000D03*
X64500000Y-89850000D03*
%TD*%
D13*
%TO.C,C59*%
X47300000Y-102000000D03*
X48700000Y-102000000D03*
%TD*%
D18*
%TO.C,R72*%
X109250000Y-72500000D03*
X110750000Y-72500000D03*
%TD*%
D49*
%TO.C,D10*%
X81300000Y-86100000D03*
X82250000Y-86100000D03*
X83200000Y-86100000D03*
X83200000Y-83400000D03*
X82250000Y-83400000D03*
X81300000Y-83400000D03*
%TD*%
D15*
%TO.C,C32*%
X102650000Y-76000000D03*
X104650000Y-76000000D03*
%TD*%
D16*
%TO.C,R36*%
X94080000Y-65132500D03*
X94080000Y-63632500D03*
%TD*%
D40*
%TO.C,C53*%
X26410000Y-123500000D03*
X29590000Y-123500000D03*
%TD*%
D18*
%TO.C,R7*%
X91750000Y-86000000D03*
X90250000Y-86000000D03*
%TD*%
D11*
%TO.C,J4*%
X76610000Y-134402000D03*
D12*
X76610000Y-131862000D03*
X79150000Y-134402000D03*
X79150000Y-131862000D03*
X81690000Y-134402000D03*
X81690000Y-131862000D03*
X84230000Y-134402000D03*
X84230000Y-131862000D03*
X86770000Y-134402000D03*
X86770000Y-131862000D03*
X89310000Y-134402000D03*
X89310000Y-131862000D03*
X91850000Y-134402000D03*
X91850000Y-131862000D03*
X94390000Y-134402000D03*
X94390000Y-131862000D03*
X96930000Y-134402000D03*
X96930000Y-131862000D03*
X99470000Y-134402000D03*
X99470000Y-131862000D03*
X102010000Y-134402000D03*
X102010000Y-131862000D03*
X104550000Y-134402000D03*
X104550000Y-131862000D03*
%TD*%
D40*
%TO.C,C56*%
X69910000Y-118500000D03*
X73090000Y-118500000D03*
%TD*%
M02*
