%TF.GenerationSoftware,KiCad,Pcbnew,10.0.3*%
%TF.CreationDate,2026-07-30T08:02:00-07:00*%
%TF.ProjectId,lumina-carrier,6c756d69-6e61-42d6-9361-72726965722e,rev?*%
%TF.SameCoordinates,Original*%
%TF.FileFunction,Copper,L4,Bot*%
%TF.FilePolarity,Positive*%
%FSLAX46Y46*%
G04 Gerber Fmt 4.6, Leading zero omitted, Abs format (unit mm)*
G04 Created by KiCad (PCBNEW 10.0.3) date 2026-07-30 08:02:00*
%MOMM*%
%LPD*%
G01*
G04 APERTURE LIST*
%TA.AperFunction,ComponentPad*%
%ADD10R,1.700000X1.700000*%
%TD*%
%TA.AperFunction,ComponentPad*%
%ADD11C,1.700000*%
%TD*%
%TA.AperFunction,ComponentPad*%
%ADD12C,1.524000*%
%TD*%
%TA.AperFunction,ComponentPad*%
%ADD13C,1.200000*%
%TD*%
%TA.AperFunction,ComponentPad*%
%ADD14C,1.300000*%
%TD*%
%TA.AperFunction,ComponentPad*%
%ADD15C,1.600000*%
%TD*%
%TA.AperFunction,ComponentPad*%
%ADD16O,2.000000X2.600000*%
%TD*%
%TA.AperFunction,HeatsinkPad*%
%ADD17C,0.600000*%
%TD*%
%TA.AperFunction,HeatsinkPad*%
%ADD18R,3.200000X5.800000*%
%TD*%
%TA.AperFunction,ViaPad*%
%ADD19C,0.600000*%
%TD*%
%TA.AperFunction,ViaPad*%
%ADD20C,0.500000*%
%TD*%
%TA.AperFunction,Conductor*%
%ADD21C,0.200000*%
%TD*%
%TA.AperFunction,Conductor*%
%ADD22C,1.100000*%
%TD*%
%TA.AperFunction,Conductor*%
%ADD23C,0.500000*%
%TD*%
%TA.AperFunction,Conductor*%
%ADD24C,0.800000*%
%TD*%
%TA.AperFunction,Conductor*%
%ADD25C,0.300000*%
%TD*%
%TA.AperFunction,Conductor*%
%ADD26C,0.259700*%
%TD*%
%TA.AperFunction,Conductor*%
%ADD27C,0.260000*%
%TD*%
%TA.AperFunction,Conductor*%
%ADD28C,0.110000*%
%TD*%
G04 APERTURE END LIST*
D10*
%TO.P,J3,1*%
%TO.N,+48V_SW*%
X34960000Y-134402000D03*
D11*
%TO.P,J3,2*%
%TO.N,GND*%
X34960000Y-131862000D03*
%TO.P,J3,3*%
%TO.N,+48V_SW*%
X37500000Y-134402000D03*
%TO.P,J3,4*%
%TO.N,GND*%
X37500000Y-131862000D03*
%TO.P,J3,5*%
%TO.N,+48V_SW*%
X40040000Y-134402000D03*
%TO.P,J3,6*%
%TO.N,GND*%
X40040000Y-131862000D03*
%TO.P,J3,7*%
X42580000Y-134402000D03*
%TO.P,J3,8*%
X42580000Y-131862000D03*
%TO.P,J3,9*%
%TO.N,+12V*%
X45120000Y-134402000D03*
%TO.P,J3,10*%
%TO.N,GND*%
X45120000Y-131862000D03*
%TO.P,J3,11*%
%TO.N,+12V*%
X47660000Y-134402000D03*
%TO.P,J3,12*%
%TO.N,+3V3*%
X47660000Y-131862000D03*
%TO.P,J3,13*%
%TO.N,GND*%
X50200000Y-134402000D03*
%TO.P,J3,14*%
%TO.N,+3V3*%
X50200000Y-131862000D03*
%TD*%
D12*
%TO.P,J1,1*%
%TO.N,/ETH_TXP*%
X46300000Y-77063000D03*
D13*
%TO.P,J1,2*%
%TO.N,/ETH_TXN*%
X45030000Y-74523000D03*
D12*
%TO.P,J1,3*%
%TO.N,/ETH_RXP*%
X43760000Y-77063000D03*
%TO.P,J1,4*%
%TO.N,+3V3*%
X42490000Y-74523000D03*
%TO.P,J1,5*%
X41220000Y-77063000D03*
%TO.P,J1,6*%
%TO.N,/ETH_RXN*%
X39950000Y-74523000D03*
%TO.P,J1,7*%
%TO.N,N/C*%
X38680000Y-77063000D03*
%TO.P,J1,8*%
X37410000Y-74523000D03*
D14*
%TO.P,J1,9*%
X36140000Y-77063000D03*
%TO.P,J1,10*%
X34870000Y-74523000D03*
D13*
%TO.P,J1,11*%
%TO.N,/poe/POE_TAP_A1*%
X46300000Y-72013000D03*
D12*
%TO.P,J1,12*%
%TO.N,/poe/POE_TAP_A2*%
X43760000Y-70743000D03*
%TO.P,J1,13*%
%TO.N,/poe/POE_TAP_B1*%
X37410000Y-70743000D03*
D13*
%TO.P,J1,14*%
%TO.N,/poe/POE_TAP_B2*%
X34870000Y-72013000D03*
D15*
%TO.P,J1,15*%
%TO.N,/poe/LED_G_A*%
X47210000Y-64123000D03*
%TO.P,J1,16*%
%TO.N,/ETH_LED_LINK*%
X44670000Y-64123000D03*
%TO.P,J1,17*%
%TO.N,/poe/LED_Y_A*%
X36490000Y-64123000D03*
%TO.P,J1,18*%
%TO.N,/ETH_LED_ACT*%
X33950000Y-64123000D03*
D16*
%TO.P,J1,19*%
%TO.N,/poe/SHIELD*%
X48450000Y-71233000D03*
%TO.P,J1,20*%
X32710000Y-71233000D03*
%TD*%
D12*
%TO.P,J2,1*%
%TO.N,GND*%
X93999000Y-58633000D03*
%TO.P,J2,2*%
%TO.N,+3V3*%
X96539000Y-58633000D03*
%TO.P,J2,3*%
%TO.N,/mcu/TXD0*%
X99079000Y-58633000D03*
%TO.P,J2,4*%
%TO.N,/mcu/RXD0*%
X101619000Y-58633000D03*
%TO.P,J2,5*%
%TO.N,/mcu/EN*%
X104159000Y-58633000D03*
%TO.P,J2,6*%
%TO.N,/mcu/BOOT*%
X106699000Y-58633000D03*
%TD*%
D17*
%TO.P,U22,21*%
%TO.N,GND*%
X42700000Y-93400000D03*
X42700000Y-94700000D03*
X42700000Y-96000000D03*
X42700000Y-97300000D03*
X42700000Y-98600000D03*
X44000000Y-93400000D03*
X44000000Y-94700000D03*
X44000000Y-96000000D03*
D18*
X44000000Y-96000000D03*
D17*
X44000000Y-97300000D03*
X44000000Y-98600000D03*
X45300000Y-93400000D03*
X45300000Y-94700000D03*
X45300000Y-96000000D03*
X45300000Y-97300000D03*
X45300000Y-98600000D03*
%TD*%
D10*
%TO.P,J4,1*%
%TO.N,/PWM0*%
X76610000Y-134402000D03*
D11*
%TO.P,J4,2*%
%TO.N,/PWM1*%
X76610000Y-131862000D03*
%TO.P,J4,3*%
%TO.N,GND*%
X79150000Y-134402000D03*
%TO.P,J4,4*%
X79150000Y-131862000D03*
%TO.P,J4,5*%
%TO.N,/PWM2*%
X81690000Y-134402000D03*
%TO.P,J4,6*%
%TO.N,/PWM3*%
X81690000Y-131862000D03*
%TO.P,J4,7*%
%TO.N,/PWM4*%
X84230000Y-134402000D03*
%TO.P,J4,8*%
%TO.N,/PWM5*%
X84230000Y-131862000D03*
%TO.P,J4,9*%
%TO.N,GND*%
X86770000Y-134402000D03*
%TO.P,J4,10*%
X86770000Y-131862000D03*
%TO.P,J4,11*%
%TO.N,/PWM6*%
X89310000Y-134402000D03*
%TO.P,J4,12*%
%TO.N,/PWM7*%
X89310000Y-131862000D03*
%TO.P,J4,13*%
%TO.N,GND*%
X91850000Y-134402000D03*
%TO.P,J4,14*%
%TO.N,/DSPI_SCK*%
X91850000Y-131862000D03*
%TO.P,J4,15*%
%TO.N,/DSPI_MOSI*%
X94390000Y-134402000D03*
%TO.P,J4,16*%
%TO.N,/DSPI_MISO*%
X94390000Y-131862000D03*
%TO.P,J4,17*%
%TO.N,/DSPI_CSn*%
X96930000Y-134402000D03*
%TO.P,J4,18*%
%TO.N,/I2C_SCL*%
X96930000Y-131862000D03*
%TO.P,J4,19*%
%TO.N,/I2C_SDA*%
X99470000Y-134402000D03*
%TO.P,J4,20*%
%TO.N,/expansion/ADC0_CONN*%
X99470000Y-131862000D03*
%TO.P,J4,21*%
%TO.N,/expansion/ADC1_CONN*%
X102010000Y-134402000D03*
%TO.P,J4,22*%
%TO.N,/expansion/ID_ADC_CONN*%
X102010000Y-131862000D03*
%TO.P,J4,23*%
%TO.N,/ENABLE*%
X104550000Y-134402000D03*
%TO.P,J4,24*%
%TO.N,/FAULT*%
X104550000Y-131862000D03*
%TD*%
D19*
%TO.N,/pwr/SW*%
X35700000Y-112050000D03*
X38300000Y-109850000D03*
%TO.N,+12V*%
X71200000Y-128200000D03*
X54250000Y-110500000D03*
X31750000Y-118000000D03*
X34650000Y-118800000D03*
X73750000Y-130750000D03*
X54250000Y-108000000D03*
%TO.N,GND*%
X52650000Y-97000000D03*
X31680000Y-109560000D03*
X94436000Y-86796000D03*
X22980000Y-77000000D03*
X105270000Y-97032000D03*
X58900000Y-82000000D03*
X112160000Y-85160000D03*
X117740000Y-81900000D03*
X73740000Y-122000000D03*
X32500000Y-110400000D03*
X35605000Y-110797000D03*
X22980000Y-82000000D03*
X109050000Y-104000000D03*
X98415000Y-70568000D03*
X32500000Y-108720000D03*
X81750000Y-63330000D03*
X28980000Y-81180000D03*
X45400000Y-102000000D03*
X52400000Y-100000000D03*
X32500000Y-111240000D03*
X70590000Y-85250000D03*
X33084000Y-94793000D03*
X28980000Y-82000000D03*
X87460000Y-79250000D03*
X22980000Y-77820000D03*
X103870000Y-97032000D03*
X73750000Y-106350000D03*
X91630000Y-81785000D03*
X47090000Y-108600000D03*
X65400000Y-79000000D03*
X22980000Y-82820000D03*
D20*
X96350000Y-80650000D03*
D19*
X22480000Y-114320000D03*
X64500000Y-89200000D03*
X33320000Y-109560000D03*
X60240000Y-113000000D03*
X103870000Y-95632000D03*
X93100000Y-84050000D03*
X49350000Y-102000000D03*
X73740000Y-118500000D03*
X115650000Y-84700000D03*
X106350000Y-85200000D03*
X28980000Y-82820000D03*
X101687900Y-74600000D03*
X95580000Y-61882500D03*
X39995000Y-98144000D03*
X104950000Y-72800000D03*
X33320000Y-111240000D03*
X97631000Y-86863000D03*
X22480000Y-107320000D03*
X22980000Y-87000000D03*
X109350000Y-79500000D03*
X111750000Y-106200000D03*
X104950000Y-78500000D03*
X105270000Y-95632000D03*
X85750000Y-84900000D03*
X105845000Y-60932000D03*
X44650000Y-96650000D03*
X35490000Y-107699000D03*
X92530000Y-63082500D03*
X102470000Y-95632000D03*
X67700000Y-98500000D03*
X102470000Y-97032000D03*
X32500000Y-109560000D03*
X33320000Y-108720000D03*
X22980000Y-81180000D03*
X33320000Y-110400000D03*
X30240000Y-123500000D03*
X31680000Y-108720000D03*
X91875000Y-84050000D03*
X22980000Y-76180000D03*
X22980000Y-87820000D03*
X30240000Y-119500000D03*
X88167500Y-61467200D03*
X117790000Y-109500000D03*
X22980000Y-86180000D03*
X22480000Y-113500000D03*
X22480000Y-106500000D03*
X22850000Y-110000000D03*
X100089000Y-86952000D03*
X52650000Y-94000000D03*
X81550000Y-68500000D03*
X102470000Y-94232000D03*
X104950000Y-81000000D03*
X59400000Y-120500000D03*
X103870000Y-94232000D03*
X114650000Y-75000000D03*
X112350000Y-81900000D03*
X105270000Y-94232000D03*
X111750000Y-88400000D03*
X87650000Y-81250000D03*
X35350000Y-93500000D03*
X105300000Y-76000000D03*
X106221000Y-108350000D03*
X73250000Y-69100000D03*
X91540000Y-105750000D03*
X115460000Y-64750000D03*
X22480000Y-112680000D03*
X71650000Y-91000000D03*
X109050000Y-89950000D03*
X54240000Y-84000000D03*
X87378200Y-65656100D03*
X65882000Y-114324000D03*
X22480000Y-105680000D03*
%TO.N,+3V3*%
X96200000Y-86500000D03*
X102250000Y-81000000D03*
X100089000Y-84251000D03*
X117000000Y-78600000D03*
X95086000Y-84746000D03*
X113260000Y-81900000D03*
X98650000Y-84100000D03*
X111350000Y-75000000D03*
X79000000Y-96150000D03*
X115380000Y-66589000D03*
X97750000Y-61850000D03*
X108600000Y-72500000D03*
X95950000Y-94000000D03*
X69260000Y-118500000D03*
X45800000Y-73450000D03*
X69260000Y-122000000D03*
X113150000Y-122750000D03*
X109650000Y-84700000D03*
X56600000Y-117500000D03*
X69450000Y-113820000D03*
X102250000Y-78500000D03*
X95500000Y-104250000D03*
X106650000Y-79500000D03*
X99038000Y-77212000D03*
X103650000Y-85200000D03*
X96350000Y-85350000D03*
X109650000Y-81900000D03*
X69450000Y-113000000D03*
X97400000Y-110000000D03*
X101400000Y-110000000D03*
D20*
X98500000Y-76600000D03*
D19*
X91750000Y-85350000D03*
X112900000Y-78600000D03*
X96650000Y-109700000D03*
X86000000Y-74350000D03*
X97956000Y-73077000D03*
X69450000Y-112180000D03*
X114150000Y-64750000D03*
X112950000Y-84700000D03*
%TO.N,/pwr/FB48*%
X68550000Y-127750000D03*
X73850000Y-125700000D03*
X73850000Y-128700000D03*
X39450000Y-105700000D03*
X37550000Y-104200000D03*
%TO.N,/pwr/OVP*%
X40575000Y-99800000D03*
X49425000Y-91325000D03*
%TO.N,V48_RAW*%
X36350000Y-96000000D03*
X41150000Y-93481800D03*
X27450000Y-90600000D03*
X25650000Y-95150000D03*
X25600000Y-92500000D03*
X38000000Y-93500000D03*
%TO.N,V48_RTN*%
X44400000Y-87300000D03*
X41100000Y-87300000D03*
%TO.N,/FAULT*%
X112000000Y-65550000D03*
X115750000Y-73250000D03*
X108200000Y-89550000D03*
X60100000Y-117000000D03*
X117850000Y-73250000D03*
X107200000Y-104200000D03*
X96200000Y-135600000D03*
X46850000Y-91300000D03*
X48800000Y-89350000D03*
X112000000Y-67650000D03*
D20*
X46400000Y-96325000D03*
D19*
%TO.N,/mcu/FAULT_M*%
X104750000Y-104700000D03*
X111100000Y-80900000D03*
%TO.N,/poe/T2P_OD*%
X52650000Y-92350000D03*
X50550000Y-91050000D03*
X39900000Y-91750000D03*
X42400000Y-91750000D03*
%TO.N,/IMON*%
X72850000Y-74600000D03*
X55300000Y-90650000D03*
X48450000Y-97450000D03*
X73250000Y-80400000D03*
%TO.N,/mcu/IO3_STRAP*%
X108375000Y-107275000D03*
X94125000Y-90150000D03*
X101050000Y-85275000D03*
X104525000Y-98275000D03*
X105225000Y-86975000D03*
X107200000Y-103300000D03*
X95275000Y-90750000D03*
X98400000Y-89500000D03*
%TO.N,/pwr/ILIM*%
X49000000Y-100475000D03*
X47525000Y-99000000D03*
%TO.N,/poe/DEN_TAP*%
X23600000Y-91200000D03*
X22450000Y-93700000D03*
%TO.N,/poe/DEN*%
X24300000Y-93900000D03*
X25075000Y-91075000D03*
%TO.N,/ADC0*%
X88650000Y-117950000D03*
X90400000Y-80200000D03*
X104600000Y-118950000D03*
X110300000Y-108500000D03*
X90400000Y-121650000D03*
X104100000Y-113200000D03*
X98850000Y-125000000D03*
X95150000Y-126400000D03*
X82200000Y-89800000D03*
X96300000Y-127550000D03*
%TO.N,/eth/XI*%
X95725000Y-72525000D03*
X91830000Y-65932500D03*
%TO.N,/pwr/SW33*%
X67125000Y-113675000D03*
X68000000Y-112850000D03*
%TO.N,/expansion/ID_ADC_CONN*%
X108300000Y-122750000D03*
X104900000Y-122750000D03*
%TO.N,/ID_ADC*%
X100400000Y-116400000D03*
X91750000Y-100550000D03*
X92100000Y-108950000D03*
X95400000Y-112250000D03*
X91750000Y-102650000D03*
X102900000Y-118900000D03*
%TO.N,/ETH_TXP*%
X94150000Y-81850000D03*
X83450000Y-83850000D03*
%TO.N,/ETH_TXN*%
X81300000Y-83400000D03*
X93500000Y-83350000D03*
%TO.N,/ETH_RXP*%
X83200000Y-86050000D03*
X96150000Y-81850000D03*
%TO.N,/ETH_RXN*%
X95700000Y-84050000D03*
X81300000Y-86100000D03*
%TO.N,/poe/POE_TAP_A1*%
X47450000Y-81550000D03*
D20*
X49675000Y-74325000D03*
%TO.N,/poe/POE_TAP_A2*%
X44600000Y-80300000D03*
X49200000Y-73275000D03*
D19*
%TO.N,/poe/POE_TAP_B2*%
X33450000Y-79100000D03*
%TO.N,/ETH_LED_LINK*%
X49050000Y-63500000D03*
X99400000Y-71750000D03*
%TO.N,/poe/LED_Y_A*%
X51800000Y-65750000D03*
X75750000Y-75250000D03*
X74200000Y-74200000D03*
X51800000Y-69000000D03*
%TO.N,/ETH_LED_ACT*%
X95550000Y-76200000D03*
%TO.N,/poe/SHIELD*%
X50300000Y-82550000D03*
%TO.N,/mcu/BOOT*%
X104850000Y-91200000D03*
X102900000Y-58250000D03*
X106050000Y-89950000D03*
X100900000Y-59750000D03*
X113300000Y-77900000D03*
X99900000Y-102400000D03*
%TO.N,/ENABLE*%
X56700000Y-107750000D03*
X91700000Y-120150000D03*
X103050000Y-124300000D03*
X48150000Y-98350000D03*
X43750000Y-101850000D03*
X100900000Y-122150000D03*
X95600000Y-123900000D03*
X82950000Y-116150000D03*
X104900000Y-129900000D03*
%TO.N,/mcu/ENABLE_M*%
X102300000Y-66650000D03*
X100700000Y-119350000D03*
X99000000Y-111500000D03*
X99500000Y-98500000D03*
%TO.N,/mcu/EN*%
X104900000Y-67650000D03*
X89650000Y-80500000D03*
X89650000Y-78000000D03*
%TO.N,/CDB*%
X34725000Y-99900000D03*
X34725000Y-108900000D03*
X26150000Y-74250000D03*
X28650000Y-74250000D03*
X34150000Y-93100000D03*
X42250000Y-84600000D03*
%TO.N,/eth/EXRES*%
X93450000Y-80050000D03*
X85950000Y-82050000D03*
%TO.N,/eth/XO*%
X96175000Y-75475000D03*
X94925000Y-66000000D03*
%TO.N,/ETH_CSn*%
X93000000Y-87150000D03*
X93000000Y-93650000D03*
%TO.N,/eth/SCLK_PHY*%
X92350000Y-72150000D03*
X95125000Y-73350000D03*
%TO.N,/ETH_MISO*%
X94250000Y-75750000D03*
X94950000Y-97150000D03*
%TO.N,/eth/MOSI_PHY*%
X94250000Y-71925000D03*
X94250000Y-73150000D03*
%TO.N,/ETH_INTn*%
X93500000Y-74900000D03*
X94250000Y-98750000D03*
%TO.N,/ETH_RSTn*%
X93675000Y-100000000D03*
X96150000Y-76800000D03*
X95900000Y-66600000D03*
X95450000Y-86975000D03*
%TO.N,/poe/CLS*%
X27475000Y-95650000D03*
X27475000Y-93150000D03*
%TO.N,/I2C_SDA*%
X98600000Y-108950000D03*
X99150000Y-89900000D03*
%TO.N,/pwr/PGOOD*%
X50750000Y-98800000D03*
X48450000Y-96500000D03*
%TO.N,/ETH_SCLK*%
X80450000Y-79100000D03*
X93125000Y-96200000D03*
%TO.N,/poe/APD*%
X39900000Y-90000000D03*
X53650000Y-91350000D03*
%TO.N,/PWM0*%
X96900000Y-101650000D03*
%TO.N,/PWM1*%
X96450000Y-99400000D03*
X84300000Y-124150000D03*
X84300000Y-113100000D03*
%TO.N,/PWM2*%
X105250000Y-89050000D03*
%TO.N,/PWM3*%
X96800000Y-96150000D03*
X81700000Y-115700000D03*
X81700000Y-125900000D03*
%TO.N,/PWM4*%
X98400000Y-93350000D03*
%TO.N,/PWM5*%
X95300000Y-92450000D03*
X86300000Y-99100000D03*
X83500000Y-124100000D03*
X84250000Y-110650000D03*
X91500000Y-93750000D03*
%TO.N,/I2C_SCL*%
X98125000Y-102175000D03*
X96950000Y-124600000D03*
X101100000Y-92600000D03*
X94700000Y-115450000D03*
X102600000Y-86975000D03*
X102175000Y-91275000D03*
X99800000Y-100575000D03*
X97475000Y-107775000D03*
X94700000Y-121900000D03*
%TO.N,/mcu/IMON_M*%
X95400000Y-89950000D03*
X93650000Y-88650000D03*
%TO.N,/ETH_MOSI*%
X92300000Y-71250000D03*
X91025000Y-73475000D03*
X90900000Y-77475000D03*
X91550000Y-72200000D03*
%TO.N,/mcu/STATUS*%
X103450000Y-69400000D03*
X96600000Y-102600000D03*
X94025000Y-105075000D03*
X99300000Y-97275000D03*
%TO.N,/PWM7*%
X96750000Y-114250000D03*
X98250000Y-112750000D03*
X100550000Y-108600000D03*
X100350000Y-112250000D03*
%TO.N,/DSPI_SCK*%
X99400000Y-119000000D03*
X92750000Y-125050000D03*
%TO.N,/DSPI_MOSI*%
X100050000Y-129500000D03*
X102150000Y-117200000D03*
X103050000Y-118100000D03*
%TO.N,/DSPI_MISO*%
X99800000Y-123200000D03*
X103750000Y-115550000D03*
%TO.N,/mcu/RXD0*%
X108600000Y-97800000D03*
X107300000Y-64350000D03*
X108600000Y-90850000D03*
X106250000Y-105800000D03*
%TO.N,/mcu/TXD0*%
X102800000Y-99000000D03*
%TO.N,/expansion/ADC1_CONN*%
X106700000Y-136050000D03*
%TO.N,/pwr/UVLO*%
X36450000Y-98450000D03*
X37550000Y-97350000D03*
%TO.N,/pwr/DVDT*%
X40825000Y-100925000D03*
X42425000Y-102725000D03*
%TD*%
%TO.N,/pwr/SW*%
D21*
X36100000Y-112050000D02*
X38300000Y-109850000D01*
X35700000Y-112050000D02*
X36100000Y-112050000D01*
%TO.N,+12V*%
D22*
X71200000Y-128200000D02*
X73750000Y-130750000D01*
X54250000Y-110500000D02*
X54250000Y-108000000D01*
X33850000Y-118000000D02*
X34650000Y-118800000D01*
X31750000Y-118000000D02*
X33850000Y-118000000D01*
%TO.N,GND*%
D21*
X109050000Y-89950000D02*
X109250000Y-89750000D01*
X107250000Y-108350000D02*
X107850000Y-108950000D01*
X111035714Y-106914286D02*
X111050000Y-106900000D01*
X109950000Y-88400000D02*
X111750000Y-88400000D01*
X107850000Y-108950000D02*
X109000000Y-108950000D01*
X109150000Y-105000000D02*
X109150000Y-104100000D01*
X111050000Y-106900000D02*
X109150000Y-105000000D01*
X109250000Y-89100000D02*
X109950000Y-88400000D01*
X111035714Y-106914286D02*
X111750000Y-106200000D01*
X109250000Y-89750000D02*
X109250000Y-89100000D01*
X106200000Y-108350000D02*
X107250000Y-108350000D01*
X109150000Y-104100000D02*
X109050000Y-104000000D01*
X91875000Y-84050000D02*
X93100000Y-84050000D01*
X109000000Y-108950000D02*
X111035714Y-106914286D01*
%TO.N,+3V3*%
D23*
X42500000Y-75750000D02*
X41200000Y-77050000D01*
X96200000Y-86500000D02*
X96200000Y-89000000D01*
X42500000Y-74500000D02*
X42500000Y-75750000D01*
X96650000Y-93250000D02*
X95950000Y-93950000D01*
X43550000Y-73450000D02*
X45800000Y-73450000D01*
X95500000Y-108650000D02*
X96550000Y-109700000D01*
X96200000Y-89000000D02*
X96650000Y-89450000D01*
X41200000Y-77050000D02*
X41220000Y-77063000D01*
X102250000Y-81000000D02*
X102250000Y-78500000D01*
X42490000Y-74523000D02*
X42500000Y-74500000D01*
X42500000Y-74500000D02*
X43550000Y-73450000D01*
X96550000Y-109700000D02*
X96650000Y-109700000D01*
X95950000Y-93950000D02*
X95950000Y-94000000D01*
X96650000Y-89450000D02*
X96650000Y-93250000D01*
X95500000Y-104250000D02*
X95500000Y-108650000D01*
%TO.N,/pwr/FB48*%
D21*
X73850000Y-125700000D02*
X73850000Y-128700000D01*
X73850000Y-126900000D02*
X69400000Y-126900000D01*
X69400000Y-126900000D02*
X68550000Y-127750000D01*
X37550000Y-104200000D02*
X37950000Y-104200000D01*
X37950000Y-104200000D02*
X39450000Y-105700000D01*
%TO.N,/pwr/OVP*%
X47375000Y-97575000D02*
X47375000Y-93375000D01*
X47375000Y-93375000D02*
X49425000Y-91325000D01*
X45150000Y-99800000D02*
X47375000Y-97575000D01*
X40575000Y-99800000D02*
X45150000Y-99800000D01*
%TO.N,V48_RAW*%
D24*
X37600000Y-94750000D02*
X36350000Y-96000000D01*
X37750000Y-93750000D02*
X37750000Y-94150000D01*
X25650000Y-92400000D02*
X25650000Y-95150000D01*
X37800000Y-94200000D02*
X37800000Y-94700000D01*
X37800000Y-94700000D02*
X37750000Y-94750000D01*
X25650000Y-92500000D02*
X25600000Y-92500000D01*
X37750000Y-94150000D02*
X37800000Y-94200000D01*
X37600000Y-94750000D02*
X37750000Y-93750000D01*
X27450000Y-90600000D02*
X25650000Y-92400000D01*
X37750000Y-93750000D02*
X37809081Y-93690919D01*
D23*
X41150000Y-93500000D02*
X38000000Y-93500000D01*
D24*
X38000000Y-93500000D02*
X37750000Y-93750000D01*
X37750000Y-94750000D02*
X37600000Y-94750000D01*
X41150000Y-93500000D02*
X38000000Y-93500000D01*
X41150000Y-93481818D02*
X41150000Y-93500000D01*
%TO.N,V48_RTN*%
D25*
X41100000Y-87300000D02*
X44400000Y-87300000D01*
%TO.N,/FAULT*%
D21*
X46000000Y-95450000D02*
X46400000Y-95850000D01*
X114550000Y-81900000D02*
X114450000Y-82000000D01*
X115000000Y-81600000D02*
X114900000Y-81700000D01*
X114900000Y-81700000D02*
X114850000Y-81700000D01*
X57350000Y-108000000D02*
X57350000Y-107900000D01*
X115300000Y-81400000D02*
X115200000Y-81500000D01*
X114600000Y-81900000D02*
X114550000Y-81900000D01*
X114300000Y-82100000D02*
X114250000Y-82100000D01*
X55400000Y-89950000D02*
X52850000Y-89950000D01*
X46850000Y-91300000D02*
X46000000Y-92150000D01*
X103700000Y-112050000D02*
X103700000Y-112200000D01*
X104550000Y-108800000D02*
X104550000Y-111200000D01*
X103450000Y-112900000D02*
X103450000Y-113050000D01*
X115650000Y-81200000D02*
X115600000Y-81200000D01*
X104200000Y-131500000D02*
X104550000Y-131850000D01*
X104800000Y-115250000D02*
X104850000Y-115300000D01*
X46000000Y-92150000D02*
X46000000Y-95450000D01*
X100650000Y-132350000D02*
X100050000Y-132950000D01*
X98150000Y-134850000D02*
X97500000Y-135500000D01*
X107200000Y-104200000D02*
X107200000Y-104450000D01*
X113950000Y-82400000D02*
X113900000Y-82400000D01*
X46400000Y-95850000D02*
X46400000Y-96300000D01*
X108950000Y-122450000D02*
X108950000Y-122600000D01*
X57300000Y-108100000D02*
X57300000Y-108050000D01*
X99950000Y-132950000D02*
X99900000Y-133000000D01*
X97150000Y-135600000D02*
X96200000Y-135600000D01*
X115050000Y-81600000D02*
X115000000Y-81600000D01*
X103400000Y-113650000D02*
X104800000Y-115050000D01*
X100050000Y-132950000D02*
X99950000Y-132950000D01*
X97500000Y-135500000D02*
X97350000Y-135500000D01*
X115600000Y-81200000D02*
X115500000Y-81300000D01*
X60100000Y-117000000D02*
X56550000Y-113450000D01*
X115200000Y-81500000D02*
X115150000Y-81500000D01*
X113900000Y-82400000D02*
X108150000Y-88150000D01*
X104600000Y-129300000D02*
X104550000Y-129300000D01*
X99150000Y-133050000D02*
X98150000Y-134050000D01*
X107200000Y-129200000D02*
X104700000Y-129200000D01*
X108200000Y-88500000D02*
X108200000Y-89550000D01*
X99800000Y-133000000D02*
X99750000Y-133050000D01*
X109000000Y-122650000D02*
X109000000Y-127400000D01*
X114850000Y-81700000D02*
X114750000Y-81800000D01*
X104700000Y-129200000D02*
X104600000Y-129300000D01*
X108950000Y-122600000D02*
X109000000Y-122650000D01*
X114400000Y-82000000D02*
X114300000Y-82100000D01*
X103650000Y-112700000D02*
X103450000Y-112900000D01*
X104550000Y-111200000D02*
X103700000Y-112050000D01*
X103450000Y-113050000D02*
X103400000Y-113100000D01*
X115450000Y-81300000D02*
X115350000Y-81400000D01*
X99750000Y-133050000D02*
X99150000Y-133050000D01*
X104850000Y-115300000D02*
X104850000Y-118350000D01*
X98150000Y-134050000D02*
X98150000Y-134850000D01*
X55600000Y-90000000D02*
X55450000Y-90000000D01*
X104250000Y-129750000D02*
X104200000Y-129800000D01*
X108150000Y-88450000D02*
X108200000Y-88500000D01*
X107250000Y-104500000D02*
X107250000Y-106100000D01*
X100650000Y-131550000D02*
X100650000Y-132350000D01*
X115500000Y-81300000D02*
X115450000Y-81300000D01*
X115750000Y-81100000D02*
X115650000Y-81200000D01*
X103450000Y-128800000D02*
X103400000Y-128800000D01*
X97300000Y-135550000D02*
X97200000Y-135550000D01*
X114250000Y-82100000D02*
X113950000Y-82400000D01*
X114700000Y-81800000D02*
X114600000Y-81900000D01*
X103700000Y-112200000D02*
X103650000Y-112250000D01*
X97350000Y-135500000D02*
X97300000Y-135550000D01*
X108150000Y-88150000D02*
X108150000Y-88450000D01*
X97200000Y-135550000D02*
X97150000Y-135600000D01*
X104850000Y-118350000D02*
X108950000Y-122450000D01*
X114450000Y-82000000D02*
X114400000Y-82000000D01*
X117850000Y-73250000D02*
X115750000Y-73250000D01*
X52250000Y-89350000D02*
X48800000Y-89350000D01*
X104550000Y-129300000D02*
X104250000Y-129600000D01*
X56550000Y-113450000D02*
X56550000Y-108850000D01*
X52850000Y-89950000D02*
X52250000Y-89350000D01*
X115150000Y-81500000D02*
X115050000Y-81600000D01*
X56550000Y-108850000D02*
X57300000Y-108100000D01*
X57350000Y-107900000D02*
X57400000Y-107850000D01*
X104250000Y-129600000D02*
X104250000Y-129750000D01*
X103400000Y-113100000D02*
X103400000Y-113650000D01*
X57400000Y-107850000D02*
X57400000Y-91800000D01*
X114750000Y-81800000D02*
X114700000Y-81800000D01*
X104800000Y-115050000D02*
X104800000Y-115250000D01*
X57300000Y-108050000D02*
X57350000Y-108000000D01*
X109000000Y-127400000D02*
X107200000Y-129200000D01*
X99900000Y-133000000D02*
X99800000Y-133000000D01*
X57400000Y-91800000D02*
X55600000Y-90000000D01*
X103400000Y-128800000D02*
X100650000Y-131550000D01*
X55450000Y-90000000D02*
X55400000Y-89950000D01*
X103650000Y-112250000D02*
X103650000Y-112700000D01*
X107250000Y-106100000D02*
X104550000Y-108800000D01*
X115750000Y-73250000D02*
X115750000Y-81100000D01*
X104200000Y-129800000D02*
X104200000Y-131500000D01*
X112000000Y-67650000D02*
X112000000Y-65550000D01*
X104250000Y-129600000D02*
X103450000Y-128800000D01*
X115350000Y-81400000D02*
X115300000Y-81400000D01*
%TO.N,/mcu/FAULT_M*%
X111100000Y-82150000D02*
X111100000Y-80900000D01*
X106700000Y-90400000D02*
X106700000Y-89600000D01*
X104750000Y-104700000D02*
X104750000Y-100800000D01*
X106500000Y-89400000D02*
X106500000Y-86750000D01*
X106700000Y-89600000D02*
X106500000Y-89400000D01*
X109250000Y-92950000D02*
X106700000Y-90400000D01*
X104750000Y-100800000D02*
X109250000Y-96300000D01*
X106500000Y-86750000D02*
X111100000Y-82150000D01*
X109250000Y-96300000D02*
X109250000Y-92950000D01*
%TO.N,/poe/T2P_OD*%
X39900000Y-91750000D02*
X42400000Y-91750000D01*
X50550000Y-91050000D02*
X51350000Y-91050000D01*
X51350000Y-91050000D02*
X52650000Y-92350000D01*
%TO.N,/IMON*%
X73100000Y-79850000D02*
X73100000Y-79750000D01*
X53750000Y-93500000D02*
X53750000Y-93550000D01*
X51050000Y-99450000D02*
X50900000Y-99450000D01*
X54550000Y-92250000D02*
X54550000Y-92350000D01*
X72950000Y-75950000D02*
X72900000Y-75900000D01*
X54350000Y-92700000D02*
X54250000Y-92800000D01*
X50900000Y-99450000D02*
X50850000Y-99500000D01*
X53750000Y-93550000D02*
X53650000Y-93650000D01*
X55200000Y-91500000D02*
X55000000Y-91700000D01*
X55200000Y-91450000D02*
X55200000Y-91500000D01*
X55300000Y-90650000D02*
X55300000Y-91350000D01*
X54250000Y-92800000D02*
X54250000Y-92950000D01*
X73100000Y-79750000D02*
X73050000Y-79700000D01*
X53850000Y-93350000D02*
X53850000Y-93400000D01*
X49750000Y-98750000D02*
X48450000Y-97450000D01*
X50150000Y-99250000D02*
X50000000Y-99100000D01*
X50850000Y-99500000D02*
X50350000Y-99500000D01*
X55000000Y-91700000D02*
X55000000Y-91750000D01*
X52850000Y-97650000D02*
X51050000Y-99450000D01*
X73050000Y-79700000D02*
X73050000Y-79600000D01*
X73250000Y-80300000D02*
X73200000Y-80250000D01*
X73000000Y-76150000D02*
X72950000Y-76100000D01*
X73150000Y-79900000D02*
X73100000Y-79850000D01*
X49750000Y-98800000D02*
X49750000Y-98750000D01*
X54250000Y-92950000D02*
X53850000Y-93350000D01*
X53850000Y-93400000D02*
X53750000Y-93500000D01*
X50350000Y-99500000D02*
X50150000Y-99300000D01*
X72900000Y-75900000D02*
X72900000Y-74650000D01*
X54550000Y-92350000D02*
X54350000Y-92550000D01*
X53650000Y-96950000D02*
X52950000Y-97650000D01*
X55000000Y-91750000D02*
X54800000Y-91950000D01*
X50000000Y-99050000D02*
X49750000Y-98800000D01*
X50150000Y-99300000D02*
X50150000Y-99250000D01*
X73000000Y-79550000D02*
X73000000Y-76150000D01*
X55300000Y-91350000D02*
X55200000Y-91450000D01*
X73200000Y-80250000D02*
X73200000Y-80050000D01*
X73150000Y-80000000D02*
X73150000Y-79900000D01*
X54800000Y-91950000D02*
X54800000Y-92000000D01*
X73200000Y-80050000D02*
X73150000Y-80000000D01*
X52950000Y-97650000D02*
X52850000Y-97650000D01*
X50000000Y-99100000D02*
X50000000Y-99050000D01*
X54800000Y-92000000D02*
X54550000Y-92250000D01*
X72950000Y-76100000D02*
X72950000Y-75950000D01*
X54350000Y-92550000D02*
X54350000Y-92700000D01*
X53650000Y-93650000D02*
X53650000Y-96950000D01*
X73050000Y-79600000D02*
X73000000Y-79550000D01*
%TO.N,/mcu/IO3_STRAP*%
X104375000Y-93825000D02*
X104375000Y-93800000D01*
X98750000Y-87575000D02*
X98725000Y-87600000D01*
X104200000Y-90550000D02*
X104600000Y-90150000D01*
X100025000Y-86300000D02*
X98800000Y-86300000D01*
X107775000Y-104525000D02*
X107775000Y-104475000D01*
X104525000Y-98275000D02*
X104525000Y-94100000D01*
X107825000Y-104100000D02*
X107825000Y-104025000D01*
X104475000Y-93950000D02*
X104450000Y-93925000D01*
X108375000Y-107275000D02*
X107550000Y-106450000D01*
X104475000Y-94000000D02*
X104475000Y-93950000D01*
X98725000Y-87625000D02*
X98700000Y-87650000D01*
X94675000Y-90150000D02*
X94125000Y-90150000D01*
X107850000Y-104125000D02*
X107825000Y-104100000D01*
X104600000Y-87600000D02*
X105225000Y-86975000D01*
X98700000Y-87675000D02*
X98400000Y-87975000D01*
X95275000Y-90750000D02*
X94675000Y-90150000D01*
X107800000Y-104400000D02*
X107850000Y-104350000D01*
X104450000Y-93925000D02*
X104450000Y-93900000D01*
X101050000Y-85275000D02*
X100025000Y-86300000D01*
X107550000Y-106450000D02*
X107550000Y-106375000D01*
X107850000Y-104350000D02*
X107850000Y-104125000D01*
X107825000Y-104025000D02*
X107800000Y-104000000D01*
X107550000Y-106375000D02*
X107625000Y-106300000D01*
X107775000Y-103925000D02*
X107775000Y-103900000D01*
X104525000Y-94100000D02*
X104500000Y-94075000D01*
X104600000Y-90150000D02*
X104600000Y-87600000D01*
X107625000Y-106250000D02*
X107650000Y-106225000D01*
X107800000Y-103950000D02*
X107775000Y-103925000D01*
X98400000Y-87975000D02*
X98400000Y-89500000D01*
X107750000Y-103875000D02*
X107750000Y-103850000D01*
X98700000Y-87650000D02*
X98700000Y-87675000D01*
X104450000Y-93900000D02*
X104375000Y-93825000D01*
X107625000Y-106300000D02*
X107625000Y-106250000D01*
X107800000Y-104450000D02*
X107800000Y-104400000D01*
X107650000Y-106225000D02*
X107650000Y-104650000D01*
X107800000Y-104000000D02*
X107800000Y-103950000D01*
X107750000Y-103850000D02*
X107200000Y-103300000D01*
X104375000Y-93800000D02*
X104200000Y-93625000D01*
X104500000Y-94075000D02*
X104500000Y-94025000D01*
X104500000Y-94025000D02*
X104475000Y-94000000D01*
X107775000Y-104475000D02*
X107800000Y-104450000D01*
X107775000Y-103900000D02*
X107750000Y-103875000D01*
X107650000Y-104650000D02*
X107775000Y-104525000D01*
X98800000Y-86300000D02*
X98750000Y-86350000D01*
X98750000Y-86350000D02*
X98750000Y-87575000D01*
X104200000Y-93625000D02*
X104200000Y-90550000D01*
X98725000Y-87600000D02*
X98725000Y-87625000D01*
%TO.N,/pwr/ILIM*%
X49000000Y-100475000D02*
X47525000Y-99000000D01*
%TO.N,/poe/DEN_TAP*%
X22450000Y-93700000D02*
X22450000Y-92350000D01*
X22450000Y-92350000D02*
X23600000Y-91200000D01*
%TO.N,/poe/DEN*%
X24450000Y-91700000D02*
X25075000Y-91075000D01*
X24300000Y-93900000D02*
X24450000Y-93750000D01*
X24450000Y-93750000D02*
X24450000Y-91700000D01*
%TO.N,/ADC0*%
X89800000Y-81150000D02*
X89900000Y-81150000D01*
X89850000Y-120700000D02*
X89850000Y-120550000D01*
X88950000Y-80550000D02*
X88950000Y-80750000D01*
X89450000Y-119150000D02*
X89350000Y-119050000D01*
X80150000Y-78450000D02*
X80300000Y-78450000D01*
X82200000Y-89800000D02*
X79350000Y-86950000D01*
X104100000Y-113200000D02*
X104100000Y-112250000D01*
X89450000Y-119250000D02*
X89450000Y-119150000D01*
X90400000Y-121550000D02*
X90350000Y-121500000D01*
X80350000Y-78400000D02*
X88050000Y-78400000D01*
X104400000Y-119150000D02*
X104400000Y-122300000D01*
X110050000Y-108500000D02*
X110300000Y-108500000D01*
X90400000Y-80700000D02*
X90400000Y-80200000D01*
X90250000Y-121250000D02*
X90250000Y-121100000D01*
X88950000Y-80750000D02*
X89400000Y-81200000D01*
X89550000Y-119550000D02*
X89550000Y-119450000D01*
X80300000Y-78450000D02*
X80350000Y-78400000D01*
X107900000Y-109450000D02*
X108750000Y-109450000D01*
X108750000Y-109450000D02*
X108850000Y-109350000D01*
X89700000Y-119950000D02*
X89650000Y-119900000D01*
X107450000Y-109900000D02*
X107900000Y-109450000D01*
X104600000Y-118950000D02*
X104400000Y-119150000D01*
X109200000Y-109350000D02*
X110050000Y-108500000D01*
X89750000Y-120250000D02*
X89750000Y-120100000D01*
X89500000Y-119400000D02*
X89500000Y-119300000D01*
X90350000Y-121350000D02*
X90250000Y-121250000D01*
X89850000Y-120550000D02*
X89800000Y-120500000D01*
X89650000Y-119900000D02*
X89650000Y-119750000D01*
X88150000Y-78500000D02*
X88150000Y-79750000D01*
X89500000Y-119300000D02*
X89450000Y-119250000D01*
X89600000Y-119600000D02*
X89550000Y-119550000D01*
X88150000Y-79750000D02*
X88950000Y-80550000D01*
X106300000Y-110050000D02*
X107250000Y-110050000D01*
X96300000Y-127550000D02*
X95150000Y-126400000D01*
X79350000Y-79250000D02*
X80150000Y-78450000D01*
X107400000Y-109900000D02*
X107450000Y-109900000D01*
X89150000Y-118450000D02*
X88650000Y-117950000D01*
X89150000Y-118550000D02*
X89150000Y-118450000D01*
X89350000Y-118900000D02*
X89250000Y-118800000D01*
X108850000Y-109350000D02*
X109200000Y-109350000D01*
X89400000Y-81200000D02*
X89750000Y-81200000D01*
X79350000Y-86950000D02*
X79350000Y-79250000D01*
X89800000Y-120300000D02*
X89750000Y-120250000D01*
X89750000Y-120100000D02*
X89700000Y-120050000D01*
X89750000Y-81200000D02*
X89800000Y-81150000D01*
X104100000Y-112250000D02*
X106300000Y-110050000D01*
X104200000Y-122500000D02*
X104200000Y-124100000D01*
X89250000Y-118650000D02*
X89150000Y-118550000D01*
X89550000Y-119450000D02*
X89500000Y-119400000D01*
X89600000Y-119700000D02*
X89600000Y-119600000D01*
X88050000Y-78400000D02*
X88150000Y-78500000D01*
X89800000Y-120500000D02*
X89800000Y-120300000D01*
X89900000Y-81150000D02*
X89950000Y-81100000D01*
X89700000Y-120050000D02*
X89700000Y-119950000D01*
X104400000Y-122300000D02*
X104200000Y-122500000D01*
X104200000Y-124100000D02*
X103300000Y-125000000D01*
X89950000Y-81100000D02*
X90000000Y-81100000D01*
X103300000Y-125000000D02*
X98850000Y-125000000D01*
X90250000Y-121100000D02*
X89850000Y-120700000D01*
X89250000Y-118800000D02*
X89250000Y-118650000D01*
X107250000Y-110050000D02*
X107400000Y-109900000D01*
X89650000Y-119750000D02*
X89600000Y-119700000D01*
X90000000Y-81100000D02*
X90400000Y-80700000D01*
X89350000Y-119050000D02*
X89350000Y-118900000D01*
%TO.N,/eth/XI*%
X95725000Y-72525000D02*
X94800000Y-71600000D01*
X94800000Y-71600000D02*
X94800000Y-71575000D01*
X94800000Y-71575000D02*
X93075000Y-69850000D01*
X91830000Y-68605500D02*
X91830000Y-65932500D01*
X93075000Y-69850500D02*
X91830000Y-68605500D01*
%TO.N,/pwr/SW33*%
X67175000Y-113675000D02*
X68000000Y-112850000D01*
%TO.N,/expansion/ID_ADC_CONN*%
X104900000Y-122750000D02*
X108300000Y-122750000D01*
%TO.N,/ID_ADC*%
X102900000Y-118900000D02*
X100400000Y-116400000D01*
X95400000Y-112250000D02*
X92100000Y-108950000D01*
X91750000Y-102650000D02*
X91750000Y-100550000D01*
%TO.N,/ETH_TXP*%
D26*
X81350000Y-82750000D02*
X81550000Y-82750000D01*
X83002639Y-82714950D02*
X82552639Y-83164950D01*
X81650000Y-82850000D02*
X81700000Y-82850000D01*
X82000000Y-83150000D02*
X82250000Y-83150000D01*
X82552639Y-83164950D02*
X82250000Y-83164950D01*
X80950000Y-82850000D02*
X81050000Y-82750000D01*
X81250000Y-82750000D02*
X81300000Y-82700000D01*
X80600000Y-83150000D02*
X80900000Y-82850000D01*
X81700000Y-82850000D02*
X82000000Y-83150000D01*
X83000000Y-84150000D02*
X81100000Y-84150000D01*
X80600000Y-83650000D02*
X80600000Y-83150000D01*
X81550000Y-82750000D02*
X81650000Y-82850000D01*
X83300000Y-83850000D02*
X83000000Y-84150000D01*
X82250000Y-83150000D02*
X82250000Y-83164950D01*
X81050000Y-82750000D02*
X81250000Y-82750000D01*
X93950000Y-82714950D02*
X83002639Y-82714950D01*
X93950000Y-82700000D02*
X93950000Y-82714950D01*
X94150000Y-81850000D02*
X93950000Y-82050000D01*
X81100000Y-84150000D02*
X80600000Y-83650000D01*
X81300000Y-82700000D02*
X81350000Y-82750000D01*
X93950000Y-82050000D02*
X93950000Y-82700000D01*
X80900000Y-82850000D02*
X80950000Y-82850000D01*
%TO.N,/ETH_TXN*%
X84514300Y-83997900D02*
X85028600Y-83185100D01*
X84000000Y-83185100D02*
X84514300Y-83997900D01*
X89142900Y-83185100D02*
X89657100Y-83997900D01*
X81300000Y-83400000D02*
X81550000Y-83650000D01*
X86571400Y-83997900D02*
X87085700Y-83185100D01*
X85542900Y-83997900D02*
X86057100Y-83185100D01*
X85028600Y-83185100D02*
X85542900Y-83997900D01*
X88628600Y-83997900D02*
X89142900Y-83185100D01*
X89657100Y-83997900D02*
X90171400Y-83185100D01*
X83197361Y-83185050D02*
X82747361Y-83635050D01*
X90171400Y-83185100D02*
X90685700Y-83997900D01*
X82250000Y-83650000D02*
X82250000Y-83635050D01*
D27*
X93950000Y-83185100D02*
X93800000Y-83350000D01*
D26*
X83197361Y-83185050D02*
X84000000Y-83185050D01*
X81550000Y-83650000D02*
X82250000Y-83650000D01*
X87085700Y-83185100D02*
X87600000Y-83997900D01*
X86057100Y-83185100D02*
X86571400Y-83997900D01*
X82747361Y-83635050D02*
X82250000Y-83635050D01*
X93500000Y-83350000D02*
X93800000Y-83350000D01*
X91200000Y-83185050D02*
X93950000Y-83185050D01*
X87600000Y-83997900D02*
X88114300Y-83185100D01*
X88114300Y-83185100D02*
X88628600Y-83997900D01*
X90685700Y-83997900D02*
X91200000Y-83185100D01*
%TO.N,/ETH_RXP*%
D27*
X96150000Y-81850000D02*
X96050000Y-81950000D01*
D26*
X83335050Y-87102639D02*
X83335050Y-86452639D01*
X83997361Y-87764950D02*
X83335050Y-87102639D01*
X83200000Y-86050000D02*
X83000000Y-85850000D01*
X95950000Y-82714950D02*
X95502639Y-82714950D01*
X90452639Y-87764950D02*
X83997361Y-87764950D01*
X96050000Y-82600000D02*
X95950000Y-82700000D01*
X96050000Y-81950000D02*
X96050000Y-82600000D01*
D27*
X82747400Y-85864900D02*
X83000000Y-85850000D01*
D26*
X95502639Y-82714950D02*
X90452639Y-87764950D01*
X83335050Y-86452639D02*
X82747361Y-85864950D01*
X95950000Y-82700000D02*
X95950000Y-82714950D01*
%TO.N,/ETH_RXN*%
X81300000Y-86100000D02*
X81550000Y-86350000D01*
X95950000Y-83185050D02*
X95697361Y-83185050D01*
X82552639Y-86335050D02*
X82250000Y-86335050D01*
X83802639Y-88235050D02*
X82864950Y-87297361D01*
X82250000Y-86350000D02*
X82250000Y-86335050D01*
X81550000Y-86350000D02*
X82250000Y-86350000D01*
X95950000Y-83200000D02*
X95950000Y-83185050D01*
X95700000Y-84050000D02*
X95950000Y-83800000D01*
X95697361Y-83185050D02*
X90647361Y-88235050D01*
X90647361Y-88235050D02*
X83802639Y-88235050D01*
X82864950Y-87297361D02*
X82864950Y-86647361D01*
X95950000Y-83800000D02*
X95950000Y-83200000D01*
X82864950Y-86647361D02*
X82552639Y-86335050D01*
%TO.N,/poe/POE_TAP_A1*%
D21*
X49675000Y-74325000D02*
X49650000Y-80850000D01*
X49650000Y-80850000D02*
X47450000Y-81550000D01*
%TO.N,/poe/POE_TAP_A2*%
X49200000Y-73275000D02*
X48600000Y-74000000D01*
X48600000Y-80000000D02*
X48300000Y-80300000D01*
X48600000Y-74000000D02*
X48600000Y-80000000D01*
X48300000Y-80300000D02*
X44600000Y-80300000D01*
%TO.N,/poe/POE_TAP_B2*%
X33450000Y-73900000D02*
X33450000Y-79100000D01*
X34850000Y-72000000D02*
X34850000Y-72500000D01*
X34850000Y-72500000D02*
X33450000Y-73900000D01*
%TO.N,/ETH_LED_LINK*%
X97400000Y-68050000D02*
X97250000Y-67900000D01*
X96500000Y-65950000D02*
X96400000Y-65850000D01*
X96400000Y-65850000D02*
X96400000Y-65700000D01*
X96700000Y-66950000D02*
X96700000Y-66800000D01*
X97250000Y-67800000D02*
X97150000Y-67700000D01*
X97650000Y-68600000D02*
X97650000Y-68550000D01*
X97750000Y-68900000D02*
X97750000Y-68700000D01*
X99100000Y-70300000D02*
X99000000Y-70200000D01*
X97650000Y-68550000D02*
X97500000Y-68400000D01*
X96600000Y-66700000D02*
X96600000Y-66600000D01*
X94800000Y-64100000D02*
X73600000Y-64100000D01*
X73600000Y-64100000D02*
X73200000Y-63700000D01*
X97400000Y-68150000D02*
X97400000Y-68050000D01*
X96950000Y-67400000D02*
X96950000Y-67250000D01*
X99400000Y-71750000D02*
X99100000Y-71450000D01*
X73200000Y-63700000D02*
X49250000Y-63700000D01*
X96850000Y-67150000D02*
X96850000Y-67100000D01*
X99100000Y-71450000D02*
X99100000Y-70300000D01*
X96700000Y-66800000D02*
X96600000Y-66700000D01*
X96950000Y-67250000D02*
X96850000Y-67150000D01*
X96500000Y-66500000D02*
X96500000Y-65950000D01*
X97250000Y-67900000D02*
X97250000Y-67800000D01*
X99000000Y-70150000D02*
X97750000Y-68900000D01*
X96600000Y-66600000D02*
X96500000Y-66500000D01*
X99000000Y-70200000D02*
X99000000Y-70150000D01*
X49250000Y-63700000D02*
X49050000Y-63500000D01*
X96400000Y-65700000D02*
X94800000Y-64100000D01*
X97500000Y-68250000D02*
X97400000Y-68150000D01*
X96850000Y-67100000D02*
X96700000Y-66950000D01*
X97500000Y-68400000D02*
X97500000Y-68250000D01*
X97150000Y-67600000D02*
X96950000Y-67400000D01*
X97150000Y-67700000D02*
X97150000Y-67600000D01*
X97750000Y-68700000D02*
X97650000Y-68600000D01*
%TO.N,/poe/LED_Y_A*%
X74300000Y-74300000D02*
X74800000Y-74300000D01*
X51800000Y-65750000D02*
X51800000Y-69000000D01*
X74800000Y-74300000D02*
X75750000Y-75250000D01*
%TO.N,/ETH_LED_ACT*%
X72250000Y-68450000D02*
X72100000Y-68450000D01*
X71700000Y-68550000D02*
X71600000Y-68650000D01*
X70400000Y-68900000D02*
X70350000Y-68950000D01*
X47700000Y-65200000D02*
X47550000Y-65200000D01*
X70150000Y-69000000D02*
X68000000Y-69000000D01*
X81750000Y-69950000D02*
X81700000Y-70000000D01*
X68000000Y-69000000D02*
X63750000Y-64750000D01*
X87000000Y-72850000D02*
X83800000Y-69650000D01*
X47550000Y-65200000D02*
X47500000Y-65250000D01*
X82600000Y-69850000D02*
X82350000Y-69850000D01*
X82950000Y-69750000D02*
X82900000Y-69800000D01*
X71900000Y-68500000D02*
X71850000Y-68550000D01*
X83500000Y-69700000D02*
X83250000Y-69700000D01*
X95550000Y-76200000D02*
X94900000Y-75550000D01*
X82350000Y-69850000D02*
X82300000Y-69900000D01*
X83800000Y-69650000D02*
X83550000Y-69650000D01*
X81700000Y-70000000D02*
X79750000Y-70000000D01*
X83550000Y-69650000D02*
X83500000Y-69700000D01*
X48000000Y-65050000D02*
X47850000Y-65050000D01*
X47850000Y-65050000D02*
X47700000Y-65200000D01*
X79750000Y-70000000D02*
X78150000Y-68400000D01*
X83200000Y-69750000D02*
X82950000Y-69750000D01*
X70750000Y-68800000D02*
X70650000Y-68900000D01*
X71300000Y-68700000D02*
X71150000Y-68700000D01*
X70200000Y-68950000D02*
X70150000Y-69000000D01*
X71850000Y-68550000D02*
X71700000Y-68550000D01*
X82300000Y-69900000D02*
X82050000Y-69900000D01*
X47500000Y-65250000D02*
X35100000Y-65250000D01*
X83250000Y-69700000D02*
X83200000Y-69750000D01*
X72100000Y-68450000D02*
X72050000Y-68500000D01*
X35100000Y-65250000D02*
X33950000Y-64100000D01*
X71150000Y-68700000D02*
X71100000Y-68750000D01*
X70950000Y-68750000D02*
X70900000Y-68800000D01*
X71100000Y-68750000D02*
X70950000Y-68750000D01*
X63750000Y-64750000D02*
X59500000Y-64750000D01*
X55350000Y-64850000D02*
X51350000Y-64850000D01*
X70350000Y-68950000D02*
X70200000Y-68950000D01*
X59450000Y-64800000D02*
X55400000Y-64800000D01*
X82050000Y-69900000D02*
X82000000Y-69950000D01*
X71600000Y-68650000D02*
X71350000Y-68650000D01*
X94900000Y-75300000D02*
X92450000Y-72850000D01*
X59500000Y-64750000D02*
X59450000Y-64800000D01*
X51300000Y-64900000D02*
X48150000Y-64900000D01*
X82650000Y-69800000D02*
X82600000Y-69850000D01*
X72300000Y-68400000D02*
X72250000Y-68450000D01*
X55400000Y-64800000D02*
X55350000Y-64850000D01*
X70900000Y-68800000D02*
X70750000Y-68800000D01*
X70650000Y-68900000D02*
X70400000Y-68900000D01*
X72050000Y-68500000D02*
X71900000Y-68500000D01*
X82900000Y-69800000D02*
X82650000Y-69800000D01*
X51350000Y-64850000D02*
X51300000Y-64900000D01*
X78150000Y-68400000D02*
X72300000Y-68400000D01*
X71350000Y-68650000D02*
X71300000Y-68700000D01*
X92450000Y-72850000D02*
X87000000Y-72850000D01*
X82000000Y-69950000D02*
X81750000Y-69950000D01*
X48150000Y-64900000D02*
X48000000Y-65050000D01*
X94900000Y-75550000D02*
X94900000Y-75300000D01*
%TO.N,/poe/SHIELD*%
X50300000Y-72950000D02*
X48600000Y-71250000D01*
X50750000Y-73400000D02*
X50300000Y-72950000D01*
X50750000Y-82100000D02*
X50750000Y-73400000D01*
X50300000Y-82550000D02*
X50750000Y-82100000D01*
%TO.N,/mcu/BOOT*%
X101700000Y-101850000D02*
X102200000Y-101350000D01*
X106700000Y-72050000D02*
X106700000Y-58650000D01*
X101000000Y-102350000D02*
X101050000Y-102350000D01*
X102050000Y-59750000D02*
X100900000Y-59750000D01*
X106050000Y-86600000D02*
X108250000Y-84400000D01*
X101400000Y-102050000D02*
X101450000Y-102050000D01*
X105150000Y-91800000D02*
X105100000Y-91750000D01*
X105100000Y-91500000D02*
X105050000Y-91450000D01*
X101050000Y-102350000D02*
X101150000Y-102250000D01*
X105050000Y-91400000D02*
X104850000Y-91200000D01*
X105100000Y-91750000D02*
X105100000Y-91500000D01*
X112600000Y-77950000D02*
X112750000Y-77950000D01*
X102750000Y-59050000D02*
X102050000Y-59750000D01*
X106150000Y-94050000D02*
X105300000Y-93200000D01*
X105250000Y-92200000D02*
X105200000Y-92150000D01*
X100950000Y-102400000D02*
X101000000Y-102350000D01*
X102900000Y-58250000D02*
X102750000Y-58400000D01*
X105200000Y-92050000D02*
X105150000Y-92000000D01*
X112800000Y-77900000D02*
X113300000Y-77900000D01*
X105150000Y-92000000D02*
X105150000Y-91800000D01*
X112750000Y-77950000D02*
X112800000Y-77900000D01*
X102300000Y-101350000D02*
X106150000Y-97500000D01*
X99900000Y-102400000D02*
X100950000Y-102400000D01*
X101450000Y-102050000D02*
X101650000Y-101850000D01*
X106150000Y-97500000D02*
X106150000Y-94050000D01*
X108600000Y-82050000D02*
X108600000Y-82000000D01*
X108600000Y-82000000D02*
X108950000Y-81650000D01*
X108450000Y-82250000D02*
X108450000Y-82200000D01*
X102750000Y-58400000D02*
X102750000Y-59050000D01*
X101150000Y-102250000D02*
X101200000Y-102250000D01*
X105200000Y-92150000D02*
X105200000Y-92050000D01*
X105300000Y-93200000D02*
X105300000Y-93050000D01*
X106050000Y-89950000D02*
X106050000Y-86600000D01*
X108450000Y-82200000D02*
X108600000Y-82050000D01*
X101200000Y-102250000D02*
X101400000Y-102050000D01*
X105300000Y-93050000D02*
X105250000Y-93000000D01*
X102200000Y-101350000D02*
X102300000Y-101350000D01*
X105250000Y-93000000D02*
X105250000Y-92200000D01*
X112600000Y-77950000D02*
X106700000Y-72050000D01*
X105050000Y-91450000D02*
X105050000Y-91400000D01*
X108950000Y-81600000D02*
X112600000Y-77950000D01*
X108250000Y-84400000D02*
X108250000Y-82450000D01*
X108950000Y-81650000D02*
X108950000Y-81600000D01*
X108250000Y-82450000D02*
X108450000Y-82250000D01*
X101650000Y-101850000D02*
X101700000Y-101850000D01*
%TO.N,/ENABLE*%
X56700000Y-107750000D02*
X49750000Y-100800000D01*
X85400000Y-113850000D02*
X85250000Y-113850000D01*
X44100000Y-101550000D02*
X44250000Y-101400000D01*
X100900000Y-122150000D02*
X103050000Y-124300000D01*
X100100000Y-123850000D02*
X99950000Y-123850000D01*
X49200000Y-101300000D02*
X49700000Y-100800000D01*
X49750000Y-100800000D02*
X49700000Y-100800000D01*
X100500000Y-123450000D02*
X100100000Y-123850000D01*
X85250000Y-113850000D02*
X82950000Y-116150000D01*
X49700000Y-100800000D02*
X49700000Y-99900000D01*
X44450000Y-101300000D02*
X49200000Y-101300000D01*
X44350000Y-101400000D02*
X44450000Y-101300000D01*
X44050000Y-101550000D02*
X44100000Y-101550000D01*
X91700000Y-120150000D02*
X85400000Y-113850000D01*
X49700000Y-99900000D02*
X48150000Y-98350000D01*
X100500000Y-122550000D02*
X100500000Y-123450000D01*
X99900000Y-123900000D02*
X95600000Y-123900000D01*
X106200000Y-132750000D02*
X104550000Y-134400000D01*
X43750000Y-101850000D02*
X44050000Y-101550000D01*
X44250000Y-101400000D02*
X44350000Y-101400000D01*
X99950000Y-123850000D02*
X99900000Y-123900000D01*
X100900000Y-122150000D02*
X100500000Y-122550000D01*
X104900000Y-129900000D02*
X106200000Y-131200000D01*
X106200000Y-131200000D02*
X106200000Y-132750000D01*
%TO.N,/mcu/ENABLE_M*%
X99000000Y-111500000D02*
X99500000Y-112000000D01*
X99500000Y-98500000D02*
X98600000Y-97600000D01*
X101350000Y-85850000D02*
X102400000Y-84800000D01*
X102900000Y-71400000D02*
X102400000Y-70900000D01*
X99250000Y-115300000D02*
X99250000Y-117950000D01*
X99500000Y-115050000D02*
X99250000Y-115300000D01*
X102150000Y-83400000D02*
X102150000Y-83300000D01*
X99650000Y-95950000D02*
X99650000Y-90350000D01*
X101750000Y-82750000D02*
X101750000Y-82600000D01*
X101700000Y-82550000D02*
X101700000Y-82250000D01*
X102150000Y-83300000D02*
X102050000Y-83200000D01*
X101750000Y-82600000D02*
X101700000Y-82550000D01*
X102350000Y-70550000D02*
X102300000Y-70500000D01*
X102400000Y-70900000D02*
X102400000Y-70750000D01*
X101900000Y-83000000D02*
X101900000Y-82900000D01*
X102300000Y-83550000D02*
X102150000Y-83400000D01*
X101500000Y-81800000D02*
X101500000Y-75800000D01*
X102300000Y-83800000D02*
X102300000Y-83550000D01*
X99550000Y-118200000D02*
X100700000Y-119350000D01*
X99500000Y-112000000D02*
X99500000Y-115050000D01*
X101900000Y-82900000D02*
X101750000Y-82750000D01*
X101700000Y-82250000D02*
X101650000Y-82200000D01*
X102400000Y-84200000D02*
X102350000Y-84150000D01*
X102900000Y-74400000D02*
X102900000Y-71400000D01*
X101650000Y-81950000D02*
X101500000Y-81800000D01*
X102300000Y-70500000D02*
X102300000Y-66650000D01*
X102350000Y-84150000D02*
X102350000Y-83850000D01*
X102350000Y-70700000D02*
X102350000Y-70550000D01*
X99650000Y-90350000D02*
X101350000Y-88650000D01*
X101650000Y-82200000D02*
X101650000Y-81950000D01*
X102350000Y-83850000D02*
X102300000Y-83800000D01*
X99250000Y-117950000D02*
X99500000Y-118200000D01*
X101500000Y-75800000D02*
X102900000Y-74400000D01*
X98600000Y-97000000D02*
X99650000Y-95950000D01*
X102400000Y-70750000D02*
X102350000Y-70700000D01*
X102050000Y-83150000D02*
X101900000Y-83000000D01*
X102050000Y-83200000D02*
X102050000Y-83150000D01*
X101350000Y-88650000D02*
X101350000Y-85850000D01*
X102400000Y-84800000D02*
X102400000Y-84200000D01*
X99500000Y-118200000D02*
X99550000Y-118200000D01*
X98600000Y-97600000D02*
X98600000Y-97000000D01*
%TO.N,/mcu/EN*%
X89650000Y-78000000D02*
X89650000Y-80500000D01*
X104150000Y-66900000D02*
X104900000Y-67650000D01*
X104150000Y-58650000D02*
X104150000Y-66900000D01*
%TO.N,/CDB*%
X40000000Y-86850000D02*
X42250000Y-84600000D01*
X34150000Y-93100000D02*
X40000000Y-87250000D01*
X40000000Y-87250000D02*
X40000000Y-86850000D01*
X34725000Y-99900000D02*
X34725000Y-108900000D01*
X26150000Y-74250000D02*
X28650000Y-74250000D01*
%TO.N,/eth/EXRES*%
X92150000Y-80200000D02*
X90100000Y-82250000D01*
X93300000Y-80200000D02*
X92150000Y-80200000D01*
X90100000Y-82250000D02*
X86150000Y-82250000D01*
X93450000Y-80050000D02*
X93300000Y-80200000D01*
X86150000Y-82250000D02*
X85950000Y-82050000D01*
%TO.N,/eth/XO*%
X96175000Y-72975000D02*
X96375000Y-72775000D01*
X96375000Y-72775000D02*
X96375000Y-70375000D01*
X94925000Y-68925000D02*
X94925000Y-66000000D01*
X96175000Y-75475000D02*
X96175000Y-72975000D01*
X96375000Y-70375000D02*
X94925000Y-68925000D01*
%TO.N,/ETH_CSn*%
X93000000Y-93650000D02*
X93000000Y-87150000D01*
%TO.N,/eth/SCLK_PHY*%
X95125000Y-73350000D02*
X94950000Y-73350000D01*
X94950000Y-73350000D02*
X94500000Y-73800000D01*
X94500000Y-73800000D02*
X94000000Y-73800000D01*
X94000000Y-73800000D02*
X92350000Y-72150000D01*
%TO.N,/ETH_MISO*%
X98350000Y-87450000D02*
X97800000Y-88000000D01*
X97400000Y-79100000D02*
X97400000Y-79350000D01*
X97800000Y-88000000D02*
X97800000Y-94300000D01*
X97400000Y-85600000D02*
X98350000Y-86550000D01*
X95950000Y-77650000D02*
X97400000Y-79100000D01*
X97550000Y-79500000D02*
X97550000Y-83950000D01*
X97400000Y-84100000D02*
X97400000Y-85600000D01*
X97550000Y-83950000D02*
X97400000Y-84100000D01*
X94250000Y-75750000D02*
X95950000Y-77450000D01*
X98350000Y-86550000D02*
X98350000Y-87450000D01*
X95950000Y-77450000D02*
X95950000Y-77650000D01*
X97800000Y-94300000D02*
X94950000Y-97150000D01*
X97400000Y-79350000D02*
X97550000Y-79500000D01*
%TO.N,/eth/MOSI_PHY*%
X94250000Y-73150000D02*
X94250000Y-71925000D01*
%TO.N,/ETH_INTn*%
X95050000Y-96450000D02*
X94700000Y-96450000D01*
X96900000Y-80450000D02*
X96950000Y-80500000D01*
X94050000Y-77400000D02*
X96900000Y-80250000D01*
X93500000Y-75950000D02*
X94050000Y-76500000D01*
X94250000Y-96900000D02*
X94250000Y-98750000D01*
X97250000Y-89450000D02*
X97250000Y-94250000D01*
X97200000Y-89200000D02*
X97200000Y-89400000D01*
X94050000Y-76500000D02*
X94050000Y-77400000D01*
X96950000Y-80500000D02*
X96950000Y-88950000D01*
X94700000Y-96450000D02*
X94250000Y-96900000D01*
X96900000Y-80250000D02*
X96900000Y-80450000D01*
X97250000Y-94250000D02*
X95050000Y-96450000D01*
X97200000Y-89400000D02*
X97250000Y-89450000D01*
X96950000Y-88950000D02*
X97200000Y-89200000D01*
X93500000Y-74900000D02*
X93500000Y-75950000D01*
%TO.N,/ETH_RSTn*%
X96600000Y-67650000D02*
X96600000Y-67600000D01*
D28*
X93675000Y-95475000D02*
X95625000Y-93525000D01*
X94375000Y-88125000D02*
X95900000Y-89650000D01*
D21*
X97000000Y-75750000D02*
X96950000Y-75700000D01*
X96950000Y-75700000D02*
X96950000Y-68200000D01*
D28*
X95625000Y-93525000D02*
X95650000Y-93525000D01*
X95900000Y-89650000D02*
X95900000Y-89700000D01*
D21*
X96300000Y-67200000D02*
X96300000Y-67000000D01*
X96750000Y-67850000D02*
X96750000Y-67800000D01*
X96800000Y-67950000D02*
X96800000Y-67900000D01*
D28*
X93675000Y-98675000D02*
X93700000Y-98650000D01*
X93700000Y-96125000D02*
X93700000Y-98650000D01*
X95650000Y-93525000D02*
X95975000Y-93200000D01*
D21*
X96850000Y-68000000D02*
X96800000Y-67950000D01*
X96850000Y-68050000D02*
X96850000Y-68000000D01*
D28*
X95950000Y-89750000D02*
X95950000Y-89850000D01*
X95950000Y-89850000D02*
X95975000Y-89875000D01*
X95975000Y-89875000D02*
X95975000Y-93200000D01*
X94375000Y-88050000D02*
X94375000Y-88125000D01*
X94375000Y-88050000D02*
X95450000Y-86975000D01*
X93675000Y-96100000D02*
X93700000Y-96125000D01*
D21*
X97000000Y-75950000D02*
X97000000Y-75750000D01*
X96900000Y-68150000D02*
X96900000Y-68100000D01*
X96550000Y-67550000D02*
X96550000Y-67450000D01*
X96800000Y-67900000D02*
X96750000Y-67850000D01*
X96750000Y-67800000D02*
X96600000Y-67650000D01*
X96150000Y-76800000D02*
X97000000Y-75950000D01*
X96600000Y-67600000D02*
X96550000Y-67550000D01*
D28*
X95900000Y-89700000D02*
X95950000Y-89750000D01*
D21*
X96300000Y-67000000D02*
X95900000Y-66600000D01*
X96900000Y-68100000D02*
X96850000Y-68050000D01*
X96950000Y-68200000D02*
X96900000Y-68150000D01*
D28*
X93675000Y-98675000D02*
X93675000Y-100000000D01*
D21*
X96550000Y-67450000D02*
X96300000Y-67200000D01*
D28*
X93675000Y-95475000D02*
X93675000Y-96100000D01*
%TO.N,/poe/CLS*%
D21*
X27475000Y-95650000D02*
X27475000Y-93150000D01*
%TO.N,/I2C_SDA*%
X98250000Y-100450000D02*
X98250000Y-99350000D01*
X98600000Y-108950000D02*
X99150000Y-108400000D01*
X98150000Y-99000000D02*
X98100000Y-98950000D01*
X98250000Y-99350000D02*
X98150000Y-99250000D01*
X99150000Y-101350000D02*
X98250000Y-100450000D01*
X98100000Y-98950000D02*
X98100000Y-95200000D01*
X99150000Y-94150000D02*
X99150000Y-89900000D01*
X98150000Y-99250000D02*
X98150000Y-99000000D01*
X99150000Y-108400000D02*
X99150000Y-101350000D01*
X98100000Y-95200000D02*
X99150000Y-94150000D01*
%TO.N,/pwr/PGOOD*%
X48450000Y-96500000D02*
X50750000Y-98800000D01*
%TO.N,/ETH_SCLK*%
X80650000Y-84325000D02*
X80200000Y-83875000D01*
X80675000Y-86200000D02*
X80650000Y-86175000D01*
X90825000Y-93950000D02*
X88250000Y-93950000D01*
X91925000Y-95025000D02*
X91900000Y-95025000D01*
X88250000Y-93950000D02*
X80725000Y-86425000D01*
X80175000Y-83725000D02*
X80150000Y-83700000D01*
X80675000Y-86275000D02*
X80675000Y-86200000D01*
X93025000Y-96125000D02*
X91925000Y-95025000D01*
X80150000Y-83700000D02*
X80150000Y-79400000D01*
X80725000Y-86375000D02*
X80700000Y-86350000D01*
X80200000Y-83875000D02*
X80200000Y-83825000D01*
X80700000Y-86350000D02*
X80700000Y-86300000D01*
X80175000Y-83800000D02*
X80175000Y-83725000D01*
X80200000Y-83825000D02*
X80175000Y-83800000D01*
X91900000Y-95025000D02*
X90825000Y-93950000D01*
X80150000Y-79400000D02*
X80450000Y-79100000D01*
X80700000Y-86300000D02*
X80675000Y-86275000D01*
X80725000Y-86425000D02*
X80725000Y-86375000D01*
X80650000Y-86175000D02*
X80650000Y-84325000D01*
%TO.N,/poe/APD*%
X39900000Y-90000000D02*
X52300000Y-90000000D01*
X52300000Y-90000000D02*
X53650000Y-91350000D01*
%TO.N,/PWM0*%
X76600000Y-130200000D02*
X75550000Y-131250000D01*
X75450000Y-131650000D02*
X75400000Y-131700000D01*
X96350000Y-102050000D02*
X96300000Y-102050000D01*
X96450000Y-101950000D02*
X96350000Y-102050000D01*
X75550000Y-131250000D02*
X75550000Y-131350000D01*
X96300000Y-102050000D02*
X96200000Y-102150000D01*
X96600000Y-101850000D02*
X96500000Y-101950000D01*
X96200000Y-102150000D02*
X96150000Y-102150000D01*
X96050000Y-102250000D02*
X96000000Y-102250000D01*
X96000000Y-102250000D02*
X76600000Y-121650000D01*
X96800000Y-101750000D02*
X96750000Y-101750000D01*
X96650000Y-101850000D02*
X96600000Y-101850000D01*
X76600000Y-121650000D02*
X76600000Y-130200000D01*
X96150000Y-102150000D02*
X96050000Y-102250000D01*
X75450000Y-131450000D02*
X75450000Y-131650000D01*
X96750000Y-101750000D02*
X96650000Y-101850000D01*
X75550000Y-131350000D02*
X75450000Y-131450000D01*
X96500000Y-101950000D02*
X96450000Y-101950000D01*
X75400000Y-131700000D02*
X75400000Y-133200000D01*
X75400000Y-133200000D02*
X76600000Y-134400000D01*
%TO.N,/PWM1*%
X92600000Y-105050000D02*
X91300000Y-105050000D01*
X96450000Y-99400000D02*
X95150000Y-100700000D01*
X91300000Y-105050000D02*
X84650000Y-111700000D01*
X84650000Y-112750000D02*
X84300000Y-113100000D01*
X84300000Y-124150000D02*
X84490919Y-123959081D01*
X84650000Y-111700000D02*
X84650000Y-112750000D01*
X95150000Y-100700000D02*
X95150000Y-102500000D01*
X95150000Y-102500000D02*
X92600000Y-105050000D01*
%TO.N,/PWM2*%
X101250000Y-119750000D02*
X100350000Y-120650000D01*
X86000000Y-133200000D02*
X85800000Y-133400000D01*
X105450000Y-90950000D02*
X105450000Y-91150000D01*
X106600000Y-98350000D02*
X103550000Y-101400000D01*
X85450000Y-133800000D02*
X85450000Y-134850000D01*
X87100000Y-133200000D02*
X86000000Y-133200000D01*
X99700000Y-116650000D02*
X101350000Y-118300000D01*
X105400000Y-90900000D02*
X105450000Y-90950000D01*
X105250000Y-89650000D02*
X105300000Y-89700000D01*
X105650000Y-92050000D02*
X105650000Y-92300000D01*
X105700000Y-92350000D02*
X105700000Y-93000000D01*
X98000000Y-120650000D02*
X93400000Y-125250000D01*
X105500000Y-91200000D02*
X105500000Y-91450000D01*
X105350000Y-90350000D02*
X105350000Y-90650000D01*
X105550000Y-91500000D02*
X105550000Y-91750000D01*
X105700000Y-93000000D02*
X106600000Y-93900000D01*
X93400000Y-125250000D02*
X93400000Y-125350000D01*
X84800000Y-135500000D02*
X84650000Y-135500000D01*
X105500000Y-91450000D02*
X105550000Y-91500000D01*
X82900000Y-135600000D02*
X81700000Y-134400000D01*
X105600000Y-91800000D02*
X105600000Y-92000000D01*
X101350000Y-118300000D02*
X101350000Y-119600000D01*
X87950000Y-130800000D02*
X87950000Y-132250000D01*
X105400000Y-90700000D02*
X105400000Y-90900000D01*
X105450000Y-91150000D02*
X105500000Y-91200000D01*
X105550000Y-91750000D02*
X105600000Y-91800000D01*
X87850000Y-132350000D02*
X87850000Y-132450000D01*
X103550000Y-101400000D02*
X103550000Y-111600000D01*
X105250000Y-89050000D02*
X105250000Y-89650000D01*
X84550000Y-135600000D02*
X82900000Y-135600000D01*
X106600000Y-93900000D02*
X106600000Y-98350000D01*
X85800000Y-133450000D02*
X85450000Y-133800000D01*
X85450000Y-134850000D02*
X84800000Y-135500000D01*
X105650000Y-92300000D02*
X105700000Y-92350000D01*
X87850000Y-132450000D02*
X87100000Y-133200000D01*
X103550000Y-111600000D02*
X99700000Y-115450000D01*
X101250000Y-119700000D02*
X101250000Y-119750000D01*
X85800000Y-133400000D02*
X85800000Y-133450000D01*
X105300000Y-89700000D02*
X105300000Y-90300000D01*
X99700000Y-115450000D02*
X99700000Y-116650000D01*
X84650000Y-135500000D02*
X84550000Y-135600000D01*
X87950000Y-132250000D02*
X87850000Y-132350000D01*
X101350000Y-119600000D02*
X101250000Y-119700000D01*
X105300000Y-90300000D02*
X105350000Y-90350000D01*
X93400000Y-125350000D02*
X87950000Y-130800000D01*
X105350000Y-90650000D02*
X105400000Y-90700000D01*
X105600000Y-92000000D02*
X105650000Y-92050000D01*
X100350000Y-120650000D02*
X98000000Y-120650000D01*
%TO.N,/PWM3*%
X81700000Y-114050000D02*
X81700000Y-115700000D01*
X91950000Y-104050000D02*
X91800000Y-104200000D01*
X91450000Y-104400000D02*
X91300000Y-104550000D01*
X91100000Y-104700000D02*
X91050000Y-104700000D01*
X91300000Y-104550000D02*
X91250000Y-104550000D01*
X92000000Y-104050000D02*
X91950000Y-104050000D01*
X95600000Y-97350000D02*
X95600000Y-99650000D01*
X91800000Y-104200000D02*
X91700000Y-104200000D01*
X91700000Y-104200000D02*
X91500000Y-104400000D01*
X92400000Y-103650000D02*
X92000000Y-104050000D01*
X92400000Y-102850000D02*
X92400000Y-103650000D01*
X91250000Y-104550000D02*
X91100000Y-104700000D01*
X91500000Y-104400000D02*
X91450000Y-104400000D01*
X96800000Y-96150000D02*
X95600000Y-97350000D01*
X81700000Y-125900000D02*
X81700000Y-131850000D01*
X95600000Y-99650000D02*
X92400000Y-102850000D01*
X91050000Y-104700000D02*
X81700000Y-114050000D01*
%TO.N,/PWM4*%
X97500000Y-100300000D02*
X98750000Y-101550000D01*
X97400000Y-95550000D02*
X97450000Y-95600000D01*
X97900000Y-108400000D02*
X97900000Y-109550000D01*
X97950000Y-112150000D02*
X97900000Y-112150000D01*
X98750000Y-101550000D02*
X98750000Y-107550000D01*
X97500000Y-95850000D02*
X97500000Y-100300000D01*
X93100000Y-124350000D02*
X92550000Y-124350000D01*
X95800000Y-121650000D02*
X93100000Y-124350000D01*
X92450000Y-124450000D02*
X92400000Y-124450000D01*
X97450000Y-95800000D02*
X97500000Y-95850000D01*
X98400000Y-94300000D02*
X97400000Y-95300000D01*
X92550000Y-124350000D02*
X92450000Y-124450000D01*
X98100000Y-109750000D02*
X98100000Y-112000000D01*
X97450000Y-95600000D02*
X97450000Y-95800000D01*
X98100000Y-112000000D02*
X97950000Y-112150000D01*
X85400000Y-131450000D02*
X85400000Y-131750000D01*
X97400000Y-95300000D02*
X97400000Y-95550000D01*
X85450000Y-131800000D02*
X85450000Y-133200000D01*
X97900000Y-109550000D02*
X98100000Y-109750000D01*
X85400000Y-131750000D02*
X85450000Y-131800000D01*
X98750000Y-107550000D02*
X97900000Y-108400000D01*
X92400000Y-124450000D02*
X85400000Y-131450000D01*
X85450000Y-133200000D02*
X84250000Y-134400000D01*
X95800000Y-114250000D02*
X95800000Y-121650000D01*
X97900000Y-112150000D02*
X95800000Y-114250000D01*
X98400000Y-93350000D02*
X98400000Y-94300000D01*
%TO.N,/PWM5*%
X86300000Y-99100000D02*
X86300000Y-108850000D01*
X95300000Y-92450000D02*
X93400000Y-94350000D01*
X93400000Y-94350000D02*
X92100000Y-94350000D01*
X84500000Y-110650000D02*
X84250000Y-110650000D01*
X92100000Y-94350000D02*
X91500000Y-93750000D01*
X86300000Y-108850000D02*
X84500000Y-110650000D01*
X83500000Y-131100000D02*
X84250000Y-131850000D01*
X83500000Y-124100000D02*
X83500000Y-131100000D01*
%TO.N,/I2C_SCL*%
X99800000Y-100575000D02*
X100150000Y-100225000D01*
X98325000Y-102375000D02*
X98125000Y-102175000D01*
X100525000Y-96550000D02*
X100525000Y-96500000D01*
X102250000Y-91050000D02*
X102600000Y-90700000D01*
X100200000Y-97025000D02*
X100200000Y-96875000D01*
X100775000Y-96000000D02*
X100800000Y-95975000D01*
X100525000Y-96500000D02*
X100550000Y-96475000D01*
X100775000Y-96050000D02*
X100775000Y-96000000D01*
X94700000Y-115450000D02*
X94700000Y-121900000D01*
X102600000Y-90700000D02*
X102600000Y-86975000D01*
X100800000Y-95975000D02*
X100800000Y-95900000D01*
X100175000Y-97050000D02*
X100200000Y-97025000D01*
X100150000Y-97150000D02*
X100175000Y-97125000D01*
X100150000Y-100225000D02*
X100150000Y-97150000D01*
X100175000Y-97125000D02*
X100175000Y-97050000D01*
X100200000Y-96875000D02*
X100525000Y-96550000D01*
X97475000Y-107775000D02*
X98325000Y-106925000D01*
X96950000Y-124600000D02*
X96950000Y-131850000D01*
X100900000Y-92800000D02*
X101100000Y-92600000D01*
X100850000Y-95850000D02*
X100850000Y-95750000D01*
X100900000Y-95700000D02*
X100900000Y-92800000D01*
X98325000Y-106925000D02*
X98325000Y-102375000D01*
X102175000Y-91200000D02*
X102250000Y-91125000D01*
X100550000Y-96275000D02*
X100775000Y-96050000D01*
X100850000Y-95750000D02*
X100900000Y-95700000D01*
X100800000Y-95900000D02*
X100850000Y-95850000D01*
X100550000Y-96475000D02*
X100550000Y-96275000D01*
X102250000Y-91125000D02*
X102250000Y-91050000D01*
%TO.N,/mcu/IMON_M*%
X95400000Y-89950000D02*
X94100000Y-88650000D01*
X94100000Y-88650000D02*
X93650000Y-88650000D01*
%TO.N,/ETH_MOSI*%
D28*
X91575000Y-74275000D02*
X91575000Y-74375000D01*
X91925000Y-75425000D02*
X91975000Y-75475000D01*
X91625000Y-74425000D02*
X91625000Y-74525000D01*
X91200000Y-77225000D02*
X92175000Y-76250000D01*
X91525000Y-74225000D02*
X91575000Y-74275000D01*
X92125000Y-75925000D02*
X92125000Y-76025000D01*
X91175000Y-77225000D02*
X91200000Y-77225000D01*
X91500000Y-74050000D02*
X91525000Y-74075000D01*
X91575000Y-74375000D02*
X91625000Y-74425000D01*
X91775000Y-74875000D02*
X91775000Y-74975000D01*
X91975000Y-75575000D02*
X92025000Y-75625000D01*
X91525000Y-74075000D02*
X91525000Y-74225000D01*
X92025000Y-75625000D02*
X92025000Y-75725000D01*
X91975000Y-75475000D02*
X91975000Y-75575000D01*
X91000000Y-77400000D02*
X91175000Y-77225000D01*
X91550000Y-72000000D02*
X92300000Y-71250000D01*
X92125000Y-76025000D02*
X92150000Y-76050000D01*
X91675000Y-74675000D02*
X91725000Y-74725000D01*
X91725000Y-74825000D02*
X91775000Y-74875000D01*
X91025000Y-73475000D02*
X91500000Y-73950000D01*
X92150000Y-76125000D02*
X92175000Y-76150000D01*
X91725000Y-74725000D02*
X91725000Y-74825000D01*
X91875000Y-75175000D02*
X91875000Y-75275000D01*
X91825000Y-75125000D02*
X91875000Y-75175000D01*
X91825000Y-75025000D02*
X91825000Y-75125000D01*
X91675000Y-74575000D02*
X91675000Y-74675000D01*
X92075000Y-75775000D02*
X92075000Y-75875000D01*
X92075000Y-75875000D02*
X92125000Y-75925000D01*
X91875000Y-75275000D02*
X91925000Y-75325000D01*
X91925000Y-75325000D02*
X91925000Y-75425000D01*
X92150000Y-76050000D02*
X92150000Y-76125000D01*
X91550000Y-72000000D02*
X91550000Y-72200000D01*
X92025000Y-75725000D02*
X92075000Y-75775000D01*
X91775000Y-74975000D02*
X91825000Y-75025000D01*
X92175000Y-76150000D02*
X92175000Y-76250000D01*
X91500000Y-73950000D02*
X91500000Y-74050000D01*
X91625000Y-74525000D02*
X91675000Y-74575000D01*
%TO.N,/mcu/STATUS*%
D21*
X96250000Y-102600000D02*
X94025000Y-104825000D01*
X100100000Y-92450000D02*
X100100000Y-96400000D01*
X103300000Y-69650000D02*
X103350000Y-69700000D01*
X101775000Y-86175000D02*
X101775000Y-90775000D01*
X103350000Y-84600000D02*
X101775000Y-86175000D01*
X94025000Y-104825000D02*
X94025000Y-105075000D01*
X103300000Y-69550000D02*
X103300000Y-69650000D01*
X103450000Y-69400000D02*
X103300000Y-69550000D01*
X96600000Y-102600000D02*
X96250000Y-102600000D01*
X100100000Y-96400000D02*
X99300000Y-97200000D01*
X103350000Y-69700000D02*
X103350000Y-84600000D01*
X101775000Y-90775000D02*
X100100000Y-92450000D01*
%TO.N,/PWM7*%
X100300000Y-109600000D02*
X100300000Y-112200000D01*
X100550000Y-108600000D02*
X100550000Y-109350000D01*
X100550000Y-109350000D02*
X100300000Y-109600000D01*
X98250000Y-112750000D02*
X96750000Y-114250000D01*
%TO.N,/DSPI_SCK*%
X97800000Y-120250000D02*
X93000000Y-125050000D01*
X99400000Y-119000000D02*
X99250000Y-119150000D01*
X99250000Y-119150000D02*
X99200000Y-119150000D01*
X93000000Y-125050000D02*
X92750000Y-125050000D01*
X98100000Y-120250000D02*
X97800000Y-120250000D01*
X99200000Y-119150000D02*
X98100000Y-120250000D01*
%TO.N,/DSPI_MOSI*%
X98950000Y-130650000D02*
X98550000Y-131050000D01*
X98250000Y-132250000D02*
X97300000Y-133200000D01*
X98250000Y-131400000D02*
X98250000Y-132250000D01*
X100050000Y-129500000D02*
X98950000Y-130600000D01*
X98550000Y-131050000D02*
X98550000Y-131100000D01*
X97300000Y-133200000D02*
X96450000Y-133200000D01*
X102150000Y-117200000D02*
X103050000Y-118100000D01*
X98550000Y-131100000D02*
X98250000Y-131400000D01*
X98950000Y-130600000D02*
X98950000Y-130650000D01*
X96450000Y-133200000D02*
X95250000Y-134400000D01*
%TO.N,/DSPI_MISO*%
X103750000Y-115550000D02*
X103750000Y-118250000D01*
X103750000Y-118250000D02*
X104000000Y-118500000D01*
X100450000Y-121050000D02*
X99800000Y-121700000D01*
X102300000Y-121050000D02*
X100450000Y-121050000D01*
X99800000Y-121700000D02*
X99800000Y-123200000D01*
X104000000Y-119350000D02*
X102300000Y-121050000D01*
X104000000Y-118500000D02*
X104000000Y-119350000D01*
%TO.N,/mcu/RXD0*%
X110350000Y-84800000D02*
X110350000Y-83500000D01*
X113550000Y-78900000D02*
X113550000Y-78750000D01*
X107100000Y-64550000D02*
X107300000Y-64350000D01*
X107100000Y-68250000D02*
X107100000Y-64550000D01*
X106250000Y-105800000D02*
X106250000Y-104850000D01*
X110300000Y-85000000D02*
X110300000Y-84850000D01*
X113550000Y-78750000D02*
X113600000Y-78700000D01*
X106250000Y-104850000D02*
X105150000Y-103750000D01*
X110300000Y-84850000D02*
X110350000Y-84800000D01*
X113600000Y-78550000D02*
X113950000Y-78200000D01*
X110350000Y-83500000D02*
X111500000Y-82350000D01*
X114000000Y-75150000D02*
X107100000Y-68250000D01*
X107500000Y-87800000D02*
X110300000Y-85000000D01*
X107500000Y-89800000D02*
X107500000Y-87800000D01*
X113600000Y-78700000D02*
X113600000Y-78550000D01*
X111500000Y-81450000D02*
X111800000Y-81150000D01*
X108550000Y-90850000D02*
X107500000Y-89800000D01*
X111500000Y-82350000D02*
X111500000Y-81450000D01*
X105150000Y-101250000D02*
X108600000Y-97800000D01*
X111800000Y-81150000D02*
X111800000Y-80650000D01*
X105150000Y-103750000D02*
X105150000Y-101250000D01*
X113950000Y-78050000D02*
X114000000Y-78000000D01*
X114000000Y-78000000D02*
X114000000Y-75150000D01*
X113950000Y-78200000D02*
X113950000Y-78050000D01*
X111800000Y-80650000D02*
X113550000Y-78900000D01*
%TO.N,/mcu/TXD0*%
X100700000Y-60450000D02*
X100600000Y-60350000D01*
X102950000Y-98500000D02*
X103200000Y-98250000D01*
X103750000Y-84100000D02*
X103750000Y-70050000D01*
X100900000Y-60450000D02*
X100700000Y-60450000D01*
X100600000Y-60350000D02*
X100550000Y-60350000D01*
X103750000Y-70050000D02*
X104150000Y-69650000D01*
X104350000Y-84700000D02*
X103750000Y-84100000D01*
X104150000Y-69150000D02*
X102700000Y-67700000D01*
X102900000Y-98900000D02*
X102900000Y-98750000D01*
X103000000Y-66900000D02*
X103000000Y-62550000D01*
X103150000Y-97250000D02*
X103150000Y-87450000D01*
X100550000Y-60350000D02*
X99100000Y-58900000D01*
X102700000Y-67200000D02*
X103000000Y-66900000D01*
X103200000Y-97300000D02*
X103150000Y-97250000D01*
X102950000Y-98700000D02*
X102950000Y-98500000D01*
X102700000Y-67700000D02*
X102700000Y-67200000D01*
X104150000Y-69650000D02*
X104150000Y-69150000D01*
X104350000Y-86250000D02*
X104350000Y-84700000D01*
X103150000Y-87450000D02*
X104350000Y-86250000D01*
X103200000Y-98250000D02*
X103200000Y-97300000D01*
X102900000Y-98750000D02*
X102950000Y-98700000D01*
X103000000Y-62550000D02*
X100900000Y-60450000D01*
%TO.N,/expansion/ADC1_CONN*%
X103900000Y-136050000D02*
X106700000Y-136050000D01*
X102250000Y-134400000D02*
X103900000Y-136050000D01*
%TO.N,/pwr/UVLO*%
X37550000Y-97350000D02*
X36450000Y-98450000D01*
%TO.N,/pwr/DVDT*%
X42425000Y-102525000D02*
X42425000Y-102725000D01*
X40825000Y-100925000D02*
X42425000Y-102525000D01*
%TD*%
M02*
