M48
; DRILL file KiCad 10.0.3 date 2026-07-30T07:07:03
; FORMAT={-:-/ absolute / metric / decimal}
; #@! TF.CreationDate,2026-07-30T07:07:03-07:00
; #@! TF.GenerationSoftware,Kicad,Pcbnew,10.0.3
; #@! TF.FileFunction,MixedPlating,1,4
FMAT,2
METRIC
; #@! TA.AperFunction,Plated,PTH,ViaDrill
T1C0.300
; #@! TA.AperFunction,Plated,PTH,ComponentDrill
T2C0.300
; #@! TA.AperFunction,Plated,PTH,ComponentDrill
T3C0.900
; #@! TA.AperFunction,Plated,PTH,ComponentDrill
T4C0.914
; #@! TA.AperFunction,Plated,PTH,ComponentDrill
T5C1.020
; #@! TA.AperFunction,Plated,PTH,ComponentDrill
T6C1.100
; #@! TA.AperFunction,Plated,PTH,ComponentDrill
T7C1.700
; #@! TA.AperFunction,NonPlated,NPTH,ComponentDrill
T8C3.200
%
G90
G05
T1
X22.45Y-93.7
X22.48Y-105.68
X22.48Y-106.5
X22.48Y-107.32
X22.48Y-112.68
X22.48Y-113.5
X22.48Y-114.32
X22.85Y-110.0
X22.98Y-76.18
X22.98Y-77.0
X22.98Y-77.82
X22.98Y-81.18
X22.98Y-82.0
X22.98Y-82.82
X22.98Y-86.18
X22.98Y-87.0
X22.98Y-87.82
X23.6Y-91.2
X24.3Y-93.9
X25.075Y-91.075
X25.6Y-92.5
X25.65Y-95.15
X26.15Y-74.25
X27.45Y-90.6
X27.475Y-93.15
X27.475Y-95.65
X28.65Y-74.25
X28.98Y-81.18
X28.98Y-82.0
X28.98Y-82.82
X30.24Y-119.5
X30.24Y-123.5
X31.68Y-108.72
X31.68Y-109.56
X31.75Y-118.0
X32.5Y-108.72
X32.5Y-109.56
X32.5Y-110.4
X32.5Y-111.24
X33.084Y-94.793
X33.32Y-108.72
X33.32Y-109.56
X33.32Y-110.4
X33.32Y-111.24
X33.45Y-79.1
X34.15Y-93.1
X34.65Y-118.8
X34.725Y-99.9
X34.725Y-108.9
X35.35Y-93.5
X35.49Y-107.699
X35.605Y-110.797
X35.7Y-112.05
X36.35Y-96.0
X36.45Y-98.45
X37.55Y-97.35
X37.55Y-104.2
X38.0Y-93.5
X38.3Y-109.85
X39.45Y-105.7
X39.9Y-90.0
X39.9Y-91.75
X39.995Y-98.144
X40.575Y-99.8
X40.825Y-100.925
X41.1Y-87.3
X41.15Y-93.482
X42.25Y-84.6
X42.4Y-91.75
X42.425Y-102.725
X43.75Y-101.85
X44.4Y-87.3
X44.6Y-80.3
X44.65Y-96.65
X45.4Y-102.0
X45.8Y-73.45
X46.4Y-96.325
X46.85Y-91.3
X47.09Y-108.6
X47.45Y-81.55
X47.525Y-99.0
X48.15Y-98.35
X48.45Y-96.5
X48.45Y-97.45
X48.8Y-89.35
X49.0Y-100.475
X49.05Y-63.5
X49.2Y-73.275
X49.35Y-102.0
X49.425Y-91.325
X49.675Y-74.325
X50.3Y-82.55
X50.55Y-91.05
X50.75Y-98.8
X51.8Y-65.75
X51.8Y-69.0
X52.4Y-100.0
X52.65Y-92.35
X52.65Y-94.0
X52.65Y-97.0
X53.65Y-91.35
X54.24Y-84.0
X54.25Y-108.0
X54.25Y-110.5
X55.3Y-90.65
X56.6Y-117.5
X56.7Y-107.75
X58.9Y-82.0
X59.4Y-120.5
X60.1Y-117.0
X60.24Y-113.0
X64.5Y-89.2
X65.4Y-79.0
X65.882Y-114.324
X67.125Y-113.675
X67.7Y-98.5
X68.0Y-112.85
X68.55Y-127.75
X69.26Y-118.5
X69.26Y-122.0
X69.45Y-112.18
X69.45Y-113.0
X69.45Y-113.82
X70.59Y-85.25
X71.2Y-128.2
X71.65Y-91.0
X72.85Y-74.6
X73.25Y-69.1
X73.25Y-80.4
X73.74Y-118.5
X73.74Y-122.0
X73.75Y-106.35
X73.75Y-130.75
X73.85Y-125.7
X73.85Y-128.7
X74.2Y-74.2
X75.75Y-75.25
X79.0Y-96.15
X80.45Y-79.1
X81.3Y-83.4
X81.3Y-86.1
X81.55Y-68.5
X81.7Y-115.7
X81.7Y-125.9
X81.75Y-63.33
X82.2Y-89.8
X82.95Y-116.15
X83.2Y-86.05
X83.45Y-83.85
X83.5Y-124.1
X84.25Y-110.65
X84.3Y-113.1
X84.3Y-124.15
X85.75Y-84.9
X85.95Y-82.05
X86.0Y-74.35
X86.3Y-99.1
X87.378Y-65.656
X87.46Y-79.25
X87.65Y-81.25
X88.167Y-61.467
X88.65Y-117.95
X89.65Y-78.0
X89.65Y-80.5
X90.4Y-80.2
X90.4Y-121.65
X90.9Y-77.475
X91.025Y-73.475
X91.5Y-93.75
X91.54Y-105.75
X91.55Y-72.2
X91.63Y-81.785
X91.7Y-120.15
X91.75Y-85.35
X91.75Y-100.55
X91.75Y-102.65
X91.83Y-65.932
X91.875Y-84.05
X92.1Y-108.95
X92.3Y-71.25
X92.35Y-72.15
X92.53Y-63.082
X92.75Y-125.05
X93.0Y-87.15
X93.0Y-93.65
X93.1Y-84.05
X93.125Y-96.2
X93.45Y-80.05
X93.5Y-74.9
X93.5Y-83.35
X93.65Y-88.65
X93.675Y-100.0
X94.025Y-105.075
X94.125Y-90.15
X94.15Y-81.85
X94.25Y-71.925
X94.25Y-73.15
X94.25Y-75.75
X94.25Y-98.75
X94.436Y-86.796
X94.7Y-115.45
X94.7Y-121.9
X94.925Y-66.0
X94.95Y-97.15
X95.086Y-84.746
X95.125Y-73.35
X95.15Y-126.4
X95.275Y-90.75
X95.3Y-92.45
X95.4Y-89.95
X95.4Y-112.25
X95.45Y-86.975
X95.5Y-104.25
X95.55Y-76.2
X95.58Y-61.883
X95.6Y-123.9
X95.7Y-84.05
X95.725Y-72.525
X95.9Y-66.6
X95.95Y-94.0
X96.15Y-76.8
X96.15Y-81.85
X96.175Y-75.475
X96.2Y-86.5
X96.2Y-135.6
X96.3Y-127.55
X96.35Y-80.65
X96.35Y-85.35
X96.45Y-99.4
X96.6Y-102.6
X96.65Y-109.7
X96.75Y-114.25
X96.8Y-96.15
X96.9Y-101.65
X96.95Y-124.6
X97.4Y-110.0
X97.475Y-107.775
X97.631Y-86.863
X97.75Y-61.85
X97.956Y-73.077
X98.125Y-102.175
X98.25Y-112.75
X98.4Y-89.5
X98.4Y-93.35
X98.415Y-70.568
X98.5Y-76.6
X98.6Y-108.95
X98.65Y-84.1
X98.85Y-125.0
X99.0Y-111.5
X99.038Y-77.212
X99.15Y-89.9
X99.3Y-97.275
X99.4Y-71.75
X99.4Y-119.0
X99.5Y-98.5
X99.8Y-100.575
X99.8Y-123.2
X99.9Y-102.4
X100.05Y-129.5
X100.089Y-84.251
X100.089Y-86.952
X100.35Y-112.25
X100.4Y-116.4
X100.55Y-108.6
X100.7Y-119.35
X100.9Y-59.75
X100.9Y-122.15
X101.05Y-85.275
X101.1Y-92.6
X101.4Y-110.0
X101.688Y-74.6
X102.15Y-117.2
X102.175Y-91.275
X102.25Y-78.5
X102.25Y-81.0
X102.3Y-66.65
X102.47Y-94.232
X102.47Y-95.632
X102.47Y-97.032
X102.6Y-86.975
X102.8Y-99.0
X102.9Y-58.25
X102.9Y-118.9
X103.05Y-118.1
X103.05Y-124.3
X103.45Y-69.4
X103.65Y-85.2
X103.75Y-115.55
X103.87Y-94.232
X103.87Y-95.632
X103.87Y-97.032
X104.1Y-113.2
X104.525Y-98.275
X104.6Y-118.95
X104.75Y-104.7
X104.85Y-91.2
X104.9Y-67.65
X104.9Y-122.75
X104.9Y-129.9
X104.95Y-72.8
X104.95Y-78.5
X104.95Y-81.0
X105.225Y-86.975
X105.25Y-89.05
X105.27Y-94.232
X105.27Y-95.632
X105.27Y-97.032
X105.3Y-76.0
X105.845Y-60.932
X106.05Y-89.95
X106.221Y-108.35
X106.25Y-105.8
X106.35Y-85.2
X106.65Y-79.5
X106.7Y-136.05
X107.2Y-103.3
X107.2Y-104.2
X107.3Y-64.35
X108.2Y-89.55
X108.3Y-122.75
X108.375Y-107.275
X108.6Y-72.5
X108.6Y-90.85
X108.6Y-97.8
X109.05Y-89.95
X109.05Y-104.0
X109.35Y-79.5
X109.65Y-81.9
X109.65Y-84.7
X110.3Y-108.5
X111.1Y-80.9
X111.35Y-75.0
X111.75Y-88.4
X111.75Y-106.2
X112.0Y-65.55
X112.0Y-67.65
X112.16Y-85.16
X112.35Y-81.9
X112.9Y-78.6
X112.95Y-84.7
X113.15Y-122.75
X113.26Y-81.9
X113.3Y-77.9
X114.15Y-64.75
X114.65Y-75.0
X115.38Y-66.589
X115.46Y-64.75
X115.65Y-84.7
X115.75Y-73.25
X117.0Y-78.6
X117.74Y-81.9
X117.79Y-109.5
X117.85Y-73.25
T2
X42.7Y-93.4
X42.7Y-94.7
X42.7Y-96.0
X42.7Y-97.3
X42.7Y-98.6
X44.0Y-93.4
X44.0Y-94.7
X44.0Y-96.0
X44.0Y-97.3
X44.0Y-98.6
X45.3Y-93.4
X45.3Y-94.7
X45.3Y-96.0
X45.3Y-97.3
X45.3Y-98.6
T3
X34.87Y-72.013
X34.87Y-74.523
X36.14Y-77.063
X37.41Y-70.743
X37.41Y-74.523
X38.68Y-77.063
X39.95Y-74.523
X41.22Y-77.063
X42.49Y-74.523
X43.76Y-70.743
X43.76Y-77.063
X45.03Y-74.523
X46.3Y-72.013
X46.3Y-77.063
T4
X93.999Y-58.633
X96.539Y-58.633
X99.079Y-58.633
X101.619Y-58.633
X104.159Y-58.633
X106.699Y-58.633
T5
X33.95Y-64.123
X36.49Y-64.123
X44.67Y-64.123
X47.21Y-64.123
T6
X34.96Y-131.862
X34.96Y-134.402
X37.5Y-131.862
X37.5Y-134.402
X40.04Y-131.862
X40.04Y-134.402
X42.58Y-131.862
X42.58Y-134.402
X45.12Y-131.862
X45.12Y-134.402
X47.66Y-131.862
X47.66Y-134.402
X50.2Y-131.862
X50.2Y-134.402
X76.61Y-131.862
X76.61Y-134.402
X79.15Y-131.862
X79.15Y-134.402
X81.69Y-131.862
X81.69Y-134.402
X84.23Y-131.862
X84.23Y-134.402
X86.77Y-131.862
X86.77Y-134.402
X89.31Y-131.862
X89.31Y-134.402
X91.85Y-131.862
X91.85Y-134.402
X94.39Y-131.862
X94.39Y-134.402
X96.93Y-131.862
X96.93Y-134.402
X99.47Y-131.862
X99.47Y-134.402
X102.01Y-131.862
X102.01Y-134.402
X104.55Y-131.862
X104.55Y-134.402
T7
X32.71Y-71.233
X48.45Y-71.233
T8
X22.58Y-60.132
X22.58Y-134.132
X34.87Y-68.173
X46.3Y-68.173
X65.58Y-131.132
X116.58Y-60.132
X116.58Y-134.132
M30
