M48
; DRILL file KiCad 10.0.5 date 2026-08-27T19:41:42
; FORMAT={-:-/ absolute / metric / decimal}
; #@! TF.CreationDate,2026-08-27T19:41:42+00:00
; #@! TF.GenerationSoftware,Kicad,Pcbnew,10.0.5
; #@! TF.FileFunction,MixedPlating,1,2
FMAT,2
METRIC
; #@! TA.AperFunction,Plated,PTH,ViaDrill
T1C0.300
; #@! TA.AperFunction,Plated,PTH,ComponentDrill
T2C0.800
; #@! TA.AperFunction,Plated,PTH,ComponentDrill
T3C1.100
; #@! TA.AperFunction,NonPlated,NPTH,ComponentDrill
T4C0.600
; #@! TA.AperFunction,NonPlated,NPTH,ComponentDrill
T5C2.200
%
G90
G05
T1
X26.855Y-49.089
X27.035Y-37.961
X27.035Y-45.039
X27.65Y-38.9
X27.65Y-44.3
X28.1Y-39.6
X28.5Y-37.7
X28.5Y-44.3
X28.5Y-45.2
X29.357Y-37.237
X30.1Y-36.45
X31.171Y-42.069
X31.3Y-43.25
X31.542Y-40.771
X32.002Y-30.938
X32.069Y-34.375
X32.07Y-37.663
X32.454Y-43.45
X32.577Y-41.754
X32.8Y-38.15
X32.837Y-52.455
X36.245Y-36.193
X37.9Y-51.717
X38.624Y-40.76
X40.808Y-49.236
X40.927Y-48.142
X41.69Y-32.19
X41.8Y-35.9
X42.371Y-31.629
X42.83Y-40.4
X43.3Y-48.27
X44.224Y-45.924
X44.3Y-48.9
X45.2Y-44.6
X46.6Y-47.0
X46.823Y-45.574
X47.8Y-37.852
X48.0Y-40.82
T3
X26.79Y-29.2
X29.33Y-29.2
X31.87Y-29.2
X34.41Y-29.2
X39.39Y-29.2
X41.93Y-29.2
X44.47Y-29.2
X47.01Y-29.2
T4
X25.22Y-38.6
X25.22Y-44.4
T5
X22.5Y-30.41
X22.5Y-51.6
X51.25Y-30.41
X51.25Y-51.6
T2
X21.74Y-37.17G85X21.34Y-37.17
G05
X21.74Y-45.83G85X21.34Y-45.83
G05
X26.07Y-37.17G85X25.37Y-37.17
G05
X26.07Y-45.83G85X25.37Y-45.83
G05
M30
