%TF.GenerationSoftware,KiCad,Pcbnew,10.0.5*%
%TF.CreationDate,2026-08-27T19:41:41+00:00*%
%TF.ProjectId,g0-sense,67302d73-656e-4736-952e-6b696361645f,rev?*%
%TF.SameCoordinates,Original*%
%TF.FileFunction,Copper,L2,Bot*%
%TF.FilePolarity,Positive*%
%FSLAX46Y46*%
G04 Gerber Fmt 4.6, Leading zero omitted, Abs format (unit mm)*
G04 Created by KiCad (PCBNEW 10.0.5) date 2026-08-27 19:41:41*
%MOMM*%
%LPD*%
G01*
G04 APERTURE LIST*
%TA.AperFunction,ComponentPad*%
%ADD10R,1.700000X1.700000*%
%TD*%
%TA.AperFunction,ComponentPad*%
%ADD11C,1.700000*%
%TD*%
%TA.AperFunction,ComponentPad*%
%ADD12O,2.000000X1.200000*%
%TD*%
%TA.AperFunction,ComponentPad*%
%ADD13O,1.800000X1.200000*%
%TD*%
%TA.AperFunction,ViaPad*%
%ADD14C,0.600000*%
%TD*%
%TA.AperFunction,Conductor*%
%ADD15C,0.200000*%
%TD*%
%TA.AperFunction,Conductor*%
%ADD16C,0.800000*%
%TD*%
G04 APERTURE END LIST*
D10*
%TO.P,J3,1*%
%TO.N,GND*%
X39390000Y-29200000D03*
D11*
%TO.P,J3,2*%
%TO.N,+3V3*%
X41930000Y-29200000D03*
%TO.P,J3,3*%
%TO.N,/main/SWDIO*%
X44470000Y-29200000D03*
%TO.P,J3,4*%
%TO.N,/main/SWCLK*%
X47010000Y-29200000D03*
%TD*%
D10*
%TO.P,J4,1*%
%TO.N,GND*%
X26790000Y-29200000D03*
D11*
%TO.P,J4,2*%
%TO.N,+3V3*%
X29330000Y-29200000D03*
%TO.P,J4,3*%
%TO.N,/main/UART_TX*%
X31870000Y-29200000D03*
%TO.P,J4,4*%
%TO.N,/main/UART_RX*%
X34410000Y-29200000D03*
%TD*%
D12*
%TO.P,J1,1*%
%TO.N,GND*%
X25720000Y-45830000D03*
D13*
%TO.P,J1,2*%
X21540000Y-45830000D03*
%TO.P,J1,3*%
X21540000Y-37170000D03*
D12*
%TO.P,J1,4*%
X25720000Y-37170000D03*
%TD*%
D14*
%TO.N,/main/SDA*%
X43300000Y-48270000D03*
X41800000Y-35900000D03*
%TO.N,/main/SCL*%
X42830000Y-40400000D03*
X44300000Y-48900000D03*
%TO.N,+3V3*%
X32001500Y-30937700D03*
%TO.N,GND*%
X40927200Y-48142500D03*
X44223500Y-45923700D03*
X42371100Y-31628600D03*
X32577000Y-41754000D03*
X31171300Y-42068700D03*
X30100000Y-36450000D03*
X48000000Y-40820000D03*
X36245500Y-36192600D03*
X37900000Y-51716600D03*
X31542000Y-40771200D03*
X46823400Y-45573800D03*
X47800000Y-37852300D03*
X41690000Y-32190000D03*
X27035000Y-37961000D03*
X46600000Y-47000000D03*
X27035000Y-45039000D03*
X38624500Y-40759700D03*
X26855000Y-49088700D03*
X32070200Y-37662500D03*
X40808000Y-49236000D03*
X32454500Y-43450000D03*
X45200000Y-44600000D03*
X32800000Y-38150000D03*
X32837200Y-52455400D03*
X32068600Y-34375000D03*
X29357200Y-37237500D03*
X31300000Y-43250000D03*
%TO.N,VBUS*%
X27650000Y-38900000D03*
X28500000Y-45200000D03*
X27650000Y-44300000D03*
X28500000Y-37700000D03*
X28100000Y-39600000D03*
X28500000Y-44300000D03*
%TD*%
%TO.N,/main/SDA*%
D15*
X41800000Y-35900000D02*
X41800000Y-46800000D01*
X41800000Y-46800000D02*
X43300000Y-48270000D01*
%TO.N,/main/SCL*%
X42830000Y-40400000D02*
X42830000Y-46900000D01*
X42830000Y-46900000D02*
X44300000Y-48370000D01*
X44300000Y-48370000D02*
X44300000Y-48900000D01*
%TO.N,+3V3*%
X31067700Y-30937700D02*
X29330000Y-29200000D01*
X32001500Y-30937700D02*
X31067700Y-30937700D01*
%TO.N,VBUS*%
D16*
X28500000Y-44300000D02*
X28500000Y-45200000D01*
X28500000Y-39600000D02*
X28500000Y-44300000D01*
X28500000Y-38900000D02*
X28500000Y-39600000D01*
X28500000Y-39600000D02*
X28100000Y-39600000D01*
X28500000Y-37700000D02*
X28500000Y-38900000D01*
X27650000Y-44300000D02*
X28500000Y-44300000D01*
X27650000Y-38900000D02*
X28500000Y-38900000D01*
%TD*%
%TA.AperFunction,Conductor*%
%TO.N,GND*%
G36*
X54293039Y-46519685D02*
G01*
X54338794Y-46572489D01*
X54350000Y-46624000D01*
X54350000Y-54966000D01*
X54330315Y-55033039D01*
X54277511Y-55078794D01*
X54226000Y-55090000D01*
X48150000Y-55090000D01*
X48150000Y-51493713D01*
X49899500Y-51493713D01*
X49899500Y-51706286D01*
X49932753Y-51916239D01*
X49998444Y-52118414D01*
X50094951Y-52307820D01*
X50219890Y-52479786D01*
X50370213Y-52630109D01*
X50542179Y-52755048D01*
X50542181Y-52755049D01*
X50542184Y-52755051D01*
X50731588Y-52851557D01*
X50933757Y-52917246D01*
X51143713Y-52950500D01*
X51143714Y-52950500D01*
X51356286Y-52950500D01*
X51356287Y-52950500D01*
X51566243Y-52917246D01*
X51768412Y-52851557D01*
X51957816Y-52755051D01*
X51979789Y-52739086D01*
X52129786Y-52630109D01*
X52129788Y-52630106D01*
X52129792Y-52630104D01*
X52280104Y-52479792D01*
X52280106Y-52479788D01*
X52280109Y-52479786D01*
X52405048Y-52307820D01*
X52405047Y-52307820D01*
X52405051Y-52307816D01*
X52501557Y-52118412D01*
X52567246Y-51916243D01*
X52600500Y-51706287D01*
X52600500Y-51493713D01*
X52567246Y-51283757D01*
X52501557Y-51081588D01*
X52405051Y-50892184D01*
X52405049Y-50892181D01*
X52405048Y-50892179D01*
X52280109Y-50720213D01*
X52129786Y-50569890D01*
X51957820Y-50444951D01*
X51768414Y-50348444D01*
X51768413Y-50348443D01*
X51768412Y-50348443D01*
X51566243Y-50282754D01*
X51566241Y-50282753D01*
X51566240Y-50282753D01*
X51404957Y-50257208D01*
X51356287Y-50249500D01*
X51143713Y-50249500D01*
X51095042Y-50257208D01*
X50933760Y-50282753D01*
X50731585Y-50348444D01*
X50542179Y-50444951D01*
X50370213Y-50569890D01*
X50219890Y-50720213D01*
X50094951Y-50892179D01*
X49998444Y-51081585D01*
X49932753Y-51283760D01*
X49899500Y-51493713D01*
X48150000Y-51493713D01*
X48150000Y-46500000D01*
X48550000Y-46500000D01*
X54226000Y-46500000D01*
X54293039Y-46519685D01*
G37*
%TD.AperFunction*%
%TD*%
%TA.AperFunction,Conductor*%
%TO.N,GND*%
G36*
X54293039Y-27569685D02*
G01*
X54338794Y-27622489D01*
X54350000Y-27674000D01*
X54350000Y-36376000D01*
X54330315Y-36443039D01*
X54277511Y-36488794D01*
X54226000Y-36500000D01*
X48150000Y-36500000D01*
X48150000Y-30303713D01*
X49899500Y-30303713D01*
X49899500Y-30516286D01*
X49932753Y-30726239D01*
X49998444Y-30928414D01*
X50094951Y-31117820D01*
X50219890Y-31289786D01*
X50370213Y-31440109D01*
X50542179Y-31565048D01*
X50542181Y-31565049D01*
X50542184Y-31565051D01*
X50731588Y-31661557D01*
X50933757Y-31727246D01*
X51143713Y-31760500D01*
X51143714Y-31760500D01*
X51356286Y-31760500D01*
X51356287Y-31760500D01*
X51566243Y-31727246D01*
X51768412Y-31661557D01*
X51957816Y-31565051D01*
X51979789Y-31549086D01*
X52129786Y-31440109D01*
X52129788Y-31440106D01*
X52129792Y-31440104D01*
X52280104Y-31289792D01*
X52280106Y-31289788D01*
X52280109Y-31289786D01*
X52405048Y-31117820D01*
X52405047Y-31117820D01*
X52405051Y-31117816D01*
X52501557Y-30928412D01*
X52567246Y-30726243D01*
X52600500Y-30516287D01*
X52600500Y-30303713D01*
X52567246Y-30093757D01*
X52501557Y-29891588D01*
X52405051Y-29702184D01*
X52405049Y-29702181D01*
X52405048Y-29702179D01*
X52280109Y-29530213D01*
X52129786Y-29379890D01*
X51957820Y-29254951D01*
X51768414Y-29158444D01*
X51768413Y-29158443D01*
X51768412Y-29158443D01*
X51566243Y-29092754D01*
X51566241Y-29092753D01*
X51566240Y-29092753D01*
X51404957Y-29067208D01*
X51356287Y-29059500D01*
X51143713Y-29059500D01*
X51095042Y-29067208D01*
X50933760Y-29092753D01*
X50731585Y-29158444D01*
X50542179Y-29254951D01*
X50370213Y-29379890D01*
X50219890Y-29530213D01*
X50094951Y-29702179D01*
X49998444Y-29891585D01*
X49932753Y-30093760D01*
X49899500Y-30303713D01*
X48150000Y-30303713D01*
X48150000Y-27550000D01*
X54226000Y-27550000D01*
X54293039Y-27569685D01*
G37*
%TD.AperFunction*%
%TD*%
%TA.AperFunction,Conductor*%
%TO.N,GND*%
G36*
X48150000Y-30303713D02*
G01*
X48150000Y-36500000D01*
X48550000Y-36500000D01*
X48550000Y-46500000D01*
X48150000Y-46500000D01*
X48150000Y-51493713D01*
X48150000Y-55090000D01*
X19484000Y-55090000D01*
X19416961Y-55070315D01*
X19371206Y-55017511D01*
X19360000Y-54966000D01*
X19360000Y-51493713D01*
X21149500Y-51493713D01*
X21149500Y-51706286D01*
X21182753Y-51916239D01*
X21248444Y-52118414D01*
X21344951Y-52307820D01*
X21469890Y-52479786D01*
X21620213Y-52630109D01*
X21792179Y-52755048D01*
X21792181Y-52755049D01*
X21792184Y-52755051D01*
X21981588Y-52851557D01*
X22183757Y-52917246D01*
X22393713Y-52950500D01*
X22393714Y-52950500D01*
X22606286Y-52950500D01*
X22606287Y-52950500D01*
X22816243Y-52917246D01*
X23018412Y-52851557D01*
X23207816Y-52755051D01*
X23229789Y-52739086D01*
X23379786Y-52630109D01*
X23379788Y-52630106D01*
X23379792Y-52630104D01*
X23530104Y-52479792D01*
X23530106Y-52479788D01*
X23530109Y-52479786D01*
X23655048Y-52307820D01*
X23655047Y-52307820D01*
X23655051Y-52307816D01*
X23751557Y-52118412D01*
X23817246Y-51916243D01*
X23850500Y-51706287D01*
X23850500Y-51493713D01*
X23817246Y-51283757D01*
X23751557Y-51081588D01*
X23655051Y-50892184D01*
X23655049Y-50892181D01*
X23655048Y-50892179D01*
X23530109Y-50720213D01*
X23379786Y-50569890D01*
X23207820Y-50444951D01*
X23018414Y-50348444D01*
X23018413Y-50348443D01*
X23018412Y-50348443D01*
X22816243Y-50282754D01*
X22816241Y-50282753D01*
X22816240Y-50282753D01*
X22654957Y-50257208D01*
X22606287Y-50249500D01*
X22393713Y-50249500D01*
X22345042Y-50257208D01*
X22183760Y-50282753D01*
X21981585Y-50348444D01*
X21792179Y-50444951D01*
X21620213Y-50569890D01*
X21469890Y-50720213D01*
X21344951Y-50892179D01*
X21248444Y-51081585D01*
X21182753Y-51283760D01*
X21149500Y-51493713D01*
X19360000Y-51493713D01*
X19360000Y-45579999D01*
X20165884Y-45579999D01*
X20165885Y-45580000D01*
X21024316Y-45580000D01*
X21019921Y-45584395D01*
X20967260Y-45675606D01*
X20940001Y-45777339D01*
X20940001Y-45882661D01*
X20967260Y-45984394D01*
X21019921Y-46075605D01*
X21024316Y-46080000D01*
X20165885Y-46080000D01*
X20167085Y-46087584D01*
X20220591Y-46252255D01*
X20299195Y-46406524D01*
X20400967Y-46546602D01*
X20523397Y-46669032D01*
X20663475Y-46770804D01*
X20817742Y-46849408D01*
X20982415Y-46902914D01*
X21153429Y-46930000D01*
X21290000Y-46930000D01*
X21290000Y-46229999D01*
X21790000Y-46229999D01*
X21790000Y-46930000D01*
X21926571Y-46930000D01*
X22097584Y-46902914D01*
X22262257Y-46849408D01*
X22416524Y-46770804D01*
X22556602Y-46669032D01*
X22679032Y-46546602D01*
X22780804Y-46406524D01*
X22859408Y-46252255D01*
X22912914Y-46087584D01*
X22914115Y-46080000D01*
X22055684Y-46080000D01*
X22060079Y-46075605D01*
X22112740Y-45984394D01*
X22139999Y-45882661D01*
X22139999Y-45777339D01*
X22112740Y-45675606D01*
X22060079Y-45584395D01*
X22055684Y-45580000D01*
X22914115Y-45580000D01*
X22914115Y-45579999D01*
X24245884Y-45579999D01*
X24245885Y-45580000D01*
X25054316Y-45580000D01*
X25049921Y-45584395D01*
X24997260Y-45675606D01*
X24970001Y-45777339D01*
X24970001Y-45882661D01*
X24997260Y-45984394D01*
X25049921Y-46075605D01*
X25054316Y-46080000D01*
X24245885Y-46080000D01*
X24247085Y-46087584D01*
X24300591Y-46252255D01*
X24379195Y-46406524D01*
X24480967Y-46546602D01*
X24603397Y-46669032D01*
X24743475Y-46770804D01*
X24897742Y-46849408D01*
X25062415Y-46902914D01*
X25233429Y-46930000D01*
X25470000Y-46930000D01*
X25470000Y-46229999D01*
X25970000Y-46229999D01*
X25970000Y-46930000D01*
X26206571Y-46930000D01*
X26377584Y-46902914D01*
X26542257Y-46849408D01*
X26696524Y-46770804D01*
X26836602Y-46669032D01*
X26959032Y-46546602D01*
X27060804Y-46406524D01*
X27139408Y-46252255D01*
X27192914Y-46087584D01*
X27194115Y-46080000D01*
X26385684Y-46080000D01*
X26390079Y-46075605D01*
X26442740Y-45984394D01*
X26469999Y-45882661D01*
X26469999Y-45777339D01*
X26442740Y-45675606D01*
X26390079Y-45584395D01*
X26385684Y-45580000D01*
X27194115Y-45580000D01*
X27194115Y-45579999D01*
X27192914Y-45572415D01*
X27139408Y-45407744D01*
X27060804Y-45253475D01*
X26959032Y-45113397D01*
X26836602Y-44990967D01*
X26696524Y-44889195D01*
X26542257Y-44810591D01*
X26377584Y-44757085D01*
X26206571Y-44730000D01*
X25863096Y-44730000D01*
X25796057Y-44710315D01*
X25750302Y-44657511D01*
X25740358Y-44588353D01*
X25743321Y-44573906D01*
X25770500Y-44472475D01*
X25770500Y-44327525D01*
X25732984Y-44187515D01*
X25660509Y-44061985D01*
X25558015Y-43959491D01*
X25558013Y-43959490D01*
X25558011Y-43959488D01*
X25432488Y-43887017D01*
X25432489Y-43887017D01*
X25398434Y-43877892D01*
X25292475Y-43849500D01*
X25147525Y-43849500D01*
X25041566Y-43877892D01*
X25007511Y-43887017D01*
X24881988Y-43959488D01*
X24881982Y-43959493D01*
X24779493Y-44061982D01*
X24779488Y-44061988D01*
X24707017Y-44187511D01*
X24707016Y-44187515D01*
X24669500Y-44327525D01*
X24669500Y-44472475D01*
X24696679Y-44573906D01*
X24707017Y-44612488D01*
X24774513Y-44729393D01*
X24790986Y-44797293D01*
X24768134Y-44863320D01*
X24740011Y-44891711D01*
X24603404Y-44990961D01*
X24603399Y-44990965D01*
X24480967Y-45113397D01*
X24379195Y-45253475D01*
X24300591Y-45407744D01*
X24247085Y-45572415D01*
X24245884Y-45579999D01*
X22914115Y-45579999D01*
X22912914Y-45572415D01*
X22859408Y-45407744D01*
X22780804Y-45253475D01*
X22679032Y-45113397D01*
X22556602Y-44990967D01*
X22416524Y-44889195D01*
X22262257Y-44810591D01*
X22097584Y-44757085D01*
X21926571Y-44730000D01*
X21790000Y-44730000D01*
X21790000Y-45430001D01*
X21290000Y-45430001D01*
X21290000Y-44730000D01*
X21153429Y-44730000D01*
X20982415Y-44757085D01*
X20817742Y-44810591D01*
X20663475Y-44889195D01*
X20523397Y-44990967D01*
X20400967Y-45113397D01*
X20299195Y-45253475D01*
X20220591Y-45407744D01*
X20167085Y-45572415D01*
X20165884Y-45579999D01*
X19360000Y-45579999D01*
X19360000Y-36919999D01*
X20165884Y-36919999D01*
X20165885Y-36920000D01*
X21024316Y-36920000D01*
X21019921Y-36924395D01*
X20967260Y-37015606D01*
X20940001Y-37117339D01*
X20940001Y-37222661D01*
X20967260Y-37324394D01*
X21019921Y-37415605D01*
X21024316Y-37420000D01*
X20165885Y-37420000D01*
X20167085Y-37427584D01*
X20220591Y-37592255D01*
X20299195Y-37746524D01*
X20400967Y-37886602D01*
X20523397Y-38009032D01*
X20663475Y-38110804D01*
X20817742Y-38189408D01*
X20982415Y-38242914D01*
X21153429Y-38270000D01*
X21290000Y-38270000D01*
X21290000Y-37569999D01*
X21790000Y-37569999D01*
X21790000Y-38270000D01*
X21926571Y-38270000D01*
X22097584Y-38242914D01*
X22262257Y-38189408D01*
X22416524Y-38110804D01*
X22556602Y-38009032D01*
X22679032Y-37886602D01*
X22780804Y-37746524D01*
X22859408Y-37592255D01*
X22912914Y-37427584D01*
X22914115Y-37420000D01*
X22055684Y-37420000D01*
X22060079Y-37415605D01*
X22112740Y-37324394D01*
X22139999Y-37222661D01*
X22139999Y-37117339D01*
X22112740Y-37015606D01*
X22060079Y-36924395D01*
X22055684Y-36920000D01*
X22914115Y-36920000D01*
X22914115Y-36919999D01*
X24245884Y-36919999D01*
X24245885Y-36920000D01*
X25054316Y-36920000D01*
X25049921Y-36924395D01*
X24997260Y-37015606D01*
X24970001Y-37117339D01*
X24970001Y-37222661D01*
X24997260Y-37324394D01*
X25049921Y-37415605D01*
X25054316Y-37420000D01*
X24245885Y-37420000D01*
X24247085Y-37427584D01*
X24300591Y-37592255D01*
X24379195Y-37746524D01*
X24480967Y-37886602D01*
X24603401Y-38009036D01*
X24740011Y-38108287D01*
X24782678Y-38163617D01*
X24788657Y-38233230D01*
X24774515Y-38270602D01*
X24707016Y-38387515D01*
X24669500Y-38527525D01*
X24669500Y-38672475D01*
X24707016Y-38812485D01*
X24707017Y-38812488D01*
X24779488Y-38938011D01*
X24779490Y-38938013D01*
X24779491Y-38938015D01*
X24881985Y-39040509D01*
X24881986Y-39040510D01*
X24881988Y-39040511D01*
X25007511Y-39112982D01*
X25007512Y-39112982D01*
X25007515Y-39112984D01*
X25147525Y-39150500D01*
X25147528Y-39150500D01*
X25292472Y-39150500D01*
X25292475Y-39150500D01*
X25432485Y-39112984D01*
X25558015Y-39040509D01*
X25660509Y-38938015D01*
X25722552Y-38830553D01*
X27122500Y-38830553D01*
X27122500Y-38969446D01*
X27158448Y-39103606D01*
X27158449Y-39103609D01*
X27227892Y-39223889D01*
X27227894Y-39223892D01*
X27227895Y-39223893D01*
X27326107Y-39322105D01*
X27446393Y-39391552D01*
X27480839Y-39400781D01*
X27540499Y-39437145D01*
X27571029Y-39499992D01*
X27571431Y-39522426D01*
X27572500Y-39522426D01*
X27572500Y-39669446D01*
X27608448Y-39803606D01*
X27608449Y-39803609D01*
X27677892Y-39923889D01*
X27677894Y-39923892D01*
X27677895Y-39923893D01*
X27776107Y-40022105D01*
X27776108Y-40022106D01*
X27776110Y-40022107D01*
X27903432Y-40095616D01*
X27902729Y-40096832D01*
X27950351Y-40135202D01*
X27972421Y-40201494D01*
X27972500Y-40205930D01*
X27972500Y-43648500D01*
X27952815Y-43715539D01*
X27900011Y-43761294D01*
X27848500Y-43772500D01*
X27580553Y-43772500D01*
X27446393Y-43808448D01*
X27446390Y-43808449D01*
X27326110Y-43877892D01*
X27326105Y-43877896D01*
X27227896Y-43976105D01*
X27227892Y-43976110D01*
X27158449Y-44096390D01*
X27158448Y-44096393D01*
X27122500Y-44230553D01*
X27122500Y-44369447D01*
X27150106Y-44472472D01*
X27158448Y-44503606D01*
X27158449Y-44503609D01*
X27227892Y-44623889D01*
X27227894Y-44623892D01*
X27227895Y-44623893D01*
X27326107Y-44722105D01*
X27326108Y-44722106D01*
X27326110Y-44722107D01*
X27353664Y-44738015D01*
X27446393Y-44791552D01*
X27580553Y-44827500D01*
X27848500Y-44827500D01*
X27915539Y-44847185D01*
X27961294Y-44899989D01*
X27972500Y-44951500D01*
X27972500Y-45269446D01*
X28008448Y-45403606D01*
X28008449Y-45403609D01*
X28077892Y-45523889D01*
X28077894Y-45523892D01*
X28077895Y-45523893D01*
X28176107Y-45622105D01*
X28296393Y-45691552D01*
X28430553Y-45727500D01*
X28430555Y-45727500D01*
X28569445Y-45727500D01*
X28569447Y-45727500D01*
X28703607Y-45691552D01*
X28823893Y-45622105D01*
X28922105Y-45523893D01*
X28991552Y-45403607D01*
X29027500Y-45269447D01*
X29027500Y-44230553D01*
X29027500Y-39530553D01*
X29027500Y-38830553D01*
X29027500Y-37630553D01*
X28991552Y-37496393D01*
X28922105Y-37376107D01*
X28823893Y-37277895D01*
X28823892Y-37277894D01*
X28823889Y-37277892D01*
X28703609Y-37208449D01*
X28703608Y-37208448D01*
X28703607Y-37208448D01*
X28569447Y-37172500D01*
X28430553Y-37172500D01*
X28296393Y-37208448D01*
X28296390Y-37208449D01*
X28176110Y-37277892D01*
X28176105Y-37277896D01*
X28077896Y-37376105D01*
X28077892Y-37376110D01*
X28008449Y-37496390D01*
X28008448Y-37496393D01*
X27972500Y-37630553D01*
X27972500Y-38248500D01*
X27952815Y-38315539D01*
X27900011Y-38361294D01*
X27848500Y-38372500D01*
X27580553Y-38372500D01*
X27446393Y-38408448D01*
X27446390Y-38408449D01*
X27326110Y-38477892D01*
X27326105Y-38477896D01*
X27227896Y-38576105D01*
X27227892Y-38576110D01*
X27158449Y-38696390D01*
X27158448Y-38696393D01*
X27122500Y-38830553D01*
X25722552Y-38830553D01*
X25732984Y-38812485D01*
X25770500Y-38672475D01*
X25770500Y-38527525D01*
X25743321Y-38426092D01*
X25744984Y-38356244D01*
X25784146Y-38298381D01*
X25848375Y-38270877D01*
X25863096Y-38270000D01*
X26206571Y-38270000D01*
X26377584Y-38242914D01*
X26542257Y-38189408D01*
X26696524Y-38110804D01*
X26836602Y-38009032D01*
X26959032Y-37886602D01*
X27060804Y-37746524D01*
X27139408Y-37592255D01*
X27192914Y-37427584D01*
X27194115Y-37420000D01*
X26385684Y-37420000D01*
X26390079Y-37415605D01*
X26442740Y-37324394D01*
X26469999Y-37222661D01*
X26469999Y-37117339D01*
X26442740Y-37015606D01*
X26390079Y-36924395D01*
X26385684Y-36920000D01*
X27194115Y-36920000D01*
X27194115Y-36919999D01*
X27192914Y-36912415D01*
X27139408Y-36747744D01*
X27060804Y-36593475D01*
X26959032Y-36453397D01*
X26836602Y-36330967D01*
X26696524Y-36229195D01*
X26542257Y-36150591D01*
X26377584Y-36097085D01*
X26206571Y-36070000D01*
X25970000Y-36070000D01*
X25970000Y-36770001D01*
X25470000Y-36770001D01*
X25470000Y-36070000D01*
X25233429Y-36070000D01*
X25062415Y-36097085D01*
X24897742Y-36150591D01*
X24743475Y-36229195D01*
X24603397Y-36330967D01*
X24480967Y-36453397D01*
X24379195Y-36593475D01*
X24300591Y-36747744D01*
X24247085Y-36912415D01*
X24245884Y-36919999D01*
X22914115Y-36919999D01*
X22912914Y-36912415D01*
X22859408Y-36747744D01*
X22780804Y-36593475D01*
X22679032Y-36453397D01*
X22556602Y-36330967D01*
X22416524Y-36229195D01*
X22262257Y-36150591D01*
X22097584Y-36097085D01*
X21926571Y-36070000D01*
X21790000Y-36070000D01*
X21790000Y-36770001D01*
X21290000Y-36770001D01*
X21290000Y-36070000D01*
X21153429Y-36070000D01*
X20982415Y-36097085D01*
X20817742Y-36150591D01*
X20663475Y-36229195D01*
X20523397Y-36330967D01*
X20400967Y-36453397D01*
X20299195Y-36593475D01*
X20220591Y-36747744D01*
X20167085Y-36912415D01*
X20165884Y-36919999D01*
X19360000Y-36919999D01*
X19360000Y-35843719D01*
X41372500Y-35843719D01*
X41372500Y-35956280D01*
X41401633Y-36065010D01*
X41420152Y-36097085D01*
X41457915Y-36162491D01*
X41457917Y-36162493D01*
X41536181Y-36240757D01*
X41569666Y-36302080D01*
X41572500Y-36328438D01*
X41572500Y-46743105D01*
X41571971Y-46748765D01*
X41572494Y-46800514D01*
X41572500Y-46801766D01*
X41572500Y-46845314D01*
X41572590Y-46845743D01*
X41572858Y-46847057D01*
X41572943Y-46847487D01*
X41590014Y-46887552D01*
X41590497Y-46888703D01*
X41607158Y-46928926D01*
X41607470Y-46929382D01*
X41608172Y-46930421D01*
X41608406Y-46930771D01*
X41639544Y-46961286D01*
X41640435Y-46962168D01*
X41677001Y-46998734D01*
X41681407Y-47002311D01*
X42835291Y-48133118D01*
X42869394Y-48194098D01*
X42872500Y-48221679D01*
X42872500Y-48326280D01*
X42901633Y-48435010D01*
X42929774Y-48483750D01*
X42957915Y-48532491D01*
X43037509Y-48612085D01*
X43134991Y-48668367D01*
X43243719Y-48697500D01*
X43243721Y-48697500D01*
X43356279Y-48697500D01*
X43356281Y-48697500D01*
X43465009Y-48668367D01*
X43562491Y-48612085D01*
X43642085Y-48532491D01*
X43698367Y-48435009D01*
X43715667Y-48370441D01*
X43752030Y-48310783D01*
X43814876Y-48280253D01*
X43884252Y-48288547D01*
X43923122Y-48314855D01*
X44014164Y-48405897D01*
X44047649Y-48467220D01*
X44042665Y-48536912D01*
X44014165Y-48581259D01*
X43957914Y-48637509D01*
X43901633Y-48734989D01*
X43872500Y-48843719D01*
X43872500Y-48956280D01*
X43901633Y-49065010D01*
X43929774Y-49113750D01*
X43957915Y-49162491D01*
X44037509Y-49242085D01*
X44134991Y-49298367D01*
X44243719Y-49327500D01*
X44243721Y-49327500D01*
X44356279Y-49327500D01*
X44356281Y-49327500D01*
X44465009Y-49298367D01*
X44562491Y-49242085D01*
X44642085Y-49162491D01*
X44698367Y-49065009D01*
X44727500Y-48956281D01*
X44727500Y-48843719D01*
X44698367Y-48734991D01*
X44642085Y-48637509D01*
X44563818Y-48559242D01*
X44530334Y-48497918D01*
X44527500Y-48471561D01*
X44527500Y-48324747D01*
X44527499Y-48324743D01*
X44522614Y-48312950D01*
X44522613Y-48312948D01*
X44492868Y-48241137D01*
X44492866Y-48241132D01*
X43093819Y-46842085D01*
X43060334Y-46780762D01*
X43057500Y-46754404D01*
X43057500Y-40828438D01*
X43077185Y-40761399D01*
X43093819Y-40740757D01*
X43172085Y-40662491D01*
X43228367Y-40565009D01*
X43257500Y-40456281D01*
X43257500Y-40343719D01*
X43228367Y-40234991D01*
X43172085Y-40137509D01*
X43092491Y-40057915D01*
X43030464Y-40022103D01*
X42995010Y-40001633D01*
X42940645Y-39987066D01*
X42886281Y-39972500D01*
X42773719Y-39972500D01*
X42664989Y-40001633D01*
X42567509Y-40057915D01*
X42567506Y-40057917D01*
X42487917Y-40137506D01*
X42487915Y-40137509D01*
X42431633Y-40234989D01*
X42402500Y-40343719D01*
X42402500Y-40456280D01*
X42431633Y-40565010D01*
X42459774Y-40613750D01*
X42487915Y-40662491D01*
X42487917Y-40662493D01*
X42566181Y-40740757D01*
X42599666Y-40802080D01*
X42602500Y-40828438D01*
X42602500Y-46945256D01*
X42603901Y-46952301D01*
X42597671Y-47021893D01*
X42554806Y-47077068D01*
X42488916Y-47100310D01*
X42420919Y-47084240D01*
X42395492Y-47065050D01*
X42064709Y-46740882D01*
X42030606Y-46679900D01*
X42027500Y-46652320D01*
X42027500Y-36328438D01*
X42047185Y-36261399D01*
X42063819Y-36240757D01*
X42075381Y-36229195D01*
X42142085Y-36162491D01*
X42198367Y-36065009D01*
X42227500Y-35956281D01*
X42227500Y-35843719D01*
X42198367Y-35734991D01*
X42142085Y-35637509D01*
X42062491Y-35557915D01*
X42013750Y-35529774D01*
X41965010Y-35501633D01*
X41910645Y-35487066D01*
X41856281Y-35472500D01*
X41743719Y-35472500D01*
X41634989Y-35501633D01*
X41537509Y-35557915D01*
X41537506Y-35557917D01*
X41457917Y-35637506D01*
X41457915Y-35637509D01*
X41401633Y-35734989D01*
X41372500Y-35843719D01*
X19360000Y-35843719D01*
X19360000Y-30303713D01*
X21149500Y-30303713D01*
X21149500Y-30516287D01*
X21154840Y-30550000D01*
X21174460Y-30673881D01*
X21182754Y-30726243D01*
X21197845Y-30772689D01*
X21248444Y-30928414D01*
X21344951Y-31117820D01*
X21469890Y-31289786D01*
X21620213Y-31440109D01*
X21792179Y-31565048D01*
X21792181Y-31565049D01*
X21792184Y-31565051D01*
X21981588Y-31661557D01*
X22183757Y-31727246D01*
X22393713Y-31760500D01*
X22393714Y-31760500D01*
X22606286Y-31760500D01*
X22606287Y-31760500D01*
X22816243Y-31727246D01*
X23018412Y-31661557D01*
X23207816Y-31565051D01*
X23229789Y-31549086D01*
X23379786Y-31440109D01*
X23379788Y-31440106D01*
X23379792Y-31440104D01*
X23530104Y-31289792D01*
X23530106Y-31289788D01*
X23530109Y-31289786D01*
X23655048Y-31117820D01*
X23655047Y-31117820D01*
X23655051Y-31117816D01*
X23751557Y-30928412D01*
X23817246Y-30726243D01*
X23850500Y-30516287D01*
X23850500Y-30303713D01*
X23817246Y-30093757D01*
X23751557Y-29891588D01*
X23655051Y-29702184D01*
X23655049Y-29702181D01*
X23655048Y-29702179D01*
X23530109Y-29530213D01*
X23379786Y-29379890D01*
X23207820Y-29254951D01*
X23018414Y-29158444D01*
X23018413Y-29158443D01*
X23018412Y-29158443D01*
X22816243Y-29092754D01*
X22816241Y-29092753D01*
X22816240Y-29092753D01*
X22654957Y-29067208D01*
X22606287Y-29059500D01*
X22393713Y-29059500D01*
X22345042Y-29067208D01*
X22183760Y-29092753D01*
X21981585Y-29158444D01*
X21792179Y-29254951D01*
X21620213Y-29379890D01*
X21469890Y-29530213D01*
X21344951Y-29702179D01*
X21248444Y-29891585D01*
X21182753Y-30093760D01*
X21172678Y-30157372D01*
X21149500Y-30303713D01*
X19360000Y-30303713D01*
X19360000Y-28302155D01*
X25440000Y-28302155D01*
X25440000Y-28950000D01*
X26299238Y-28950000D01*
X26277470Y-28987703D01*
X26239988Y-29127590D01*
X26239988Y-29272410D01*
X26277470Y-29412297D01*
X26299238Y-29450000D01*
X25440000Y-29450000D01*
X25440000Y-30097844D01*
X25446401Y-30157372D01*
X25446403Y-30157379D01*
X25496645Y-30292086D01*
X25496649Y-30292093D01*
X25582809Y-30407187D01*
X25582812Y-30407190D01*
X25697906Y-30493350D01*
X25697913Y-30493354D01*
X25832620Y-30543596D01*
X25832627Y-30543598D01*
X25892155Y-30549999D01*
X25892172Y-30550000D01*
X26540000Y-30550000D01*
X26540000Y-29690761D01*
X26577703Y-29712530D01*
X26717590Y-29750012D01*
X26862410Y-29750012D01*
X27002297Y-29712530D01*
X27040000Y-29690761D01*
X27040000Y-30550000D01*
X27687828Y-30550000D01*
X27687844Y-30549999D01*
X27747372Y-30543598D01*
X27747379Y-30543596D01*
X27882086Y-30493354D01*
X27882093Y-30493350D01*
X27997187Y-30407190D01*
X27997190Y-30407187D01*
X28083350Y-30292093D01*
X28083354Y-30292086D01*
X28133596Y-30157379D01*
X28133598Y-30157372D01*
X28139999Y-30097844D01*
X28140000Y-30097827D01*
X28140000Y-29486961D01*
X28159685Y-29419922D01*
X28212489Y-29374167D01*
X28281647Y-29364223D01*
X28345203Y-29393248D01*
X28382977Y-29452026D01*
X28385614Y-29462758D01*
X28390062Y-29485118D01*
X28390064Y-29485126D01*
X28390066Y-29485132D01*
X28463746Y-29663013D01*
X28463753Y-29663026D01*
X28570725Y-29823119D01*
X28570728Y-29823123D01*
X28706876Y-29959271D01*
X28706880Y-29959274D01*
X28866973Y-30066246D01*
X28866986Y-30066253D01*
X28950794Y-30100967D01*
X29044874Y-30139936D01*
X29233720Y-30177499D01*
X29233724Y-30177500D01*
X29233725Y-30177500D01*
X29426276Y-30177500D01*
X29426277Y-30177499D01*
X29615126Y-30139936D01*
X29774100Y-30074086D01*
X29843569Y-30066618D01*
X29906048Y-30097893D01*
X29909233Y-30100967D01*
X30938834Y-31130568D01*
X31003501Y-31157352D01*
X31022447Y-31165200D01*
X31573062Y-31165200D01*
X31640101Y-31184885D01*
X31660743Y-31201519D01*
X31739009Y-31279785D01*
X31836491Y-31336067D01*
X31945219Y-31365200D01*
X31945221Y-31365200D01*
X32057779Y-31365200D01*
X32057781Y-31365200D01*
X32166509Y-31336067D01*
X32263991Y-31279785D01*
X32343585Y-31200191D01*
X32399867Y-31102709D01*
X32429000Y-30993981D01*
X32429000Y-30881419D01*
X32399867Y-30772691D01*
X32343585Y-30675209D01*
X32263991Y-30595615D01*
X32184983Y-30549999D01*
X32166510Y-30539333D01*
X32080498Y-30516287D01*
X32057781Y-30510200D01*
X31945219Y-30510200D01*
X31836489Y-30539333D01*
X31739009Y-30595615D01*
X31739006Y-30595617D01*
X31660743Y-30673881D01*
X31599420Y-30707366D01*
X31573062Y-30710200D01*
X31213296Y-30710200D01*
X31146257Y-30690515D01*
X31125615Y-30673881D01*
X30230967Y-29779233D01*
X30197482Y-29717910D01*
X30202466Y-29648218D01*
X30204087Y-29644099D01*
X30205736Y-29640119D01*
X30269936Y-29485126D01*
X30307500Y-29296275D01*
X30307500Y-29103725D01*
X30307499Y-29103720D01*
X30892500Y-29103720D01*
X30892500Y-29296279D01*
X30930062Y-29485118D01*
X30930066Y-29485132D01*
X31003746Y-29663013D01*
X31003753Y-29663026D01*
X31110725Y-29823119D01*
X31110728Y-29823123D01*
X31246876Y-29959271D01*
X31246880Y-29959274D01*
X31406973Y-30066246D01*
X31406986Y-30066253D01*
X31490794Y-30100967D01*
X31584874Y-30139936D01*
X31773720Y-30177499D01*
X31773724Y-30177500D01*
X31773725Y-30177500D01*
X31966276Y-30177500D01*
X31966277Y-30177499D01*
X32155126Y-30139936D01*
X32333020Y-30066250D01*
X32493120Y-29959274D01*
X32629274Y-29823120D01*
X32736250Y-29663020D01*
X32809936Y-29485126D01*
X32847500Y-29296275D01*
X32847500Y-29103725D01*
X32847499Y-29103720D01*
X33432500Y-29103720D01*
X33432500Y-29296279D01*
X33470062Y-29485118D01*
X33470066Y-29485132D01*
X33543746Y-29663013D01*
X33543753Y-29663026D01*
X33650725Y-29823119D01*
X33650728Y-29823123D01*
X33786876Y-29959271D01*
X33786880Y-29959274D01*
X33946973Y-30066246D01*
X33946986Y-30066253D01*
X34030794Y-30100967D01*
X34124874Y-30139936D01*
X34313720Y-30177499D01*
X34313724Y-30177500D01*
X34313725Y-30177500D01*
X34506276Y-30177500D01*
X34506277Y-30177499D01*
X34695126Y-30139936D01*
X34873020Y-30066250D01*
X35033120Y-29959274D01*
X35169274Y-29823120D01*
X35276250Y-29663020D01*
X35349936Y-29485126D01*
X35387500Y-29296275D01*
X35387500Y-29103725D01*
X35349936Y-28914874D01*
X35285736Y-28759881D01*
X35276253Y-28736986D01*
X35276246Y-28736973D01*
X35169274Y-28576880D01*
X35169271Y-28576876D01*
X35033123Y-28440728D01*
X35033119Y-28440725D01*
X34975093Y-28401953D01*
X34873026Y-28333753D01*
X34873013Y-28333746D01*
X34796745Y-28302155D01*
X38040000Y-28302155D01*
X38040000Y-28950000D01*
X38899238Y-28950000D01*
X38877470Y-28987703D01*
X38839988Y-29127590D01*
X38839988Y-29272410D01*
X38877470Y-29412297D01*
X38899238Y-29450000D01*
X38040000Y-29450000D01*
X38040000Y-30097844D01*
X38046401Y-30157372D01*
X38046403Y-30157379D01*
X38096645Y-30292086D01*
X38096649Y-30292093D01*
X38182809Y-30407187D01*
X38182812Y-30407190D01*
X38297906Y-30493350D01*
X38297913Y-30493354D01*
X38432620Y-30543596D01*
X38432627Y-30543598D01*
X38492155Y-30549999D01*
X38492172Y-30550000D01*
X39140000Y-30550000D01*
X39140000Y-29690761D01*
X39177703Y-29712530D01*
X39317590Y-29750012D01*
X39462410Y-29750012D01*
X39602297Y-29712530D01*
X39640000Y-29690761D01*
X39640000Y-30550000D01*
X40287828Y-30550000D01*
X40287844Y-30549999D01*
X40347372Y-30543598D01*
X40347379Y-30543596D01*
X40482086Y-30493354D01*
X40482093Y-30493350D01*
X40597187Y-30407190D01*
X40597190Y-30407187D01*
X40683350Y-30292093D01*
X40683354Y-30292086D01*
X40733596Y-30157379D01*
X40733598Y-30157372D01*
X40739999Y-30097844D01*
X40740000Y-30097827D01*
X40740000Y-29486961D01*
X40759685Y-29419922D01*
X40812489Y-29374167D01*
X40881647Y-29364223D01*
X40945203Y-29393248D01*
X40982977Y-29452026D01*
X40985614Y-29462758D01*
X40990062Y-29485118D01*
X40990064Y-29485126D01*
X40990066Y-29485132D01*
X41063746Y-29663013D01*
X41063753Y-29663026D01*
X41170725Y-29823119D01*
X41170728Y-29823123D01*
X41306876Y-29959271D01*
X41306880Y-29959274D01*
X41466973Y-30066246D01*
X41466986Y-30066253D01*
X41550794Y-30100967D01*
X41644874Y-30139936D01*
X41833720Y-30177499D01*
X41833724Y-30177500D01*
X41833725Y-30177500D01*
X42026276Y-30177500D01*
X42026277Y-30177499D01*
X42215126Y-30139936D01*
X42393020Y-30066250D01*
X42553120Y-29959274D01*
X42689274Y-29823120D01*
X42796250Y-29663020D01*
X42869936Y-29485126D01*
X42907500Y-29296275D01*
X42907500Y-29103725D01*
X42907499Y-29103720D01*
X43492500Y-29103720D01*
X43492500Y-29296279D01*
X43530062Y-29485118D01*
X43530066Y-29485132D01*
X43603746Y-29663013D01*
X43603753Y-29663026D01*
X43710725Y-29823119D01*
X43710728Y-29823123D01*
X43846876Y-29959271D01*
X43846880Y-29959274D01*
X44006973Y-30066246D01*
X44006986Y-30066253D01*
X44090794Y-30100967D01*
X44184874Y-30139936D01*
X44373720Y-30177499D01*
X44373724Y-30177500D01*
X44373725Y-30177500D01*
X44566276Y-30177500D01*
X44566277Y-30177499D01*
X44755126Y-30139936D01*
X44933020Y-30066250D01*
X45093120Y-29959274D01*
X45229274Y-29823120D01*
X45336250Y-29663020D01*
X45409936Y-29485126D01*
X45447500Y-29296275D01*
X45447500Y-29103725D01*
X45447499Y-29103720D01*
X46032500Y-29103720D01*
X46032500Y-29296279D01*
X46070062Y-29485118D01*
X46070066Y-29485132D01*
X46143746Y-29663013D01*
X46143753Y-29663026D01*
X46250725Y-29823119D01*
X46250728Y-29823123D01*
X46386876Y-29959271D01*
X46386880Y-29959274D01*
X46546973Y-30066246D01*
X46546986Y-30066253D01*
X46630794Y-30100967D01*
X46724874Y-30139936D01*
X46913720Y-30177499D01*
X46913724Y-30177500D01*
X46913725Y-30177500D01*
X47106276Y-30177500D01*
X47106277Y-30177499D01*
X47295126Y-30139936D01*
X47473020Y-30066250D01*
X47633120Y-29959274D01*
X47769274Y-29823120D01*
X47876250Y-29663020D01*
X47949936Y-29485126D01*
X47987500Y-29296275D01*
X47987500Y-29103725D01*
X47949936Y-28914874D01*
X47885736Y-28759881D01*
X47876253Y-28736986D01*
X47876246Y-28736973D01*
X47769274Y-28576880D01*
X47769271Y-28576876D01*
X47633123Y-28440728D01*
X47633119Y-28440725D01*
X47473026Y-28333753D01*
X47473013Y-28333746D01*
X47295132Y-28260066D01*
X47295128Y-28260064D01*
X47295126Y-28260064D01*
X47295122Y-28260063D01*
X47295118Y-28260062D01*
X47106279Y-28222500D01*
X47106275Y-28222500D01*
X46913725Y-28222500D01*
X46913720Y-28222500D01*
X46724881Y-28260062D01*
X46724867Y-28260066D01*
X46546986Y-28333746D01*
X46546973Y-28333753D01*
X46386880Y-28440725D01*
X46386876Y-28440728D01*
X46250728Y-28576876D01*
X46250725Y-28576880D01*
X46143753Y-28736973D01*
X46143746Y-28736986D01*
X46070066Y-28914867D01*
X46070062Y-28914881D01*
X46032500Y-29103720D01*
X45447499Y-29103720D01*
X45409936Y-28914874D01*
X45345736Y-28759881D01*
X45336253Y-28736986D01*
X45336246Y-28736973D01*
X45229274Y-28576880D01*
X45229271Y-28576876D01*
X45093123Y-28440728D01*
X45093119Y-28440725D01*
X44933026Y-28333753D01*
X44933013Y-28333746D01*
X44755132Y-28260066D01*
X44755128Y-28260064D01*
X44755126Y-28260064D01*
X44755122Y-28260063D01*
X44755118Y-28260062D01*
X44566279Y-28222500D01*
X44566275Y-28222500D01*
X44373725Y-28222500D01*
X44373720Y-28222500D01*
X44184881Y-28260062D01*
X44184867Y-28260066D01*
X44006986Y-28333746D01*
X44006973Y-28333753D01*
X43846880Y-28440725D01*
X43846876Y-28440728D01*
X43710728Y-28576876D01*
X43710725Y-28576880D01*
X43603753Y-28736973D01*
X43603746Y-28736986D01*
X43530066Y-28914867D01*
X43530062Y-28914881D01*
X43492500Y-29103720D01*
X42907499Y-29103720D01*
X42869936Y-28914874D01*
X42805736Y-28759881D01*
X42796253Y-28736986D01*
X42796246Y-28736973D01*
X42689274Y-28576880D01*
X42689271Y-28576876D01*
X42553123Y-28440728D01*
X42553119Y-28440725D01*
X42393026Y-28333753D01*
X42393013Y-28333746D01*
X42215132Y-28260066D01*
X42215128Y-28260064D01*
X42215126Y-28260064D01*
X42215122Y-28260063D01*
X42215118Y-28260062D01*
X42026279Y-28222500D01*
X42026275Y-28222500D01*
X41833725Y-28222500D01*
X41833720Y-28222500D01*
X41644881Y-28260062D01*
X41644867Y-28260066D01*
X41466986Y-28333746D01*
X41466973Y-28333753D01*
X41306880Y-28440725D01*
X41306876Y-28440728D01*
X41170728Y-28576876D01*
X41170725Y-28576880D01*
X41063753Y-28736973D01*
X41063746Y-28736986D01*
X40990066Y-28914867D01*
X40990062Y-28914881D01*
X40985617Y-28937229D01*
X40953232Y-28999140D01*
X40892517Y-29033714D01*
X40822747Y-29029975D01*
X40766075Y-28989108D01*
X40740494Y-28924090D01*
X40740000Y-28913038D01*
X40740000Y-28302172D01*
X40739999Y-28302155D01*
X40733598Y-28242627D01*
X40733596Y-28242620D01*
X40683354Y-28107913D01*
X40683350Y-28107906D01*
X40597190Y-27992812D01*
X40597187Y-27992809D01*
X40482093Y-27906649D01*
X40482086Y-27906645D01*
X40347379Y-27856403D01*
X40347372Y-27856401D01*
X40287844Y-27850000D01*
X39640000Y-27850000D01*
X39640000Y-28709238D01*
X39602297Y-28687470D01*
X39462410Y-28649988D01*
X39317590Y-28649988D01*
X39177703Y-28687470D01*
X39140000Y-28709238D01*
X39140000Y-27850000D01*
X38492155Y-27850000D01*
X38432627Y-27856401D01*
X38432620Y-27856403D01*
X38297913Y-27906645D01*
X38297906Y-27906649D01*
X38182812Y-27992809D01*
X38182809Y-27992812D01*
X38096649Y-28107906D01*
X38096645Y-28107913D01*
X38046403Y-28242620D01*
X38046401Y-28242627D01*
X38040000Y-28302155D01*
X34796745Y-28302155D01*
X34695132Y-28260066D01*
X34695128Y-28260064D01*
X34695126Y-28260064D01*
X34695122Y-28260063D01*
X34695118Y-28260062D01*
X34506279Y-28222500D01*
X34506275Y-28222500D01*
X34313725Y-28222500D01*
X34313720Y-28222500D01*
X34124881Y-28260062D01*
X34124867Y-28260066D01*
X33946986Y-28333746D01*
X33946973Y-28333753D01*
X33786880Y-28440725D01*
X33786876Y-28440728D01*
X33650728Y-28576876D01*
X33650725Y-28576880D01*
X33543753Y-28736973D01*
X33543746Y-28736986D01*
X33470066Y-28914867D01*
X33470062Y-28914881D01*
X33432500Y-29103720D01*
X32847499Y-29103720D01*
X32809936Y-28914874D01*
X32745736Y-28759881D01*
X32736253Y-28736986D01*
X32736246Y-28736973D01*
X32629274Y-28576880D01*
X32629271Y-28576876D01*
X32493123Y-28440728D01*
X32493119Y-28440725D01*
X32333026Y-28333753D01*
X32333013Y-28333746D01*
X32155132Y-28260066D01*
X32155128Y-28260064D01*
X32155126Y-28260064D01*
X32155122Y-28260063D01*
X32155118Y-28260062D01*
X31966279Y-28222500D01*
X31966275Y-28222500D01*
X31773725Y-28222500D01*
X31773720Y-28222500D01*
X31584881Y-28260062D01*
X31584867Y-28260066D01*
X31406986Y-28333746D01*
X31406973Y-28333753D01*
X31246880Y-28440725D01*
X31246876Y-28440728D01*
X31110728Y-28576876D01*
X31110725Y-28576880D01*
X31003753Y-28736973D01*
X31003746Y-28736986D01*
X30930066Y-28914867D01*
X30930062Y-28914881D01*
X30892500Y-29103720D01*
X30307499Y-29103720D01*
X30269936Y-28914874D01*
X30205736Y-28759881D01*
X30196253Y-28736986D01*
X30196246Y-28736973D01*
X30089274Y-28576880D01*
X30089271Y-28576876D01*
X29953123Y-28440728D01*
X29953119Y-28440725D01*
X29793026Y-28333753D01*
X29793013Y-28333746D01*
X29615132Y-28260066D01*
X29615128Y-28260064D01*
X29615126Y-28260064D01*
X29615122Y-28260063D01*
X29615118Y-28260062D01*
X29426279Y-28222500D01*
X29426275Y-28222500D01*
X29233725Y-28222500D01*
X29233720Y-28222500D01*
X29044881Y-28260062D01*
X29044867Y-28260066D01*
X28866986Y-28333746D01*
X28866973Y-28333753D01*
X28706880Y-28440725D01*
X28706876Y-28440728D01*
X28570728Y-28576876D01*
X28570725Y-28576880D01*
X28463753Y-28736973D01*
X28463746Y-28736986D01*
X28390066Y-28914867D01*
X28390062Y-28914881D01*
X28385617Y-28937229D01*
X28353232Y-28999140D01*
X28292517Y-29033714D01*
X28222747Y-29029975D01*
X28166075Y-28989108D01*
X28140494Y-28924090D01*
X28140000Y-28913038D01*
X28140000Y-28302172D01*
X28139999Y-28302155D01*
X28133598Y-28242627D01*
X28133596Y-28242620D01*
X28083354Y-28107913D01*
X28083350Y-28107906D01*
X27997190Y-27992812D01*
X27997187Y-27992809D01*
X27882093Y-27906649D01*
X27882086Y-27906645D01*
X27747379Y-27856403D01*
X27747372Y-27856401D01*
X27687844Y-27850000D01*
X27040000Y-27850000D01*
X27040000Y-28709238D01*
X27002297Y-28687470D01*
X26862410Y-28649988D01*
X26717590Y-28649988D01*
X26577703Y-28687470D01*
X26540000Y-28709238D01*
X26540000Y-27850000D01*
X25892155Y-27850000D01*
X25832627Y-27856401D01*
X25832620Y-27856403D01*
X25697913Y-27906645D01*
X25697906Y-27906649D01*
X25582812Y-27992809D01*
X25582809Y-27992812D01*
X25496649Y-28107906D01*
X25496645Y-28107913D01*
X25446403Y-28242620D01*
X25446401Y-28242627D01*
X25440000Y-28302155D01*
X19360000Y-28302155D01*
X19360000Y-27674000D01*
X19379685Y-27606961D01*
X19432489Y-27561206D01*
X19484000Y-27550000D01*
X48150000Y-27550000D01*
X48150000Y-30303713D01*
G37*
%TD.AperFunction*%
%TD*%
M02*
