%TF.GenerationSoftware,KiCad,Pcbnew,10.0.5*%
%TF.CreationDate,2026-08-27T19:41:41+00:00*%
%TF.ProjectId,g0-sense,67302d73-656e-4736-952e-6b696361645f,rev?*%
%TF.SameCoordinates,Original*%
%TF.FileFunction,Legend,Top*%
%TF.FilePolarity,Positive*%
%FSLAX46Y46*%
G04 Gerber Fmt 4.6, Leading zero omitted, Abs format (unit mm)*
G04 Created by KiCad (PCBNEW 10.0.5) date 2026-08-27 19:41:41*
%MOMM*%
%LPD*%
G01*
G04 APERTURE LIST*
%ADD10C,0.150000*%
%ADD11C,0.080000*%
%ADD12C,0.060000*%
%ADD13C,0.250000*%
%ADD14C,0.300000*%
%ADD15C,0.200000*%
G04 APERTURE END LIST*
D10*
X27051904Y-31102438D02*
X26956666Y-31054819D01*
X26956666Y-31054819D02*
X26813809Y-31054819D01*
X26813809Y-31054819D02*
X26670952Y-31102438D01*
X26670952Y-31102438D02*
X26575714Y-31197676D01*
X26575714Y-31197676D02*
X26528095Y-31292914D01*
X26528095Y-31292914D02*
X26480476Y-31483390D01*
X26480476Y-31483390D02*
X26480476Y-31626247D01*
X26480476Y-31626247D02*
X26528095Y-31816723D01*
X26528095Y-31816723D02*
X26575714Y-31911961D01*
X26575714Y-31911961D02*
X26670952Y-32007200D01*
X26670952Y-32007200D02*
X26813809Y-32054819D01*
X26813809Y-32054819D02*
X26909047Y-32054819D01*
X26909047Y-32054819D02*
X27051904Y-32007200D01*
X27051904Y-32007200D02*
X27099523Y-31959580D01*
X27099523Y-31959580D02*
X27099523Y-31626247D01*
X27099523Y-31626247D02*
X26909047Y-31626247D01*
X34243333Y-32054819D02*
X33910000Y-31578628D01*
X33671905Y-32054819D02*
X33671905Y-31054819D01*
X33671905Y-31054819D02*
X34052857Y-31054819D01*
X34052857Y-31054819D02*
X34148095Y-31102438D01*
X34148095Y-31102438D02*
X34195714Y-31150057D01*
X34195714Y-31150057D02*
X34243333Y-31245295D01*
X34243333Y-31245295D02*
X34243333Y-31388152D01*
X34243333Y-31388152D02*
X34195714Y-31483390D01*
X34195714Y-31483390D02*
X34148095Y-31531009D01*
X34148095Y-31531009D02*
X34052857Y-31578628D01*
X34052857Y-31578628D02*
X33671905Y-31578628D01*
X34576667Y-31054819D02*
X35243333Y-32054819D01*
X35243333Y-31054819D02*
X34576667Y-32054819D01*
X39651904Y-31102438D02*
X39556666Y-31054819D01*
X39556666Y-31054819D02*
X39413809Y-31054819D01*
X39413809Y-31054819D02*
X39270952Y-31102438D01*
X39270952Y-31102438D02*
X39175714Y-31197676D01*
X39175714Y-31197676D02*
X39128095Y-31292914D01*
X39128095Y-31292914D02*
X39080476Y-31483390D01*
X39080476Y-31483390D02*
X39080476Y-31626247D01*
X39080476Y-31626247D02*
X39128095Y-31816723D01*
X39128095Y-31816723D02*
X39175714Y-31911961D01*
X39175714Y-31911961D02*
X39270952Y-32007200D01*
X39270952Y-32007200D02*
X39413809Y-32054819D01*
X39413809Y-32054819D02*
X39509047Y-32054819D01*
X39509047Y-32054819D02*
X39651904Y-32007200D01*
X39651904Y-32007200D02*
X39699523Y-31959580D01*
X39699523Y-31959580D02*
X39699523Y-31626247D01*
X39699523Y-31626247D02*
X39509047Y-31626247D01*
X46414761Y-31959580D02*
X46367142Y-32007200D01*
X46367142Y-32007200D02*
X46224285Y-32054819D01*
X46224285Y-32054819D02*
X46129047Y-32054819D01*
X46129047Y-32054819D02*
X45986190Y-32007200D01*
X45986190Y-32007200D02*
X45890952Y-31911961D01*
X45890952Y-31911961D02*
X45843333Y-31816723D01*
X45843333Y-31816723D02*
X45795714Y-31626247D01*
X45795714Y-31626247D02*
X45795714Y-31483390D01*
X45795714Y-31483390D02*
X45843333Y-31292914D01*
X45843333Y-31292914D02*
X45890952Y-31197676D01*
X45890952Y-31197676D02*
X45986190Y-31102438D01*
X45986190Y-31102438D02*
X46129047Y-31054819D01*
X46129047Y-31054819D02*
X46224285Y-31054819D01*
X46224285Y-31054819D02*
X46367142Y-31102438D01*
X46367142Y-31102438D02*
X46414761Y-31150057D01*
X47319523Y-32054819D02*
X46843333Y-32054819D01*
X46843333Y-32054819D02*
X46843333Y-31054819D01*
X47652857Y-32054819D02*
X47652857Y-31054819D01*
X48224285Y-32054819D02*
X47795714Y-31483390D01*
X48224285Y-31054819D02*
X47652857Y-31626247D01*
X50269819Y-43261904D02*
X51079342Y-43261904D01*
X51079342Y-43261904D02*
X51174580Y-43214285D01*
X51174580Y-43214285D02*
X51222200Y-43166666D01*
X51222200Y-43166666D02*
X51269819Y-43071428D01*
X51269819Y-43071428D02*
X51269819Y-42880952D01*
X51269819Y-42880952D02*
X51222200Y-42785714D01*
X51222200Y-42785714D02*
X51174580Y-42738095D01*
X51174580Y-42738095D02*
X51079342Y-42690476D01*
X51079342Y-42690476D02*
X50269819Y-42690476D01*
X50269819Y-42309523D02*
X50269819Y-41690476D01*
X50269819Y-41690476D02*
X50650771Y-42023809D01*
X50650771Y-42023809D02*
X50650771Y-41880952D01*
X50650771Y-41880952D02*
X50698390Y-41785714D01*
X50698390Y-41785714D02*
X50746009Y-41738095D01*
X50746009Y-41738095D02*
X50841247Y-41690476D01*
X50841247Y-41690476D02*
X51079342Y-41690476D01*
X51079342Y-41690476D02*
X51174580Y-41738095D01*
X51174580Y-41738095D02*
X51222200Y-41785714D01*
X51222200Y-41785714D02*
X51269819Y-41880952D01*
X51269819Y-41880952D02*
X51269819Y-42166666D01*
X51269819Y-42166666D02*
X51222200Y-42261904D01*
X51222200Y-42261904D02*
X51174580Y-42309523D01*
X44461819Y-34042857D02*
X43985628Y-34376190D01*
X44461819Y-34614285D02*
X43461819Y-34614285D01*
X43461819Y-34614285D02*
X43461819Y-34233333D01*
X43461819Y-34233333D02*
X43509438Y-34138095D01*
X43509438Y-34138095D02*
X43557057Y-34090476D01*
X43557057Y-34090476D02*
X43652295Y-34042857D01*
X43652295Y-34042857D02*
X43795152Y-34042857D01*
X43795152Y-34042857D02*
X43890390Y-34090476D01*
X43890390Y-34090476D02*
X43938009Y-34138095D01*
X43938009Y-34138095D02*
X43985628Y-34233333D01*
X43985628Y-34233333D02*
X43985628Y-34614285D01*
X44461819Y-33090476D02*
X44461819Y-33661904D01*
X44461819Y-33376190D02*
X43461819Y-33376190D01*
X43461819Y-33376190D02*
X43604676Y-33471428D01*
X43604676Y-33471428D02*
X43699914Y-33566666D01*
X43699914Y-33566666D02*
X43747533Y-33661904D01*
X43461819Y-32757142D02*
X43461819Y-32138095D01*
X43461819Y-32138095D02*
X43842771Y-32471428D01*
X43842771Y-32471428D02*
X43842771Y-32328571D01*
X43842771Y-32328571D02*
X43890390Y-32233333D01*
X43890390Y-32233333D02*
X43938009Y-32185714D01*
X43938009Y-32185714D02*
X44033247Y-32138095D01*
X44033247Y-32138095D02*
X44271342Y-32138095D01*
X44271342Y-32138095D02*
X44366580Y-32185714D01*
X44366580Y-32185714D02*
X44414200Y-32233333D01*
X44414200Y-32233333D02*
X44461819Y-32328571D01*
X44461819Y-32328571D02*
X44461819Y-32614285D01*
X44461819Y-32614285D02*
X44414200Y-32709523D01*
X44414200Y-32709523D02*
X44366580Y-32757142D01*
X21738095Y-48904819D02*
X21738095Y-47904819D01*
X21738095Y-48381009D02*
X22309523Y-48381009D01*
X22309523Y-48904819D02*
X22309523Y-47904819D01*
X23214285Y-48238152D02*
X23214285Y-48904819D01*
X22976190Y-47857200D02*
X22738095Y-48571485D01*
X22738095Y-48571485D02*
X23357142Y-48571485D01*
X40669819Y-43361904D02*
X41479342Y-43361904D01*
X41479342Y-43361904D02*
X41574580Y-43314285D01*
X41574580Y-43314285D02*
X41622200Y-43266666D01*
X41622200Y-43266666D02*
X41669819Y-43171428D01*
X41669819Y-43171428D02*
X41669819Y-42980952D01*
X41669819Y-42980952D02*
X41622200Y-42885714D01*
X41622200Y-42885714D02*
X41574580Y-42838095D01*
X41574580Y-42838095D02*
X41479342Y-42790476D01*
X41479342Y-42790476D02*
X40669819Y-42790476D01*
X41669819Y-41790476D02*
X41669819Y-42361904D01*
X41669819Y-42076190D02*
X40669819Y-42076190D01*
X40669819Y-42076190D02*
X40812676Y-42171428D01*
X40812676Y-42171428D02*
X40907914Y-42266666D01*
X40907914Y-42266666D02*
X40955533Y-42361904D01*
X47732819Y-49166666D02*
X47256628Y-49499999D01*
X47732819Y-49738094D02*
X46732819Y-49738094D01*
X46732819Y-49738094D02*
X46732819Y-49357142D01*
X46732819Y-49357142D02*
X46780438Y-49261904D01*
X46780438Y-49261904D02*
X46828057Y-49214285D01*
X46828057Y-49214285D02*
X46923295Y-49166666D01*
X46923295Y-49166666D02*
X47066152Y-49166666D01*
X47066152Y-49166666D02*
X47161390Y-49214285D01*
X47161390Y-49214285D02*
X47209009Y-49261904D01*
X47209009Y-49261904D02*
X47256628Y-49357142D01*
X47256628Y-49357142D02*
X47256628Y-49738094D01*
X46732819Y-48833332D02*
X46732819Y-48214285D01*
X46732819Y-48214285D02*
X47113771Y-48547618D01*
X47113771Y-48547618D02*
X47113771Y-48404761D01*
X47113771Y-48404761D02*
X47161390Y-48309523D01*
X47161390Y-48309523D02*
X47209009Y-48261904D01*
X47209009Y-48261904D02*
X47304247Y-48214285D01*
X47304247Y-48214285D02*
X47542342Y-48214285D01*
X47542342Y-48214285D02*
X47637580Y-48261904D01*
X47637580Y-48261904D02*
X47685200Y-48309523D01*
X47685200Y-48309523D02*
X47732819Y-48404761D01*
X47732819Y-48404761D02*
X47732819Y-48690475D01*
X47732819Y-48690475D02*
X47685200Y-48785713D01*
X47685200Y-48785713D02*
X47637580Y-48833332D01*
X27756009Y-46483333D02*
X27756009Y-46816666D01*
X28279819Y-46816666D02*
X27279819Y-46816666D01*
X27279819Y-46816666D02*
X27279819Y-46340476D01*
X28279819Y-45435714D02*
X28279819Y-46007142D01*
X28279819Y-45721428D02*
X27279819Y-45721428D01*
X27279819Y-45721428D02*
X27422676Y-45816666D01*
X27422676Y-45816666D02*
X27517914Y-45911904D01*
X27517914Y-45911904D02*
X27565533Y-46007142D01*
X27734580Y-33966666D02*
X27782200Y-34014285D01*
X27782200Y-34014285D02*
X27829819Y-34157142D01*
X27829819Y-34157142D02*
X27829819Y-34252380D01*
X27829819Y-34252380D02*
X27782200Y-34395237D01*
X27782200Y-34395237D02*
X27686961Y-34490475D01*
X27686961Y-34490475D02*
X27591723Y-34538094D01*
X27591723Y-34538094D02*
X27401247Y-34585713D01*
X27401247Y-34585713D02*
X27258390Y-34585713D01*
X27258390Y-34585713D02*
X27067914Y-34538094D01*
X27067914Y-34538094D02*
X26972676Y-34490475D01*
X26972676Y-34490475D02*
X26877438Y-34395237D01*
X26877438Y-34395237D02*
X26829819Y-34252380D01*
X26829819Y-34252380D02*
X26829819Y-34157142D01*
X26829819Y-34157142D02*
X26877438Y-34014285D01*
X26877438Y-34014285D02*
X26925057Y-33966666D01*
X27829819Y-33014285D02*
X27829819Y-33585713D01*
X27829819Y-33299999D02*
X26829819Y-33299999D01*
X26829819Y-33299999D02*
X26972676Y-33395237D01*
X26972676Y-33395237D02*
X27067914Y-33490475D01*
X27067914Y-33490475D02*
X27115533Y-33585713D01*
X36657142Y-39134580D02*
X36609523Y-39182200D01*
X36609523Y-39182200D02*
X36466666Y-39229819D01*
X36466666Y-39229819D02*
X36371428Y-39229819D01*
X36371428Y-39229819D02*
X36228571Y-39182200D01*
X36228571Y-39182200D02*
X36133333Y-39086961D01*
X36133333Y-39086961D02*
X36085714Y-38991723D01*
X36085714Y-38991723D02*
X36038095Y-38801247D01*
X36038095Y-38801247D02*
X36038095Y-38658390D01*
X36038095Y-38658390D02*
X36085714Y-38467914D01*
X36085714Y-38467914D02*
X36133333Y-38372676D01*
X36133333Y-38372676D02*
X36228571Y-38277438D01*
X36228571Y-38277438D02*
X36371428Y-38229819D01*
X36371428Y-38229819D02*
X36466666Y-38229819D01*
X36466666Y-38229819D02*
X36609523Y-38277438D01*
X36609523Y-38277438D02*
X36657142Y-38325057D01*
X37609523Y-39229819D02*
X37038095Y-39229819D01*
X37323809Y-39229819D02*
X37323809Y-38229819D01*
X37323809Y-38229819D02*
X37228571Y-38372676D01*
X37228571Y-38372676D02*
X37133333Y-38467914D01*
X37133333Y-38467914D02*
X37038095Y-38515533D01*
X37990476Y-38325057D02*
X38038095Y-38277438D01*
X38038095Y-38277438D02*
X38133333Y-38229819D01*
X38133333Y-38229819D02*
X38371428Y-38229819D01*
X38371428Y-38229819D02*
X38466666Y-38277438D01*
X38466666Y-38277438D02*
X38514285Y-38325057D01*
X38514285Y-38325057D02*
X38561904Y-38420295D01*
X38561904Y-38420295D02*
X38561904Y-38515533D01*
X38561904Y-38515533D02*
X38514285Y-38658390D01*
X38514285Y-38658390D02*
X37942857Y-39229819D01*
X37942857Y-39229819D02*
X38561904Y-39229819D01*
X30784580Y-33392857D02*
X30832200Y-33440476D01*
X30832200Y-33440476D02*
X30879819Y-33583333D01*
X30879819Y-33583333D02*
X30879819Y-33678571D01*
X30879819Y-33678571D02*
X30832200Y-33821428D01*
X30832200Y-33821428D02*
X30736961Y-33916666D01*
X30736961Y-33916666D02*
X30641723Y-33964285D01*
X30641723Y-33964285D02*
X30451247Y-34011904D01*
X30451247Y-34011904D02*
X30308390Y-34011904D01*
X30308390Y-34011904D02*
X30117914Y-33964285D01*
X30117914Y-33964285D02*
X30022676Y-33916666D01*
X30022676Y-33916666D02*
X29927438Y-33821428D01*
X29927438Y-33821428D02*
X29879819Y-33678571D01*
X29879819Y-33678571D02*
X29879819Y-33583333D01*
X29879819Y-33583333D02*
X29927438Y-33440476D01*
X29927438Y-33440476D02*
X29975057Y-33392857D01*
X30879819Y-32440476D02*
X30879819Y-33011904D01*
X30879819Y-32726190D02*
X29879819Y-32726190D01*
X29879819Y-32726190D02*
X30022676Y-32821428D01*
X30022676Y-32821428D02*
X30117914Y-32916666D01*
X30117914Y-32916666D02*
X30165533Y-33011904D01*
X30879819Y-31488095D02*
X30879819Y-32059523D01*
X30879819Y-31773809D02*
X29879819Y-31773809D01*
X29879819Y-31773809D02*
X30022676Y-31869047D01*
X30022676Y-31869047D02*
X30117914Y-31964285D01*
X30117914Y-31964285D02*
X30165533Y-32059523D01*
X50488095Y-48904819D02*
X50488095Y-47904819D01*
X50488095Y-48381009D02*
X51059523Y-48381009D01*
X51059523Y-48904819D02*
X51059523Y-47904819D01*
X51440476Y-47904819D02*
X52059523Y-47904819D01*
X52059523Y-47904819D02*
X51726190Y-48285771D01*
X51726190Y-48285771D02*
X51869047Y-48285771D01*
X51869047Y-48285771D02*
X51964285Y-48333390D01*
X51964285Y-48333390D02*
X52011904Y-48381009D01*
X52011904Y-48381009D02*
X52059523Y-48476247D01*
X52059523Y-48476247D02*
X52059523Y-48714342D01*
X52059523Y-48714342D02*
X52011904Y-48809580D01*
X52011904Y-48809580D02*
X51964285Y-48857200D01*
X51964285Y-48857200D02*
X51869047Y-48904819D01*
X51869047Y-48904819D02*
X51583333Y-48904819D01*
X51583333Y-48904819D02*
X51488095Y-48857200D01*
X51488095Y-48857200D02*
X51440476Y-48809580D01*
X46579819Y-52495833D02*
X47294104Y-52495833D01*
X47294104Y-52495833D02*
X47436961Y-52543452D01*
X47436961Y-52543452D02*
X47532200Y-52638690D01*
X47532200Y-52638690D02*
X47579819Y-52781547D01*
X47579819Y-52781547D02*
X47579819Y-52876785D01*
X46675057Y-52067261D02*
X46627438Y-52019642D01*
X46627438Y-52019642D02*
X46579819Y-51924404D01*
X46579819Y-51924404D02*
X46579819Y-51686309D01*
X46579819Y-51686309D02*
X46627438Y-51591071D01*
X46627438Y-51591071D02*
X46675057Y-51543452D01*
X46675057Y-51543452D02*
X46770295Y-51495833D01*
X46770295Y-51495833D02*
X46865533Y-51495833D01*
X46865533Y-51495833D02*
X47008390Y-51543452D01*
X47008390Y-51543452D02*
X47579819Y-52114880D01*
X47579819Y-52114880D02*
X47579819Y-51495833D01*
X42807142Y-41561819D02*
X42473809Y-41085628D01*
X42235714Y-41561819D02*
X42235714Y-40561819D01*
X42235714Y-40561819D02*
X42616666Y-40561819D01*
X42616666Y-40561819D02*
X42711904Y-40609438D01*
X42711904Y-40609438D02*
X42759523Y-40657057D01*
X42759523Y-40657057D02*
X42807142Y-40752295D01*
X42807142Y-40752295D02*
X42807142Y-40895152D01*
X42807142Y-40895152D02*
X42759523Y-40990390D01*
X42759523Y-40990390D02*
X42711904Y-41038009D01*
X42711904Y-41038009D02*
X42616666Y-41085628D01*
X42616666Y-41085628D02*
X42235714Y-41085628D01*
X43759523Y-41561819D02*
X43188095Y-41561819D01*
X43473809Y-41561819D02*
X43473809Y-40561819D01*
X43473809Y-40561819D02*
X43378571Y-40704676D01*
X43378571Y-40704676D02*
X43283333Y-40799914D01*
X43283333Y-40799914D02*
X43188095Y-40847533D01*
X44140476Y-40657057D02*
X44188095Y-40609438D01*
X44188095Y-40609438D02*
X44283333Y-40561819D01*
X44283333Y-40561819D02*
X44521428Y-40561819D01*
X44521428Y-40561819D02*
X44616666Y-40609438D01*
X44616666Y-40609438D02*
X44664285Y-40657057D01*
X44664285Y-40657057D02*
X44711904Y-40752295D01*
X44711904Y-40752295D02*
X44711904Y-40847533D01*
X44711904Y-40847533D02*
X44664285Y-40990390D01*
X44664285Y-40990390D02*
X44092857Y-41561819D01*
X44092857Y-41561819D02*
X44711904Y-41561819D01*
X36399819Y-29533333D02*
X37114104Y-29533333D01*
X37114104Y-29533333D02*
X37256961Y-29580952D01*
X37256961Y-29580952D02*
X37352200Y-29676190D01*
X37352200Y-29676190D02*
X37399819Y-29819047D01*
X37399819Y-29819047D02*
X37399819Y-29914285D01*
X36399819Y-29152380D02*
X36399819Y-28533333D01*
X36399819Y-28533333D02*
X36780771Y-28866666D01*
X36780771Y-28866666D02*
X36780771Y-28723809D01*
X36780771Y-28723809D02*
X36828390Y-28628571D01*
X36828390Y-28628571D02*
X36876009Y-28580952D01*
X36876009Y-28580952D02*
X36971247Y-28533333D01*
X36971247Y-28533333D02*
X37209342Y-28533333D01*
X37209342Y-28533333D02*
X37304580Y-28580952D01*
X37304580Y-28580952D02*
X37352200Y-28628571D01*
X37352200Y-28628571D02*
X37399819Y-28723809D01*
X37399819Y-28723809D02*
X37399819Y-29009523D01*
X37399819Y-29009523D02*
X37352200Y-29104761D01*
X37352200Y-29104761D02*
X37304580Y-29152380D01*
X21738095Y-34454819D02*
X21738095Y-33454819D01*
X21738095Y-33931009D02*
X22309523Y-33931009D01*
X22309523Y-34454819D02*
X22309523Y-33454819D01*
X23309523Y-34454819D02*
X22738095Y-34454819D01*
X23023809Y-34454819D02*
X23023809Y-33454819D01*
X23023809Y-33454819D02*
X22928571Y-33597676D01*
X22928571Y-33597676D02*
X22833333Y-33692914D01*
X22833333Y-33692914D02*
X22738095Y-33740533D01*
X25276819Y-42916666D02*
X24800628Y-43249999D01*
X25276819Y-43488094D02*
X24276819Y-43488094D01*
X24276819Y-43488094D02*
X24276819Y-43107142D01*
X24276819Y-43107142D02*
X24324438Y-43011904D01*
X24324438Y-43011904D02*
X24372057Y-42964285D01*
X24372057Y-42964285D02*
X24467295Y-42916666D01*
X24467295Y-42916666D02*
X24610152Y-42916666D01*
X24610152Y-42916666D02*
X24705390Y-42964285D01*
X24705390Y-42964285D02*
X24753009Y-43011904D01*
X24753009Y-43011904D02*
X24800628Y-43107142D01*
X24800628Y-43107142D02*
X24800628Y-43488094D01*
X24372057Y-42535713D02*
X24324438Y-42488094D01*
X24324438Y-42488094D02*
X24276819Y-42392856D01*
X24276819Y-42392856D02*
X24276819Y-42154761D01*
X24276819Y-42154761D02*
X24324438Y-42059523D01*
X24324438Y-42059523D02*
X24372057Y-42011904D01*
X24372057Y-42011904D02*
X24467295Y-41964285D01*
X24467295Y-41964285D02*
X24562533Y-41964285D01*
X24562533Y-41964285D02*
X24705390Y-42011904D01*
X24705390Y-42011904D02*
X25276819Y-42583332D01*
X25276819Y-42583332D02*
X25276819Y-41964285D01*
X37034580Y-36642857D02*
X37082200Y-36690476D01*
X37082200Y-36690476D02*
X37129819Y-36833333D01*
X37129819Y-36833333D02*
X37129819Y-36928571D01*
X37129819Y-36928571D02*
X37082200Y-37071428D01*
X37082200Y-37071428D02*
X36986961Y-37166666D01*
X36986961Y-37166666D02*
X36891723Y-37214285D01*
X36891723Y-37214285D02*
X36701247Y-37261904D01*
X36701247Y-37261904D02*
X36558390Y-37261904D01*
X36558390Y-37261904D02*
X36367914Y-37214285D01*
X36367914Y-37214285D02*
X36272676Y-37166666D01*
X36272676Y-37166666D02*
X36177438Y-37071428D01*
X36177438Y-37071428D02*
X36129819Y-36928571D01*
X36129819Y-36928571D02*
X36129819Y-36833333D01*
X36129819Y-36833333D02*
X36177438Y-36690476D01*
X36177438Y-36690476D02*
X36225057Y-36642857D01*
X37129819Y-35690476D02*
X37129819Y-36261904D01*
X37129819Y-35976190D02*
X36129819Y-35976190D01*
X36129819Y-35976190D02*
X36272676Y-36071428D01*
X36272676Y-36071428D02*
X36367914Y-36166666D01*
X36367914Y-36166666D02*
X36415533Y-36261904D01*
X36129819Y-35071428D02*
X36129819Y-34976190D01*
X36129819Y-34976190D02*
X36177438Y-34880952D01*
X36177438Y-34880952D02*
X36225057Y-34833333D01*
X36225057Y-34833333D02*
X36320295Y-34785714D01*
X36320295Y-34785714D02*
X36510771Y-34738095D01*
X36510771Y-34738095D02*
X36748866Y-34738095D01*
X36748866Y-34738095D02*
X36939342Y-34785714D01*
X36939342Y-34785714D02*
X37034580Y-34833333D01*
X37034580Y-34833333D02*
X37082200Y-34880952D01*
X37082200Y-34880952D02*
X37129819Y-34976190D01*
X37129819Y-34976190D02*
X37129819Y-35071428D01*
X37129819Y-35071428D02*
X37082200Y-35166666D01*
X37082200Y-35166666D02*
X37034580Y-35214285D01*
X37034580Y-35214285D02*
X36939342Y-35261904D01*
X36939342Y-35261904D02*
X36748866Y-35309523D01*
X36748866Y-35309523D02*
X36510771Y-35309523D01*
X36510771Y-35309523D02*
X36320295Y-35261904D01*
X36320295Y-35261904D02*
X36225057Y-35214285D01*
X36225057Y-35214285D02*
X36177438Y-35166666D01*
X36177438Y-35166666D02*
X36129819Y-35071428D01*
X28266666Y-31079819D02*
X28266666Y-31794104D01*
X28266666Y-31794104D02*
X28219047Y-31936961D01*
X28219047Y-31936961D02*
X28123809Y-32032200D01*
X28123809Y-32032200D02*
X27980952Y-32079819D01*
X27980952Y-32079819D02*
X27885714Y-32079819D01*
X29171428Y-31413152D02*
X29171428Y-32079819D01*
X28933333Y-31032200D02*
X28695238Y-31746485D01*
X28695238Y-31746485D02*
X29314285Y-31746485D01*
X40029819Y-48435094D02*
X39029819Y-48435094D01*
X39029819Y-48435094D02*
X39029819Y-48196999D01*
X39029819Y-48196999D02*
X39077438Y-48054142D01*
X39077438Y-48054142D02*
X39172676Y-47958904D01*
X39172676Y-47958904D02*
X39267914Y-47911285D01*
X39267914Y-47911285D02*
X39458390Y-47863666D01*
X39458390Y-47863666D02*
X39601247Y-47863666D01*
X39601247Y-47863666D02*
X39791723Y-47911285D01*
X39791723Y-47911285D02*
X39886961Y-47958904D01*
X39886961Y-47958904D02*
X39982200Y-48054142D01*
X39982200Y-48054142D02*
X40029819Y-48196999D01*
X40029819Y-48196999D02*
X40029819Y-48435094D01*
X39125057Y-47482713D02*
X39077438Y-47435094D01*
X39077438Y-47435094D02*
X39029819Y-47339856D01*
X39029819Y-47339856D02*
X39029819Y-47101761D01*
X39029819Y-47101761D02*
X39077438Y-47006523D01*
X39077438Y-47006523D02*
X39125057Y-46958904D01*
X39125057Y-46958904D02*
X39220295Y-46911285D01*
X39220295Y-46911285D02*
X39315533Y-46911285D01*
X39315533Y-46911285D02*
X39458390Y-46958904D01*
X39458390Y-46958904D02*
X40029819Y-47530332D01*
X40029819Y-47530332D02*
X40029819Y-46911285D01*
X28333333Y-51509580D02*
X28285714Y-51557200D01*
X28285714Y-51557200D02*
X28142857Y-51604819D01*
X28142857Y-51604819D02*
X28047619Y-51604819D01*
X28047619Y-51604819D02*
X27904762Y-51557200D01*
X27904762Y-51557200D02*
X27809524Y-51461961D01*
X27809524Y-51461961D02*
X27761905Y-51366723D01*
X27761905Y-51366723D02*
X27714286Y-51176247D01*
X27714286Y-51176247D02*
X27714286Y-51033390D01*
X27714286Y-51033390D02*
X27761905Y-50842914D01*
X27761905Y-50842914D02*
X27809524Y-50747676D01*
X27809524Y-50747676D02*
X27904762Y-50652438D01*
X27904762Y-50652438D02*
X28047619Y-50604819D01*
X28047619Y-50604819D02*
X28142857Y-50604819D01*
X28142857Y-50604819D02*
X28285714Y-50652438D01*
X28285714Y-50652438D02*
X28333333Y-50700057D01*
X28714286Y-50700057D02*
X28761905Y-50652438D01*
X28761905Y-50652438D02*
X28857143Y-50604819D01*
X28857143Y-50604819D02*
X29095238Y-50604819D01*
X29095238Y-50604819D02*
X29190476Y-50652438D01*
X29190476Y-50652438D02*
X29238095Y-50700057D01*
X29238095Y-50700057D02*
X29285714Y-50795295D01*
X29285714Y-50795295D02*
X29285714Y-50890533D01*
X29285714Y-50890533D02*
X29238095Y-51033390D01*
X29238095Y-51033390D02*
X28666667Y-51604819D01*
X28666667Y-51604819D02*
X29285714Y-51604819D01*
X30882200Y-53533332D02*
X30929819Y-53390475D01*
X30929819Y-53390475D02*
X30929819Y-53152380D01*
X30929819Y-53152380D02*
X30882200Y-53057142D01*
X30882200Y-53057142D02*
X30834580Y-53009523D01*
X30834580Y-53009523D02*
X30739342Y-52961904D01*
X30739342Y-52961904D02*
X30644104Y-52961904D01*
X30644104Y-52961904D02*
X30548866Y-53009523D01*
X30548866Y-53009523D02*
X30501247Y-53057142D01*
X30501247Y-53057142D02*
X30453628Y-53152380D01*
X30453628Y-53152380D02*
X30406009Y-53342856D01*
X30406009Y-53342856D02*
X30358390Y-53438094D01*
X30358390Y-53438094D02*
X30310771Y-53485713D01*
X30310771Y-53485713D02*
X30215533Y-53533332D01*
X30215533Y-53533332D02*
X30120295Y-53533332D01*
X30120295Y-53533332D02*
X30025057Y-53485713D01*
X30025057Y-53485713D02*
X29977438Y-53438094D01*
X29977438Y-53438094D02*
X29929819Y-53342856D01*
X29929819Y-53342856D02*
X29929819Y-53104761D01*
X29929819Y-53104761D02*
X29977438Y-52961904D01*
X29929819Y-52628570D02*
X30929819Y-52390475D01*
X30929819Y-52390475D02*
X30215533Y-52199999D01*
X30215533Y-52199999D02*
X30929819Y-52009523D01*
X30929819Y-52009523D02*
X29929819Y-51771428D01*
X30929819Y-50866666D02*
X30929819Y-51438094D01*
X30929819Y-51152380D02*
X29929819Y-51152380D01*
X29929819Y-51152380D02*
X30072676Y-51247618D01*
X30072676Y-51247618D02*
X30167914Y-51342856D01*
X30167914Y-51342856D02*
X30215533Y-51438094D01*
X47888819Y-35877857D02*
X47412628Y-36211190D01*
X47888819Y-36449285D02*
X46888819Y-36449285D01*
X46888819Y-36449285D02*
X46888819Y-36068333D01*
X46888819Y-36068333D02*
X46936438Y-35973095D01*
X46936438Y-35973095D02*
X46984057Y-35925476D01*
X46984057Y-35925476D02*
X47079295Y-35877857D01*
X47079295Y-35877857D02*
X47222152Y-35877857D01*
X47222152Y-35877857D02*
X47317390Y-35925476D01*
X47317390Y-35925476D02*
X47365009Y-35973095D01*
X47365009Y-35973095D02*
X47412628Y-36068333D01*
X47412628Y-36068333D02*
X47412628Y-36449285D01*
X47888819Y-34925476D02*
X47888819Y-35496904D01*
X47888819Y-35211190D02*
X46888819Y-35211190D01*
X46888819Y-35211190D02*
X47031676Y-35306428D01*
X47031676Y-35306428D02*
X47126914Y-35401666D01*
X47126914Y-35401666D02*
X47174533Y-35496904D01*
X46888819Y-34306428D02*
X46888819Y-34211190D01*
X46888819Y-34211190D02*
X46936438Y-34115952D01*
X46936438Y-34115952D02*
X46984057Y-34068333D01*
X46984057Y-34068333D02*
X47079295Y-34020714D01*
X47079295Y-34020714D02*
X47269771Y-33973095D01*
X47269771Y-33973095D02*
X47507866Y-33973095D01*
X47507866Y-33973095D02*
X47698342Y-34020714D01*
X47698342Y-34020714D02*
X47793580Y-34068333D01*
X47793580Y-34068333D02*
X47841200Y-34115952D01*
X47841200Y-34115952D02*
X47888819Y-34211190D01*
X47888819Y-34211190D02*
X47888819Y-34306428D01*
X47888819Y-34306428D02*
X47841200Y-34401666D01*
X47841200Y-34401666D02*
X47793580Y-34449285D01*
X47793580Y-34449285D02*
X47698342Y-34496904D01*
X47698342Y-34496904D02*
X47507866Y-34544523D01*
X47507866Y-34544523D02*
X47269771Y-34544523D01*
X47269771Y-34544523D02*
X47079295Y-34496904D01*
X47079295Y-34496904D02*
X46984057Y-34449285D01*
X46984057Y-34449285D02*
X46936438Y-34401666D01*
X46936438Y-34401666D02*
X46888819Y-34306428D01*
X36588095Y-31667819D02*
X36588095Y-32477342D01*
X36588095Y-32477342D02*
X36635714Y-32572580D01*
X36635714Y-32572580D02*
X36683333Y-32620200D01*
X36683333Y-32620200D02*
X36778571Y-32667819D01*
X36778571Y-32667819D02*
X36969047Y-32667819D01*
X36969047Y-32667819D02*
X37064285Y-32620200D01*
X37064285Y-32620200D02*
X37111904Y-32572580D01*
X37111904Y-32572580D02*
X37159523Y-32477342D01*
X37159523Y-32477342D02*
X37159523Y-31667819D01*
X37588095Y-31763057D02*
X37635714Y-31715438D01*
X37635714Y-31715438D02*
X37730952Y-31667819D01*
X37730952Y-31667819D02*
X37969047Y-31667819D01*
X37969047Y-31667819D02*
X38064285Y-31715438D01*
X38064285Y-31715438D02*
X38111904Y-31763057D01*
X38111904Y-31763057D02*
X38159523Y-31858295D01*
X38159523Y-31858295D02*
X38159523Y-31953533D01*
X38159523Y-31953533D02*
X38111904Y-32096390D01*
X38111904Y-32096390D02*
X37540476Y-32667819D01*
X37540476Y-32667819D02*
X38159523Y-32667819D01*
X50429819Y-40714285D02*
X49429819Y-40714285D01*
X49429819Y-40714285D02*
X49429819Y-40476190D01*
X49429819Y-40476190D02*
X49477438Y-40333333D01*
X49477438Y-40333333D02*
X49572676Y-40238095D01*
X49572676Y-40238095D02*
X49667914Y-40190476D01*
X49667914Y-40190476D02*
X49858390Y-40142857D01*
X49858390Y-40142857D02*
X50001247Y-40142857D01*
X50001247Y-40142857D02*
X50191723Y-40190476D01*
X50191723Y-40190476D02*
X50286961Y-40238095D01*
X50286961Y-40238095D02*
X50382200Y-40333333D01*
X50382200Y-40333333D02*
X50429819Y-40476190D01*
X50429819Y-40476190D02*
X50429819Y-40714285D01*
X50429819Y-39190476D02*
X50429819Y-39761904D01*
X50429819Y-39476190D02*
X49429819Y-39476190D01*
X49429819Y-39476190D02*
X49572676Y-39571428D01*
X49572676Y-39571428D02*
X49667914Y-39666666D01*
X49667914Y-39666666D02*
X49715533Y-39761904D01*
X49429819Y-38571428D02*
X49429819Y-38476190D01*
X49429819Y-38476190D02*
X49477438Y-38380952D01*
X49477438Y-38380952D02*
X49525057Y-38333333D01*
X49525057Y-38333333D02*
X49620295Y-38285714D01*
X49620295Y-38285714D02*
X49810771Y-38238095D01*
X49810771Y-38238095D02*
X50048866Y-38238095D01*
X50048866Y-38238095D02*
X50239342Y-38285714D01*
X50239342Y-38285714D02*
X50334580Y-38333333D01*
X50334580Y-38333333D02*
X50382200Y-38380952D01*
X50382200Y-38380952D02*
X50429819Y-38476190D01*
X50429819Y-38476190D02*
X50429819Y-38571428D01*
X50429819Y-38571428D02*
X50382200Y-38666666D01*
X50382200Y-38666666D02*
X50334580Y-38714285D01*
X50334580Y-38714285D02*
X50239342Y-38761904D01*
X50239342Y-38761904D02*
X50048866Y-38809523D01*
X50048866Y-38809523D02*
X49810771Y-38809523D01*
X49810771Y-38809523D02*
X49620295Y-38761904D01*
X49620295Y-38761904D02*
X49525057Y-38714285D01*
X49525057Y-38714285D02*
X49477438Y-38666666D01*
X49477438Y-38666666D02*
X49429819Y-38571428D01*
X50488095Y-34754819D02*
X50488095Y-33754819D01*
X50488095Y-34231009D02*
X51059523Y-34231009D01*
X51059523Y-34754819D02*
X51059523Y-33754819D01*
X51488095Y-33850057D02*
X51535714Y-33802438D01*
X51535714Y-33802438D02*
X51630952Y-33754819D01*
X51630952Y-33754819D02*
X51869047Y-33754819D01*
X51869047Y-33754819D02*
X51964285Y-33802438D01*
X51964285Y-33802438D02*
X52011904Y-33850057D01*
X52011904Y-33850057D02*
X52059523Y-33945295D01*
X52059523Y-33945295D02*
X52059523Y-34040533D01*
X52059523Y-34040533D02*
X52011904Y-34183390D01*
X52011904Y-34183390D02*
X51440476Y-34754819D01*
X51440476Y-34754819D02*
X52059523Y-34754819D01*
X46584580Y-44766666D02*
X46632200Y-44814285D01*
X46632200Y-44814285D02*
X46679819Y-44957142D01*
X46679819Y-44957142D02*
X46679819Y-45052380D01*
X46679819Y-45052380D02*
X46632200Y-45195237D01*
X46632200Y-45195237D02*
X46536961Y-45290475D01*
X46536961Y-45290475D02*
X46441723Y-45338094D01*
X46441723Y-45338094D02*
X46251247Y-45385713D01*
X46251247Y-45385713D02*
X46108390Y-45385713D01*
X46108390Y-45385713D02*
X45917914Y-45338094D01*
X45917914Y-45338094D02*
X45822676Y-45290475D01*
X45822676Y-45290475D02*
X45727438Y-45195237D01*
X45727438Y-45195237D02*
X45679819Y-45052380D01*
X45679819Y-45052380D02*
X45679819Y-44957142D01*
X45679819Y-44957142D02*
X45727438Y-44814285D01*
X45727438Y-44814285D02*
X45775057Y-44766666D01*
X45679819Y-44433332D02*
X45679819Y-43814285D01*
X45679819Y-43814285D02*
X46060771Y-44147618D01*
X46060771Y-44147618D02*
X46060771Y-44004761D01*
X46060771Y-44004761D02*
X46108390Y-43909523D01*
X46108390Y-43909523D02*
X46156009Y-43861904D01*
X46156009Y-43861904D02*
X46251247Y-43814285D01*
X46251247Y-43814285D02*
X46489342Y-43814285D01*
X46489342Y-43814285D02*
X46584580Y-43861904D01*
X46584580Y-43861904D02*
X46632200Y-43909523D01*
X46632200Y-43909523D02*
X46679819Y-44004761D01*
X46679819Y-44004761D02*
X46679819Y-44290475D01*
X46679819Y-44290475D02*
X46632200Y-44385713D01*
X46632200Y-44385713D02*
X46584580Y-44433332D01*
X40345238Y-44657533D02*
X40954762Y-44657533D01*
X40650000Y-44962295D02*
X40650000Y-44352771D01*
X45982819Y-36542857D02*
X45506628Y-36876190D01*
X45982819Y-37114285D02*
X44982819Y-37114285D01*
X44982819Y-37114285D02*
X44982819Y-36733333D01*
X44982819Y-36733333D02*
X45030438Y-36638095D01*
X45030438Y-36638095D02*
X45078057Y-36590476D01*
X45078057Y-36590476D02*
X45173295Y-36542857D01*
X45173295Y-36542857D02*
X45316152Y-36542857D01*
X45316152Y-36542857D02*
X45411390Y-36590476D01*
X45411390Y-36590476D02*
X45459009Y-36638095D01*
X45459009Y-36638095D02*
X45506628Y-36733333D01*
X45506628Y-36733333D02*
X45506628Y-37114285D01*
X45982819Y-35590476D02*
X45982819Y-36161904D01*
X45982819Y-35876190D02*
X44982819Y-35876190D01*
X44982819Y-35876190D02*
X45125676Y-35971428D01*
X45125676Y-35971428D02*
X45220914Y-36066666D01*
X45220914Y-36066666D02*
X45268533Y-36161904D01*
X45982819Y-34638095D02*
X45982819Y-35209523D01*
X45982819Y-34923809D02*
X44982819Y-34923809D01*
X44982819Y-34923809D02*
X45125676Y-35019047D01*
X45125676Y-35019047D02*
X45220914Y-35114285D01*
X45220914Y-35114285D02*
X45268533Y-35209523D01*
X51957142Y-36584580D02*
X51909523Y-36632200D01*
X51909523Y-36632200D02*
X51766666Y-36679819D01*
X51766666Y-36679819D02*
X51671428Y-36679819D01*
X51671428Y-36679819D02*
X51528571Y-36632200D01*
X51528571Y-36632200D02*
X51433333Y-36536961D01*
X51433333Y-36536961D02*
X51385714Y-36441723D01*
X51385714Y-36441723D02*
X51338095Y-36251247D01*
X51338095Y-36251247D02*
X51338095Y-36108390D01*
X51338095Y-36108390D02*
X51385714Y-35917914D01*
X51385714Y-35917914D02*
X51433333Y-35822676D01*
X51433333Y-35822676D02*
X51528571Y-35727438D01*
X51528571Y-35727438D02*
X51671428Y-35679819D01*
X51671428Y-35679819D02*
X51766666Y-35679819D01*
X51766666Y-35679819D02*
X51909523Y-35727438D01*
X51909523Y-35727438D02*
X51957142Y-35775057D01*
X52909523Y-36679819D02*
X52338095Y-36679819D01*
X52623809Y-36679819D02*
X52623809Y-35679819D01*
X52623809Y-35679819D02*
X52528571Y-35822676D01*
X52528571Y-35822676D02*
X52433333Y-35917914D01*
X52433333Y-35917914D02*
X52338095Y-35965533D01*
X53242857Y-35679819D02*
X53861904Y-35679819D01*
X53861904Y-35679819D02*
X53528571Y-36060771D01*
X53528571Y-36060771D02*
X53671428Y-36060771D01*
X53671428Y-36060771D02*
X53766666Y-36108390D01*
X53766666Y-36108390D02*
X53814285Y-36156009D01*
X53814285Y-36156009D02*
X53861904Y-36251247D01*
X53861904Y-36251247D02*
X53861904Y-36489342D01*
X53861904Y-36489342D02*
X53814285Y-36584580D01*
X53814285Y-36584580D02*
X53766666Y-36632200D01*
X53766666Y-36632200D02*
X53671428Y-36679819D01*
X53671428Y-36679819D02*
X53385714Y-36679819D01*
X53385714Y-36679819D02*
X53290476Y-36632200D01*
X53290476Y-36632200D02*
X53242857Y-36584580D01*
X22816666Y-35099819D02*
X22816666Y-35814104D01*
X22816666Y-35814104D02*
X22769047Y-35956961D01*
X22769047Y-35956961D02*
X22673809Y-36052200D01*
X22673809Y-36052200D02*
X22530952Y-36099819D01*
X22530952Y-36099819D02*
X22435714Y-36099819D01*
X23816666Y-36099819D02*
X23245238Y-36099819D01*
X23530952Y-36099819D02*
X23530952Y-35099819D01*
X23530952Y-35099819D02*
X23435714Y-35242676D01*
X23435714Y-35242676D02*
X23340476Y-35337914D01*
X23340476Y-35337914D02*
X23245238Y-35385533D01*
X25276819Y-40716666D02*
X24800628Y-41049999D01*
X25276819Y-41288094D02*
X24276819Y-41288094D01*
X24276819Y-41288094D02*
X24276819Y-40907142D01*
X24276819Y-40907142D02*
X24324438Y-40811904D01*
X24324438Y-40811904D02*
X24372057Y-40764285D01*
X24372057Y-40764285D02*
X24467295Y-40716666D01*
X24467295Y-40716666D02*
X24610152Y-40716666D01*
X24610152Y-40716666D02*
X24705390Y-40764285D01*
X24705390Y-40764285D02*
X24753009Y-40811904D01*
X24753009Y-40811904D02*
X24800628Y-40907142D01*
X24800628Y-40907142D02*
X24800628Y-41288094D01*
X25276819Y-39764285D02*
X25276819Y-40335713D01*
X25276819Y-40049999D02*
X24276819Y-40049999D01*
X24276819Y-40049999D02*
X24419676Y-40145237D01*
X24419676Y-40145237D02*
X24514914Y-40240475D01*
X24514914Y-40240475D02*
X24562533Y-40335713D01*
X36054819Y-43338094D02*
X35054819Y-43338094D01*
X35054819Y-43338094D02*
X35054819Y-43099999D01*
X35054819Y-43099999D02*
X35102438Y-42957142D01*
X35102438Y-42957142D02*
X35197676Y-42861904D01*
X35197676Y-42861904D02*
X35292914Y-42814285D01*
X35292914Y-42814285D02*
X35483390Y-42766666D01*
X35483390Y-42766666D02*
X35626247Y-42766666D01*
X35626247Y-42766666D02*
X35816723Y-42814285D01*
X35816723Y-42814285D02*
X35911961Y-42861904D01*
X35911961Y-42861904D02*
X36007200Y-42957142D01*
X36007200Y-42957142D02*
X36054819Y-43099999D01*
X36054819Y-43099999D02*
X36054819Y-43338094D01*
X36054819Y-41814285D02*
X36054819Y-42385713D01*
X36054819Y-42099999D02*
X35054819Y-42099999D01*
X35054819Y-42099999D02*
X35197676Y-42195237D01*
X35197676Y-42195237D02*
X35292914Y-42290475D01*
X35292914Y-42290475D02*
X35340533Y-42385713D01*
%TO.C,U3*%
X51770000Y-42330000D02*
X51770000Y-40670000D01*
X53430000Y-42330000D02*
X53430000Y-40670000D01*
D11*
X51870000Y-42510000D02*
G75*
G02*
X51810000Y-42510000I-30000J0D01*
G01*
X51810000Y-42510000D02*
G75*
G02*
X51870000Y-42510000I30000J0D01*
G01*
D12*
X51880000Y-42250000D02*
G75*
G02*
X51820000Y-42250000I-30000J0D01*
G01*
X51820000Y-42250000D02*
G75*
G02*
X51880000Y-42250000I30000J0D01*
G01*
%TO.C,R13*%
D10*
X41490000Y-32010000D02*
X41490000Y-32970000D01*
X41490000Y-34790000D02*
X41490000Y-33830000D01*
X42810000Y-32010000D02*
X41490000Y-32010000D01*
X42810000Y-32970000D02*
X42810000Y-32010000D01*
X42810000Y-33830000D02*
X42810000Y-34790000D01*
X42810000Y-34790000D02*
X41490000Y-34790000D01*
%TO.C,U1*%
X34530000Y-41270000D02*
X37470000Y-41270000D01*
X34530000Y-47930000D02*
X34530000Y-41270000D01*
X37470000Y-41270000D02*
X37470000Y-47930000D01*
X37470000Y-47930000D02*
X34530000Y-47930000D01*
X32530000Y-41350000D02*
G75*
G02*
X32470000Y-41350000I-30000J0D01*
G01*
X32470000Y-41350000D02*
G75*
G02*
X32530000Y-41350000I30000J0D01*
G01*
%TO.C,R3*%
X43810000Y-46340000D02*
X44770000Y-46340000D01*
X43810000Y-47660000D02*
X43810000Y-46340000D01*
X44770000Y-47660000D02*
X43810000Y-47660000D01*
X45630000Y-47660000D02*
X46590000Y-47660000D01*
X46590000Y-46340000D02*
X45630000Y-46340000D01*
X46590000Y-47660000D02*
X46590000Y-46340000D01*
%TO.C,F1*%
X28980000Y-45640000D02*
X28980000Y-44370000D01*
X28980000Y-46660000D02*
X28980000Y-47930000D01*
X30760000Y-44090000D02*
X29240000Y-44090000D01*
X30760000Y-48210000D02*
X29240000Y-48210000D01*
X31020000Y-44370000D02*
X31020000Y-45610000D01*
X31020000Y-47930000D02*
X31020000Y-46660000D01*
X30000000Y-46150000D02*
G75*
G02*
X29620000Y-46150000I-190000J0D01*
G01*
X30000000Y-46150000D02*
G75*
G02*
X30380000Y-46150000I190000J0D01*
G01*
%TO.C,J2*%
D13*
X39780000Y-49800000D02*
X39780000Y-52400000D01*
X40780000Y-54060000D02*
X44680000Y-54060000D01*
X40860000Y-49800000D02*
X39780000Y-49800000D01*
X44840000Y-49800000D02*
X45760000Y-49800000D01*
X45760000Y-49800000D02*
X45760000Y-52410000D01*
D10*
X39830000Y-49140000D02*
G75*
G02*
X39770000Y-49140000I-30000J0D01*
G01*
X39770000Y-49140000D02*
G75*
G02*
X39830000Y-49140000I30000J0D01*
G01*
D13*
X40430000Y-50290000D02*
G75*
G02*
X40170000Y-50290000I-130000J0D01*
G01*
X40170000Y-50290000D02*
G75*
G02*
X40430000Y-50290000I130000J0D01*
G01*
%TO.C,R12*%
D10*
X41560000Y-38340000D02*
X42520000Y-38340000D01*
X41560000Y-39660000D02*
X41560000Y-38340000D01*
X42520000Y-39660000D02*
X41560000Y-39660000D01*
X43380000Y-39660000D02*
X44340000Y-39660000D01*
X44340000Y-38340000D02*
X43380000Y-38340000D01*
X44340000Y-39660000D02*
X44340000Y-38340000D01*
%TO.C,J3*%
D13*
X38120000Y-27930000D02*
X40680000Y-27930000D01*
X38120000Y-30470000D02*
X38120000Y-27930000D01*
X40680000Y-27930000D02*
X40680000Y-30470000D01*
X40680000Y-27930000D02*
X48280000Y-27930000D01*
X48280000Y-27930000D02*
X48280000Y-30470000D01*
X48280000Y-30470000D02*
X38120000Y-30470000D01*
D10*
X38150000Y-30450000D02*
G75*
G02*
X38090000Y-30450000I-30000J0D01*
G01*
X38090000Y-30450000D02*
G75*
G02*
X38150000Y-30450000I30000J0D01*
G01*
%TO.C,R2*%
X28510000Y-42590000D02*
X29470000Y-42590000D01*
X28510000Y-43910000D02*
X28510000Y-42590000D01*
X29470000Y-43910000D02*
X28510000Y-43910000D01*
X30330000Y-43910000D02*
X31290000Y-43910000D01*
X31290000Y-42590000D02*
X30330000Y-42590000D01*
X31290000Y-43910000D02*
X31290000Y-42590000D01*
%TO.C,J4*%
D13*
X25520000Y-27930000D02*
X28080000Y-27930000D01*
X25520000Y-30470000D02*
X25520000Y-27930000D01*
X28080000Y-27930000D02*
X28080000Y-30470000D01*
X28080000Y-27930000D02*
X35680000Y-27930000D01*
X35680000Y-27930000D02*
X35680000Y-30470000D01*
X35680000Y-30470000D02*
X25520000Y-30470000D01*
D10*
X25550000Y-30450000D02*
G75*
G02*
X25490000Y-30450000I-30000J0D01*
G01*
X25490000Y-30450000D02*
G75*
G02*
X25550000Y-30450000I30000J0D01*
G01*
%TO.C,D2*%
D13*
X40280000Y-46300000D02*
X41550000Y-46300000D01*
X40280000Y-47700000D02*
X40280000Y-46300000D01*
X41550000Y-47700000D02*
X40280000Y-47700000D01*
D10*
X41660000Y-47000000D02*
X41870000Y-47000000D01*
X41660000Y-47400000D02*
X41660000Y-46620000D01*
D13*
X42050000Y-47700000D02*
X43150000Y-47700000D01*
X43150000Y-46300000D02*
X42050000Y-46300000D01*
X43150000Y-47700000D02*
X43450000Y-47400000D01*
X43450000Y-46600000D02*
X43150000Y-46300000D01*
X43450000Y-47400000D02*
X43450000Y-46600000D01*
%TO.C,C2*%
D10*
X27040000Y-48550000D02*
X27040000Y-50050000D01*
X27190000Y-50200000D02*
X28600000Y-50200000D01*
X28600000Y-48400000D02*
X27190000Y-48400000D01*
X29400000Y-48400000D02*
X30810000Y-48400000D01*
X30810000Y-50200000D02*
X29400000Y-50200000D01*
X30960000Y-48550000D02*
X30960000Y-50050000D01*
X27040000Y-48550000D02*
G75*
G02*
X27190000Y-48400000I150000J0D01*
G01*
X27190000Y-50200000D02*
G75*
G02*
X27040000Y-50050000I0J150000D01*
G01*
X30810000Y-48400000D02*
G75*
G02*
X30960000Y-48550000I0J-150000D01*
G01*
X30960000Y-50050000D02*
G75*
G02*
X30810000Y-50200000I-150000J0D01*
G01*
%TO.C,SW1*%
D13*
X32350000Y-49530000D02*
X32350000Y-51870000D01*
X32730000Y-52360000D02*
X33620000Y-53250000D01*
X33100000Y-49700000D02*
X33900000Y-48900000D01*
X33100000Y-51700000D02*
X33100000Y-49700000D01*
X33620000Y-48150000D02*
X32730000Y-49040000D01*
X33620000Y-48150000D02*
X36180000Y-48150000D01*
X33620000Y-53250000D02*
X36180000Y-53250000D01*
X33900000Y-48900000D02*
X35800000Y-48900000D01*
X34000000Y-52600000D02*
X33100000Y-51700000D01*
X35700000Y-52600000D02*
X34000000Y-52600000D01*
X35800000Y-48900000D02*
X36700000Y-49800000D01*
X36180000Y-48150000D02*
X37070000Y-49040000D01*
X36700000Y-49800000D02*
X36700000Y-51600000D01*
X36700000Y-51600000D02*
X35700000Y-52600000D01*
X37070000Y-52360000D02*
X36180000Y-53250000D01*
X37450000Y-49530000D02*
X37450000Y-51870000D01*
D10*
X31680000Y-48150000D02*
G75*
G02*
X31620000Y-48150000I-30000J0D01*
G01*
X31620000Y-48150000D02*
G75*
G02*
X31680000Y-48150000I30000J0D01*
G01*
D13*
X36180000Y-50700000D02*
G75*
G02*
X33620000Y-50700000I-1280000J0D01*
G01*
X33620000Y-50700000D02*
G75*
G02*
X36180000Y-50700000I1280000J0D01*
G01*
%TO.C,R10*%
D10*
X41560000Y-35240000D02*
X42520000Y-35240000D01*
X41560000Y-36560000D02*
X41560000Y-35240000D01*
X42520000Y-36560000D02*
X41560000Y-36560000D01*
X43380000Y-36560000D02*
X44340000Y-36560000D01*
X44340000Y-35240000D02*
X43380000Y-35240000D01*
X44340000Y-36560000D02*
X44340000Y-35240000D01*
%TO.C,U2*%
X35580000Y-33170000D02*
X39120000Y-33170000D01*
X35580000Y-39830000D02*
X35580000Y-33170000D01*
X39120000Y-33170000D02*
X39120000Y-39830000D01*
X39120000Y-39830000D02*
X35580000Y-39830000D01*
D13*
X34630000Y-32940000D02*
G75*
G02*
X34330000Y-32940000I-150000J0D01*
G01*
X34330000Y-32940000D02*
G75*
G02*
X34630000Y-32940000I150000J0D01*
G01*
D14*
X36490000Y-33570000D02*
G75*
G02*
X36170000Y-33570000I-160000J0D01*
G01*
X36170000Y-33570000D02*
G75*
G02*
X36490000Y-33570000I160000J0D01*
G01*
%TO.C,D10*%
D13*
X44760000Y-37980000D02*
X44760000Y-40010000D01*
X44760000Y-40010000D02*
X46310000Y-40010000D01*
X46310000Y-37980000D02*
X44760000Y-37980000D01*
X46550000Y-39500000D02*
X46550000Y-38500000D01*
X46550000Y-39500000D02*
X46950000Y-39100000D01*
X46950000Y-38900000D02*
X46550000Y-38500000D01*
D15*
X46950000Y-39100000D02*
X47050000Y-39000000D01*
X47050000Y-39000000D02*
X46950000Y-38900000D01*
D13*
X47090000Y-37960000D02*
X48570000Y-37960000D01*
X48570000Y-37960000D02*
X48970000Y-38360000D01*
X48590000Y-40010000D02*
X47070000Y-40010000D01*
X48970000Y-38360000D02*
X48970000Y-39630000D01*
X48970000Y-39630000D02*
X48590000Y-40010000D01*
%TO.C,C3*%
D15*
X41150000Y-43900000D02*
X41150000Y-45300000D01*
%TO.C,R11*%
D10*
X41560000Y-36740000D02*
X42520000Y-36740000D01*
X41560000Y-38060000D02*
X41560000Y-36740000D01*
X42520000Y-38060000D02*
X41560000Y-38060000D01*
X43380000Y-38060000D02*
X44340000Y-38060000D01*
X44340000Y-36740000D02*
X43380000Y-36740000D01*
X44340000Y-38060000D02*
X44340000Y-36740000D01*
%TO.C,J1*%
D13*
X22630000Y-37030000D02*
X24500000Y-37030000D01*
X22630000Y-45970000D02*
X24500000Y-45970000D01*
%TO.C,R1*%
D10*
X28510000Y-39890000D02*
X29470000Y-39890000D01*
X28510000Y-41210000D02*
X28510000Y-39890000D01*
X29470000Y-41210000D02*
X28510000Y-41210000D01*
X30330000Y-41210000D02*
X31290000Y-41210000D01*
X31290000Y-39890000D02*
X30330000Y-39890000D01*
X31290000Y-41210000D02*
X31290000Y-39890000D01*
%TO.C,D1*%
X29270000Y-37930000D02*
X29440000Y-37930000D01*
X29270000Y-38040000D02*
X29270000Y-37930000D01*
X29270000Y-38040000D02*
X29440000Y-38040000D01*
X29270000Y-39560000D02*
X29440000Y-39560000D01*
X29270000Y-39670000D02*
X29270000Y-39560000D01*
X29440000Y-37930000D02*
X29440000Y-38040000D01*
X29440000Y-37930000D02*
X32260000Y-37930000D01*
X29440000Y-39560000D02*
X29440000Y-39670000D01*
X29440000Y-39670000D02*
X29270000Y-39670000D01*
X29440000Y-39670000D02*
X32260000Y-39670000D01*
X29880000Y-37930000D02*
X29880000Y-39670000D01*
X30020000Y-37930000D02*
X30020000Y-39670000D01*
X32260000Y-37930000D02*
X32260000Y-38100000D01*
X32260000Y-39670000D02*
X32260000Y-39500000D01*
X29030000Y-39700000D02*
G75*
G02*
X28970000Y-39700000I-30000J0D01*
G01*
X28970000Y-39700000D02*
G75*
G02*
X29030000Y-39700000I30000J0D01*
G01*
%TD*%
M02*
