#VRML V2.0 utf8
# 3D model generated by easyeda2kicad.py (https://github.com/uPesy/easyeda2kicad.py)

Shape{
    appearance Appearance {
        material  Material 	{
            diffuseColor 1.0 1.0 1.0
            specularColor 0.5019607843137255 0.5019607843137255 0.5019607843137255
            ambientIntensity 1.0
            transparency 0.0
            shininess 0.5
        }
    }
    geometry IndexedFaceSet {
        ccw TRUE
        solid FALSE
        coord DEF co Coordinate {
            point [
                0.0337 -0.4816 0.0787, -0.0047 -0.3166 0.0787, 0.0337 -0.2848 0.0787, -0.0047 -0.295 0.0787, -0.0257 -0.2863 0.0787, 0.3334 -0.3593 0.0787, 0.3263 -0.3387 0.0787, 0.3505 -0.2848 0.0787, 0.315 -0.3211 0.0787, 0.2988 -0.3056 0.0787, 0.5039 1.3114 0.0787, 0.2783 -0.2936 0.0787, 0.5039 -0.2848 0.0787, 0.4994 -0.2848 0.0787, 0.3793 -0.2848 0.0787, 0.3981 -0.34 0.0787, 0.4795 -0.34 0.0787, 0.1345 -0.4816 0.0787, 0.5039 -1.8776 0.0787, -0.0702 -0.4602 0.0787, -0.085 -0.4549 0.0787, -0.0083 -0.3146 0.0787, -0.0986 -0.4458 0.0787, -0.1105 -0.4327 0.0787, -0.1248 -0.3811 0.0787, -0.1228 -0.3598 0.0787, -0.1174 -0.3428 0.0787, -0.0736 -0.306 0.0787, -0.0553 -0.304 0.0787, -0.088 -0.3113 0.0787, -0.1001 -0.3194 0.0787, -0.1093 -0.3292 0.0787, -0.0291 -0.3069 0.0787, -0.1408 -0.4298 0.0787, -0.1293 -0.4482 0.0787, -0.2424 -0.4816 0.0787, -0.1186 -0.4175 0.0787, -0.1238 -0.3964 0.0787, 0.5039 -0.3469 0.0787, 0.4514 -0.4816 0.0787, 0.425 -0.4816 0.0787, -0.1023 -0.2914 0.0787, -0.168 -0.2848 0.0787, -0.0832 -0.2849 0.0787, -0.0589 -0.2824 0.0787, -0.1115 -0.4653 0.0787, -0.2688 -0.4816 0.0787, -0.5039 -1.8776 0.0787, -0.2688 -0.2848 0.0787, -0.5039 1.3114 0.0787, -0.0535 -0.2824 0.0787, 0.0601 -0.46 0.0787, 0.0601 -0.3952 0.0787, 0.1345 -0.46 0.0787, 0.1297 -0.3952 0.0787, 0.1777 -0.4816 0.0787, 0.1777 -0.2848 0.0787, 0.1297 -0.3736 0.0787, -0.1181 -0.3015 0.0787, -0.1329 -0.3171 0.0787, -0.168 -0.3064 0.0787, -0.1434 -0.3358 0.0787, -0.2424 -0.3064 0.0787, 0.2556 -0.2869 0.0787, 0.2312 -0.2848 0.0787, 0.2332 -0.4816 0.0787, 0.2617 -0.4786 0.0787, -0.1493 -0.3567 0.0787, -0.1512 -0.3795 0.0787, -0.1484 -0.4075 0.0787, -0.0928 -0.476 0.0787, -0.0708 -0.4824 0.0787, -0.0511 -0.484 0.0787, 0.3203 -0.4405 0.0787, 0.3294 -0.4236 0.0787, 0.3347 -0.4042 0.0787, 0.3361 -0.3857 0.0787, 0.0601 -0.3736 0.0787, 0.0601 -0.3064 0.0787, 0.1393 -0.3064 0.0787, 0.1393 -0.2848 0.0787, -0.0275 -0.4824 0.0787, -0.0047 -0.4762 0.0787, -0.0047 -0.4498 0.0787, -0.0269 -0.4593 0.0787, -0.0508 -0.4624 0.0787, 0.2847 -0.4705 0.0787, 0.3061 -0.4561 0.0787, 0.3064 -0.4559 0.0787, 0.5039 -0.2848 0.1181, 0.5039 -1.8776 0.1969, 0.5039 -0.3469 0.1181, 0.5039 1.3114 0.1969, -4.185 1.3114 0.0787, -4.1732 1.3114 0.0787, -4.185 0.8193 0.0787, -4.1732 -1.8776 0.0787, -4.6772 0.8193 0.0787, -4.6772 -1.8776 0.0787, -2.6142 1.3114 0.0787, -2.6142 -1.8776 0.0787, -3.622 1.3114 0.0787, -3.622 -1.8776 0.0787, -1.0551 1.3114 0.0787, -1.0551 -1.8776 0.0787, -2.063 1.3114 0.0787, -2.063 -1.8776 0.0787, 2.063 1.3114 0.0787, 2.063 -1.8776 0.0787, 1.0551 1.3114 0.0787, 1.0551 -1.8776 0.0787, 3.622 1.3114 0.0787, 3.622 -1.8776 0.0787, 2.6142 1.3114 0.0787, 2.6142 -1.8776 0.0787, -4.185 1.5634 2.6772, -4.185 1.3114 2.6772, -4.185 1.5634 2.9134, -4.185 0.9374 3.8189, -4.185 1.3114 3.8189, -4.185 0.8193 1.126, -4.185 0.8193 2.6772, 4.185 0.8193 1.126, 4.185 0.8193 0.0787, 4.185 1.3114 0.0787, 4.185 1.3114 2.6772, 4.185 1.5634 2.6772, 4.185 1.5634 2.9134, 4.185 0.8193 2.6772, 4.185 0.9374 3.8189, 4.185 1.3114 3.8189, -4.6772 0.8193 1.126, -4.6772 0.5279 1.126, -4.6772 -1.8776 1.126, -4.3996 0.8193 1.126, 4.6772 0.8193 0.0787, 4.6772 0.8193 1.126, 4.6772 -1.8776 1.126, 4.6772 -1.8776 0.0787, 4.6772 0.5279 1.126, -4.1732 -1.8776 0.1969, -4.3996 -1.8776 1.126, -3.622 -1.8776 0.1969, -3.1181 -1.8776 1.126, -2.063 -1.8776 0.1969, -1.5591 -1.8776 1.126, -2.6142 -1.8776 0.1969, -0.5039 -1.8776 0.1969, 0.0 -1.8776 1.126, -1.0551 -1.8776 0.1969, 1.0551 -1.8776 0.1969, 1.5591 -1.8776 1.126, 2.6142 -1.8776 0.1969, 3.1181 -1.8776 1.126, 2.063 -1.8776 0.1969, 4.1732 -1.8776 0.0787, 4.1732 -1.8776 0.1969, 3.622 -1.8776 0.1969, 4.1732 1.3114 0.0787, 2.063 1.3114 0.1969, -1.0551 1.3114 0.1969, -2.063 1.3114 0.1969, -2.6142 1.3114 0.1969, 3.622 1.3114 0.1969, 4.1732 1.3114 0.1969, 1.0551 1.3114 0.1969, -4.1732 1.3114 0.1969, -3.622 1.3114 0.1969, 2.6142 1.3114 0.1969, -0.5039 1.3114 0.1969, 3.1181 0.8193 1.126, -3.1181 0.8193 1.126, -1.5591 0.8193 1.126, 0.0 0.8193 1.126, 1.5591 0.8193 1.126, 3.6732 0.2366 1.126, 4.122 0.2366 1.126, 4.122 -0.2122 1.126, 3.6732 -0.2122 1.126, 3.1181 0.5279 1.126, 2.1142 0.2366 1.126, 1.5591 0.5279 1.126, 2.1142 -0.2122 1.126, 2.563 -0.2122 1.126, 2.563 0.2366 1.126, 0.5551 0.2366 1.126, 0.0 0.5279 1.126, 0.5551 -0.2122 1.126, 1.0039 -0.2122 1.126, 1.0039 0.2366 1.126, -1.0039 0.2366 1.126, -1.5591 0.5279 1.126, -1.0039 -0.2122 1.126, -0.5551 -0.2122 1.126, -0.5551 0.2366 1.126, -2.563 0.2366 1.126, -3.1181 0.5279 1.126, -2.563 -0.2122 1.126, -2.1142 -0.2122 1.126, -2.1142 0.2366 1.126, -4.122 0.2366 1.126, -4.3996 0.5279 1.126, -4.122 -0.2122 1.126, -3.6732 -0.2122 1.126, -3.6732 0.2366 1.126, 3.6732 0.2366 0.1969, 3.6732 -0.2122 0.1969, 4.122 0.2366 0.1969, 4.122 -0.2122 0.1969
            ]
        }
        coordIndex [
            0,1,2,-1,2,1,3,-1,2,3,4,-1,5,6,7,-1,8,9,10,-1,10,9,11,-1,10,12,13,-1,6,8,7,-1,7,8,10,-1,7,10,14,-1,14,10,13,-1,14,13,15,-1,15,13,16,-1,0,17,18,-1,19,20,21,-1,21,20,22,-1,21,22,23,-1,24,25,21,-1,21,25,26,-1,27,28,29,-1,29,28,30,-1,26,31,21,-1,21,31,30,-1,21,30,32,-1,32,30,28,-1,33,34,35,-1,23,36,21,-1,21,36,37,-1,21,37,24,-1,38,18,39,-1,39,18,40,-1,41,42,43,-1,43,42,44,-1,34,45,35,-1,35,45,18,-1,35,18,46,-1,46,18,47,-1,46,47,48,-1,48,47,49,-1,48,49,42,-1,42,49,10,-1,42,10,44,-1,44,10,50,-1,51,52,53,-1,53,52,54,-1,17,53,55,-1,55,53,54,-1,55,54,56,-1,56,54,57,-1,41,58,42,-1,42,58,59,-1,42,59,60,-1,60,59,61,-1,60,61,62,-1,11,63,10,-1,10,63,64,-1,10,64,56,-1,17,55,18,-1,18,55,65,-1,18,65,66,-1,61,67,62,-1,62,67,68,-1,62,68,35,-1,35,68,69,-1,35,69,33,-1,45,70,18,-1,18,70,71,-1,18,71,72,-1,73,74,40,-1,40,74,75,-1,40,75,7,-1,7,75,76,-1,7,76,5,-1,77,78,57,-1,57,78,79,-1,57,79,56,-1,56,79,80,-1,56,80,10,-1,10,80,2,-1,10,2,50,-1,50,2,4,-1,72,81,18,-1,18,81,82,-1,18,82,0,-1,0,82,83,-1,0,83,1,-1,1,83,84,-1,1,84,21,-1,21,84,85,-1,21,85,19,-1,66,86,18,-1,18,86,87,-1,18,87,40,-1,40,87,88,-1,40,88,73,-1,89,12,10,-1,90,18,38,-1,38,91,90,-1,90,91,89,-1,90,89,92,-1,92,89,10,-1,93,94,95,-1,95,94,96,-1,95,96,97,-1,97,96,98,-1,99,100,101,-1,101,100,102,-1,103,104,105,-1,105,104,106,-1,107,108,109,-1,109,108,110,-1,111,112,113,-1,113,112,114,-1,115,116,117,-1,117,116,118,-1,117,118,119,-1,93,95,120,-1,93,120,116,-1,116,120,121,-1,116,121,118,-1,122,123,124,-1,125,126,127,-1,122,124,128,-1,128,124,125,-1,128,125,129,-1,129,125,127,-1,129,127,130,-1,130,119,129,-1,129,119,118,-1,131,97,132,-1,132,97,98,-1,132,98,133,-1,120,95,134,-1,134,95,97,-1,134,97,131,-1,135,123,136,-1,136,123,122,-1,137,138,139,-1,139,138,135,-1,139,135,136,-1,98,96,133,-1,133,96,140,-1,133,140,141,-1,141,140,142,-1,141,142,143,-1,144,145,146,-1,146,145,143,-1,146,143,100,-1,100,143,142,-1,100,142,102,-1,147,148,149,-1,149,148,145,-1,149,145,104,-1,104,145,144,-1,104,144,106,-1,150,151,90,-1,90,151,148,-1,90,148,18,-1,18,148,147,-1,18,147,47,-1,152,153,154,-1,154,153,151,-1,154,151,108,-1,108,151,150,-1,108,150,110,-1,155,138,156,-1,156,138,137,-1,156,137,157,-1,157,137,153,-1,157,153,112,-1,112,153,152,-1,112,152,114,-1,126,115,127,-1,127,115,117,-1,123,135,138,-1,138,155,123,-1,123,155,158,-1,123,158,124,-1,126,125,115,-1,115,125,116,-1,159,107,109,-1,160,103,105,-1,125,161,116,-1,116,161,162,-1,163,125,164,-1,164,125,124,-1,164,124,158,-1,125,165,92,-1,94,93,166,-1,166,93,116,-1,166,116,167,-1,167,116,162,-1,167,162,101,-1,101,162,99,-1,109,165,159,-1,159,165,125,-1,159,125,168,-1,168,125,163,-1,168,163,113,-1,113,163,111,-1,105,161,160,-1,160,161,125,-1,160,125,169,-1,169,125,92,-1,169,92,49,-1,49,92,10,-1,130,127,119,-1,119,127,117,-1,128,129,121,-1,121,129,118,-1,170,122,128,-1,121,120,171,-1,171,172,121,-1,121,172,173,-1,121,173,128,-1,128,173,174,-1,128,174,170,-1,175,176,139,-1,139,176,137,-1,137,176,177,-1,137,177,153,-1,153,177,178,-1,153,178,179,-1,136,122,139,-1,139,122,179,-1,139,179,175,-1,175,179,178,-1,180,181,182,-1,182,181,151,-1,182,151,183,-1,183,151,153,-1,183,153,184,-1,184,153,179,-1,184,179,180,-1,180,179,181,-1,185,186,187,-1,187,186,148,-1,187,148,188,-1,188,148,151,-1,188,151,189,-1,189,151,181,-1,189,181,185,-1,185,181,186,-1,190,191,192,-1,192,191,145,-1,192,145,193,-1,193,145,148,-1,193,148,194,-1,194,148,186,-1,194,186,190,-1,190,186,191,-1,171,191,172,-1,172,191,186,-1,172,186,173,-1,173,186,181,-1,173,181,174,-1,174,181,179,-1,174,179,170,-1,170,179,122,-1,195,196,197,-1,197,196,143,-1,197,143,198,-1,198,143,145,-1,198,145,199,-1,199,145,191,-1,199,191,195,-1,200,201,202,-1,202,201,141,-1,202,141,203,-1,203,141,143,-1,203,143,204,-1,204,143,196,-1,204,196,200,-1,200,196,201,-1,195,191,196,-1,196,191,171,-1,196,171,201,-1,201,171,120,-1,201,120,134,-1,134,131,201,-1,201,131,132,-1,201,132,141,-1,141,132,133,-1,112,111,157,-1,157,111,163,-1,163,205,206,-1,205,163,207,-1,207,163,164,-1,207,164,208,-1,208,164,156,-1,208,156,206,-1,206,156,157,-1,206,157,163,-1,156,164,155,-1,155,164,158,-1,
        ]
    }
}
Shape{
    appearance Appearance {
        material  Material 	{
            diffuseColor 0.6470588235294118 0.6196078431372549 0.5882352941176471
            specularColor 0.45098039215686275 0.43529411764705883 0.4117647058823529
            ambientIntensity 0.6242
            transparency 0.0
            shininess 0.5
        }
    }
    geometry IndexedFaceSet {
        ccw TRUE
        solid FALSE
        coord DEF co Coordinate {
            point [
                3.7913 -0.0941 -1.378, 3.7913 0.1185 -1.378, 4.0039 -0.0941 -1.378, 4.0039 0.1185 -1.378, 4.122 0.2366 -0.9842, 4.122 0.2366 0.1969, 4.122 -0.2122 -0.9842, 4.122 -0.2122 0.1969, 3.6732 -0.2122 -0.9842, 3.6732 -0.2122 0.1969, 3.6732 0.2366 -0.9842, 3.6732 0.2366 0.1969, 3.7913 0.1185 4.3701, 3.7913 -0.0941 4.3701, 4.0039 0.1185 4.3701, 4.0039 -0.0941 4.3701, 3.6732 -0.2122 3.9764, 3.6732 -0.2122 1.126, 4.122 -0.2122 3.9764, 4.122 -0.2122 1.126, 4.122 0.2366 3.9764, 4.122 0.2366 1.126, 3.6732 0.2366 3.9764, 3.6732 0.2366 1.126
            ]
        }
        coordIndex [
            0,1,2,-1,2,1,3,-1,4,5,6,-1,6,5,7,-1,8,9,10,-1,10,9,11,-1,10,11,4,-1,4,11,5,-1,6,7,8,-1,8,7,9,-1,12,13,14,-1,14,13,15,-1,16,17,18,-1,18,17,19,-1,20,21,22,-1,22,21,23,-1,18,19,20,-1,20,19,21,-1,22,23,16,-1,16,23,17,-1,4,3,10,-1,10,3,1,-1,6,2,4,-1,4,2,3,-1,0,8,1,-1,1,8,10,-1,8,0,6,-1,6,0,2,-1,18,15,16,-1,16,15,13,-1,20,14,18,-1,18,14,15,-1,12,22,13,-1,13,22,16,-1,22,12,20,-1,20,12,14,-1,
        ]
    }
}
Shape{
    appearance Appearance {
        material  Material 	{
            diffuseColor 1.0 1.0 1.0
            specularColor 0.5019607843137255 0.5019607843137255 0.5019607843137255
            ambientIntensity 1.0
            transparency 0.0
            shininess 0.5
        }
    }
    geometry IndexedFaceSet {
        ccw TRUE
        solid FALSE
        coord DEF co Coordinate {
            point [
                2.063 -1.8776 0.0787, 2.063 1.3114 0.0787, 2.063 -1.8776 0.1969, 2.063 1.3114 0.1969, 2.1142 0.2366 0.1969, 2.1142 -0.2122 0.1969, 2.563 0.2366 0.1969, 2.6142 1.3114 0.1969, 2.563 -0.2122 0.1969, 2.6142 -1.8776 0.1969, 2.6142 -1.8776 0.0787, 2.6142 1.3114 0.0787, 0.5039 1.3114 0.1969, 0.5551 0.2366 0.1969, 0.5551 -0.2122 0.1969, 1.0039 0.2366 0.1969, 1.0551 1.3114 0.1969, 1.0039 -0.2122 0.1969, 1.0551 -1.8776 0.1969, 0.5039 -1.8776 0.1969, 1.0551 -1.8776 0.0787, 1.0551 1.3114 0.0787, -1.0551 -1.8776 0.0787, -1.0551 1.3114 0.0787, -1.0551 -1.8776 0.1969, -1.0551 1.3114 0.1969, -1.0039 0.2366 0.1969, -1.0039 -0.2122 0.1969, -0.5551 0.2366 0.1969, -0.5039 1.3114 0.1969, -0.5551 -0.2122 0.1969, -0.5039 -1.8776 0.1969, -0.5039 -1.8776 0.0787, -0.5039 1.3114 0.0787, -2.6142 -1.8776 0.0787, -2.6142 1.3114 0.0787, -2.6142 -1.8776 0.1969, -2.6142 1.3114 0.1969, -2.563 0.2366 0.1969, -2.563 -0.2122 0.1969, -2.1142 0.2366 0.1969, -2.063 1.3114 0.1969, -2.1142 -0.2122 0.1969, -2.063 -1.8776 0.1969, -2.063 -1.8776 0.0787, -2.063 1.3114 0.0787, -4.1732 -1.8776 0.0787, -4.1732 1.3114 0.0787, -4.1732 -1.8776 0.1969, -4.1732 1.3114 0.1969, -4.122 0.2366 0.1969, -4.122 -0.2122 0.1969, -3.6732 0.2366 0.1969, -3.622 1.3114 0.1969, -3.6732 -0.2122 0.1969, -3.622 -1.8776 0.1969, -3.622 -1.8776 0.0787, -3.622 1.3114 0.0787
            ]
        }
        coordIndex [
            0,1,2,-1,2,1,3,-1,3,4,5,-1,4,3,6,-1,6,3,7,-1,6,7,8,-1,8,7,9,-1,8,9,5,-1,5,9,2,-1,5,2,3,-1,9,7,10,-1,10,7,11,-1,12,13,14,-1,13,12,15,-1,15,12,16,-1,15,16,17,-1,17,16,18,-1,17,18,14,-1,14,18,19,-1,14,19,12,-1,18,16,20,-1,20,16,21,-1,22,23,24,-1,24,23,25,-1,25,26,27,-1,26,25,28,-1,28,25,29,-1,28,29,30,-1,30,29,31,-1,30,31,27,-1,27,31,24,-1,27,24,25,-1,31,29,32,-1,32,29,33,-1,34,35,36,-1,36,35,37,-1,37,38,39,-1,38,37,40,-1,40,37,41,-1,40,41,42,-1,42,41,43,-1,42,43,39,-1,39,43,36,-1,39,36,37,-1,43,41,44,-1,44,41,45,-1,46,47,48,-1,48,47,49,-1,49,50,51,-1,50,49,52,-1,52,49,53,-1,52,53,54,-1,54,53,55,-1,54,55,51,-1,51,55,48,-1,51,48,49,-1,55,53,56,-1,56,53,57,-1,
        ]
    }
}
Shape{
    appearance Appearance {
        material  Material 	{
            diffuseColor 0.6470588235294118 0.6196078431372549 0.5882352941176471
            specularColor 0.45098039215686275 0.43529411764705883 0.4117647058823529
            ambientIntensity 0.6242
            transparency 0.0
            shininess 0.5
        }
    }
    geometry IndexedFaceSet {
        ccw TRUE
        solid FALSE
        coord DEF co Coordinate {
            point [
                2.2323 -0.0941 -1.378, 2.2323 0.1185 -1.378, 2.4449 -0.0941 -1.378, 2.4449 0.1185 -1.378, 2.563 0.2366 -0.9842, 2.563 0.2366 0.1969, 2.563 -0.2122 -0.9842, 2.563 -0.2122 0.1969, 2.1142 -0.2122 -0.9842, 2.1142 -0.2122 0.1969, 2.1142 0.2366 -0.9842, 2.1142 0.2366 0.1969, 2.2323 0.1185 4.3701, 2.2323 -0.0941 4.3701, 2.4449 0.1185 4.3701, 2.4449 -0.0941 4.3701, 2.1142 -0.2122 3.9764, 2.1142 -0.2122 1.126, 2.563 -0.2122 3.9764, 2.563 -0.2122 1.126, 2.563 0.2366 3.9764, 2.563 0.2366 1.126, 2.1142 0.2366 3.9764, 2.1142 0.2366 1.126, 0.6732 -0.0941 -1.378, 0.6732 0.1185 -1.378, 0.8858 -0.0941 -1.378, 0.8858 0.1185 -1.378, 1.0039 0.2366 -0.9842, 1.0039 0.2366 0.1969, 1.0039 -0.2122 -0.9842, 1.0039 -0.2122 0.1969, 0.5551 -0.2122 -0.9842, 0.5551 -0.2122 0.1969, 0.5551 0.2366 -0.9842, 0.5551 0.2366 0.1969, 0.6732 0.1185 4.3701, 0.6732 -0.0941 4.3701, 0.8858 0.1185 4.3701, 0.8858 -0.0941 4.3701, 0.5551 -0.2122 3.9764, 0.5551 -0.2122 1.126, 1.0039 -0.2122 3.9764, 1.0039 -0.2122 1.126, 1.0039 0.2366 3.9764, 1.0039 0.2366 1.126, 0.5551 0.2366 3.9764, 0.5551 0.2366 1.126, -0.8858 -0.0941 -1.378, -0.8858 0.1185 -1.378, -0.6732 -0.0941 -1.378, -0.6732 0.1185 -1.378, -0.5551 0.2366 -0.9842, -0.5551 0.2366 0.1969, -0.5551 -0.2122 -0.9842, -0.5551 -0.2122 0.1969, -1.0039 -0.2122 -0.9842, -1.0039 -0.2122 0.1969, -1.0039 0.2366 -0.9842, -1.0039 0.2366 0.1969, -0.8858 0.1185 4.3701, -0.8858 -0.0941 4.3701, -0.6732 0.1185 4.3701, -0.6732 -0.0941 4.3701, -1.0039 -0.2122 3.9764, -1.0039 -0.2122 1.126, -0.5551 -0.2122 3.9764, -0.5551 -0.2122 1.126, -0.5551 0.2366 3.9764, -0.5551 0.2366 1.126, -1.0039 0.2366 3.9764, -1.0039 0.2366 1.126, -2.4449 -0.0941 -1.378, -2.4449 0.1185 -1.378, -2.2323 -0.0941 -1.378, -2.2323 0.1185 -1.378, -2.1142 0.2366 -0.9842, -2.1142 0.2366 0.1969, -2.1142 -0.2122 -0.9842, -2.1142 -0.2122 0.1969, -2.563 -0.2122 -0.9842, -2.563 -0.2122 0.1969, -2.563 0.2366 -0.9842, -2.563 0.2366 0.1969, -2.4449 0.1185 4.3701, -2.4449 -0.0941 4.3701, -2.2323 0.1185 4.3701, -2.2323 -0.0941 4.3701, -2.563 -0.2122 3.9764, -2.563 -0.2122 1.126, -2.1142 -0.2122 3.9764, -2.1142 -0.2122 1.126, -2.1142 0.2366 3.9764, -2.1142 0.2366 1.126, -2.563 0.2366 3.9764, -2.563 0.2366 1.126, -4.0039 -0.0941 -1.378, -4.0039 0.1185 -1.378, -3.7913 -0.0941 -1.378, -3.7913 0.1185 -1.378, -3.6732 0.2366 -0.9842, -3.6732 0.2366 0.1969, -3.6732 -0.2122 -0.9842, -3.6732 -0.2122 0.1969, -4.122 -0.2122 -0.9842, -4.122 -0.2122 0.1969, -4.122 0.2366 -0.9842, -4.122 0.2366 0.1969, -4.0039 0.1185 4.3701, -4.0039 -0.0941 4.3701, -3.7913 0.1185 4.3701, -3.7913 -0.0941 4.3701, -4.122 -0.2122 3.9764, -4.122 -0.2122 1.126, -3.6732 -0.2122 3.9764, -3.6732 -0.2122 1.126, -3.6732 0.2366 3.9764, -3.6732 0.2366 1.126, -4.122 0.2366 3.9764, -4.122 0.2366 1.126
            ]
        }
        coordIndex [
            0,1,2,-1,2,1,3,-1,4,5,6,-1,6,5,7,-1,8,9,10,-1,10,9,11,-1,10,11,4,-1,4,11,5,-1,6,7,8,-1,8,7,9,-1,12,13,14,-1,14,13,15,-1,16,17,18,-1,18,17,19,-1,20,21,22,-1,22,21,23,-1,18,19,20,-1,20,19,21,-1,22,23,16,-1,16,23,17,-1,24,25,26,-1,26,25,27,-1,28,29,30,-1,30,29,31,-1,32,33,34,-1,34,33,35,-1,34,35,28,-1,28,35,29,-1,30,31,32,-1,32,31,33,-1,36,37,38,-1,38,37,39,-1,40,41,42,-1,42,41,43,-1,44,45,46,-1,46,45,47,-1,42,43,44,-1,44,43,45,-1,46,47,40,-1,40,47,41,-1,48,49,50,-1,50,49,51,-1,52,53,54,-1,54,53,55,-1,56,57,58,-1,58,57,59,-1,58,59,52,-1,52,59,53,-1,54,55,56,-1,56,55,57,-1,60,61,62,-1,62,61,63,-1,64,65,66,-1,66,65,67,-1,68,69,70,-1,70,69,71,-1,66,67,68,-1,68,67,69,-1,70,71,64,-1,64,71,65,-1,72,73,74,-1,74,73,75,-1,76,77,78,-1,78,77,79,-1,80,81,82,-1,82,81,83,-1,82,83,76,-1,76,83,77,-1,78,79,80,-1,80,79,81,-1,84,85,86,-1,86,85,87,-1,88,89,90,-1,90,89,91,-1,92,93,94,-1,94,93,95,-1,90,91,92,-1,92,91,93,-1,94,95,88,-1,88,95,89,-1,96,97,98,-1,98,97,99,-1,100,101,102,-1,102,101,103,-1,104,105,106,-1,106,105,107,-1,106,107,100,-1,100,107,101,-1,102,103,104,-1,104,103,105,-1,108,109,110,-1,110,109,111,-1,112,113,114,-1,114,113,115,-1,116,117,118,-1,118,117,119,-1,114,115,116,-1,116,115,117,-1,118,119,112,-1,112,119,113,-1,4,3,10,-1,10,3,1,-1,6,2,4,-1,4,2,3,-1,0,8,1,-1,1,8,10,-1,8,0,6,-1,6,0,2,-1,18,15,16,-1,16,15,13,-1,20,14,18,-1,18,14,15,-1,12,22,13,-1,13,22,16,-1,22,12,20,-1,20,12,14,-1,28,27,34,-1,34,27,25,-1,30,26,28,-1,28,26,27,-1,24,32,25,-1,25,32,34,-1,32,24,30,-1,30,24,26,-1,42,39,40,-1,40,39,37,-1,44,38,42,-1,42,38,39,-1,36,46,37,-1,37,46,40,-1,46,36,44,-1,44,36,38,-1,52,51,58,-1,58,51,49,-1,54,50,52,-1,52,50,51,-1,48,56,49,-1,49,56,58,-1,56,48,54,-1,54,48,50,-1,66,63,64,-1,64,63,61,-1,68,62,66,-1,66,62,63,-1,60,70,61,-1,61,70,64,-1,70,60,68,-1,68,60,62,-1,76,75,82,-1,82,75,73,-1,78,74,76,-1,76,74,75,-1,72,80,73,-1,73,80,82,-1,80,72,78,-1,78,72,74,-1,90,87,88,-1,88,87,85,-1,92,86,90,-1,90,86,87,-1,84,94,85,-1,85,94,88,-1,94,84,92,-1,92,84,86,-1,100,99,106,-1,106,99,97,-1,102,98,100,-1,100,98,99,-1,96,104,97,-1,97,104,106,-1,104,96,102,-1,102,96,98,-1,114,111,112,-1,112,111,109,-1,116,110,114,-1,114,110,111,-1,108,118,109,-1,109,118,112,-1,118,108,116,-1,116,108,110,-1,
        ]
    }
}
Shape{
    appearance Appearance {
        material  Material 	{
            diffuseColor 1.0 1.0 1.0
            specularColor 0.8784313725490196 0.8784313725490196 0.8784313725490196
            ambientIntensity 1.0
            transparency 0.0
            shininess 0.5
        }
    }
    geometry IndexedFaceSet {
        ccw TRUE
        solid FALSE
        coord DEF co Coordinate {
            point [
                -0.168 -0.3064 0.1181, -0.168 -0.2848 0.1181, -0.168 -0.3064 0.0787, -0.168 -0.2848 0.0787, -0.2688 -0.2848 0.1181, -0.2688 -0.2848 0.0787, -0.2688 -0.4816 0.1181, -0.2688 -0.4816 0.0787, -0.2424 -0.4816 0.1181, -0.2424 -0.4816 0.0787, -0.2424 -0.3064 0.1181, -0.2424 -0.3064 0.0787, -0.0047 -0.3166 0.1181, -0.0047 -0.295 0.1181, -0.0047 -0.3166 0.0787, -0.0047 -0.295 0.0787, -0.0589 -0.2824 0.1181, -0.0589 -0.2824 0.0787, -0.0535 -0.2824 0.0787, -0.0535 -0.2824 0.1181, -0.0257 -0.2863 0.0787, -0.0257 -0.2863 0.1181, -0.1512 -0.3795 0.1181, -0.1512 -0.3795 0.0787, -0.1493 -0.3567 0.0787, -0.1493 -0.3567 0.1181, -0.1434 -0.3358 0.0787, -0.1434 -0.3358 0.1181, -0.1329 -0.3171 0.0787, -0.1329 -0.3171 0.1181, -0.1181 -0.3015 0.0787, -0.1181 -0.3015 0.1181, -0.1023 -0.2914 0.0787, -0.1023 -0.2914 0.1181, -0.0832 -0.2849 0.0787, -0.0832 -0.2849 0.1181, -0.0511 -0.484 0.1181, -0.0511 -0.484 0.0787, -0.0708 -0.4824 0.0787, -0.0708 -0.4824 0.1181, -0.0928 -0.476 0.0787, -0.0928 -0.476 0.1181, -0.1115 -0.4653 0.0787, -0.1115 -0.4653 0.1181, -0.1293 -0.4482 0.0787, -0.1293 -0.4482 0.1181, -0.1408 -0.4298 0.0787, -0.1408 -0.4298 0.1181, -0.1484 -0.4075 0.0787, -0.1484 -0.4075 0.1181, -0.0047 -0.4762 0.1181, -0.0047 -0.4762 0.0787, -0.0275 -0.4824 0.0787, -0.0275 -0.4824 0.1181, -0.0047 -0.4498 0.1181, -0.0047 -0.4498 0.0787, -0.0508 -0.4624 0.1181, -0.0508 -0.4624 0.0787, -0.0269 -0.4593 0.0787, -0.0269 -0.4593 0.1181, -0.1248 -0.3811 0.1181, -0.1248 -0.3811 0.0787, -0.1238 -0.3964 0.0787, -0.1238 -0.3964 0.1181, -0.1186 -0.4175 0.0787, -0.1186 -0.4175 0.1181, -0.1105 -0.4327 0.0787, -0.1105 -0.4327 0.1181, -0.0986 -0.4458 0.0787, -0.0986 -0.4458 0.1181, -0.085 -0.4549 0.0787, -0.085 -0.4549 0.1181, -0.0702 -0.4602 0.0787, -0.0702 -0.4602 0.1181, -0.0553 -0.304 0.1181, -0.0553 -0.304 0.0787, -0.0736 -0.306 0.0787, -0.0736 -0.306 0.1181, -0.088 -0.3113 0.0787, -0.088 -0.3113 0.1181, -0.1001 -0.3194 0.0787, -0.1001 -0.3194 0.1181, -0.1093 -0.3292 0.0787, -0.1093 -0.3292 0.1181, -0.1174 -0.3428 0.0787, -0.1174 -0.3428 0.1181, -0.1228 -0.3598 0.0787, -0.1228 -0.3598 0.1181, -0.0083 -0.3146 0.0787, -0.0083 -0.3146 0.1181, -0.0291 -0.3069 0.0787, -0.0291 -0.3069 0.1181, 0.1393 -0.3064 0.1181, 0.1393 -0.2848 0.1181, 0.1393 -0.3064 0.0787, 0.1393 -0.2848 0.0787, 0.0337 -0.2848 0.1181, 0.0337 -0.2848 0.0787, 0.0337 -0.4816 0.1181, 0.0337 -0.4816 0.0787, 0.1345 -0.4816 0.1181, 0.1345 -0.4816 0.0787, 0.1345 -0.46 0.1181, 0.1345 -0.46 0.0787, 0.0601 -0.46 0.1181, 0.0601 -0.46 0.0787, 0.0601 -0.3952 0.1181, 0.0601 -0.3952 0.0787, 0.1297 -0.3952 0.1181, 0.1297 -0.3952 0.0787, 0.1297 -0.3736 0.1181, 0.1297 -0.3736 0.0787, 0.0601 -0.3736 0.1181, 0.0601 -0.3736 0.0787, 0.0601 -0.3064 0.1181, 0.0601 -0.3064 0.0787, 0.2312 -0.2848 0.1181, 0.1777 -0.2848 0.1181, 0.2312 -0.2848 0.0787, 0.1777 -0.2848 0.0787, 0.1777 -0.4816 0.1181, 0.1777 -0.4816 0.0787, 0.2332 -0.4816 0.1181, 0.2332 -0.4816 0.0787, 0.3361 -0.3857 0.1181, 0.3361 -0.3857 0.0787, 0.3347 -0.4042 0.0787, 0.3347 -0.4042 0.1181, 0.3294 -0.4236 0.0787, 0.3294 -0.4236 0.1181, 0.3203 -0.4405 0.0787, 0.3203 -0.4405 0.1181, 0.3064 -0.4559 0.0787, 0.3064 -0.4559 0.1181, 0.3061 -0.4561 0.0787, 0.3061 -0.4561 0.1181, 0.2847 -0.4705 0.0787, 0.2847 -0.4705 0.1181, 0.2617 -0.4786 0.0787, 0.2617 -0.4786 0.1181, 0.2556 -0.2869 0.0787, 0.2556 -0.2869 0.1181, 0.2783 -0.2936 0.0787, 0.2783 -0.2936 0.1181, 0.2988 -0.3056 0.0787, 0.2988 -0.3056 0.1181, 0.315 -0.3211 0.0787, 0.315 -0.3211 0.1181, 0.3263 -0.3387 0.0787, 0.3263 -0.3387 0.1181, 0.3334 -0.3593 0.0787, 0.3334 -0.3593 0.1181, 0.2966 -0.4324 0.1181, 0.2871 -0.4425 0.1181, 0.2727 -0.4518 0.1181, 0.2564 -0.4575 0.1181, 0.2331 -0.46 0.1181, 0.2041 -0.46 0.1181, 0.2041 -0.3064 0.1181, 0.232 -0.3064 0.1181, 0.2528 -0.3083 0.1181, 0.2694 -0.3135 0.1181, 0.2828 -0.3214 0.1181, 0.2938 -0.3323 0.1181, 0.3021 -0.3459 0.1181, 0.3079 -0.3644 0.1181, 0.3097 -0.3851 0.1181, 0.3081 -0.4047 0.1181, 0.3035 -0.4203 0.1181, 0.2331 -0.46 0.0787, 0.2041 -0.46 0.0787, 0.2564 -0.4575 0.0787, 0.2727 -0.4518 0.0787, 0.2871 -0.4425 0.0787, 0.2966 -0.4324 0.0787, 0.3035 -0.4203 0.0787, 0.3081 -0.4047 0.0787, 0.3097 -0.3851 0.0787, 0.3079 -0.3644 0.0787, 0.3021 -0.3459 0.0787, 0.2938 -0.3323 0.0787, 0.2828 -0.3214 0.0787, 0.2694 -0.3135 0.0787, 0.2528 -0.3083 0.0787, 0.232 -0.3064 0.0787, 0.2041 -0.3064 0.0787
            ]
        }
        coordIndex [
            0,1,2,-1,2,1,3,-1,1,4,3,-1,3,4,5,-1,4,6,5,-1,5,6,7,-1,6,8,7,-1,7,8,9,-1,8,10,9,-1,9,10,11,-1,10,0,11,-1,11,0,2,-1,8,6,10,-1,10,6,4,-1,10,4,0,-1,0,4,1,-1,12,13,14,-1,14,13,15,-1,16,17,18,-1,16,18,19,-1,19,18,20,-1,19,20,21,-1,21,20,15,-1,21,15,13,-1,22,23,24,-1,22,24,25,-1,25,24,26,-1,25,26,27,-1,27,26,28,-1,27,28,29,-1,29,28,30,-1,29,30,31,-1,31,30,32,-1,31,32,33,-1,33,32,34,-1,33,34,35,-1,35,34,17,-1,35,17,16,-1,36,37,38,-1,36,38,39,-1,39,38,40,-1,39,40,41,-1,41,40,42,-1,41,42,43,-1,43,42,44,-1,43,44,45,-1,45,44,46,-1,45,46,47,-1,47,46,48,-1,47,48,49,-1,49,48,23,-1,49,23,22,-1,50,51,52,-1,50,52,53,-1,53,52,37,-1,53,37,36,-1,50,54,51,-1,51,54,55,-1,56,57,58,-1,56,58,59,-1,59,58,55,-1,59,55,54,-1,60,61,62,-1,60,62,63,-1,63,62,64,-1,63,64,65,-1,65,64,66,-1,65,66,67,-1,67,66,68,-1,67,68,69,-1,69,68,70,-1,69,70,71,-1,71,70,72,-1,71,72,73,-1,73,72,57,-1,73,57,56,-1,74,75,76,-1,74,76,77,-1,77,76,78,-1,77,78,79,-1,79,78,80,-1,79,80,81,-1,81,80,82,-1,81,82,83,-1,83,82,84,-1,83,84,85,-1,85,84,86,-1,85,86,87,-1,87,86,61,-1,87,61,60,-1,12,14,88,-1,12,88,89,-1,89,88,90,-1,89,90,91,-1,91,90,75,-1,91,75,74,-1,77,16,74,-1,74,16,19,-1,74,19,91,-1,91,19,21,-1,91,21,89,-1,89,21,13,-1,89,13,12,-1,54,50,59,-1,59,50,53,-1,59,53,56,-1,56,53,36,-1,56,36,73,-1,73,36,39,-1,73,39,71,-1,71,39,41,-1,71,41,69,-1,69,41,43,-1,69,43,67,-1,67,43,45,-1,67,45,65,-1,65,45,47,-1,65,47,63,-1,63,47,49,-1,63,49,60,-1,60,49,22,-1,60,22,87,-1,87,22,25,-1,87,25,85,-1,85,25,27,-1,85,27,83,-1,83,27,29,-1,83,29,81,-1,81,29,31,-1,81,31,79,-1,79,31,33,-1,79,33,77,-1,77,33,35,-1,77,35,16,-1,92,93,94,-1,94,93,95,-1,93,96,95,-1,95,96,97,-1,96,98,97,-1,97,98,99,-1,98,100,99,-1,99,100,101,-1,100,102,101,-1,101,102,103,-1,102,104,103,-1,103,104,105,-1,104,106,105,-1,105,106,107,-1,106,108,107,-1,107,108,109,-1,108,110,109,-1,109,110,111,-1,110,112,111,-1,111,112,113,-1,112,114,113,-1,113,114,115,-1,114,92,115,-1,115,92,94,-1,96,93,92,-1,92,114,96,-1,96,114,112,-1,96,112,98,-1,102,100,104,-1,104,100,98,-1,104,98,106,-1,106,98,112,-1,106,112,108,-1,108,112,110,-1,116,117,118,-1,118,117,119,-1,117,120,119,-1,119,120,121,-1,120,122,121,-1,121,122,123,-1,124,125,126,-1,124,126,127,-1,127,126,128,-1,127,128,129,-1,129,128,130,-1,129,130,131,-1,131,130,132,-1,131,132,133,-1,133,132,134,-1,133,134,135,-1,135,134,136,-1,135,136,137,-1,137,136,138,-1,137,138,139,-1,139,138,123,-1,139,123,122,-1,116,118,140,-1,116,140,141,-1,141,140,142,-1,141,142,143,-1,143,142,144,-1,143,144,145,-1,145,144,146,-1,145,146,147,-1,147,146,148,-1,147,148,149,-1,149,148,150,-1,149,150,151,-1,151,150,125,-1,151,125,124,-1,129,131,152,-1,152,131,133,-1,152,133,153,-1,153,133,135,-1,153,135,154,-1,154,135,137,-1,154,137,155,-1,155,137,139,-1,155,139,156,-1,156,139,122,-1,156,122,157,-1,157,122,120,-1,157,120,158,-1,158,120,117,-1,158,117,159,-1,159,117,116,-1,159,116,160,-1,160,116,141,-1,160,141,161,-1,161,141,143,-1,161,143,162,-1,162,143,145,-1,162,145,163,-1,163,145,147,-1,163,147,164,-1,164,147,149,-1,164,149,165,-1,165,149,151,-1,165,151,166,-1,166,151,124,-1,166,124,167,-1,167,124,127,-1,167,127,168,-1,168,127,129,-1,168,129,152,-1,156,157,169,-1,169,157,170,-1,156,169,171,-1,156,171,155,-1,155,171,172,-1,155,172,154,-1,154,172,173,-1,154,173,153,-1,153,173,174,-1,153,174,152,-1,152,174,175,-1,152,175,168,-1,168,175,176,-1,168,176,167,-1,167,176,177,-1,167,177,166,-1,166,177,178,-1,166,178,165,-1,165,178,179,-1,165,179,164,-1,164,179,180,-1,164,180,163,-1,163,180,181,-1,163,181,162,-1,162,181,182,-1,162,182,161,-1,161,182,183,-1,161,183,160,-1,160,183,184,-1,160,184,159,-1,158,159,185,-1,185,159,184,-1,157,158,170,-1,170,158,185,-1,
        ]
    }
}
Shape{
    appearance Appearance {
        material  Material 	{
            diffuseColor 1.0 1.0 1.0
            specularColor 0.5019607843137255 0.5019607843137255 0.5019607843137255
            ambientIntensity 1.0
            transparency 0.0
            shininess 0.5
        }
    }
    geometry IndexedFaceSet {
        ccw TRUE
        solid FALSE
        coord DEF co Coordinate {
            point [
                0.2041 -0.46 0.0787, 0.2041 -0.3064 0.0787, 0.2331 -0.46 0.0787, 0.232 -0.3064 0.0787, 0.2528 -0.3083 0.0787, 0.3097 -0.3851 0.0787, 0.3081 -0.4047 0.0787, 0.3035 -0.4203 0.0787, 0.2564 -0.4575 0.0787, 0.2694 -0.3135 0.0787, 0.2828 -0.3214 0.0787, 0.2938 -0.3323 0.0787, 0.3021 -0.3459 0.0787, 0.3079 -0.3644 0.0787, 0.2966 -0.4324 0.0787, 0.2871 -0.4425 0.0787, 0.2727 -0.4518 0.0787
            ]
        }
        coordIndex [
            0,1,2,-1,2,1,3,-1,2,3,4,-1,5,6,2,-1,2,6,7,-1,2,7,8,-1,4,9,2,-1,2,9,10,-1,2,10,11,-1,11,12,2,-1,2,12,13,-1,2,13,5,-1,14,15,7,-1,7,15,16,-1,7,16,8,-1,
        ]
    }
}
Shape{
    appearance Appearance {
        material  Material 	{
            diffuseColor 1.0 1.0 1.0
            specularColor 0.8784313725490196 0.8784313725490196 0.8784313725490196
            ambientIntensity 1.0
            transparency 0.0
            shininess 0.5
        }
    }
    geometry IndexedFaceSet {
        ccw TRUE
        solid FALSE
        coord DEF co Coordinate {
            point [
                0.4514 -0.4816 0.0787, 0.4514 -0.4816 0.1181, 0.5039 -0.3469 0.0787, 0.5039 -0.3469 0.1181, 0.4994 -0.2848 0.1181, 0.4994 -0.2848 0.0787, 0.5039 -0.2848 0.1181, 0.5039 -0.2848 0.0787, 0.4342 -0.4438 0.1181, 0.425 -0.4816 0.1181, 0.4048 -0.3616 0.1181, 0.3505 -0.2848 0.1181, 0.436 -0.4506 0.1181, 0.4373 -0.4576 0.1181, 0.4379 -0.4576 0.1181, 0.4795 -0.34 0.1181, 0.4392 -0.4506 0.1181, 0.441 -0.4438 0.1181, 0.4706 -0.3616 0.1181, 0.3981 -0.34 0.1181, 0.3793 -0.2848 0.1181, 0.4795 -0.34 0.0787, 0.3981 -0.34 0.0787, 0.3793 -0.2848 0.0787, 0.3505 -0.2848 0.0787, 0.425 -0.4816 0.0787, 0.4048 -0.3616 0.0787, 0.4706 -0.3616 0.0787, 0.4342 -0.4438 0.0787, 0.436 -0.4506 0.0787, 0.4373 -0.4576 0.0787, 0.4379 -0.4576 0.0787, 0.4392 -0.4506 0.0787, 0.441 -0.4438 0.0787
            ]
        }
        coordIndex [
            0,1,2,-1,2,1,3,-1,4,5,6,-1,6,5,7,-1,8,9,10,-1,10,9,11,-1,8,12,9,-1,9,12,13,-1,9,13,1,-1,1,13,14,-1,4,6,15,-1,15,6,3,-1,14,16,1,-1,1,16,17,-1,1,17,3,-1,3,17,18,-1,3,18,15,-1,15,18,10,-1,15,10,19,-1,19,10,11,-1,19,11,20,-1,4,15,5,-1,5,15,21,-1,15,19,21,-1,21,19,22,-1,19,20,22,-1,22,20,23,-1,20,11,23,-1,23,11,24,-1,11,9,24,-1,24,9,25,-1,9,1,25,-1,25,1,0,-1,10,18,26,-1,26,18,27,-1,8,10,28,-1,28,10,26,-1,8,28,29,-1,8,29,12,-1,12,29,30,-1,12,30,13,-1,14,13,31,-1,31,13,30,-1,14,31,32,-1,14,32,16,-1,16,32,33,-1,16,33,17,-1,18,17,27,-1,27,17,33,-1,
        ]
    }
}
Shape{
    appearance Appearance {
        material  Material 	{
            diffuseColor 1.0 1.0 1.0
            specularColor 0.5019607843137255 0.5019607843137255 0.5019607843137255
            ambientIntensity 1.0
            transparency 0.0
            shininess 0.5
        }
    }
    geometry IndexedFaceSet {
        ccw TRUE
        solid FALSE
        coord DEF co Coordinate {
            point [
                0.4048 -0.3616 0.0787, 0.4706 -0.3616 0.0787, 0.4342 -0.4438 0.0787, 0.441 -0.4438 0.0787, 0.436 -0.4506 0.0787, 0.4392 -0.4506 0.0787, 0.4373 -0.4576 0.0787, 0.4379 -0.4576 0.0787
            ]
        }
        coordIndex [
            0,1,2,-1,2,1,3,-1,2,3,4,-1,4,3,5,-1,4,5,6,-1,6,5,7,-1,
        ]
    }
}