#VRML V2.0 utf8
# 3D model generated by easyeda2kicad.py (https://github.com/uPesy/easyeda2kicad.py)

Shape{
    appearance Appearance {
        material  Material 	{
            diffuseColor 0.7686274509803922 0.7686274509803922 0.7686274509803922
            specularColor 0.615686274509804 0.615686274509804 0.615686274509804
            ambientIntensity 0.7686
            transparency 0.0
            shininess 0.5
        }
    }
    geometry IndexedFaceSet {
        ccw TRUE
        solid FALSE
        coord DEF co Coordinate {
            point [
                0.4436 0.5738 0.0, 0.4436 0.5393 0.0, 0.436 0.2934 0.0, 0.436 0.2589 0.0, 0.4052 0.257 0.0, 0.605 0.2589 0.0, 0.6664 0.2752 0.0, 0.6664 0.3098 0.0, 0.605 0.5738 0.0, 2.4803 2.8401 0.0, 2.4803 2.3215 0.0, 2.2047 2.9582 0.0, 1.6929 2.3215 0.0, 0.4052 2.9582 0.0, 0.5627 0.401 0.0, 0.5627 0.2934 0.0, 0.4513 0.401 0.0, 0.4513 0.4356 0.0, 0.5627 0.4356 0.0, 0.5627 0.5393 0.0, 0.7712 0.5396 0.0, 0.7948 0.5311 0.0, 0.6721 0.3066 0.0, 0.8166 0.5165 0.0, 0.8356 0.4955 0.0, 0.8585 0.413 0.0, 0.8553 0.3789 0.0, 0.8467 0.3518 0.0, 0.7766 0.2929 0.0, 0.7473 0.2896 0.0, 0.7996 0.3013 0.0, 0.8189 0.3144 0.0, 0.8337 0.33 0.0, 0.7054 0.2942 0.0, 1.0889 0.2589 0.0, 0.7716 0.257 0.0, 0.9276 0.2589 0.0, 0.7919 0.2591 0.0, 0.8224 0.2696 0.0, 1.6929 1.9278 0.0, 0.8841 0.4909 0.0, 0.8656 0.5203 0.0, 1.0467 0.5738 0.0, 0.8486 0.4712 0.0, 0.857 0.4375 0.0, 0.7405 0.5777 0.0, 0.7028 0.5751 0.0, 0.6664 0.5652 0.0, 0.6664 0.5229 0.0, 0.7019 0.5381 0.0, 0.7402 0.5431 0.0, 0.8477 0.2857 0.0, 0.8714 0.3107 0.0, 0.9276 0.2934 0.0, 0.8882 0.3406 0.0, 1.0467 0.2934 0.0, 0.8372 0.5477 0.0, 0.8073 0.5649 0.0, 0.7722 0.5751 0.0, 0.8977 0.3739 0.0, 0.9007 0.4104 0.0, 0.8962 0.4552 0.0, 0.3745 0.5738 0.0, 0.0519 0.2589 0.0, 0.0979 0.2589 0.0, -0.1402 0.2589 0.0, -0.1083 0.3472 0.0, 0.0218 0.3472 0.0, 0.1367 0.3452 0.0, 0.1548 0.317 0.0, 0.1807 0.2922 0.0, 0.2136 0.2731 0.0, -0.748 1.9278 0.0, -0.748 2.3215 0.0, -1.2598 2.9582 0.0, -1.5354 2.3215 0.0, -1.5354 2.8401 0.0, 0.2856 0.5738 0.0, 0.2401 0.569 0.0, -0.0211 0.5738 0.0, 0.2033 0.556 0.0, 0.169 0.5331 0.0, 0.2499 0.2623 0.0, 0.2889 0.2589 0.0, 0.3745 0.2589 0.0, 0.1686 0.5328 0.0, 0.1464 0.5081 0.0, 0.1317 0.481 0.0, -0.1863 0.2589 0.0, -1.1417 0.257 0.0, -0.0634 0.5738 0.0, -1.1417 1.9278 0.0, 0.1233 0.45 0.0, 0.121 0.4203 0.0, 0.1254 0.3782 0.0, 0.7 0.2614 0.0, 0.7318 0.257 0.0, 0.4052 -0.178 0.0, -1.1417 -0.178 0.0, 0.7445 0.2552 0.0, 0.7531 0.255 0.0, 1.0889 0.5738 0.0, 2.0866 1.9278 0.0, 2.0866 0.257 0.0, 2.0866 -0.178 0.0, 2.4535 2.3215 0.5118, 1.6929 2.3215 0.5118, 1.6929 1.9278 0.5118, 2.0866 1.9278 0.5118, 2.0866 -0.178 0.5118, -1.1417 -0.178 0.5118, -1.1417 1.9278 0.5118, -0.748 1.9278 0.5118, -0.748 2.3215 0.5118, -1.5086 2.3215 0.5118, -1.5086 2.8516 0.5118, -1.2598 2.9582 0.5118, 2.2047 2.9582 0.5118, 2.4535 2.8516 0.5118
            ]
        }
        coordIndex [
            0,1,2,-1,2,3,4,-1,4,3,5,-1,6,5,7,-1,7,5,8,-1,9,10,11,-1,11,10,12,-1,11,12,13,-1,14,15,16,-1,16,15,2,-1,16,2,17,-1,17,2,1,-1,17,1,18,-1,18,1,19,-1,20,21,22,-1,22,21,23,-1,22,23,24,-1,25,26,22,-1,22,26,27,-1,28,29,30,-1,30,29,31,-1,27,32,22,-1,22,32,31,-1,22,31,33,-1,33,31,29,-1,34,35,36,-1,36,35,37,-1,36,37,38,-1,13,12,0,-1,0,12,39,-1,0,39,8,-1,40,41,42,-1,24,43,22,-1,22,43,44,-1,22,44,25,-1,45,46,39,-1,39,46,47,-1,39,47,8,-1,8,47,48,-1,8,48,7,-1,7,48,49,-1,7,49,22,-1,22,49,50,-1,22,50,20,-1,38,51,36,-1,36,51,52,-1,36,52,53,-1,53,52,54,-1,53,54,55,-1,41,56,42,-1,42,56,57,-1,42,57,58,-1,54,59,55,-1,55,59,60,-1,55,60,42,-1,42,60,61,-1,42,61,40,-1,0,2,13,-1,13,2,4,-1,13,4,62,-1,63,64,4,-1,65,66,67,-1,68,69,64,-1,64,69,70,-1,64,70,71,-1,62,72,13,-1,13,72,73,-1,13,73,74,-1,74,73,75,-1,74,75,76,-1,77,78,79,-1,79,78,80,-1,79,80,81,-1,71,82,64,-1,64,82,83,-1,64,83,4,-1,4,83,84,-1,4,84,62,-1,81,85,79,-1,79,85,86,-1,79,86,87,-1,67,63,65,-1,65,63,4,-1,65,4,88,-1,88,4,89,-1,88,89,90,-1,90,89,91,-1,90,91,79,-1,79,91,72,-1,79,72,77,-1,77,72,62,-1,87,92,79,-1,79,92,93,-1,79,93,64,-1,64,93,94,-1,64,94,68,-1,6,95,5,-1,5,95,96,-1,5,96,4,-1,4,96,97,-1,4,97,89,-1,89,97,98,-1,96,99,97,-1,97,99,100,-1,97,100,35,-1,58,45,42,-1,42,45,39,-1,42,39,101,-1,101,39,102,-1,101,102,34,-1,34,102,103,-1,34,103,35,-1,35,103,104,-1,35,104,97,-1,10,105,12,-1,12,105,106,-1,12,106,39,-1,39,106,107,-1,39,107,102,-1,102,107,108,-1,102,108,103,-1,103,108,109,-1,103,109,104,-1,104,109,97,-1,97,109,110,-1,97,110,98,-1,111,91,110,-1,110,91,89,-1,110,89,98,-1,91,111,72,-1,72,111,112,-1,72,112,73,-1,73,112,113,-1,73,113,75,-1,75,113,114,-1,75,114,76,-1,76,114,115,-1,115,116,76,-1,76,116,74,-1,74,116,13,-1,13,116,117,-1,13,117,11,-1,117,118,11,-1,11,118,9,-1,118,105,9,-1,9,105,10,-1,112,111,110,-1,117,116,113,-1,113,116,115,-1,113,115,114,-1,106,105,118,-1,109,108,107,-1,110,109,112,-1,112,109,107,-1,112,107,113,-1,113,107,106,-1,113,106,117,-1,117,106,118,-1,
        ]
    }
}
Shape{
    appearance Appearance {
        material  Material 	{
            diffuseColor 0.25098039215686274 0.25098039215686274 0.25098039215686274
            specularColor 0.07450980392156863 0.07450980392156863 0.07450980392156863
            ambientIntensity 0.251
            transparency 0.0
            shininess 0.5
        }
    }
    geometry IndexedFaceSet {
        ccw TRUE
        solid FALSE
        coord DEF co Coordinate {
            point [
                -0.0634 0.5738 0.0039, -0.1863 0.2589 0.0039, -0.0634 0.5738 0.0, -0.1863 0.2589 0.0, -0.1402 0.2589 0.0039, -0.1402 0.2589 0.0, -0.1083 0.3472 0.0039, -0.1083 0.3472 0.0, 0.0218 0.3472 0.0039, 0.0218 0.3472 0.0, 0.0519 0.2589 0.0039, 0.0519 0.2589 0.0, 0.0979 0.2589 0.0039, 0.0979 0.2589 0.0, -0.0211 0.5738 0.0039, -0.0211 0.5738 0.0, 0.0112 0.3818 0.0039, -0.0942 0.3818 0.0039, -0.0358 0.5133 0.0039, -0.0389 0.5243 0.0039, -0.0409 0.5354 0.0039, -0.0419 0.5354 0.0039, -0.0439 0.5243 0.0039, -0.0468 0.5133 0.0039, 0.0112 0.3818 0.0, -0.0942 0.3818 0.0, -0.0358 0.5133 0.0, -0.0389 0.5243 0.0, -0.0409 0.5354 0.0, -0.0419 0.5354 0.0, -0.0439 0.5243 0.0, -0.0468 0.5133 0.0, 0.2889 0.2589 0.0039, 0.3745 0.2589 0.0039, 0.2889 0.2589 0.0, 0.3745 0.2589 0.0, 0.3745 0.5738 0.0039, 0.3745 0.5738 0.0, 0.2856 0.5738 0.0039, 0.2856 0.5738 0.0, 0.121 0.4203 0.0039, 0.121 0.4203 0.0, 0.1233 0.45 0.0, 0.1233 0.45 0.0039, 0.1317 0.481 0.0, 0.1317 0.481 0.0039, 0.1464 0.5081 0.0, 0.1464 0.5081 0.0039, 0.1686 0.5328 0.0, 0.1686 0.5328 0.0039, 0.169 0.5331 0.0, 0.169 0.5331 0.0039, 0.2033 0.556 0.0, 0.2033 0.556 0.0039, 0.2401 0.569 0.0, 0.2401 0.569 0.0039, 0.2499 0.2623 0.0, 0.2499 0.2623 0.0039, 0.2136 0.2731 0.0, 0.2136 0.2731 0.0039, 0.1807 0.2922 0.0, 0.1807 0.2922 0.0039, 0.1548 0.317 0.0, 0.1548 0.317 0.0039, 0.1367 0.3452 0.0, 0.1367 0.3452 0.0039, 0.1254 0.3782 0.0, 0.1254 0.3782 0.0039, 0.1842 0.4951 0.0039, 0.1995 0.5113 0.0039, 0.2225 0.5262 0.0039, 0.2485 0.5353 0.0039, 0.2858 0.5393 0.0039, 0.3322 0.5393 0.0039, 0.3322 0.2934 0.0039, 0.2875 0.2934 0.0039, 0.2543 0.2965 0.0039, 0.2278 0.3048 0.0039, 0.2063 0.3176 0.0039, 0.1887 0.335 0.0039, 0.1754 0.3567 0.0039, 0.1661 0.3863 0.0039, 0.1632 0.4194 0.0039, 0.1659 0.4508 0.0039, 0.1733 0.4757 0.0039, 0.2858 0.5393 0.0, 0.3322 0.5393 0.0, 0.2485 0.5353 0.0, 0.2225 0.5262 0.0, 0.1995 0.5113 0.0, 0.1842 0.4951 0.0, 0.1733 0.4757 0.0, 0.1659 0.4508 0.0, 0.1632 0.4194 0.0, 0.1661 0.3863 0.0, 0.1754 0.3567 0.0, 0.1887 0.335 0.0, 0.2063 0.3176 0.0, 0.2278 0.3048 0.0, 0.2543 0.2965 0.0, 0.2875 0.2934 0.0, 0.3322 0.2934 0.0, 0.436 0.2934 0.0039, 0.436 0.2589 0.0039, 0.436 0.2934 0.0, 0.436 0.2589 0.0, 0.605 0.2589 0.0039, 0.605 0.2589 0.0, 0.605 0.5738 0.0039, 0.605 0.5738 0.0, 0.4436 0.5738 0.0039, 0.4436 0.5738 0.0, 0.4436 0.5393 0.0039, 0.4436 0.5393 0.0, 0.5627 0.5393 0.0039, 0.5627 0.5393 0.0, 0.5627 0.4356 0.0039, 0.5627 0.4356 0.0, 0.4513 0.4356 0.0039, 0.4513 0.4356 0.0, 0.4513 0.401 0.0039, 0.4513 0.401 0.0, 0.5627 0.401 0.0039, 0.5627 0.401 0.0, 0.5627 0.2934 0.0039, 0.5627 0.2934 0.0, 0.6664 0.3098 0.0039, 0.6664 0.2752 0.0039, 0.6664 0.3098 0.0, 0.6664 0.2752 0.0, 0.7 0.2614 0.0039, 0.7531 0.255 0.0039, 0.7531 0.255 0.0, 0.7445 0.2552 0.0, 0.7445 0.2552 0.0039, 0.7318 0.257 0.0, 0.7 0.2614 0.0, 0.7716 0.257 0.0, 0.7919 0.2591 0.0039, 0.7919 0.2591 0.0, 0.8224 0.2696 0.0039, 0.8224 0.2696 0.0, 0.8477 0.2857 0.0039, 0.8477 0.2857 0.0, 0.8714 0.3107 0.0039, 0.8714 0.3107 0.0, 0.8882 0.3406 0.0039, 0.8882 0.3406 0.0, 0.8977 0.3739 0.0039, 0.8977 0.3739 0.0, 0.9007 0.4104 0.0039, 0.9007 0.4104 0.0, 0.7405 0.5777 0.0039, 0.7405 0.5777 0.0, 0.7722 0.5751 0.0, 0.7722 0.5751 0.0039, 0.8073 0.5649 0.0, 0.8073 0.5649 0.0039, 0.8372 0.5477 0.0, 0.8372 0.5477 0.0039, 0.8656 0.5203 0.0, 0.8656 0.5203 0.0039, 0.8841 0.4909 0.0, 0.8841 0.4909 0.0039, 0.8962 0.4552 0.0, 0.8962 0.4552 0.0039, 0.6664 0.5652 0.0039, 0.6664 0.5652 0.0, 0.7028 0.5751 0.0, 0.7028 0.5751 0.0039, 0.6664 0.5229 0.0039, 0.6664 0.5229 0.0, 0.7402 0.5431 0.0039, 0.7402 0.5431 0.0, 0.7019 0.5381 0.0, 0.7019 0.5381 0.0039, 0.8585 0.413 0.0039, 0.8585 0.413 0.0, 0.857 0.4375 0.0, 0.857 0.4375 0.0039, 0.8486 0.4712 0.0, 0.8486 0.4712 0.0039, 0.8356 0.4955 0.0, 0.8356 0.4955 0.0039, 0.8166 0.5165 0.0, 0.8166 0.5165 0.0039, 0.7948 0.5311 0.0, 0.7948 0.5311 0.0039, 0.7712 0.5396 0.0, 0.7712 0.5396 0.0039, 0.7473 0.2896 0.0039, 0.7473 0.2896 0.0, 0.7766 0.2929 0.0, 0.7766 0.2929 0.0039, 0.7996 0.3013 0.0, 0.7996 0.3013 0.0039, 0.8189 0.3144 0.0, 0.8189 0.3144 0.0039, 0.8337 0.33 0.0, 0.8337 0.33 0.0039, 0.8467 0.3518 0.0, 0.8467 0.3518 0.0039, 0.8553 0.3789 0.0, 0.8553 0.3789 0.0039, 0.6721 0.3066 0.0, 0.6721 0.3066 0.0039, 0.7054 0.2942 0.0, 0.7054 0.2942 0.0039, 0.9276 0.2934 0.0039, 0.9276 0.2589 0.0039, 0.9276 0.2934 0.0, 0.9276 0.2589 0.0, 1.0889 0.2589 0.0039, 1.0889 0.2589 0.0, 1.0889 0.5738 0.0039, 1.0889 0.5738 0.0, 1.0467 0.5738 0.0039, 1.0467 0.5738 0.0, 1.0467 0.2934 0.0039, 1.0467 0.2934 0.0
            ]
        }
        coordIndex [
            0,1,2,-1,2,1,3,-1,1,4,3,-1,3,4,5,-1,4,6,5,-1,5,6,7,-1,6,8,7,-1,7,8,9,-1,8,10,9,-1,9,10,11,-1,10,12,11,-1,11,12,13,-1,12,14,13,-1,13,14,15,-1,14,0,15,-1,15,0,2,-1,16,8,17,-1,17,8,6,-1,18,14,16,-1,16,14,12,-1,16,12,8,-1,8,12,10,-1,18,19,14,-1,14,19,20,-1,14,20,0,-1,0,20,21,-1,0,21,22,-1,22,23,0,-1,0,23,17,-1,0,17,1,-1,1,17,6,-1,1,6,4,-1,16,17,24,-1,24,17,25,-1,18,16,26,-1,26,16,24,-1,18,26,27,-1,18,27,19,-1,19,27,28,-1,19,28,20,-1,21,20,29,-1,29,20,28,-1,21,29,30,-1,21,30,22,-1,22,30,31,-1,22,31,23,-1,17,23,25,-1,25,23,31,-1,32,33,34,-1,34,33,35,-1,33,36,35,-1,35,36,37,-1,36,38,37,-1,37,38,39,-1,40,41,42,-1,40,42,43,-1,43,42,44,-1,43,44,45,-1,45,44,46,-1,45,46,47,-1,47,46,48,-1,47,48,49,-1,49,48,50,-1,49,50,51,-1,51,50,52,-1,51,52,53,-1,53,52,54,-1,53,54,55,-1,55,54,39,-1,55,39,38,-1,32,34,56,-1,32,56,57,-1,57,56,58,-1,57,58,59,-1,59,58,60,-1,59,60,61,-1,61,60,62,-1,61,62,63,-1,63,62,64,-1,63,64,65,-1,65,64,66,-1,65,66,67,-1,67,66,41,-1,67,41,40,-1,45,47,68,-1,68,47,49,-1,68,49,69,-1,69,49,51,-1,69,51,70,-1,70,51,53,-1,70,53,71,-1,71,53,55,-1,71,55,72,-1,72,55,38,-1,72,38,73,-1,73,38,36,-1,73,36,74,-1,74,36,33,-1,74,33,75,-1,75,33,32,-1,75,32,76,-1,76,32,57,-1,76,57,77,-1,77,57,59,-1,77,59,78,-1,78,59,61,-1,78,61,79,-1,79,61,63,-1,79,63,80,-1,80,63,65,-1,80,65,81,-1,81,65,67,-1,81,67,82,-1,82,67,40,-1,82,40,83,-1,83,40,43,-1,83,43,84,-1,84,43,45,-1,84,45,68,-1,72,73,85,-1,85,73,86,-1,72,85,87,-1,72,87,71,-1,71,87,88,-1,71,88,70,-1,70,88,89,-1,70,89,69,-1,69,89,90,-1,69,90,68,-1,68,90,91,-1,68,91,84,-1,84,91,92,-1,84,92,83,-1,83,92,93,-1,83,93,82,-1,82,93,94,-1,82,94,81,-1,81,94,95,-1,81,95,80,-1,80,95,96,-1,80,96,79,-1,79,96,97,-1,79,97,78,-1,78,97,98,-1,78,98,77,-1,77,98,99,-1,77,99,76,-1,76,99,100,-1,76,100,75,-1,74,75,101,-1,101,75,100,-1,73,74,86,-1,86,74,101,-1,102,103,104,-1,104,103,105,-1,103,106,105,-1,105,106,107,-1,106,108,107,-1,107,108,109,-1,108,110,109,-1,109,110,111,-1,110,112,111,-1,111,112,113,-1,112,114,113,-1,113,114,115,-1,114,116,115,-1,115,116,117,-1,116,118,117,-1,117,118,119,-1,118,120,119,-1,119,120,121,-1,120,122,121,-1,121,122,123,-1,122,124,123,-1,123,124,125,-1,124,102,125,-1,125,102,104,-1,106,103,102,-1,102,124,106,-1,106,124,122,-1,106,122,108,-1,112,110,114,-1,114,110,108,-1,114,108,116,-1,116,108,122,-1,116,122,118,-1,118,122,120,-1,126,127,128,-1,128,127,129,-1,129,127,130,-1,131,132,133,-1,131,133,134,-1,134,133,135,-1,134,135,130,-1,130,135,136,-1,130,136,129,-1,132,131,137,-1,137,131,138,-1,137,138,139,-1,139,138,140,-1,139,140,141,-1,141,140,142,-1,141,142,143,-1,143,142,144,-1,143,144,145,-1,145,144,146,-1,145,146,147,-1,147,146,148,-1,147,148,149,-1,149,148,150,-1,149,150,151,-1,152,153,154,-1,152,154,155,-1,155,154,156,-1,155,156,157,-1,157,156,158,-1,157,158,159,-1,159,158,160,-1,159,160,161,-1,161,160,162,-1,161,162,163,-1,163,162,164,-1,163,164,165,-1,165,164,151,-1,165,151,150,-1,166,167,168,-1,166,168,169,-1,169,168,153,-1,169,153,152,-1,166,170,167,-1,167,170,171,-1,172,173,174,-1,172,174,175,-1,175,174,171,-1,175,171,170,-1,176,177,178,-1,176,178,179,-1,179,178,180,-1,179,180,181,-1,181,180,182,-1,181,182,183,-1,183,182,184,-1,183,184,185,-1,185,184,186,-1,185,186,187,-1,187,186,188,-1,187,188,189,-1,189,188,173,-1,189,173,172,-1,190,191,192,-1,190,192,193,-1,193,192,194,-1,193,194,195,-1,195,194,196,-1,195,196,197,-1,197,196,198,-1,197,198,199,-1,199,198,200,-1,199,200,201,-1,201,200,202,-1,201,202,203,-1,203,202,177,-1,203,177,176,-1,126,128,204,-1,126,204,205,-1,205,204,206,-1,205,206,207,-1,207,206,191,-1,207,191,190,-1,193,131,190,-1,190,131,134,-1,190,134,207,-1,207,134,130,-1,207,130,205,-1,205,130,127,-1,205,127,126,-1,170,166,175,-1,175,166,169,-1,175,169,172,-1,172,169,152,-1,172,152,189,-1,189,152,155,-1,189,155,187,-1,187,155,157,-1,187,157,185,-1,185,157,159,-1,185,159,183,-1,183,159,161,-1,183,161,181,-1,181,161,163,-1,181,163,179,-1,179,163,165,-1,179,165,176,-1,176,165,150,-1,176,150,203,-1,203,150,148,-1,203,148,201,-1,201,148,146,-1,201,146,199,-1,199,146,144,-1,199,144,197,-1,197,144,142,-1,197,142,195,-1,195,142,140,-1,195,140,193,-1,193,140,138,-1,193,138,131,-1,208,209,210,-1,210,209,211,-1,209,212,211,-1,211,212,213,-1,212,214,213,-1,213,214,215,-1,214,216,215,-1,215,216,217,-1,216,218,217,-1,217,218,219,-1,218,208,219,-1,219,208,210,-1,216,214,218,-1,218,214,212,-1,218,212,208,-1,208,212,209,-1,
        ]
    }
}
Shape{
    appearance Appearance {
        material  Material 	{
            diffuseColor 0.7686274509803922 0.7686274509803922 0.7686274509803922
            specularColor 0.615686274509804 0.615686274509804 0.615686274509804
            ambientIntensity 0.7686
            transparency 0.0
            shininess 0.5
        }
    }
    geometry IndexedFaceSet {
        ccw TRUE
        solid FALSE
        coord DEF co Coordinate {
            point [
                0.0112 0.3818 0.0, -0.0942 0.3818 0.0, -0.0358 0.5133 0.0, -0.0468 0.5133 0.0, -0.0389 0.5243 0.0, -0.0439 0.5243 0.0, -0.0409 0.5354 0.0, -0.0419 0.5354 0.0, 0.3322 0.5393 0.0, 0.3322 0.2934 0.0, 0.2858 0.5393 0.0, 0.2875 0.2934 0.0, 0.2543 0.2965 0.0, 0.1632 0.4194 0.0, 0.1659 0.4508 0.0, 0.1733 0.4757 0.0, 0.2485 0.5353 0.0, 0.2278 0.3048 0.0, 0.2063 0.3176 0.0, 0.1887 0.335 0.0, 0.1754 0.3567 0.0, 0.1661 0.3863 0.0, 0.1842 0.4951 0.0, 0.1995 0.5113 0.0, 0.2225 0.5262 0.0
            ]
        }
        coordIndex [
            0,1,2,-1,2,1,3,-1,2,3,4,-1,4,3,5,-1,4,5,6,-1,6,5,7,-1,8,9,10,-1,10,9,11,-1,10,11,12,-1,13,14,10,-1,10,14,15,-1,10,15,16,-1,12,17,10,-1,10,17,18,-1,10,18,19,-1,19,20,10,-1,10,20,21,-1,10,21,13,-1,22,23,15,-1,15,23,24,-1,15,24,16,-1,
        ]
    }
}
Shape{
    appearance Appearance {
        material  Material 	{
            diffuseColor 0.25098039215686274 0.25098039215686274 0.25098039215686274
            specularColor 0.07450980392156863 0.07450980392156863 0.07450980392156863
            ambientIntensity 0.251
            transparency 0.0
            shininess 0.5
        }
    }
    geometry IndexedFaceSet {
        ccw TRUE
        solid FALSE
        coord DEF co Coordinate {
            point [
                2.4089 -0.9069 0.9843, 2.409 -0.9069 0.9843, 2.3688 -0.9069 1.752, -1.4239 -0.9069 1.752, -1.4641 -0.9069 0.9843, -1.464 -0.9069 0.9843, -0.3504 -0.9069 1.0236, -0.7047 -0.9069 1.0236, -0.7047 -0.9069 1.1811, -0.3504 -0.9069 1.1811, 0.6496 -0.9069 1.0236, 0.2953 -0.9069 1.0236, 1.2953 -0.9069 1.0236, 1.2953 -0.9069 1.1811, 0.6496 -0.9069 1.1811, 0.2953 -0.9069 1.1811, 1.6496 -0.9069 1.0236, 1.6496 -0.9069 1.1811, 2.3688 -0.8872 1.7717, 2.3688 -0.7887 1.7717, 1.3154 -0.7887 1.7717, -0.698 -0.395 1.7717, -0.6979 -0.3949 1.7717, -0.6979 -0.1412 1.7717, 0.8951 0.0208 1.7717, 0.8686 0.0178 1.7717, 0.9996 0.0178 1.7717, 0.8015 0.0178 1.7717, 0.6915 0.0178 1.7717, 0.6915 -0.1412 1.7717, 0.5667 0.3615 1.7717, 0.5493 0.3631 1.7717, 0.5493 0.2663 1.7717, -0.353 0.3696 1.7717, -0.4864 0.3696 1.7717, -0.4864 0.0802 1.7717, -0.5381 0.3696 1.7717, -0.6715 0.3696 1.7717, -0.6979 0.0802 1.7717, -0.6715 0.4147 1.7717, -0.6979 2.2522 1.7717, -0.3289 2.2522 1.7717, -0.353 0.4147 1.7717, -0.3289 0.0802 1.7717, -0.3289 0.0178 1.7717, -0.4864 0.021 1.7717, -0.6979 0.0178 1.7717, -0.5381 0.021 1.7717, -0.5381 0.0802 1.7717, -0.0618 0.4143 1.7717, -0.0261 0.3969 1.7717, 0.0764 2.2522 1.7717, -0.3158 0.2926 1.7717, -0.2954 0.3398 1.7717, -0.2625 0.3825 1.7717, -0.2287 0.4051 1.7717, 0.0064 0.3696 1.7717, 0.0243 0.3428 1.7717, 0.0479 0.2865 1.7717, 0.0764 0.0802 1.7717, 0.058 0.2168 1.7717, 0.0533 0.1698 1.7717, -0.2904 0.0876 1.7717, -0.3153 0.1423 1.7717, -0.3271 0.2168 1.7717, -0.3265 0.229 1.7717, -0.1902 0.4191 1.7717, -0.1334 0.4255 1.7717, -0.1106 0.4245 1.7717, -0.2235 0.0316 1.7717, -0.253 0.0483 1.7717, -0.2819 0.0748 1.7717, -0.2855 0.0802 1.7717, -0.1044 0.0178 1.7717, -0.1334 0.0146 1.7717, 0.0764 -0.1412 1.7717, -0.3289 -0.1412 1.7717, -0.1462 0.0149 1.7717, -0.1749 0.0178 1.7717, -0.1776 0.0181 1.7717, -0.0076 0.0551 1.7717, -0.0384 0.035 1.7717, 0.0764 0.0178 1.7717, -0.0776 0.0208 1.7717, 0.0367 0.1161 1.7717, 0.0145 0.0802 1.7717, 0.0085 0.0705 1.7717, 0.3489 0.2409 1.7717, 0.3345 0.2192 1.7717, 0.3834 0.0802 1.7717, 0.0977 0.053 1.7717, 0.1051 0.0802 1.7717, 0.1077 0.0898 1.7717, 0.1619 0.3196 1.7717, 0.1558 0.2982 1.7717, 0.2263 0.363 1.7717, 0.1529 0.2684 1.7717, 0.2304 0.3631 1.7717, 0.1034 0.2684 1.7717, 0.1251 0.1222 1.7717, 0.1501 0.1498 1.7717, 0.1852 0.1738 1.7717, 0.2368 0.2039 1.7717, 0.2661 0.2226 1.7717, 0.3163 0.3837 1.7717, 0.3332 0.3679 1.7717, 0.3834 2.2522 1.7717, 0.3457 0.3488 1.7717, 0.3031 0.1906 1.7717, 0.254 0.163 1.7717, 0.2132 0.1394 1.7717, 0.2928 0.2448 1.7717, 0.2965 0.2508 1.7717, 0.3042 0.2683 1.7717, 0.3078 0.2943 1.7717, 0.3078 0.2946 1.7717, 0.304 0.3161 1.7717, 0.2834 0.3472 1.7717, 0.2705 0.3549 1.7717, 0.2531 0.3605 1.7717, 0.2053 0.3599 1.7717, 0.1916 0.3545 1.7717, 0.17 0.3349 1.7717, 0.1799 0.3463 1.7717, 0.1076 0.3103 1.7717, 0.1191 0.3437 1.7717, 0.1379 0.3717 1.7717, 0.1951 0.4037 1.7717, 0.2368 0.4083 1.7717, 0.2617 0.4055 1.7717, 0.2956 0.3956 1.7717, 0.3547 0.3239 1.7717, 0.3595 0.2921 1.7717, 0.3569 0.2628 1.7717, 0.2982 0.33 1.7717, 0.2891 0.3421 1.7717, 0.148 0.3812 1.7717, 0.1682 0.3942 1.7717, 0.184 0.1201 1.7717, 0.1638 0.0999 1.7717, 0.1539 0.0837 1.7717, 0.1528 0.0802 1.7717, 0.1486 0.0662 1.7717, 0.3595 0.0662 1.7717, 0.0948 0.021 1.7717, 0.3595 0.021 1.7717, 0.3834 0.0178 1.7717, 0.6678 0.1765 1.7717, 0.6719 0.1437 1.7717, 0.6915 0.0802 1.7717, 0.4654 0.2803 1.7717, 0.4567 0.2211 1.7717, 0.4589 0.219 1.7717, 0.4127 0.131 1.7717, 0.4271 0.082 1.7717, 0.4281 0.0802 1.7717, 0.4908 0.3947 1.7717, 0.4663 0.3777 1.7717, 0.4503 0.361 1.7717, 0.4073 0.1996 1.7717, 0.4136 0.2751 1.7717, 0.4291 0.3263 1.7717, 0.6159 0.305 1.7717, 0.5758 0.2627 1.7717, 0.6084 0.2523 1.7717, 0.6633 0.305 1.7717, 0.6461 0.2236 1.7717, 0.6587 0.2034 1.7717, 0.5807 0.357 1.7717, 0.6341 0.3747 1.7717, 0.6915 2.2522 1.7717, 0.617 0.3887 1.7717, 0.5963 0.399 1.7717, 0.6474 0.3569 1.7717, 0.6574 0.3341 1.7717, 0.6297 0.2396 1.7717, 0.4667 0.231 1.7717, 0.4809 0.2457 1.7717, 0.4783 0.3153 1.7717, 0.4974 0.256 1.7717, 0.4903 0.3338 1.7717, 0.5188 0.2632 1.7717, 0.5285 0.3596 1.7717, 0.5113 0.3522 1.7717, 0.5036 0.347 1.7717, 0.517 0.4045 1.7717, 0.5493 0.4083 1.7717, 0.5619 0.4071 1.7717, 0.6154 0.3074 1.7717, 0.609 0.3279 1.7717, 0.6007 0.3415 1.7717, 0.5916 0.3505 1.7717, 0.4352 0.0662 1.7717, 0.5037 0.019 1.7717, 0.4774 0.0288 1.7717, 0.4551 0.0438 1.7717, 0.6332 0.0469 1.7717, 0.6198 0.0342 1.7717, 0.6668 0.1049 1.7717, 0.6565 0.0802 1.7717, 0.6547 0.0758 1.7717, 0.604 0.0251 1.7717, 0.5805 0.0178 1.7717, 0.5798 0.0176 1.7717, 0.3834 -0.1412 1.7717, 0.5363 0.0146 1.7717, 0.5124 0.0178 1.7717, 0.716 0.0981 1.7717, 0.7111 0.1394 1.7717, 0.7199 0.29 1.7717, 0.7256 0.3293 1.7717, 0.7359 0.3546 1.7717, 0.752 0.376 1.7717, 0.7777 0.394 1.7717, 0.9232 0.1085 1.7717, 0.9262 0.1286 1.7717, 0.778 0.0802 1.7717, 0.838 0.1996 1.7717, 0.7606 0.1378 1.7717, 0.7647 0.1077 1.7717, 0.7197 0.2814 1.7717, 0.767 0.2814 1.7717, 0.7606 0.1394 1.7717, 0.9174 0.093 1.7717, 0.8849 0.1925 1.7717, 0.8651 0.1976 1.7717, 0.7721 0.0886 1.7717, 0.8143 0.1996 1.7717, 0.8143 0.2405 1.7717, 0.7695 0.3054 1.7717, 0.8402 0.2405 1.7717, 0.7747 0.3231 1.7717, 0.9542 0.2629 1.7717, 0.9451 0.248 1.7717, 0.9614 0.1949 1.7717, 0.9329 0.2358 1.7717, 0.9478 0.2076 1.7717, 0.9716 0.1784 1.7717, 0.9996 2.2522 1.7717, 0.9778 0.1591 1.7717, 0.9032 0.3969 1.7717, 0.9222 0.3869 1.7717, 0.9383 0.3728 1.7717, 0.95 0.3559 1.7717, 0.9791 0.1189 1.7717, 0.9996 0.0802 1.7717, 0.98 0.1351 1.7717, 0.9261 0.1326 1.7717, 0.9234 0.1516 1.7717, 0.9185 0.1645 1.7717, 0.8632 0.3607 1.7717, 0.8423 0.3631 1.7717, 0.8204 0.3609 1.7717, 0.804 0.3554 1.7717, 0.8588 0.2422 1.7717, 0.8784 0.2477 1.7717, 0.8915 0.2552 1.7717, 0.8998 0.2631 1.7717, 0.9067 0.2735 1.7717, 0.9112 0.2864 1.7717, 0.9133 0.3029 1.7717, 0.9118 0.314 1.7717, 0.9068 0.3295 1.7717, 0.9003 0.3399 1.7717, 0.8915 0.3485 1.7717, 0.8789 0.3559 1.7717, 0.9584 0.3344 1.7717, 0.9628 0.3072 1.7717, 0.9609 0.2844 1.7717, 0.9155 0.2254 1.7717, 0.9155 0.2233 1.7717, 0.9308 0.2176 1.7717, 0.9103 0.1761 1.7717, 0.9001 0.1848 1.7717, 0.7922 0.3478 1.7717, 0.7824 0.3371 1.7717, 0.8044 0.4038 1.7717, 0.8445 0.4083 1.7717, 0.8705 0.4058 1.7717, 0.8211 0.0551 1.7717, 0.8423 0.0533 1.7717, 0.8585 0.055 1.7717, 0.8827 0.0616 1.7717, 0.8968 0.0693 1.7717, 0.9089 0.0802 1.7717, 0.9089 0.0802 1.7717, 0.7808 0.0762 1.7717, 0.7908 0.0672 1.7717, 0.8041 0.06 1.7717, 0.7985 0.0181 1.7717, 0.7692 0.0275 1.7717, 0.7567 0.0345 1.7717, 0.7394 0.0495 1.7717, 0.7272 0.0675 1.7717, 0.7225 0.0802 1.7717, 0.9996 -0.1412 1.7717, 0.8402 0.0146 1.7717, 0.8346 0.0147 1.7717, 0.9434 0.0469 1.7717, 0.9411 0.0447 1.7717, 0.9207 0.0305 1.7717, 0.9732 0.0924 1.7717, 0.9673 0.0802 1.7717, 0.9619 0.069 1.7717, 1.3468 0.0898 1.7717, 1.3643 0.1222 1.7717, 1.3426 0.2684 1.7717, 1.5986 0.2921 1.7717, 1.5961 0.2628 1.7717, 2.3688 0.0802 1.7717, 1.5881 0.2409 1.7717, 1.5737 0.2192 1.7717, 1.4011 0.3196 1.7717, 1.395 0.2982 1.7717, 1.4655 0.363 1.7717, 1.3921 0.2684 1.7717, 1.4696 0.3631 1.7717, 1.3443 0.0802 1.7717, 1.3154 0.0802 1.7717, 1.3154 2.2522 1.7717, 1.3468 0.3103 1.7717, 1.3583 0.3437 1.7717, 1.3893 0.1498 1.7717, 1.4244 0.1738 1.7717, 1.476 0.2039 1.7717, 1.5053 0.2226 1.7717, 2.3688 2.2522 1.7717, 1.5348 0.3956 1.7717, 1.5555 0.3837 1.7717, 1.5422 0.1906 1.7717, 1.4932 0.163 1.7717, 1.4523 0.1394 1.7717, 1.5319 0.2448 1.7717, 1.5357 0.2508 1.7717, 1.5434 0.2683 1.7717, 1.547 0.2943 1.7717, 1.547 0.2946 1.7717, 1.5432 0.3161 1.7717, 1.5226 0.3472 1.7717, 1.5097 0.3549 1.7717, 1.4923 0.3605 1.7717, 1.4445 0.3599 1.7717, 1.4307 0.3545 1.7717, 1.4092 0.3349 1.7717, 1.4191 0.3463 1.7717, 1.5724 0.3679 1.7717, 1.5848 0.3488 1.7717, 1.5939 0.3239 1.7717, 1.5374 0.33 1.7717, 1.5283 0.3421 1.7717, 1.3771 0.3717 1.7717, 1.3872 0.3812 1.7717, 1.4074 0.3942 1.7717, 1.4343 0.4037 1.7717, 1.476 0.4083 1.7717, 1.5009 0.4055 1.7717, 1.4232 0.1201 1.7717, 1.403 0.0999 1.7717, 1.3931 0.0837 1.7717, 1.5986 0.021 1.7717, 1.334 0.021 1.7717, 1.3154 0.0178 1.7717, 1.392 0.0802 1.7717, 1.3878 0.0662 1.7717, 1.5986 0.0662 1.7717, 2.3688 0.0178 1.7717, 1.3369 0.053 1.7717, -0.6668 -0.3543 1.7717, -0.626 -0.323 1.7717, -0.5785 -0.3033 1.7717, -0.5276 -0.2966 1.7717, -0.4766 -0.3033 1.7717, -0.4291 -0.323 1.7717, -0.3884 -0.3543 1.7717, -0.3307 -0.4935 1.7717, -0.3374 -0.5444 1.7717, -0.3289 -0.7887 1.7717, -0.3571 -0.5919 1.7717, -0.3884 -0.6327 1.7717, -0.6979 -0.7887 1.7717, -0.5785 -0.6836 1.7717, -0.626 -0.6639 1.7717, -0.4291 -0.6639 1.7717, -0.4766 -0.6836 1.7717, -0.5276 -0.6903 1.7717, -0.3571 -0.395 1.7717, -0.3374 -0.4425 1.7717, -0.6668 -0.6327 1.7717, -0.6979 -0.592 1.7717, -1.4239 -0.7887 1.7717, -0.698 -0.5919 1.7717, -0.7177 -0.5444 1.7717, -0.7244 -0.4935 1.7717, -1.4239 -0.1412 1.7717, -0.7177 -0.4425 1.7717, 1.2967 0.1394 1.7717, 1.0192 0.1394 1.7717, 1.0192 0.1802 1.7717, 1.2967 0.1802 1.7717, 2.3688 -0.1412 1.7717, 1.3154 -0.1412 1.7717, -1.4239 2.2522 1.7717, -1.4239 0.0802 1.7717, -1.4239 0.0178 1.7717, 0.0764 -0.7887 1.7717, 0.3834 -0.7887 1.7717, 0.6915 -0.7887 1.7717, 0.9996 -0.7887 1.7717, 1.3154 -0.8872 1.7717, 0.9996 -0.8872 1.7717, 0.6915 -0.8872 1.7717, 0.3834 -0.8872 1.7717, 0.0764 -0.8872 1.7717, -0.3289 -0.8872 1.7717, -0.6979 -0.8872 1.7717, -1.4239 -0.8872 1.7717, -1.4239 2.2717 1.7547, 2.3688 2.2717 1.7547, -1.489 2.4464 0.5118, 2.4339 2.4464 0.5118, -1.4436 2.2522 1.753, -1.443 2.2566 1.7536, -1.5086 2.4267 0.5118, -1.5079 2.4318 0.5118, -1.4429 2.2573 1.7537, -1.4414 2.2607 1.7541, -1.506 2.4366 0.5118, -1.4409 2.2619 1.7542, -1.5046 2.4387 0.5118, -1.4378 2.266 1.7546, -1.429 2.271 1.7549, -1.4965 2.4449 0.5118, -1.4337 2.2691 1.7548, -1.4988 2.4438 0.5118, -1.436 2.2673 1.7547, -1.501 2.4423 0.5118, -1.5029 2.4406 0.5118, -1.4282 2.2711 1.7549, -1.4916 2.4462 0.5118, -1.4941 2.4457 0.5118, 2.4365 2.4462 0.5118, 2.3731 2.2711 1.7549, 2.439 2.4457 0.5118, 2.3739 2.271 1.7549, 2.4414 2.4449 0.5118, 2.3786 2.2691 1.7548, 2.4437 2.4438 0.5118, 2.4458 2.4423 0.5118, 2.3808 2.2673 1.7547, 2.4478 2.4406 0.5118, 2.3826 2.266 1.7546, 2.4495 2.4387 0.5118, 2.3839 2.2643 1.7545, 2.4509 2.4366 0.5118, 2.3858 2.2619 1.7542, 2.3877 2.2573 1.7537, 2.4528 2.4318 0.5118, 2.4535 2.4267 0.5118, 2.3878 2.2566 1.7536, 2.3884 2.2522 1.753, 2.4535 2.3215 0.5118, 2.4803 -0.7485 0.0, 2.4803 2.3215 0.0, 2.4286 -0.8872 0.9867, 2.3884 -0.8872 1.753, -1.4436 -0.8872 1.753, -1.5086 2.3215 0.5118, -1.4837 -0.8872 0.9867, -1.5354 2.3215 0.0, -1.5354 -0.7485 0.0, 2.4798 -0.753 0.0, 2.4783 -0.7572 0.0, 2.0866 -0.178 0.0, 1.6929 1.9278 0.0, 1.6929 2.3215 0.0, 2.0866 1.9278 0.0, -1.5311 -0.761 0.0, -1.5335 -0.7572 0.0, -1.1417 -0.178 0.0, -0.748 2.3215 0.0, -0.748 1.9278 0.0, -1.1417 1.9278 0.0, -1.5349 -0.753 0.0, 2.476 -0.761 0.0, 2.4728 -0.7642 0.0, 2.4691 -0.7665 0.0, -1.52 -0.768 0.0, -1.5242 -0.7665 0.0, -1.5279 -0.7642 0.0, 2.4649 -0.768 0.0, 2.4605 -0.7685 0.0, -1.5156 -0.7685 0.0, 2.3688 2.2711 1.7577, -1.4239 2.2711 1.7577, 2.3688 2.2704 1.7592, -1.4239 2.2704 1.7592, 2.3688 2.269 1.7623, -1.4239 2.269 1.7623, 2.3688 2.2682 1.7633, -1.4239 2.2682 1.7633, 2.3688 2.2659 1.7662, -1.4239 2.2659 1.7662, 2.3688 2.2651 1.7667, -1.4239 2.2651 1.7667, 2.3688 2.2618 1.7692, -1.4239 2.2618 1.7692, 2.3688 2.2613 1.7694, -1.4239 2.2613 1.7694, 2.3688 2.2572 1.771, -1.4239 2.2572 1.771, 2.3688 2.2569 1.7711, -1.4239 2.2569 1.7711, -1.4641 -0.9069 0.9843, -1.4684 -0.9064 0.9845, -1.4685 -0.9063 0.9845, -1.4726 -0.905 0.9848, -1.4727 -0.9049 0.9848, -1.4763 -0.9026 0.9852, -1.4764 -0.9026 0.9852, -1.4794 -0.8995 0.9856, -1.4795 -0.8994 0.9856, -1.4818 -0.8957 0.986, -1.4818 -0.8957 0.986, -1.4832 -0.8916 0.9863, -1.4832 -0.8916 0.9863, -1.4427 2.2522 1.7579, -1.4407 2.2522 1.7623, -1.4402 2.256 1.7623, -1.4406 2.2522 1.7624, -1.4375 2.2522 1.7662, -1.4372 2.2553 1.7662, -1.4333 2.2544 1.7692, -1.4287 2.2533 1.771, -1.4284 2.2544 1.771, -1.4261 2.2567 1.771, -1.427 2.2561 1.771, -1.425 2.2571 1.771, -1.4288 2.2522 1.771, -1.4423 2.2564 1.7577, -1.4409 2.2604 1.7577, -1.4386 2.264 1.7577, -1.4356 2.267 1.7577, -1.4321 2.2692 1.7577, -1.4281 2.2706 1.7577, -1.4374 2.2522 1.7662, -1.4335 2.2522 1.7692, -1.4334 2.2522 1.7692, -1.4289 2.2522 1.771, -1.4314 2.2582 1.7692, -1.4299 2.2597 1.7692, -1.4281 2.2609 1.7692, -1.426 2.2616 1.7692, -1.4326 2.2564 1.7692, -1.4278 2.2553 1.771, -1.4362 2.2581 1.7662, -1.4346 2.2607 1.7662, -1.4324 2.2629 1.7662, -1.4298 2.2645 1.7662, -1.4269 2.2655 1.7662, -1.439 2.2595 1.7623, -1.437 2.2627 1.7623, -1.4344 2.2653 1.7623, -1.4312 2.2673 1.7623, -1.4276 2.2686 1.7623, -1.4427 2.2522 1.7577, 2.3725 2.2686 1.7623, 2.3718 2.2655 1.7662, 2.3709 2.2616 1.7692, 2.3699 2.2571 1.771, 2.3709 2.2567 1.771, 2.3733 2.2544 1.771, 2.3727 2.2553 1.771, 2.3736 2.2533 1.771, 2.373 2.2706 1.7577, 2.377 2.2692 1.7577, 2.3805 2.267 1.7577, 2.3835 2.264 1.7577, 2.3857 2.2604 1.7577, 2.3871 2.2564 1.7577, 2.3876 2.2522 1.7577, 2.3737 2.2522 1.771, 2.3748 2.2597 1.7692, 2.3763 2.2582 1.7692, 2.3774 2.2564 1.7692, 2.3781 2.2544 1.7692, 2.3729 2.2609 1.7692, 2.3719 2.2561 1.771, 2.3737 2.2522 1.771, 2.3783 2.2522 1.7692, 2.3784 2.2522 1.7692, 2.3823 2.2522 1.7662, 2.3747 2.2645 1.7662, 2.3773 2.2629 1.7662, 2.3794 2.2607 1.7662, 2.3811 2.2581 1.7662, 2.3821 2.2553 1.7662, 2.3761 2.2673 1.7623, 2.3792 2.2653 1.7623, 2.3819 2.2627 1.7623, 2.3839 2.2595 1.7623, 2.3851 2.256 1.7623, 2.3824 2.2522 1.7662, 2.3855 2.2522 1.7624, 2.3855 2.2522 1.7623, 2.3875 2.2522 1.7579, 2.409 -0.9069 0.9843, 2.4133 -0.9064 0.9845, 2.4141 -0.9061 0.9846, 2.4174 -0.905 0.9848, 2.4188 -0.9041 0.985, 2.4212 -0.9026 0.9852, 2.4228 -0.901 0.9854, 2.4243 -0.8995 0.9856, 2.4259 -0.897 0.9858, 2.4267 -0.8957 0.986, 2.4279 -0.8922 0.9863, 2.4281 -0.8916 0.9863, -1.4283 -0.9064 1.7522, -1.4283 -0.9064 1.7522, -1.4324 -0.9049 1.7524, -1.4324 -0.9049 1.7524, -1.4362 -0.9026 1.7526, -1.4393 -0.8994 1.7528, -1.4393 -0.8994 1.7528, -1.4416 -0.8957 1.7529, -1.4431 -0.8916 1.753, -1.4431 -0.8915 1.753, -1.4431 -0.8872 1.7562, -1.4426 -0.8872 1.7578, -1.4417 -0.8872 1.7604, -1.4405 -0.8872 1.7623, -1.4394 -0.8872 1.7642, -1.4374 -0.8872 1.7662, -1.4362 -0.8872 1.7673, -1.4334 -0.8872 1.7691, -1.4325 -0.8872 1.7697, -1.4288 -0.8872 1.771, -1.4283 -0.8872 1.7712, 2.388 -0.8872 1.7562, 2.3874 -0.8872 1.7578, 2.3866 -0.8872 1.7604, 2.3854 -0.8872 1.7623, 2.3842 -0.8872 1.7642, 2.3823 -0.8872 1.7662, 2.3811 -0.8872 1.7673, 2.3783 -0.8872 1.7691, 2.3774 -0.8872 1.7697, 2.3737 -0.8872 1.771, 2.3732 -0.8872 1.7712, 2.3878 -0.8923 1.753, 2.3878 -0.8923 1.753, 2.3858 -0.897 1.7529, 2.3827 -0.9011 1.7527, 2.3827 -0.9011 1.7527, 2.3786 -0.9042 1.7525, 2.3739 -0.9062 1.7522, 2.3739 -0.9062 1.7522, -1.4239 -0.9041 1.7618, -1.4239 -0.9026 1.7642, -1.4273 -0.9022 1.7642, -1.4258 -0.8955 1.7697, -1.4249 -0.8915 1.7712, -1.4258 -0.8911 1.7712, -1.4279 -0.8891 1.7712, -1.4274 -0.8899 1.7712, -1.4239 -0.8916 1.7712, -1.4282 -0.9059 1.7562, -1.4322 -0.9045 1.7562, -1.4359 -0.9022 1.7562, -1.4389 -0.8992 1.7562, -1.4412 -0.8955 1.7562, -1.4426 -0.8914 1.7562, -1.4282 -0.8882 1.7712, -1.4293 -0.8939 1.7697, -1.4306 -0.8925 1.7697, -1.4316 -0.8909 1.7697, -1.4323 -0.8891 1.7697, -1.4239 -0.901 1.7658, -1.4239 -0.8995 1.7673, -1.4267 -0.8992 1.7673, -1.4276 -0.8949 1.7697, -1.4267 -0.8906 1.7712, -1.4239 -0.897 1.7689, -1.4239 -0.8958 1.7697, -1.4239 -0.8922 1.7709, -1.4293 -0.8983 1.7673, -1.4316 -0.8968 1.7673, -1.4335 -0.8949 1.7673, -1.435 -0.8925 1.7673, -1.4359 -0.8899 1.7673, -1.4306 -0.9011 1.7642, -1.4335 -0.8993 1.7642, -1.436 -0.8968 1.7642, -1.4378 -0.8939 1.7642, -1.439 -0.8906 1.7642, -1.4239 -0.9061 1.757, -1.4239 -0.905 1.7604, -1.4279 -0.9045 1.7604, -1.4316 -0.9032 1.7604, -1.435 -0.9011 1.7604, -1.4378 -0.8983 1.7604, -1.4399 -0.8949 1.7604, -1.4413 -0.8911 1.7604, -1.4239 -0.9064 1.7562, 2.3837 -0.8912 1.7642, 2.3771 -0.8894 1.7697, 2.373 -0.8883 1.7712, 2.3726 -0.8894 1.7712, 2.3874 -0.8921 1.7562, 2.3854 -0.8968 1.7562, 2.3824 -0.9008 1.7562, 2.3784 -0.9038 1.7562, 2.3738 -0.9057 1.7562, 2.3688 -0.9064 1.7562, 2.3688 -0.8916 1.7712, 2.3699 -0.8914 1.7712, 2.3688 -0.8922 1.7709, 2.371 -0.891 1.7712, 2.3762 -0.8915 1.7697, 2.3719 -0.8903 1.7712, 2.3749 -0.8932 1.7697, 2.3731 -0.8946 1.7697, 2.371 -0.8955 1.7697, 2.3807 -0.8904 1.7673, 2.3795 -0.8933 1.7673, 2.3775 -0.8959 1.7673, 2.375 -0.8979 1.7673, 2.372 -0.8991 1.7673, 2.3688 -0.8958 1.7697, 2.3688 -0.897 1.7689, 2.3688 -0.8995 1.7673, 2.3688 -0.901 1.7658, 2.3728 -0.9021 1.7642, 2.3765 -0.9006 1.7642, 2.3797 -0.8981 1.7642, 2.3822 -0.8949 1.7642, 2.386 -0.8918 1.7604, 2.3842 -0.8961 1.7604, 2.3814 -0.8998 1.7604, 2.3777 -0.9026 1.7604, 2.3734 -0.9044 1.7604, 2.3688 -0.9026 1.7642, 2.3688 -0.9041 1.7618, 2.3688 -0.905 1.7604, 2.3688 -0.9061 1.757
            ]
        }
        coordIndex [
            0,1,2,-1,3,4,5,-1,6,7,5,-1,5,7,8,-1,5,8,3,-1,3,8,9,-1,3,9,2,-1,0,10,11,-1,12,13,14,-1,14,13,2,-1,14,2,15,-1,15,2,9,-1,15,9,11,-1,11,9,6,-1,11,6,0,-1,0,6,5,-1,14,10,12,-1,12,10,0,-1,12,0,16,-1,16,0,2,-1,16,2,17,-1,17,2,13,-1,18,19,20,-1,21,22,23,-1,24,25,26,-1,27,28,29,-1,30,31,32,-1,33,34,35,-1,36,37,38,-1,38,37,39,-1,38,39,40,-1,40,39,41,-1,41,39,42,-1,41,42,43,-1,42,33,43,-1,43,33,35,-1,43,35,44,-1,44,35,45,-1,46,47,38,-1,38,47,48,-1,38,48,36,-1,49,50,51,-1,52,53,41,-1,41,53,54,-1,41,54,55,-1,50,56,51,-1,51,56,57,-1,51,57,58,-1,59,60,61,-1,62,63,43,-1,43,63,64,-1,43,64,41,-1,41,64,65,-1,41,65,52,-1,55,66,41,-1,41,66,67,-1,41,67,51,-1,51,67,68,-1,51,68,49,-1,69,70,44,-1,44,70,71,-1,44,71,43,-1,43,71,72,-1,43,72,62,-1,73,74,75,-1,75,74,76,-1,74,77,76,-1,76,77,78,-1,76,78,44,-1,44,78,79,-1,44,79,69,-1,80,81,82,-1,82,81,83,-1,82,83,73,-1,61,84,59,-1,59,84,85,-1,59,85,82,-1,82,85,86,-1,82,86,80,-1,87,88,89,-1,90,91,59,-1,59,91,92,-1,93,94,95,-1,95,94,96,-1,95,96,97,-1,58,60,51,-1,51,60,59,-1,51,59,98,-1,98,59,92,-1,98,92,99,-1,99,100,98,-1,98,100,101,-1,98,101,96,-1,96,101,102,-1,96,102,103,-1,104,105,106,-1,106,105,107,-1,88,108,89,-1,89,108,109,-1,89,109,110,-1,103,111,96,-1,96,111,112,-1,96,112,113,-1,113,114,96,-1,96,114,115,-1,96,115,116,-1,117,118,96,-1,96,118,119,-1,96,119,97,-1,95,120,93,-1,93,120,121,-1,93,121,122,-1,122,121,123,-1,98,124,51,-1,51,124,125,-1,51,125,126,-1,51,127,106,-1,106,127,128,-1,128,129,106,-1,106,129,130,-1,106,130,104,-1,107,131,106,-1,106,131,132,-1,106,132,89,-1,89,132,133,-1,89,133,87,-1,116,134,96,-1,96,134,135,-1,96,135,117,-1,126,136,51,-1,51,136,137,-1,51,137,127,-1,110,138,89,-1,89,138,139,-1,89,139,140,-1,140,141,89,-1,89,141,142,-1,89,142,143,-1,90,59,144,-1,144,59,82,-1,144,82,145,-1,145,82,146,-1,145,146,143,-1,147,148,149,-1,150,151,152,-1,153,89,154,-1,154,89,155,-1,156,106,157,-1,157,106,158,-1,153,159,89,-1,89,159,160,-1,89,160,106,-1,106,160,161,-1,106,161,158,-1,162,163,164,-1,165,166,167,-1,30,32,168,-1,169,170,171,-1,171,170,172,-1,169,173,170,-1,170,173,174,-1,170,174,165,-1,162,164,165,-1,165,164,175,-1,165,175,166,-1,152,176,150,-1,150,176,177,-1,150,177,178,-1,178,177,179,-1,178,179,180,-1,180,179,181,-1,31,182,32,-1,32,182,183,-1,32,183,181,-1,181,183,184,-1,181,184,180,-1,156,185,106,-1,106,185,186,-1,106,186,170,-1,170,186,187,-1,170,187,172,-1,163,162,32,-1,32,162,188,-1,32,188,189,-1,189,190,32,-1,32,190,191,-1,32,191,168,-1,143,146,89,-1,89,146,192,-1,89,192,155,-1,193,194,146,-1,146,194,195,-1,146,195,192,-1,196,197,28,-1,148,198,149,-1,149,198,199,-1,149,199,28,-1,28,199,200,-1,28,200,196,-1,197,201,28,-1,28,201,202,-1,28,202,29,-1,29,202,203,-1,29,203,204,-1,204,203,205,-1,204,205,206,-1,149,207,208,-1,209,210,170,-1,210,211,170,-1,170,211,212,-1,170,212,213,-1,214,215,216,-1,217,218,219,-1,220,208,221,-1,221,208,222,-1,214,216,223,-1,224,225,216,-1,216,225,217,-1,216,217,226,-1,226,217,219,-1,218,217,222,-1,222,217,227,-1,222,227,221,-1,221,227,228,-1,221,228,229,-1,229,228,230,-1,229,230,231,-1,167,147,165,-1,165,147,149,-1,165,149,170,-1,170,149,208,-1,170,208,209,-1,209,208,220,-1,232,233,234,-1,234,233,235,-1,234,235,236,-1,234,237,238,-1,238,237,239,-1,240,241,238,-1,238,241,242,-1,238,242,243,-1,244,245,246,-1,246,245,239,-1,215,247,216,-1,216,247,248,-1,216,248,249,-1,250,251,230,-1,230,251,252,-1,230,252,253,-1,254,255,256,-1,256,257,254,-1,254,257,258,-1,254,258,259,-1,259,260,254,-1,254,260,261,-1,254,261,230,-1,230,261,262,-1,230,262,263,-1,263,264,230,-1,230,264,265,-1,230,265,250,-1,243,266,238,-1,238,266,267,-1,238,267,234,-1,234,267,268,-1,234,268,232,-1,269,270,235,-1,235,270,271,-1,235,271,236,-1,249,272,216,-1,216,272,273,-1,216,273,224,-1,253,274,230,-1,230,274,275,-1,230,275,231,-1,213,276,170,-1,170,276,277,-1,170,277,238,-1,238,277,278,-1,238,278,240,-1,279,280,216,-1,280,281,216,-1,216,281,282,-1,216,282,283,-1,283,284,216,-1,216,284,285,-1,216,285,223,-1,286,287,216,-1,216,287,288,-1,216,288,279,-1,27,289,28,-1,28,289,290,-1,28,290,291,-1,291,292,28,-1,28,292,293,-1,28,293,149,-1,149,293,294,-1,149,294,207,-1,26,25,295,-1,295,25,296,-1,295,296,29,-1,29,296,297,-1,29,297,27,-1,298,299,26,-1,26,299,300,-1,26,300,24,-1,244,301,245,-1,245,301,302,-1,245,302,26,-1,26,302,303,-1,26,303,298,-1,304,305,306,-1,307,308,309,-1,309,308,310,-1,309,310,311,-1,312,313,314,-1,314,313,315,-1,314,315,316,-1,317,304,318,-1,318,304,306,-1,318,306,319,-1,319,306,320,-1,319,320,321,-1,305,322,306,-1,306,322,323,-1,306,323,315,-1,315,323,324,-1,315,324,325,-1,326,327,328,-1,311,329,309,-1,309,329,330,-1,309,330,331,-1,325,332,315,-1,315,332,333,-1,315,333,334,-1,334,335,315,-1,315,335,336,-1,315,336,337,-1,338,339,315,-1,315,339,340,-1,315,340,316,-1,314,341,312,-1,312,341,342,-1,312,342,343,-1,343,342,344,-1,328,345,326,-1,326,345,346,-1,326,346,309,-1,309,346,347,-1,309,347,307,-1,337,348,315,-1,315,348,349,-1,315,349,338,-1,321,350,319,-1,319,350,351,-1,319,351,352,-1,352,353,319,-1,319,353,354,-1,319,354,326,-1,326,354,355,-1,326,355,327,-1,331,356,309,-1,309,356,357,-1,309,357,358,-1,359,360,361,-1,362,363,364,-1,358,362,309,-1,309,362,364,-1,309,364,365,-1,361,360,318,-1,318,360,366,-1,318,366,317,-1,22,367,23,-1,23,367,368,-1,23,368,369,-1,370,371,76,-1,76,371,372,-1,76,372,373,-1,374,375,376,-1,376,375,377,-1,376,377,378,-1,379,380,381,-1,378,382,376,-1,376,382,383,-1,376,383,379,-1,379,383,384,-1,379,384,380,-1,373,385,76,-1,76,385,386,-1,76,386,374,-1,381,387,379,-1,379,387,388,-1,379,388,389,-1,389,388,390,-1,390,391,389,-1,389,391,392,-1,389,392,393,-1,393,392,394,-1,395,396,245,-1,245,396,397,-1,239,245,238,-1,238,245,397,-1,238,397,319,-1,319,397,398,-1,319,398,318,-1,364,359,365,-1,365,359,361,-1,365,361,399,-1,399,361,400,-1,398,395,318,-1,318,395,245,-1,318,245,361,-1,361,245,26,-1,361,26,400,-1,400,26,295,-1,73,75,82,-1,82,75,204,-1,82,204,146,-1,146,204,206,-1,146,206,193,-1,45,47,44,-1,44,47,46,-1,44,46,76,-1,76,46,23,-1,76,23,370,-1,370,23,369,-1,40,401,38,-1,38,401,402,-1,38,402,46,-1,46,402,403,-1,46,403,23,-1,23,403,393,-1,23,393,21,-1,21,393,394,-1,374,376,76,-1,76,376,404,-1,76,404,75,-1,75,404,405,-1,75,405,204,-1,204,405,406,-1,204,406,29,-1,29,406,407,-1,29,407,295,-1,295,407,20,-1,295,20,400,-1,400,20,19,-1,400,19,399,-1,18,20,408,-1,408,20,407,-1,408,407,409,-1,409,407,406,-1,409,406,410,-1,410,406,405,-1,410,405,411,-1,411,405,404,-1,411,404,412,-1,412,404,376,-1,412,376,413,-1,413,376,379,-1,413,379,414,-1,414,379,389,-1,414,389,415,-1,416,417,418,-1,418,417,419,-1,420,421,422,-1,422,421,423,-1,421,424,423,-1,423,424,425,-1,423,425,426,-1,426,425,427,-1,426,427,428,-1,428,427,429,-1,430,431,432,-1,432,431,433,-1,432,433,434,-1,434,433,435,-1,434,435,429,-1,429,435,436,-1,429,436,428,-1,416,418,437,-1,437,418,438,-1,437,438,430,-1,430,438,439,-1,430,439,431,-1,419,417,440,-1,440,417,441,-1,440,441,442,-1,442,441,443,-1,442,443,444,-1,444,443,445,-1,444,445,446,-1,446,445,447,-1,447,445,448,-1,447,448,449,-1,449,448,450,-1,449,450,451,-1,451,450,452,-1,451,452,453,-1,452,454,453,-1,453,454,455,-1,453,455,456,-1,456,455,457,-1,457,455,458,-1,457,458,459,-1,460,457,459,-1,461,462,463,-1,463,462,460,-1,463,460,464,-1,464,460,459,-1,420,422,465,-1,465,422,466,-1,465,466,467,-1,467,466,468,-1,467,468,469,-1,470,471,472,-1,473,474,475,-1,475,474,462,-1,475,462,472,-1,472,462,461,-1,472,461,470,-1,476,477,478,-1,479,480,468,-1,468,480,481,-1,468,481,469,-1,469,481,478,-1,469,478,482,-1,482,478,477,-1,471,483,472,-1,472,483,484,-1,472,484,485,-1,486,487,478,-1,478,487,488,-1,478,488,476,-1,485,489,472,-1,472,489,490,-1,472,490,478,-1,478,490,491,-1,478,491,486,-1,0,5,490,-1,490,5,491,-1,417,416,492,-1,492,416,493,-1,492,493,494,-1,494,493,495,-1,494,495,496,-1,496,495,497,-1,496,497,498,-1,498,497,499,-1,498,499,500,-1,500,499,501,-1,500,501,502,-1,502,501,503,-1,502,503,504,-1,504,503,505,-1,504,505,506,-1,506,505,507,-1,506,507,508,-1,508,507,509,-1,508,509,510,-1,510,509,511,-1,401,40,511,-1,511,40,41,-1,511,41,51,-1,51,106,511,-1,511,106,170,-1,511,170,238,-1,238,319,511,-1,511,319,326,-1,511,326,510,-1,486,491,5,-1,5,512,486,-1,486,512,513,-1,486,513,487,-1,513,514,487,-1,487,514,515,-1,487,515,488,-1,515,516,488,-1,488,516,517,-1,488,517,476,-1,517,518,476,-1,476,518,519,-1,476,519,477,-1,519,520,477,-1,477,520,521,-1,477,521,482,-1,521,522,482,-1,482,522,523,-1,482,523,469,-1,469,523,524,-1,469,524,467,-1,525,526,527,-1,528,529,530,-1,531,532,533,-1,401,534,535,-1,536,534,401,-1,533,532,401,-1,537,401,532,-1,421,538,424,-1,424,538,539,-1,429,427,539,-1,539,427,425,-1,539,425,424,-1,539,540,429,-1,429,540,541,-1,429,541,434,-1,434,541,542,-1,434,542,432,-1,432,542,430,-1,430,542,543,-1,430,543,437,-1,437,543,493,-1,437,493,416,-1,511,536,401,-1,544,545,531,-1,531,545,546,-1,531,546,532,-1,532,546,547,-1,532,547,537,-1,548,535,549,-1,549,535,534,-1,549,534,550,-1,550,534,536,-1,550,536,551,-1,529,544,530,-1,530,544,531,-1,530,531,552,-1,552,531,533,-1,552,533,553,-1,553,533,401,-1,511,509,536,-1,536,509,507,-1,536,507,551,-1,551,507,505,-1,551,505,503,-1,554,548,555,-1,555,548,549,-1,555,549,556,-1,556,549,550,-1,556,550,557,-1,557,550,551,-1,557,551,558,-1,558,551,503,-1,527,554,559,-1,559,554,555,-1,559,555,560,-1,560,555,556,-1,560,556,561,-1,561,556,557,-1,561,557,562,-1,562,557,558,-1,562,558,563,-1,526,528,527,-1,527,528,530,-1,527,530,554,-1,554,530,552,-1,554,552,548,-1,548,552,553,-1,548,553,535,-1,535,553,401,-1,421,420,538,-1,538,420,564,-1,538,564,525,-1,503,501,558,-1,558,501,499,-1,558,499,563,-1,563,499,497,-1,563,497,495,-1,525,527,538,-1,538,527,559,-1,538,559,539,-1,539,559,560,-1,539,560,540,-1,540,560,561,-1,540,561,541,-1,541,561,562,-1,541,562,542,-1,542,562,563,-1,542,563,543,-1,543,563,495,-1,543,495,493,-1,494,496,565,-1,498,500,566,-1,567,568,569,-1,326,570,571,-1,572,570,326,-1,569,568,326,-1,510,326,568,-1,441,573,443,-1,443,573,574,-1,443,574,445,-1,445,574,575,-1,445,575,448,-1,448,575,450,-1,450,575,576,-1,450,576,452,-1,452,576,577,-1,452,577,454,-1,454,577,455,-1,455,577,578,-1,455,578,458,-1,458,578,579,-1,458,579,459,-1,580,572,326,-1,502,504,567,-1,567,504,506,-1,567,506,568,-1,568,506,508,-1,568,508,510,-1,581,571,582,-1,582,571,570,-1,582,570,583,-1,583,570,572,-1,583,572,584,-1,500,502,566,-1,566,502,567,-1,566,567,585,-1,585,567,569,-1,585,569,586,-1,586,569,326,-1,580,587,572,-1,572,587,588,-1,572,588,584,-1,584,588,589,-1,584,589,590,-1,591,581,592,-1,592,581,582,-1,592,582,593,-1,593,582,583,-1,593,583,594,-1,594,583,584,-1,594,584,595,-1,595,584,590,-1,565,591,596,-1,596,591,592,-1,596,592,597,-1,597,592,593,-1,597,593,598,-1,598,593,594,-1,598,594,599,-1,599,594,595,-1,599,595,600,-1,496,498,565,-1,565,498,566,-1,565,566,591,-1,591,566,585,-1,591,585,581,-1,581,585,586,-1,581,586,571,-1,571,586,326,-1,441,417,573,-1,573,417,492,-1,573,492,494,-1,590,601,595,-1,595,601,602,-1,595,602,600,-1,600,602,603,-1,600,603,604,-1,494,565,573,-1,573,565,596,-1,573,596,574,-1,574,596,597,-1,574,597,575,-1,575,597,598,-1,575,598,576,-1,576,598,599,-1,576,599,577,-1,577,599,600,-1,577,600,578,-1,578,600,604,-1,578,604,579,-1,605,0,490,-1,605,490,606,-1,606,490,489,-1,606,489,607,-1,607,489,485,-1,607,485,608,-1,608,485,609,-1,609,485,484,-1,609,484,610,-1,610,484,611,-1,611,484,483,-1,611,483,612,-1,612,483,613,-1,613,483,471,-1,613,471,614,-1,614,471,615,-1,615,471,470,-1,615,470,616,-1,616,470,461,-1,616,461,463,-1,4,3,513,-1,513,3,617,-1,513,617,514,-1,514,617,515,-1,515,617,618,-1,515,618,516,-1,516,618,619,-1,516,619,517,-1,517,619,620,-1,517,620,518,-1,518,620,621,-1,518,621,519,-1,519,621,622,-1,519,622,520,-1,520,622,521,-1,521,622,623,-1,521,623,522,-1,522,623,624,-1,522,624,523,-1,523,624,625,-1,523,625,524,-1,524,625,467,-1,467,625,626,-1,467,626,465,-1,564,420,465,-1,564,465,525,-1,465,627,525,-1,525,627,628,-1,525,628,526,-1,526,628,528,-1,628,629,528,-1,528,629,630,-1,528,630,529,-1,529,630,544,-1,630,631,544,-1,544,631,632,-1,544,632,545,-1,545,632,546,-1,632,633,546,-1,546,633,634,-1,546,634,547,-1,547,634,537,-1,537,634,635,-1,537,635,636,-1,637,415,389,-1,637,389,636,-1,636,389,393,-1,636,393,403,-1,403,402,636,-1,636,402,401,-1,636,401,537,-1,638,464,459,-1,638,459,639,-1,459,579,639,-1,639,579,604,-1,639,604,640,-1,640,604,641,-1,604,603,641,-1,641,603,602,-1,641,602,642,-1,642,602,601,-1,642,601,643,-1,643,601,590,-1,643,590,644,-1,644,590,589,-1,644,589,645,-1,645,589,588,-1,645,588,646,-1,646,588,587,-1,646,587,647,-1,647,587,580,-1,365,647,309,-1,309,647,580,-1,309,580,326,-1,365,399,647,-1,647,399,19,-1,647,19,648,-1,648,19,18,-1,463,464,616,-1,616,464,649,-1,616,649,615,-1,615,649,650,-1,615,650,614,-1,614,650,651,-1,614,651,613,-1,613,651,612,-1,612,651,652,-1,612,652,611,-1,611,652,653,-1,611,653,610,-1,610,653,654,-1,610,654,609,-1,609,654,608,-1,608,654,655,-1,608,655,607,-1,607,655,656,-1,607,656,606,-1,606,656,2,-1,606,2,1,-1,657,658,659,-1,660,661,662,-1,415,663,664,-1,662,661,415,-1,665,415,661,-1,666,618,617,-1,618,666,619,-1,619,666,667,-1,619,667,620,-1,620,667,668,-1,620,668,621,-1,621,668,622,-1,622,668,669,-1,622,669,623,-1,623,669,670,-1,623,670,624,-1,624,670,625,-1,625,670,671,-1,625,671,626,-1,626,671,627,-1,626,627,465,-1,415,637,672,-1,672,637,636,-1,663,415,672,-1,673,664,674,-1,674,664,663,-1,674,663,675,-1,675,663,672,-1,675,672,676,-1,676,672,636,-1,677,678,679,-1,679,678,660,-1,679,660,680,-1,680,660,662,-1,680,662,681,-1,681,662,415,-1,678,682,660,-1,660,682,683,-1,660,683,661,-1,661,683,684,-1,661,684,665,-1,685,673,686,-1,686,673,674,-1,686,674,687,-1,687,674,675,-1,687,675,688,-1,688,675,676,-1,688,676,689,-1,636,635,676,-1,676,635,634,-1,676,634,689,-1,689,634,633,-1,689,633,632,-1,659,685,690,-1,690,685,686,-1,690,686,691,-1,691,686,687,-1,691,687,692,-1,692,687,688,-1,692,688,693,-1,693,688,689,-1,693,689,694,-1,694,689,632,-1,695,696,697,-1,697,696,657,-1,657,659,697,-1,697,659,690,-1,697,690,698,-1,698,690,691,-1,698,691,699,-1,699,691,692,-1,699,692,700,-1,700,692,693,-1,700,693,701,-1,701,693,694,-1,701,694,702,-1,658,677,659,-1,659,677,679,-1,659,679,685,-1,685,679,680,-1,685,680,673,-1,673,680,681,-1,673,681,664,-1,664,681,415,-1,695,666,703,-1,703,666,617,-1,703,617,3,-1,632,631,694,-1,694,631,630,-1,694,630,702,-1,702,630,629,-1,702,629,628,-1,695,697,666,-1,666,697,698,-1,666,698,667,-1,667,698,699,-1,667,699,668,-1,668,699,700,-1,668,700,669,-1,669,700,701,-1,669,701,670,-1,670,701,702,-1,670,702,671,-1,671,702,628,-1,671,628,627,-1,641,642,704,-1,705,706,707,-1,707,706,18,-1,648,18,706,-1,649,708,650,-1,650,708,709,-1,650,709,651,-1,651,709,710,-1,651,710,652,-1,652,710,653,-1,653,710,711,-1,653,711,654,-1,654,711,712,-1,654,712,655,-1,655,712,656,-1,656,712,713,-1,656,713,2,-1,18,714,715,-1,715,714,716,-1,717,18,715,-1,718,719,720,-1,720,719,717,-1,720,717,721,-1,721,717,715,-1,721,715,722,-1,722,715,716,-1,644,645,705,-1,705,645,646,-1,705,646,706,-1,706,646,647,-1,706,647,648,-1,723,718,724,-1,724,718,720,-1,724,720,725,-1,725,720,721,-1,725,721,726,-1,726,721,722,-1,726,722,727,-1,716,728,722,-1,722,728,729,-1,722,729,727,-1,727,729,730,-1,727,730,731,-1,731,732,727,-1,727,732,733,-1,727,733,726,-1,726,733,734,-1,726,734,725,-1,725,734,735,-1,725,735,724,-1,724,735,704,-1,724,704,723,-1,723,704,642,-1,723,642,643,-1,639,640,736,-1,736,640,641,-1,641,704,736,-1,736,704,735,-1,736,735,737,-1,737,735,734,-1,737,734,738,-1,738,734,733,-1,738,733,739,-1,739,733,732,-1,739,732,740,-1,719,18,717,-1,643,644,723,-1,723,644,705,-1,723,705,718,-1,718,705,707,-1,718,707,719,-1,719,707,18,-1,649,464,708,-1,708,464,638,-1,708,638,639,-1,731,741,732,-1,732,741,742,-1,732,742,740,-1,740,742,743,-1,740,743,744,-1,639,736,708,-1,708,736,737,-1,708,737,709,-1,709,737,738,-1,709,738,710,-1,710,738,739,-1,710,739,711,-1,711,739,740,-1,711,740,712,-1,712,740,744,-1,712,744,713,-1,409,716,408,-1,408,716,714,-1,408,714,18,-1,409,410,716,-1,716,410,411,-1,716,411,412,-1,415,665,414,-1,414,665,684,-1,414,684,413,-1,412,413,716,-1,716,413,684,-1,716,684,728,-1,728,684,683,-1,728,683,729,-1,729,683,682,-1,729,682,730,-1,730,682,678,-1,730,678,731,-1,731,678,677,-1,731,677,741,-1,741,677,658,-1,741,658,742,-1,742,658,657,-1,742,657,743,-1,743,657,696,-1,743,696,744,-1,744,696,695,-1,744,695,713,-1,713,695,703,-1,713,703,2,-1,2,703,3,-1,
        ]
    }
}
Shape{
    appearance Appearance {
        material  Material 	{
            diffuseColor 0.7686274509803922 0.7686274509803922 0.7686274509803922
            specularColor 0.615686274509804 0.615686274509804 0.615686274509804
            ambientIntensity 0.7686
            transparency 0.0
            shininess 0.5
        }
    }
    geometry IndexedFaceSet {
        ccw TRUE
        solid FALSE
        coord DEF co Coordinate {
            point [
                1.6929 2.3215 0.5118, 2.4535 2.3215 0.5118, 1.6929 2.3215 0.0, 2.4803 2.3215 0.0, -0.748 2.3215 0.0, -1.5354 2.3215 0.0, -0.748 2.3215 0.5118, -1.5086 2.3215 0.5118, 1.6929 1.9278 0.5118, 2.0866 1.9278 0.5118, 2.0866 -0.178 0.5118, -1.1417 -0.178 0.5118, -1.1417 1.9278 0.5118, -0.748 1.9278 0.5118, 2.4458 2.4423 0.5118, 2.4478 2.4406 0.5118, 2.4495 2.4387 0.5118, 2.4509 2.4366 0.5118, -1.4916 2.4462 0.5118, -1.489 2.4464 0.5118, 2.4528 2.4318 0.5118, 2.4535 2.4267 0.5118, -1.5086 2.4267 0.5118, 2.4339 2.4464 0.5118, 2.4365 2.4462 0.5118, 2.439 2.4457 0.5118, -1.5079 2.4318 0.5118, -1.506 2.4366 0.5118, -1.5046 2.4387 0.5118, 2.4414 2.4449 0.5118, 2.4437 2.4438 0.5118, -1.5029 2.4406 0.5118, -1.501 2.4423 0.5118, -1.4988 2.4438 0.5118, -1.4965 2.4449 0.5118, -1.4941 2.4457 0.5118, -1.1417 1.9278 0.0, -1.1417 -0.178 0.0, 2.0866 -0.178 0.0, 2.0866 1.9278 0.0, 1.6929 1.9278 0.0, -0.748 1.9278 0.0, 1.2953 -2.9582 0.1574, 1.6496 -2.9582 0.1574, 1.2953 -2.1838 0.198, 1.6496 -2.1838 0.198, 1.2953 -2.95 0.0001, 1.2953 -2.1756 0.0407, 1.6496 -2.95 0.0001, 1.6496 -2.1756 0.0407, 1.6496 -2.079 0.2755, 1.2953 -2.079 0.2755, 1.6496 -2.0914 0.2509, 1.2953 -2.0914 0.2509, 1.6496 -2.1091 0.2298, 1.2953 -2.1091 0.2298, 1.6496 -2.1313 0.2134, 1.2953 -2.1313 0.2134, 1.6496 -2.1566 0.2026, 1.2953 -2.1566 0.2026, 1.2953 -1.931 0.2216, 1.2953 -1.9599 0.1642, 1.2953 -2.0013 0.115, 1.2953 -2.053 0.0768, 1.2953 -2.1122 0.0515, 1.6496 -2.1122 0.0515, 1.6496 -2.053 0.0768, 1.6496 -2.0013 0.115, 1.6496 -1.9599 0.1642, 1.6496 -1.931 0.2216, 1.2953 -1.8154 0.9998, 1.6496 -1.8154 0.9998, 1.2953 -1.6674 0.9459, 1.6496 -1.6674 0.9459, 1.6496 -1.7849 1.0596, 1.2953 -1.7849 1.0596, 1.6496 -1.7408 1.1103, 1.2953 -1.7408 1.1103, 1.6496 -1.6858 1.1488, 1.2953 -1.6858 1.1488, 1.6496 -1.6231 1.1729, 1.2953 -1.6231 1.1729, 1.6496 -1.5564 1.1811, 1.2953 -1.5564 1.1811, 1.2953 -1.6543 0.9716, 1.2953 -1.6355 0.9933, 1.2953 -1.6119 1.0098, 1.2953 -1.585 1.0201, 1.2953 -1.5564 1.0236, 1.6496 -1.5564 1.0236, 1.6496 -1.585 1.0201, 1.6496 -1.6119 1.0098, 1.6496 -1.6355 0.9933, 1.6496 -1.6543 0.9716, 1.6496 -0.9069 1.1811, 1.6496 -0.9069 1.0236, 1.2953 -0.9069 1.1811, 1.2953 -0.9069 1.0236, -0.7047 -2.9582 0.1574, -0.3504 -2.9582 0.1574, -0.7047 -2.1838 0.198, -0.3504 -2.1838 0.198, -0.7047 -2.95 0.0001, -0.7047 -2.1756 0.0407, -0.3504 -2.95 0.0001, -0.3504 -2.1756 0.0407, -0.3504 -2.079 0.2755, -0.7047 -2.079 0.2755, -0.3504 -2.0914 0.2509, -0.7047 -2.0914 0.2509, -0.3504 -2.1091 0.2298, -0.7047 -2.1091 0.2298, -0.3504 -2.1313 0.2134, -0.7047 -2.1313 0.2134, -0.3504 -2.1566 0.2026, -0.7047 -2.1566 0.2026, -0.7047 -1.931 0.2216, -0.7047 -1.9599 0.1642, -0.7047 -2.0013 0.115, -0.7047 -2.053 0.0768, -0.7047 -2.1122 0.0515, -0.3504 -2.1122 0.0515, -0.3504 -2.053 0.0768, -0.3504 -2.0013 0.115, -0.3504 -1.9599 0.1642, -0.3504 -1.931 0.2216, -0.7047 -1.8154 0.9998, -0.3504 -1.8154 0.9998, -0.7047 -1.6674 0.9459, -0.3504 -1.6674 0.9459, -0.3504 -1.7849 1.0596, -0.7047 -1.7849 1.0596, -0.3504 -1.7408 1.1103, -0.7047 -1.7408 1.1103, -0.3504 -1.6858 1.1488, -0.7047 -1.6858 1.1488, -0.3504 -1.6231 1.1729, -0.7047 -1.6231 1.1729, -0.3504 -1.5564 1.1811, -0.7047 -1.5564 1.1811, -0.7047 -1.6543 0.9716, -0.7047 -1.6355 0.9933, -0.7047 -1.6119 1.0098, -0.7047 -1.585 1.0201, -0.7047 -1.5564 1.0236, -0.3504 -1.5564 1.0236, -0.3504 -1.585 1.0201, -0.3504 -1.6119 1.0098, -0.3504 -1.6355 0.9933, -0.3504 -1.6543 0.9716, -0.3504 -0.9069 1.1811, -0.3504 -0.9069 1.0236, -0.7047 -0.9069 1.1811, -0.7047 -0.9069 1.0236
            ]
        }
        coordIndex [
            0,1,2,-1,2,1,3,-1,4,5,6,-1,6,5,7,-1,8,9,10,-1,11,12,13,-1,14,15,0,-1,0,15,16,-1,0,16,17,-1,18,19,6,-1,6,19,0,-1,6,0,13,-1,13,0,8,-1,13,8,11,-1,11,8,10,-1,17,20,0,-1,0,20,21,-1,0,21,1,-1,6,7,22,-1,19,23,0,-1,0,23,24,-1,0,24,25,-1,22,26,6,-1,6,26,27,-1,6,27,28,-1,25,29,0,-1,0,29,30,-1,0,30,14,-1,28,31,6,-1,6,31,32,-1,6,32,33,-1,33,34,6,-1,6,34,35,-1,6,35,18,-1,12,11,36,-1,36,11,37,-1,11,10,37,-1,37,10,38,-1,10,9,38,-1,38,9,39,-1,9,8,39,-1,39,8,40,-1,8,0,40,-1,40,0,2,-1,6,13,4,-1,4,13,41,-1,13,12,41,-1,41,12,36,-1,42,43,44,-1,44,43,45,-1,46,42,47,-1,47,42,44,-1,48,46,49,-1,49,46,47,-1,43,48,45,-1,45,48,49,-1,50,51,52,-1,52,51,53,-1,52,53,54,-1,54,53,55,-1,54,55,56,-1,56,55,57,-1,56,57,58,-1,58,57,59,-1,58,59,45,-1,45,59,44,-1,51,60,53,-1,53,60,61,-1,53,61,55,-1,55,61,62,-1,55,62,57,-1,57,62,63,-1,57,63,59,-1,59,63,64,-1,59,64,44,-1,44,64,47,-1,49,47,64,-1,49,64,65,-1,65,64,63,-1,65,63,66,-1,66,63,62,-1,66,62,67,-1,67,62,61,-1,67,61,68,-1,68,61,60,-1,68,60,69,-1,45,49,58,-1,58,49,65,-1,58,65,56,-1,56,65,66,-1,56,66,54,-1,54,66,67,-1,54,67,52,-1,52,67,68,-1,52,68,50,-1,50,68,69,-1,51,50,70,-1,70,50,71,-1,60,51,72,-1,72,51,70,-1,69,60,73,-1,73,60,72,-1,50,69,71,-1,71,69,73,-1,70,71,74,-1,70,74,75,-1,75,74,76,-1,75,76,77,-1,77,76,78,-1,77,78,79,-1,79,78,80,-1,79,80,81,-1,81,80,82,-1,81,82,83,-1,72,70,84,-1,84,70,75,-1,84,75,85,-1,85,75,77,-1,85,77,86,-1,86,77,79,-1,86,79,87,-1,87,79,81,-1,87,81,88,-1,88,81,83,-1,88,89,87,-1,87,89,90,-1,87,90,86,-1,86,90,91,-1,86,91,85,-1,85,91,92,-1,85,92,84,-1,84,92,93,-1,84,93,72,-1,72,93,73,-1,89,82,90,-1,90,82,80,-1,90,80,91,-1,91,80,78,-1,91,78,92,-1,92,78,76,-1,92,76,93,-1,93,76,74,-1,93,74,73,-1,73,74,71,-1,82,89,94,-1,94,89,95,-1,83,82,96,-1,96,82,94,-1,88,83,97,-1,97,83,96,-1,89,88,95,-1,95,88,97,-1,42,46,43,-1,43,46,48,-1,98,99,100,-1,100,99,101,-1,102,98,103,-1,103,98,100,-1,104,102,105,-1,105,102,103,-1,99,104,101,-1,101,104,105,-1,106,107,108,-1,108,107,109,-1,108,109,110,-1,110,109,111,-1,110,111,112,-1,112,111,113,-1,112,113,114,-1,114,113,115,-1,114,115,101,-1,101,115,100,-1,107,116,109,-1,109,116,117,-1,109,117,111,-1,111,117,118,-1,111,118,113,-1,113,118,119,-1,113,119,115,-1,115,119,120,-1,115,120,100,-1,100,120,103,-1,105,103,120,-1,105,120,121,-1,121,120,119,-1,121,119,122,-1,122,119,118,-1,122,118,123,-1,123,118,117,-1,123,117,124,-1,124,117,116,-1,124,116,125,-1,101,105,114,-1,114,105,121,-1,114,121,112,-1,112,121,122,-1,112,122,110,-1,110,122,123,-1,110,123,108,-1,108,123,124,-1,108,124,106,-1,106,124,125,-1,107,106,126,-1,126,106,127,-1,116,107,128,-1,128,107,126,-1,125,116,129,-1,129,116,128,-1,106,125,127,-1,127,125,129,-1,126,127,130,-1,126,130,131,-1,131,130,132,-1,131,132,133,-1,133,132,134,-1,133,134,135,-1,135,134,136,-1,135,136,137,-1,137,136,138,-1,137,138,139,-1,128,126,140,-1,140,126,131,-1,140,131,141,-1,141,131,133,-1,141,133,142,-1,142,133,135,-1,142,135,143,-1,143,135,137,-1,143,137,144,-1,144,137,139,-1,144,145,143,-1,143,145,146,-1,143,146,142,-1,142,146,147,-1,142,147,141,-1,141,147,148,-1,141,148,140,-1,140,148,149,-1,140,149,128,-1,128,149,129,-1,145,138,146,-1,146,138,136,-1,146,136,147,-1,147,136,134,-1,147,134,148,-1,148,134,132,-1,148,132,149,-1,149,132,130,-1,149,130,129,-1,129,130,127,-1,138,145,150,-1,150,145,151,-1,139,138,152,-1,152,138,150,-1,144,139,153,-1,153,139,152,-1,145,144,151,-1,151,144,153,-1,98,102,99,-1,99,102,104,-1,
        ]
    }
}
Shape{
    appearance Appearance {
        material  Material 	{
            diffuseColor 0.45098039215686275 0.43137254901960786 0.4196078431372549
            specularColor 0.03137254901960784 0.03137254901960784 0.03137254901960784
            ambientIntensity 0.6221
            transparency 0.0
            shininess 0.5
        }
    }
    geometry IndexedFaceSet {
        ccw TRUE
        solid FALSE
        coord DEF co Coordinate {
            point [
                -0.6715 0.3696 1.7677, -0.6715 0.4147 1.7677, -0.6715 0.3696 1.7717, -0.6715 0.4147 1.7717, -0.353 0.4147 1.7677, -0.353 0.4147 1.7717, -0.353 0.3696 1.7677, -0.353 0.3696 1.7717, -0.4864 0.3696 1.7677, -0.4864 0.3696 1.7717, -0.4864 0.0802 1.7717, -0.4864 0.021 1.7677, -0.4864 0.021 1.7717, -0.5381 0.021 1.7677, -0.5381 0.021 1.7717, -0.5381 0.0802 1.7717, -0.5381 0.3696 1.7677, -0.5381 0.3696 1.7717, -0.0261 0.324 1.7677, -0.0093 0.2903 1.7677, 0.0479 0.2865 1.7677, 0.058 0.2168 1.7677, 0.0243 0.3428 1.7677, 0.0064 0.3696 1.7677, -0.0457 0.3468 1.7677, -0.0261 0.3969 1.7677, -0.0685 0.3629 1.7677, -0.0618 0.4143 1.7677, -0.0967 0.3742 1.7677, -0.1334 0.3803 1.7677, -0.1699 0.0628 1.7677, -0.1462 0.0149 1.7677, -0.1334 0.0576 1.7677, -0.1334 0.0146 1.7677, -0.1107 0.0604 1.7677, -0.0776 0.0208 1.7677, -0.0756 0.0711 1.7677, -0.0384 0.035 1.7677, -0.0504 0.0865 1.7677, -0.0076 0.0551 1.7677, -0.0306 0.1065 1.7677, 0.0085 0.0705 1.7677, -0.0146 0.1329 1.7677, 0.0367 0.1161 1.7677, -0.0025 0.1687 1.7677, 0.0533 0.1698 1.7677, 0.0042 0.2168 1.7677, 0.0027 0.2359 1.7677, -0.3153 0.1423 1.7677, -0.2904 0.0876 1.7677, -0.2406 0.1098 1.7677, -0.2819 0.0748 1.7677, -0.2214 0.0886 1.7677, -0.253 0.0483 1.7677, -0.1986 0.0734 1.7677, -0.2235 0.0316 1.7677, -0.1776 0.0181 1.7677, -0.1106 0.4245 1.7677, -0.1334 0.4255 1.7677, -0.1681 0.3754 1.7677, -0.1902 0.4191 1.7677, -0.1951 0.3659 1.7677, -0.2287 0.4051 1.7677, -0.2193 0.3503 1.7677, -0.2625 0.3825 1.7677, -0.2381 0.3304 1.7677, -0.2954 0.3398 1.7677, -0.2532 0.3041 1.7677, -0.2651 0.2671 1.7677, -0.2547 0.1352 1.7677, -0.2671 0.1781 1.7677, -0.3271 0.2168 1.7677, -0.2711 0.2168 1.7677, -0.3265 0.229 1.7677, -0.3158 0.2926 1.7677, 0.0085 0.0705 1.7717, 0.0145 0.0802 1.7717, 0.0367 0.1161 1.7717, 0.0533 0.1698 1.7717, 0.058 0.2168 1.7717, -0.1044 0.0178 1.7717, -0.1334 0.0146 1.7717, -0.0776 0.0208 1.7717, -0.0384 0.035 1.7717, -0.0076 0.0551 1.7717, -0.2819 0.0748 1.7717, -0.253 0.0483 1.7717, -0.2235 0.0316 1.7717, -0.1776 0.0181 1.7717, -0.1749 0.0178 1.7717, -0.1462 0.0149 1.7717, -0.3271 0.2168 1.7717, -0.3153 0.1423 1.7717, -0.2904 0.0876 1.7717, -0.2855 0.0802 1.7717, -0.2625 0.3825 1.7717, -0.2954 0.3398 1.7717, -0.3158 0.2926 1.7717, -0.3265 0.229 1.7717, -0.1334 0.4255 1.7717, -0.1902 0.4191 1.7717, -0.2287 0.4051 1.7717, 0.0064 0.3696 1.7717, -0.0261 0.3969 1.7717, -0.0618 0.4143 1.7717, -0.1106 0.4245 1.7717, 0.0479 0.2865 1.7717, 0.0243 0.3428 1.7717, -0.1334 0.3803 1.7717, -0.0967 0.3742 1.7717, -0.0685 0.3629 1.7717, -0.0457 0.3468 1.7717, -0.0261 0.324 1.7717, -0.0093 0.2903 1.7717, 0.0027 0.2359 1.7717, 0.0042 0.2168 1.7717, -0.0025 0.1687 1.7717, -0.0146 0.1329 1.7717, -0.0306 0.1065 1.7717, -0.0504 0.0865 1.7717, -0.0756 0.0711 1.7717, -0.1107 0.0604 1.7717, -0.1334 0.0576 1.7717, -0.1699 0.0628 1.7717, -0.1986 0.0734 1.7717, -0.2214 0.0886 1.7717, -0.2406 0.1098 1.7717, -0.2547 0.1352 1.7717, -0.2671 0.1781 1.7717, -0.2711 0.2168 1.7717, -0.2651 0.2671 1.7717, -0.2532 0.3041 1.7717, -0.2381 0.3304 1.7717, -0.2193 0.3503 1.7717, -0.1951 0.3659 1.7717, -0.1681 0.3754 1.7717
            ]
        }
        coordIndex [
            0,1,2,-1,2,1,3,-1,1,4,3,-1,3,4,5,-1,4,6,5,-1,5,6,7,-1,6,8,7,-1,7,8,9,-1,9,8,10,-1,10,8,11,-1,10,11,12,-1,11,13,12,-1,12,13,14,-1,14,13,15,-1,15,13,16,-1,15,16,17,-1,16,0,17,-1,17,0,2,-1,4,1,16,-1,16,1,0,-1,6,4,8,-1,8,4,16,-1,8,16,11,-1,11,16,13,-1,18,19,20,-1,20,19,21,-1,20,22,18,-1,18,22,23,-1,18,23,24,-1,24,23,25,-1,24,25,26,-1,26,25,27,-1,26,27,28,-1,28,27,29,-1,30,31,32,-1,32,31,33,-1,32,33,34,-1,34,33,35,-1,34,35,36,-1,36,35,37,-1,36,37,38,-1,38,37,39,-1,38,39,40,-1,40,39,41,-1,40,41,42,-1,42,41,43,-1,42,43,44,-1,44,43,45,-1,44,45,46,-1,46,45,21,-1,46,21,47,-1,47,21,19,-1,48,49,50,-1,50,49,51,-1,50,51,52,-1,52,51,53,-1,52,53,54,-1,54,53,55,-1,54,55,30,-1,30,55,56,-1,30,56,31,-1,27,57,29,-1,29,57,58,-1,29,58,59,-1,59,58,60,-1,59,60,61,-1,61,60,62,-1,61,62,63,-1,63,62,64,-1,63,64,65,-1,65,64,66,-1,65,66,67,-1,67,66,68,-1,50,69,48,-1,48,69,70,-1,48,70,71,-1,71,70,72,-1,71,72,73,-1,73,72,68,-1,73,68,74,-1,74,68,66,-1,41,75,76,-1,41,76,43,-1,76,77,43,-1,43,77,78,-1,43,78,45,-1,45,78,79,-1,45,79,21,-1,35,33,80,-1,80,33,81,-1,80,82,35,-1,35,82,83,-1,35,83,37,-1,37,83,84,-1,37,84,39,-1,39,84,75,-1,39,75,41,-1,81,33,31,-1,51,85,86,-1,51,86,53,-1,53,86,87,-1,53,87,55,-1,55,87,88,-1,55,88,56,-1,56,88,89,-1,56,89,31,-1,31,89,90,-1,31,90,81,-1,71,91,92,-1,71,92,48,-1,48,92,93,-1,48,93,49,-1,49,93,51,-1,51,93,94,-1,51,94,85,-1,64,95,96,-1,64,96,66,-1,66,96,97,-1,66,97,74,-1,74,97,98,-1,74,98,73,-1,73,98,91,-1,73,91,71,-1,58,99,100,-1,58,100,60,-1,60,100,101,-1,60,101,62,-1,62,101,95,-1,62,95,64,-1,23,102,103,-1,23,103,25,-1,25,103,104,-1,25,104,27,-1,27,104,105,-1,27,105,57,-1,57,105,99,-1,57,99,58,-1,21,79,106,-1,21,106,20,-1,20,106,107,-1,20,107,22,-1,22,107,102,-1,22,102,23,-1,29,108,109,-1,29,109,28,-1,28,109,110,-1,28,110,26,-1,26,110,111,-1,26,111,24,-1,24,111,112,-1,24,112,18,-1,18,112,113,-1,18,113,19,-1,19,113,114,-1,19,114,47,-1,47,114,115,-1,47,115,46,-1,46,115,116,-1,46,116,44,-1,44,116,117,-1,44,117,42,-1,42,117,118,-1,42,118,40,-1,40,118,119,-1,40,119,38,-1,38,119,120,-1,38,120,36,-1,36,120,121,-1,36,121,34,-1,34,121,122,-1,34,122,32,-1,32,122,123,-1,32,123,30,-1,30,123,124,-1,30,124,54,-1,54,124,125,-1,54,125,52,-1,52,125,126,-1,52,126,50,-1,50,126,127,-1,50,127,69,-1,69,127,128,-1,69,128,70,-1,70,128,129,-1,70,129,72,-1,72,129,130,-1,72,130,68,-1,68,130,131,-1,68,131,67,-1,67,131,132,-1,67,132,65,-1,65,132,133,-1,65,133,63,-1,63,133,134,-1,63,134,61,-1,61,134,135,-1,61,135,59,-1,59,135,108,-1,59,108,29,-1,
        ]
    }
}
Shape{
    appearance Appearance {
        material  Material 	{
            diffuseColor 0.25098039215686274 0.25098039215686274 0.25098039215686274
            specularColor 0.07450980392156863 0.07450980392156863 0.07450980392156863
            ambientIntensity 0.251
            transparency 0.0
            shininess 0.5
        }
    }
    geometry IndexedFaceSet {
        ccw TRUE
        solid FALSE
        coord DEF co Coordinate {
            point [
                -0.2532 0.3041 1.7717, -0.2651 0.2671 1.7717, 0.0027 0.2359 1.7717, -0.0146 0.1329 1.7717, -0.0025 0.1687 1.7717, -0.2671 0.1781 1.7717, -0.1107 0.0604 1.7717, -0.1334 0.0576 1.7717, -0.1699 0.0628 1.7717, -0.0306 0.1065 1.7717, -0.2711 0.2168 1.7717, 0.0042 0.2168 1.7717, -0.0685 0.3629 1.7717, -0.0967 0.3742 1.7717, -0.1334 0.3803 1.7717, -0.1681 0.3754 1.7717, -0.1951 0.3659 1.7717, -0.2547 0.1352 1.7717, -0.2406 0.1098 1.7717, -0.1986 0.0734 1.7717, -0.2214 0.0886 1.7717, -0.0756 0.0711 1.7717, -0.0504 0.0865 1.7717, -0.0457 0.3468 1.7717, -0.0093 0.2903 1.7717, -0.0261 0.324 1.7717, -0.2193 0.3503 1.7717, -0.2381 0.3304 1.7717
            ]
        }
        coordIndex [
            0,1,2,-1,3,4,5,-1,6,5,7,-1,7,5,8,-1,3,5,9,-1,1,10,2,-1,2,10,5,-1,2,5,11,-1,11,5,4,-1,12,13,2,-1,13,14,2,-1,2,14,15,-1,2,15,16,-1,5,17,8,-1,8,17,18,-1,8,18,19,-1,19,18,20,-1,6,21,5,-1,5,21,22,-1,5,22,9,-1,12,2,23,-1,23,2,24,-1,23,24,25,-1,16,26,2,-1,2,26,27,-1,2,27,0,-1,
        ]
    }
}
Shape{
    appearance Appearance {
        material  Material 	{
            diffuseColor 0.45098039215686275 0.43137254901960786 0.4196078431372549
            specularColor 0.03137254901960784 0.03137254901960784 0.03137254901960784
            ambientIntensity 0.6221
            transparency 0.0
            shininess 0.5
        }
    }
    geometry IndexedFaceSet {
        ccw TRUE
        solid FALSE
        coord DEF co Coordinate {
            point [
                0.1529 0.2684 1.7677, 0.1034 0.2684 1.7677, 0.1529 0.2684 1.7717, 0.1034 0.2684 1.7717, 0.1379 0.3717 1.7677, 0.1379 0.3717 1.7717, 0.1191 0.3437 1.7717, 0.1191 0.3437 1.7677, 0.1076 0.3103 1.7717, 0.1076 0.3103 1.7677, 0.2368 0.4083 1.7677, 0.2368 0.4083 1.7717, 0.1951 0.4037 1.7717, 0.1951 0.4037 1.7677, 0.1682 0.3942 1.7717, 0.1682 0.3942 1.7677, 0.148 0.3812 1.7717, 0.148 0.3812 1.7677, 0.3595 0.2921 1.7677, 0.3595 0.2921 1.7717, 0.3547 0.3239 1.7717, 0.3547 0.3239 1.7677, 0.3457 0.3488 1.7717, 0.3457 0.3488 1.7677, 0.3332 0.3679 1.7717, 0.3332 0.3679 1.7677, 0.3163 0.3837 1.7717, 0.3163 0.3837 1.7677, 0.2956 0.3956 1.7717, 0.2956 0.3956 1.7677, 0.2617 0.4055 1.7717, 0.2617 0.4055 1.7677, 0.254 0.163 1.7677, 0.254 0.163 1.7717, 0.3031 0.1906 1.7717, 0.3031 0.1906 1.7677, 0.3345 0.2192 1.7717, 0.3345 0.2192 1.7677, 0.3489 0.2409 1.7717, 0.3489 0.2409 1.7677, 0.3569 0.2628 1.7717, 0.3569 0.2628 1.7677, 0.2132 0.1394 1.7677, 0.2132 0.1394 1.7717, 0.1486 0.0662 1.7677, 0.1486 0.0662 1.7717, 0.1539 0.0837 1.7677, 0.1528 0.0802 1.7717, 0.1539 0.0837 1.7717, 0.1638 0.0999 1.7717, 0.1638 0.0999 1.7677, 0.184 0.1201 1.7717, 0.184 0.1201 1.7677, 0.3595 0.0662 1.7677, 0.3595 0.0662 1.7717, 0.3595 0.021 1.7677, 0.3595 0.021 1.7717, 0.0948 0.021 1.7677, 0.0948 0.021 1.7717, 0.0977 0.053 1.7677, 0.1852 0.1738 1.7677, 0.1852 0.1738 1.7717, 0.1501 0.1498 1.7717, 0.1501 0.1498 1.7677, 0.1251 0.1222 1.7717, 0.1251 0.1222 1.7677, 0.1077 0.0898 1.7717, 0.1077 0.0898 1.7677, 0.1051 0.0802 1.7717, 0.0977 0.053 1.7717, 0.2368 0.2039 1.7677, 0.2368 0.2039 1.7717, 0.2928 0.2448 1.7677, 0.2928 0.2448 1.7717, 0.2661 0.2226 1.7717, 0.2661 0.2226 1.7677, 0.3078 0.2943 1.7677, 0.3078 0.2943 1.7717, 0.3042 0.2683 1.7717, 0.3042 0.2683 1.7677, 0.2965 0.2508 1.7717, 0.2965 0.2508 1.7677, 0.2304 0.3631 1.7677, 0.2304 0.3631 1.7717, 0.2531 0.3605 1.7717, 0.2531 0.3605 1.7677, 0.2705 0.3549 1.7717, 0.2705 0.3549 1.7677, 0.2834 0.3472 1.7717, 0.2834 0.3472 1.7677, 0.2891 0.3421 1.7717, 0.2891 0.3421 1.7677, 0.2982 0.33 1.7717, 0.2982 0.33 1.7677, 0.304 0.3161 1.7717, 0.304 0.3161 1.7677, 0.3078 0.2946 1.7717, 0.3078 0.2946 1.7677, 0.1558 0.2982 1.7717, 0.1558 0.2982 1.7677, 0.1619 0.3196 1.7717, 0.1619 0.3196 1.7677, 0.17 0.3349 1.7717, 0.17 0.3349 1.7677, 0.1799 0.3463 1.7717, 0.1799 0.3463 1.7677, 0.1916 0.3545 1.7717, 0.1916 0.3545 1.7677, 0.2053 0.3599 1.7717, 0.2053 0.3599 1.7677, 0.2263 0.363 1.7717, 0.2263 0.363 1.7677, 0.4589 0.219 1.7677, 0.4632 0.1394 1.7677, 0.4664 0.1636 1.7677, 0.4728 0.1826 1.7677, 0.4812 0.1965 1.7677, 0.4667 0.231 1.7677, 0.4928 0.2079 1.7677, 0.4809 0.2457 1.7677, 0.5062 0.2159 1.7677, 0.4774 0.0288 1.7677, 0.5037 0.019 1.7677, 0.5232 0.0558 1.7677, 0.5449 0.0533 1.7677, 0.5363 0.0146 1.7677, 0.5616 0.0556 1.7677, 0.5798 0.0176 1.7677, 0.577 0.0607 1.7677, 0.604 0.0251 1.7677, 0.5909 0.0694 1.7677, 0.6198 0.0342 1.7677, 0.6016 0.0804 1.7677, 0.6332 0.0469 1.7677, 0.6102 0.0948 1.7677, 0.6547 0.0758 1.7677, 0.6167 0.1147 1.7677, 0.6668 0.1049 1.7677, 0.6202 0.1415 1.7677, 0.6719 0.1437 1.7677, 0.6177 0.1623 1.7677, 0.6678 0.1765 1.7677, 0.6107 0.1839 1.7677, 0.6587 0.2034 1.7677, 0.6028 0.197 1.7677, 0.6461 0.2236 1.7677, 0.5925 0.2075 1.7677, 0.6297 0.2396 1.7677, 0.5793 0.2156 1.7677, 0.6084 0.2523 1.7677, 0.5632 0.2209 1.7677, 0.5758 0.2627 1.7677, 0.5428 0.2233 1.7677, 0.5493 0.2663 1.7677, 0.5264 0.2218 1.7677, 0.5188 0.2632 1.7677, 0.4974 0.256 1.7677, 0.5058 0.0616 1.7677, 0.4931 0.0693 1.7677, 0.4551 0.0438 1.7677, 0.4818 0.0805 1.7677, 0.4352 0.0662 1.7677, 0.4733 0.0942 1.7677, 0.4271 0.082 1.7677, 0.4664 0.115 1.7677, 0.4127 0.131 1.7677, 0.6159 0.305 1.7677, 0.6633 0.305 1.7677, 0.6154 0.3074 1.7677, 0.6574 0.3341 1.7677, 0.609 0.3279 1.7677, 0.6474 0.3569 1.7677, 0.6007 0.3415 1.7677, 0.6341 0.3747 1.7677, 0.5916 0.3505 1.7677, 0.617 0.3887 1.7677, 0.5807 0.357 1.7677, 0.5963 0.399 1.7677, 0.5667 0.3615 1.7677, 0.5619 0.4071 1.7677, 0.5493 0.3631 1.7677, 0.5493 0.4083 1.7677, 0.5285 0.3596 1.7677, 0.517 0.4045 1.7677, 0.5113 0.3522 1.7677, 0.4908 0.3947 1.7677, 0.5036 0.347 1.7677, 0.4663 0.3777 1.7677, 0.4903 0.3338 1.7677, 0.4503 0.361 1.7677, 0.4783 0.3153 1.7677, 0.4291 0.3263 1.7677, 0.4654 0.2803 1.7677, 0.4136 0.2751 1.7677, 0.4567 0.2211 1.7677, 0.4073 0.1996 1.7677, 0.6633 0.305 1.7717, 0.6159 0.305 1.7717, 0.5493 0.3631 1.7717, 0.5667 0.3615 1.7717, 0.5807 0.357 1.7717, 0.5916 0.3505 1.7717, 0.6007 0.3415 1.7717, 0.609 0.3279 1.7717, 0.6154 0.3074 1.7717, 0.4567 0.2211 1.7717, 0.4654 0.2803 1.7717, 0.4783 0.3153 1.7717, 0.4903 0.3338 1.7717, 0.5036 0.347 1.7717, 0.5113 0.3522 1.7717, 0.5285 0.3596 1.7717, 0.4589 0.219 1.7717, 0.5493 0.2663 1.7717, 0.5188 0.2632 1.7717, 0.4974 0.256 1.7717, 0.4809 0.2457 1.7717, 0.4667 0.231 1.7717, 0.6719 0.1437 1.7717, 0.6678 0.1765 1.7717, 0.6587 0.2034 1.7717, 0.6461 0.2236 1.7717, 0.6297 0.2396 1.7717, 0.6084 0.2523 1.7717, 0.5758 0.2627 1.7717, 0.6332 0.0469 1.7717, 0.6547 0.0758 1.7717, 0.6565 0.0802 1.7717, 0.6668 0.1049 1.7717, 0.5363 0.0146 1.7717, 0.5798 0.0176 1.7717, 0.5805 0.0178 1.7717, 0.604 0.0251 1.7717, 0.6198 0.0342 1.7717, 0.5124 0.0178 1.7717, 0.5037 0.019 1.7717, 0.4774 0.0288 1.7717, 0.4551 0.0438 1.7717, 0.4352 0.0662 1.7717, 0.4281 0.0802 1.7717, 0.4271 0.082 1.7717, 0.4127 0.131 1.7717, 0.4073 0.1996 1.7717, 0.4503 0.361 1.7717, 0.4291 0.3263 1.7717, 0.4136 0.2751 1.7717, 0.5493 0.4083 1.7717, 0.517 0.4045 1.7717, 0.4908 0.3947 1.7717, 0.4663 0.3777 1.7717, 0.6574 0.3341 1.7717, 0.6474 0.3569 1.7717, 0.6341 0.3747 1.7717, 0.617 0.3887 1.7717, 0.5963 0.399 1.7717, 0.5619 0.4071 1.7717, 0.5449 0.0533 1.7717, 0.5232 0.0558 1.7717, 0.5058 0.0616 1.7717, 0.4931 0.0693 1.7717, 0.4818 0.0805 1.7717, 0.4733 0.0942 1.7717, 0.4664 0.115 1.7717, 0.4632 0.1394 1.7717, 0.4664 0.1636 1.7717, 0.4728 0.1826 1.7717, 0.4812 0.1965 1.7717, 0.4928 0.2079 1.7717, 0.5062 0.2159 1.7717, 0.5264 0.2218 1.7717, 0.5428 0.2233 1.7717, 0.5632 0.2209 1.7717, 0.5793 0.2156 1.7717, 0.5925 0.2075 1.7717, 0.6028 0.197 1.7717, 0.6107 0.1839 1.7717, 0.6177 0.1623 1.7717, 0.6202 0.1415 1.7717, 0.6167 0.1147 1.7717, 0.6102 0.0948 1.7717, 0.6016 0.0804 1.7717, 0.5909 0.0694 1.7717, 0.577 0.0607 1.7717, 0.5616 0.0556 1.7717
            ]
        }
        coordIndex [
            0,1,2,-1,2,1,3,-1,4,5,6,-1,4,6,7,-1,7,6,8,-1,7,8,9,-1,9,8,3,-1,9,3,1,-1,10,11,12,-1,10,12,13,-1,13,12,14,-1,13,14,15,-1,15,14,16,-1,15,16,17,-1,17,16,5,-1,17,5,4,-1,18,19,20,-1,18,20,21,-1,21,20,22,-1,21,22,23,-1,23,22,24,-1,23,24,25,-1,25,24,26,-1,25,26,27,-1,27,26,28,-1,27,28,29,-1,29,28,30,-1,29,30,31,-1,31,30,11,-1,31,11,10,-1,32,33,34,-1,32,34,35,-1,35,34,36,-1,35,36,37,-1,37,36,38,-1,37,38,39,-1,39,38,40,-1,39,40,41,-1,41,40,19,-1,41,19,18,-1,32,42,33,-1,33,42,43,-1,44,45,46,-1,46,45,47,-1,47,48,46,-1,46,48,49,-1,46,49,50,-1,50,49,51,-1,50,51,52,-1,52,51,43,-1,52,43,42,-1,44,53,45,-1,45,53,54,-1,53,55,54,-1,54,55,56,-1,55,57,56,-1,56,57,58,-1,58,57,59,-1,60,61,62,-1,60,62,63,-1,63,62,64,-1,63,64,65,-1,65,64,66,-1,65,66,67,-1,67,66,68,-1,67,68,59,-1,59,68,69,-1,59,69,58,-1,60,70,61,-1,61,70,71,-1,72,73,74,-1,72,74,75,-1,75,74,71,-1,75,71,70,-1,76,77,78,-1,76,78,79,-1,79,78,80,-1,79,80,81,-1,81,80,73,-1,81,73,72,-1,82,83,84,-1,82,84,85,-1,85,84,86,-1,85,86,87,-1,87,86,88,-1,87,88,89,-1,89,88,90,-1,89,90,91,-1,91,90,92,-1,91,92,93,-1,93,92,94,-1,93,94,95,-1,95,94,96,-1,95,96,97,-1,97,96,77,-1,97,77,76,-1,0,2,98,-1,0,98,99,-1,99,98,100,-1,99,100,101,-1,101,100,102,-1,101,102,103,-1,103,102,104,-1,103,104,105,-1,105,104,106,-1,105,106,107,-1,107,106,108,-1,107,108,109,-1,109,108,110,-1,109,110,111,-1,111,110,83,-1,111,83,82,-1,55,53,57,-1,57,53,44,-1,18,76,41,-1,41,76,79,-1,41,79,39,-1,39,79,81,-1,39,81,37,-1,37,81,72,-1,37,72,35,-1,35,72,75,-1,35,75,32,-1,32,75,70,-1,32,70,42,-1,42,70,60,-1,42,60,52,-1,52,60,63,-1,52,63,50,-1,50,63,65,-1,50,65,46,-1,46,65,67,-1,46,67,44,-1,44,67,59,-1,44,59,57,-1,1,0,9,-1,9,0,99,-1,9,99,7,-1,7,99,101,-1,7,101,4,-1,4,101,103,-1,4,103,17,-1,17,103,105,-1,17,105,15,-1,15,105,107,-1,15,107,13,-1,13,107,109,-1,13,109,10,-1,109,111,10,-1,10,111,82,-1,10,82,31,-1,31,82,85,-1,31,85,29,-1,29,85,87,-1,29,87,27,-1,27,87,89,-1,27,89,25,-1,25,89,91,-1,25,91,23,-1,23,91,93,-1,23,93,21,-1,21,93,95,-1,21,95,18,-1,18,95,97,-1,18,97,76,-1,112,113,114,-1,114,115,112,-1,112,115,116,-1,112,116,117,-1,117,116,118,-1,117,118,119,-1,119,118,120,-1,121,122,123,-1,123,122,124,-1,124,122,125,-1,124,125,126,-1,126,125,127,-1,126,127,128,-1,128,127,129,-1,128,129,130,-1,130,129,131,-1,130,131,132,-1,132,131,133,-1,132,133,134,-1,134,133,135,-1,134,135,136,-1,136,135,137,-1,136,137,138,-1,138,137,139,-1,138,139,140,-1,140,139,141,-1,140,141,142,-1,142,141,143,-1,142,143,144,-1,144,143,145,-1,144,145,146,-1,146,145,147,-1,146,147,148,-1,148,147,149,-1,148,149,150,-1,150,149,151,-1,150,151,152,-1,152,151,153,-1,152,153,154,-1,154,153,155,-1,154,155,120,-1,120,155,156,-1,120,156,119,-1,123,157,121,-1,121,157,158,-1,121,158,159,-1,159,158,160,-1,159,160,161,-1,161,160,162,-1,161,162,163,-1,163,162,164,-1,163,164,165,-1,166,167,168,-1,168,167,169,-1,168,169,170,-1,170,169,171,-1,170,171,172,-1,172,171,173,-1,172,173,174,-1,174,173,175,-1,174,175,176,-1,176,175,177,-1,176,177,178,-1,178,177,179,-1,178,179,180,-1,180,179,181,-1,180,181,182,-1,182,181,183,-1,182,183,184,-1,184,183,185,-1,184,185,186,-1,186,185,187,-1,186,187,188,-1,188,187,189,-1,188,189,190,-1,190,189,191,-1,190,191,192,-1,192,191,193,-1,192,193,194,-1,194,193,195,-1,194,195,112,-1,112,195,165,-1,112,165,113,-1,113,165,164,-1,167,166,196,-1,196,166,197,-1,180,198,199,-1,180,199,178,-1,178,199,200,-1,178,200,176,-1,176,200,201,-1,176,201,174,-1,174,201,202,-1,174,202,172,-1,172,202,203,-1,172,203,170,-1,170,203,204,-1,170,204,168,-1,168,204,197,-1,168,197,166,-1,194,205,206,-1,194,206,192,-1,192,206,207,-1,192,207,190,-1,190,207,208,-1,190,208,188,-1,188,208,209,-1,188,209,186,-1,186,209,210,-1,186,210,184,-1,184,210,211,-1,184,211,182,-1,182,211,198,-1,182,198,180,-1,194,112,205,-1,205,112,212,-1,153,213,214,-1,153,214,155,-1,155,214,215,-1,155,215,156,-1,156,215,216,-1,156,216,119,-1,119,216,217,-1,119,217,117,-1,117,217,212,-1,117,212,112,-1,139,218,219,-1,139,219,141,-1,141,219,220,-1,141,220,143,-1,143,220,221,-1,143,221,145,-1,145,221,222,-1,145,222,147,-1,147,222,223,-1,147,223,149,-1,149,223,224,-1,149,224,151,-1,151,224,213,-1,151,213,153,-1,218,139,137,-1,133,225,226,-1,133,226,135,-1,135,226,227,-1,135,227,137,-1,137,227,228,-1,137,228,218,-1,125,229,230,-1,125,230,127,-1,127,230,231,-1,127,231,129,-1,231,232,129,-1,129,232,233,-1,129,233,131,-1,131,233,225,-1,131,225,133,-1,229,125,234,-1,234,125,122,-1,234,122,235,-1,235,122,121,-1,235,121,236,-1,236,121,159,-1,236,159,237,-1,237,159,161,-1,237,161,238,-1,238,161,239,-1,239,161,163,-1,239,163,240,-1,240,163,165,-1,240,165,241,-1,241,165,195,-1,241,195,242,-1,189,243,244,-1,189,244,191,-1,191,244,245,-1,191,245,193,-1,193,245,242,-1,193,242,195,-1,181,246,247,-1,181,247,183,-1,183,247,248,-1,183,248,185,-1,185,248,249,-1,185,249,187,-1,187,249,243,-1,187,243,189,-1,167,196,250,-1,167,250,169,-1,169,250,251,-1,169,251,171,-1,171,251,252,-1,171,252,173,-1,173,252,253,-1,173,253,175,-1,175,253,254,-1,175,254,177,-1,177,254,255,-1,177,255,179,-1,179,255,246,-1,179,246,181,-1,124,256,257,-1,124,257,123,-1,123,257,258,-1,123,258,157,-1,157,258,259,-1,157,259,158,-1,158,259,260,-1,158,260,160,-1,160,260,261,-1,160,261,162,-1,162,261,262,-1,162,262,164,-1,164,262,263,-1,164,263,113,-1,113,263,264,-1,113,264,114,-1,114,264,265,-1,114,265,115,-1,115,265,266,-1,115,266,116,-1,116,266,267,-1,116,267,118,-1,118,267,268,-1,118,268,120,-1,120,268,269,-1,120,269,154,-1,154,269,270,-1,154,270,152,-1,152,270,271,-1,152,271,150,-1,150,271,272,-1,150,272,148,-1,148,272,273,-1,148,273,146,-1,146,273,274,-1,146,274,144,-1,144,274,275,-1,144,275,142,-1,142,275,276,-1,142,276,140,-1,140,276,277,-1,140,277,138,-1,138,277,278,-1,138,278,136,-1,136,278,279,-1,136,279,134,-1,134,279,280,-1,134,280,132,-1,132,280,281,-1,132,281,130,-1,130,281,282,-1,130,282,128,-1,128,282,283,-1,128,283,126,-1,126,283,256,-1,126,256,124,-1,
        ]
    }
}
Shape{
    appearance Appearance {
        material  Material 	{
            diffuseColor 0.25098039215686274 0.25098039215686274 0.25098039215686274
            specularColor 0.07450980392156863 0.07450980392156863 0.07450980392156863
            ambientIntensity 0.251
            transparency 0.0
            shininess 0.5
        }
    }
    geometry IndexedFaceSet {
        ccw TRUE
        solid FALSE
        coord DEF co Coordinate {
            point [
                0.6167 0.1147 1.7717, 0.6202 0.1415 1.7717, 0.4632 0.1394 1.7717, 0.6177 0.1623 1.7717, 0.4664 0.1636 1.7717, 0.4818 0.0805 1.7717, 0.4931 0.0693 1.7717, 0.5058 0.0616 1.7717, 0.5909 0.0694 1.7717, 0.6016 0.0804 1.7717, 0.6102 0.0948 1.7717, 0.5632 0.2209 1.7717, 0.5428 0.2233 1.7717, 0.5232 0.0558 1.7717, 0.5449 0.0533 1.7717, 0.4664 0.115 1.7717, 0.5616 0.0556 1.7717, 0.577 0.0607 1.7717, 0.6107 0.1839 1.7717, 0.6028 0.197 1.7717, 0.4733 0.0942 1.7717, 0.5925 0.2075 1.7717, 0.5793 0.2156 1.7717, 0.5264 0.2218 1.7717, 0.5062 0.2159 1.7717, 0.4928 0.2079 1.7717, 0.4812 0.1965 1.7717, 0.4728 0.1826 1.7717
            ]
        }
        coordIndex [
            0,1,2,-1,2,1,3,-1,2,3,4,-1,5,6,7,-1,8,9,2,-1,2,9,10,-1,2,10,0,-1,3,11,12,-1,13,14,15,-1,15,14,16,-1,15,16,2,-1,2,16,17,-1,2,17,8,-1,3,18,19,-1,13,15,7,-1,7,15,20,-1,7,20,5,-1,19,21,3,-1,3,21,22,-1,3,22,11,-1,12,23,3,-1,3,23,24,-1,3,24,25,-1,25,26,3,-1,3,26,27,-1,3,27,4,-1,
        ]
    }
}
Shape{
    appearance Appearance {
        material  Material 	{
            diffuseColor 0.45098039215686275 0.43137254901960786 0.4196078431372549
            specularColor 0.03137254901960784 0.03137254901960784 0.03137254901960784
            ambientIntensity 0.6221
            transparency 0.0
            shininess 0.5
        }
    }
    geometry IndexedFaceSet {
        ccw TRUE
        solid FALSE
        coord DEF co Coordinate {
            point [
                0.8143 0.1996 1.7677, 0.8143 0.2405 1.7677, 0.8143 0.1996 1.7717, 0.8143 0.2405 1.7717, 0.8402 0.2405 1.7677, 0.8402 0.2405 1.7717, 0.9133 0.3029 1.7677, 0.9133 0.3029 1.7717, 0.9112 0.2864 1.7717, 0.9112 0.2864 1.7677, 0.9067 0.2735 1.7717, 0.9067 0.2735 1.7677, 0.8998 0.2631 1.7717, 0.8998 0.2631 1.7677, 0.8915 0.2552 1.7717, 0.8915 0.2552 1.7677, 0.8784 0.2477 1.7717, 0.8784 0.2477 1.7677, 0.8588 0.2422 1.7717, 0.8588 0.2422 1.7677, 0.8423 0.3631 1.7677, 0.8423 0.3631 1.7717, 0.8632 0.3607 1.7717, 0.8632 0.3607 1.7677, 0.8789 0.3559 1.7717, 0.8789 0.3559 1.7677, 0.8915 0.3485 1.7717, 0.8915 0.3485 1.7677, 0.9003 0.3399 1.7717, 0.9003 0.3399 1.7677, 0.9068 0.3295 1.7717, 0.9068 0.3295 1.7677, 0.9118 0.314 1.7717, 0.9118 0.314 1.7677, 0.767 0.2814 1.7677, 0.767 0.2814 1.7717, 0.7695 0.3054 1.7717, 0.7695 0.3054 1.7677, 0.7747 0.3231 1.7717, 0.7747 0.3231 1.7677, 0.7824 0.3371 1.7717, 0.7824 0.3371 1.7677, 0.7922 0.3478 1.7717, 0.7922 0.3478 1.7677, 0.804 0.3554 1.7717, 0.804 0.3554 1.7677, 0.8204 0.3609 1.7717, 0.8204 0.3609 1.7677, 0.7197 0.2814 1.7677, 0.7197 0.2814 1.7717, 0.752 0.376 1.7677, 0.752 0.376 1.7717, 0.7359 0.3546 1.7717, 0.7359 0.3546 1.7677, 0.7256 0.3293 1.7717, 0.7256 0.3293 1.7677, 0.7199 0.29 1.7717, 0.7199 0.29 1.7677, 0.8445 0.4083 1.7677, 0.8445 0.4083 1.7717, 0.8044 0.4038 1.7717, 0.8044 0.4038 1.7677, 0.7777 0.394 1.7717, 0.7777 0.394 1.7677, 0.9628 0.3072 1.7677, 0.9628 0.3072 1.7717, 0.9584 0.3344 1.7717, 0.9584 0.3344 1.7677, 0.95 0.3559 1.7717, 0.95 0.3559 1.7677, 0.9383 0.3728 1.7717, 0.9383 0.3728 1.7677, 0.9222 0.3869 1.7717, 0.9222 0.3869 1.7677, 0.9032 0.3969 1.7717, 0.9032 0.3969 1.7677, 0.8705 0.4058 1.7717, 0.8705 0.4058 1.7677, 0.9155 0.2254 1.7677, 0.9155 0.2254 1.7717, 0.9329 0.2358 1.7717, 0.9329 0.2358 1.7677, 0.9451 0.248 1.7717, 0.9451 0.248 1.7677, 0.9542 0.2629 1.7717, 0.9542 0.2629 1.7677, 0.9609 0.2844 1.7717, 0.9609 0.2844 1.7677, 0.9155 0.2233 1.7677, 0.9155 0.2233 1.7717, 0.98 0.1351 1.7677, 0.98 0.1351 1.7717, 0.9778 0.1591 1.7717, 0.9778 0.1591 1.7677, 0.9716 0.1784 1.7717, 0.9716 0.1784 1.7677, 0.9614 0.1949 1.7717, 0.9614 0.1949 1.7677, 0.9478 0.2076 1.7717, 0.9478 0.2076 1.7677, 0.9308 0.2176 1.7717, 0.9308 0.2176 1.7677, 0.9434 0.0469 1.7677, 0.9434 0.0469 1.7717, 0.9619 0.069 1.7717, 0.9619 0.069 1.7677, 0.9673 0.0802 1.7717, 0.9732 0.0924 1.7677, 0.9732 0.0924 1.7717, 0.9791 0.1189 1.7717, 0.9791 0.1189 1.7677, 0.8951 0.0208 1.7677, 0.8402 0.0146 1.7677, 0.8686 0.0178 1.7717, 0.8402 0.0146 1.7717, 0.8951 0.0208 1.7717, 0.9207 0.0305 1.7717, 0.9207 0.0305 1.7677, 0.9411 0.0447 1.7717, 0.9411 0.0447 1.7677, 0.8346 0.0147 1.7677, 0.7692 0.0275 1.7677, 0.7692 0.0275 1.7717, 0.7985 0.0181 1.7717, 0.7985 0.0181 1.7677, 0.8015 0.0178 1.7717, 0.8346 0.0147 1.7717, 0.7111 0.1394 1.7677, 0.7111 0.1394 1.7717, 0.716 0.0981 1.7717, 0.716 0.0981 1.7677, 0.7225 0.0802 1.7717, 0.7272 0.0675 1.7677, 0.7272 0.0675 1.7717, 0.7394 0.0495 1.7717, 0.7394 0.0495 1.7677, 0.7567 0.0345 1.7717, 0.7567 0.0345 1.7677, 0.7606 0.1394 1.7677, 0.7606 0.1394 1.7717, 0.8423 0.0533 1.7677, 0.8423 0.0533 1.7717, 0.8211 0.0551 1.7717, 0.8211 0.0551 1.7677, 0.8041 0.06 1.7717, 0.8041 0.06 1.7677, 0.7908 0.0672 1.7717, 0.7908 0.0672 1.7677, 0.7808 0.0762 1.7717, 0.7808 0.0762 1.7677, 0.778 0.0802 1.7717, 0.7721 0.0886 1.7677, 0.7721 0.0886 1.7717, 0.7647 0.1077 1.7717, 0.7647 0.1077 1.7677, 0.7606 0.1378 1.7717, 0.7606 0.1378 1.7677, 0.9262 0.1286 1.7677, 0.9262 0.1286 1.7717, 0.9232 0.1085 1.7717, 0.9232 0.1085 1.7677, 0.9174 0.093 1.7717, 0.9174 0.093 1.7677, 0.9089 0.0802 1.7717, 0.9089 0.0802 1.7677, 0.9089 0.0802 1.7717, 0.8968 0.0693 1.7717, 0.8968 0.0693 1.7677, 0.8827 0.0616 1.7717, 0.8827 0.0616 1.7677, 0.8585 0.055 1.7717, 0.8585 0.055 1.7677, 0.838 0.1996 1.7677, 0.838 0.1996 1.7717, 0.8651 0.1976 1.7717, 0.8651 0.1976 1.7677, 0.8849 0.1925 1.7717, 0.8849 0.1925 1.7677, 0.9001 0.1848 1.7717, 0.9001 0.1848 1.7677, 0.9103 0.1761 1.7717, 0.9103 0.1761 1.7677, 0.9185 0.1645 1.7717, 0.9185 0.1645 1.7677, 0.9234 0.1516 1.7717, 0.9234 0.1516 1.7677, 0.9261 0.1326 1.7717, 0.9261 0.1326 1.7677, 1.2967 0.1394 1.7677, 1.0192 0.1394 1.7677, 1.2967 0.1394 1.7717, 1.0192 0.1394 1.7717, 1.0192 0.1802 1.7677, 1.0192 0.1802 1.7717, 1.2967 0.1802 1.7677, 1.2967 0.1802 1.7717, 1.3921 0.2684 1.7677, 1.3426 0.2684 1.7677, 1.3921 0.2684 1.7717, 1.3426 0.2684 1.7717, 1.3771 0.3717 1.7677, 1.3771 0.3717 1.7717, 1.3583 0.3437 1.7717, 1.3583 0.3437 1.7677, 1.3468 0.3103 1.7717, 1.3468 0.3103 1.7677, 1.476 0.4083 1.7677, 1.476 0.4083 1.7717, 1.4343 0.4037 1.7717, 1.4343 0.4037 1.7677, 1.4074 0.3942 1.7717, 1.4074 0.3942 1.7677, 1.3872 0.3812 1.7717, 1.3872 0.3812 1.7677, 1.5986 0.2921 1.7677, 1.5986 0.2921 1.7717, 1.5939 0.3239 1.7717, 1.5939 0.3239 1.7677, 1.5848 0.3488 1.7717, 1.5848 0.3488 1.7677, 1.5724 0.3679 1.7717, 1.5724 0.3679 1.7677, 1.5555 0.3837 1.7717, 1.5555 0.3837 1.7677, 1.5348 0.3956 1.7717, 1.5348 0.3956 1.7677, 1.5009 0.4055 1.7717, 1.5009 0.4055 1.7677, 1.4932 0.163 1.7677, 1.4932 0.163 1.7717, 1.5422 0.1906 1.7717, 1.5422 0.1906 1.7677, 1.5737 0.2192 1.7717, 1.5737 0.2192 1.7677, 1.5881 0.2409 1.7717, 1.5881 0.2409 1.7677, 1.5961 0.2628 1.7717, 1.5961 0.2628 1.7677, 1.4523 0.1394 1.7677, 1.4523 0.1394 1.7717, 1.3878 0.0662 1.7677, 1.3878 0.0662 1.7717, 1.3931 0.0837 1.7677, 1.392 0.0802 1.7717, 1.3931 0.0837 1.7717, 1.403 0.0999 1.7717, 1.403 0.0999 1.7677, 1.4232 0.1201 1.7717, 1.4232 0.1201 1.7677, 1.5986 0.0662 1.7677, 1.5986 0.0662 1.7717, 1.5986 0.021 1.7677, 1.5986 0.021 1.7717, 1.334 0.021 1.7677, 1.334 0.021 1.7717, 1.3369 0.053 1.7677, 1.4244 0.1738 1.7677, 1.4244 0.1738 1.7717, 1.3893 0.1498 1.7717, 1.3893 0.1498 1.7677, 1.3643 0.1222 1.7717, 1.3643 0.1222 1.7677, 1.3468 0.0898 1.7717, 1.3468 0.0898 1.7677, 1.3443 0.0802 1.7717, 1.3369 0.053 1.7717, 1.476 0.2039 1.7677, 1.476 0.2039 1.7717, 1.5319 0.2448 1.7677, 1.5319 0.2448 1.7717, 1.5053 0.2226 1.7717, 1.5053 0.2226 1.7677, 1.547 0.2943 1.7677, 1.547 0.2943 1.7717, 1.5434 0.2683 1.7717, 1.5434 0.2683 1.7677, 1.5357 0.2508 1.7717, 1.5357 0.2508 1.7677, 1.4696 0.3631 1.7677, 1.4696 0.3631 1.7717, 1.4923 0.3605 1.7717, 1.4923 0.3605 1.7677, 1.5097 0.3549 1.7717, 1.5097 0.3549 1.7677, 1.5226 0.3472 1.7717, 1.5226 0.3472 1.7677, 1.5283 0.3421 1.7717, 1.5283 0.3421 1.7677, 1.5374 0.33 1.7717, 1.5374 0.33 1.7677, 1.5432 0.3161 1.7717, 1.5432 0.3161 1.7677, 1.547 0.2946 1.7717, 1.547 0.2946 1.7677, 1.395 0.2982 1.7717, 1.395 0.2982 1.7677, 1.4011 0.3196 1.7717, 1.4011 0.3196 1.7677, 1.4092 0.3349 1.7717, 1.4092 0.3349 1.7677, 1.4191 0.3463 1.7717, 1.4191 0.3463 1.7677, 1.4307 0.3545 1.7717, 1.4307 0.3545 1.7677, 1.4445 0.3599 1.7717, 1.4445 0.3599 1.7677, 1.4655 0.363 1.7717, 1.4655 0.363 1.7677, -0.6668 -0.3543 1.7677, -0.6979 -0.3949 1.7717, -0.698 -0.395 1.7677, -0.698 -0.395 1.7717, -0.7177 -0.4425 1.7677, -0.7177 -0.4425 1.7717, -0.7244 -0.4935 1.7677, -0.7244 -0.4935 1.7717, -0.7177 -0.5444 1.7677, -0.7177 -0.5444 1.7717, -0.698 -0.5919 1.7677, -0.698 -0.5919 1.7717, -0.6979 -0.592 1.7717, -0.6668 -0.6327 1.7677, -0.6668 -0.6327 1.7717, -0.626 -0.6639 1.7677, -0.626 -0.6639 1.7717, -0.5785 -0.6836 1.7677, -0.5785 -0.6836 1.7717, -0.5276 -0.6903 1.7677, -0.5276 -0.6903 1.7717, -0.4766 -0.6836 1.7677, -0.4766 -0.6836 1.7717, -0.4291 -0.6639 1.7677, -0.4291 -0.6639 1.7717, -0.3884 -0.6327 1.7677, -0.3884 -0.6327 1.7717, -0.3571 -0.5919 1.7677, -0.3571 -0.5919 1.7717, -0.3374 -0.5444 1.7677, -0.3374 -0.5444 1.7717, -0.3307 -0.4935 1.7677, -0.3307 -0.4935 1.7717, -0.3374 -0.4425 1.7677, -0.3374 -0.4425 1.7717, -0.3571 -0.395 1.7677, -0.3571 -0.395 1.7717, -0.3884 -0.3543 1.7677, -0.3884 -0.3543 1.7717, -0.4291 -0.323 1.7677, -0.4291 -0.323 1.7717, -0.4766 -0.3033 1.7677, -0.4766 -0.3033 1.7717, -0.5276 -0.2966 1.7677, -0.5276 -0.2966 1.7717, -0.5785 -0.3033 1.7677, -0.5785 -0.3033 1.7717, -0.626 -0.323 1.7677, -0.626 -0.323 1.7717, -0.6668 -0.3543 1.7717, -0.5276 -0.4935 1.7677
            ]
        }
        coordIndex [
            0,1,2,-1,2,1,3,-1,1,4,3,-1,3,4,5,-1,6,7,8,-1,6,8,9,-1,9,8,10,-1,9,10,11,-1,11,10,12,-1,11,12,13,-1,13,12,14,-1,13,14,15,-1,15,14,16,-1,15,16,17,-1,17,16,18,-1,17,18,19,-1,19,18,5,-1,19,5,4,-1,20,21,22,-1,20,22,23,-1,23,22,24,-1,23,24,25,-1,25,24,26,-1,25,26,27,-1,27,26,28,-1,27,28,29,-1,29,28,30,-1,29,30,31,-1,31,30,32,-1,31,32,33,-1,33,32,7,-1,33,7,6,-1,34,35,36,-1,34,36,37,-1,37,36,38,-1,37,38,39,-1,39,38,40,-1,39,40,41,-1,41,40,42,-1,41,42,43,-1,43,42,44,-1,43,44,45,-1,45,44,46,-1,45,46,47,-1,47,46,21,-1,47,21,20,-1,34,48,35,-1,35,48,49,-1,50,51,52,-1,50,52,53,-1,53,52,54,-1,53,54,55,-1,55,54,56,-1,55,56,57,-1,57,56,49,-1,57,49,48,-1,58,59,60,-1,58,60,61,-1,61,60,62,-1,61,62,63,-1,63,62,51,-1,63,51,50,-1,64,65,66,-1,64,66,67,-1,67,66,68,-1,67,68,69,-1,69,68,70,-1,69,70,71,-1,71,70,72,-1,71,72,73,-1,73,72,74,-1,73,74,75,-1,75,74,76,-1,75,76,77,-1,77,76,59,-1,77,59,58,-1,78,79,80,-1,78,80,81,-1,81,80,82,-1,81,82,83,-1,83,82,84,-1,83,84,85,-1,85,84,86,-1,85,86,87,-1,87,86,65,-1,87,65,64,-1,78,88,79,-1,79,88,89,-1,90,91,92,-1,90,92,93,-1,93,92,94,-1,93,94,95,-1,95,94,96,-1,95,96,97,-1,97,96,98,-1,97,98,99,-1,99,98,100,-1,99,100,101,-1,101,100,89,-1,101,89,88,-1,102,103,104,-1,102,104,105,-1,105,104,106,-1,105,106,107,-1,106,108,107,-1,107,108,109,-1,107,109,110,-1,110,109,91,-1,110,91,90,-1,111,112,113,-1,113,112,114,-1,113,115,111,-1,111,115,116,-1,111,116,117,-1,117,116,118,-1,117,118,119,-1,119,118,103,-1,119,103,102,-1,114,112,120,-1,121,122,123,-1,121,123,124,-1,124,123,125,-1,124,125,120,-1,120,125,126,-1,120,126,114,-1,127,128,129,-1,127,129,130,-1,130,129,131,-1,130,131,132,-1,131,133,132,-1,132,133,134,-1,132,134,135,-1,135,134,136,-1,135,136,137,-1,137,136,122,-1,137,122,121,-1,127,138,128,-1,128,138,139,-1,140,141,142,-1,140,142,143,-1,143,142,144,-1,143,144,145,-1,145,144,146,-1,145,146,147,-1,147,146,148,-1,147,148,149,-1,149,148,150,-1,149,150,151,-1,150,152,151,-1,151,152,153,-1,151,153,154,-1,154,153,155,-1,154,155,156,-1,156,155,139,-1,156,139,138,-1,157,158,159,-1,157,159,160,-1,160,159,161,-1,160,161,162,-1,162,161,163,-1,162,163,164,-1,163,165,164,-1,164,165,166,-1,164,166,167,-1,167,166,168,-1,167,168,169,-1,169,168,170,-1,169,170,171,-1,171,170,141,-1,171,141,140,-1,172,173,174,-1,172,174,175,-1,175,174,176,-1,175,176,177,-1,177,176,178,-1,177,178,179,-1,179,178,180,-1,179,180,181,-1,181,180,182,-1,181,182,183,-1,183,182,184,-1,183,184,185,-1,185,184,186,-1,185,186,187,-1,187,186,158,-1,187,158,157,-1,172,0,173,-1,173,0,2,-1,149,151,132,-1,167,117,119,-1,132,151,130,-1,130,151,154,-1,130,154,127,-1,127,154,156,-1,127,156,138,-1,9,11,78,-1,78,11,13,-1,78,13,88,-1,1,0,4,-1,4,0,172,-1,4,172,19,-1,19,172,175,-1,19,175,17,-1,17,175,177,-1,17,177,15,-1,13,15,88,-1,88,15,177,-1,88,177,101,-1,101,177,179,-1,101,179,99,-1,99,179,181,-1,99,181,97,-1,97,181,183,-1,97,183,95,-1,95,183,185,-1,167,119,164,-1,164,119,102,-1,164,102,162,-1,162,102,105,-1,162,105,160,-1,160,105,107,-1,160,107,157,-1,157,107,110,-1,157,110,187,-1,187,110,90,-1,187,90,185,-1,185,90,93,-1,185,93,95,-1,6,64,33,-1,33,64,67,-1,33,67,31,-1,31,67,69,-1,31,69,29,-1,29,69,71,-1,29,71,27,-1,27,71,73,-1,27,73,25,-1,25,73,75,-1,25,75,23,-1,23,75,77,-1,23,77,20,-1,20,77,58,-1,20,58,47,-1,47,58,61,-1,47,61,45,-1,45,61,63,-1,45,63,43,-1,43,63,50,-1,43,50,41,-1,41,50,53,-1,41,53,39,-1,39,53,55,-1,39,55,37,-1,37,55,57,-1,37,57,34,-1,34,57,48,-1,9,78,6,-1,6,78,81,-1,6,81,83,-1,83,85,6,-1,6,85,87,-1,6,87,64,-1,117,167,111,-1,111,167,169,-1,111,169,112,-1,132,135,149,-1,149,135,137,-1,149,137,147,-1,147,137,121,-1,147,121,145,-1,145,121,124,-1,145,124,143,-1,143,124,120,-1,143,120,140,-1,140,120,112,-1,140,112,171,-1,171,112,169,-1,188,189,190,-1,190,189,191,-1,189,192,191,-1,191,192,193,-1,192,194,193,-1,193,194,195,-1,194,188,195,-1,195,188,190,-1,194,192,188,-1,188,192,189,-1,196,197,198,-1,198,197,199,-1,200,201,202,-1,200,202,203,-1,203,202,204,-1,203,204,205,-1,205,204,199,-1,205,199,197,-1,206,207,208,-1,206,208,209,-1,209,208,210,-1,209,210,211,-1,211,210,212,-1,211,212,213,-1,213,212,201,-1,213,201,200,-1,214,215,216,-1,214,216,217,-1,217,216,218,-1,217,218,219,-1,219,218,220,-1,219,220,221,-1,221,220,222,-1,221,222,223,-1,223,222,224,-1,223,224,225,-1,225,224,226,-1,225,226,227,-1,227,226,207,-1,227,207,206,-1,228,229,230,-1,228,230,231,-1,231,230,232,-1,231,232,233,-1,233,232,234,-1,233,234,235,-1,235,234,236,-1,235,236,237,-1,237,236,215,-1,237,215,214,-1,228,238,229,-1,229,238,239,-1,240,241,242,-1,242,241,243,-1,243,244,242,-1,242,244,245,-1,242,245,246,-1,246,245,247,-1,246,247,248,-1,248,247,239,-1,248,239,238,-1,240,249,241,-1,241,249,250,-1,249,251,250,-1,250,251,252,-1,251,253,252,-1,252,253,254,-1,254,253,255,-1,256,257,258,-1,256,258,259,-1,259,258,260,-1,259,260,261,-1,261,260,262,-1,261,262,263,-1,263,262,264,-1,263,264,255,-1,255,264,265,-1,255,265,254,-1,256,266,257,-1,257,266,267,-1,268,269,270,-1,268,270,271,-1,271,270,267,-1,271,267,266,-1,272,273,274,-1,272,274,275,-1,275,274,276,-1,275,276,277,-1,277,276,269,-1,277,269,268,-1,278,279,280,-1,278,280,281,-1,281,280,282,-1,281,282,283,-1,283,282,284,-1,283,284,285,-1,285,284,286,-1,285,286,287,-1,287,286,288,-1,287,288,289,-1,289,288,290,-1,289,290,291,-1,291,290,292,-1,291,292,293,-1,293,292,273,-1,293,273,272,-1,196,198,294,-1,196,294,295,-1,295,294,296,-1,295,296,297,-1,297,296,298,-1,297,298,299,-1,299,298,300,-1,299,300,301,-1,301,300,302,-1,301,302,303,-1,303,302,304,-1,303,304,305,-1,305,304,306,-1,305,306,307,-1,307,306,279,-1,307,279,278,-1,251,249,253,-1,253,249,240,-1,214,272,237,-1,237,272,275,-1,237,275,235,-1,235,275,277,-1,235,277,233,-1,233,277,268,-1,233,268,231,-1,231,268,271,-1,231,271,228,-1,228,271,266,-1,228,266,238,-1,238,266,256,-1,238,256,248,-1,248,256,259,-1,248,259,246,-1,246,259,261,-1,246,261,242,-1,242,261,263,-1,242,263,240,-1,240,263,255,-1,240,255,253,-1,197,196,205,-1,205,196,295,-1,205,295,203,-1,203,295,297,-1,203,297,200,-1,200,297,299,-1,200,299,213,-1,213,299,301,-1,213,301,211,-1,211,301,303,-1,211,303,209,-1,209,303,305,-1,209,305,206,-1,305,307,206,-1,206,307,278,-1,206,278,227,-1,227,278,281,-1,227,281,225,-1,225,281,283,-1,225,283,223,-1,223,283,285,-1,223,285,221,-1,221,285,287,-1,221,287,219,-1,219,287,289,-1,219,289,217,-1,217,289,291,-1,217,291,214,-1,214,291,293,-1,214,293,272,-1,308,309,310,-1,310,309,311,-1,310,311,312,-1,312,311,313,-1,312,313,314,-1,314,313,315,-1,314,315,316,-1,316,315,317,-1,316,317,318,-1,317,319,318,-1,318,319,320,-1,318,320,321,-1,321,320,322,-1,321,322,323,-1,323,322,324,-1,323,324,325,-1,325,324,326,-1,325,326,327,-1,327,326,328,-1,327,328,329,-1,329,328,330,-1,329,330,331,-1,331,330,332,-1,331,332,333,-1,333,332,334,-1,333,334,335,-1,335,334,336,-1,335,336,337,-1,337,336,338,-1,337,338,339,-1,339,338,340,-1,339,340,341,-1,341,340,342,-1,341,342,343,-1,343,342,344,-1,343,344,345,-1,345,344,346,-1,345,346,347,-1,347,346,348,-1,347,348,349,-1,349,348,350,-1,349,350,351,-1,351,350,352,-1,351,352,353,-1,353,352,354,-1,353,354,355,-1,355,354,356,-1,355,356,308,-1,308,356,357,-1,308,357,309,-1,335,337,358,-1,358,337,339,-1,358,339,341,-1,329,331,358,-1,358,331,333,-1,358,333,335,-1,323,325,358,-1,358,325,327,-1,358,327,329,-1,316,318,358,-1,358,318,321,-1,358,321,323,-1,310,312,358,-1,358,312,314,-1,358,314,316,-1,353,355,358,-1,358,355,308,-1,358,308,310,-1,347,349,358,-1,358,349,351,-1,358,351,353,-1,341,343,358,-1,358,343,345,-1,358,345,347,-1,
        ]
    }
}
Shape{
    appearance Appearance {
        material  Material 	{
            diffuseColor 0.7686274509803922 0.7686274509803922 0.7686274509803922
            specularColor 0.615686274509804 0.615686274509804 0.615686274509804
            ambientIntensity 0.7686
            transparency 0.0
            shininess 0.5
        }
    }
    geometry IndexedFaceSet {
        ccw TRUE
        solid FALSE
        coord DEF co Coordinate {
            point [
                0.6496 -1.4974 1.1811, 0.6496 -1.4974 1.0236, 0.6496 -0.9069 1.1811, 0.6496 -0.9069 1.0236, 0.2953 -1.4974 1.1811, 0.2953 -0.9069 1.1811, 0.2953 -1.4974 1.0236, 0.2953 -0.9069 1.0236
            ]
        }
        coordIndex [
            0,1,2,-1,2,1,3,-1,4,0,5,-1,5,0,2,-1,6,4,7,-1,7,4,5,-1,1,6,3,-1,3,6,7,-1,4,6,0,-1,0,6,1,-1,
        ]
    }
}