%TF.GenerationSoftware,KiCad,Pcbnew,10.0.6-10.0.6~ubuntu26.04.1*%
%TF.CreationDate,2026-09-24T10:34:53-04:00*%
%TF.ProjectId,pd-trigger-lite-dip,70642d74-7269-4676-9765-722d6c697465,rev?*%
%TF.SameCoordinates,Original*%
%TF.FileFunction,Paste,Top*%
%TF.FilePolarity,Positive*%
%FSLAX46Y46*%
G04 Gerber Fmt 4.6, Leading zero omitted, Abs format (unit mm)*
G04 Created by KiCad (PCBNEW 10.0.6-10.0.6~ubuntu26.04.1) date 2026-09-24 10:34:53*
%MOMM*%
%LPD*%
G01*
G04 APERTURE LIST*
%ADD10R,1.500000X0.600000*%
%ADD11R,2.100000X3.300000*%
%ADD12R,0.806000X0.864000*%
%ADD13R,0.800000X0.800000*%
%ADD14R,1.300000X0.700000*%
%ADD15R,1.300000X0.800000*%
%ADD16R,0.900000X0.800000*%
%ADD17R,1.270000X0.760000*%
%ADD18R,0.864000X0.806000*%
G04 APERTURE END LIST*
D10*
%TO.C,U1*%
X33290000Y-46167000D03*
X33290000Y-45167000D03*
X33290000Y-44167000D03*
X33290000Y-43167000D03*
X33290000Y-42167000D03*
X27290000Y-42167000D03*
X27290000Y-43167000D03*
X27290000Y-44167000D03*
X27290000Y-45167000D03*
X27290000Y-46167000D03*
D11*
X30290000Y-44167000D03*
%TD*%
D12*
%TO.C,R4*%
X41340000Y-28217000D03*
X39840000Y-28217000D03*
%TD*%
%TO.C,R1*%
X41340000Y-33617000D03*
X39840000Y-33617000D03*
%TD*%
%TO.C,R5*%
X41340000Y-35417000D03*
X39840000Y-35417000D03*
%TD*%
D13*
%TO.C,D1*%
X39540000Y-43117000D03*
X41040000Y-43117000D03*
%TD*%
D14*
%TO.C,J1*%
X24190000Y-38817000D03*
D15*
X24190000Y-40817000D03*
X24190000Y-42017000D03*
D14*
X24190000Y-39817000D03*
D15*
X24190000Y-37817000D03*
X24190000Y-36617000D03*
%TD*%
D12*
%TO.C,R2*%
X41340000Y-31817000D03*
X39840000Y-31817000D03*
%TD*%
%TO.C,R3*%
X41340000Y-30017000D03*
X39840000Y-30017000D03*
%TD*%
%TO.C,R6*%
X36740000Y-43117000D03*
X38240000Y-43117000D03*
%TD*%
D16*
%TO.C,C1*%
X35090000Y-44417000D03*
X35090000Y-45817000D03*
%TD*%
D17*
%TO.C,SW1*%
X38000000Y-34357000D03*
X38000000Y-33087000D03*
X38000000Y-31817000D03*
X38000000Y-30547000D03*
X38000000Y-29277000D03*
X30380000Y-29277000D03*
X30380000Y-30547000D03*
X30380000Y-31817000D03*
X30380000Y-33087000D03*
X30380000Y-34357000D03*
%TD*%
D18*
%TO.C,R7*%
X35090000Y-41617000D03*
X35090000Y-43117000D03*
%TD*%
M02*
