%TF.GenerationSoftware,KiCad,Pcbnew,10.0.6-10.0.6~ubuntu26.04.1*%
%TF.CreationDate,2026-09-24T10:34:53-04:00*%
%TF.ProjectId,pd-trigger-lite-dip,70642d74-7269-4676-9765-722d6c697465,rev?*%
%TF.SameCoordinates,Original*%
%TF.FileFunction,Legend,Top*%
%TF.FilePolarity,Positive*%
%FSLAX46Y46*%
G04 Gerber Fmt 4.6, Leading zero omitted, Abs format (unit mm)*
G04 Created by KiCad (PCBNEW 10.0.6-10.0.6~ubuntu26.04.1) date 2026-09-24 10:34:53*
%MOMM*%
%LPD*%
G01*
G04 APERTURE LIST*
%ADD10C,0.150000*%
%ADD11C,0.200000*%
%ADD12C,0.250000*%
%ADD13C,0.000000*%
G04 APERTURE END LIST*
D10*
X19985238Y-45879295D02*
X19985238Y-45079295D01*
X19985238Y-45079295D02*
X20290000Y-45079295D01*
X20290000Y-45079295D02*
X20366190Y-45117390D01*
X20366190Y-45117390D02*
X20404285Y-45155485D01*
X20404285Y-45155485D02*
X20442381Y-45231676D01*
X20442381Y-45231676D02*
X20442381Y-45345961D01*
X20442381Y-45345961D02*
X20404285Y-45422152D01*
X20404285Y-45422152D02*
X20366190Y-45460247D01*
X20366190Y-45460247D02*
X20290000Y-45498342D01*
X20290000Y-45498342D02*
X19985238Y-45498342D01*
X20785238Y-45879295D02*
X20785238Y-45079295D01*
X20785238Y-45079295D02*
X20975714Y-45079295D01*
X20975714Y-45079295D02*
X21090000Y-45117390D01*
X21090000Y-45117390D02*
X21166190Y-45193580D01*
X21166190Y-45193580D02*
X21204285Y-45269771D01*
X21204285Y-45269771D02*
X21242381Y-45422152D01*
X21242381Y-45422152D02*
X21242381Y-45536438D01*
X21242381Y-45536438D02*
X21204285Y-45688819D01*
X21204285Y-45688819D02*
X21166190Y-45765009D01*
X21166190Y-45765009D02*
X21090000Y-45841200D01*
X21090000Y-45841200D02*
X20975714Y-45879295D01*
X20975714Y-45879295D02*
X20785238Y-45879295D01*
X22194762Y-45879295D02*
X22194762Y-45079295D01*
X22194762Y-45079295D02*
X22385238Y-45079295D01*
X22385238Y-45079295D02*
X22499524Y-45117390D01*
X22499524Y-45117390D02*
X22575714Y-45193580D01*
X22575714Y-45193580D02*
X22613809Y-45269771D01*
X22613809Y-45269771D02*
X22651905Y-45422152D01*
X22651905Y-45422152D02*
X22651905Y-45536438D01*
X22651905Y-45536438D02*
X22613809Y-45688819D01*
X22613809Y-45688819D02*
X22575714Y-45765009D01*
X22575714Y-45765009D02*
X22499524Y-45841200D01*
X22499524Y-45841200D02*
X22385238Y-45879295D01*
X22385238Y-45879295D02*
X22194762Y-45879295D01*
X22994762Y-45879295D02*
X22994762Y-45079295D01*
X23375714Y-45879295D02*
X23375714Y-45079295D01*
X23375714Y-45079295D02*
X23680476Y-45079295D01*
X23680476Y-45079295D02*
X23756666Y-45117390D01*
X23756666Y-45117390D02*
X23794761Y-45155485D01*
X23794761Y-45155485D02*
X23832857Y-45231676D01*
X23832857Y-45231676D02*
X23832857Y-45345961D01*
X23832857Y-45345961D02*
X23794761Y-45422152D01*
X23794761Y-45422152D02*
X23756666Y-45460247D01*
X23756666Y-45460247D02*
X23680476Y-45498342D01*
X23680476Y-45498342D02*
X23375714Y-45498342D01*
X28080475Y-28915485D02*
X28118571Y-28877390D01*
X28118571Y-28877390D02*
X28194761Y-28839295D01*
X28194761Y-28839295D02*
X28385237Y-28839295D01*
X28385237Y-28839295D02*
X28461428Y-28877390D01*
X28461428Y-28877390D02*
X28499523Y-28915485D01*
X28499523Y-28915485D02*
X28537618Y-28991676D01*
X28537618Y-28991676D02*
X28537618Y-29067866D01*
X28537618Y-29067866D02*
X28499523Y-29182152D01*
X28499523Y-29182152D02*
X28042380Y-29639295D01*
X28042380Y-29639295D02*
X28537618Y-29639295D01*
X29032857Y-28839295D02*
X29109047Y-28839295D01*
X29109047Y-28839295D02*
X29185238Y-28877390D01*
X29185238Y-28877390D02*
X29223333Y-28915485D01*
X29223333Y-28915485D02*
X29261428Y-28991676D01*
X29261428Y-28991676D02*
X29299523Y-29144057D01*
X29299523Y-29144057D02*
X29299523Y-29334533D01*
X29299523Y-29334533D02*
X29261428Y-29486914D01*
X29261428Y-29486914D02*
X29223333Y-29563104D01*
X29223333Y-29563104D02*
X29185238Y-29601200D01*
X29185238Y-29601200D02*
X29109047Y-29639295D01*
X29109047Y-29639295D02*
X29032857Y-29639295D01*
X29032857Y-29639295D02*
X28956666Y-29601200D01*
X28956666Y-29601200D02*
X28918571Y-29563104D01*
X28918571Y-29563104D02*
X28880476Y-29486914D01*
X28880476Y-29486914D02*
X28842380Y-29334533D01*
X28842380Y-29334533D02*
X28842380Y-29144057D01*
X28842380Y-29144057D02*
X28880476Y-28991676D01*
X28880476Y-28991676D02*
X28918571Y-28915485D01*
X28918571Y-28915485D02*
X28956666Y-28877390D01*
X28956666Y-28877390D02*
X29032857Y-28839295D01*
X28537618Y-30909295D02*
X28080475Y-30909295D01*
X28309047Y-30909295D02*
X28309047Y-30109295D01*
X28309047Y-30109295D02*
X28232856Y-30223580D01*
X28232856Y-30223580D02*
X28156666Y-30299771D01*
X28156666Y-30299771D02*
X28080475Y-30337866D01*
X29261428Y-30109295D02*
X28880476Y-30109295D01*
X28880476Y-30109295D02*
X28842380Y-30490247D01*
X28842380Y-30490247D02*
X28880476Y-30452152D01*
X28880476Y-30452152D02*
X28956666Y-30414057D01*
X28956666Y-30414057D02*
X29147142Y-30414057D01*
X29147142Y-30414057D02*
X29223333Y-30452152D01*
X29223333Y-30452152D02*
X29261428Y-30490247D01*
X29261428Y-30490247D02*
X29299523Y-30566438D01*
X29299523Y-30566438D02*
X29299523Y-30756914D01*
X29299523Y-30756914D02*
X29261428Y-30833104D01*
X29261428Y-30833104D02*
X29223333Y-30871200D01*
X29223333Y-30871200D02*
X29147142Y-30909295D01*
X29147142Y-30909295D02*
X28956666Y-30909295D01*
X28956666Y-30909295D02*
X28880476Y-30871200D01*
X28880476Y-30871200D02*
X28842380Y-30833104D01*
X28537618Y-32179295D02*
X28080475Y-32179295D01*
X28309047Y-32179295D02*
X28309047Y-31379295D01*
X28309047Y-31379295D02*
X28232856Y-31493580D01*
X28232856Y-31493580D02*
X28156666Y-31569771D01*
X28156666Y-31569771D02*
X28080475Y-31607866D01*
X28842380Y-31455485D02*
X28880476Y-31417390D01*
X28880476Y-31417390D02*
X28956666Y-31379295D01*
X28956666Y-31379295D02*
X29147142Y-31379295D01*
X29147142Y-31379295D02*
X29223333Y-31417390D01*
X29223333Y-31417390D02*
X29261428Y-31455485D01*
X29261428Y-31455485D02*
X29299523Y-31531676D01*
X29299523Y-31531676D02*
X29299523Y-31607866D01*
X29299523Y-31607866D02*
X29261428Y-31722152D01*
X29261428Y-31722152D02*
X28804285Y-32179295D01*
X28804285Y-32179295D02*
X29299523Y-32179295D01*
X28537619Y-33449295D02*
X28690000Y-33449295D01*
X28690000Y-33449295D02*
X28766190Y-33411200D01*
X28766190Y-33411200D02*
X28804286Y-33373104D01*
X28804286Y-33373104D02*
X28880476Y-33258819D01*
X28880476Y-33258819D02*
X28918571Y-33106438D01*
X28918571Y-33106438D02*
X28918571Y-32801676D01*
X28918571Y-32801676D02*
X28880476Y-32725485D01*
X28880476Y-32725485D02*
X28842381Y-32687390D01*
X28842381Y-32687390D02*
X28766190Y-32649295D01*
X28766190Y-32649295D02*
X28613809Y-32649295D01*
X28613809Y-32649295D02*
X28537619Y-32687390D01*
X28537619Y-32687390D02*
X28499524Y-32725485D01*
X28499524Y-32725485D02*
X28461428Y-32801676D01*
X28461428Y-32801676D02*
X28461428Y-32992152D01*
X28461428Y-32992152D02*
X28499524Y-33068342D01*
X28499524Y-33068342D02*
X28537619Y-33106438D01*
X28537619Y-33106438D02*
X28613809Y-33144533D01*
X28613809Y-33144533D02*
X28766190Y-33144533D01*
X28766190Y-33144533D02*
X28842381Y-33106438D01*
X28842381Y-33106438D02*
X28880476Y-33068342D01*
X28880476Y-33068342D02*
X28918571Y-32992152D01*
X28880476Y-33919295D02*
X28499524Y-33919295D01*
X28499524Y-33919295D02*
X28461428Y-34300247D01*
X28461428Y-34300247D02*
X28499524Y-34262152D01*
X28499524Y-34262152D02*
X28575714Y-34224057D01*
X28575714Y-34224057D02*
X28766190Y-34224057D01*
X28766190Y-34224057D02*
X28842381Y-34262152D01*
X28842381Y-34262152D02*
X28880476Y-34300247D01*
X28880476Y-34300247D02*
X28918571Y-34376438D01*
X28918571Y-34376438D02*
X28918571Y-34566914D01*
X28918571Y-34566914D02*
X28880476Y-34643104D01*
X28880476Y-34643104D02*
X28842381Y-34681200D01*
X28842381Y-34681200D02*
X28766190Y-34719295D01*
X28766190Y-34719295D02*
X28575714Y-34719295D01*
X28575714Y-34719295D02*
X28499524Y-34681200D01*
X28499524Y-34681200D02*
X28461428Y-34643104D01*
X28423333Y-35129295D02*
X28690000Y-35929295D01*
X28690000Y-35929295D02*
X28956666Y-35129295D01*
X30456667Y-26595961D02*
X29847143Y-26824533D01*
X29847143Y-26824533D02*
X30456667Y-27053104D01*
X30990000Y-26329295D02*
X31142381Y-26329295D01*
X31142381Y-26329295D02*
X31218571Y-26367390D01*
X31218571Y-26367390D02*
X31294762Y-26443580D01*
X31294762Y-26443580D02*
X31332857Y-26595961D01*
X31332857Y-26595961D02*
X31332857Y-26862628D01*
X31332857Y-26862628D02*
X31294762Y-27015009D01*
X31294762Y-27015009D02*
X31218571Y-27091200D01*
X31218571Y-27091200D02*
X31142381Y-27129295D01*
X31142381Y-27129295D02*
X30990000Y-27129295D01*
X30990000Y-27129295D02*
X30913809Y-27091200D01*
X30913809Y-27091200D02*
X30837619Y-27015009D01*
X30837619Y-27015009D02*
X30799523Y-26862628D01*
X30799523Y-26862628D02*
X30799523Y-26595961D01*
X30799523Y-26595961D02*
X30837619Y-26443580D01*
X30837619Y-26443580D02*
X30913809Y-26367390D01*
X30913809Y-26367390D02*
X30990000Y-26329295D01*
X31675714Y-27129295D02*
X31675714Y-26329295D01*
X31675714Y-26329295D02*
X32132857Y-27129295D01*
X32132857Y-27129295D02*
X32132857Y-26329295D01*
D11*
X38309048Y-38188266D02*
X39070953Y-38188266D01*
X38690000Y-38569219D02*
X38690000Y-37807314D01*
X38309048Y-40728266D02*
X39070953Y-40728266D01*
D10*
X29528095Y-40146819D02*
X29528095Y-40956342D01*
X29528095Y-40956342D02*
X29575714Y-41051580D01*
X29575714Y-41051580D02*
X29623333Y-41099200D01*
X29623333Y-41099200D02*
X29718571Y-41146819D01*
X29718571Y-41146819D02*
X29909047Y-41146819D01*
X29909047Y-41146819D02*
X30004285Y-41099200D01*
X30004285Y-41099200D02*
X30051904Y-41051580D01*
X30051904Y-41051580D02*
X30099523Y-40956342D01*
X30099523Y-40956342D02*
X30099523Y-40146819D01*
X31099523Y-41146819D02*
X30528095Y-41146819D01*
X30813809Y-41146819D02*
X30813809Y-40146819D01*
X30813809Y-40146819D02*
X30718571Y-40289676D01*
X30718571Y-40289676D02*
X30623333Y-40384914D01*
X30623333Y-40384914D02*
X30528095Y-40432533D01*
X36499819Y-39725333D02*
X37214104Y-39725333D01*
X37214104Y-39725333D02*
X37356961Y-39772952D01*
X37356961Y-39772952D02*
X37452200Y-39868190D01*
X37452200Y-39868190D02*
X37499819Y-40011047D01*
X37499819Y-40011047D02*
X37499819Y-40106285D01*
X36595057Y-39296761D02*
X36547438Y-39249142D01*
X36547438Y-39249142D02*
X36499819Y-39153904D01*
X36499819Y-39153904D02*
X36499819Y-38915809D01*
X36499819Y-38915809D02*
X36547438Y-38820571D01*
X36547438Y-38820571D02*
X36595057Y-38772952D01*
X36595057Y-38772952D02*
X36690295Y-38725333D01*
X36690295Y-38725333D02*
X36785533Y-38725333D01*
X36785533Y-38725333D02*
X36928390Y-38772952D01*
X36928390Y-38772952D02*
X37499819Y-39344380D01*
X37499819Y-39344380D02*
X37499819Y-38725333D01*
X40051905Y-45396819D02*
X40051905Y-44396819D01*
X40051905Y-44396819D02*
X40290000Y-44396819D01*
X40290000Y-44396819D02*
X40432857Y-44444438D01*
X40432857Y-44444438D02*
X40528095Y-44539676D01*
X40528095Y-44539676D02*
X40575714Y-44634914D01*
X40575714Y-44634914D02*
X40623333Y-44825390D01*
X40623333Y-44825390D02*
X40623333Y-44968247D01*
X40623333Y-44968247D02*
X40575714Y-45158723D01*
X40575714Y-45158723D02*
X40528095Y-45253961D01*
X40528095Y-45253961D02*
X40432857Y-45349200D01*
X40432857Y-45349200D02*
X40290000Y-45396819D01*
X40290000Y-45396819D02*
X40051905Y-45396819D01*
X41575714Y-45396819D02*
X41004286Y-45396819D01*
X41290000Y-45396819D02*
X41290000Y-44396819D01*
X41290000Y-44396819D02*
X41194762Y-44539676D01*
X41194762Y-44539676D02*
X41099524Y-44634914D01*
X41099524Y-44634914D02*
X41004286Y-44682533D01*
X21131666Y-32926819D02*
X21131666Y-33641104D01*
X21131666Y-33641104D02*
X21084047Y-33783961D01*
X21084047Y-33783961D02*
X20988809Y-33879200D01*
X20988809Y-33879200D02*
X20845952Y-33926819D01*
X20845952Y-33926819D02*
X20750714Y-33926819D01*
X22131666Y-33926819D02*
X21560238Y-33926819D01*
X21845952Y-33926819D02*
X21845952Y-32926819D01*
X21845952Y-32926819D02*
X21750714Y-33069676D01*
X21750714Y-33069676D02*
X21655476Y-33164914D01*
X21655476Y-33164914D02*
X21560238Y-33212533D01*
X38323333Y-45428819D02*
X37990000Y-44952628D01*
X37751905Y-45428819D02*
X37751905Y-44428819D01*
X37751905Y-44428819D02*
X38132857Y-44428819D01*
X38132857Y-44428819D02*
X38228095Y-44476438D01*
X38228095Y-44476438D02*
X38275714Y-44524057D01*
X38275714Y-44524057D02*
X38323333Y-44619295D01*
X38323333Y-44619295D02*
X38323333Y-44762152D01*
X38323333Y-44762152D02*
X38275714Y-44857390D01*
X38275714Y-44857390D02*
X38228095Y-44905009D01*
X38228095Y-44905009D02*
X38132857Y-44952628D01*
X38132857Y-44952628D02*
X37751905Y-44952628D01*
X39180476Y-44428819D02*
X38990000Y-44428819D01*
X38990000Y-44428819D02*
X38894762Y-44476438D01*
X38894762Y-44476438D02*
X38847143Y-44524057D01*
X38847143Y-44524057D02*
X38751905Y-44666914D01*
X38751905Y-44666914D02*
X38704286Y-44857390D01*
X38704286Y-44857390D02*
X38704286Y-45238342D01*
X38704286Y-45238342D02*
X38751905Y-45333580D01*
X38751905Y-45333580D02*
X38799524Y-45381200D01*
X38799524Y-45381200D02*
X38894762Y-45428819D01*
X38894762Y-45428819D02*
X39085238Y-45428819D01*
X39085238Y-45428819D02*
X39180476Y-45381200D01*
X39180476Y-45381200D02*
X39228095Y-45333580D01*
X39228095Y-45333580D02*
X39275714Y-45238342D01*
X39275714Y-45238342D02*
X39275714Y-45000247D01*
X39275714Y-45000247D02*
X39228095Y-44905009D01*
X39228095Y-44905009D02*
X39180476Y-44857390D01*
X39180476Y-44857390D02*
X39085238Y-44809771D01*
X39085238Y-44809771D02*
X38894762Y-44809771D01*
X38894762Y-44809771D02*
X38799524Y-44857390D01*
X38799524Y-44857390D02*
X38751905Y-44905009D01*
X38751905Y-44905009D02*
X38704286Y-45000247D01*
X36824580Y-45283666D02*
X36872200Y-45331285D01*
X36872200Y-45331285D02*
X36919819Y-45474142D01*
X36919819Y-45474142D02*
X36919819Y-45569380D01*
X36919819Y-45569380D02*
X36872200Y-45712237D01*
X36872200Y-45712237D02*
X36776961Y-45807475D01*
X36776961Y-45807475D02*
X36681723Y-45855094D01*
X36681723Y-45855094D02*
X36491247Y-45902713D01*
X36491247Y-45902713D02*
X36348390Y-45902713D01*
X36348390Y-45902713D02*
X36157914Y-45855094D01*
X36157914Y-45855094D02*
X36062676Y-45807475D01*
X36062676Y-45807475D02*
X35967438Y-45712237D01*
X35967438Y-45712237D02*
X35919819Y-45569380D01*
X35919819Y-45569380D02*
X35919819Y-45474142D01*
X35919819Y-45474142D02*
X35967438Y-45331285D01*
X35967438Y-45331285D02*
X36015057Y-45283666D01*
X36919819Y-44331285D02*
X36919819Y-44902713D01*
X36919819Y-44616999D02*
X35919819Y-44616999D01*
X35919819Y-44616999D02*
X36062676Y-44712237D01*
X36062676Y-44712237D02*
X36157914Y-44807475D01*
X36157914Y-44807475D02*
X36205533Y-44902713D01*
X32856667Y-26999200D02*
X32999524Y-27046819D01*
X32999524Y-27046819D02*
X33237619Y-27046819D01*
X33237619Y-27046819D02*
X33332857Y-26999200D01*
X33332857Y-26999200D02*
X33380476Y-26951580D01*
X33380476Y-26951580D02*
X33428095Y-26856342D01*
X33428095Y-26856342D02*
X33428095Y-26761104D01*
X33428095Y-26761104D02*
X33380476Y-26665866D01*
X33380476Y-26665866D02*
X33332857Y-26618247D01*
X33332857Y-26618247D02*
X33237619Y-26570628D01*
X33237619Y-26570628D02*
X33047143Y-26523009D01*
X33047143Y-26523009D02*
X32951905Y-26475390D01*
X32951905Y-26475390D02*
X32904286Y-26427771D01*
X32904286Y-26427771D02*
X32856667Y-26332533D01*
X32856667Y-26332533D02*
X32856667Y-26237295D01*
X32856667Y-26237295D02*
X32904286Y-26142057D01*
X32904286Y-26142057D02*
X32951905Y-26094438D01*
X32951905Y-26094438D02*
X33047143Y-26046819D01*
X33047143Y-26046819D02*
X33285238Y-26046819D01*
X33285238Y-26046819D02*
X33428095Y-26094438D01*
X33761429Y-26046819D02*
X33999524Y-27046819D01*
X33999524Y-27046819D02*
X34190000Y-26332533D01*
X34190000Y-26332533D02*
X34380476Y-27046819D01*
X34380476Y-27046819D02*
X34618572Y-26046819D01*
X35523333Y-27046819D02*
X34951905Y-27046819D01*
X35237619Y-27046819D02*
X35237619Y-26046819D01*
X35237619Y-26046819D02*
X35142381Y-26189676D01*
X35142381Y-26189676D02*
X35047143Y-26284914D01*
X35047143Y-26284914D02*
X34951905Y-26332533D01*
X34923333Y-40743819D02*
X34590000Y-40267628D01*
X34351905Y-40743819D02*
X34351905Y-39743819D01*
X34351905Y-39743819D02*
X34732857Y-39743819D01*
X34732857Y-39743819D02*
X34828095Y-39791438D01*
X34828095Y-39791438D02*
X34875714Y-39839057D01*
X34875714Y-39839057D02*
X34923333Y-39934295D01*
X34923333Y-39934295D02*
X34923333Y-40077152D01*
X34923333Y-40077152D02*
X34875714Y-40172390D01*
X34875714Y-40172390D02*
X34828095Y-40220009D01*
X34828095Y-40220009D02*
X34732857Y-40267628D01*
X34732857Y-40267628D02*
X34351905Y-40267628D01*
X35256667Y-39743819D02*
X35923333Y-39743819D01*
X35923333Y-39743819D02*
X35494762Y-40743819D01*
%TO.C,U1*%
X28340000Y-46667000D02*
X28340000Y-41667000D01*
X29470000Y-46667000D02*
X28340000Y-46667000D01*
X29710000Y-46667000D02*
X29470000Y-46667000D01*
X29750000Y-46627000D02*
X29710000Y-46667000D01*
X30770000Y-46667000D02*
X30770000Y-46567000D01*
X32240000Y-41667000D02*
X28340000Y-41667000D01*
X32240000Y-46667000D02*
X30770000Y-46667000D01*
X32240000Y-46667000D02*
X32240000Y-41667000D01*
X29750000Y-46627000D02*
G75*
G02*
X30298478Y-46087751I500000J40000D01*
G01*
X30290000Y-46087000D02*
G75*
G02*
X30770000Y-46567000I-1J-480001D01*
G01*
X31890000Y-46267000D02*
G75*
G02*
X31590000Y-46267000I-150000J0D01*
G01*
X31590000Y-46267000D02*
G75*
G02*
X31890000Y-46267000I150000J0D01*
G01*
%TO.C,D1*%
D12*
X38820000Y-42417000D02*
X40090000Y-42417000D01*
X38820000Y-43817000D02*
X38820000Y-42417000D01*
X40090000Y-43817000D02*
X38820000Y-43817000D01*
D10*
X40200000Y-43117000D02*
X40410000Y-43117000D01*
X40200000Y-43517000D02*
X40200000Y-42737000D01*
D12*
X40590000Y-43817000D02*
X41690000Y-43817000D01*
X41690000Y-42417000D02*
X40590000Y-42417000D01*
X41690000Y-43817000D02*
X41990000Y-43517000D01*
X41990000Y-42717000D02*
X41690000Y-42417000D01*
X41990000Y-43517000D02*
X41990000Y-42717000D01*
%TO.C,J1*%
D10*
X21390000Y-43917000D02*
X22850000Y-43917000D01*
D12*
X21440000Y-34717000D02*
X22820000Y-34717000D01*
%TO.C,SW1*%
X31490000Y-27817000D02*
X36890000Y-27817000D01*
X31490000Y-35817000D02*
X31490000Y-27817000D01*
X32490000Y-28937000D02*
X35790000Y-28937000D01*
X32490000Y-29637000D02*
X32490000Y-28937000D01*
X32490000Y-30207000D02*
X35790000Y-30207000D01*
X32490000Y-30907000D02*
X32490000Y-30207000D01*
X32490000Y-31477000D02*
X35790000Y-31477000D01*
X32490000Y-32177000D02*
X32490000Y-31477000D01*
X32490000Y-32747000D02*
X35790000Y-32747000D01*
X32490000Y-33447000D02*
X32490000Y-32747000D01*
X32490000Y-34017000D02*
X35790000Y-34017000D01*
X32490000Y-34717000D02*
X32490000Y-34017000D01*
X35790000Y-28937000D02*
X35790000Y-29637000D01*
X35790000Y-29637000D02*
X32490000Y-29637000D01*
X35790000Y-30207000D02*
X35790000Y-30907000D01*
X35790000Y-30907000D02*
X32490000Y-30907000D01*
X35790000Y-31477000D02*
X35790000Y-32177000D01*
X35790000Y-32177000D02*
X32490000Y-32177000D01*
X35790000Y-32747000D02*
X35790000Y-33447000D01*
X35790000Y-33447000D02*
X32490000Y-33447000D01*
X35790000Y-34017000D02*
X35790000Y-34717000D01*
X35790000Y-34717000D02*
X32490000Y-34717000D01*
X36890000Y-27817000D02*
X36890000Y-35817000D01*
X36890000Y-35817000D02*
X31490000Y-35817000D01*
D10*
X38390000Y-35777000D02*
G75*
G02*
X38330000Y-35777000I-30000J0D01*
G01*
X38330000Y-35777000D02*
G75*
G02*
X38390000Y-35777000I30000J0D01*
G01*
D13*
G36*
X35589997Y-29436995D02*
G01*
X34589999Y-29436995D01*
X34589999Y-29136995D01*
X35589997Y-29136995D01*
X35589997Y-29436995D01*
G37*
G36*
X35589997Y-30706995D02*
G01*
X34589999Y-30706995D01*
X34589999Y-30406995D01*
X35589997Y-30406995D01*
X35589997Y-30706995D01*
G37*
G36*
X35589997Y-31976995D02*
G01*
X34589999Y-31976995D01*
X34589999Y-31676995D01*
X35589997Y-31676995D01*
X35589997Y-31976995D01*
G37*
G36*
X35589997Y-33246995D02*
G01*
X34589999Y-33246995D01*
X34589999Y-32946995D01*
X35589997Y-32946995D01*
X35589997Y-33246995D01*
G37*
G36*
X35589997Y-34516995D02*
G01*
X34589999Y-34516995D01*
X34589999Y-34216995D01*
X35589997Y-34216995D01*
X35589997Y-34516995D01*
G37*
%TD*%
M02*
