%TF.GenerationSoftware,KiCad,Pcbnew,10.0.6-10.0.6~ubuntu26.04.1*%
%TF.CreationDate,2026-09-24T10:34:53-04:00*%
%TF.ProjectId,pd-trigger-lite-dip,70642d74-7269-4676-9765-722d6c697465,rev?*%
%TF.SameCoordinates,Original*%
%TF.FileFunction,Copper,L1,Top*%
%TF.FilePolarity,Positive*%
%FSLAX46Y46*%
G04 Gerber Fmt 4.6, Leading zero omitted, Abs format (unit mm)*
G04 Created by KiCad (PCBNEW 10.0.6-10.0.6~ubuntu26.04.1) date 2026-09-24 10:34:53*
%MOMM*%
%LPD*%
G01*
G04 APERTURE LIST*
%TA.AperFunction,SMDPad,CuDef*%
%ADD10R,1.500000X0.600000*%
%TD*%
%TA.AperFunction,SMDPad,CuDef*%
%ADD11R,2.100000X3.300000*%
%TD*%
%TA.AperFunction,ComponentPad*%
%ADD12R,2.000000X2.000000*%
%TD*%
%TA.AperFunction,ComponentPad*%
%ADD13C,2.000000*%
%TD*%
%TA.AperFunction,SMDPad,CuDef*%
%ADD14R,0.806000X0.864000*%
%TD*%
%TA.AperFunction,SMDPad,CuDef*%
%ADD15R,0.800000X0.800000*%
%TD*%
%TA.AperFunction,ComponentPad*%
%ADD16O,1.800000X1.200000*%
%TD*%
%TA.AperFunction,SMDPad,CuDef*%
%ADD17R,1.300000X0.700000*%
%TD*%
%TA.AperFunction,SMDPad,CuDef*%
%ADD18R,1.300000X0.800000*%
%TD*%
%TA.AperFunction,SMDPad,CuDef*%
%ADD19R,0.900000X0.800000*%
%TD*%
%TA.AperFunction,SMDPad,CuDef*%
%ADD20R,1.270000X0.760000*%
%TD*%
%TA.AperFunction,SMDPad,CuDef*%
%ADD21R,0.864000X0.806000*%
%TD*%
%TA.AperFunction,ViaPad*%
%ADD22C,0.600000*%
%TD*%
%TA.AperFunction,Conductor*%
%ADD23C,0.200000*%
%TD*%
%TA.AperFunction,Conductor*%
%ADD24C,0.250000*%
%TD*%
%TA.AperFunction,Conductor*%
%ADD25C,0.800000*%
%TD*%
%TA.AperFunction,Conductor*%
%ADD26C,1.250000*%
%TD*%
G04 APERTURE END LIST*
D10*
%TO.P,U1,1*%
%TO.N,/VHV*%
X33290000Y-46167000D03*
%TO.P,U1,2*%
%TO.N,unconnected-(U1-CFG2{slash}SCL-Pad2)*%
X33290000Y-45167000D03*
%TO.P,U1,3*%
%TO.N,unconnected-(U1-CFG3{slash}SDA-Pad3)*%
X33290000Y-44167000D03*
%TO.P,U1,4*%
%TO.N,unconnected-(U1-DP-Pad4)*%
X33290000Y-43167000D03*
%TO.P,U1,5*%
%TO.N,unconnected-(U1-DM-Pad5)*%
X33290000Y-42167000D03*
%TO.P,U1,6*%
%TO.N,/CC2*%
X27290000Y-42167000D03*
%TO.P,U1,7*%
%TO.N,/CC1*%
X27290000Y-43167000D03*
%TO.P,U1,8*%
%TO.N,/VHV*%
X27290000Y-44167000D03*
%TO.P,U1,9*%
%TO.N,/CFG1*%
X27290000Y-45167000D03*
%TO.P,U1,10*%
%TO.N,unconnected-(U1-PG-Pad10)*%
X27290000Y-46167000D03*
D11*
%TO.P,U1,11*%
%TO.N,GND*%
X30290000Y-44167000D03*
%TD*%
D12*
%TO.P,J2,1*%
%TO.N,VBUS*%
X40490000Y-38117000D03*
D13*
%TO.P,J2,2*%
%TO.N,GND*%
X40490000Y-40657000D03*
%TD*%
D14*
%TO.P,R4,1*%
%TO.N,GND*%
X41340000Y-28217000D03*
%TO.P,R4,2*%
%TO.N,/SEL20*%
X39840000Y-28217000D03*
%TD*%
%TO.P,R1,1*%
%TO.N,GND*%
X41340000Y-33617000D03*
%TO.P,R1,2*%
%TO.N,/SEL9*%
X39840000Y-33617000D03*
%TD*%
%TO.P,R5,1*%
%TO.N,/VHV*%
X41340000Y-35417000D03*
%TO.P,R5,2*%
%TO.N,/SEL5*%
X39840000Y-35417000D03*
%TD*%
D15*
%TO.P,D1,1*%
%TO.N,/LED_A*%
X39540000Y-43117000D03*
%TO.P,D1,2*%
%TO.N,GND*%
X41040000Y-43117000D03*
%TD*%
D16*
%TO.P,J1,1*%
%TO.N,GND*%
X24090000Y-43637000D03*
%TO.P,J1,2*%
X20290000Y-43637000D03*
%TO.P,J1,3*%
X20290000Y-34997000D03*
%TO.P,J1,4*%
X24090000Y-34997000D03*
D17*
%TO.P,J1,A5*%
%TO.N,/CC1*%
X24190000Y-38817000D03*
D18*
%TO.P,J1,A9*%
%TO.N,VBUS*%
X24190000Y-40817000D03*
%TO.P,J1,A12*%
%TO.N,GND*%
X24190000Y-42017000D03*
D17*
%TO.P,J1,B5*%
%TO.N,/CC2*%
X24190000Y-39817000D03*
D18*
%TO.P,J1,B9*%
%TO.N,VBUS*%
X24190000Y-37817000D03*
%TO.P,J1,B12*%
%TO.N,GND*%
X24190000Y-36617000D03*
%TD*%
D14*
%TO.P,R2,1*%
%TO.N,GND*%
X41340000Y-31817000D03*
%TO.P,R2,2*%
%TO.N,/SEL12*%
X39840000Y-31817000D03*
%TD*%
%TO.P,R3,1*%
%TO.N,GND*%
X41340000Y-30017000D03*
%TO.P,R3,2*%
%TO.N,/SEL15*%
X39840000Y-30017000D03*
%TD*%
%TO.P,R6,1*%
%TO.N,/VHV*%
X36740000Y-43117000D03*
%TO.P,R6,2*%
%TO.N,/LED_A*%
X38240000Y-43117000D03*
%TD*%
D19*
%TO.P,C1,1*%
%TO.N,/VHV*%
X35090000Y-44417000D03*
%TO.P,C1,2*%
%TO.N,GND*%
X35090000Y-45817000D03*
%TD*%
D20*
%TO.P,SW1,1*%
%TO.N,/SEL5*%
X38000000Y-34357000D03*
%TO.P,SW1,2*%
%TO.N,/SEL9*%
X38000000Y-33087000D03*
%TO.P,SW1,3*%
%TO.N,/SEL12*%
X38000000Y-31817000D03*
%TO.P,SW1,4*%
%TO.N,/SEL15*%
X38000000Y-30547000D03*
%TO.P,SW1,5*%
%TO.N,/SEL20*%
X38000000Y-29277000D03*
%TO.P,SW1,6*%
%TO.N,/CFG1*%
X30380000Y-29277000D03*
%TO.P,SW1,7*%
X30380000Y-30547000D03*
%TO.P,SW1,8*%
X30380000Y-31817000D03*
%TO.P,SW1,9*%
X30380000Y-33087000D03*
%TO.P,SW1,10*%
X30380000Y-34357000D03*
%TD*%
D21*
%TO.P,R7,1*%
%TO.N,VBUS*%
X35090000Y-41617000D03*
%TO.P,R7,2*%
%TO.N,/VHV*%
X35090000Y-43117000D03*
%TD*%
D22*
%TO.N,/VHV*%
X41990000Y-36067000D03*
X36190000Y-42250000D03*
%TO.N,/CC2*%
X25440000Y-39817000D03*
X26090000Y-42168000D03*
%TO.N,/CC1*%
X26090000Y-43168000D03*
X25440000Y-38817000D03*
%TO.N,/CFG1*%
X30380000Y-36117000D03*
X25890000Y-45167000D03*
%TO.N,GND*%
X30290000Y-45367000D03*
X30290000Y-44167000D03*
X41890000Y-43118000D03*
X41340000Y-32717000D03*
X41340000Y-29117000D03*
X30290000Y-42967000D03*
X35990000Y-45817000D03*
%TD*%
%TO.N,/VHV*%
D23*
X33290000Y-46168000D02*
X34390000Y-46168000D01*
X28290000Y-45168000D02*
X28290000Y-46168000D01*
X34390000Y-46168000D02*
X34390000Y-44418000D01*
X27290000Y-44168000D02*
X28290000Y-44168000D01*
X41340000Y-35417000D02*
X41990000Y-36067000D01*
X28290000Y-44168000D02*
X28290000Y-45168000D01*
X35090000Y-43118000D02*
X36740000Y-43118000D01*
X29290000Y-46168000D02*
X33290000Y-46168000D01*
X36190000Y-42250000D02*
X36740000Y-43117000D01*
X34390000Y-44418000D02*
X35090000Y-44418000D01*
X35090000Y-44418000D02*
X35090000Y-43118000D01*
X28290000Y-46168000D02*
X29290000Y-46168000D01*
%TO.N,/CC2*%
D24*
X24190000Y-39817000D02*
X25440000Y-39817000D01*
X26090000Y-42168000D02*
X27290000Y-42168000D01*
%TO.N,/CC1*%
X26090000Y-43168000D02*
X27290000Y-43168000D01*
X24190000Y-38817000D02*
X25440000Y-38817000D01*
%TO.N,/CFG1*%
X30380000Y-29277000D02*
X30380000Y-36117000D01*
X25890000Y-45167000D02*
X27290000Y-45167000D01*
%TO.N,GND*%
X41040000Y-43118000D02*
X41890000Y-43118000D01*
D25*
X24190000Y-36618000D02*
X24190000Y-35418000D01*
D24*
X41340000Y-28217000D02*
X41340000Y-33617000D01*
D25*
X24190000Y-42017000D02*
X24190000Y-43218000D01*
D24*
X35090000Y-45817000D02*
X35990000Y-45817000D01*
%TO.N,VBUS*%
D26*
X35090000Y-40218000D02*
X35090000Y-41618000D01*
%TO.N,/SEL20*%
D24*
X38780000Y-29277000D02*
X39840000Y-28217000D01*
X38000000Y-29277000D02*
X38780000Y-29277000D01*
%TO.N,/SEL9*%
X38000000Y-33087000D02*
X39310000Y-33087000D01*
X39310000Y-33087000D02*
X39840000Y-33617000D01*
%TO.N,/SEL5*%
X38000000Y-34357000D02*
X38780000Y-34357000D01*
X38780000Y-34357000D02*
X39840000Y-35417000D01*
%TO.N,/LED_A*%
X38240000Y-43118000D02*
X39540000Y-43118000D01*
%TO.N,/SEL12*%
X38000000Y-31817000D02*
X39840000Y-31817000D01*
%TO.N,/SEL15*%
X38000000Y-30547000D02*
X39310000Y-30547000D01*
X39310000Y-30547000D02*
X39840000Y-30017000D01*
%TD*%
%TA.AperFunction,Conductor*%
%TO.N,VBUS*%
G36*
X42332539Y-37136685D02*
G01*
X42378294Y-37189489D01*
X42389500Y-37241000D01*
X42389500Y-41393000D01*
X42369815Y-41460039D01*
X42317011Y-41505794D01*
X42265500Y-41517000D01*
X41502204Y-41517000D01*
X41435165Y-41497315D01*
X41389410Y-41444511D01*
X41379466Y-41375353D01*
X41401886Y-41320115D01*
X41425468Y-41287655D01*
X41454324Y-41247939D01*
X41534895Y-41089810D01*
X41589737Y-40921023D01*
X41617500Y-40745736D01*
X41617500Y-40568264D01*
X41589737Y-40392977D01*
X41589736Y-40392973D01*
X41589736Y-40392972D01*
X41534896Y-40224192D01*
X41528214Y-40211078D01*
X41454324Y-40066061D01*
X41393257Y-39982009D01*
X41350014Y-39922489D01*
X41350010Y-39922484D01*
X41224515Y-39796989D01*
X41224510Y-39796985D01*
X41080942Y-39692678D01*
X41080941Y-39692677D01*
X41080939Y-39692676D01*
X41001087Y-39651989D01*
X40922807Y-39612103D01*
X40754026Y-39557263D01*
X40622557Y-39536440D01*
X40578736Y-39529500D01*
X40401264Y-39529500D01*
X40342835Y-39538754D01*
X40225975Y-39557263D01*
X40225972Y-39557263D01*
X40057192Y-39612103D01*
X39899057Y-39692678D01*
X39755489Y-39796985D01*
X39755484Y-39796989D01*
X39629989Y-39922484D01*
X39629985Y-39922489D01*
X39525678Y-40066057D01*
X39445103Y-40224192D01*
X39390263Y-40392972D01*
X39390263Y-40392975D01*
X39362500Y-40568264D01*
X39362500Y-40745735D01*
X39390263Y-40921024D01*
X39390263Y-40921027D01*
X39445103Y-41089807D01*
X39525678Y-41247942D01*
X39578114Y-41320115D01*
X39601594Y-41385921D01*
X39585768Y-41453975D01*
X39535663Y-41502670D01*
X39477796Y-41517000D01*
X24957447Y-41517000D01*
X24901452Y-41500557D01*
X24901032Y-41501572D01*
X24891598Y-41497664D01*
X24890408Y-41497315D01*
X24889810Y-41496924D01*
X24889750Y-41496899D01*
X24889749Y-41496898D01*
X24889748Y-41496898D01*
X24852558Y-41489500D01*
X23714000Y-41489500D01*
X23646961Y-41469815D01*
X23601206Y-41417011D01*
X23590000Y-41365500D01*
X23590000Y-40418500D01*
X23609685Y-40351461D01*
X23662489Y-40305706D01*
X23714000Y-40294500D01*
X24852559Y-40294500D01*
X24859957Y-40293028D01*
X24889748Y-40287102D01*
X24931922Y-40258922D01*
X24960102Y-40216748D01*
X24960480Y-40214845D01*
X24962450Y-40211078D01*
X24964775Y-40205467D01*
X24965276Y-40205674D01*
X24992861Y-40152937D01*
X25053575Y-40118360D01*
X25123344Y-40122096D01*
X25169778Y-40151354D01*
X25177509Y-40159085D01*
X25261928Y-40207825D01*
X25274095Y-40214850D01*
X25274991Y-40215367D01*
X25383719Y-40244500D01*
X25383721Y-40244500D01*
X25496279Y-40244500D01*
X25496281Y-40244500D01*
X25605009Y-40215367D01*
X25702491Y-40159085D01*
X25782085Y-40079491D01*
X25838367Y-39982009D01*
X25867500Y-39873281D01*
X25867500Y-39760719D01*
X25838367Y-39651991D01*
X25782085Y-39554509D01*
X25702491Y-39474915D01*
X25614972Y-39424385D01*
X25566759Y-39373820D01*
X25553537Y-39305212D01*
X25579505Y-39240348D01*
X25614971Y-39209614D01*
X25702491Y-39159085D01*
X25782085Y-39079491D01*
X25838367Y-38982009D01*
X25867500Y-38873281D01*
X25867500Y-38760719D01*
X25838367Y-38651991D01*
X25782085Y-38554509D01*
X25702491Y-38474915D01*
X25653750Y-38446774D01*
X25605010Y-38418633D01*
X25550645Y-38404066D01*
X25496281Y-38389500D01*
X25383719Y-38389500D01*
X25274989Y-38418633D01*
X25177509Y-38474915D01*
X25177504Y-38474919D01*
X25169775Y-38482648D01*
X25108451Y-38516131D01*
X25038759Y-38511144D01*
X24982827Y-38469271D01*
X24960480Y-38419154D01*
X24960102Y-38417252D01*
X24941559Y-38389500D01*
X24931922Y-38375077D01*
X24889749Y-38346898D01*
X24852559Y-38339500D01*
X24852558Y-38339500D01*
X23714000Y-38339500D01*
X23646961Y-38319815D01*
X23601206Y-38267011D01*
X23590000Y-38215500D01*
X23590000Y-37268500D01*
X23609685Y-37201461D01*
X23662489Y-37155706D01*
X23714000Y-37144500D01*
X24104831Y-37144500D01*
X24120087Y-37145500D01*
X24120553Y-37145500D01*
X24259913Y-37145500D01*
X24275169Y-37144500D01*
X24852558Y-37144500D01*
X24889748Y-37137102D01*
X24889752Y-37137098D01*
X24901032Y-37132428D01*
X24901605Y-37133811D01*
X24955233Y-37117020D01*
X24957447Y-37117000D01*
X42265500Y-37117000D01*
X42332539Y-37136685D01*
G37*
%TD.AperFunction*%
%TD*%
M02*
