M48
; DRILL file KiCad 10.0.6-10.0.6~ubuntu26.04.1 date 2026-09-24T10:34:54
; FORMAT={-:-/ absolute / metric / decimal}
; #@! TF.CreationDate,2026-09-24T10:34:54-04:00
; #@! TF.GenerationSoftware,Kicad,Pcbnew,10.0.6-10.0.6~ubuntu26.04.1
; #@! TF.FileFunction,MixedPlating,1,2
FMAT,2
METRIC
; #@! TA.AperFunction,Plated,PTH,ViaDrill
T1C0.300
; #@! TA.AperFunction,Plated,PTH,ComponentDrill
T2C0.600
; #@! TA.AperFunction,Plated,PTH,ComponentDrill
T3C1.100
%
G90
G05
T1
X25.44Y-38.817
X25.44Y-39.817
X25.89Y-45.167
X26.09Y-42.168
X26.09Y-43.168
X30.29Y-42.967
X30.29Y-44.167
X30.29Y-45.367
X30.38Y-36.117
X35.99Y-45.817
X36.19Y-42.25
X41.34Y-29.117
X41.34Y-32.717
X41.89Y-43.118
X41.99Y-36.067
T3
X40.49Y-38.117
X40.49Y-40.657
T2
X20.59Y-34.997G85X19.99Y-34.997
G05
X20.59Y-43.637G85X19.99Y-43.637
G05
X24.39Y-34.997G85X23.79Y-34.997
G05
X24.39Y-43.637G85X23.79Y-43.637
G05
M30
