%TF.GenerationSoftware,KiCad,Pcbnew,10.0.3*%
%TF.CreationDate,2026-07-28T05:52:05-07:00*%
%TF.ProjectId,usb-buck,7573622d-6275-4636-9b2e-6b696361645f,rev?*%
%TF.SameCoordinates,Original*%
%TF.FileFunction,Soldermask,Top*%
%TF.FilePolarity,Negative*%
%FSLAX46Y46*%
G04 Gerber Fmt 4.6, Leading zero omitted, Abs format (unit mm)*
G04 Created by KiCad (PCBNEW 10.0.3) date 2026-07-28 05:52:05*
%MOMM*%
%LPD*%
G01*
G04 APERTURE LIST*
%ADD10R,0.800000X0.900000*%
%ADD11R,1.700000X1.700000*%
%ADD12C,1.700000*%
%ADD13R,0.550000X1.100000*%
%ADD14R,3.500000X1.600000*%
%ADD15R,0.864000X0.806000*%
%ADD16R,1.410000X1.350000*%
%ADD17R,0.900000X0.800000*%
%ADD18R,0.806000X0.864000*%
%ADD19R,0.800000X0.800000*%
%ADD20O,1.500000X0.270000*%
%ADD21O,0.270000X1.500000*%
%ADD22R,2.000000X5.500000*%
%ADD23R,0.800000X0.650000*%
%ADD24R,1.250000X0.400000*%
%ADD25C,1.100000*%
%ADD26O,1.800000X1.100000*%
%ADD27R,1.072000X0.532000*%
%ADD28R,1.350000X1.410000*%
G04 APERTURE END LIST*
D10*
%TO.C,C10*%
X45300000Y-38850000D03*
X46700000Y-38850000D03*
%TD*%
D11*
%TO.C,J2*%
X58910000Y-33920000D03*
D12*
X56370000Y-33920000D03*
X53830000Y-33920000D03*
X51290000Y-33920000D03*
%TD*%
D13*
%TO.C,U2*%
X29050000Y-23700000D03*
X30000000Y-23700000D03*
X30950000Y-23700000D03*
X30950000Y-21300000D03*
X30000000Y-21300000D03*
X29050000Y-21300000D03*
%TD*%
D14*
%TO.C,L1*%
X30000000Y-19150000D03*
X30000000Y-15950000D03*
%TD*%
D15*
%TO.C,R4*%
X22000000Y-38350000D03*
X22000000Y-36850000D03*
%TD*%
D16*
%TO.C,C4*%
X26500000Y-16000000D03*
X24500000Y-16000000D03*
%TD*%
D17*
%TO.C,C13*%
X24300000Y-38300000D03*
X24300000Y-36900000D03*
%TD*%
D18*
%TO.C,R1*%
X45050000Y-49500000D03*
X46550000Y-49500000D03*
%TD*%
D19*
%TO.C,D1*%
X41750000Y-49500000D03*
X40250000Y-49500000D03*
%TD*%
D16*
%TO.C,C5*%
X33500000Y-16000000D03*
X35500000Y-16000000D03*
%TD*%
D17*
%TO.C,C3*%
X27000000Y-21300000D03*
X27000000Y-19900000D03*
%TD*%
%TO.C,C17*%
X34600000Y-27500000D03*
X34600000Y-26100000D03*
%TD*%
D20*
%TO.C,U1*%
X35250000Y-36670000D03*
X35250000Y-36170000D03*
X35250000Y-35670000D03*
X35250000Y-35170000D03*
X35250000Y-34670000D03*
X35250000Y-34170000D03*
X35250000Y-33670000D03*
X35250000Y-33170000D03*
X35250000Y-32670000D03*
X35250000Y-32170000D03*
X35250000Y-31670000D03*
X35250000Y-31170000D03*
D21*
X33750000Y-29670000D03*
X33250000Y-29670000D03*
X32750000Y-29670000D03*
X32250000Y-29670000D03*
X31750000Y-29670000D03*
X31250000Y-29670000D03*
X30750000Y-29670000D03*
X30250000Y-29670000D03*
X29750000Y-29670000D03*
X29250000Y-29670000D03*
X28750000Y-29670000D03*
X28250000Y-29670000D03*
D20*
X26750000Y-31170000D03*
X26750000Y-31670000D03*
X26750000Y-32170000D03*
X26750000Y-32670000D03*
X26750000Y-33170000D03*
X26750000Y-33670000D03*
X26750000Y-34170000D03*
X26750000Y-34670000D03*
X26750000Y-35170000D03*
X26750000Y-35670000D03*
X26750000Y-36170000D03*
X26750000Y-36670000D03*
D21*
X28250000Y-38170000D03*
X28750000Y-38170000D03*
X29250000Y-38170000D03*
X29750000Y-38170000D03*
X30250000Y-38170000D03*
X30750000Y-38170000D03*
X31250000Y-38170000D03*
X31750000Y-38170000D03*
X32250000Y-38170000D03*
X32750000Y-38170000D03*
X33250000Y-38170000D03*
X33750000Y-38170000D03*
%TD*%
D22*
%TO.C,Y1*%
X41500000Y-38850000D03*
X41500000Y-29950000D03*
%TD*%
D15*
%TO.C,R3*%
X30000000Y-40750000D03*
X30000000Y-42250000D03*
%TD*%
D17*
%TO.C,C2*%
X32500000Y-23200000D03*
X32500000Y-21800000D03*
%TD*%
%TO.C,C18*%
X37700000Y-37600000D03*
X37700000Y-39000000D03*
%TD*%
D23*
%TO.C,SW1*%
X22500000Y-48600000D03*
X25500000Y-48600000D03*
X25500000Y-50400000D03*
X22500000Y-50400000D03*
%TD*%
D24*
%TO.C,J1*%
X16330000Y-32660000D03*
X16330000Y-33310000D03*
X16330000Y-33960000D03*
X16330000Y-34610000D03*
X16330000Y-35260000D03*
D25*
X16440000Y-36340000D03*
X16440000Y-31500000D03*
D26*
X13760000Y-37520000D03*
X13760000Y-30320000D03*
%TD*%
D10*
%TO.C,C11*%
X45300000Y-29950000D03*
X46700000Y-29950000D03*
%TD*%
D17*
%TO.C,C15*%
X33750000Y-43500000D03*
X33750000Y-44900000D03*
%TD*%
%TO.C,C12*%
X28250000Y-27500000D03*
X28250000Y-26100000D03*
%TD*%
D27*
%TO.C,U3*%
X19100000Y-33300000D03*
X19100000Y-34250000D03*
X19100000Y-35200000D03*
X21400000Y-35200000D03*
X21400000Y-34250000D03*
X21400000Y-33300000D03*
%TD*%
D18*
%TO.C,R2*%
X28250000Y-49500000D03*
X29750000Y-49500000D03*
%TD*%
D17*
%TO.C,C16*%
X37700000Y-32600000D03*
X37700000Y-34000000D03*
%TD*%
%TO.C,C14*%
X33750000Y-40300000D03*
X33750000Y-41700000D03*
%TD*%
D10*
%TO.C,C19*%
X36400000Y-26200000D03*
X37800000Y-26200000D03*
%TD*%
D28*
%TO.C,C1*%
X34700000Y-23500000D03*
X34700000Y-21500000D03*
%TD*%
M02*
