%TF.GenerationSoftware,KiCad,Pcbnew,10.0.3*%
%TF.CreationDate,2026-07-28T05:52:05-07:00*%
%TF.ProjectId,usb-buck,7573622d-6275-4636-9b2e-6b696361645f,rev?*%
%TF.SameCoordinates,Original*%
%TF.FileFunction,Copper,L1,Top*%
%TF.FilePolarity,Positive*%
%FSLAX46Y46*%
G04 Gerber Fmt 4.6, Leading zero omitted, Abs format (unit mm)*
G04 Created by KiCad (PCBNEW 10.0.3) date 2026-07-28 05:52:05*
%MOMM*%
%LPD*%
G01*
G04 APERTURE LIST*
%TA.AperFunction,SMDPad,CuDef*%
%ADD10R,0.800000X0.900000*%
%TD*%
%TA.AperFunction,ComponentPad*%
%ADD11R,1.700000X1.700000*%
%TD*%
%TA.AperFunction,ComponentPad*%
%ADD12C,1.700000*%
%TD*%
%TA.AperFunction,SMDPad,CuDef*%
%ADD13R,0.550000X1.100000*%
%TD*%
%TA.AperFunction,SMDPad,CuDef*%
%ADD14R,3.500000X1.600000*%
%TD*%
%TA.AperFunction,SMDPad,CuDef*%
%ADD15R,0.864000X0.806000*%
%TD*%
%TA.AperFunction,SMDPad,CuDef*%
%ADD16R,1.410000X1.350000*%
%TD*%
%TA.AperFunction,SMDPad,CuDef*%
%ADD17R,0.900000X0.800000*%
%TD*%
%TA.AperFunction,SMDPad,CuDef*%
%ADD18R,0.806000X0.864000*%
%TD*%
%TA.AperFunction,SMDPad,CuDef*%
%ADD19R,0.800000X0.800000*%
%TD*%
%TA.AperFunction,SMDPad,CuDef*%
%ADD20O,1.500000X0.270000*%
%TD*%
%TA.AperFunction,SMDPad,CuDef*%
%ADD21O,0.270000X1.500000*%
%TD*%
%TA.AperFunction,SMDPad,CuDef*%
%ADD22R,2.000000X5.500000*%
%TD*%
%TA.AperFunction,SMDPad,CuDef*%
%ADD23R,0.800000X0.650000*%
%TD*%
%TA.AperFunction,SMDPad,CuDef*%
%ADD24R,1.250000X0.400000*%
%TD*%
%TA.AperFunction,ComponentPad*%
%ADD25C,1.100000*%
%TD*%
%TA.AperFunction,ComponentPad*%
%ADD26O,1.800000X1.100000*%
%TD*%
%TA.AperFunction,SMDPad,CuDef*%
%ADD27R,1.072000X0.532000*%
%TD*%
%TA.AperFunction,SMDPad,CuDef*%
%ADD28R,1.350000X1.410000*%
%TD*%
%TA.AperFunction,ViaPad*%
%ADD29C,0.600000*%
%TD*%
%TA.AperFunction,ViaPad*%
%ADD30C,0.450000*%
%TD*%
%TA.AperFunction,Conductor*%
%ADD31C,0.200000*%
%TD*%
%TA.AperFunction,Conductor*%
%ADD32C,0.300000*%
%TD*%
%TA.AperFunction,Conductor*%
%ADD33C,0.203200*%
%TD*%
%TA.AperFunction,Conductor*%
%ADD34C,0.314000*%
%TD*%
%TA.AperFunction,Conductor*%
%ADD35C,0.269800*%
%TD*%
G04 APERTURE END LIST*
D10*
%TO.P,C10,1*%
%TO.N,/mcu/OSC_IN*%
X45300000Y-38850000D03*
%TO.P,C10,2*%
%TO.N,GND*%
X46700000Y-38850000D03*
%TD*%
D11*
%TO.P,J2,1*%
%TO.N,+3V3*%
X58910000Y-33920000D03*
D12*
%TO.P,J2,2*%
%TO.N,/mcu/SWCLK*%
X56370000Y-33920000D03*
%TO.P,J2,3*%
%TO.N,GND*%
X53830000Y-33920000D03*
%TO.P,J2,4*%
%TO.N,/mcu/SWDIO*%
X51290000Y-33920000D03*
%TD*%
D13*
%TO.P,U2,1*%
%TO.N,+3V3*%
X29050000Y-23700000D03*
%TO.P,U2,2*%
%TO.N,VBUS*%
X30000000Y-23700000D03*
%TO.P,U2,3*%
X30950000Y-23700000D03*
%TO.P,U2,4*%
%TO.N,GND*%
X30950000Y-21300000D03*
%TO.P,U2,5*%
%TO.N,/power/SW*%
X30000000Y-21300000D03*
%TO.P,U2,6*%
%TO.N,/power/BST*%
X29050000Y-21300000D03*
%TD*%
D14*
%TO.P,L1,1*%
%TO.N,/power/SW*%
X30000000Y-19150000D03*
%TO.P,L1,2*%
%TO.N,+3V3*%
X30000000Y-15950000D03*
%TD*%
D15*
%TO.P,R4,1*%
%TO.N,/USB_DP*%
X22000000Y-38350000D03*
%TO.P,R4,2*%
%TO.N,+3V3*%
X22000000Y-36850000D03*
%TD*%
D16*
%TO.P,C4,1*%
%TO.N,+3V3*%
X26500000Y-16000000D03*
%TO.P,C4,2*%
%TO.N,GND*%
X24500000Y-16000000D03*
%TD*%
D17*
%TO.P,C13,1*%
%TO.N,+3V3*%
X24300000Y-38300000D03*
%TO.P,C13,2*%
%TO.N,GND*%
X24300000Y-36900000D03*
%TD*%
D18*
%TO.P,R1,1*%
%TO.N,/mcu/LED_A*%
X45050000Y-49500000D03*
%TO.P,R1,2*%
%TO.N,+3V3*%
X46550000Y-49500000D03*
%TD*%
D19*
%TO.P,D1,1*%
%TO.N,/mcu/LED_A*%
X41750000Y-49500000D03*
%TO.P,D1,2*%
%TO.N,/mcu/LED*%
X40250000Y-49500000D03*
%TD*%
D16*
%TO.P,C5,1*%
%TO.N,+3V3*%
X33500000Y-16000000D03*
%TO.P,C5,2*%
%TO.N,GND*%
X35500000Y-16000000D03*
%TD*%
D17*
%TO.P,C3,1*%
%TO.N,/power/BST*%
X27000000Y-21300000D03*
%TO.P,C3,2*%
%TO.N,/power/SW*%
X27000000Y-19900000D03*
%TD*%
%TO.P,C17,1*%
%TO.N,+3V3*%
X34600000Y-27500000D03*
%TO.P,C17,2*%
%TO.N,GND*%
X34600000Y-26100000D03*
%TD*%
D20*
%TO.P,U1,1*%
%TO.N,+3V3*%
X35250000Y-36670000D03*
%TO.P,U1,2*%
%TO.N,/mcu/LED*%
X35250000Y-36170000D03*
%TO.P,U1,3*%
%TO.N,N/C*%
X35250000Y-35670000D03*
%TO.P,U1,4*%
X35250000Y-35170000D03*
%TO.P,U1,5*%
%TO.N,/mcu/OSC_IN*%
X35250000Y-34670000D03*
%TO.P,U1,6*%
%TO.N,/mcu/OSC_OUT*%
X35250000Y-34170000D03*
%TO.P,U1,7*%
%TO.N,/mcu/NRST*%
X35250000Y-33670000D03*
%TO.P,U1,8*%
%TO.N,GND*%
X35250000Y-33170000D03*
%TO.P,U1,9*%
%TO.N,+3V3*%
X35250000Y-32670000D03*
%TO.P,U1,10*%
%TO.N,N/C*%
X35250000Y-32170000D03*
%TO.P,U1,11*%
X35250000Y-31670000D03*
%TO.P,U1,12*%
X35250000Y-31170000D03*
D21*
%TO.P,U1,13*%
X33750000Y-29670000D03*
%TO.P,U1,14*%
X33250000Y-29670000D03*
%TO.P,U1,15*%
X32750000Y-29670000D03*
%TO.P,U1,16*%
X32250000Y-29670000D03*
%TO.P,U1,17*%
X31750000Y-29670000D03*
%TO.P,U1,18*%
%TO.N,/mcu/BTN*%
X31250000Y-29670000D03*
%TO.P,U1,19*%
%TO.N,N/C*%
X30750000Y-29670000D03*
%TO.P,U1,20*%
X30250000Y-29670000D03*
%TO.P,U1,21*%
X29750000Y-29670000D03*
%TO.P,U1,22*%
X29250000Y-29670000D03*
%TO.P,U1,23*%
%TO.N,GND*%
X28750000Y-29670000D03*
%TO.P,U1,24*%
%TO.N,+3V3*%
X28250000Y-29670000D03*
D20*
%TO.P,U1,25*%
%TO.N,N/C*%
X26750000Y-31170000D03*
%TO.P,U1,26*%
X26750000Y-31670000D03*
%TO.P,U1,27*%
X26750000Y-32170000D03*
%TO.P,U1,28*%
X26750000Y-32670000D03*
%TO.P,U1,29*%
X26750000Y-33170000D03*
%TO.P,U1,30*%
X26750000Y-33670000D03*
%TO.P,U1,31*%
X26750000Y-34170000D03*
%TO.P,U1,32*%
%TO.N,/USB_DM*%
X26750000Y-34670000D03*
%TO.P,U1,33*%
%TO.N,/USB_DP*%
X26750000Y-35170000D03*
%TO.P,U1,34*%
%TO.N,/mcu/SWDIO*%
X26750000Y-35670000D03*
%TO.P,U1,35*%
%TO.N,GND*%
X26750000Y-36170000D03*
%TO.P,U1,36*%
%TO.N,+3V3*%
X26750000Y-36670000D03*
D21*
%TO.P,U1,37*%
%TO.N,/mcu/SWCLK*%
X28250000Y-38170000D03*
%TO.P,U1,38*%
%TO.N,N/C*%
X28750000Y-38170000D03*
%TO.P,U1,39*%
X29250000Y-38170000D03*
%TO.P,U1,40*%
X29750000Y-38170000D03*
%TO.P,U1,41*%
X30250000Y-38170000D03*
%TO.P,U1,42*%
X30750000Y-38170000D03*
%TO.P,U1,43*%
X31250000Y-38170000D03*
%TO.P,U1,44*%
%TO.N,/mcu/BOOT0*%
X31750000Y-38170000D03*
%TO.P,U1,45*%
%TO.N,N/C*%
X32250000Y-38170000D03*
%TO.P,U1,46*%
X32750000Y-38170000D03*
%TO.P,U1,47*%
%TO.N,GND*%
X33250000Y-38170000D03*
%TO.P,U1,48*%
%TO.N,+3V3*%
X33750000Y-38170000D03*
%TD*%
D22*
%TO.P,Y1,1*%
%TO.N,/mcu/OSC_IN*%
X41500000Y-38850000D03*
%TO.P,Y1,2*%
%TO.N,/mcu/OSC_OUT*%
X41500000Y-29950000D03*
%TD*%
D15*
%TO.P,R3,1*%
%TO.N,/mcu/BOOT0*%
X30000000Y-40750000D03*
%TO.P,R3,2*%
%TO.N,GND*%
X30000000Y-42250000D03*
%TD*%
D17*
%TO.P,C2,1*%
%TO.N,VBUS*%
X32500000Y-23200000D03*
%TO.P,C2,2*%
%TO.N,GND*%
X32500000Y-21800000D03*
%TD*%
%TO.P,C18,1*%
%TO.N,+3V3*%
X37700000Y-37600000D03*
%TO.P,C18,2*%
%TO.N,GND*%
X37700000Y-39000000D03*
%TD*%
D23*
%TO.P,SW1,1*%
%TO.N,/mcu/BTN*%
X22500000Y-48600000D03*
%TO.P,SW1,2*%
X25500000Y-48600000D03*
%TO.P,SW1,3*%
%TO.N,GND*%
X25500000Y-50400000D03*
%TO.P,SW1,4*%
X22500000Y-50400000D03*
%TD*%
D24*
%TO.P,J1,1*%
%TO.N,VBUS*%
X16330000Y-32660000D03*
%TO.P,J1,2*%
%TO.N,/USB_DM*%
X16330000Y-33310000D03*
%TO.P,J1,3*%
%TO.N,/USB_DP*%
X16330000Y-33960000D03*
%TO.P,J1,4*%
%TO.N,N/C*%
X16330000Y-34610000D03*
%TO.P,J1,5*%
%TO.N,GND*%
X16330000Y-35260000D03*
D25*
%TO.P,J1,6*%
X16440000Y-36340000D03*
%TO.P,J1,7*%
X16440000Y-31500000D03*
D26*
%TO.P,J1,8*%
X13760000Y-37520000D03*
%TO.P,J1,9*%
X13760000Y-30320000D03*
%TD*%
D10*
%TO.P,C11,1*%
%TO.N,/mcu/OSC_OUT*%
X45300000Y-29950000D03*
%TO.P,C11,2*%
%TO.N,GND*%
X46700000Y-29950000D03*
%TD*%
D17*
%TO.P,C15,1*%
%TO.N,+3V3*%
X33750000Y-43500000D03*
%TO.P,C15,2*%
%TO.N,GND*%
X33750000Y-44900000D03*
%TD*%
%TO.P,C12,1*%
%TO.N,+3V3*%
X28250000Y-27500000D03*
%TO.P,C12,2*%
%TO.N,GND*%
X28250000Y-26100000D03*
%TD*%
D27*
%TO.P,U3,1*%
%TO.N,/USB_DM*%
X19100000Y-33300000D03*
%TO.P,U3,2*%
%TO.N,GND*%
X19100000Y-34250000D03*
%TO.P,U3,3*%
%TO.N,/USB_DP*%
X19100000Y-35200000D03*
%TO.P,U3,4*%
X21400000Y-35200000D03*
%TO.P,U3,5*%
%TO.N,VBUS*%
X21400000Y-34250000D03*
%TO.P,U3,6*%
%TO.N,/USB_DM*%
X21400000Y-33300000D03*
%TD*%
D18*
%TO.P,R2,1*%
%TO.N,/mcu/BTN*%
X28250000Y-49500000D03*
%TO.P,R2,2*%
%TO.N,+3V3*%
X29750000Y-49500000D03*
%TD*%
D17*
%TO.P,C16,1*%
%TO.N,+3V3*%
X37700000Y-32600000D03*
%TO.P,C16,2*%
%TO.N,GND*%
X37700000Y-34000000D03*
%TD*%
%TO.P,C14,1*%
%TO.N,+3V3*%
X33750000Y-40300000D03*
%TO.P,C14,2*%
%TO.N,GND*%
X33750000Y-41700000D03*
%TD*%
D10*
%TO.P,C19,1*%
%TO.N,/mcu/NRST*%
X36400000Y-26200000D03*
%TO.P,C19,2*%
%TO.N,GND*%
X37800000Y-26200000D03*
%TD*%
D28*
%TO.P,C1,1*%
%TO.N,VBUS*%
X34700000Y-23500000D03*
%TO.P,C1,2*%
%TO.N,GND*%
X34700000Y-21500000D03*
%TD*%
D29*
%TO.N,GND*%
X23850000Y-16000000D03*
X47350000Y-38850000D03*
X24300000Y-36250000D03*
X31353000Y-20790000D03*
X37700000Y-34650000D03*
X37700000Y-39650000D03*
X21943000Y-50734000D03*
X30000000Y-42900000D03*
X36150000Y-16000000D03*
X32500000Y-21150000D03*
X34600000Y-25450000D03*
D30*
X36350000Y-33175000D03*
X28750000Y-30650000D03*
D29*
X34700000Y-20850000D03*
X38450000Y-26200000D03*
X47350000Y-29950000D03*
X33290000Y-42160000D03*
X18450000Y-34250000D03*
X28250000Y-25450000D03*
X33750000Y-45550000D03*
X26057000Y-50734000D03*
%TO.N,+3V3*%
X37700000Y-31950000D03*
X26204000Y-37023000D03*
X27150000Y-16000000D03*
X47200000Y-49500000D03*
X27600000Y-27500000D03*
X28800000Y-15950000D03*
X35796000Y-37023000D03*
X33750000Y-42850000D03*
X34600000Y-28150000D03*
X32850000Y-16000000D03*
X24300000Y-38950000D03*
X37700000Y-36950000D03*
X27897000Y-29124000D03*
X22000000Y-36200000D03*
X30000000Y-15950000D03*
X28647000Y-24210000D03*
X31200000Y-15950000D03*
X34103000Y-38716000D03*
X33750000Y-39650000D03*
X30400000Y-49500000D03*
D30*
%TO.N,/mcu/SWDIO*%
X28707500Y-35670000D03*
D29*
%TO.N,VBUS*%
X22600000Y-32000000D03*
X22600000Y-34000000D03*
%TD*%
%TO.N,/mcu/OSC_IN*%
D31*
X36308800Y-34670000D02*
X35250000Y-34670000D01*
X41500000Y-38850000D02*
X40296700Y-38850000D01*
X40296700Y-38850000D02*
X40296700Y-38657900D01*
X40296700Y-38657900D02*
X36308800Y-34670000D01*
X41500000Y-38850000D02*
X45300000Y-38850000D01*
%TO.N,GND*%
X28750000Y-30650000D02*
X28750000Y-29650000D01*
X35400000Y-33170000D02*
X36350000Y-33175000D01*
D32*
X46700000Y-38850000D02*
X47350000Y-38850000D01*
D31*
X24300000Y-36250000D02*
X24380000Y-36170000D01*
D32*
X28250000Y-26100000D02*
X28250000Y-25450000D01*
D31*
X18450000Y-34250000D02*
X18564000Y-34250000D01*
X21943000Y-50734000D02*
X22166000Y-50734000D01*
X31353000Y-20790000D02*
X31225000Y-20790000D01*
X28750000Y-30650000D02*
X28750000Y-30420000D01*
X33250000Y-42100000D02*
X33250000Y-41150000D01*
D32*
X33750000Y-45550000D02*
X33750000Y-45300000D01*
X37800000Y-26200000D02*
X38450000Y-26200000D01*
D31*
X32950000Y-40850000D02*
X32950000Y-39250000D01*
X33300000Y-42150000D02*
X33250000Y-42100000D01*
D32*
X37700000Y-34650000D02*
X37700000Y-34400000D01*
X34600000Y-26100000D02*
X34600000Y-25450000D01*
X32500000Y-21150000D02*
X32500000Y-21400000D01*
X47350000Y-29950000D02*
X47100000Y-29950000D01*
D31*
X26057000Y-50734000D02*
X25900000Y-50725000D01*
D32*
X46700000Y-29950000D02*
X47350000Y-29950000D01*
D31*
X23850000Y-16000000D02*
X24500000Y-16000000D01*
D32*
X47350000Y-38850000D02*
X47100000Y-38850000D01*
D31*
X30950000Y-21193000D02*
X30950000Y-21300000D01*
D32*
X38450000Y-26200000D02*
X38200000Y-26200000D01*
D31*
X25834000Y-50734000D02*
X25500000Y-50400000D01*
D32*
X33750000Y-44900000D02*
X33750000Y-45550000D01*
X28250000Y-25450000D02*
X28250000Y-25700000D01*
X16330000Y-35260000D02*
X16082000Y-35861000D01*
X24300000Y-36900000D02*
X24300000Y-36250000D01*
D31*
X26057000Y-50734000D02*
X25834000Y-50734000D01*
D32*
X37700000Y-34000000D02*
X37700000Y-34650000D01*
D31*
X18450000Y-34250000D02*
X19100000Y-34250000D01*
X22166000Y-50734000D02*
X22500000Y-50400000D01*
X33250000Y-41150000D02*
X32950000Y-40850000D01*
X24380000Y-36170000D02*
X26750000Y-36170000D01*
X33290000Y-42160000D02*
X33750000Y-41700000D01*
D32*
X32500000Y-21800000D02*
X32500000Y-21150000D01*
X37700000Y-39000000D02*
X37700000Y-39650000D01*
D31*
X31353000Y-20790000D02*
X30950000Y-21193000D01*
D32*
X37700000Y-39650000D02*
X37700000Y-39400000D01*
D31*
X32950000Y-39250000D02*
X33250000Y-38950000D01*
X21943000Y-50734000D02*
X22100000Y-50725000D01*
X33250000Y-38950000D02*
X33250000Y-38150000D01*
X36150000Y-16000000D02*
X35500000Y-16000000D01*
D32*
X34600000Y-25450000D02*
X34600000Y-25700000D01*
%TO.N,+3V3*%
D31*
X36750000Y-32250000D02*
X37700000Y-32250000D01*
D33*
X30400000Y-49500000D02*
X30153000Y-49500000D01*
X22000000Y-36200000D02*
X22000000Y-36447000D01*
X27150000Y-16000000D02*
X26500000Y-16000000D01*
D32*
X37700000Y-37600000D02*
X37700000Y-36950000D01*
X33750000Y-42850000D02*
X33750000Y-43100000D01*
D33*
X47200000Y-49500000D02*
X46550000Y-49500000D01*
X30400000Y-49500000D02*
X29750000Y-49500000D01*
D32*
X33750000Y-39650000D02*
X33750000Y-39900000D01*
D33*
X28647000Y-24210000D02*
X29050000Y-23807000D01*
D31*
X36050000Y-32670000D02*
X36750000Y-32250000D01*
D33*
X34103000Y-38716000D02*
X33885000Y-38716000D01*
X29050000Y-23807000D02*
X29050000Y-23700000D01*
D32*
X37700000Y-32600000D02*
X37700000Y-31950000D01*
D33*
X34103000Y-38716000D02*
X33750000Y-38363000D01*
X28647000Y-24210000D02*
X28775000Y-24210000D01*
D32*
X24300000Y-38950000D02*
X24300000Y-38700000D01*
D33*
X27897000Y-29124000D02*
X28115000Y-29124000D01*
X26397000Y-37023000D02*
X26750000Y-36670000D01*
X35796000Y-37023000D02*
X35603000Y-37023000D01*
X27897000Y-29124000D02*
X28250000Y-29477000D01*
X27600000Y-27500000D02*
X28250000Y-27500000D01*
X27600000Y-27500000D02*
X27800000Y-27500000D01*
X47200000Y-49500000D02*
X46953000Y-49500000D01*
X26204000Y-37023000D02*
X26397000Y-37023000D01*
X32850000Y-16000000D02*
X33500000Y-16000000D01*
X35603000Y-37023000D02*
X35250000Y-36670000D01*
D32*
X34600000Y-28150000D02*
X34600000Y-27900000D01*
X33750000Y-43500000D02*
X33750000Y-42850000D01*
D33*
X22000000Y-36200000D02*
X22000000Y-36850000D01*
X28250000Y-29477000D02*
X28250000Y-29670000D01*
D32*
X24300000Y-38300000D02*
X24300000Y-38950000D01*
X37700000Y-31950000D02*
X37700000Y-32200000D01*
X34600000Y-27500000D02*
X34600000Y-28150000D01*
D31*
X35250000Y-32670000D02*
X36050000Y-32670000D01*
D33*
X33750000Y-38363000D02*
X33750000Y-38170000D01*
D32*
X37700000Y-36950000D02*
X37700000Y-37200000D01*
X33750000Y-40300000D02*
X33750000Y-39650000D01*
%TO.N,/mcu/SWCLK*%
D31*
X32412400Y-32142100D02*
X32412400Y-33054300D01*
X32412400Y-33054300D02*
X28250000Y-37216700D01*
X35918000Y-25540800D02*
X35756000Y-25702800D01*
X56370000Y-33920000D02*
X47990800Y-25540800D01*
X47990800Y-25540800D02*
X35918000Y-25540800D01*
X35756000Y-25702800D02*
X35756000Y-28798500D01*
X35756000Y-28798500D02*
X32412400Y-32142100D01*
X28250000Y-38170000D02*
X28250000Y-37216700D01*
%TO.N,/mcu/SWDIO*%
X26750000Y-35670000D02*
X28707500Y-35670000D01*
%TO.N,VBUS*%
D32*
X28300000Y-28450000D02*
X27200000Y-28450000D01*
X19800000Y-32650000D02*
X16350000Y-32650000D01*
X23650000Y-32000000D02*
X27200000Y-28450000D01*
X22600000Y-34000000D02*
X21700000Y-34000000D01*
X30000000Y-23700000D02*
X30950000Y-23700000D01*
X29100000Y-26550000D02*
X29100000Y-28050000D01*
X28350000Y-28500000D02*
X28300000Y-28450000D01*
X21800000Y-34250000D02*
X21400000Y-34250000D01*
X19800000Y-32650000D02*
X21200000Y-32000000D01*
X29100000Y-28050000D02*
X28650000Y-28500000D01*
X28650000Y-28500000D02*
X28350000Y-28500000D01*
X32500000Y-23200000D02*
X32800000Y-23500000D01*
X32800000Y-23500000D02*
X34700000Y-23500000D01*
X21400000Y-34250000D02*
X21150000Y-34000000D01*
X30000000Y-23700000D02*
X30000000Y-25650000D01*
X30950000Y-23700000D02*
X31450000Y-23200000D01*
X31450000Y-23200000D02*
X32500000Y-23200000D01*
X30000000Y-25650000D02*
X29100000Y-26550000D01*
X21200000Y-32000000D02*
X23650000Y-32000000D01*
%TO.N,/power/SW*%
D31*
X27653300Y-19900000D02*
X27653300Y-19543400D01*
X30000000Y-19150000D02*
X28046700Y-19150000D01*
X27653300Y-19543400D02*
X28046700Y-19150000D01*
X30000000Y-19150000D02*
X30000000Y-21300000D01*
X27000000Y-19900000D02*
X27653300Y-19900000D01*
%TO.N,/power/BST*%
X27000000Y-21300000D02*
X27000000Y-21903300D01*
X27150000Y-22053300D02*
X29050000Y-22053300D01*
X27000000Y-21903300D02*
X27150000Y-22053300D01*
X29050000Y-21300000D02*
X29050000Y-22053300D01*
%TO.N,/USB_DP*%
D34*
X18303700Y-35048400D02*
X18303700Y-35200000D01*
X22000000Y-38350000D02*
X22000000Y-37686700D01*
X16330000Y-33960000D02*
X17215300Y-33960000D01*
X22507800Y-37686700D02*
X22000000Y-37686700D01*
D35*
X26643800Y-35276200D02*
X26750000Y-35170000D01*
X25905300Y-35276200D02*
X26643800Y-35276200D01*
D34*
X19100000Y-35200000D02*
X18303700Y-35200000D01*
X22833000Y-37361500D02*
X22507800Y-37686700D01*
X22833000Y-35836700D02*
X22833000Y-37361500D01*
X17215300Y-33960000D02*
X18303700Y-35048400D01*
X22196300Y-35200000D02*
X22833000Y-35836700D01*
X22833000Y-35836700D02*
X23393500Y-35276200D01*
X21400000Y-35200000D02*
X19100000Y-35200000D01*
X21400000Y-35200000D02*
X22196300Y-35200000D01*
X23393500Y-35276200D02*
X25905300Y-35276200D01*
%TO.N,/mcu/LED_A*%
D31*
X41750000Y-49500000D02*
X45050000Y-49500000D01*
%TO.N,/mcu/LED*%
X40250000Y-49500000D02*
X40250000Y-48896700D01*
X35250000Y-36170000D02*
X36203300Y-36170000D01*
X36899300Y-45546000D02*
X40250000Y-48896700D01*
X36899300Y-36866000D02*
X36899300Y-45546000D01*
X36203300Y-36170000D02*
X36899300Y-36866000D01*
%TO.N,/mcu/OSC_OUT*%
X36203300Y-34170000D02*
X37071600Y-33301700D01*
X41500000Y-29950000D02*
X45300000Y-29950000D01*
X38275000Y-33301700D02*
X40296700Y-31280000D01*
X37071600Y-33301700D02*
X38275000Y-33301700D01*
X41500000Y-29950000D02*
X40296700Y-29950000D01*
X40296700Y-31280000D02*
X40296700Y-29950000D01*
X35250000Y-34170000D02*
X36203300Y-34170000D01*
%TO.N,/mcu/NRST*%
X35250000Y-33670000D02*
X34296700Y-33670000D01*
X34296700Y-33670000D02*
X34159100Y-33532400D01*
X34159100Y-33532400D02*
X34159100Y-30899900D01*
X36400000Y-28659000D02*
X36400000Y-26200000D01*
X34159100Y-30899900D02*
X36400000Y-28659000D01*
%TO.N,/mcu/BTN*%
X26743700Y-48600000D02*
X27643700Y-49500000D01*
X31250000Y-33768400D02*
X26743700Y-38274700D01*
X28250000Y-49500000D02*
X27643700Y-49500000D01*
X31250000Y-29670000D02*
X31250000Y-33768400D01*
X25500000Y-48600000D02*
X26743700Y-48600000D01*
X25500000Y-48600000D02*
X22500000Y-48600000D01*
X26743700Y-38274700D02*
X26743700Y-48600000D01*
%TO.N,/USB_DM*%
D34*
X23350000Y-34564000D02*
X23013000Y-34564000D01*
X23350000Y-33300000D02*
X23350000Y-34564000D01*
D35*
X25949200Y-34563800D02*
X26266100Y-34563800D01*
D34*
X26750000Y-34670000D02*
X26372300Y-34670000D01*
X19100000Y-33300000D02*
X21400000Y-33300000D01*
X19100000Y-33300000D02*
X17225300Y-33300000D01*
X25949200Y-34563800D02*
X23012800Y-34563800D01*
X21400000Y-33300000D02*
X23350000Y-33300000D01*
X16330000Y-33310000D02*
X17215300Y-33310000D01*
D35*
X26266100Y-34563800D02*
X26372300Y-34670000D01*
%TO.N,/mcu/BOOT0*%
D31*
X30000000Y-40750000D02*
X30000000Y-40143700D01*
X30000000Y-40143700D02*
X30729600Y-40143700D01*
X31750000Y-38170000D02*
X31750000Y-39123300D01*
X30729600Y-40143700D02*
X31750000Y-39123300D01*
%TD*%
M02*
