M48
; DRILL file KiCad 10.0.3 date 2026-07-28T05:52:05
; FORMAT={-:-/ absolute / metric / decimal}
; #@! TF.CreationDate,2026-07-28T05:52:05-07:00
; #@! TF.GenerationSoftware,Kicad,Pcbnew,10.0.3
; #@! TF.FileFunction,MixedPlating,1,4
FMAT,2
METRIC
; #@! TA.AperFunction,Plated,PTH,ViaDrill
T1C0.200
; #@! TA.AperFunction,Plated,PTH,ViaDrill
T2C0.300
; #@! TA.AperFunction,Plated,PTH,ComponentDrill
T3C0.500
; #@! TA.AperFunction,Plated,PTH,ComponentDrill
T4C0.700
; #@! TA.AperFunction,Plated,PTH,ComponentDrill
T5C1.100
%
G90
G05
T1
X28.707Y-35.67
X28.75Y-30.65
X36.35Y-33.175
T2
X18.45Y-34.25
X21.943Y-50.734
X22.0Y-36.2
X22.6Y-32.0
X22.6Y-34.0
X23.85Y-16.0
X24.3Y-36.25
X24.3Y-38.95
X26.057Y-50.734
X26.204Y-37.023
X27.15Y-16.0
X27.6Y-27.5
X27.897Y-29.124
X28.25Y-25.45
X28.647Y-24.21
X28.8Y-15.95
X30.0Y-15.95
X30.0Y-42.9
X30.4Y-49.5
X31.2Y-15.95
X31.353Y-20.79
X32.5Y-21.15
X32.85Y-16.0
X33.29Y-42.16
X33.75Y-39.65
X33.75Y-42.85
X33.75Y-45.55
X34.103Y-38.716
X34.6Y-25.45
X34.6Y-28.15
X34.7Y-20.85
X35.796Y-37.023
X36.15Y-16.0
X37.7Y-31.95
X37.7Y-34.65
X37.7Y-36.95
X37.7Y-39.65
X38.45Y-26.2
X47.2Y-49.5
X47.35Y-29.95
X47.35Y-38.85
T4
X16.44Y-31.5
X16.44Y-36.34
T5
X51.29Y-33.92
X53.83Y-33.92
X56.37Y-33.92
X58.91Y-33.92
T3
X13.36Y-30.32G85X14.16Y-30.32
G05
X13.36Y-37.52G85X14.16Y-37.52
G05
M30
