%TF.GenerationSoftware,KiCad,Pcbnew,10.0.3*%
%TF.CreationDate,2026-08-16T10:19:18-07:00*%
%TF.ProjectId,bb-buck,62622d62-7563-46b2-9e6b-696361645f70,rev?*%
%TF.SameCoordinates,Original*%
%TF.FileFunction,Copper,L2,Bot*%
%TF.FilePolarity,Positive*%
%FSLAX46Y46*%
G04 Gerber Fmt 4.6, Leading zero omitted, Abs format (unit mm)*
G04 Created by KiCad (PCBNEW 10.0.3) date 2026-08-16 10:19:18*
%MOMM*%
%LPD*%
G01*
G04 APERTURE LIST*
%TA.AperFunction,ComponentPad*%
%ADD10C,2.400000*%
%TD*%
%TA.AperFunction,ViaPad*%
%ADD11C,0.600000*%
%TD*%
G04 APERTURE END LIST*
D10*
%TO.P,J2,1*%
%TO.N,+5V*%
X46230000Y-53880000D03*
%TO.P,J2,2*%
%TO.N,GND*%
X51310000Y-53880000D03*
%TD*%
%TO.P,J1,1*%
%TO.N,+VIN*%
X31670000Y-50840000D03*
%TO.P,J1,2*%
%TO.N,GND*%
X31670000Y-55920000D03*
%TD*%
D11*
%TO.N,GND*%
X50125000Y-41404000D03*
X39400000Y-44900000D03*
X38970000Y-42755000D03*
X28711000Y-45687000D03*
X28711000Y-54252000D03*
X38190000Y-35930000D03*
X43970000Y-46900000D03*
X50125000Y-37121000D03*
X38900000Y-44200000D03*
X38200000Y-45200000D03*
X37300000Y-39750000D03*
X28711000Y-49970000D03*
X38120000Y-41055000D03*
X39800000Y-44150000D03*
X37600000Y-44200000D03*
X55750000Y-48530000D03*
X55750000Y-50230000D03*
X43590000Y-36780000D03*
X38190000Y-37630000D03*
X36400000Y-44250000D03*
X54408000Y-45687000D03*
X38970000Y-40205000D03*
X41790000Y-57930000D03*
X45842000Y-37121000D03*
X54408000Y-41404000D03*
X54408000Y-37121000D03*
X41790000Y-57080000D03*
X39820000Y-40205000D03*
X41790000Y-50930000D03*
X55750000Y-49380000D03*
X37277000Y-54252000D03*
X32050000Y-47030000D03*
X41790000Y-56230000D03*
X50125000Y-49970000D03*
X38970000Y-41055000D03*
X43590000Y-37630000D03*
X41790000Y-54430000D03*
X37277000Y-45687000D03*
X41790000Y-50080000D03*
X43590000Y-35930000D03*
X32050000Y-45330000D03*
X41790000Y-49230000D03*
X38120000Y-40205000D03*
X38120000Y-41905000D03*
X37277000Y-49970000D03*
X32050000Y-46180000D03*
X39820000Y-42755000D03*
X38970000Y-41905000D03*
X45842000Y-45687000D03*
X39820000Y-41055000D03*
X41790000Y-52730000D03*
X41790000Y-53580000D03*
X32994000Y-54252000D03*
X39820000Y-41905000D03*
X38120000Y-42755000D03*
X38190000Y-36780000D03*
X58691000Y-37121000D03*
%TD*%
%TA.AperFunction,Conductor*%
%TO.N,GND*%
G36*
X60513039Y-34999685D02*
G01*
X60558794Y-35052489D01*
X60570000Y-35104000D01*
X60570000Y-58856000D01*
X60550315Y-58923039D01*
X60497511Y-58968794D01*
X60446000Y-58980000D01*
X26694000Y-58980000D01*
X26626961Y-58960315D01*
X26581206Y-58907511D01*
X26570000Y-58856000D01*
X26570000Y-55858711D01*
X55719500Y-55858711D01*
X55719500Y-56101288D01*
X55751161Y-56341785D01*
X55813947Y-56576104D01*
X55906773Y-56800205D01*
X55906776Y-56800212D01*
X56028064Y-57010289D01*
X56028066Y-57010292D01*
X56028067Y-57010293D01*
X56175733Y-57202736D01*
X56175739Y-57202743D01*
X56347256Y-57374260D01*
X56347262Y-57374265D01*
X56539711Y-57521936D01*
X56749788Y-57643224D01*
X56973900Y-57736054D01*
X57208211Y-57798838D01*
X57388586Y-57822584D01*
X57448711Y-57830500D01*
X57448712Y-57830500D01*
X57691289Y-57830500D01*
X57739388Y-57824167D01*
X57931789Y-57798838D01*
X58166100Y-57736054D01*
X58390212Y-57643224D01*
X58600289Y-57521936D01*
X58792738Y-57374265D01*
X58964265Y-57202738D01*
X59111936Y-57010289D01*
X59233224Y-56800212D01*
X59326054Y-56576100D01*
X59388838Y-56341789D01*
X59420500Y-56101288D01*
X59420500Y-55858712D01*
X59388838Y-55618211D01*
X59326054Y-55383900D01*
X59233224Y-55159788D01*
X59111936Y-54949711D01*
X58964265Y-54757262D01*
X58964260Y-54757256D01*
X58792743Y-54585739D01*
X58792736Y-54585733D01*
X58600293Y-54438067D01*
X58600292Y-54438066D01*
X58600289Y-54438064D01*
X58390212Y-54316776D01*
X58390205Y-54316773D01*
X58166104Y-54223947D01*
X57931785Y-54161161D01*
X57691289Y-54129500D01*
X57691288Y-54129500D01*
X57448712Y-54129500D01*
X57448711Y-54129500D01*
X57208214Y-54161161D01*
X56973895Y-54223947D01*
X56749794Y-54316773D01*
X56749785Y-54316777D01*
X56539706Y-54438067D01*
X56347263Y-54585733D01*
X56347256Y-54585739D01*
X56175739Y-54757256D01*
X56175733Y-54757263D01*
X56028067Y-54949706D01*
X55906777Y-55159785D01*
X55906773Y-55159794D01*
X55813947Y-55383895D01*
X55751161Y-55618214D01*
X55719500Y-55858711D01*
X26570000Y-55858711D01*
X26570000Y-53775517D01*
X44902500Y-53775517D01*
X44902500Y-53984482D01*
X44935186Y-54190857D01*
X44999758Y-54389587D01*
X45094620Y-54575762D01*
X45217440Y-54744808D01*
X45365192Y-54892560D01*
X45534238Y-55015380D01*
X45622199Y-55060198D01*
X45720412Y-55110241D01*
X45720414Y-55110241D01*
X45720417Y-55110243D01*
X45826939Y-55144854D01*
X45919142Y-55174813D01*
X46125518Y-55207500D01*
X46125523Y-55207500D01*
X46334482Y-55207500D01*
X46540857Y-55174813D01*
X46739583Y-55110243D01*
X46925762Y-55015380D01*
X47094808Y-54892560D01*
X47242560Y-54744808D01*
X47365380Y-54575762D01*
X47460243Y-54389583D01*
X47524813Y-54190857D01*
X47534531Y-54129500D01*
X47557500Y-53984482D01*
X47557500Y-53775517D01*
X47524813Y-53569142D01*
X47460241Y-53370412D01*
X47365379Y-53184237D01*
X47242560Y-53015192D01*
X47094808Y-52867440D01*
X46925762Y-52744620D01*
X46739587Y-52649758D01*
X46540857Y-52585186D01*
X46334482Y-52552500D01*
X46334477Y-52552500D01*
X46125523Y-52552500D01*
X46125518Y-52552500D01*
X45919142Y-52585186D01*
X45720412Y-52649758D01*
X45534237Y-52744620D01*
X45365190Y-52867441D01*
X45217441Y-53015190D01*
X45094620Y-53184237D01*
X44999758Y-53370412D01*
X44935186Y-53569142D01*
X44902500Y-53775517D01*
X26570000Y-53775517D01*
X26570000Y-50735517D01*
X30342500Y-50735517D01*
X30342500Y-50944482D01*
X30375186Y-51150857D01*
X30439758Y-51349587D01*
X30534620Y-51535762D01*
X30657440Y-51704808D01*
X30805192Y-51852560D01*
X30974238Y-51975380D01*
X31062199Y-52020198D01*
X31160412Y-52070241D01*
X31160414Y-52070241D01*
X31160417Y-52070243D01*
X31266939Y-52104854D01*
X31359142Y-52134813D01*
X31565518Y-52167500D01*
X31565523Y-52167500D01*
X31774482Y-52167500D01*
X31980857Y-52134813D01*
X32179583Y-52070243D01*
X32365762Y-51975380D01*
X32534808Y-51852560D01*
X32682560Y-51704808D01*
X32805380Y-51535762D01*
X32900243Y-51349583D01*
X32964813Y-51150857D01*
X32997500Y-50944482D01*
X32997500Y-50735517D01*
X32964813Y-50529142D01*
X32900241Y-50330412D01*
X32805379Y-50144237D01*
X32682560Y-49975192D01*
X32534808Y-49827440D01*
X32365762Y-49704620D01*
X32179587Y-49609758D01*
X31980857Y-49545186D01*
X31774482Y-49512500D01*
X31774477Y-49512500D01*
X31565523Y-49512500D01*
X31565518Y-49512500D01*
X31359142Y-49545186D01*
X31160412Y-49609758D01*
X30974237Y-49704620D01*
X30805190Y-49827441D01*
X30657441Y-49975190D01*
X30534620Y-50144237D01*
X30439758Y-50330412D01*
X30375186Y-50529142D01*
X30342500Y-50735517D01*
X26570000Y-50735517D01*
X26570000Y-37858711D01*
X27719500Y-37858711D01*
X27719500Y-38101288D01*
X27751161Y-38341785D01*
X27813947Y-38576104D01*
X27906773Y-38800205D01*
X27906776Y-38800212D01*
X28028064Y-39010289D01*
X28028066Y-39010292D01*
X28028067Y-39010293D01*
X28175733Y-39202736D01*
X28175739Y-39202743D01*
X28347256Y-39374260D01*
X28347262Y-39374265D01*
X28539711Y-39521936D01*
X28749788Y-39643224D01*
X28973900Y-39736054D01*
X29208211Y-39798838D01*
X29388586Y-39822584D01*
X29448711Y-39830500D01*
X29448712Y-39830500D01*
X29691289Y-39830500D01*
X29739388Y-39824167D01*
X29931789Y-39798838D01*
X30166100Y-39736054D01*
X30390212Y-39643224D01*
X30600289Y-39521936D01*
X30792738Y-39374265D01*
X30964265Y-39202738D01*
X31111936Y-39010289D01*
X31233224Y-38800212D01*
X31326054Y-38576100D01*
X31388838Y-38341789D01*
X31420500Y-38101288D01*
X31420500Y-37858712D01*
X31388838Y-37618211D01*
X31326054Y-37383900D01*
X31233224Y-37159788D01*
X31111936Y-36949711D01*
X30964265Y-36757262D01*
X30964260Y-36757256D01*
X30792743Y-36585739D01*
X30792736Y-36585733D01*
X30600293Y-36438067D01*
X30600292Y-36438066D01*
X30600289Y-36438064D01*
X30390212Y-36316776D01*
X30390205Y-36316773D01*
X30166104Y-36223947D01*
X29931785Y-36161161D01*
X29691289Y-36129500D01*
X29691288Y-36129500D01*
X29448712Y-36129500D01*
X29448711Y-36129500D01*
X29208214Y-36161161D01*
X28973895Y-36223947D01*
X28749794Y-36316773D01*
X28749785Y-36316777D01*
X28539706Y-36438067D01*
X28347263Y-36585733D01*
X28347256Y-36585739D01*
X28175739Y-36757256D01*
X28175733Y-36757263D01*
X28028067Y-36949706D01*
X27906777Y-37159785D01*
X27906773Y-37159794D01*
X27813947Y-37383895D01*
X27751161Y-37618214D01*
X27719500Y-37858711D01*
X26570000Y-37858711D01*
X26570000Y-35104000D01*
X26589685Y-35036961D01*
X26642489Y-34991206D01*
X26694000Y-34980000D01*
X60446000Y-34980000D01*
X60513039Y-34999685D01*
G37*
%TD.AperFunction*%
%TD*%
M02*
