M48
; DRILL file KiCad 10.0.3 date 2026-08-16T10:19:18
; FORMAT={-:-/ absolute / metric / decimal}
; #@! TF.CreationDate,2026-08-16T10:19:18-07:00
; #@! TF.GenerationSoftware,Kicad,Pcbnew,10.0.3
; #@! TF.FileFunction,MixedPlating,1,2
FMAT,2
METRIC
; #@! TA.AperFunction,Plated,PTH,ViaDrill
T1C0.300
; #@! TA.AperFunction,Plated,PTH,ComponentDrill
T2C1.600
; #@! TA.AperFunction,NonPlated,NPTH,ComponentDrill
T3C3.200
%
G90
G05
T1
X28.711Y-45.687
X28.711Y-49.97
X28.711Y-54.252
X32.05Y-45.33
X32.05Y-46.18
X32.05Y-47.03
X32.994Y-54.252
X36.4Y-44.25
X37.277Y-45.687
X37.277Y-49.97
X37.277Y-54.252
X37.3Y-39.75
X37.6Y-44.2
X38.12Y-40.205
X38.12Y-41.055
X38.12Y-41.905
X38.12Y-42.755
X38.19Y-35.93
X38.19Y-36.78
X38.19Y-37.63
X38.2Y-45.2
X38.9Y-44.2
X38.97Y-40.205
X38.97Y-41.055
X38.97Y-41.905
X38.97Y-42.755
X39.4Y-44.9
X39.8Y-44.15
X39.82Y-40.205
X39.82Y-41.055
X39.82Y-41.905
X39.82Y-42.755
X41.79Y-49.23
X41.79Y-50.08
X41.79Y-50.93
X41.79Y-52.73
X41.79Y-53.58
X41.79Y-54.43
X41.79Y-56.23
X41.79Y-57.08
X41.79Y-57.93
X43.59Y-35.93
X43.59Y-36.78
X43.59Y-37.63
X43.97Y-46.9
X45.842Y-37.121
X45.842Y-45.687
X50.125Y-37.121
X50.125Y-41.404
X50.125Y-49.97
X54.408Y-37.121
X54.408Y-41.404
X54.408Y-45.687
X55.75Y-48.53
X55.75Y-49.38
X55.75Y-50.23
X58.691Y-37.121
T2
X31.67Y-50.84
X31.67Y-55.92
X46.23Y-53.88
X51.31Y-53.88
T3
X29.57Y-37.98
X57.57Y-55.98
M30
