%TF.GenerationSoftware,KiCad,Pcbnew,10.0.3*%
%TF.CreationDate,2026-08-16T10:19:18-07:00*%
%TF.ProjectId,bb-buck,62622d62-7563-46b2-9e6b-696361645f70,rev?*%
%TF.SameCoordinates,Original*%
%TF.FileFunction,Legend,Top*%
%TF.FilePolarity,Positive*%
%FSLAX46Y46*%
G04 Gerber Fmt 4.6, Leading zero omitted, Abs format (unit mm)*
G04 Created by KiCad (PCBNEW 10.0.3) date 2026-08-16 10:19:18*
%MOMM*%
%LPD*%
G01*
G04 APERTURE LIST*
%ADD10C,0.150000*%
%ADD11C,0.120000*%
%ADD12C,0.250000*%
%ADD13C,0.000000*%
%ADD14C,0.200000*%
G04 APERTURE END LIST*
D10*
X26674286Y-44008557D02*
X26974286Y-44908557D01*
X26974286Y-44908557D02*
X27274286Y-44008557D01*
X27574286Y-44908557D02*
X27574286Y-44008557D01*
X28002857Y-44908557D02*
X28002857Y-44008557D01*
X28002857Y-44008557D02*
X28517143Y-44908557D01*
X28517143Y-44908557D02*
X28517143Y-44008557D01*
X55640000Y-57988557D02*
X55211428Y-57988557D01*
X55211428Y-57988557D02*
X55168571Y-58417128D01*
X55168571Y-58417128D02*
X55211428Y-58374271D01*
X55211428Y-58374271D02*
X55297143Y-58331414D01*
X55297143Y-58331414D02*
X55511428Y-58331414D01*
X55511428Y-58331414D02*
X55597143Y-58374271D01*
X55597143Y-58374271D02*
X55640000Y-58417128D01*
X55640000Y-58417128D02*
X55682857Y-58502842D01*
X55682857Y-58502842D02*
X55682857Y-58717128D01*
X55682857Y-58717128D02*
X55640000Y-58802842D01*
X55640000Y-58802842D02*
X55597143Y-58845700D01*
X55597143Y-58845700D02*
X55511428Y-58888557D01*
X55511428Y-58888557D02*
X55297143Y-58888557D01*
X55297143Y-58888557D02*
X55211428Y-58845700D01*
X55211428Y-58845700D02*
X55168571Y-58802842D01*
X55940000Y-57988557D02*
X56240000Y-58888557D01*
X56240000Y-58888557D02*
X56540000Y-57988557D01*
X57697143Y-57988557D02*
X57868571Y-57988557D01*
X57868571Y-57988557D02*
X57954286Y-58031414D01*
X57954286Y-58031414D02*
X58040000Y-58117128D01*
X58040000Y-58117128D02*
X58082857Y-58288557D01*
X58082857Y-58288557D02*
X58082857Y-58588557D01*
X58082857Y-58588557D02*
X58040000Y-58759985D01*
X58040000Y-58759985D02*
X57954286Y-58845700D01*
X57954286Y-58845700D02*
X57868571Y-58888557D01*
X57868571Y-58888557D02*
X57697143Y-58888557D01*
X57697143Y-58888557D02*
X57611429Y-58845700D01*
X57611429Y-58845700D02*
X57525714Y-58759985D01*
X57525714Y-58759985D02*
X57482857Y-58588557D01*
X57482857Y-58588557D02*
X57482857Y-58288557D01*
X57482857Y-58288557D02*
X57525714Y-58117128D01*
X57525714Y-58117128D02*
X57611429Y-58031414D01*
X57611429Y-58031414D02*
X57697143Y-57988557D01*
X58468571Y-57988557D02*
X58468571Y-58717128D01*
X58468571Y-58717128D02*
X58511428Y-58802842D01*
X58511428Y-58802842D02*
X58554286Y-58845700D01*
X58554286Y-58845700D02*
X58640000Y-58888557D01*
X58640000Y-58888557D02*
X58811428Y-58888557D01*
X58811428Y-58888557D02*
X58897143Y-58845700D01*
X58897143Y-58845700D02*
X58940000Y-58802842D01*
X58940000Y-58802842D02*
X58982857Y-58717128D01*
X58982857Y-58717128D02*
X58982857Y-57988557D01*
X59282857Y-57988557D02*
X59797143Y-57988557D01*
X59540000Y-58888557D02*
X59540000Y-57988557D01*
X54279048Y-54453866D02*
X55040953Y-54453866D01*
X28273866Y-47860951D02*
X28273866Y-47099047D01*
X28654819Y-47479999D02*
X27892914Y-47479999D01*
X28808095Y-42559819D02*
X28808095Y-41559819D01*
X28808095Y-42036009D02*
X29379523Y-42036009D01*
X29379523Y-42559819D02*
X29379523Y-41559819D01*
X30379523Y-42559819D02*
X29808095Y-42559819D01*
X30093809Y-42559819D02*
X30093809Y-41559819D01*
X30093809Y-41559819D02*
X29998571Y-41702676D01*
X29998571Y-41702676D02*
X29903333Y-41797914D01*
X29903333Y-41797914D02*
X29808095Y-41845533D01*
X44208095Y-49009819D02*
X44779523Y-49009819D01*
X44493809Y-50009819D02*
X44493809Y-49009819D01*
X45112857Y-50009819D02*
X45112857Y-49009819D01*
X45112857Y-49009819D02*
X45493809Y-49009819D01*
X45493809Y-49009819D02*
X45589047Y-49057438D01*
X45589047Y-49057438D02*
X45636666Y-49105057D01*
X45636666Y-49105057D02*
X45684285Y-49200295D01*
X45684285Y-49200295D02*
X45684285Y-49343152D01*
X45684285Y-49343152D02*
X45636666Y-49438390D01*
X45636666Y-49438390D02*
X45589047Y-49486009D01*
X45589047Y-49486009D02*
X45493809Y-49533628D01*
X45493809Y-49533628D02*
X45112857Y-49533628D01*
X46065238Y-49105057D02*
X46112857Y-49057438D01*
X46112857Y-49057438D02*
X46208095Y-49009819D01*
X46208095Y-49009819D02*
X46446190Y-49009819D01*
X46446190Y-49009819D02*
X46541428Y-49057438D01*
X46541428Y-49057438D02*
X46589047Y-49105057D01*
X46589047Y-49105057D02*
X46636666Y-49200295D01*
X46636666Y-49200295D02*
X46636666Y-49295533D01*
X46636666Y-49295533D02*
X46589047Y-49438390D01*
X46589047Y-49438390D02*
X46017619Y-50009819D01*
X46017619Y-50009819D02*
X46636666Y-50009819D01*
X36367080Y-50246666D02*
X36414700Y-50294285D01*
X36414700Y-50294285D02*
X36462319Y-50437142D01*
X36462319Y-50437142D02*
X36462319Y-50532380D01*
X36462319Y-50532380D02*
X36414700Y-50675237D01*
X36414700Y-50675237D02*
X36319461Y-50770475D01*
X36319461Y-50770475D02*
X36224223Y-50818094D01*
X36224223Y-50818094D02*
X36033747Y-50865713D01*
X36033747Y-50865713D02*
X35890890Y-50865713D01*
X35890890Y-50865713D02*
X35700414Y-50818094D01*
X35700414Y-50818094D02*
X35605176Y-50770475D01*
X35605176Y-50770475D02*
X35509938Y-50675237D01*
X35509938Y-50675237D02*
X35462319Y-50532380D01*
X35462319Y-50532380D02*
X35462319Y-50437142D01*
X35462319Y-50437142D02*
X35509938Y-50294285D01*
X35509938Y-50294285D02*
X35557557Y-50246666D01*
X35462319Y-49341904D02*
X35462319Y-49818094D01*
X35462319Y-49818094D02*
X35938509Y-49865713D01*
X35938509Y-49865713D02*
X35890890Y-49818094D01*
X35890890Y-49818094D02*
X35843271Y-49722856D01*
X35843271Y-49722856D02*
X35843271Y-49484761D01*
X35843271Y-49484761D02*
X35890890Y-49389523D01*
X35890890Y-49389523D02*
X35938509Y-49341904D01*
X35938509Y-49341904D02*
X36033747Y-49294285D01*
X36033747Y-49294285D02*
X36271842Y-49294285D01*
X36271842Y-49294285D02*
X36367080Y-49341904D01*
X36367080Y-49341904D02*
X36414700Y-49389523D01*
X36414700Y-49389523D02*
X36462319Y-49484761D01*
X36462319Y-49484761D02*
X36462319Y-49722856D01*
X36462319Y-49722856D02*
X36414700Y-49818094D01*
X36414700Y-49818094D02*
X36367080Y-49865713D01*
X47942080Y-36946666D02*
X47989700Y-36994285D01*
X47989700Y-36994285D02*
X48037319Y-37137142D01*
X48037319Y-37137142D02*
X48037319Y-37232380D01*
X48037319Y-37232380D02*
X47989700Y-37375237D01*
X47989700Y-37375237D02*
X47894461Y-37470475D01*
X47894461Y-37470475D02*
X47799223Y-37518094D01*
X47799223Y-37518094D02*
X47608747Y-37565713D01*
X47608747Y-37565713D02*
X47465890Y-37565713D01*
X47465890Y-37565713D02*
X47275414Y-37518094D01*
X47275414Y-37518094D02*
X47180176Y-37470475D01*
X47180176Y-37470475D02*
X47084938Y-37375237D01*
X47084938Y-37375237D02*
X47037319Y-37232380D01*
X47037319Y-37232380D02*
X47037319Y-37137142D01*
X47037319Y-37137142D02*
X47084938Y-36994285D01*
X47084938Y-36994285D02*
X47132557Y-36946666D01*
X47037319Y-36613332D02*
X47037319Y-35994285D01*
X47037319Y-35994285D02*
X47418271Y-36327618D01*
X47418271Y-36327618D02*
X47418271Y-36184761D01*
X47418271Y-36184761D02*
X47465890Y-36089523D01*
X47465890Y-36089523D02*
X47513509Y-36041904D01*
X47513509Y-36041904D02*
X47608747Y-35994285D01*
X47608747Y-35994285D02*
X47846842Y-35994285D01*
X47846842Y-35994285D02*
X47942080Y-36041904D01*
X47942080Y-36041904D02*
X47989700Y-36089523D01*
X47989700Y-36089523D02*
X48037319Y-36184761D01*
X48037319Y-36184761D02*
X48037319Y-36470475D01*
X48037319Y-36470475D02*
X47989700Y-36565713D01*
X47989700Y-36565713D02*
X47942080Y-36613332D01*
X30417080Y-46822857D02*
X30464700Y-46870476D01*
X30464700Y-46870476D02*
X30512319Y-47013333D01*
X30512319Y-47013333D02*
X30512319Y-47108571D01*
X30512319Y-47108571D02*
X30464700Y-47251428D01*
X30464700Y-47251428D02*
X30369461Y-47346666D01*
X30369461Y-47346666D02*
X30274223Y-47394285D01*
X30274223Y-47394285D02*
X30083747Y-47441904D01*
X30083747Y-47441904D02*
X29940890Y-47441904D01*
X29940890Y-47441904D02*
X29750414Y-47394285D01*
X29750414Y-47394285D02*
X29655176Y-47346666D01*
X29655176Y-47346666D02*
X29559938Y-47251428D01*
X29559938Y-47251428D02*
X29512319Y-47108571D01*
X29512319Y-47108571D02*
X29512319Y-47013333D01*
X29512319Y-47013333D02*
X29559938Y-46870476D01*
X29559938Y-46870476D02*
X29607557Y-46822857D01*
X30512319Y-45870476D02*
X30512319Y-46441904D01*
X30512319Y-46156190D02*
X29512319Y-46156190D01*
X29512319Y-46156190D02*
X29655176Y-46251428D01*
X29655176Y-46251428D02*
X29750414Y-46346666D01*
X29750414Y-46346666D02*
X29798033Y-46441904D01*
X29512319Y-45251428D02*
X29512319Y-45156190D01*
X29512319Y-45156190D02*
X29559938Y-45060952D01*
X29559938Y-45060952D02*
X29607557Y-45013333D01*
X29607557Y-45013333D02*
X29702795Y-44965714D01*
X29702795Y-44965714D02*
X29893271Y-44918095D01*
X29893271Y-44918095D02*
X30131366Y-44918095D01*
X30131366Y-44918095D02*
X30321842Y-44965714D01*
X30321842Y-44965714D02*
X30417080Y-45013333D01*
X30417080Y-45013333D02*
X30464700Y-45060952D01*
X30464700Y-45060952D02*
X30512319Y-45156190D01*
X30512319Y-45156190D02*
X30512319Y-45251428D01*
X30512319Y-45251428D02*
X30464700Y-45346666D01*
X30464700Y-45346666D02*
X30417080Y-45394285D01*
X30417080Y-45394285D02*
X30321842Y-45441904D01*
X30321842Y-45441904D02*
X30131366Y-45489523D01*
X30131366Y-45489523D02*
X29893271Y-45489523D01*
X29893271Y-45489523D02*
X29702795Y-45441904D01*
X29702795Y-45441904D02*
X29607557Y-45394285D01*
X29607557Y-45394285D02*
X29559938Y-45346666D01*
X29559938Y-45346666D02*
X29512319Y-45251428D01*
X37853333Y-45507819D02*
X37520000Y-45031628D01*
X37281905Y-45507819D02*
X37281905Y-44507819D01*
X37281905Y-44507819D02*
X37662857Y-44507819D01*
X37662857Y-44507819D02*
X37758095Y-44555438D01*
X37758095Y-44555438D02*
X37805714Y-44603057D01*
X37805714Y-44603057D02*
X37853333Y-44698295D01*
X37853333Y-44698295D02*
X37853333Y-44841152D01*
X37853333Y-44841152D02*
X37805714Y-44936390D01*
X37805714Y-44936390D02*
X37758095Y-44984009D01*
X37758095Y-44984009D02*
X37662857Y-45031628D01*
X37662857Y-45031628D02*
X37281905Y-45031628D01*
X38234286Y-44603057D02*
X38281905Y-44555438D01*
X38281905Y-44555438D02*
X38377143Y-44507819D01*
X38377143Y-44507819D02*
X38615238Y-44507819D01*
X38615238Y-44507819D02*
X38710476Y-44555438D01*
X38710476Y-44555438D02*
X38758095Y-44603057D01*
X38758095Y-44603057D02*
X38805714Y-44698295D01*
X38805714Y-44698295D02*
X38805714Y-44793533D01*
X38805714Y-44793533D02*
X38758095Y-44936390D01*
X38758095Y-44936390D02*
X38186667Y-45507819D01*
X38186667Y-45507819D02*
X38805714Y-45507819D01*
X36367080Y-53746666D02*
X36414700Y-53794285D01*
X36414700Y-53794285D02*
X36462319Y-53937142D01*
X36462319Y-53937142D02*
X36462319Y-54032380D01*
X36462319Y-54032380D02*
X36414700Y-54175237D01*
X36414700Y-54175237D02*
X36319461Y-54270475D01*
X36319461Y-54270475D02*
X36224223Y-54318094D01*
X36224223Y-54318094D02*
X36033747Y-54365713D01*
X36033747Y-54365713D02*
X35890890Y-54365713D01*
X35890890Y-54365713D02*
X35700414Y-54318094D01*
X35700414Y-54318094D02*
X35605176Y-54270475D01*
X35605176Y-54270475D02*
X35509938Y-54175237D01*
X35509938Y-54175237D02*
X35462319Y-54032380D01*
X35462319Y-54032380D02*
X35462319Y-53937142D01*
X35462319Y-53937142D02*
X35509938Y-53794285D01*
X35509938Y-53794285D02*
X35557557Y-53746666D01*
X35890890Y-53175237D02*
X35843271Y-53270475D01*
X35843271Y-53270475D02*
X35795652Y-53318094D01*
X35795652Y-53318094D02*
X35700414Y-53365713D01*
X35700414Y-53365713D02*
X35652795Y-53365713D01*
X35652795Y-53365713D02*
X35557557Y-53318094D01*
X35557557Y-53318094D02*
X35509938Y-53270475D01*
X35509938Y-53270475D02*
X35462319Y-53175237D01*
X35462319Y-53175237D02*
X35462319Y-52984761D01*
X35462319Y-52984761D02*
X35509938Y-52889523D01*
X35509938Y-52889523D02*
X35557557Y-52841904D01*
X35557557Y-52841904D02*
X35652795Y-52794285D01*
X35652795Y-52794285D02*
X35700414Y-52794285D01*
X35700414Y-52794285D02*
X35795652Y-52841904D01*
X35795652Y-52841904D02*
X35843271Y-52889523D01*
X35843271Y-52889523D02*
X35890890Y-52984761D01*
X35890890Y-52984761D02*
X35890890Y-53175237D01*
X35890890Y-53175237D02*
X35938509Y-53270475D01*
X35938509Y-53270475D02*
X35986128Y-53318094D01*
X35986128Y-53318094D02*
X36081366Y-53365713D01*
X36081366Y-53365713D02*
X36271842Y-53365713D01*
X36271842Y-53365713D02*
X36367080Y-53318094D01*
X36367080Y-53318094D02*
X36414700Y-53270475D01*
X36414700Y-53270475D02*
X36462319Y-53175237D01*
X36462319Y-53175237D02*
X36462319Y-52984761D01*
X36462319Y-52984761D02*
X36414700Y-52889523D01*
X36414700Y-52889523D02*
X36367080Y-52841904D01*
X36367080Y-52841904D02*
X36271842Y-52794285D01*
X36271842Y-52794285D02*
X36081366Y-52794285D01*
X36081366Y-52794285D02*
X35986128Y-52841904D01*
X35986128Y-52841904D02*
X35938509Y-52889523D01*
X35938509Y-52889523D02*
X35890890Y-52984761D01*
X34149819Y-43741904D02*
X34959342Y-43741904D01*
X34959342Y-43741904D02*
X35054580Y-43694285D01*
X35054580Y-43694285D02*
X35102200Y-43646666D01*
X35102200Y-43646666D02*
X35149819Y-43551428D01*
X35149819Y-43551428D02*
X35149819Y-43360952D01*
X35149819Y-43360952D02*
X35102200Y-43265714D01*
X35102200Y-43265714D02*
X35054580Y-43218095D01*
X35054580Y-43218095D02*
X34959342Y-43170476D01*
X34959342Y-43170476D02*
X34149819Y-43170476D01*
X35149819Y-42170476D02*
X35149819Y-42741904D01*
X35149819Y-42456190D02*
X34149819Y-42456190D01*
X34149819Y-42456190D02*
X34292676Y-42551428D01*
X34292676Y-42551428D02*
X34387914Y-42646666D01*
X34387914Y-42646666D02*
X34435533Y-42741904D01*
X54979819Y-52663333D02*
X55694104Y-52663333D01*
X55694104Y-52663333D02*
X55836961Y-52710952D01*
X55836961Y-52710952D02*
X55932200Y-52806190D01*
X55932200Y-52806190D02*
X55979819Y-52949047D01*
X55979819Y-52949047D02*
X55979819Y-53044285D01*
X55075057Y-52234761D02*
X55027438Y-52187142D01*
X55027438Y-52187142D02*
X54979819Y-52091904D01*
X54979819Y-52091904D02*
X54979819Y-51853809D01*
X54979819Y-51853809D02*
X55027438Y-51758571D01*
X55027438Y-51758571D02*
X55075057Y-51710952D01*
X55075057Y-51710952D02*
X55170295Y-51663333D01*
X55170295Y-51663333D02*
X55265533Y-51663333D01*
X55265533Y-51663333D02*
X55408390Y-51710952D01*
X55408390Y-51710952D02*
X55979819Y-52282380D01*
X55979819Y-52282380D02*
X55979819Y-51663333D01*
X36367080Y-57246666D02*
X36414700Y-57294285D01*
X36414700Y-57294285D02*
X36462319Y-57437142D01*
X36462319Y-57437142D02*
X36462319Y-57532380D01*
X36462319Y-57532380D02*
X36414700Y-57675237D01*
X36414700Y-57675237D02*
X36319461Y-57770475D01*
X36319461Y-57770475D02*
X36224223Y-57818094D01*
X36224223Y-57818094D02*
X36033747Y-57865713D01*
X36033747Y-57865713D02*
X35890890Y-57865713D01*
X35890890Y-57865713D02*
X35700414Y-57818094D01*
X35700414Y-57818094D02*
X35605176Y-57770475D01*
X35605176Y-57770475D02*
X35509938Y-57675237D01*
X35509938Y-57675237D02*
X35462319Y-57532380D01*
X35462319Y-57532380D02*
X35462319Y-57437142D01*
X35462319Y-57437142D02*
X35509938Y-57294285D01*
X35509938Y-57294285D02*
X35557557Y-57246666D01*
X36462319Y-56770475D02*
X36462319Y-56579999D01*
X36462319Y-56579999D02*
X36414700Y-56484761D01*
X36414700Y-56484761D02*
X36367080Y-56437142D01*
X36367080Y-56437142D02*
X36224223Y-56341904D01*
X36224223Y-56341904D02*
X36033747Y-56294285D01*
X36033747Y-56294285D02*
X35652795Y-56294285D01*
X35652795Y-56294285D02*
X35557557Y-56341904D01*
X35557557Y-56341904D02*
X35509938Y-56389523D01*
X35509938Y-56389523D02*
X35462319Y-56484761D01*
X35462319Y-56484761D02*
X35462319Y-56675237D01*
X35462319Y-56675237D02*
X35509938Y-56770475D01*
X35509938Y-56770475D02*
X35557557Y-56818094D01*
X35557557Y-56818094D02*
X35652795Y-56865713D01*
X35652795Y-56865713D02*
X35890890Y-56865713D01*
X35890890Y-56865713D02*
X35986128Y-56818094D01*
X35986128Y-56818094D02*
X36033747Y-56770475D01*
X36033747Y-56770475D02*
X36081366Y-56675237D01*
X36081366Y-56675237D02*
X36081366Y-56484761D01*
X36081366Y-56484761D02*
X36033747Y-56389523D01*
X36033747Y-56389523D02*
X35986128Y-56341904D01*
X35986128Y-56341904D02*
X35890890Y-56294285D01*
X46152819Y-47076666D02*
X45676628Y-47409999D01*
X46152819Y-47648094D02*
X45152819Y-47648094D01*
X45152819Y-47648094D02*
X45152819Y-47267142D01*
X45152819Y-47267142D02*
X45200438Y-47171904D01*
X45200438Y-47171904D02*
X45248057Y-47124285D01*
X45248057Y-47124285D02*
X45343295Y-47076666D01*
X45343295Y-47076666D02*
X45486152Y-47076666D01*
X45486152Y-47076666D02*
X45581390Y-47124285D01*
X45581390Y-47124285D02*
X45629009Y-47171904D01*
X45629009Y-47171904D02*
X45676628Y-47267142D01*
X45676628Y-47267142D02*
X45676628Y-47648094D01*
X46152819Y-46124285D02*
X46152819Y-46695713D01*
X46152819Y-46409999D02*
X45152819Y-46409999D01*
X45152819Y-46409999D02*
X45295676Y-46505237D01*
X45295676Y-46505237D02*
X45390914Y-46600475D01*
X45390914Y-46600475D02*
X45438533Y-46695713D01*
X33361666Y-52834819D02*
X33361666Y-53549104D01*
X33361666Y-53549104D02*
X33314047Y-53691961D01*
X33314047Y-53691961D02*
X33218809Y-53787200D01*
X33218809Y-53787200D02*
X33075952Y-53834819D01*
X33075952Y-53834819D02*
X32980714Y-53834819D01*
X34361666Y-53834819D02*
X33790238Y-53834819D01*
X34075952Y-53834819D02*
X34075952Y-52834819D01*
X34075952Y-52834819D02*
X33980714Y-52977676D01*
X33980714Y-52977676D02*
X33885476Y-53072914D01*
X33885476Y-53072914D02*
X33790238Y-53120533D01*
X42708095Y-41884819D02*
X43279523Y-41884819D01*
X42993809Y-42884819D02*
X42993809Y-41884819D01*
X43612857Y-42884819D02*
X43612857Y-41884819D01*
X43612857Y-41884819D02*
X43993809Y-41884819D01*
X43993809Y-41884819D02*
X44089047Y-41932438D01*
X44089047Y-41932438D02*
X44136666Y-41980057D01*
X44136666Y-41980057D02*
X44184285Y-42075295D01*
X44184285Y-42075295D02*
X44184285Y-42218152D01*
X44184285Y-42218152D02*
X44136666Y-42313390D01*
X44136666Y-42313390D02*
X44089047Y-42361009D01*
X44089047Y-42361009D02*
X43993809Y-42408628D01*
X43993809Y-42408628D02*
X43612857Y-42408628D01*
X45136666Y-42884819D02*
X44565238Y-42884819D01*
X44850952Y-42884819D02*
X44850952Y-41884819D01*
X44850952Y-41884819D02*
X44755714Y-42027676D01*
X44755714Y-42027676D02*
X44660476Y-42122914D01*
X44660476Y-42122914D02*
X44565238Y-42170533D01*
X46054580Y-45196666D02*
X46102200Y-45244285D01*
X46102200Y-45244285D02*
X46149819Y-45387142D01*
X46149819Y-45387142D02*
X46149819Y-45482380D01*
X46149819Y-45482380D02*
X46102200Y-45625237D01*
X46102200Y-45625237D02*
X46006961Y-45720475D01*
X46006961Y-45720475D02*
X45911723Y-45768094D01*
X45911723Y-45768094D02*
X45721247Y-45815713D01*
X45721247Y-45815713D02*
X45578390Y-45815713D01*
X45578390Y-45815713D02*
X45387914Y-45768094D01*
X45387914Y-45768094D02*
X45292676Y-45720475D01*
X45292676Y-45720475D02*
X45197438Y-45625237D01*
X45197438Y-45625237D02*
X45149819Y-45482380D01*
X45149819Y-45482380D02*
X45149819Y-45387142D01*
X45149819Y-45387142D02*
X45197438Y-45244285D01*
X45197438Y-45244285D02*
X45245057Y-45196666D01*
X45149819Y-44863332D02*
X45149819Y-44196666D01*
X45149819Y-44196666D02*
X46149819Y-44625237D01*
X56808095Y-54009819D02*
X56808095Y-53009819D01*
X56808095Y-53486009D02*
X57379523Y-53486009D01*
X57379523Y-54009819D02*
X57379523Y-53009819D01*
X57808095Y-53105057D02*
X57855714Y-53057438D01*
X57855714Y-53057438D02*
X57950952Y-53009819D01*
X57950952Y-53009819D02*
X58189047Y-53009819D01*
X58189047Y-53009819D02*
X58284285Y-53057438D01*
X58284285Y-53057438D02*
X58331904Y-53105057D01*
X58331904Y-53105057D02*
X58379523Y-53200295D01*
X58379523Y-53200295D02*
X58379523Y-53295533D01*
X58379523Y-53295533D02*
X58331904Y-53438390D01*
X58331904Y-53438390D02*
X57760476Y-54009819D01*
X57760476Y-54009819D02*
X58379523Y-54009819D01*
X57603333Y-52514580D02*
X57555714Y-52562200D01*
X57555714Y-52562200D02*
X57412857Y-52609819D01*
X57412857Y-52609819D02*
X57317619Y-52609819D01*
X57317619Y-52609819D02*
X57174762Y-52562200D01*
X57174762Y-52562200D02*
X57079524Y-52466961D01*
X57079524Y-52466961D02*
X57031905Y-52371723D01*
X57031905Y-52371723D02*
X56984286Y-52181247D01*
X56984286Y-52181247D02*
X56984286Y-52038390D01*
X56984286Y-52038390D02*
X57031905Y-51847914D01*
X57031905Y-51847914D02*
X57079524Y-51752676D01*
X57079524Y-51752676D02*
X57174762Y-51657438D01*
X57174762Y-51657438D02*
X57317619Y-51609819D01*
X57317619Y-51609819D02*
X57412857Y-51609819D01*
X57412857Y-51609819D02*
X57555714Y-51657438D01*
X57555714Y-51657438D02*
X57603333Y-51705057D01*
X58460476Y-51943152D02*
X58460476Y-52609819D01*
X58222381Y-51562200D02*
X57984286Y-52276485D01*
X57984286Y-52276485D02*
X58603333Y-52276485D01*
X32453333Y-42589580D02*
X32405714Y-42637200D01*
X32405714Y-42637200D02*
X32262857Y-42684819D01*
X32262857Y-42684819D02*
X32167619Y-42684819D01*
X32167619Y-42684819D02*
X32024762Y-42637200D01*
X32024762Y-42637200D02*
X31929524Y-42541961D01*
X31929524Y-42541961D02*
X31881905Y-42446723D01*
X31881905Y-42446723D02*
X31834286Y-42256247D01*
X31834286Y-42256247D02*
X31834286Y-42113390D01*
X31834286Y-42113390D02*
X31881905Y-41922914D01*
X31881905Y-41922914D02*
X31929524Y-41827676D01*
X31929524Y-41827676D02*
X32024762Y-41732438D01*
X32024762Y-41732438D02*
X32167619Y-41684819D01*
X32167619Y-41684819D02*
X32262857Y-41684819D01*
X32262857Y-41684819D02*
X32405714Y-41732438D01*
X32405714Y-41732438D02*
X32453333Y-41780057D01*
X33405714Y-42684819D02*
X32834286Y-42684819D01*
X33120000Y-42684819D02*
X33120000Y-41684819D01*
X33120000Y-41684819D02*
X33024762Y-41827676D01*
X33024762Y-41827676D02*
X32929524Y-41922914D01*
X32929524Y-41922914D02*
X32834286Y-41970533D01*
X52003333Y-50009819D02*
X51527143Y-50009819D01*
X51527143Y-50009819D02*
X51527143Y-49009819D01*
X52860476Y-50009819D02*
X52289048Y-50009819D01*
X52574762Y-50009819D02*
X52574762Y-49009819D01*
X52574762Y-49009819D02*
X52479524Y-49152676D01*
X52479524Y-49152676D02*
X52384286Y-49247914D01*
X52384286Y-49247914D02*
X52289048Y-49295533D01*
X33517080Y-36946666D02*
X33564700Y-36994285D01*
X33564700Y-36994285D02*
X33612319Y-37137142D01*
X33612319Y-37137142D02*
X33612319Y-37232380D01*
X33612319Y-37232380D02*
X33564700Y-37375237D01*
X33564700Y-37375237D02*
X33469461Y-37470475D01*
X33469461Y-37470475D02*
X33374223Y-37518094D01*
X33374223Y-37518094D02*
X33183747Y-37565713D01*
X33183747Y-37565713D02*
X33040890Y-37565713D01*
X33040890Y-37565713D02*
X32850414Y-37518094D01*
X32850414Y-37518094D02*
X32755176Y-37470475D01*
X32755176Y-37470475D02*
X32659938Y-37375237D01*
X32659938Y-37375237D02*
X32612319Y-37232380D01*
X32612319Y-37232380D02*
X32612319Y-37137142D01*
X32612319Y-37137142D02*
X32659938Y-36994285D01*
X32659938Y-36994285D02*
X32707557Y-36946666D01*
X32707557Y-36565713D02*
X32659938Y-36518094D01*
X32659938Y-36518094D02*
X32612319Y-36422856D01*
X32612319Y-36422856D02*
X32612319Y-36184761D01*
X32612319Y-36184761D02*
X32659938Y-36089523D01*
X32659938Y-36089523D02*
X32707557Y-36041904D01*
X32707557Y-36041904D02*
X32802795Y-35994285D01*
X32802795Y-35994285D02*
X32898033Y-35994285D01*
X32898033Y-35994285D02*
X33040890Y-36041904D01*
X33040890Y-36041904D02*
X33612319Y-36613332D01*
X33612319Y-36613332D02*
X33612319Y-35994285D01*
X45304580Y-40371666D02*
X45352200Y-40419285D01*
X45352200Y-40419285D02*
X45399819Y-40562142D01*
X45399819Y-40562142D02*
X45399819Y-40657380D01*
X45399819Y-40657380D02*
X45352200Y-40800237D01*
X45352200Y-40800237D02*
X45256961Y-40895475D01*
X45256961Y-40895475D02*
X45161723Y-40943094D01*
X45161723Y-40943094D02*
X44971247Y-40990713D01*
X44971247Y-40990713D02*
X44828390Y-40990713D01*
X44828390Y-40990713D02*
X44637914Y-40943094D01*
X44637914Y-40943094D02*
X44542676Y-40895475D01*
X44542676Y-40895475D02*
X44447438Y-40800237D01*
X44447438Y-40800237D02*
X44399819Y-40657380D01*
X44399819Y-40657380D02*
X44399819Y-40562142D01*
X44399819Y-40562142D02*
X44447438Y-40419285D01*
X44447438Y-40419285D02*
X44495057Y-40371666D01*
X44399819Y-39514523D02*
X44399819Y-39704999D01*
X44399819Y-39704999D02*
X44447438Y-39800237D01*
X44447438Y-39800237D02*
X44495057Y-39847856D01*
X44495057Y-39847856D02*
X44637914Y-39943094D01*
X44637914Y-39943094D02*
X44828390Y-39990713D01*
X44828390Y-39990713D02*
X45209342Y-39990713D01*
X45209342Y-39990713D02*
X45304580Y-39943094D01*
X45304580Y-39943094D02*
X45352200Y-39895475D01*
X45352200Y-39895475D02*
X45399819Y-39800237D01*
X45399819Y-39800237D02*
X45399819Y-39609761D01*
X45399819Y-39609761D02*
X45352200Y-39514523D01*
X45352200Y-39514523D02*
X45304580Y-39466904D01*
X45304580Y-39466904D02*
X45209342Y-39419285D01*
X45209342Y-39419285D02*
X44971247Y-39419285D01*
X44971247Y-39419285D02*
X44876009Y-39466904D01*
X44876009Y-39466904D02*
X44828390Y-39514523D01*
X44828390Y-39514523D02*
X44780771Y-39609761D01*
X44780771Y-39609761D02*
X44780771Y-39800237D01*
X44780771Y-39800237D02*
X44828390Y-39895475D01*
X44828390Y-39895475D02*
X44876009Y-39943094D01*
X44876009Y-39943094D02*
X44971247Y-39990713D01*
%TO.C,TP2*%
D11*
X44920000Y-47130000D02*
G75*
G02*
X43020000Y-47130000I-950000J0D01*
G01*
X43020000Y-47130000D02*
G75*
G02*
X44920000Y-47130000I950000J0D01*
G01*
%TO.C,C5*%
D10*
X37710000Y-51510000D02*
X37710000Y-48650000D01*
X37860000Y-48500000D02*
X39490000Y-48500000D01*
X39490000Y-51660000D02*
X37860000Y-51660000D01*
X41050000Y-51660000D02*
X42680000Y-51660000D01*
X42680000Y-48500000D02*
X41050000Y-48500000D01*
X42830000Y-51510000D02*
X42830000Y-48650000D01*
X37710000Y-48650000D02*
G75*
G02*
X37860000Y-48500000I150000J0D01*
G01*
X37860000Y-51660000D02*
G75*
G02*
X37710000Y-51510000I0J150000D01*
G01*
X42680000Y-48500000D02*
G75*
G02*
X42830000Y-48650000I0J-150000D01*
G01*
X42830000Y-51510000D02*
G75*
G02*
X42680000Y-51660000I-150000J0D01*
G01*
%TO.C,C3*%
X39510000Y-38210000D02*
X39510000Y-35350000D01*
X39660000Y-35200000D02*
X41290000Y-35200000D01*
X41290000Y-38360000D02*
X39660000Y-38360000D01*
X42850000Y-38360000D02*
X44480000Y-38360000D01*
X44480000Y-35200000D02*
X42850000Y-35200000D01*
X44630000Y-38210000D02*
X44630000Y-35350000D01*
X39510000Y-35350000D02*
G75*
G02*
X39660000Y-35200000I150000J0D01*
G01*
X39660000Y-38360000D02*
G75*
G02*
X39510000Y-38210000I0J150000D01*
G01*
X44480000Y-35200000D02*
G75*
G02*
X44630000Y-35350000I0J-150000D01*
G01*
X44630000Y-38210000D02*
G75*
G02*
X44480000Y-38360000I-150000J0D01*
G01*
%TO.C,C10*%
X31010000Y-44750000D02*
X31010000Y-47610000D01*
X31160000Y-47760000D02*
X32790000Y-47760000D01*
X32790000Y-44600000D02*
X31160000Y-44600000D01*
X34350000Y-44600000D02*
X35980000Y-44600000D01*
X35980000Y-47760000D02*
X34350000Y-47760000D01*
X36130000Y-44750000D02*
X36130000Y-47610000D01*
X31010000Y-44750000D02*
G75*
G02*
X31160000Y-44600000I150000J0D01*
G01*
X31160000Y-47760000D02*
G75*
G02*
X31010000Y-47610000I0J150000D01*
G01*
X35980000Y-44600000D02*
G75*
G02*
X36130000Y-44750000I0J-150000D01*
G01*
X36130000Y-47610000D02*
G75*
G02*
X35980000Y-47760000I-150000J0D01*
G01*
%TO.C,R2*%
X36630000Y-46250000D02*
X36630000Y-47570000D01*
X36630000Y-47570000D02*
X37590000Y-47570000D01*
X37590000Y-46250000D02*
X36630000Y-46250000D01*
X38450000Y-46250000D02*
X39410000Y-46250000D01*
X39410000Y-46250000D02*
X39410000Y-47570000D01*
X39410000Y-47570000D02*
X38450000Y-47570000D01*
%TO.C,C8*%
X37710000Y-55010000D02*
X37710000Y-52150000D01*
X37860000Y-52000000D02*
X39490000Y-52000000D01*
X39490000Y-55160000D02*
X37860000Y-55160000D01*
X41050000Y-55160000D02*
X42680000Y-55160000D01*
X42680000Y-52000000D02*
X41050000Y-52000000D01*
X42830000Y-55010000D02*
X42830000Y-52150000D01*
X37710000Y-52150000D02*
G75*
G02*
X37860000Y-52000000I150000J0D01*
G01*
X37860000Y-55160000D02*
G75*
G02*
X37710000Y-55010000I0J150000D01*
G01*
X42680000Y-52000000D02*
G75*
G02*
X42830000Y-52150000I0J-150000D01*
G01*
X42830000Y-55010000D02*
G75*
G02*
X42680000Y-55160000I-150000J0D01*
G01*
%TO.C,U1*%
X36920000Y-38930000D02*
X36920000Y-39040000D01*
X36920000Y-40110000D02*
X36920000Y-40310000D01*
X36920000Y-41380000D02*
X36920000Y-41580000D01*
X36920000Y-42650000D02*
X36920000Y-42850000D01*
X36920000Y-43920000D02*
X36920000Y-44030000D01*
D12*
X38170000Y-38930000D02*
X36920000Y-38930000D01*
X39770000Y-38930000D02*
X41020000Y-38930000D01*
D10*
X41020000Y-38930000D02*
X41020000Y-39040000D01*
X41020000Y-40110000D02*
X41020000Y-40310000D01*
X41020000Y-41380000D02*
X41020000Y-41580000D01*
X41020000Y-42650000D02*
X41020000Y-42850000D01*
X41020000Y-43920000D02*
X41020000Y-44030000D01*
D12*
X41020000Y-44030000D02*
X36920000Y-44030000D01*
D10*
X39773646Y-38972227D02*
G75*
G02*
X38170000Y-38980000I-803646J372227D01*
G01*
D12*
X36640000Y-38450000D02*
G75*
G02*
X36300000Y-38450000I-170000J0D01*
G01*
X36300000Y-38450000D02*
G75*
G02*
X36640000Y-38450000I170000J0D01*
G01*
%TO.C,J2*%
X43690000Y-48480000D02*
X53850000Y-48480000D01*
X43690000Y-59180000D02*
X43690000Y-48480000D01*
X53850000Y-48480000D02*
X53850000Y-59180000D01*
X53850000Y-57770000D02*
X54450000Y-57490000D01*
X53850000Y-58220000D02*
X54450000Y-58490000D01*
X53850000Y-59180000D02*
X43690000Y-59180000D01*
X54450000Y-50290000D02*
X53850000Y-50570000D01*
X54450000Y-50290000D02*
X54450000Y-51290000D01*
X54450000Y-51290000D02*
X53850000Y-51010000D01*
X54450000Y-57490000D02*
X54450000Y-58490000D01*
D10*
X43720000Y-59180000D02*
G75*
G02*
X43660000Y-59180000I-30000J0D01*
G01*
X43660000Y-59180000D02*
G75*
G02*
X43720000Y-59180000I30000J0D01*
G01*
D13*
G36*
X47229998Y-56879994D02*
G01*
X45230002Y-56879994D01*
X46230000Y-55879996D01*
X47229998Y-56879994D01*
G37*
G36*
X52309998Y-56879994D02*
G01*
X50310002Y-56879994D01*
X51310000Y-55879996D01*
X52309998Y-56879994D01*
G37*
G36*
X46729999Y-58879990D02*
G01*
X45730001Y-58879990D01*
X45730001Y-56879994D01*
X46729999Y-56879994D01*
X46729999Y-58879990D01*
G37*
G36*
X51809999Y-58879990D02*
G01*
X50810001Y-58879990D01*
X50810001Y-56879994D01*
X51809999Y-56879994D01*
X51809999Y-58879990D01*
G37*
%TO.C,C9*%
D10*
X37710000Y-58510000D02*
X37710000Y-55650000D01*
X37860000Y-55500000D02*
X39490000Y-55500000D01*
X39490000Y-58660000D02*
X37860000Y-58660000D01*
X41050000Y-58660000D02*
X42680000Y-58660000D01*
X42680000Y-55500000D02*
X41050000Y-55500000D01*
X42830000Y-58510000D02*
X42830000Y-55650000D01*
X37710000Y-55650000D02*
G75*
G02*
X37860000Y-55500000I150000J0D01*
G01*
X37860000Y-58660000D02*
G75*
G02*
X37710000Y-58510000I0J150000D01*
G01*
X42680000Y-55500000D02*
G75*
G02*
X42830000Y-55650000I0J-150000D01*
G01*
X42830000Y-58510000D02*
G75*
G02*
X42680000Y-58660000I-150000J0D01*
G01*
%TO.C,R1*%
X39730000Y-46250000D02*
X40690000Y-46250000D01*
X39730000Y-47570000D02*
X39730000Y-46250000D01*
X40690000Y-47570000D02*
X39730000Y-47570000D01*
X41550000Y-47570000D02*
X42510000Y-47570000D01*
X42510000Y-46250000D02*
X41550000Y-46250000D01*
X42510000Y-47570000D02*
X42510000Y-46250000D01*
%TO.C,J1*%
D12*
X26370000Y-48300000D02*
X37070000Y-48300000D01*
X26370000Y-58460000D02*
X26370000Y-48300000D01*
X27330000Y-58460000D02*
X27060000Y-59060000D01*
X27780000Y-58460000D02*
X28060000Y-59060000D01*
X28060000Y-59060000D02*
X27060000Y-59060000D01*
X34260000Y-59060000D02*
X34540000Y-58460000D01*
X35260000Y-59060000D02*
X34260000Y-59060000D01*
X35260000Y-59060000D02*
X34980000Y-58460000D01*
X37070000Y-48300000D02*
X37070000Y-58460000D01*
X37070000Y-58460000D02*
X26370000Y-58460000D01*
D10*
X26400000Y-48300000D02*
G75*
G02*
X26340000Y-48300000I-30000J0D01*
G01*
X26340000Y-48300000D02*
G75*
G02*
X26400000Y-48300000I30000J0D01*
G01*
D13*
G36*
X29670004Y-50840000D02*
G01*
X28670006Y-51839998D01*
X28670006Y-49840002D01*
X29670004Y-50840000D01*
G37*
G36*
X29670004Y-55920000D02*
G01*
X28670006Y-56919998D01*
X28670006Y-54920002D01*
X29670004Y-55920000D01*
G37*
G36*
X28670006Y-51339999D02*
G01*
X26670010Y-51339999D01*
X26670010Y-50340001D01*
X28670006Y-50340001D01*
X28670006Y-51339999D01*
G37*
G36*
X28670006Y-56419999D02*
G01*
X26670010Y-56419999D01*
X26670010Y-55420001D01*
X28670006Y-55420001D01*
X28670006Y-56419999D01*
G37*
%TO.C,TP1*%
D11*
X44920000Y-44380000D02*
G75*
G02*
X43020000Y-44380000I-950000J0D01*
G01*
X43020000Y-44380000D02*
G75*
G02*
X44920000Y-44380000I950000J0D01*
G01*
%TO.C,C7*%
D12*
X39780000Y-45430000D02*
X39780000Y-44630000D01*
D14*
X40890000Y-44320000D02*
X40090000Y-44320000D01*
X40890000Y-45740000D02*
X40090000Y-45740000D01*
X41450000Y-44320000D02*
X42250000Y-44320000D01*
X41450000Y-45740000D02*
X42250000Y-45740000D01*
D12*
X42560000Y-44630000D02*
X42560000Y-45430000D01*
D14*
X39780000Y-44630000D02*
G75*
G02*
X40090000Y-44320000I310000J0D01*
G01*
X40090000Y-45740000D02*
G75*
G02*
X39780000Y-45430000I0J310000D01*
G01*
X42250000Y-44320000D02*
G75*
G02*
X42560000Y-44630000I0J-310000D01*
G01*
X42560000Y-45430000D02*
G75*
G02*
X42250000Y-45740000I-310000J0D01*
G01*
%TO.C,C4*%
D10*
X54710000Y-47950000D02*
X54710000Y-50810000D01*
X54860000Y-50960000D02*
X56490000Y-50960000D01*
X56490000Y-47800000D02*
X54860000Y-47800000D01*
X58050000Y-47800000D02*
X59680000Y-47800000D01*
X59680000Y-50960000D02*
X58050000Y-50960000D01*
X59830000Y-47950000D02*
X59830000Y-50810000D01*
X54710000Y-47950000D02*
G75*
G02*
X54860000Y-47800000I150000J0D01*
G01*
X54860000Y-50960000D02*
G75*
G02*
X54710000Y-50810000I0J150000D01*
G01*
X59680000Y-47800000D02*
G75*
G02*
X59830000Y-47950000I0J-150000D01*
G01*
X59830000Y-50810000D02*
G75*
G02*
X59680000Y-50960000I-150000J0D01*
G01*
%TO.C,C1*%
D14*
X33910000Y-39925000D02*
X33910000Y-39125000D01*
X33910000Y-40485000D02*
X33910000Y-41285000D01*
D12*
X34220000Y-38815000D02*
X35020000Y-38815000D01*
X35020000Y-41595000D02*
X34220000Y-41595000D01*
D14*
X35330000Y-39925000D02*
X35330000Y-39125000D01*
X35330000Y-40485000D02*
X35330000Y-41285000D01*
X33910000Y-39125000D02*
G75*
G02*
X34220000Y-38815000I310000J0D01*
G01*
X34220000Y-41595000D02*
G75*
G02*
X33910000Y-41285000I0J310000D01*
G01*
X35020000Y-38815000D02*
G75*
G02*
X35330000Y-39125000I0J-310000D01*
G01*
X35330000Y-41285000D02*
G75*
G02*
X35020000Y-41595000I-310000J0D01*
G01*
%TO.C,L1*%
D12*
X46470000Y-35030000D02*
X58970000Y-35030000D01*
D10*
X46470000Y-38300000D02*
X46470000Y-35030000D01*
X46470000Y-47530000D02*
X46470000Y-44160000D01*
X58970000Y-35030000D02*
X58970000Y-38300000D01*
X58970000Y-44160000D02*
X58970000Y-47530000D01*
D12*
X58970000Y-47530000D02*
X46470000Y-47530000D01*
D10*
X46100000Y-35080000D02*
G75*
G02*
X46040000Y-35080000I-30000J0D01*
G01*
X46040000Y-35080000D02*
G75*
G02*
X46100000Y-35080000I30000J0D01*
G01*
D12*
X55670000Y-41230000D02*
G75*
G02*
X49670000Y-41230000I-3000000J0D01*
G01*
X49670000Y-41230000D02*
G75*
G02*
X55670000Y-41230000I3000000J0D01*
G01*
%TO.C,C2*%
D10*
X34110000Y-38210000D02*
X34110000Y-35350000D01*
X34260000Y-35200000D02*
X35890000Y-35200000D01*
X35890000Y-38360000D02*
X34260000Y-38360000D01*
X37450000Y-38360000D02*
X39080000Y-38360000D01*
X39080000Y-35200000D02*
X37450000Y-35200000D01*
X39230000Y-38210000D02*
X39230000Y-35350000D01*
X34110000Y-35350000D02*
G75*
G02*
X34260000Y-35200000I150000J0D01*
G01*
X34260000Y-38360000D02*
G75*
G02*
X34110000Y-38210000I0J150000D01*
G01*
X39080000Y-35200000D02*
G75*
G02*
X39230000Y-35350000I0J-150000D01*
G01*
X39230000Y-38210000D02*
G75*
G02*
X39080000Y-38360000I-150000J0D01*
G01*
%TO.C,C6*%
D14*
X42610000Y-39925000D02*
X42610000Y-39125000D01*
X42610000Y-40485000D02*
X42610000Y-41285000D01*
D12*
X42920000Y-38815000D02*
X43720000Y-38815000D01*
X43720000Y-41595000D02*
X42920000Y-41595000D01*
D14*
X44030000Y-39925000D02*
X44030000Y-39125000D01*
X44030000Y-40485000D02*
X44030000Y-41285000D01*
X42610000Y-39125000D02*
G75*
G02*
X42920000Y-38815000I310000J0D01*
G01*
X42920000Y-41595000D02*
G75*
G02*
X42610000Y-41285000I0J310000D01*
G01*
X43720000Y-38815000D02*
G75*
G02*
X44030000Y-39125000I0J-310000D01*
G01*
X44030000Y-41285000D02*
G75*
G02*
X43720000Y-41595000I-310000J0D01*
G01*
%TD*%
M02*
